<?xml version="1.0" encoding="utf-8"?>
<!-- Generator: $$$/GeneralStr/196=Adobe Illustrator 27.6.0, SVG Export Plug-In . SVG Version: 6.00 Build 0)  -->
<svg version="1.1" id="图层_2" xmlns="http://www.w3.org/2000/svg" x="0px"
     y="0px"
     viewBox="0 0 128 128" style="enable-background:new 0 0 128 128;" xml:space="preserve">
<style type="text/css">
	.st0{fill:none;stroke:#333333;stroke-width:9;stroke-miterlimit:10;}
	.st1{fill:#333333;}
	.st2{fill:#FFFFFF;}
	.st3{fill:#0078D4;}
</style>
    <path class="st0" d="M113.2,53.1c2.1,9.8,1.3,20.3-2.9,30.3c-5.9,13.9-17.3,23.7-30.6,28"/>
    <path class="st0" d="M32.4,24.5c14-11.3,33.6-14.6,51.3-7.1c4.2,1.8,8,4.1,11.4,6.8"/>
    <path class="st0" d="M44.2,109.9c-22.1-9.4-34-32.8-29.7-55.5"/>
    <g>
	<path class="st1"
          d="M75.6,113.4c-1.1-2.2-0.2-5,2-6c2.2-1.1,5-0.2,6,2c1.1,2.2,0.2,5-2,6C79.4,116.5,76.8,115.6,75.6,113.4z"/>
</g>
    <g>
	<path class="st1"
          d="M91.2,26.2c-1.1-2.2-0.2-5,2-6c2.2-1.1,5-0.2,6,2c1.1,2.2,0.2,5-2,6C94.9,29.3,92.3,28.4,91.2,26.2z"/>
</g>
    <g>
	<path class="st1"
          d="M10.6,56.4c-1.1-2.2-0.2-5,2-6c2.2-1.1,5-0.2,6,2c1.1,2.2,0.2,5-2,6C14.3,59.5,11.7,58.6,10.6,56.4z"/>
</g>
    <g>
	<g>
		<path class="st2" d="M47.4,104.8c-2.8-1.8-6.6-1.1-8.5,1.7c-1.8,2.8-1.1,6.6,1.7,8.5c2.8,1.8,6.6,1.1,8.5-1.7
			C50.9,110.5,50.2,106.6,47.4,104.8z"/>
        <path class="st1" d="M47.8,104.1c3.1,2.1,4,6.4,1.9,9.5c-2.1,3.1-6.4,4-9.5,1.9s-4-6.4-1.9-9.5C40.4,102.9,44.7,102,47.8,104.1
			C51,106.2,44.7,102,47.8,104.1z M41.1,114.3c2.5,1.6,5.7,0.9,7.4-1.4c1.6-2.5,0.9-5.7-1.4-7.4c-2.5-1.6-5.7-0.9-7.4,1.4
			C38,109.4,38.7,112.7,41.1,114.3C43.5,115.9,38.7,112.7,41.1,114.3z"/>
	</g>
</g>
    <g>
	<g>
		<path class="st2"
              d="M116.2,47.9c-2.8-1.8-6.6-1.1-8.5,1.7s-1.1,6.6,1.7,8.5c2.8,1.8,6.6,1.1,8.5-1.7S119,49.7,116.2,47.9z"/>
        <path class="st1" d="M116.6,47.2c3.1,2.1,4,6.4,1.9,9.5s-6.4,4-9.5,1.9s-4-6.4-1.9-9.5C109.2,46,113.5,45.1,116.6,47.2
			C119.8,49.3,113.5,45.1,116.6,47.2z M109.9,57.4c2.5,1.6,5.7,0.9,7.4-1.4c1.6-2.5,0.9-5.7-1.4-7.4c-2.5-1.6-5.7-0.9-7.4,1.4
			C106.9,52.5,107.5,55.8,109.9,57.4C112.4,59,107.5,55.8,109.9,57.4z"/>
	</g>
</g>
    <g>
	<g>
		<path class="st2"
              d="M36.5,18.4c-2.8-1.8-6.6-1.1-8.5,1.7s-1.1,6.6,1.7,8.5c2.8,1.8,6.6,1.1,8.5-1.7S39.3,20.2,36.5,18.4z"/>
        <path class="st1" d="M37,17.7c3.1,2.1,4,6.4,1.9,9.5s-6.4,4-9.5,1.9s-4-6.4-1.9-9.5C29.5,16.5,33.8,15.6,37,17.7
			C40.2,19.8,33.8,15.6,37,17.7z M30.2,27.8c2.5,1.6,5.7,0.9,7.4-1.4c1.6-2.5,0.9-5.7-1.4-7.4c-2.5-1.6-5.7-0.9-7.4,1.4
			C27.2,23,27.8,26.3,30.2,27.8C32.7,29.4,27.8,26.3,30.2,27.8z"/>
	</g>
</g>
    <path class="st3" d="M39,70v0.9c0,1.5,0.9,2.3,2.3,2.3c1.2,0,2-0.6,2.6-1.8l1.2-3.2h9.7l0.9,3.2c0.6,1.2,1.5,1.8,2.6,1.8
	c1.5,0,2.3-0.6,2.3-2c0-0.3,0-0.9-0.3-1.5l-6.7-19c-0.9-2-2-2.9-3.8-2.9c-1.8,0-2.9,1.2-3.8,2.9L39,70L39,70z M49.8,53.3L53,63.5
	h-6.4L49.8,53.3z M65,48c-1.8,0-2.6,0.9-2.6,2.6v19.9c0,1.8,0.9,2.3,2.6,2.3s2.6-0.9,2.6-2.3v-5.9h3.8c5.6-0.3,8.5-3.2,8.8-8.5
	c-0.3-5.3-3.2-7.9-8.8-8.5H65V48z M74.7,56.5c-0.3,2.3-1.5,3.5-3.5,3.8h-3.5V53h3.5C73.5,53,74.7,54.2,74.7,56.5z M84.4,73.2
	c1.8,0,2.6-0.9,2.6-2.3V50.9c0-1.8-0.9-2.6-2.6-2.6s-2.6,0.9-2.6,2.6v19.9C82,72.3,82.9,73.2,84.4,73.2z"/>
</svg>
