<?xml version="1.0" encoding="UTF-8"?>
<svg id="_图层_1" xmlns="http://www.w3.org/2000/svg" version="1.1" viewBox="0 0 201.95 200">
  <!-- Generator: Adobe Illustrator 29.6.0, SVG Export Plug-In . SVG Version: 2.1.1 Build 207)  -->
  <defs>
    <style>
      .st0 {
        fill: #fff;
      }

      .st1, .st2 {
        fill: #0fbbf7;
      }

      .st2 {
        isolation: isolate;
        opacity: .3;
      }
    </style>
  </defs>
  <path class="st2" d="M156.99,18.24L95.43,1.78C63.31-6.88,30.2,12.26,21.71,44.37l-15.97,59.9c-8.65,32.11,10.48,65.23,42.59,73.71l61.56,16.47c32.11,8.65,65.23-10.48,73.71-42.59l15.97-59.9c8.65-32.11-10.48-65.23-42.59-73.71h0Z"/>
  <path class="st1" d="M134.52,11.91h-59.9c-31.28,0-56.57,25.29-56.57,56.57v58.23c0,31.28,25.29,56.57,56.57,56.57h59.9c31.28,0,56.57-25.29,56.57-56.57v-58.23c0-31.28-25.45-56.57-56.57-56.57h0Z"/>
  <path class="st0" d="M157.23,164.25c-2.47-.11-4.8-1.17-6.5-2.98l-15.46-16.43c-3.59-3.82-3.4-9.82.41-13.41,3.82-3.59,9.82-3.4,13.41.41l15.46,16.43c3.59,3.82,3.4,9.82-.41,13.41-1.86,1.75-4.35,2.68-6.91,2.56h0Z"/>
  <path class="st0" d="M103.38,146.55c-28.93,0-52.47-22.44-52.47-50.02s23.54-50.02,52.47-50.02,52.47,22.44,52.47,50.02-23.54,50.02-52.47,50.02ZM103.38,61.99c-19.99,0-36.25,15.49-36.25,34.56s16.26,34.56,36.25,34.56,36.25-15.49,36.25-34.56-16.26-34.56-36.25-34.56Z"/>
</svg>