<?xml version="1.0" encoding="UTF-8"?>
<svg id="_图层_1" xmlns="http://www.w3.org/2000/svg" version="1.1" viewBox="0 0 201.95 200">
  <!-- Generator: Adobe Illustrator 29.6.0, SVG Export Plug-In . SVG Version: 2.1.1 Build 207)  -->
  <defs>
    <style>
      .st0 {
        isolation: isolate;
        opacity: .3;
      }

      .st0, .st1 {
        fill: #37d2e2;
      }

      .st2 {
        fill: #fff;
      }
    </style>
  </defs>
  <path class="st0" d="M155.3,20.44L93.74,4.04C61.63-4.58,28.69,14.31,20.03,46.3l-15.97,59.67c-8.65,31.99,10.31,64.97,42.59,73.59l61.56,16.4c32.11,8.62,65.22-10.44,73.71-42.43l15.97-59.67c8.65-31.99-10.48-64.97-42.59-73.43h0Z"/>
  <path class="st1" d="M130.92,14.15h-59.9c-31.28,0-56.57,25.19-56.57,56.35v58.01c0,31.16,25.28,56.35,56.57,56.35h59.9c31.28,0,56.57-25.19,56.57-56.35v-58.01c0-31.16-25.28-56.35-56.57-56.35h0Z"/>
  <path class="st2" d="M139.53,74.03c12.3,0,22.48,9.01,23.15,20.52l.04,1.19v34.13c0,11.53-9.61,21.06-21.91,21.68l-1.27.04h-36.43c-12.3,0-22.48-9.01-23.15-20.52l-.04-1.19v-15.12h9.93v15.12c0,6.49,5.35,11.89,12.26,12.38l1,.04h36.43c6.93,0,12.7-5.01,13.22-11.48l.04-.93v-34.13c0-6.49-5.35-11.89-12.26-12.38l-1-.04h-9.47v-9.31h9.47,0,0Z"/>
  <path class="st2" d="M117.78,49.12c12.83,0,23.22,8.34,23.22,18.61h0v37.22c0,10.27-10.39,18.61-23.22,18.61h-46.44c-12.83,0-23.22-8.34-23.22-18.61h0v-37.22c0-10.27,10.39-18.61,23.22-18.61,0,0,46.44,0,46.44,0ZM117.78,58.42h-46.44c-5.98,0-10.99,3.64-11.55,8.41l-.06.9v37.22c0,4.79,4.54,8.8,10.5,9.26l1.11.05h46.44c5.98,0,10.99-3.64,11.55-8.41l.06-.9v-37.22c0-4.79-4.54-8.8-10.5-9.26l-1.11-.05h0Z"/>
  <path class="st2" d="M100.97,64.01h0c4.41,0,6.63,2.07,6.63,6.2h0c0,4.13-2.2,6.2-6.63,6.2h0c-4.41,0-6.63-2.07-6.63-6.2h0c0-4.13,2.2-6.2,6.63-6.2Z"/>
</svg>