<?xml version="1.0" encoding="UTF-8"?>
<svg id="_图层_1" xmlns="http://www.w3.org/2000/svg" version="1.1" viewBox="0 0 201.95 200">
  <!-- Generator: Adobe Illustrator 29.6.0, SVG Export Plug-In . SVG Version: 2.1.1 Build 207)  -->
  <defs>
    <style>
      .st0 {
        fill: #fff;
      }

      .st1 {
        isolation: isolate;
        opacity: .3;
      }

      .st1, .st2 {
        fill: #ff544e;
      }
    </style>
  </defs>
  <path class="st1" d="M155.45,21.61L93.89,5.15C61.77-3.51,28.66,15.63,20.17,47.74l-15.97,59.9c-8.65,32.11,10.48,65.23,42.59,73.71l61.56,16.47c32.11,8.65,65.23-10.48,73.71-42.59l15.97-59.9c8.65-32.11-10.48-65.06-42.59-73.71h0Z"/>
  <path class="st2" d="M132.82,15.28h-59.9c-31.28,0-56.57,25.29-56.57,56.57v58.23c0,31.28,25.29,56.57,56.57,56.57h59.9c31.28,0,56.57-25.29,56.57-56.57v-58.23c0-31.28-25.29-56.57-56.57-56.57Z"/>
  <path class="st0" d="M155.51,87.68c-.09,21.86-25.2,46.12-40.54,58.91-6.88,5.73-16.36,5.73-23.24,0-15.34-12.79-40.44-37.05-40.54-58.91-.07-15.9,11.78-29.31,26.32-29.65,9.5-.23,17.89,4.93,22.83,12.87,1.47,2.37,4.56,2.37,6.03,0,4.94-7.94,13.34-13.1,22.83-12.87,14.52.36,26.39,13.75,26.32,29.65h-.01Z"/>
</svg>