<?xml version="1.0" encoding="UTF-8"?>
<svg id="_图层_1" xmlns="http://www.w3.org/2000/svg" version="1.1" viewBox="0 0 201.95 200">
  <!-- Generator: Adobe Illustrator 29.6.0, SVG Export Plug-In . SVG Version: 2.1.1 Build 207)  -->
  <defs>
    <style>
      .st0 {
        fill: #fff;
      }

      .st1 {
        isolation: isolate;
        opacity: .3;
      }

      .st1, .st2 {
        fill: #6a7caa;
      }
    </style>
  </defs>
  <path class="st1" d="M156.99,21.61L95.43,5.15C63.31-3.51,30.37,15.63,21.71,47.74l-15.97,59.9c-8.65,32.11,10.48,65.23,42.59,73.71l61.56,16.47c32.11,8.65,65.23-10.48,73.71-42.59l15.97-59.9c8.65-32.11-10.48-65.06-42.59-73.71h0Z"/>
  <path class="st2" d="M134.52,15.28h-59.9c-31.28,0-56.57,25.29-56.57,56.57v58.23c0,31.28,25.29,56.57,56.57,56.57h59.9c31.28,0,56.57-25.29,56.57-56.57v-58.23c-.17-31.28-25.45-56.57-56.57-56.57h0Z"/>
  <path class="st0" d="M96.93,97.54h-29.85c-4.66,0-8.43-3.77-8.43-8.43v-29.86c0-4.66,3.77-8.43,8.43-8.43h29.85c4.66,0,8.43,3.77,8.43,8.43v29.85c0,4.66-3.76,8.43-8.42,8.44h-.01ZM96.93,153.9h-29.85c-4.66,0-8.43-3.77-8.43-8.43v-29.85c0-4.66,3.77-8.43,8.43-8.43h29.85c4.66,0,8.43,3.77,8.43,8.43v29.85c0,4.66-3.77,8.43-8.43,8.43h0ZM152.44,153.9h-29.85c-4.66,0-8.43-3.77-8.43-8.43v-29.85c0-4.66,3.77-8.43,8.43-8.43h29.85c4.66,0,8.43,3.77,8.43,8.43v29.85c0,4.66-3.77,8.43-8.43,8.43h0Z"/>
  <path class="st0" d="M129.53,95.69l-14.21-14.21c-4.4-4.4-4.4-11.52,0-15.92l14.21-14.21c4.4-4.4,11.52-4.4,15.92,0l14.21,14.21c4.4,4.4,4.4,11.52,0,15.92l-14.2,14.21c-4.4,4.4-11.52,4.4-15.93,0h0Z"/>
</svg>