<?xml version="1.0" encoding="UTF-8"?>
<svg id="_图层_1" xmlns="http://www.w3.org/2000/svg" version="1.1" viewBox="0 0 201.95 200">
  <!-- Generator: Adobe Illustrator 29.6.0, SVG Export Plug-In . SVG Version: 2.1.1 Build 207)  -->
  <defs>
    <style>
      .st0 {
        fill: #fff;
      }

      .st1 {
        isolation: isolate;
        opacity: .3;
      }

      .st1, .st2 {
        fill: #00d1a2;
      }
    </style>
  </defs>
  <path class="st1" d="M155.45,21.89L93.89,5.43C61.77-3.23,28.66,15.91,20.17,48.02l-15.97,59.9c-8.65,32.11,10.48,65.23,42.59,73.71l61.56,16.47c32.11,8.65,65.23-10.48,73.71-42.59l15.97-59.9c8.65-32.11-10.48-65.23-42.59-73.71h0Z"/>
  <path class="st2" d="M132.82,17.23h-59.9c-31.28,0-56.57,25.29-56.57,56.57v58.23c0,31.28,25.29,56.57,56.57,56.57h59.9c31.28,0,56.57-25.29,56.57-56.57v-58.23c0-31.28-25.29-56.57-56.57-56.57Z"/>
  <path class="st0" d="M147.97,65.48h-17.17c-4.14,0-7.52,3.51-7.52,7.81v75.28c0,4.3,3.37,7.81,7.52,7.81h17.17c4.14,0,7.52-3.51,7.52-7.81v-75.28c0-4.3-3.37-7.81-7.52-7.81h0ZM112.32,53.12h-18.01c-4.42,0-8.04,3.75-8.04,8.36v86.58c0,4.61,3.59,8.36,8.04,8.36h18.01c4.42,0,8.04-3.75,8.04-8.36V61.48c0-4.61-3.62-8.36-8.04-8.36ZM114.09,111.61c0,1.3-1.04,2.39-2.3,2.39h-16.92c-1.27,0-2.3-1.07-2.3-2.39v-.28c0-1.3,1.04-2.39,2.3-2.39h16.94c1.27,0,2.3,1.07,2.3,2.39v.28h-.02ZM114.09,101.57c0,1.3-1.04,2.39-2.3,2.39h-16.92c-1.27,0-2.3-1.07-2.3-2.39v-.28c0-1.3,1.04-2.39,2.3-2.39h16.94c1.27,0,2.3,1.07,2.3,2.39v.28h-.02ZM75.83,65.48h-17.17c-4.14,0-7.52,3.51-7.52,7.81v75.28c0,4.3,3.37,7.81,7.52,7.81h17.17c4.14,0,7.52-3.51,7.52-7.81v-75.28c0-4.3-3.37-7.81-7.52-7.81ZM76.94,115.96c0,1.24-.98,2.25-2.18,2.25h-15c-1.21,0-2.18-1.02-2.18-2.25v-.55c0-1.24.98-2.25,2.18-2.25h15c1.21,0,2.18,1.02,2.18,2.25v.55ZM76.94,106.71c0,1.24-.98,2.25-2.18,2.25h-15c-1.21,0-2.18-1.02-2.18-2.25v-.55c0-1.24.98-2.25,2.18-2.25h15c1.21,0,2.18,1.02,2.18,2.25v.55ZM76.94,97.46c0,1.24-.98,2.25-2.18,2.25h-15c-1.21,0-2.18-1.02-2.18-2.25v-.52c0-1.24.98-2.25,2.18-2.25h15c1.21,0,2.18,1.02,2.18,2.25v.52h0Z"/>
</svg>