<?xml version="1.0" standalone="no"?><!DOCTYPE svg PUBLIC "-//W3C//DTD SVG 1.1//EN" "http://www.w3.org/Graphics/SVG/1.1/DTD/svg11.dtd"><svg t="1633786309138" class="icon" viewBox="0 0 1026 1024" version="1.1" xmlns="http://www.w3.org/2000/svg" p-id="15954" xmlns:xlink="http://www.w3.org/1999/xlink" width="300.5859375" height="300"><defs><style type="text/css"></style></defs><path d="M497.507704 1023.770591A530.202624 530.202624 0 0 1 0 501.196781 513.310249 513.310249 0 0 1 455.549223 0.419585a51.222042 51.222042 0 0 1 57.761026 51.222042A58.850857 58.850857 0 0 1 462.633122 109.402653a408.141589 408.141589 0 0 0-306.24242 599.406872 351.470393 351.470393 0 0 0 163.474602 160.750025 407.596673 407.596673 0 0 0 599.406872-358.554293 402.692435 402.692435 0 0 0-28.880513-149.851718 50.677126 50.677126 0 0 1 23.43136-63.210179 57.216111 57.216111 0 0 1 78.467809 29.425428 513.310249 513.310249 0 0 1-494.783128 696.401803z" fill="#3F90F7" p-id="15955"></path><path d="M513.310249 436.351856a66.479671 66.479671 0 0 1 63.210179 69.749163 66.479671 66.479671 0 0 1-63.210179 71.928825 66.479671 66.479671 0 0 1-63.210179-69.749164A66.479671 66.479671 0 0 1 513.310249 436.351856m0-101.899169a168.37884 168.37884 0 0 0-163.474602 171.648332 168.37884 168.37884 0 0 0 163.474602 171.648332 168.37884 168.37884 0 0 0 163.474602-171.648332 168.37884 168.37884 0 0 0-163.474602-171.648332z" fill="#3F90F7" p-id="15956"></path><path d="M679.509427 508.28068H599.406872V188.415377a176.55257 176.55257 0 0 1 163.474602-184.181385 171.648332 171.648332 0 0 1 163.474602 141.133073 35.964412 35.964412 0 0 1-35.419497 43.048312 48.497465 48.497465 0 0 1-46.317804-32.694921A89.366116 89.366116 0 0 0 762.881474 85.971293a96.450015 96.450015 0 0 0-85.551708 102.444084z" fill="#3F90F7" p-id="15957"></path></svg>