<?xml version="1.0" standalone="no"?><!DOCTYPE svg PUBLIC "-//W3C//DTD SVG 1.1//EN" "http://www.w3.org/Graphics/SVG/1.1/DTD/svg11.dtd"><svg t="1633786291392" class="icon" viewBox="0 0 1024 1024" version="1.1" xmlns="http://www.w3.org/2000/svg" p-id="14848" xmlns:xlink="http://www.w3.org/1999/xlink" width="300" height="300"><defs><style type="text/css"></style></defs><path d="M512 1024C229.24 1024 0 794.76 0 512S229.24 0 512 0s512 229.24 512 512-229.24 512-512 512z m215.814-682.553V235.361c0-18.569-15.747-32.814-33.269-30.038L371.28 256.592c-13.426 2.161-23.37 14.267-23.37 28.512v338.603a86.721 86.721 0 0 0-32.427-6.258c-48.538 0-87.927 39.868-87.927 89.065 0 49.22 39.367 89.088 87.927 89.088s87.882-39.822 87.882-89.02c0-1.547-0.068-3.094-0.137-4.641h0.137V392.943l268.925-42.69v217.225a87.45 87.45 0 0 0-32.54-6.303c-48.697 0-88.064 39.867-88.064 89.065 0 49.22 39.435 89.088 88.064 89.088 48.606 0 88.064-39.868 88.064-89.088 0-2.412-0.137-4.824-0.273-7.259V341.515l0.273-0.068z" fill="#B2AFCC" p-id="14849"></path></svg>