<?xml version="1.0" standalone="no"?><!DOCTYPE svg PUBLIC "-//W3C//DTD SVG 1.1//EN" "http://www.w3.org/Graphics/SVG/1.1/DTD/svg11.dtd"><svg t="1633786283485" class="icon" viewBox="0 0 1024 1024" version="1.1" xmlns="http://www.w3.org/2000/svg" p-id="14686" xmlns:xlink="http://www.w3.org/1999/xlink" width="300" height="300"><defs><style type="text/css"></style></defs><path d="M425.984 821.12a130.28864 130.28864 0 1 0-130.28864 130.304 130.29888 130.29888 0 0 0 130.28864-130.304z m524.8-81.43872a130.29376 130.29376 0 1 0-130.29376 130.304 130.29888 130.29888 0 0 0 130.29376-130.304z" fill="#F4CA1C" p-id="14687"></path><path d="M915.39968 79.872a76.61568 76.61568 0 0 0-61.84448-17.50016L407.45984 136.6784a76.1088 76.1088 0 0 0-64.8448 75.66336v443.22816a165.888 165.888 0 1 0 70.83008 135.92064c0-0.4864-0.03072-0.96256-0.03584-1.44896 0-0.12288 0.03584-0.24064 0.03584-0.36352V507.43808l457.8048-73.81504v133.12A165.888 165.888 0 1 0 942.08 702.67904V137.99424a76.51328 76.51328 0 0 0-26.68032-58.12224zM247.68512 886.53312a95.04256 95.04256 0 1 1 94.93504-95.04256 95.09376 95.09376 0 0 1-94.93504 95.04256z m165.76-450.9184V212.34176a5.73952 5.73952 0 0 1 5.20704-5.632L864.768 132.4032a5.41184 5.41184 0 0 1 4.5312 1.30048 5.48864 5.48864 0 0 1 1.9712 4.28544v223.81568z m362.87488 362.08128a95.04256 95.04256 0 1 1 94.92992-95.03744 95.09376 95.09376 0 0 1-94.92992 95.03744z" fill="#595BB3" p-id="14688"></path></svg>