<?xml version="1.0" standalone="no"?><!DOCTYPE svg PUBLIC "-//W3C//DTD SVG 1.1//EN" "http://www.w3.org/Graphics/SVG/1.1/DTD/svg11.dtd"><svg t="1633786275492" class="icon" viewBox="0 0 1024 1024" version="1.1" xmlns="http://www.w3.org/2000/svg" p-id="14368" xmlns:xlink="http://www.w3.org/1999/xlink" width="300" height="300"><defs><style type="text/css"></style></defs><path d="M394.7 276.9m-85.1 0a85.1 85.1 0 1 0 170.2 0 85.1 85.1 0 1 0-170.2 0Z" fill="#FF6994" p-id="14369"></path><path d="M819.4 495.4l-0.6-166.8c3.1-70.6-45.5-134.8-148-101.6l-207.3 64c-31.4 9-57.1 41.8-55.3 103l0.7 161.1v8.8c-0.1 13.8-17 22.7-29.6 17.2-25.5-11.1-54.8-14-83.5-6.2-67.4 18.2-107.7 88.3-89.4 155.7C224.6 798 296.8 833.8 350.8 832h18.6c61.4-9.3 124.1-76.5 117.2-137.7-2.1-18.6-1.9-109.7-1.9-128.4l-0.4-55.7c-5.1-67 34.3-82.5 34.3-82.5L673.5 378s60.9-23.5 60.1 33.2v78.9c-0.1 18.3-18.7 30.7-35.9 24.6-23.6-8.5-49.8-10.1-75.7-3.1-67.4 18.2-107.7 88.3-89.4 155.7 18.2 67.4 86.3 97 155.7 89.4 77.1-8.4 125.3-76.2 132-137.2 4.7-42.3-0.9-113.1-0.9-124.1zM334.6 767.1c-33.5 0-60.7-27.2-60.7-60.7s27.2-60.7 60.7-60.7 60.7 27.2 60.7 60.7-27.2 60.7-60.7 60.7z m325.2-71.5c-33.5 0-60.7-27.2-60.7-60.7s27.2-60.7 60.7-60.7 60.7 27.2 60.7 60.7-27.2 60.7-60.7 60.7z" fill="#FFC152" p-id="14370"></path><path d="M658.6 635.5m-61.3 0a61.3 61.3 0 1 0 122.6 0 61.3 61.3 0 1 0-122.6 0Z" fill="#FFFFFF" p-id="14371"></path><path d="M334.3 707.5m-61.3 0a61.3 61.3 0 1 0 122.6 0 61.3 61.3 0 1 0-122.6 0Z" fill="#FFFFFF" p-id="14372"></path></svg>