<?xml version="1.0" standalone="no"?><!DOCTYPE svg PUBLIC "-//W3C//DTD SVG 1.1//EN" "http://www.w3.org/Graphics/SVG/1.1/DTD/svg11.dtd"><svg t="1633786247966" class="icon" viewBox="0 0 1024 1024" version="1.1" xmlns="http://www.w3.org/2000/svg" p-id="13705" xmlns:xlink="http://www.w3.org/1999/xlink" width="300" height="300"><defs><style type="text/css"></style></defs><path d="M308.693333 798.72a32 32 0 0 1-32-32V170.666667a32 32 0 0 1 32-32h512A32 32 0 0 1 853.333333 170.666667v495.146666a32 32 0 1 1-64 0V202.666667H341.333333v564.053333a32 32 0 0 1-32.64 32z" fill="#33C5FF" p-id="13706"></path><path d="M223.36 884.053333a117.333333 117.333333 0 1 1 117.333333-117.333333 117.546667 117.546667 0 0 1-117.333333 117.333333z m0-170.666666a53.333333 53.333333 0 1 0 53.333333 53.333333 53.333333 53.333333 0 0 0-53.333333-53.333333zM735.36 798.72a117.333333 117.333333 0 1 1 117.333333-117.333333 117.546667 117.546667 0 0 1-117.333333 117.333333z m0-170.666667a53.333333 53.333333 0 1 0 53.333333 53.333334 53.333333 53.333333 0 0 0-53.333333-53.333334zM799.36 318.506667h-469.333333a32 32 0 1 1 0-64h469.333333a32 32 0 0 1 0 64z" fill="#F86302" p-id="13707"></path><path d="M789.333333 577.066667v88.746666a32 32 0 0 0 64 5.12 117.546667 117.546667 0 0 0-64-93.866666zM277.333333 662.4v104.32a32 32 0 0 0 64 0 117.12 117.12 0 0 0-64-104.32zM799.36 254.506667H789.333333v64h10.666667a32 32 0 0 0 0-64zM341.333333 318.506667v-64h-10.666666a32 32 0 1 0 0 64z" fill="#314E00" p-id="13708"></path></svg>