<?xml version="1.0" standalone="no"?><!DOCTYPE svg PUBLIC "-//W3C//DTD SVG 1.1//EN" "http://www.w3.org/Graphics/SVG/1.1/DTD/svg11.dtd"><svg t="1633786217885" class="icon" viewBox="0 0 1024 1024" version="1.1" xmlns="http://www.w3.org/2000/svg" p-id="12036" xmlns:xlink="http://www.w3.org/1999/xlink" width="300" height="300"><defs><style type="text/css"></style></defs><path d="M687.616 869.376l-37.888-14.848 140.288-358.912c6.656-16.384-2.048-35.328-19.456-40.96l-245.76-80.384c-15.872-5.12-32.768 3.072-38.4 18.432L364.544 716.8l-57.856-22.016L478.208 240.64c5.632-15.36 22.528-23.552 38.4-18.432l367.616 113.664c17.408 5.12 26.112 24.064 19.968 40.96l-187.904 480.768c-5.12 10.24-17.408 15.872-28.672 11.776z" fill="#360682" p-id="12037"></path><path d="M128.512 672.768c0 67.584 54.784 122.368 122.368 122.368s122.368-54.784 122.368-122.368-54.784-122.368-122.368-122.368-122.368 55.296-122.368 122.368zM480.768 809.472c0 67.584 54.784 122.368 122.368 122.368s122.368-54.784 122.368-122.368-54.784-122.368-122.368-122.368-122.368 55.296-122.368 122.368z" fill="#360682" p-id="12038"></path><path d="M256 409.6L157.184 163.328c-6.656-15.872 2.048-33.792 18.944-38.912l101.888-31.232c13.824-4.096 28.16 2.56 33.792 15.36l12.288 27.136c7.168 15.36-1.024 33.28-16.896 38.912l-69.632 23.04c-6.656 2.048-9.728 9.216-7.168 15.872l66.56 169.472c2.048 5.12-0.512 10.752-5.632 12.8L256 409.6z" fill="#E51C5A" p-id="12039"></path><path d="M142.848 409.6c0 44.032 35.84 79.872 79.872 79.872s79.872-35.84 79.872-79.872-35.84-79.872-79.872-79.872-79.872 35.84-79.872 79.872z" fill="#E51C5A" p-id="12040"></path></svg>