<?xml version="1.0" standalone="no"?><!DOCTYPE svg PUBLIC "-//W3C//DTD SVG 1.1//EN" "http://www.w3.org/Graphics/SVG/1.1/DTD/svg11.dtd"><svg t="1633786198090" class="icon" viewBox="0 0 1024 1024" version="1.1" xmlns="http://www.w3.org/2000/svg" p-id="11410" xmlns:xlink="http://www.w3.org/1999/xlink" width="300" height="300"><defs><style type="text/css"></style></defs><path d="M504.32 513.1264m-450.816 0a450.816 450.816 0 1 0 901.632 0 450.816 450.816 0 1 0-901.632 0Z" fill="#FFF1DC" p-id="11411"></path><path d="M786.2784 559.9744v-81.408c0-153.6512-124.9792-278.6304-278.6304-278.6304S229.0176 324.9152 229.0176 478.5664v78.7456c-29.6448 14.9504-50.0224 45.6192-50.0224 81.0496 0 50.1248 40.6016 90.7264 90.7264 90.7264h17.4592c11.2128 21.7088 33.8432 36.5568 59.9552 36.5568 37.2736 0 67.4816-30.208 67.4816-67.4816V578.56c0-37.2736-30.208-67.4816-67.4816-67.4816-13.4144 0-25.856 3.9424-36.4032 10.7008v-43.2128c0-108.544 88.32-196.864 196.864-196.864s196.864 88.32 196.864 196.864v46.6944a67.10784 67.10784 0 0 0-41.3184-14.1824c-37.2736 0-67.4816 30.208-67.4816 67.4816v119.6032c0 37.2736 30.208 67.4816 67.4816 67.4816 26.112 0 48.7424-14.848 59.9552-36.5568h17.4592c50.1248 0 90.7264-40.6016 90.7264-90.7264 0.1024-33.4336-18.0736-62.6176-45.0048-78.3872z" fill="#FC7032" p-id="11412"></path><path d="M782.08 430.848c-22.7328-130.9696-137.1136-230.8608-274.432-230.8608-153.6512 0-278.6304 124.9792-278.6304 278.6304v78.7456c-29.6448 14.8992-50.0224 45.6192-50.0224 81.0496 0 50.1248 40.6016 90.7264 90.7264 90.7264h17.4592c11.2128 21.7088 33.8432 36.5568 59.9552 36.5568 37.2736 0 67.4816-30.208 67.4816-67.4816v-119.6032c0-37.2736-30.208-67.4816-67.4816-67.4816-13.4144 0-25.9072 3.9424-36.4032 10.7008v-43.2128c0-108.544 88.32-196.864 196.864-196.864s196.864 88.32 196.864 196.864v46.6944a67.10784 67.10784 0 0 0-41.3184-14.1824c-37.2736 0-67.4816 30.208-67.4816 67.4816v119.6032c0 2.1504 0.1024 4.1984 0.3072 6.2976 93.7984-62.3104 162.0992-159.7952 186.112-273.664z" fill="#FF7E3E" p-id="11413"></path><path d="M507.648 281.7536c53.1456 0 101.4272 21.1968 136.8576 55.552a433.70496 433.70496 0 0 0 22.4768-87.04c-45.2096-31.6416-100.1472-50.2784-159.3856-50.2784-153.6512 0-278.6304 124.9792-278.6304 278.6304v78.7456c-24.064 12.0832-41.984 34.56-47.872 61.5424 17.5104 2.1504 35.2768 3.2256 53.3504 3.2256 64.2048 0 125.2352-13.824 180.1728-38.7072v-4.8128c0-37.2736-30.208-67.4816-67.4816-67.4816-13.4144 0-25.9072 3.9424-36.4032 10.7008v-43.2128c0.0512-108.544 88.3712-196.864 196.9152-196.864z" fill="#FF9552" p-id="11414"></path><path d="M527.2576 200.7552a276.48 276.48 0 0 0-19.6096-0.768c-145.4592 0-265.216 112.128-277.504 254.464a436.23936 436.23936 0 0 0 89.088-32.768c21.9648-72.5504 84.7872-127.5392 161.5872-138.0352a437.79584 437.79584 0 0 0 46.4384-82.8928z" fill="#FFA56A" p-id="11415"></path></svg>