<?xml version="1.0" standalone="no"?><!DOCTYPE svg PUBLIC "-//W3C//DTD SVG 1.1//EN" "http://www.w3.org/Graphics/SVG/1.1/DTD/svg11.dtd"><svg t="1633786186226" class="icon" viewBox="0 0 1024 1024" version="1.1" xmlns="http://www.w3.org/2000/svg" p-id="10451" xmlns:xlink="http://www.w3.org/1999/xlink" width="300" height="300"><defs><style type="text/css"></style></defs><path d="M512 183.4c40.5 0 79.8 7.9 116.7 23.5 35.7 15.1 67.8 36.7 95.4 64.3 27.6 27.6 49.2 59.7 64.3 95.4 15.6 36.9 23.5 76.2 23.5 116.7S804 563.1 788.4 600c-15.1 35.7-36.7 67.8-64.3 95.4-27.6 27.6-59.7 49.2-95.4 64.3-36.9 15.6-76.2 23.5-116.7 23.5s-79.8-7.9-116.7-23.5c-35.7-15.1-67.8-36.7-95.4-64.3s-49.2-59.7-64.3-95.4c-15.6-36.9-23.5-76.2-23.5-116.7s7.9-79.8 23.5-116.7c15.1-35.7 36.7-67.8 64.3-95.4s59.7-49.2 95.4-64.3c36.9-15.6 76.2-23.5 116.7-23.5m0-80c-209.9 0-380 170.1-380 380s170.1 380 380 380 380-170.1 380-380-170.1-380-380-380z m128.9 193.9L441 335.6c-10.4 2.1-17.9 11.2-17.9 21.7v212.5c-16-6.4-36.9-6.5-57.3 1.3-35 13.5-54.8 45.1-44.5 70.6s47 35.4 82 21.9c29.4-11.4 48.3-35.7 47.2-58.2V411.2l175.7-33.7v148.4c-16-6.4-37-6.5-57.3 1.3-34.9 13.5-54.8 45.1-44.5 70.6s47 35.4 81.9 21.9c29-11.2 47.6-34.8 47.2-57.1h0.1V308.2c0-6.1-4.9-11-10.9-11-0.4-0.1-1.1 0-1.8 0.1z" fill="#9377FC" p-id="10452"></path></svg>