<?xml version="1.0" standalone="no"?><!DOCTYPE svg PUBLIC "-//W3C//DTD SVG 1.1//EN" "http://www.w3.org/Graphics/SVG/1.1/DTD/svg11.dtd"><svg t="1633786170394" class="icon" viewBox="0 0 1024 1024" version="1.1" xmlns="http://www.w3.org/2000/svg" p-id="9981" xmlns:xlink="http://www.w3.org/1999/xlink" width="300" height="300"><defs><style type="text/css"></style></defs><path d="M529.1 490.8m-267.2 0a267.2 267.2 0 1 0 534.4 0 267.2 267.2 0 1 0-534.4 0Z" fill="#FFD500" p-id="9982"></path><path d="M499.9 225.2c-7.5 0-14.9 0.3-22.2 0.9 137.2 11.3 245 126.2 245 266.3s-107.8 255-245 266.3c7.3 0.6 14.7 0.9 22.2 0.9 147.6 0 267.2-119.6 267.2-267.2S647.4 225.2 499.9 225.2z" fill="#FFB600" p-id="9983"></path><path d="M662.1 278.5c-5.3-4.1-10.8-8-16.4-11.6-5.3-3.5-10.8-6.8-16.3-9.8-23-12.8-48.1-22.3-74.7-27.8V333h107.5l-0.1-54.5z" fill="#00B1FF" p-id="9984"></path><path d="M505.6 524.4m-49.2 0a49.2 49.2 0 1 0 98.4 0 49.2 49.2 0 1 0-98.4 0Z" fill="#EF8686" p-id="9985"></path><path d="M505.6 475.2c-3.8 0-7.5 0.4-11.1 1.3 21.8 5 38.1 24.6 38.1 48s-16.3 42.9-38.1 48c3.6 0.8 7.3 1.3 11.1 1.3 27.2 0 49.2-22 49.2-49.2 0.1-27.4-22-49.4-49.2-49.4z" fill="#E26060" p-id="9986"></path><path d="M662.1 278.5c-5.3-4.1-10.8-8-16.4-11.6-5.3-3.5-10.8-6.8-16.3-9.8-23-12.8-48.1-22.3-74.7-27.8v7.7c16.1 5.3 31.4 12 46 20.1 5.6 3.1 11 6.4 16.3 9.8 5.6 3.7 11.1 7.6 16.4 11.6V333h28.7c0.1 0 0-54.4 0-54.5z" fill="#0291F1" p-id="9987"></path><path d="M577.4 879.4h-184c-4.4 0-8-3.6-8-8s3.6-8 8-8h184c4.4 0 8 3.6 8 8s-3.6 8-8 8zM366.7 879.4h-28c-4.4 0-8-3.6-8-8s3.6-8 8-8h28c4.4 0 8 3.6 8 8s-3.6 8-8 8zM715.8 879.4h-98c-4.4 0-8-3.6-8-8s3.6-8 8-8h98c4.4 0 8 3.6 8 8s-3.6 8-8 8zM311 879.4h-4c-4.4 0-8-3.6-8-8s3.6-8 8-8h4c4.4 0 8 3.6 8 8s-3.6 8-8 8z" fill="#AD98C7" p-id="9988"></path><path d="M479 928.1h-28c-4.4 0-8-3.6-8-8s3.6-8 8-8h28c4.4 0 8 3.6 8 8s-3.6 8-8 8zM603.5 928.1h-98c-4.4 0-8-3.6-8-8s3.6-8 8-8h98c4.4 0 8 3.6 8 8s-3.6 8-8 8zM423.2 928.1h-4c-4.4 0-8-3.6-8-8s3.6-8 8-8h4c4.4 0 8 3.6 8 8s-3.5 8-8 8z" fill="#EEEAF4" p-id="9989"></path><path d="M162 134.8c-3.7 1.2-7 3.2-9.8 5.6 3.7 1.1 6.8 4 8.1 7.9 2.1 6.4-1.4 13.4-7.8 15.5-3.3 1.1-6.7 0.7-9.6-0.8 0.1 2.3 0.6 4.7 1.3 7 4.8 14.6 20.6 22.6 35.2 17.8s22.6-20.6 17.8-35.2c-4.8-14.6-20.6-22.6-35.2-17.8z" fill="#B6EFFF" p-id="9990"></path><path d="M177.5 154c1 2.8 1.3 5.9 0.9 9.2-1.2 9-8.7 16.2-17.8 17.1-12.6 1.2-23.2-9.3-21.9-21.9 0.9-9 7.9-16.4 16.8-17.8 3.2-0.5 6.4-0.2 9.2 0.7 2.1 0.7 4.3 0.3 5.9-1.2l0.2-0.2c3.3-3 2.2-8.5-2.1-9.9-3.9-1.3-8-1.9-12.4-1.6-15.9 1.1-28.7 14-29.7 29.9-1.3 20.3 16.3 36.8 36.9 33.7 13.5-2 24.4-12.7 26.6-26.2 0.9-5.4 0.4-10.7-1.2-15.4-1.4-4.2-6.5-5.6-9.8-2.6-1.6 1.5-2.3 3.9-1.6 6.2z" fill="#5C3290" p-id="9991"></path><path d="M704.8 121m-8 0a8 8 0 1 0 16 0 8 8 0 1 0-16 0Z" fill="#4CC6F4" p-id="9992"></path><path d="M313.6 132.2m-8 0a8 8 0 1 0 16 0 8 8 0 1 0-16 0Z" fill="#5C3390" p-id="9993"></path><path d="M947.2 327.6m-10 0a10 10 0 1 0 20 0 10 10 0 1 0-20 0Z" fill="#FFA819" p-id="9994"></path><path d="M451.9 119.1h-0.1c2.4 1.4 4.1 3.9 4.5 6.9 0.7 5.2-3 10.1-8.2 10.8-4.2 0.6-8.1-1.7-9.9-5.3-0.5 1.9-0.6 4-0.3 6.1 1.2 9 9.5 15.2 18.4 14 9-1.2 15.2-9.5 14-18.4-1.2-9.1-9.5-15.3-18.4-14.1z" fill="#FFE404" p-id="9995"></path><path d="M794.5 99.3c-12.2 0-22 9.8-22 22s9.8 22 22 22 22-9.8 22-22-9.8-22-22-22z m0 30c-4.4 0-8-3.6-8-8s3.6-8 8-8 8 3.6 8 8-3.5 8-8 8z" fill="#5C3290" p-id="9996"></path><path d="M83.1 359.2c-9.9 0-18 8.1-18 18s8.1 18 18 18 18-8.1 18-18-8-18-18-18z m0 24.5c-3.6 0-6.5-2.9-6.5-6.5s2.9-6.5 6.5-6.5 6.5 2.9 6.5 6.5c0.1 3.6-2.9 6.5-6.5 6.5z" fill="#EEEAF4" p-id="9997"></path><path d="M872.5 385.2h14c2.8 0 5 2.2 5 5s-2.2 5-5 5h-14c-2.8 0-5-2.2-5-5 0-2.7 2.3-5 5-5zM890.1 411.6v-14c0-2.8 2.2-5 5-5s5 2.2 5 5v14c0 2.8-2.2 5-5 5-2.7 0-5-2.2-5-5zM916.5 394h-14c-2.8 0-5-2.2-5-5s2.2-5 5-5h14c2.8 0 5 2.2 5 5s-2.2 5-5 5zM898.9 367.6v14c0 2.8-2.2 5-5 5s-5-2.2-5-5v-14c0-2.8 2.2-5 5-5s5 2.2 5 5z" fill="#AD98C7" p-id="9998"></path><path d="M805 252.5m-4.8 0a4.8 4.8 0 1 0 9.6 0 4.8 4.8 0 1 0-9.6 0Z" fill="#FCDDCC" p-id="9999"></path><path d="M841.3 250m-4.8 0a4.8 4.8 0 1 0 9.6 0 4.8 4.8 0 1 0-9.6 0Z" fill="#FCDDCC" p-id="10000"></path><path d="M821.5 236.1m-4.8 0a4.8 4.8 0 1 0 9.6 0 4.8 4.8 0 1 0-9.6 0Z" fill="#FCDDCC" p-id="10001"></path><path d="M823.1 269.1m-4.8 0a4.8 4.8 0 1 0 9.6 0 4.8 4.8 0 1 0-9.6 0Z" fill="#FCDDCC" p-id="10002"></path><path d="M801 226l14.8 14.8c1.6 1.6 1.6 4.1 0 5.7-1.6 1.6-4.1 1.6-5.7 0l-14.8-14.8c-1.6-1.6-1.6-4.1 0-5.7 1.6-1.6 4.2-1.6 5.7 0zM795.4 273.4l14.8-14.8c1.6-1.6 4.1-1.6 5.7 0 1.6 1.6 1.6 4.1 0 5.7l-14.8 14.8c-1.6 1.6-4.1 1.6-5.7 0-1.6-1.6-1.6-4.1 0-5.7zM844.5 278.2l-14.8-14.8c-1.6-1.6-1.6-4.1 0-5.7 1.6-1.6 4.1-1.6 5.7 0l14.8 14.8c1.6 1.6 1.6 4.1 0 5.7-1.6 1.6-4.2 1.6-5.7 0zM848.5 230l-14.8 14.8c-1.6 1.6-4.1 1.6-5.7 0-1.6-1.6-1.6-4.1 0-5.7l14.8-14.8c1.6-1.6 4.1-1.6 5.7 0 1.5 1.6 1.5 4.1 0 5.7z" fill="#FCDDCC" p-id="10003"></path><path d="M226.9 242.9l-7.1-7.1c-1.6-1.6-1.6-4.1 0-5.7 1.6-1.6 4.1-1.6 5.7 0l7.1 7.1c1.6 1.6 1.6 4.1 0 5.7-1.6 1.6-4.1 1.6-5.7 0zM225.7 255h-10c-2.2 0-4-1.8-4-4s1.8-4 4-4h10c2.2 0 4 1.8 4 4s-1.8 4-4 4zM233.3 264.5l-7.1 7.1c-1.6 1.6-4.1 1.6-5.7 0-1.6-1.6-1.6-4.1 0-5.7l7.1-7.1c1.6-1.6 4.1-1.6 5.7 0 1.6 1.6 1.6 4.1 0 5.7zM245.5 265.7v10c0 2.2-1.8 4-4 4s-4-1.8-4-4v-10c0-2.2 1.8-4 4-4s4 1.8 4 4zM254.9 258l7.1 7.1c1.6 1.6 1.6 4.1 0 5.7-1.6 1.6-4.1 1.6-5.7 0l-7.1-7.1c-1.6-1.6-1.6-4.1 0-5.7 1.6-1.5 4.2-1.5 5.7 0zM256.2 245.9h10c2.2 0 4 1.8 4 4s-1.8 4-4 4h-10c-2.2 0-4-1.8-4-4s1.7-4 4-4zM248.5 236.4l7.1-7.1c1.6-1.6 4.1-1.6 5.7 0 1.6 1.6 1.6 4.1 0 5.7l-7.1 7.1c-1.6 1.6-4.1 1.6-5.7 0-1.6-1.6-1.6-4.1 0-5.7zM236.3 235.2v-10c0-2.2 1.8-4 4-4s4 1.8 4 4v10c0 2.2-1.8 4-4 4s-4-1.8-4-4z" fill="#7BD721" p-id="10004"></path><path d="M578.4 830.7h-372c-4.4 0-8-3.6-8-8s3.6-8 8-8h372c4.4 0 8 3.6 8 8s-3.6 8-8 8zM887.8 830.7h-76c-3.9 0-7-3.1-7-7v-2c0-3.9 3.1-7 7-7h76c3.9 0 7 3.1 7 7v2c0 3.9-3.2 7-7 7zM778.1 830.7h-118c-4.4 0-8-3.6-8-8s3.6-8 8-8h118c4.4 0 8 3.6 8 8s-3.6 8-8 8zM166.7 830.7h-28c-4.4 0-8-3.6-8-8s3.6-8 8-8h28c4.4 0 8 3.6 8 8s-3.6 8-8 8z" fill="#5C3290" p-id="10005"></path></svg>