<?xml version="1.0" standalone="no"?><!DOCTYPE svg PUBLIC "-//W3C//DTD SVG 1.1//EN" "http://www.w3.org/Graphics/SVG/1.1/DTD/svg11.dtd"><svg t="1633786166393" class="icon" viewBox="0 0 1024 1024" version="1.1" xmlns="http://www.w3.org/2000/svg" p-id="9832" xmlns:xlink="http://www.w3.org/1999/xlink" width="300" height="300"><defs><style type="text/css"></style></defs><path d="M509.186813 605.96044m-294.25934 0a294.259341 294.259341 0 1 0 588.518681 0 294.259341 294.259341 0 1 0-588.518681 0Z" fill="#F0F440" p-id="9833"></path><path d="M703.296703 569.951648c-17.441758-42.76044-64.703297-67.516484-121.52967-69.767033l-53.450549-250.373626c-3.938462-19.12967-23.068132-31.507692-42.197803-27.569231-19.12967 3.938462-31.507692 23.068132-27.56923 42.197802l51.762637 244.184616c-11.252747 2.813187-22.505495 6.751648-33.758242 11.252747-97.336264 39.384615-154.162637 126.030769-126.593406 193.547253s128.281319 90.021978 226.180219 50.637362c97.898901-39.947253 154.725275-126.593407 127.156044-194.10989z" fill="#5CF241" p-id="9834"></path><path d="M437.727495 294.270997a78.206593 142.90989 60 1 0 247.52719-142.90989 78.206593 142.90989 60 1 0-247.52719 142.90989Z" fill="#5CF241" p-id="9835"></path></svg>