<?xml version="1.0" standalone="no"?><!DOCTYPE svg PUBLIC "-//W3C//DTD SVG 1.1//EN" "http://www.w3.org/Graphics/SVG/1.1/DTD/svg11.dtd"><svg t="1633787085246" class="icon" viewBox="0 0 1024 1024" version="1.1" xmlns="http://www.w3.org/2000/svg" p-id="62760" xmlns:xlink="http://www.w3.org/1999/xlink" width="300" height="300"><defs><style type="text/css"></style></defs><path d="M444.4672 326.8096a13.4144 13.4144 0 0 0-10.9056-13.056c-0.256-0.0512-28.3648-5.5296-85.0944-18.2272-3.7888-0.8704-7.7312 0-10.9056 2.2528-3.1232 2.304-5.12 5.8368-5.4784 9.6768-4.7616 53.7088-28.16 81.2032-49.6128 95.2832-2.1504-18.5344-17.9712-32.9728-37.0688-32.9728-20.5824 0-37.376 16.7424-37.376 37.376 0 20.5824 16.7424 37.376 37.376 37.376 4.9152 0 9.5744-0.9728 13.8752-2.7136 10.0352-2.5088 24.7808-7.6288 39.8848-17.8688 22.1184-15.0528 49.152-44.1856 57.856-98.8672 28.3648 6.2976 48.2304 10.4448 59.6992 12.8-2.56 21.6576-13.3632 72.7552-59.0848 122.624C351.4368 448.512 338.944 440.32 324.608 440.32c-20.5824 0-37.376 16.7424-37.376 37.376 0 20.5824 16.7424 37.376 37.376 37.376 10.4448 0 19.8656-4.3008 26.624-11.2128 93.184-79.3088 93.2864-173.056 93.2352-177.0496zM245.504 396.6976c5.7856 0 10.4448 4.7104 10.4448 10.4448 0 3.9936-2.304 7.424-5.5808 9.216-3.328 0.7168-5.4784 0.9216-5.9904 0.9728-0.2048 0-0.3584 0.1024-0.5632 0.1024-4.9664-0.8192-8.7552-5.12-8.7552-10.2912 0-5.7856 4.6592-10.4448 10.4448-10.4448zM314.1632 477.696c0-5.7856 4.7104-10.4448 10.4448-10.4448s10.4448 4.7104 10.4448 10.4448c0 2.6112-1.024 5.0176-2.6112 6.8096-0.8192 0.7168-1.6384 1.3824-2.4576 2.0992-1.5872 0.9728-3.4304 1.536-5.376 1.536-5.7856 0-10.4448-4.6592-10.4448-10.4448z" fill="#4B8DFD" p-id="62761"></path><path d="M336.9984 316.416c2.2016-15.4624 10.0352-13.9776 10.0352-13.9776s54.8864 12.2368 79.4112 18.3808c9.4208 2.3552 14.7968 6.4 17.92 10.4448 0.1024-2.4576 0.1024-4.0448 0.1024-4.5056a13.4144 13.4144 0 0 0-10.9056-13.056c-0.256-0.0512-28.3648-5.5296-85.0944-18.2272-3.7888-0.8704-7.7312 0-10.9056 2.2528-3.1232 2.304-5.12 5.8368-5.4784 9.6768-4.7616 53.7088-28.16 81.2032-49.6128 95.2832 45.6704-22.4256 52.3264-70.8096 54.528-86.272zM245.504 369.7664c-20.5824 0-37.376 16.7424-37.376 37.376 0 9.2672 3.4304 17.7152 9.0112 24.2688-4.2496-21.504 0.6656-36.608 12.7488-45.7728 20.9408-13.8752 50.0736 7.3728 50.2272 7.4752-5.5808-13.6704-18.944-23.3472-34.6112-23.3472zM324.2496 440.0128c-20.5824 0-37.376 16.7424-37.376 37.376 0 9.2672 3.4304 17.7152 9.0112 24.2688-4.2496-21.504 0.6656-36.608 12.7488-45.7728 20.9408-13.8752 50.0736 7.3728 50.2272 7.4752a37.35552 37.35552 0 0 0-34.6112-23.3472z" fill="#76A4FF" p-id="62762"></path><path d="M251.9552 435.8144c-9.7792 0.9728-33.0752 2.816-42.752-19.968 3.9424 16.4352 18.688 28.672 36.3008 28.672 4.9152 0 9.5744-0.9728 13.8752-2.7136 10.0352-2.5088 24.7808-7.6288 39.8848-17.8688 22.1184-15.0528 49.152-44.1856 57.856-98.8672 28.3648 6.2976 48.2304 10.4448 59.6992 12.8l-63.7952-21.0944a1.80736 1.80736 0 0 0-2.4064 1.4848c-2.048 14.6432-16.8448 98.7136-98.6624 117.5552z" fill="#4479E2" p-id="62763"></path><path d="M444.4672 326.8096a13.49632 13.49632 0 0 0-8.6528-12.4416s5.7856 9.1648 1.536 30.0544C433.152 365.3632 414.72 435.3024 350.976 492.4416c-8.3456 5.632-40.3968 30.8736-62.208-4.1984a37.38624 37.38624 0 0 0 35.84 26.8288c10.4448 0 19.8656-4.3008 26.624-11.2128 93.184-79.3088 93.2864-173.056 93.2352-177.0496z" fill="#4479E2" p-id="62764"></path><path d="M842.4448 504.832a13.4144 13.4144 0 0 0-10.9056-13.056c-0.256-0.0512-28.3648-5.5296-85.0944-18.2272-3.7888-0.8704-7.7312 0-10.9056 2.2528-3.1232 2.304-5.12 5.8368-5.4784 9.6768-4.7616 53.7088-28.16 81.2032-49.6128 95.2832-2.1504-18.5344-17.9712-32.9728-37.0688-32.9728-20.5824 0-37.376 16.7424-37.376 37.376 0 20.5824 16.7424 37.376 37.376 37.376 4.9152 0 9.5744-0.9728 13.8752-2.7136 10.0352-2.5088 24.7808-7.6288 39.8848-17.8688 22.1184-15.0528 49.152-44.1856 57.856-98.8672 28.3648 6.2976 48.2304 10.4448 59.6992 12.8-2.56 21.6576-13.3632 72.7552-59.0848 122.624a37.3504 37.3504 0 0 0-33.0752-20.0704c-20.5824 0-37.376 16.7424-37.376 37.376 0 20.5824 16.7424 37.376 37.376 37.376 10.4448 0 19.8656-4.3008 26.624-11.2128 93.184-79.4112 93.3376-173.1584 93.2864-177.152z m-198.9632 69.888c5.7856 0 10.4448 4.7104 10.4448 10.4448 0 3.9936-2.304 7.424-5.5808 9.216-3.328 0.7168-5.4784 0.9216-5.9904 0.9728-0.2048 0-0.3584 0.1024-0.5632 0.1024-4.9664-0.8192-8.7552-5.12-8.7552-10.2912 0-5.7856 4.6592-10.4448 10.4448-10.4448z m68.608 80.9984c0-5.7856 4.7104-10.4448 10.4448-10.4448 5.7856 0 10.4448 4.7104 10.4448 10.4448 0 2.6112-1.024 5.0176-2.6112 6.8096-0.8192 0.7168-1.6384 1.3824-2.4576 2.0992-1.5872 0.9728-3.4304 1.536-5.376 1.536-5.7344 0-10.4448-4.6592-10.4448-10.4448z" fill="#4B8DFD" p-id="62765"></path><path d="M734.976 494.4384c2.2016-15.4624 10.0352-13.9776 10.0352-13.9776s54.8864 12.2368 79.4112 18.3808c9.4208 2.3552 14.7968 6.4 17.92 10.4448 0.1024-2.4576 0.1024-4.0448 0.1024-4.5056a13.4144 13.4144 0 0 0-10.9056-13.056c-0.256-0.0512-28.3648-5.5296-85.0944-18.2272-3.7888-0.8704-7.7312 0-10.9056 2.2528-3.1232 2.304-5.12 5.8368-5.4784 9.6768-4.7616 53.7088-28.16 81.2032-49.6128 95.2832 45.6704-22.4256 52.3264-70.8096 54.528-86.272zM643.4816 547.7888c-20.5824 0-37.376 16.7424-37.376 37.376 0 9.2672 3.4304 17.7152 9.0112 24.2688-4.2496-21.504 0.6656-36.608 12.7488-45.7728 20.9408-13.8752 50.0736 7.3728 50.2272 7.4752-5.5808-13.6704-18.9952-23.3472-34.6112-23.3472zM722.2272 618.0352c-20.5824 0-37.376 16.7424-37.376 37.376 0 9.2672 3.4304 17.7152 9.0112 24.2688-4.2496-21.504 0.6656-36.608 12.7488-45.7728 20.9408-13.8752 50.0736 7.3728 50.2272 7.4752-5.5808-13.6704-18.944-23.3472-34.6112-23.3472z" fill="#76A4FF" p-id="62766"></path><path d="M649.9328 613.8368c-9.7792 0.9728-33.0752 2.816-42.752-19.968 3.9424 16.4352 18.688 28.672 36.3008 28.672 4.9152 0 9.5744-0.9728 13.8752-2.7136 10.0352-2.5088 24.7808-7.6288 39.8848-17.8688 22.1184-15.0528 49.152-44.1856 57.856-98.8672 28.3648 6.2976 48.2304 10.4448 59.6992 12.8l-63.7952-21.0944a1.80736 1.80736 0 0 0-2.4064 1.4848c-2.048 14.6432-16.8448 98.7136-98.6624 117.5552z" fill="#4479E2" p-id="62767"></path><path d="M842.4448 504.832a13.49632 13.49632 0 0 0-8.6528-12.4416s5.7856 9.1648 1.536 30.0544c-4.2496 20.9408-22.7328 90.8288-86.4256 147.968-8.3456 5.632-40.3968 30.8736-62.208-4.1984a37.38624 37.38624 0 0 0 35.84 26.8288c10.4448 0 19.8656-4.3008 26.624-11.2128 93.184-79.2576 93.3376-173.0048 93.2864-176.9984z" fill="#4479E2" p-id="62768"></path><path d="M512 59.0336c-249.9072 0-452.5056 202.5984-452.5056 452.5056S262.0928 964.096 512 964.096c249.9072 0 452.5056-202.5984 452.5056-452.5056S761.9072 59.0336 512 59.0336z m0 806.6048c-195.5328 0-354.048-158.5152-354.048-354.048S316.4672 157.4912 512 157.4912s354.048 158.5152 354.048 354.048-158.5152 354.0992-354.048 354.0992z" fill="#4B8DFD" p-id="62769"></path><path d="M564.48 273.8176s22.5792 147.8656 157.44 178.3296c20.8896-38.4 42.496-97.4336 0-150.6816-48.128-60.3136-140.4928-40.0384-157.44-27.648z" fill="#F29727" p-id="62770"></path><path d="M543.5904 290.7648s21.0432 125.2864 159.5392 182.1184c-16.1792 10.9056-92.5696 52.6848-157.6448-34.6112s-1.8944-147.5072-1.8944-147.5072zM505.0368 405.1456s18.432 53.9648 73.5744 88.7808c-35.9424 24.6272-230.8096 155.1872-230.8096 155.1872s-13.568 5.376-25.7024-9.8816c-12.1344-15.2576-8.7552-26.2656-6.1952-28.7744 2.5088-2.56 189.1328-205.312 189.1328-205.312z" fill="#F29727" p-id="62771"></path><path d="M333.7728 749.8752c-17.5104 0-33.2288-6.2464-45.1072-18.9952-24.8832-26.624-8.6528-60.5184 3.4304-74.752a12.9024 12.9024 0 0 1 19.712 16.64c-0.8704 1.0752-19.6608 24.064-4.3008 40.4992 19.8656 21.248 55.296 8.448 81.6128-13.6704 13.824-11.6224 25.6512-24.7808 37.0688-37.4784 16.896-18.7904 32.8192-36.5056 53.76-48.384 31.1808-17.664 77.3632-30.72 104.8064-9.3696 25.4976 19.8144 38.0928 60.5184 29.2352 94.6176a12.88192 12.88192 0 0 1-15.7184 9.2672 12.88192 12.88192 0 0 1-9.2672-15.7184c7.0144-27.1872-4.7104-55.808-20.1216-67.7888-13.6704-10.6496-45.7728-5.8368-76.2368 11.4688-17.3056 9.7792-31.8464 26.0096-47.3088 43.1616-12.032 13.3632-24.4736 27.1872-39.6288 39.9872-24.064 20.1728-49.4592 30.5152-71.936 30.5152z" fill="#4B8DFD" p-id="62772"></path><path d="M347.5456 130.9184C599.808 10.7008 861.1328 223.6928 861.2352 223.744 778.24 123.1872 652.5952 59.0336 512 59.0336c-249.9072 0-452.5056 202.5984-452.5056 452.5056 0 70.8608 16.2816 137.8816 45.312 197.5808C32 374.8352 236.4416 187.136 347.5456 130.9184z" fill="#76A4FF" p-id="62773"></path><path d="M924.8768 326.144c0.1536 0.512 82.1248 313.2416-180.4288 519.0144a310.33344 310.33344 0 0 1-88.576 48.4352c-110.1312 38.656-306.5856 69.3248-516.608-125.3376 79.5136 115.2512 211.0976 191.7952 360.7552 195.6864 249.856 6.4512 459.9296-194.2016 464.384-444.1088 1.28-69.12-13.0048-134.7584-39.5264-193.6896z" fill="#4479E2" p-id="62774"></path><path d="M519.7312 434.2784c-10.4448-16.7424-14.6944-29.1328-14.6944-29.1328s-186.624 202.8032-189.1328 205.312c-2.048 2.048-4.7104 9.7792 0.9728 20.8384l202.8544-197.0176z" fill="#F7AC5C" p-id="62775"></path><path d="M326.2976 643.6864c10.8544 9.5744 21.4528 5.4272 21.4528 5.4272s194.8672-130.56 230.8096-155.1872c-11.264-7.1168-20.9408-15.0016-29.2864-23.0912l-222.976 172.8512z" fill="#F47706" p-id="62776"></path><path d="M555.4176 328.3456c-9.216-22.272-11.8272-37.5808-11.8272-37.5808s-63.232 60.2112 1.8944 147.5072c4.7104 6.2976 9.4208 11.8272 14.2336 16.8448-34.56-74.0352-16.896-111.5648-4.3008-126.7712zM740.3008 334.1312c-3.8912-10.9568-9.8304-21.9136-18.3808-32.6656-48.1792-60.3136-140.544-40.0896-157.44-27.648 0 0 2.4576 15.9744 10.496 38.4512 20.224-13.2096 96.3584-54.3744 165.3248 21.8624z" fill="#F7AC5C" p-id="62777"></path><path d="M686.848 440.6784c10.752 4.7104 22.4256 8.6016 35.072 11.4688 16.0768-29.5424 32.512-71.2704 19.968-113.2032-0.0512 0.3072-12.544 71.68-55.04 101.7344zM703.1296 472.832a289.4336 289.4336 0 0 1-37.8368-18.7904h-0.0512c-52.8896 25.9072-105.5232 1.024-105.5232 1.024 61.5424 64.512 128.4096 27.904 143.4112 17.7664z" fill="#F47706" p-id="62778"></path><path d="M305.5616 652.0832c-4.7616-1.3824-10.0864 0-13.4656 4.0448-12.032 14.2336-28.3136 48.1792-3.4304 74.752 6.4512 6.8608 13.9776 11.8272 22.3232 14.9504-47.9232-28.6208-18.8928-76.032-5.4272-93.7472zM606.1056 631.1936c-5.376-10.6496-12.5952-20.0192-21.3504-26.8288-27.4432-21.3504-73.6256-8.2944-104.8064 9.3696-20.9408 11.8784-36.864 29.5936-53.76 48.384-3.3792 3.7888-6.8608 7.5776-10.3424 11.3664 31.488-28.9792 61.2864-46.336 74.8544-53.0944 73.1136-39.7312 113.408 8.3456 115.4048 10.8032zM589.056 692.48c-1.792 6.912 2.3552 13.9264 9.2672 15.7184 6.912 1.792 13.9264-2.3552 15.7184-9.2672 3.2256-12.4416 3.5328-25.7024 1.4848-38.5536 0.0512 2.2016 0.7168 37.888-14.336 37.5808-5.376-0.6656-10.24-1.3312-10.0352-22.2208h-0.0512c0 5.5296-0.6144 11.1616-2.048 16.7424z" fill="#76A4FF" p-id="62779"></path><path d="M512 154.9312c-196.6592 0-356.608 160-356.608 356.608S315.392 868.1472 512 868.1472c196.6592 0 356.608-160 356.608-356.608S708.6592 154.9312 512 154.9312z m0 708.1472c-193.8432 0-351.488-157.696-351.488-351.488 0-193.8432 157.696-351.488 351.488-351.488s351.488 157.696 351.488 351.488c0 193.792-157.6448 351.488-351.488 351.488z" fill="#472F7E" p-id="62780"></path><path d="M512 56.4736c-250.9312 0-455.0656 204.1344-455.0656 455.0656s204.1344 455.0656 455.0656 455.0656 455.0656-204.1344 455.0656-455.0656S762.9312 56.4736 512 56.4736z m0 905.0624c-248.1152 0-449.9456-201.8304-449.9456-449.9456 0-248.1152 201.8304-449.9456 449.9456-449.9456s449.9456 201.8304 449.9456 449.9456c0 248.064-201.8304 449.9456-449.9456 449.9456z" fill="#472F7E" p-id="62781"></path><path d="M721.3568 454.656a2.60608 2.60608 0 0 0 2.816-1.28c32.9216-60.4672 32.8192-112.0768-0.256-153.4976-49.92-62.5152-143.6672-40.8064-160.9728-28.1088-0.768 0.5632-1.1776 1.4848-1.024 2.4576 0.256 1.4848 24.4224 149.9136 159.4368 180.4288zM567.296 274.9952c19.0464-11.7248 106.752-29.3888 152.6272 28.0576 31.7952 39.8336 32 87.6544 0.6656 146.176-122.4704-28.928-150.3232-158.3616-153.2928-174.2336z" fill="#472F7E" p-id="62782"></path><path d="M639.3856 494.848c33.9968 0 60.2112-16.5376 65.1776-19.8656 0.768-0.512 1.2288-1.4336 1.1264-2.4064a2.60096 2.60096 0 0 0-1.5872-2.0992c-135.4752-55.6032-157.7472-178.8928-157.952-180.1728a2.59072 2.59072 0 0 0-1.6896-1.9968 2.48832 2.48832 0 0 0-2.56 0.5632c-0.6656 0.6144-64.1024 62.7712 1.5872 150.8864 31.9488 42.9568 66.7648 55.0912 95.8976 55.0912z m-97.28-198.8096c5.632 23.552 36.5568 126.208 155.4432 177.2544-18.9952 11.2128-89.6 44.4928-150.0672-36.608-54.9376-73.728-17.3568-126.8224-5.376-140.6464zM320.1024 640.8192c7.7312 9.728 16.0256 11.776 21.7088 11.776 3.9936 0 6.656-1.024 6.912-1.1264 0.1536-0.0512 0.3072-0.1536 0.4608-0.256 1.9456-1.28 195.328-130.816 230.8608-155.1872a2.5344 2.5344 0 0 0-0.0512-4.2496c-53.6576-33.8944-72.2944-86.9376-72.4992-87.4496-0.3072-0.8704-1.024-1.4848-1.8944-1.6896s-1.792 0.1024-2.4064 0.768c-1.8432 2.048-186.2656 202.3936-189.0816 205.2608-3.584 3.5328-6.8096 16.128 5.9904 32.1536z m-2.4064-28.5696c2.4064-2.4064 162.3552-176.2304 186.4704-202.3936 5.376 12.9024 25.4464 54.7328 69.8368 84.1216-41.7792 28.5184-219.3408 147.456-227.3792 152.832-1.7408 0.5632-12.4928 3.4304-22.528-9.1648-11.6224-14.592-7.68-24.1152-6.4-25.3952z" fill="#472F7E" p-id="62783"></path><path d="M586.2912 602.3168c-28.4672-22.1184-75.776-8.8576-107.6224 9.1648-21.3504 12.0832-37.376 29.952-54.4256 48.896-11.3664 12.6464-23.1424 25.7024-36.8128 37.2224-25.3952 21.3504-59.3408 33.8944-78.08 13.8752-13.9264-14.8992 3.6352-36.1984 4.4032-37.12 5.4784-6.5024 4.6592-16.2304-1.8432-21.76-3.1232-2.6624-7.168-3.9424-11.264-3.6352-4.096 0.3584-7.8336 2.2528-10.496 5.4272-12.544 14.848-29.44 50.2272-3.328 78.1824 12.1344 12.9536 28.3648 19.8144 46.9504 19.8144 23.552 0 49.664-11.0592 73.5744-31.1808 15.36-12.9024 27.8528-26.7776 39.8848-40.2432 15.2576-16.9984 29.696-33.0752 46.6432-42.6496 29.184-16.5376 60.7232-21.5552 73.4208-11.6736 14.7456 11.4688 26.0096 38.9632 19.2 65.1264-1.024 3.9936-0.4608 8.1408 1.6384 11.7248a15.42144 15.42144 0 0 0 28.2624-3.9936c9.1648-34.9184-3.84-76.7488-30.1056-97.1776z m25.2416 96c-0.6656 2.6624-2.3552 4.9152-4.7616 6.2976-2.3552 1.3824-5.1712 1.792-7.8336 1.0752s-4.9152-2.3552-6.2976-4.7616c-1.3824-2.3552-1.792-5.1712-1.0752-7.8336 7.2704-28.2112-4.9664-57.9584-21.0432-70.4512-14.6944-11.4176-47.2064-6.8096-79.104 11.264-17.664 10.0352-32.3584 26.368-47.9232 43.6736-11.9296 13.312-24.32 27.0336-39.3728 39.7312-22.9888 19.3024-47.9232 29.952-70.2464 29.952-17.152 0-32.1024-6.2976-43.2128-18.176-23.6544-25.2928-8.0384-57.7024 3.5328-71.3728 1.792-2.0992 4.3008-3.3792 7.0144-3.6352 0.3072 0 0.5632-0.0512 0.8704-0.0512a10.35776 10.35776 0 0 1 7.8848 16.9984c-0.8704 1.024-21.1456 25.7536-4.1984 43.8784 21.0432 22.4768 57.9072 9.4208 85.0944-13.4656 13.9264-11.7248 25.8048-24.9344 37.3248-37.7344 16.7424-18.5856 32.512-36.1472 53.1456-47.872 30.5152-17.3056 75.52-30.1568 101.9904-9.5744 24.576 19.3536 36.7616 58.88 28.2112 92.0576zM359.2192 328.0896c25.2416 5.5808 43.3664 9.4208 54.784 11.7248-2.816 20.9408-13.6704 69.0688-55.808 116.2752a39.72096 39.72096 0 0 0-33.536-18.3296c-22.016 0-39.936 17.92-39.936 39.936s17.92 39.936 39.936 39.936c10.752 0 20.8896-4.2496 28.3136-11.8272 94.0544-80.0768 94.208-175.0528 94.1568-179.0464a16.08704 16.08704 0 0 0-13.0048-15.5648c-0.256-0.0512-28.4672-5.5296-84.992-18.2272-4.5056-1.024-9.216-0.0512-12.9536 2.7136-3.7376 2.7136-6.0928 6.912-6.5024 11.52-4.5568 51.0976-26.368 77.6192-45.2096 91.136a39.91552 39.91552 0 0 0-38.912-31.1808c-22.016 0-39.936 17.92-39.936 39.936s17.92 39.936 39.936 39.936c5.0688 0 10.0864-0.9728 14.5408-2.7648 9.984-2.5088 25.1904-7.68 40.704-18.2784 21.504-14.6944 48.9984-43.5712 58.4192-97.8944zM258.4576 439.3984c-4.1472 1.6896-8.4992 2.5088-12.9536 2.5088-19.2 0-34.816-15.616-34.816-34.816s15.616-34.816 34.816-34.816c17.664 0 32.512 13.2096 34.56 30.72 0.1024 0.8704 0.6656 1.6384 1.4848 2.048 0.8192 0.3584 1.7408 0.3072 2.5088-0.2048 20.3776-13.3632 45.7216-41.1136 50.7392-97.2288 0.256-3.1232 1.8944-5.9904 4.4032-7.8336 2.56-1.8432 5.7344-2.5088 8.8064-1.8432 57.2928 12.8512 84.9408 18.176 85.1456 18.2272a10.9056 10.9056 0 0 1 8.8064 10.5984c0.0512 3.9424-0.1024 96.5632-92.5184 175.2576a34.61632 34.61632 0 0 1-24.832 10.4448c-19.2 0-34.816-15.616-34.816-34.816s15.616-34.816 34.816-34.816c12.9536 0 24.7808 7.168 30.8224 18.7392a2.56 2.56 0 0 0 4.1472 0.512c46.7456-50.944 57.3952-103.7312 59.7504-124.0576 0.1536-1.3312-0.7168-2.56-2.048-2.816-11.52-2.3552-31.232-6.5024-59.648-12.8-0.7168-0.1536-1.4336 0-1.9968 0.3584s-0.9728 1.024-1.0752 1.6896C345.9584 378.88 318.976 407.3984 297.8304 421.7856a124.37504 124.37504 0 0 1-39.3728 17.6128z" fill="#472F7E" p-id="62784"></path><path d="M245.504 394.1376c-7.168 0-13.0048 5.8368-13.0048 13.0048 0 6.3488 4.5568 11.7248 10.9056 12.8h0.1536c0.3072 0 0.8704-0.0512 1.0752-0.1024 0.4096-0.0512 2.7136-0.256 6.2976-1.024 0.256-0.0512 0.4608-0.1536 0.6656-0.256 4.3008-2.2528 6.9632-6.656 6.9632-11.4688a13.09184 13.09184 0 0 0-13.056-12.9536z m3.9424 19.7632c-3.1744 0.6656-5.0688 0.8192-5.3248 0.8192-0.1024 0-0.256 0.0512-0.3584 0.0512a7.8848 7.8848 0 0 1-6.1952-7.68 7.8848 7.8848 0 0 1 15.7696 0c0.0512 2.816-1.4336 5.376-3.8912 6.8096zM324.608 464.6912c-7.168 0-13.0048 5.8368-13.0048 13.0048s5.8368 13.0048 13.0048 13.0048c2.3552 0 4.6592-0.6656 7.0144-2.0992l2.7648-2.3552c2.0992-2.4064 3.2256-5.4272 3.2256-8.4992 0-7.2192-5.8368-13.056-13.0048-13.056z m6.1952 17.8688l-2.1504 1.8432c-1.28 0.768-2.6624 1.1776-4.0448 1.1776a7.8848 7.8848 0 1 1 6.1952-3.0208zM643.4816 572.16c-7.168 0-13.0048 5.8368-13.0048 13.0048 0 6.3488 4.5568 11.7248 10.9056 12.8 0.1536 0 0.256 0.0512 0.4096 0.0512h0.3072c0.1536 0 0.3584-0.0512 0.4608-0.1024 0.4096-0.0512 2.7136-0.256 6.2464-1.024 0.256-0.0512 0.4608-0.1536 0.6656-0.256 4.3008-2.2528 6.9632-6.656 6.9632-11.4688 0.0512-7.168-5.7856-13.0048-12.9536-13.0048z m3.9424 19.7632c-3.1232 0.6656-5.0688 0.8192-5.3248 0.8704-0.1024 0-0.2048 0-0.3584 0.0512a7.8848 7.8848 0 0 1-6.1952-7.68 7.8848 7.8848 0 0 1 15.7696 0c0.0512 2.7648-1.4848 5.3248-3.8912 6.7584z" fill="#472F7E" p-id="62785"></path><path d="M845.0048 504.7808a16.08704 16.08704 0 0 0-13.0048-15.5648c-0.256-0.0512-28.416-5.5296-84.992-18.2272-4.5056-1.024-9.216-0.0512-12.9536 2.7136-3.7376 2.7136-6.0928 6.912-6.5024 11.52-4.5568 51.0976-26.368 77.6192-45.2096 91.136a39.91552 39.91552 0 0 0-38.912-31.1808c-22.016 0-39.936 17.92-39.936 39.936s17.92 39.936 39.936 39.936c5.0688 0 10.0864-0.9728 14.5408-2.7648 9.984-2.5088 25.1904-7.68 40.704-18.2784 21.6064-14.6944 49.1008-43.5712 58.4704-97.8944 24.9856 5.5296 43.2128 9.3696 54.784 11.776-2.816 20.9408-13.6704 69.0688-55.808 116.2752a39.72096 39.72096 0 0 0-33.536-18.3296c-22.016 0-39.936 17.92-39.936 39.936s17.92 39.936 39.936 39.936c10.752 0 20.8896-4.2496 28.3136-11.8272 94.1056-80.1792 94.1568-175.0528 94.1056-179.0976z m-97.6384 175.3088a34.59072 34.59072 0 0 1-24.7808 10.4448c-19.2 0-34.816-15.616-34.816-34.816s15.616-34.816 34.816-34.816c12.9536 0 24.7808 7.168 30.8224 18.7392a2.56 2.56 0 0 0 4.1472 0.512c46.7456-50.944 57.3952-103.7312 59.7504-124.0576 0.1536-1.3312-0.7168-2.56-2.048-2.816-11.7248-2.4064-31.5392-6.5536-59.648-12.8-0.7168-0.1536-1.3824 0-1.9968 0.3584-0.5632 0.4096-0.9728 1.024-1.0752 1.6896-8.6528 54.272-35.6352 82.7904-56.7296 97.1776a123.6992 123.6992 0 0 1-39.3728 17.6128c-4.1472 1.6896-8.4992 2.5088-12.9536 2.5088-19.2 0-34.816-15.616-34.816-34.816s15.616-34.816 34.816-34.816c17.664 0 32.512 13.2096 34.56 30.72a2.5856 2.5856 0 0 0 3.9936 1.792c20.3776-13.3632 45.7216-41.1136 50.7392-97.2288 0.256-3.1232 1.8944-5.9904 4.4544-7.8336 2.56-1.8432 5.7344-2.5088 8.8064-1.8432 57.2928 12.8512 84.9408 18.176 85.1456 18.2272a10.9056 10.9056 0 0 1 8.8064 10.5984c-0.0512 4.1472-0.1024 96.7168-92.6208 175.4624z" fill="#472F7E" p-id="62786"></path><path d="M722.5344 642.7136c-7.168 0-13.0048 5.8368-13.0048 13.0048 0 7.168 5.8368 13.0048 13.0048 13.0048 2.304 0 4.6592-0.6656 7.0144-2.0992l2.7648-2.3552c2.0992-2.4064 3.2256-5.4272 3.2256-8.4992a12.96896 12.96896 0 0 0-13.0048-13.056z m6.2464 17.8688l-2.1504 1.8432c-1.28 0.768-2.6624 1.1776-4.0448 1.1776a7.8848 7.8848 0 1 1 6.1952-3.0208z" fill="#472F7E" p-id="62787"></path></svg>