<?xml version="1.0" standalone="no"?><!DOCTYPE svg PUBLIC "-//W3C//DTD SVG 1.1//EN" "http://www.w3.org/Graphics/SVG/1.1/DTD/svg11.dtd"><svg t="1633786121782" class="icon" viewBox="0 0 1024 1024" version="1.1" xmlns="http://www.w3.org/2000/svg" p-id="5187" xmlns:xlink="http://www.w3.org/1999/xlink" width="300" height="300"><defs><style type="text/css"></style></defs><path d="M496 266.666667h-256c-11.733333 0-21.333333-9.6-21.333333-21.333334s9.6-21.333333 21.333333-21.333333h256c11.733333 0 21.333333 9.6 21.333333 21.333333s-9.6 21.333333-21.333333 21.333334zM496 373.333333h-256c-11.733333 0-21.333333-9.6-21.333333-21.333333s9.6-21.333333 21.333333-21.333333h256c11.733333 0 21.333333 9.6 21.333333 21.333333s-9.6 21.333333-21.333333 21.333333zM496 480h-256c-11.733333 0-21.333333-9.6-21.333333-21.333333s9.6-21.333333 21.333333-21.333334h256c11.733333 0 21.333333 9.6 21.333333 21.333334s-9.6 21.333333-21.333333 21.333333z" fill="#FFC43C" p-id="5188"></path><path d="M538.666667 800c-70.613333 0-128-57.386667-128-128s57.386667-128 128-128 128 57.386667 128 128-57.386667 128-128 128z m0-213.333333c-47.146667 0-85.333333 38.186667-85.333334 85.333333s38.186667 85.333333 85.333334 85.333333 85.333333-38.186667 85.333333-85.333333-38.186667-85.333333-85.333333-85.333333zM751.36 469.333333c-5.973333 0-11.733333-2.346667-16-7.253333a21.098667 21.098667 0 0 1 1.92-30.08 106.709333 106.709333 0 0 0-70.613333-186.666667c-11.733333 0-21.333333-9.6-21.333334-21.333333s9.6-21.333333 21.333334-21.333333c82.346667 0 149.333333 66.986667 149.333333 149.333333 0 42.88-18.346667 83.626667-50.56 112a21.12 21.12 0 0 1-14.08 5.333333z" fill="#303030" p-id="5189"></path><path d="M624 202.666667h42.666667v469.333333h-42.666667z" fill="#303030" p-id="5190"></path></svg>