<?xml version="1.0" standalone="no"?><!DOCTYPE svg PUBLIC "-//W3C//DTD SVG 1.1//EN" "http://www.w3.org/Graphics/SVG/1.1/DTD/svg11.dtd"><svg t="1633786097631" class="icon" viewBox="0 0 1024 1024" version="1.1" xmlns="http://www.w3.org/2000/svg" p-id="3837" xmlns:xlink="http://www.w3.org/1999/xlink" width="300" height="300"><defs><style type="text/css"></style></defs><path d="M513 138.02c50.01 0 98.49 9.78 144.08 29.06 44.08 18.64 83.68 45.35 117.7 79.37s60.73 73.63 79.37 117.7c19.28 45.59 29.06 94.07 29.06 144.08 0 50.01-9.78 98.49-29.06 144.08-18.64 44.08-45.35 83.68-79.37 117.7s-73.63 60.73-117.7 79.37c-45.59 19.28-94.07 29.06-144.08 29.06s-98.49-9.78-144.08-29.06c-44.08-18.64-83.68-45.35-117.7-79.37s-60.73-73.63-79.37-117.7c-19.28-45.59-29.06-94.07-29.06-144.08 0-50.01 9.78-98.49 29.06-144.08 18.64-44.08 45.35-83.68 79.37-117.7s73.63-60.73 117.7-79.37c45.59-19.28 94.07-29.06 144.08-29.06m0-76.35c-246.64 0-446.57 199.94-446.57 446.57 0 246.64 199.94 446.57 446.57 446.57s446.57-199.94 446.57-446.57C959.57 261.6 759.64 61.67 513 61.67z" fill="#231815" p-id="3838"></path><path d="M424.36 624.79m-148.69 0a148.69 148.69 0 1 0 297.38 0 148.69 148.69 0 1 0-297.38 0Z" fill="#F7B52C" p-id="3839"></path><path d="M677.89 426.14L556.76 692.01 417.79 628.7l168.39-369.61z" fill="#F7B52C" p-id="3840"></path><path d="M765.34 508.53L523.36 398.29l63.31-138.97z" fill="#F7B52C" p-id="3841"></path></svg>