<?xml version="1.0" standalone="no"?><!DOCTYPE svg PUBLIC "-//W3C//DTD SVG 1.1//EN" "http://www.w3.org/Graphics/SVG/1.1/DTD/svg11.dtd"><svg t="1633786082316" class="icon" viewBox="0 0 1024 1024" version="1.1" xmlns="http://www.w3.org/2000/svg" p-id="3212" xmlns:xlink="http://www.w3.org/1999/xlink" width="300" height="300"><defs><style type="text/css"></style></defs><path d="M226.123 260.391m-32 0a32 32 0 1 0 64 0 32 32 0 1 0-64 0Z" fill="#FFFFFF" p-id="3213"></path><path d="M401.524 287.683c-4.503-3.199-10.746-2.14-13.943 2.359-0.32 0.45-32.26 44.731-73.382 44.731-0.228 0-0.458-0.001-0.687-0.004-22.442-0.27-44.11-13.986-64.525-40.789 11.507-7.5 19.135-20.473 19.135-35.203 0-23.159-18.841-42-42-42s-42 18.841-42 42 18.841 42 42 42c0.993 0 1.975-0.047 2.952-0.115 25.393 35.534 53.696 53.739 84.199 54.106 0.299 0.004 0.599 0.006 0.898 0.006 21.433 0 43.715-9.183 64.5-26.594 15.497-12.981 24.823-26.006 25.212-26.554 3.2-4.501 2.143-10.745-2.359-13.943z m-197.402-28.905c0-12.131 9.869-22 22-22s22 9.869 22 22c0 10.133-6.888 18.682-16.226 21.226a9.76 9.76 0 0 0-1.131 0.277 22 22 0 0 1-4.643 0.497c-12.13 0-22-9.869-22-22z" fill="#723703" p-id="3214"></path><path d="M910.299 293.899l-469.084-125.69-21.249-5.694-31.899 119.049 21.274 5.598 0.036-0.133 29.693 7.957 20.634 5.43-20.634-5.43L878.461 412.72l-97.337 363.267c-10.737-23.702-31.613-42.584-58.708-49.844-48.012-12.865-97.362 15.627-110.227 63.64-12.865 48.012 15.627 97.362 63.64 110.227 46.86 12.557 94.99-14.288 109.232-60.223l0.462 0.124 144.861-540.63-20.085-5.382z" fill="#AEE2FF" p-id="3215"></path><path d="M275.452 701.852c-10.85-23.296-31.543-41.809-58.308-48.98-48.012-12.865-97.362 15.628-110.227 63.64-12.865 48.012 15.628 97.362 63.639 110.227 47.375 12.694 96.049-14.88 109.692-61.74l0.987 0.264 128.106-478.101-21.274-5.598-112.615 420.288z" fill="#64D0FF" p-id="3216"></path><path d="M601.607 188.996m-60 0a60 60 0 1 0 120 0 60 60 0 1 0-120 0Z" fill="#FFFFFF" p-id="3217"></path><path d="M583.489 256.61c-37.282-9.99-59.487-48.45-49.497-85.732s48.45-59.487 85.732-49.497 59.487 48.45 49.497 85.732-48.449 59.487-85.732 49.497z m31.059-115.911c-26.631-7.136-54.102 8.724-61.237 35.355-7.136 26.631 8.724 54.102 35.355 61.237 26.631 7.136 54.102-8.724 61.237-35.355 7.136-26.631-8.724-54.101-35.355-61.237z" fill="#723703" p-id="3218"></path><path d="M601.607 188.996m-16 0a16 16 0 1 0 32 0 16 16 0 1 0-32 0Z" fill="#723703" p-id="3219"></path><path d="M760.946 231.691m-60 0a60 60 0 1 0 120 0 60 60 0 1 0-120 0Z" fill="#FFFFFF" p-id="3220"></path><path d="M742.829 299.305c-37.282-9.99-59.487-48.45-49.497-85.732s48.45-59.487 85.732-49.497c37.283 9.99 59.487 48.45 49.497 85.732s-48.449 59.487-85.732 49.497z m31.059-115.911c-26.631-7.136-54.102 8.724-61.237 35.355-7.136 26.631 8.724 54.102 35.355 61.237 26.631 7.136 54.102-8.724 61.237-35.355 7.136-26.631-8.724-54.101-35.355-61.237z" fill="#723703" p-id="3221"></path><path d="M760.946 231.691m-16 0a16 16 0 1 0 32 0 16 16 0 1 0-32 0Z" fill="#723703" p-id="3222"></path><path d="M718.397 391.574m-32 0a32 32 0 1 0 64 0 32 32 0 1 0-64 0Z" fill="#FFFFFF" p-id="3223"></path><path d="M889.573 426.718c-4.495-3.202-10.734-2.153-13.943 2.334-0.322 0.45-32.459 44.743-73.397 44.743-0.251 0-0.509-0.001-0.761-0.005-22.695-0.305-44.599-14.357-65.213-41.797 13.377-7.032 22.525-21.061 22.525-37.195 0-23.159-18.841-42-42-42s-42 18.841-42 42c0 22.579 17.911 41.045 40.27 41.956 25.918 37.465 54.928 56.659 86.258 57.035 0.3 0.003 0.6 0.005 0.899 0.005 21.433 0 43.715-9.183 64.501-26.594 15.496-12.98 24.823-26.006 25.212-26.554 3.197-4.495 2.142-10.726-2.351-13.928z m-194.789-31.919c0-12.131 9.869-22 22-22s22 9.869 22 22-9.869 22-22 22-22-9.869-22-22z" fill="#723703" p-id="3224"></path><path d="M650.008 799.452c11.085-41.371 49.261-68.245 90.327-66.659a90.303 90.303 0 0 0-18.737-7.334c-48.012-12.865-97.362 15.628-110.227 63.64-12.865 48.012 15.628 97.362 63.64 110.227a90.18 90.18 0 0 0 19.848 2.993c-36.329-19.17-55.931-61.514-44.851-102.867z" fill="#64D0FF" p-id="3225"></path><path d="M192.709 738.911m-90.5 0a90.5 90.5 0 1 0 181 0 90.5 90.5 0 1 0-181 0Z" fill="#AEE2FF" p-id="3226"></path><path d="M145.41 727.074c11.086-41.373 49.264-68.247 90.332-66.658A90.235 90.235 0 0 0 217 653.082c-48.012-12.865-97.362 15.628-110.227 63.64s15.628 97.362 63.64 110.227a90.308 90.308 0 0 0 19.902 3.022c-36.363-19.158-55.991-61.523-44.905-102.897zM409.233 287.239l17.389 4.659 31.838-118.82-17.389-4.66-21.248-5.694-31.993 118.748 21.249 5.694z" fill="#64D0FF" p-id="3227"></path><path d="M873.642 352.359a6.795 6.795 0 0 1-6.564-8.564l12.764-47.349a6.795 6.795 0 0 1 13.121 3.537l-12.764 47.349a6.799 6.799 0 0 1-6.557 5.027zM861.313 398.054a6.378 6.378 0 0 1-6.151-8.088l3.403-12.257a6.38 6.38 0 0 1 12.294 3.414l-3.403 12.257a6.38 6.38 0 0 1-6.143 4.674z" fill="#FFFFFF" p-id="3228"></path></svg>