<?xml version="1.0" standalone="no"?><!DOCTYPE svg PUBLIC "-//W3C//DTD SVG 1.1//EN" "http://www.w3.org/Graphics/SVG/1.1/DTD/svg11.dtd"><svg t="1633786072606" class="icon" viewBox="0 0 1024 1024" version="1.1" xmlns="http://www.w3.org/2000/svg" p-id="3065" xmlns:xlink="http://www.w3.org/1999/xlink" width="300" height="300"><defs><style type="text/css"></style></defs><path d="M668.2 656.6c-22.3 0-44.6 18.3-44.6 44 0 7.3-7.4 14.7-14.9 14.7-7.4 0-14.9-7.3-14.9-14.7 0-40.3 33.4-73.3 74.3-73.3 7.4 0 14.9 7.3 14.9 14.7s-7.4 14.6-14.8 14.6z m-386.3 29.3c-22.3 0-44.6 18.3-44.6 44 0 7.3-7.4 14.7-14.9 14.7-7.4 0-14.9-7.3-14.9-14.7 0-40.3 33.4-73.3 74.3-73.3 7.4 0 14.9 7.3 14.9 14.7 0.1 7.3-7.4 14.6-14.8 14.6z m516.3-524.3c-3.7-3.7-11.1-3.7-14.9-3.7l-386.3 88c-7.4 0-11.1 7.3-11.1 14.7v385c-22.3-29.3-63.1-47.7-104-47.7-74.3 0-133.7 58.7-133.7 132s59.4 132 133.7 132 133.7-58.7 133.7-132V447.5l356.6-80.7v249.4c-22.3-29.3-63.1-47.7-104-47.7-74.3 0-133.7 58.7-133.7 132s59.4 132 133.7 132 133.7-58.7 133.7-132v-528c0-3.6 0-10.9-3.7-10.9z" fill="#B4E7FC" p-id="3066"></path></svg>