<?xml version="1.0" standalone="no"?><!DOCTYPE svg PUBLIC "-//W3C//DTD SVG 1.1//EN" "http://www.w3.org/Graphics/SVG/1.1/DTD/svg11.dtd"><svg t="1633786068683" class="icon" viewBox="0 0 1024 1024" version="1.1" xmlns="http://www.w3.org/2000/svg" p-id="2909" xmlns:xlink="http://www.w3.org/1999/xlink" width="300" height="300"><defs><style type="text/css"></style></defs><path d="M395.502 780.767c-8.246 0-14.934-6.687-14.934-14.934V250.972L837.601 64v585.334c0 8.248-6.687 14.934-14.933 14.934-8.247 0-14.933-6.686-14.933-14.934V108.492l-397.3 162.531v494.81c0 8.246-6.686 14.934-14.933 14.934z" fill="#152B3C" p-id="2910"></path><path d="M414.917 843.501c0 58.249-52.15 116.499-116.5 116.499-64.319 0-116.501-52.162-116.501-116.499 0-64.338 52.181-116.5 116.501-116.5h116.5v116.5zM842.084 688.167c0 58.25-52.15 116.5-116.5 116.5-64.319 0-116.501-52.164-116.501-116.5s52.181-116.501 116.501-116.501h116.5v116.501z" fill="#FF3B30" p-id="2911"></path><path d="M372.982 727.001v88.544c0 58.25-52.148 116.5-116.5 116.5-14.85 0-28.999-2.888-42.062-7.956C235.625 946.184 265.388 960 298.416 960c64.35 0 116.5-58.25 116.5-116.499v-116.5h-41.934zM800.15 571.666v88.545c0 58.251-52.15 116.501-116.5 116.501-14.848 0-29-2.89-42.062-7.958 21.205 22.097 50.969 35.913 83.997 35.913 64.349 0 116.5-58.25 116.5-116.5V571.666H800.15z" fill="" p-id="2912"></path><path d="M395.509 411.854c-5.884 0-11.463-3.501-13.833-9.29-3.121-7.626 0.54-16.347 8.174-19.476l427.166-174.743c7.626-3.085 16.347 0.547 19.476 8.173 3.121 7.628-0.54 16.349-8.174 19.476L401.153 410.738a14.964 14.964 0 0 1-5.644 1.116z" fill="#152B3C" p-id="2913"></path></svg>