<?xml version="1.0" standalone="no"?><!DOCTYPE svg PUBLIC "-//W3C//DTD SVG 1.1//EN" "http://www.w3.org/Graphics/SVG/1.1/DTD/svg11.dtd"><svg t="1633786367257" class="icon" viewBox="0 0 1024 1024" version="1.1" xmlns="http://www.w3.org/2000/svg" p-id="19068" xmlns:xlink="http://www.w3.org/1999/xlink" width="300" height="300"><defs><style type="text/css"></style></defs><path d="M719.996049 947.553325L673.935321 929.565872l171.266249-437.737516a37.773651 37.773651 0 0 0-23.512171-49.658218L522.326789 344.331242a37.837892 37.837892 0 0 0-47.088582 22.548557l-149.231618 394.760352-70.664994-26.659975 209.425345-554.142033a37.837892 37.837892 0 0 1 46.510414-22.74128l448.080301 138.374906a37.837892 37.837892 0 0 1 24.090339 49.915182l-229.340025 586.262484a26.403011 26.403011 0 0 1-34.11192 14.90389z" fill="#3366FF" p-id="19069"></path><path d="M37.950378 708.320201a149.038896 149.038896 0 0 0 298.013551 0 149.038896 149.038896 0 1 0-298.013551 0zM467.914744 875.025345A149.038896 149.038896 0 1 0 616.889399 725.922208a148.974655 148.974655 0 0 0-148.974655 149.103137z" fill="#3366FF" p-id="19070"></path><path d="M193.220641 387.244166L73.347116 86.982183a35.846424 35.846424 0 0 1 22.80552-47.602509L220.458784 1.541782a34.368883 34.368883 0 0 1 41.435383 18.629862l15.225094 33.148306A34.497365 34.497365 0 0 1 256.369449 100.537014L171.571457 128.481807a14.518444 14.518444 0 0 0-8.929486 19.272271L243.521269 354.545546a12.07729 12.07729 0 0 1-6.424091 15.610539z" fill="#AEC9FF" p-id="19071"></path><path d="M55.295422 387.244166a97.646173 97.646173 0 0 0 195.292346 0 97.646173 97.646173 0 1 0-195.292346 0z" fill="#AEC9FF" p-id="19072"></path></svg>