<?xml version="1.0" standalone="no"?><!DOCTYPE svg PUBLIC "-//W3C//DTD SVG 1.1//EN" "http://www.w3.org/Graphics/SVG/1.1/DTD/svg11.dtd"><svg t="1633787067830" class="icon" viewBox="0 0 1024 1024" version="1.1" xmlns="http://www.w3.org/2000/svg" p-id="61235" xmlns:xlink="http://www.w3.org/1999/xlink" width="300" height="300"><defs><style type="text/css"></style></defs><path d="M516.257 293.63c0-122.447-97.891-221.705-218.647-221.705-120.756 0-218.647 99.259-218.647 221.705 0 70.809 32.859 133.718 83.828 174.307h-0.287l353.753 252.299 353.588-252.15h-0.314c51.077-40.581 84.02-103.557 84.02-174.455 0-122.447-97.891-221.705-218.647-221.705-120.755-0.002-218.647 99.257-218.647 221.704" fill="#F7A09F" p-id="61236"></path><path d="M440.673 322.883l413.9-46.73v512.39c-0.02 0.2-0.02 0.41-0.02 0.61 0 22.76-9.17 45.77-25.82 64.8-18.13 20.73-43.53 35.29-73.46 42.12-32.02 7.31-64.11 4.95-90.34-6.65-25.1-11.1-41.69-29.36-46.73-51.43-9-39.42 21.78-83.12 73.19-103.91 0.06-0.02 0.12-0.05 0.18-0.07 1.18-0.47 2.37-0.93 3.66-1.41l99.66-38.47c4.37-1.69 7.25-5.89 7.25-10.58v-286.32a11.331 11.331 0 0 0-12.72-11.25l-281.62 34.66c-5.69 0.7-9.96 5.52-9.96 11.25v394.25c-0.01 0.29-0.01 0.57-0.01 0.85 1.11 43.37-41.82 86.07-99.86 99.32-32.02 7.31-64.11 4.94-90.34-6.66-25.1-11.1-41.69-29.36-46.73-51.42-9.18-40.21 22.49-84.27 75.24-104.73 0.04-0.02 0.1-0.04 0.14-0.05 5.39-2.08 61.78-17.48 96.06-26.71 5.72-1.54 9.25-7.21 8.21-12.96-1.5-14.75-0.77-243.67 0.12-400.9z" fill="#B8D6C8" p-id="61237"></path><path d="M873.463 255.014a11.359 11.359 0 0 0-8.83-2.81l-436.51 49.28c-5.71 0.64-10.04 5.46-10.07 11.2-0.01 1.01-0.59 102.1-0.88 203.04-0.39 135.44-0.03 183.62 0.45 201.5-24.94 6.74-82.62 22.4-89.47 25.06-0.05 0.02-0.1 0.03-0.14 0.05-29.94 11.61-55.41 30.71-71.72 53.78-17.12 24.2-23.33 51.61-17.5 77.16 6.67 29.22 27.86 53.06 59.67 67.12 19.12 8.46 40.76 12.75 63.24 12.75 13.59 0 27.48-1.57 41.32-4.72 33.12-7.56 63.16-23.86 84.6-45.89 21.72-22.31 33.39-49.1 32.9-75.51v-261.32l258.95-31.16v141.23l-92.32 35.64c-1.33 0.5-2.67 1.01-3.99 1.54l-0.11 0.04c-0.16 0.07-0.32 0.13-0.48 0.2-29.14 11.85-53.85 30.88-69.62 53.6-16.62 23.97-22.61 51.05-16.86 76.25 6.67 29.22 27.86 53.05 59.67 67.12 30.67 13.56 67.81 16.41 104.56 8.02 34.61-7.9 64.17-24.95 85.48-49.3 20.11-22.98 31.25-51.04 31.42-79.07 0.02-0.22 0.02-0.43 0.02-0.65v-525.7c0-3.231-1.37-6.301-3.78-8.45z m-352.94 287.839v-100.93l258.95-31.87v101.64l-258.95 31.16z m334.05 245.69c-0.02 0.2-0.02 0.41-0.02 0.61 0 22.76-9.17 45.77-25.82 64.8-18.13 20.73-43.53 35.29-73.46 42.12-32.02 7.31-64.11 4.95-90.34-6.65-25.1-11.1-41.69-29.36-46.73-51.43-9-39.42 21.78-83.12 73.19-103.91 0.06-0.02 0.12-0.05 0.18-0.07 1.18-0.47 2.37-0.93 3.66-1.41l99.66-38.47c4.37-1.69 7.25-5.89 7.25-10.58v-286.32a11.331 11.331 0 0 0-12.72-11.25l-281.62 34.66c-5.69 0.7-9.96 5.52-9.96 11.25v394.25c-0.01 0.29-0.01 0.57-0.01 0.85 1.11 43.37-41.82 86.07-99.86 99.32-32.02 7.31-64.11 4.94-90.34-6.66-25.1-11.1-41.69-29.36-46.73-51.42-9.18-40.21 22.49-84.27 75.24-104.73 0.04-0.02 0.1-0.04 0.14-0.05 5.39-2.08 61.78-17.48 96.06-26.71 5.72-1.54 9.25-7.21 8.21-12.96-1.5-14.75-0.77-243.67 0.12-400.9l413.9-46.73v512.39zM379.013 150.323c-1.06-5.53-6.03-9.44-11.67-9.18l-124.9 5.89c-4.66 0.22-8.71 3.27-10.21 7.69l-49.75 147.06c-10.85-3.33-22.64-4.59-34.68-3.66-19.81 1.53-38.11 8.88-51.51 20.69-14.31 12.62-21.48 28.77-20.19 45.48 1.29 16.72 10.86 31.58 26.94 41.84 13.11 8.37 29.37 12.83 46.44 12.83 2.53 0 5.08-0.1 7.64-0.3 34.01-2.63 62.74-22.85 70.03-49.22l50.83-150.67 22.09-2.15c32.15-1.17 55.12-10.11 68.25-26.57 14.6-18.31 10.86-38.86 10.69-39.73z m-28.419 25.59c-8.74 10.95-26.6 17.19-51.66 18.06-0.24 0-0.48 0.02-0.71 0.04l-29.74 2.9c-4.45 0.44-8.22 3.44-9.65 7.66l-53.27 157.94c-0.08 0.22-0.15 0.45-0.21 0.68-4.6 17.16-25.62 30.98-49.98 32.86-14.94 1.16-29.19-2.05-40.13-9.04-9.93-6.33-15.8-15.021-16.53-24.46-0.73-9.45 3.73-18.94 12.57-26.72 9.74-8.59 23.33-13.95 38.27-15.1 1.92-0.15 3.84-0.23 5.75-0.23 10.44 0 20.62 2.2 29.15 6.35 2.92 1.43 6.33 1.53 9.33 0.27a11.3 11.3 0 0 0 6.37-6.82l51.08-150.98 104.9-4.95c-0.821 3.55-2.441 7.65-5.54 11.54z" fill="#3D464B" p-id="61238"></path><path d="M356.134 164.373c-0.82 3.55-2.44 7.65-5.54 11.54-8.74 10.95-26.6 17.19-51.66 18.06-0.24 0-0.48 0.02-0.71 0.04l-29.74 2.9c-4.45 0.44-8.22 3.44-9.65 7.66l-53.27 157.94c-0.08 0.22-0.15 0.45-0.21 0.68-4.6 17.16-25.62 30.98-49.98 32.86-14.94 1.16-29.19-2.05-40.13-9.04-9.93-6.33-15.8-15.021-16.53-24.46-0.73-9.45 3.73-18.94 12.57-26.72 9.74-8.59 23.33-13.95 38.27-15.1 1.92-0.15 3.84-0.23 5.75-0.23 10.44 0 20.62 2.2 29.15 6.35 2.92 1.43 6.33 1.53 9.33 0.27a11.3 11.3 0 0 0 6.37-6.82l51.08-150.98 104.9-4.95z" fill="#B8D6C8" p-id="61239"></path><path d="M222.803 575.133c-27.16 0-49.25 22.09-49.25 49.24 0 27.16 22.09 49.25 49.25 49.25 27.15 0 49.24-22.09 49.24-49.25 0-27.149-22.09-49.24-49.24-49.24z m0 75.81c-14.65 0-26.57-11.92-26.57-26.57s11.92-26.56 26.57-26.56 26.57 11.91 26.57 26.56-11.92 26.57-26.57 26.57z" fill="#3D464B" p-id="61240"></path><path d="M249.373 624.373c0 14.65-11.92 26.57-26.57 26.57s-26.57-11.92-26.57-26.57 11.92-26.56 26.57-26.56 26.57 11.911 26.57 26.56z" fill="#B8D6C8" p-id="61241"></path><path d="M162.283 789.813c-5.95-23.42-29.84-37.64-53.27-31.69-23.42 5.94-37.64 29.84-31.7 53.26 5.03 19.83 22.91 33.06 42.49 33.06 3.56 0 7.17-0.44 10.78-1.36 19.82-5.03 33.05-22.92 33.05-42.5a43.91 43.91 0 0 0-1.35-10.77z m-24.31 21.61c-2.89 4.85-7.5 8.29-12.97 9.68-11.31 2.87-22.84-3.99-25.71-15.3-2.87-11.3 3.99-22.83 15.3-25.7 1.74-0.45 3.479-0.66 5.2-0.66 9.45 0 18.08 6.39 20.51 15.96 1.39 5.47 0.56 11.16-2.33 16.02z" fill="#3D464B" p-id="61242"></path><path d="M137.973 811.423c-2.89 4.85-7.5 8.29-12.97 9.68-11.31 2.87-22.84-3.99-25.71-15.3-2.87-11.3 3.99-22.83 15.3-25.7 1.74-0.45 3.479-0.66 5.2-0.66 9.45 0 18.08 6.39 20.51 15.96 1.39 5.47 0.56 11.16-2.33 16.02z" fill="#F7A09F" p-id="61243"></path></svg>