<?xml version="1.0" standalone="no"?><!DOCTYPE svg PUBLIC "-//W3C//DTD SVG 1.1//EN" "http://www.w3.org/Graphics/SVG/1.1/DTD/svg11.dtd"><svg t="1633949906154" class="icon" viewBox="0 0 1024 1024" version="1.1" xmlns="http://www.w3.org/2000/svg" p-id="55367" xmlns:xlink="http://www.w3.org/1999/xlink" width="300" height="300"><defs><style type="text/css"></style></defs><path d="M650.24 561.493333c-11.9296-13.6704-25.6-20.48-42.666667-20.48s-32.426667 6.826667-46.08 20.48c-10.257067 11.9296-17.066667 25.6-17.066666 42.666667s6.8096 30.72 17.066666 44.373333c13.653333 11.946667 28.996267 18.773333 46.062934 18.773334S638.293333 660.48 650.24 648.533333c11.946667-11.946667 18.7904-27.306667 18.7904-47.786666v-6.826667c-1.723733-11.946667-8.5504-23.893333-18.7904-32.426667zM669.013333 395.946667v-63.146667l-237.226666 32.426667-1.706667 61.44 238.933333-30.72zM411.306667 588.8c-11.946667-11.946667-25.6-18.773333-44.373334-18.773333-17.066667 0-30.72 6.8096-44.373333 18.773333-11.946667 11.946667-18.773333 27.306667-18.773333 44.373333s6.826667 30.737067 18.773333 42.666667c13.653333 13.6704 27.306667 18.7904 44.373333 18.7904 18.773333 0 32.426667-5.12 44.373334-18.7904 8.533333-6.8096 13.653333-17.066667 17.066666-25.6 1.706667-6.8096 1.706667-11.9296 1.706667-17.066667 0-5.12 0-10.24-1.706667-15.342933-3.413333-10.257067-8.533333-20.497067-17.066666-29.0304z" fill="#f4ea2a" p-id="55368"></path><path d="M826.146133 197.853867C747.434667 119.1424 649.5744 75.554133 534.186667 68.266667l-45.431467 0.034133c-116.0192 7.253333-213.947733 50.875733-290.901333 129.553067C110.728533 284.9792 66.56 390.673067 66.56 512s44.168533 227.0208 131.293867 314.146133C283.8528 912.128 388.983467 955.733333 510.293333 955.733333c123.5968 0 229.853867-43.605333 315.989334-129.706666C911.0528 739.4816 954.026667 633.821867 954.026667 512c0-121.821867-42.973867-227.4816-127.880534-314.146133z m-24.132266 604.16C722.653867 881.373867 624.503467 921.6 510.293333 921.6c-111.940267 0-208.9472-40.226133-288.3072-119.586133C141.499733 721.5104 100.693333 623.957333 100.693333 512s40.8064-209.527467 121.429334-290.1504C294.126933 148.258133 382.037333 109.1584 489.813333 102.4l43.281067-0.034133c107.264 6.8096 195.2256 45.9264 268.782933 119.5008 78.318933 79.957333 118.016 177.5616 118.016 290.133333 0 112.5888-39.697067 210.193067-117.879466 290.013867z" fill="#f4ea2a" p-id="55369"></path><path d="M666.692267 315.886933l-237.226667 32.426667a17.066667 17.066667 0 0 0-14.7456 16.4352l-1.706667 61.44 0.017067 0.1536-0.034133 0.170667-1.262934 140.458666c-13.1584-9.335467-27.921067-14.011733-44.8-14.011733-20.0192 0-37.6832 7.304533-56.456533 23.773867-15.325867 15.342933-23.7568 35.3792-23.7568 56.439466 0 20.548267 8.004267 38.9632 23.773867 54.7328 16.2304 16.2304 34.1504 23.790933 56.456533 23.790934 23.825067 0 41.728-7.4752 56.251733-23.517867 11.349333-9.608533 17.425067-22.562133 21.026134-31.5904a16.571733 16.571733 0 0 0 0.7168-2.2016c2.218667-8.874667 2.218667-15.7184 2.218666-21.213867 0-4.6592-0.3584-10.359467-1.706666-16.401066l1.570133-175.069867L651.946667 415.351467v124.3648a68.317867 68.317867 0 0 0-44.373334-15.7696c-21.691733 0-41.250133 8.584533-59.016533 26.436266-14.250667 16.605867-21.1968 34.184533-21.1968 53.777067 0 24.234667 10.9568 41.915733 20.48 54.613333a16.4352 16.4352 0 0 0 2.4064 2.577067c17.425067 15.274667 36.7104 23.005867 57.309867 23.005867 20.565333 0 38.980267-8.004267 54.7328-23.773867 15.786667-15.786667 23.790933-35.908267 23.790933-59.8528V332.8a17.032533 17.032533 0 0 0-5.853867-12.8512 16.810667 16.810667 0 0 0-13.533866-4.061867z m-14.7456 36.471467v28.586667L447.6928 407.210667l0.750933-27.016534L651.946667 352.3584zM412.074667 645.0176c-3.4816 8.3968-7.2192 14.1312-11.4176 17.476267a17.066667 17.066667 0 0 0-2.2016 2.0992c-8.2432 9.437867-16.7936 12.9536-31.522134 12.9536-13.329067 0-22.391467-3.874133-32.3072-13.789867-9.5232-9.506133-13.7728-18.961067-13.7728-30.583467 0-12.117333 4.7616-23.278933 12.9536-31.522133 11.656533-10.205867 21.5552-14.557867 33.1264-14.557867 12.987733 0 22.664533 4.113067 32.3072 13.7728 5.546667 5.546667 9.7792 12.8512 12.936534 22.357334 0.836267 2.474667 0.836267 5.9392 0.836266 9.949866 0 4.352 0 7.611733-0.938666 11.844267zM651.946667 600.746667c0 14.967467-4.386133 26.3168-13.806934 35.720533-9.489067 9.5232-18.926933 13.7728-30.5664 13.7728-11.758933 0-22.749867-4.386133-33.501866-13.397333-8.9088-12.202667-12.578133-21.777067-12.578134-32.682667 0-11.229867 4.113067-21.265067 12.0832-30.600533 10.3936-10.410667 21.521067-15.479467 33.979734-15.479467 11.776 0 20.974933 4.522667 29.815466 14.6432a16.725333 16.725333 0 0 0 1.928534 1.877333c6.587733 5.4784 11.246933 13.141333 12.629333 20.667734v5.4784z" fill="#f4ea2a" p-id="55370"></path></svg>