<?xml version="1.0" standalone="no"?><!DOCTYPE svg PUBLIC "-//W3C//DTD SVG 1.1//EN" "http://www.w3.org/Graphics/SVG/1.1/DTD/svg11.dtd"><svg t="1633787062471" class="icon" viewBox="0 0 1024 1024" version="1.1" xmlns="http://www.w3.org/2000/svg" p-id="61081" xmlns:xlink="http://www.w3.org/1999/xlink" width="300" height="300"><defs><style type="text/css"></style></defs><path d="M759.3472 932.608h-510.976c-84.8384 0-153.6-68.7616-153.6-153.6V257.1776c0-84.8384 68.7616-153.6 153.6-153.6h510.976c84.8384 0 153.6 68.7616 153.6 153.6v521.8304c0 84.8384-68.7616 153.6-153.6 153.6z" fill="#8C7BFD" p-id="61082"></path><path d="M771.84 378.2144l-118.3744-95.6416a60.288 60.288 0 0 0-97.8432 40.3456l-20.48 187.3408C507.392 496.6912 474.6752 488.96 439.296 488.96c-102.9632 0-183.6544 65.6384-183.6544 149.4528s80.64 149.4528 183.6544 149.4528c93.952 0 169.2672-54.6304 181.8112-127.8464 0.7168-2.56 1.28-5.2224 1.536-7.936l26.368-241.408 58.4704 47.2064c22.016 17.7664 54.2208 14.336 71.9872-7.68s14.3872-54.2208-7.6288-71.9872z m-332.4928 307.2512c-46.4896 0-81.2544-24.832-81.2544-47.0528s34.7648-47.0528 81.2544-47.0528c46.4896 0 81.2544 24.832 81.2544 47.0528s-34.7648 47.0528-81.2544 47.0528z" fill="#FFE37B" p-id="61083"></path></svg>