<?xml version="1.0" standalone="no"?><!DOCTYPE svg PUBLIC "-//W3C//DTD SVG 1.1//EN" "http://www.w3.org/Graphics/SVG/1.1/DTD/svg11.dtd"><svg t="1633787057067" class="icon" viewBox="0 0 1024 1024" version="1.1" xmlns="http://www.w3.org/2000/svg" p-id="60919" xmlns:xlink="http://www.w3.org/1999/xlink" width="300" height="300"><defs><style type="text/css"></style></defs><path d="M238.9 737.7H231c-3.9 0-7-3.2-7-7V234.8c0-3.9 3.2-7 7-7h7.9c3.9 0 7 3.2 7 7v495.9c0 3.9-3.1 7-7 7zM343.3 712.7h-8.6c-3.7 0-6.7-3-6.7-6.7V259.4c0-3.7 3-6.7 6.7-6.7h8.6c3.7 0 6.7 3 6.7 6.7V706c0 3.7-3.1 6.7-6.7 6.7zM448.4 702.7h-8.9c-3.6 0-6.5-2.9-6.5-6.5V269.3c0-3.6 2.9-6.5 6.5-6.5h8.9c3.6 0 6.5 2.9 6.5 6.5v426.9c0.1 3.6-2.9 6.5-6.5 6.5zM552.3 682.7h-9.5c-3.4 0-6.2-2.8-6.2-6.2V289c0-3.4 2.8-6.2 6.2-6.2h9.5c3.4 0 6.2 2.8 6.2 6.2v387.5c0 3.4-2.8 6.2-6.2 6.2zM656.2 657.7h-10.3c-3.2 0-5.8-2.6-5.8-5.8V313.6c0-3.2 2.6-5.8 5.8-5.8h10.3c3.2 0 5.8 2.6 5.8 5.8v338.3c0 3.2-2.6 5.8-5.8 5.8zM763.1 637.7h-11c-3 0-5.5-2.5-5.5-5.5v-299c0-3 2.5-5.5 5.5-5.5h11c3 0 5.5 2.5 5.5 5.5v299c0 3.1-2.5 5.5-5.5 5.5z" fill="#FFA9FB" p-id="60920"></path><path d="M348 727.7h-40c-12.1 0-22-9.9-22-22v-446c0-12.1 9.9-22 22-22h40c12.1 0 22 9.9 22 22v446c0 12.2-9.9 22-22 22z m-40-470c-1.1 0-2 0.9-2 2v446c0 1.1 0.9 2 2 2h40c1.1 0 2-0.9 2-2v-446c0-1.1-0.9-2-2-2h-40zM452 707.7h-40c-12.1 0-22-9.9-22-22v-406c0-12.1 9.9-22 22-22h40c12.1 0 22 9.9 22 22v406c0 12.2-9.9 22-22 22z m-40-430c-1.1 0-2 0.9-2 2v406c0 1.1 0.9 2 2 2h40c1.1 0 2-0.9 2-2v-406c0-1.1-0.9-2-2-2h-40zM556 687.7h-40c-12.1 0-22-9.9-22-22v-366c0-12.1 9.9-22 22-22h40c12.1 0 22 9.9 22 22v366c0 12.2-9.9 22-22 22z m-40-390c-1.1 0-2 0.9-2 2v366c0 1.1 0.9 2 2 2h40c1.1 0 2-0.9 2-2v-366c0-1.1-0.9-2-2-2h-40zM660 667.7h-40c-12.1 0-22-9.9-22-22v-326c0-12.1 9.9-22 22-22h40c12.1 0 22 9.9 22 22v326c0 12.2-9.9 22-22 22z m-40-350c-1.1 0-2 0.9-2 2v326c0 1.1 0.9 2 2 2h40c1.1 0 2-0.9 2-2v-326c0-1.1-0.9-2-2-2h-40zM764 647.7h-40c-12.1 0-22-9.9-22-22v-286c0-12.1 9.9-22 22-22h40c12.1 0 22 9.9 22 22v286c0 12.2-9.8 22-22 22z m-40-310c-1.1 0-2 0.9-2 2v286c0 1.1 0.9 2 2 2h40c1.1 0 2-0.9 2-2v-286c0-1.1-0.9-2-2-2h-40z" fill="#423851" p-id="60921"></path><path d="M837 603.4h-61c-5.5 0-10-4.5-10-10s4.5-10 10-10h61c5.5 0 10 4.5 10 10s-4.5 10-10 10zM712 603.4h-40c-5.5 0-10-4.5-10-10s4.5-10 10-10h40c5.5 0 10 4.5 10 10s-4.4 10-10 10zM608 603.4h-40c-5.5 0-10-4.5-10-10s4.5-10 10-10h40c5.5 0 10 4.5 10 10s-4.5 10-10 10zM504 603.4h-40c-5.5 0-10-4.5-10-10s4.5-10 10-10h40c5.5 0 10 4.5 10 10s-4.5 10-10 10zM400 603.4h-40.2c-5.5 0-10-4.5-10-10s4.5-10 10-10H400c5.5 0 10 4.5 10 10s-4.5 10-10 10zM296 603.4h-40c-5.5 0-10-4.5-10-10s4.5-10 10-10h40c5.5 0 10 4.5 10 10s-4.5 10-10 10zM191.9 603.4h-64c-5.5 0-10-4.5-10-10s4.5-10 10-10h64c5.5 0 10 4.5 10 10s-4.4 10-10 10z" fill="#423851" p-id="60922"></path><path d="M837 382.1h-61c-5.5 0-10-4.5-10-10s4.5-10 10-10h61c5.5 0 10 4.5 10 10s-4.5 10-10 10zM712 382.1h-40c-5.5 0-10-4.5-10-10s4.5-10 10-10h40c5.5 0 10 4.5 10 10s-4.4 10-10 10zM608 382.1h-40c-5.5 0-10-4.5-10-10s4.5-10 10-10h40c5.5 0 10 4.5 10 10s-4.5 10-10 10zM504 382.1h-40c-5.5 0-10-4.5-10-10s4.5-10 10-10h40c5.5 0 10 4.5 10 10s-4.5 10-10 10zM400 382.1h-40.2c-5.5 0-10-4.5-10-10s4.5-10 10-10H400c5.5 0 10 4.5 10 10s-4.5 10-10 10zM296 382.1h-40c-5.5 0-10-4.5-10-10s4.5-10 10-10h40c5.5 0 10 4.5 10 10s-4.5 10-10 10zM191.9 382.1h-64c-5.5 0-10-4.5-10-10s4.5-10 10-10h64c5.5 0 10 4.5 10 10s-4.4 10-10 10z" fill="#423851" p-id="60923"></path><path d="M742.3 774.3c-3.3 0-6.7-0.8-9.7-2.3-5.3-2.6-9.2-7.1-11.1-12.7l-8.3-24.6c-1.9-5.6-1.5-11.5 1.1-16.8 2.6-5.3 7.1-9.2 12.7-11.1l38.8-13.1c5.6-1.9 11.5-1.5 16.8 1.1 5.3 2.6 9.2 7.1 11.1 12.7l8.3 24.6c3.9 11.5-2.3 24-13.8 27.9l-38.8 13.1c-2.3 0.9-4.7 1.2-7.1 1.2z m30.5-61.7c-0.2 0-0.4 0-0.6 0.1l-38.8 13.1c-0.6 0.2-1 0.7-1.1 1-0.2 0.3-0.3 0.9-0.1 1.5l8.3 24.6c0.2 0.6 0.7 1 1 1.1 0.3 0.2 0.9 0.3 1.5 0.1l38.8-13.1c1-0.3 1.6-1.5 1.3-2.5l-8.3-24.6c-0.2-0.6-0.7-1-1-1.1-0.3-0.1-0.6-0.2-1-0.2zM342.8 883.9c-4.2 0-8.1-2.6-9.5-6.8-1.8-5.2 1-10.9 6.3-12.7l101.2-34.3c5.2-1.8 10.9 1 12.7 6.3 1.8 5.2-1 10.9-6.3 12.7L346 883.3c-1.1 0.4-2.1 0.6-3.2 0.6zM467.5 841.7c-4.2 0-8.1-2.6-9.5-6.8-1.8-5.2 1-10.9 6.3-12.7l6.5-2.2c5.2-1.8 10.9 1 12.7 6.3s-1 10.9-6.3 12.7l-6.5 2.2c-1.1 0.3-2.1 0.5-3.2 0.5z" fill="#423851" p-id="60924"></path><path d="M498.3 831.2c-4.2 0-8.1-2.6-9.5-6.8-1.8-5.2 1-10.9 6.3-12.7L723 734.6c5.2-1.8 10.9 1 12.7 6.3 1.8 5.2-1 10.9-6.3 12.7l-227.9 77.1c-1.1 0.4-2.1 0.5-3.2 0.5z" fill="#423851" p-id="60925"></path><path d="M777 873.7c-1.3 0-2.6-0.1-3.9-0.3l-40.4-7.2c-11.9-2.1-19.9-13.6-17.8-25.5l4.6-25.6c1-5.8 4.3-10.8 9.1-14.2 4.8-3.4 10.7-4.7 16.4-3.6l40.4 7.2c5.8 1 10.8 4.3 14.2 9.1 3.4 4.8 4.7 10.7 3.6 16.4l-4.6 25.6c-1.9 10.6-11.2 18.1-21.6 18.1z m-42.4-29.6c-0.2 1.1 0.6 2.1 1.6 2.3l40.4 7.2c1.1 0.2 2.1-0.6 2.3-1.6l4.6-25.6c0.1-0.7-0.1-1.2-0.3-1.5-0.2-0.3-0.6-0.7-1.3-0.8l-40.4-7.2c-1.1-0.2-2.1 0.6-2.3 1.6l-4.6 25.6z" fill="#423851" p-id="60926"></path><path d="M726.4 839.4c-0.6 0-1.2-0.1-1.8-0.2l-398.4-71.1c-5.4-1-9.1-6.2-8.1-11.6 1-5.4 6.2-9.1 11.6-8.1l398.4 71.1c5.4 1 9.1 6.2 8.1 11.6-0.8 4.9-5 8.3-9.8 8.3z" fill="#423851" p-id="60927"></path><path d="M279 855.7h-63c-5.5 0-10-4.5-10-10s4.5-10 10-10h63c5.5 0 10 4.5 10 10s-4.5 10-10 10z" fill="#423851" p-id="60928"></path><path d="M247.5 887.2c-5.5 0-10-4.5-10-10v-63c0-5.5 4.5-10 10-10s10 4.5 10 10v63c0 5.5-4.5 10-10 10z" fill="#423851" p-id="60929"></path><path d="M872.2 480.8h-48.4c-4.2 0-7.7-3.4-7.7-7.7s3.4-7.7 7.7-7.7h48.4c4.2 0 7.7 3.4 7.7 7.7s-3.4 7.7-7.7 7.7z" fill="#423851" p-id="60930"></path><path d="M848 505c-4.2 0-7.7-3.4-7.7-7.7v-48.4c0-4.2 3.4-7.7 7.7-7.7s7.7 3.4 7.7 7.7v48.4c0 4.2-3.4 7.7-7.7 7.7z" fill="#423851" p-id="60931"></path><path d="M741.9 258c-22.1 0-40-17.9-40-40s17.9-40 40-40 40 17.9 40 40-17.9 40-40 40z m0-60c-11 0-20 9-20 20s9 20 20 20 20-9 20-20-9-20-20-20z" fill="#FF85F4" p-id="60932"></path><path d="M243.9 747.7h-40c-12.1 0-22-9.9-22-22v-486c0-12.1 9.9-22 22-22h40c12.1 0 22 9.9 22 22v486c0 12.2-9.8 22-22 22z m-40-510c-1.1 0-2 0.9-2 2v486c0 1.1 0.9 2 2 2h40c1.1 0 2-0.9 2-2v-486c0-1.1-0.9-2-2-2h-40z" fill="#423851" p-id="60933"></path></svg>