<?xml version="1.0" standalone="no"?><!DOCTYPE svg PUBLIC "-//W3C//DTD SVG 1.1//EN" "http://www.w3.org/Graphics/SVG/1.1/DTD/svg11.dtd"><svg t="1633787012409" class="icon" viewBox="0 0 1024 1024" version="1.1" xmlns="http://www.w3.org/2000/svg" p-id="56582" xmlns:xlink="http://www.w3.org/1999/xlink" width="300" height="300"><defs><style type="text/css"></style></defs><path d="M251.9 108.5h498.9c92 0 166.3 74.3 166.3 166.3v498.9c0 92-74.3 166.3-166.3 166.3H251.9c-92 0-166.3-74.3-166.3-166.3V274.8c-0.1-92 74.3-166.3 166.3-166.3z m0 0" fill="#CA241C" p-id="56583"></path><path d="M500.6 274.7c42.9-0.2 87.6 12.1 123.3 34.2 33.6 20.9 64.8 52.9 82.4 85 3.6 6.5 6.7 12.3 7 12.9 0.2 0.6 2 4.7 4 8.9 14.8 32 22.6 76.8 19.4 111.9-2.4 26.3-5.2 39.3-14.5 66.9-4.6 13.7-17.3 37.5-28.2 52.7-7.4 10.4-7.5 10.5-18.5 22.6-11.3 12.5-13.9 15-26.8 25.4l-9.8 7.9h12c23.3 0 48.4-4.4 63.3-11.2 8.2-3.7 7.8-3.9 11.4 5.6 4.1 10.7 6.4 21.7 7.2 34 1.6 24.8-3.4 32.7-23.6 37.7-15.1 3.7-58.6 2.2-101.2-3.5-75.3-10.1-111.9-9.3-138.1 3-11.1 5.2-11.4 5.3-11.4 4.4 0-1.3 5-15.6 7.7-21.8 7.2-16.8 19.3-37.1 31.8-53.3 6.6-8.6 26.5-32.1 31.4-37.1 1-1 9.5-9.9 18.9-19.9 56.6-59.9 68.8-77.7 74.9-109.4 3.3-17.4 1.7-38.9-4.5-58.4-2.5-7.9-10.8-24.6-14.3-29-16.7-20.7-26.9-29.5-44.4-38.2-17-8.5-33.5-12.4-52.1-12.3-41.3 0.1-80.4 22.4-101.1 57.6-3.7 6.3-10.8 23.5-13.2 32-2.2 7.7-3.1 33.5-1.6 44.6 2.3 17 11.6 39.4 22.3 53.5 16.5 21.7 42.8 38.5 68.4 43.7 2 0.4 3.6 1 3.6 1.3 0 0.3-2.9 3.9-6.4 8-9 10.5-15 17.8-16.9 20.5-0.9 1.3-2.8 3.6-4.2 5.1-1.4 1.5-2.5 3.1-2.5 3.5 0 0.4-0.6 1.4-1.4 2.2-5.7 5.9-26.4 38-34.7 53.8-3 5.6-5.9 10.3-6.5 10.2-3.9 0-26-11.2-40.8-20.6-34.7-22.1-64.3-55.3-83.2-93-9.3-18.5-18.7-47.5-21.7-67-5.5-35-3.1-72.1 6.8-105.3 23.3-78.7 85.9-140 164.4-161 17.2-4.6 24.2-5.8 43.2-7.5 6.1-0.3 12.1-0.6 18.2-0.6z" fill="#FFFFFF" p-id="56584"></path></svg>