<?xml version="1.0" standalone="no"?><!DOCTYPE svg PUBLIC "-//W3C//DTD SVG 1.1//EN" "http://www.w3.org/Graphics/SVG/1.1/DTD/svg11.dtd"><svg t="1633786990995" class="icon" viewBox="0 0 1024 1024" version="1.1" xmlns="http://www.w3.org/2000/svg" p-id="56134" xmlns:xlink="http://www.w3.org/1999/xlink" width="300" height="300"><defs><style type="text/css"></style></defs><path d="M401.066667 469.333333l354.133333-81.066666-25.6-213.333334-153.6 55.466667-128 29.866667-59.733333 51.2z" fill="#EB4749" p-id="56135"></path><path d="M810.666667 640V170.666667c0-12.8-4.266667-25.6-17.066667-34.133334-8.533333-8.533333-21.333333-8.533333-34.133333-8.533333l-384 85.333333c-21.333333 4.266667-34.133333 21.333333-34.133334 42.666667v354.133333c-72.533333-34.133333-162.133333-4.266667-196.266666 72.533334-34.133333 72.533333-4.266667 162.133333 72.533333 196.266666s162.133333 4.266667 196.266667-72.533333c8.533333-21.333333 12.8-42.666667 12.8-64V290.133333l298.666666-68.266666v302.933333c-72.533333-34.133333-162.133333-4.266667-196.266666 72.533333-34.133333 72.533333-4.266667 162.133333 72.533333 196.266667s162.133333 4.266667 196.266667-72.533333c8.533333-21.333333 12.8-42.666667 12.8-64V640zM277.333333 810.666667c-34.133333 0-64-29.866667-64-64S243.2 682.666667 277.333333 682.666667c29.866667 0 55.466667 21.333333 64 51.2v12.8c0 34.133333-25.6 64-64 64z m384-85.333334c-34.133333 0-64-29.866667-64-64s29.866667-64 64-64c29.866667 0 55.466667 21.333333 64 51.2v12.8c0 34.133333-29.866667 64-64 64z" fill="#333333" p-id="56136"></path></svg>