<?xml version="1.0" standalone="no"?><!DOCTYPE svg PUBLIC "-//W3C//DTD SVG 1.1//EN" "http://www.w3.org/Graphics/SVG/1.1/DTD/svg11.dtd"><svg t="1633786949114" class="icon" viewBox="0 0 1024 1024" version="1.1" xmlns="http://www.w3.org/2000/svg" p-id="52881" xmlns:xlink="http://www.w3.org/1999/xlink" width="300" height="300"><defs><style type="text/css"></style></defs><path d="M702.6688 746.052267l-25.019733 22.869333 98.030933 107.246933a69.768533 69.768533 0 0 0-15.018667 10.478934c-21.230933 19.421867-27.101867 47.547733-13.1072 62.839466 13.994667 15.291733 42.530133 11.9808 63.761067-7.441066 21.230933-19.421867 27.101867-47.547733 13.1072-62.839467l-99.157333-108.475733c6.485333-14.165333 17.544533-32.1536 32.802133-35.293867 25.736533-5.358933 20.5824-58.88 20.5824-58.88l-75.9808 69.495467z" fill="#F27695" p-id="52882"></path><path d="M393.659733 62.190933l-47.240533 20.821334-195.8912 86.357333-47.3088 20.855467 22.3232 50.688 67.003733 151.995733c-8.840533 1.365333-17.885867 3.8912-26.794666 7.816533-40.106667 17.681067-62.293333 55.466667-49.5616 84.3776 12.731733 28.910933 55.6032 38.024533 95.709866 20.343467 40.106667-17.681067 62.293333-55.466667 49.5616-84.3776l-88.610133-201.045333 195.8912-86.357334 67.003733 151.995734c-8.840533 1.365333-17.885867 3.8912-26.794666 7.816533-40.106667 17.681067-62.293333 55.466667-49.5616 84.3776 12.731733 28.910933 55.6032 38.024533 95.709866 20.343467 40.106667-17.681067 62.293333-55.466667 49.5616-84.3776l-110.933333-251.665067-0.068267 0.034133zM583.406933 473.736533l-56.490666-15.018666-64.375467 242.005333c-8.772267-5.051733-18.5344-9.216-29.184-12.049067-47.889067-12.731733-94.173867 4.9152-103.355733 39.458134-9.181867 34.542933 22.186667 72.874667 70.109866 85.6064 47.889067 12.731733 94.173867-4.9152 103.355734-39.458134l65.092266-244.770133c26.589867-3.754667 62.941867-4.437333 81.7152 14.711467 31.709867 32.3584 104.5504-24.917333 104.5504-24.917334l-171.4176-45.568z" fill="#00BED2" p-id="52883"></path><path d="M783.394133 195.4816l-30.8224-14.199467-60.791466 131.9936c-4.5056-3.754667-9.693867-7.099733-15.496534-9.762133-26.112-12.014933-54.340267-6.519467-63.010133 12.322133s5.461333 43.861333 31.607467 55.876267c26.112 12.014933 54.340267 6.519467 63.010133-12.322133l61.474133-133.495467c15.5648 0.477867 36.420267 3.6864 45.2608 16.520533 14.916267 21.640533 62.225067-3.8912 62.225067-3.8912l-93.457067-43.042133z" fill="#FFC60B" p-id="52884"></path></svg>