<?xml version="1.0" standalone="no"?><!DOCTYPE svg PUBLIC "-//W3C//DTD SVG 1.1//EN" "http://www.w3.org/Graphics/SVG/1.1/DTD/svg11.dtd"><svg t="1633787182247" class="icon" viewBox="0 0 1030 1024" version="1.1" xmlns="http://www.w3.org/2000/svg" p-id="68914" xmlns:xlink="http://www.w3.org/1999/xlink" width="301.7578125" height="300"><defs><style type="text/css"></style></defs><path d="M377.025128 510.941602a80.967442 80.967442 0 0 0-30.61794 30.61794A79.379845 79.379845 0 0 0 335.14281 583.366261c0 22.679956 8.429384 42.524917 24.947951 59.005684 16.480768 16.518568 36.401329 24.947951 59.648284 24.947952 23.246955 0 42.902916-8.429384 59.005685-24.947952 16.140568-16.518568 24.229753-36.287929 24.229752-59.194684 0-22.868955-8.126984-42.487117-24.191952-59.005685A82.592839 82.592839 0 0 0 418.794047 499.715024a82.630639 82.630639 0 0 0-41.806719 11.226578z" fill="#FFE357" p-id="68915"></path><path d="M722.100654 465.95969c-20.903359-69.249465-60.971281-125.949354-120.203765-170.175268-59.270284-44.188114-126.894352-66.301071-202.796604-66.33887a324.890365 324.890365 0 0 0-54.431894 4.460391 346.852123 346.852123 0 0 0-51.710299 12.322776 302.626209 302.626209 0 0 0-47.741306 19.769361 372.026873 372.026873 0 0 0-44.301514 26.648948c-14.099372 9.865781-27.215947 20.978959-39.198523 33.188336a366.734884 366.734884 0 0 0-60.857881 81.57224c-8.315984 15.006571-15.27117 30.73134-20.71436 46.985309-5.29199 16.707567-9.525581 33.755334-12.511775 51.0299a321.412772 321.412772 0 0 0 12.662975 157.323293c10.886379 32.772536 27.215947 63.579476 48.308305 91.097822a351.917313 351.917313 0 0 0 72.386859 70.799261 335.285345 335.285345 0 0 0 92.609819 46.985309c34.057733 11.264378 69.740864 16.934367 105.650794 16.858767 50.9921 0 98.657807-10.43278 142.959321-31.298339a341.446733 341.446733 0 0 0 113.550978-85.276634c-57.002289-16.631968 78.510447-237.156737 66.33887-305.952602z" fill="#FBC831" p-id="68916"></path><path d="M722.100654 465.95969c-20.903359-69.249465-60.971281-125.949354-120.203765-170.175268-59.270284-44.188114-126.894352-66.301071-202.796604-66.33887a324.890365 324.890365 0 0 0-54.431894 4.460391 346.852123 346.852123 0 0 0-51.710299 12.322776 302.626209 302.626209 0 0 0-47.741306 19.769361 372.026873 372.026873 0 0 0-44.301514 26.648948c-14.099372 9.865781-27.215947 20.978959-39.198523 33.188336a366.734884 366.734884 0 0 0-60.857881 81.57224c-8.315984 15.006571-15.27117 30.73134-20.71436 46.985309-5.29199 16.707567-9.525581 33.755334-12.511775 51.0299a321.412772 321.412772 0 0 0 12.662975 157.323293c10.886379 32.772536 27.215947 63.579476 48.308305 91.097822a351.917313 351.917313 0 0 0 72.386859 70.799261 335.285345 335.285345 0 0 0 92.609819 46.985309c34.057733 11.264378 69.740864 16.934367 105.650794 16.858767 50.9921 0 98.657807-10.43278 142.959321-31.298339a341.446733 341.446733 0 0 0 113.550978-85.276634c-57.002289-16.631968 78.510447-237.156737 66.33887-305.952602z" fill="#FBC831" p-id="68917"></path><path d="M722.100654 465.95969c-20.903359-69.249465-60.971281-125.949354-120.203765-170.175268-59.270284-44.188114-126.894352-66.301071-202.796604-66.33887a324.890365 324.890365 0 0 0-54.431894 4.460391 346.852123 346.852123 0 0 0-51.710299 12.322776 302.626209 302.626209 0 0 0-47.741306 19.769361 372.026873 372.026873 0 0 0-44.301514 26.648948c-14.099372 9.865781-27.215947 20.978959-39.198523 33.188336a366.734884 366.734884 0 0 0-60.857881 81.57224c-8.315984 15.006571-15.27117 30.73134-20.71436 46.985309-5.29199 16.707567-9.525581 33.755334-12.511775 51.0299a321.412772 321.412772 0 0 0 12.662975 157.323293c10.886379 32.772536 27.215947 63.579476 48.308305 91.097822a351.917313 351.917313 0 0 0 72.386859 70.799261 335.285345 335.285345 0 0 0 92.609819 46.985309c34.057733 11.264378 69.740864 16.934367 105.650794 16.858767 50.9921 0 98.657807-10.43278 142.959321-31.298339a341.446733 341.446733 0 0 0 113.550978-85.276634c-57.002289-16.631968 78.510447-237.156737 66.33887-305.952602z" fill="#21D3AC" p-id="68918"></path><path d="M664.039968 487.392248c-17.009967-56.32189-49.517903-102.4378-97.67501-138.42333-48.157106-35.94773-103.080399-53.940495-164.769878-53.978294-14.817571 0-29.597342 1.209598-44.225913 3.628793-14.250572 2.267996-28.274345 5.632189-41.995718 10.01698a245.69952 245.69952 0 0 0-38.820525 16.102769c-12.473976 6.388188-24.532152 13.607973-35.985529 21.659357a228.387154 228.387154 0 0 0-31.865338 27.026948 298.317017 298.317017 0 0 0-49.442303 66.33887c-6.766187 12.209376-12.398376 24.985751-16.820968 38.215725-4.309192 13.607973-7.711185 27.480546-10.16818 41.504319a261.764489 261.764489 0 0 0 10.28158 127.99055 253.826504 253.826504 0 0 0 39.274124 74.087856 286.145441 286.145441 0 0 0 58.816685 57.607087 272.272868 272.272868 0 0 0 75.221853 38.177926 270.874271 270.874271 0 0 0 85.881432 13.721373c41.390919 0 80.135843-8.467183 116.121373-25.43935a277.451458 277.451458 0 0 0 92.26962-69.362865c-46.30491-13.494574 63.768475-192.930823 53.902695-248.874714z" fill="#33EEC5" p-id="68919"></path><path d="M803.408295 224.229162l185.597638 70.912662c-10.47058-20.978959-22.301956-41.20192-35.456331-60.631082a247.022518 247.022518 0 0 0-38.404725-45.284312 349.346918 349.346918 0 0 0-39.614322-31.298338 192.930823 192.930823 0 0 0-38.933924-20.56316 417.689184 417.689184 0 0 0-35.90993-11.869177 144.168918 144.168918 0 0 0-31.298339-5.29199c-9.336582-0.491399-17.765965-0.680399-24.910151-0.680398-7.144186 0-12.549575 0.264599-16.556368 1.133997h-5.896789l-61.46268-3.704392a1571.229531 1571.229531 0 0 1 89.623625 127.385751c25.212551 40.181322 44.339313 74.390255 57.833887 102.702399 13.343374 28.387745 24.305353 53.675895 32.470137 76.204651 8.126984 22.490956 13.040975 41.504319 14.666371 57.153489 1.398597 11.944777 2.041196 23.927353 1.852197 35.90993-0.1512 6.955186-1.133998 13.872573-3.023994 20.600959-31.449539-15.649169-66.45227-18.408564-104.970395-8.202584-36.287929 10.20598-64.297674 29.446142-84.369436 57.833887-20.109561 28.349945-26.081949 57.153488-18.257364 86.221632 7.824585 29.068143 27.329347 50.614101 58.514286 64.335474 30.995939 13.683573 64.789073 15.49797 100.925803 5.29199a171.989664 171.989664 0 0 0 49.669103-24.305353c13.985973-9.714581 26.157549-21.923957 35.83433-35.909929 8.996382-13.154374 15.23337-27.971945 18.295164-43.621115 41.693319-63.655076 20.41196-176.525655-63.844075-338.687339l-42.373718-75.599852z" fill="#FF6F38" p-id="68920"></path><path d="M778.913943 182.838243l185.597638 70.912661c-10.47058-20.978959-22.301956-41.20192-35.456331-60.631081A247.022518 247.022518 0 0 0 890.650525 147.797711 349.346918 349.346918 0 0 0 851.036202 116.537172 192.930823 192.930823 0 0 0 812.102278 96.011812a417.689184 417.689184 0 0 0-35.909929-11.869176 144.168918 144.168918 0 0 0-31.298339-5.29199c-9.336582-0.491399-17.765965-0.680399-24.910152-0.680399-7.144186 0-12.549575 0.264599-16.556367 1.133998H697.568502L636.068022 75.599852a1571.229531 1571.229531 0 0 1 89.623625 127.385752c25.212551 40.181322 44.339313 74.390255 57.833887 102.702399 13.343374 28.387745 24.305353 53.675895 32.470137 76.204651 8.126984 22.490956 13.040975 41.504319 14.666371 57.153488 1.398597 11.944777 2.003396 23.927353 1.852197 35.90993-0.1512 6.955186-1.133998 13.872573-3.023994 20.60096-31.449539-15.649169-66.45227-18.408564-104.970395-8.202584-36.287929 10.20598-64.297674 29.446142-84.407236 57.833887-20.033961 28.349945-26.081949 57.153488-18.219564 86.221632 7.824585 29.068143 27.329347 50.614101 58.514286 64.335474 30.995939 13.683573 64.789073 15.49797 100.925803 5.29199a171.989664 171.989664 0 0 0 49.669103-24.305353c13.985973-9.714581 26.157549-21.923957 35.83433-35.90993 8.996382-13.154374 15.23337-27.971945 18.295164-43.621114 41.693319-63.655076 20.41196-176.525655-63.844075-338.687339l-42.373718-75.599852z" fill="#FFD420" p-id="68921"></path></svg>