<?xml version="1.0" standalone="no"?><!DOCTYPE svg PUBLIC "-//W3C//DTD SVG 1.1//EN" "http://www.w3.org/Graphics/SVG/1.1/DTD/svg11.dtd"><svg t="1633786937667" class="icon" viewBox="0 0 1024 1024" version="1.1" xmlns="http://www.w3.org/2000/svg" p-id="52564" xmlns:xlink="http://www.w3.org/1999/xlink" width="300" height="300"><defs><style type="text/css"></style></defs><path d="M751.081739 929.947826c-40.18087 18.921739-118.761739 44.521739-250.657391 44.521739s-210.476522-25.711304-250.546087-44.521739A37.064348 37.064348 0 0 1 233.73913 878.302609l7.791305-13.913044 106.852174-191.109565h304.083478l107.074783 191.109565 7.791304 13.913044a37.064348 37.064348 0 0 1-16.250435 51.645217z" fill="#EAB242" p-id="52565"></path><path d="M759.54087 864.389565a31.276522 31.276522 0 0 1-8.459131 5.676522c-40.18087 18.921739-118.761739 52.98087-250.657391 52.98087s-210.476522-34.05913-250.546087-52.98087a31.276522 31.276522 0 0 1-8.459131-5.676522l106.963479-191.109565h304.083478z" fill="#FFC364" p-id="52566"></path><path d="M500.869565 861.829565a408.932174 408.932174 0 1 1 408.598261-408.932174A408.932174 408.932174 0 0 1 500.869565 861.829565z" fill="#C792FF" p-id="52567"></path><path d="M500.869565 49.530435A403.366957 403.366957 0 1 1 97.168696 452.897391 400.695652 400.695652 0 0 1 500.869565 49.530435m0-11.130435a414.497391 414.497391 0 1 0 240.973913 77.245217A414.831304 414.831304 0 0 0 500.869565 38.4z" fill="#D5AEFF" p-id="52568"></path><path d="M295.513043 311.652174a33.391304 33.391304 0 0 1-22.260869-8.236522 33.391304 33.391304 0 0 1-3.339131-47.081739 332.132174 332.132174 0 0 1 171.408696-105.293913 33.391304 33.391304 0 1 1 16.139131 64.77913A265.906087 265.906087 0 0 0 320.77913 300.521739a33.391304 33.391304 0 0 1-25.266087 11.130435zM229.509565 441.989565a34.615652 34.615652 0 0 1-7.457391-0.77913 33.391304 33.391304 0 0 1-25.154783-39.958261 328.793043 328.793043 0 0 1 16.695652-52.98087 33.391304 33.391304 0 1 1 61.773914 25.377392 270.358261 270.358261 0 0 0-13.356522 42.295652 33.391304 33.391304 0 0 1-32.50087 26.045217z" fill="#FFFFFF" p-id="52569"></path><path d="M903.902609 452.897391a403.366957 403.366957 0 0 1-707.116522 265.46087c2.671304-16.918261 5.231304-35.172174 7.346087-54.427826 11.130435-100.953043 91.492174-114.754783 156.827826-132.118261S512 506.768696 512 360.96c0-98.838261 116.090435-192.333913 222.608696-236.187826a402.253913 402.253913 0 0 1 169.293913 328.125217z" fill="#AC81EF" p-id="52570"></path><path d="M642.893913 445.217391l21.370435 43.297392a20.257391 20.257391 0 0 0 15.137391 11.130434l47.749565 6.90087a26.37913 26.37913 0 0 1 14.58087 44.521739l-34.504348 33.391304a19.812174 19.812174 0 0 0-6.010435 18.587827l8.125218 47.63826A26.37913 26.37913 0 0 1 671.276522 678.956522l-42.629565-22.26087a19.812174 19.812174 0 0 0-18.699131 0L567.652174 678.956522a26.37913 26.37913 0 0 1-38.288696-27.714783l8.236522-47.638261a20.146087 20.146087 0 0 0-5.787826-17.697391l-34.615652-33.391304a26.37913 26.37913 0 0 1 14.580869-44.52174l47.86087-6.900869a20.257391 20.257391 0 0 0 15.026087-11.130435L595.589565 445.217391a26.37913 26.37913 0 0 1 47.304348 0z" fill="#FFFFFF" p-id="52571"></path></svg>