<?xml version="1.0" standalone="no"?><!DOCTYPE svg PUBLIC "-//W3C//DTD SVG 1.1//EN" "http://www.w3.org/Graphics/SVG/1.1/DTD/svg11.dtd"><svg t="1633786927022" class="icon" viewBox="0 0 1024 1024" version="1.1" xmlns="http://www.w3.org/2000/svg" p-id="51693" xmlns:xlink="http://www.w3.org/1999/xlink" width="300" height="300"><defs><style type="text/css"></style></defs><path d="M507 525.1m-417.8 0a417.8 417.8 0 1 0 835.6 0 417.8 417.8 0 1 0-835.6 0Z" fill="#F2D21E" p-id="51694"></path><path d="M201.5 532.5c-0.3-7.2 2.4-13.5 5.3-19.8 2.2-4.8 4.1-9.6 5.8-14.6 1.3-3.8 3.5-7 5.3-10.4 2.3-4.4 4.5-8.9 7.2-13.1 2.2-3.5 3.6-7.5 5.9-11.1 10.5-16.5 21.6-32.6 34.3-47.5 2.5-3 5.1-5.9 8-8.6 4-3.8 7.8-7.7 11.4-11.8 5.1-5.7 11.7-9.8 17.3-15 6.7-6 13.9-11.5 21.4-16.4 3.7-2.5 7.1-5.6 11.4-7.4 2.2-0.9 4-2.8 6-4.1 4.4-3.1 9.3-5.3 14-7.8 4-2.2 7.8-5.2 12.6-6.2 3.2-0.7 5.4-3.5 8.4-4.9 5.9-2.7 12.8-1.1 16.5 4.3 2 3 4.5 5.6 5.1 9.5 1.7 9.6-2.6 14.7-10.8 19.1-4.8 2.6-9.8 4.8-14.3 7.8-0.5 0.4-1 0.8-1.6 1-8.4 3.4-16 8.4-23.6 13.4-13.9 9.2-26.9 19.5-39.1 30.8-9.1 8.4-17.4 17.5-25 27.3-4 5.2-8.6 10.1-12.4 15.5-2.2 3.2-4.3 6.5-6.1 10-1.3 2.4-3.2 4.4-4.6 6.7-4.7 7.9-9.2 15.9-13.3 24.1-3.3 6.5-5.7 13.3-8.6 20-2.9 6.6-5.5 13.2-9.2 19.4-2.6 4.3-7.2 5.9-11.6 7.7-0.7 0.2-1.5 0.2-2.1-0.1-3.8-2-8.2-3.3-11-6.8-2.6-3.2-2.3-7.2-2.6-11z" fill="#30B170" p-id="51695"></path><path d="M265.8 570.2c-8.7 0.8-18-10-15.1-19.7 2.1-7.1 4.8-13.8 7.8-20.5 1.6-3.6 2.9-7.4 4.8-11 4.1-8.1 8.8-15.9 13.1-23.9 4.4-8.3 9.8-16 15.3-23.5 4.7-6.5 10.2-12.5 15.4-18.7 5.7-6.9 12.6-12.5 18.8-19 5.5-5.8 12.4-10.4 18.8-15.4 3.8-3 7.5-6.1 11.6-8.5 5.9-3.4 11.3-7.5 17.3-10.6 5-2.6 9.9-5.2 14.7-8.1 3.4-2 7-3.9 10.8-5.2 4.8-1.6 9.4-0.9 13.1 3 4.8 5 8.4 10.3 6.4 17.8-0.6 2.4-1.4 4.6-3 6.3-3.1 3.4-6.7 6.2-10.7 8.3-12.2 6.1-24.3 12.3-35.3 20.3-6.8 5-13.2 10.5-20 15.5-6.8 5-11.8 11.8-17.8 17.6-3.7 3.6-6.6 8.2-10.2 12-5 5.5-8.3 12.1-12.8 17.9-3.8 4.9-6.5 10.5-9.6 15.9-4.4 7.6-8.3 15.6-11.6 23.7-1.8 4.3-3.5 8.6-5.3 12.9-1.9 4.6-5 8.3-8.7 11.4-2 1.7-4.6 1.4-7.8 1.5z m173.4-114.7c0.5 8-3.5 12.8-9.1 16.6-4.9 3.4-10.3 6-15.4 9-5.5 3.2-11.1 6.1-16.3 9.7-2.9 2-5.8 4.2-8.4 6.5-6.7 5.9-13.3 11.8-19.7 18.1-4.1 4.1-7 9.2-10.5 13.9-3.9 5.4-8.1 10.5-11.7 16.1-2.6 4.1-4.4 8.7-6.6 13.1-2.4 4.9-4.6 9.8-7 14.7-1.8 3.7-3.6 7.5-5.4 11.3-4.9 10.2-20.9 9.9-26.3 0.1-3.4-6.2-4-11.5-1.1-18.1 2.1-4.7 4.3-9.4 5.8-14.4 1.2-3.7 3.3-7.1 5.1-10.5 5-9.2 10.1-18.5 16.1-27.2 3.5-5.1 7.4-9.9 11.5-14.5 2.7-3.1 4.7-6.7 7.7-9.6 1.8-1.8 3.4-3.8 5.3-5.5 2.6-2.2 5.1-4.4 7.4-6.9 3.9-4.3 9-7.3 13.4-11.1 5.9-5.2 12.7-9.1 19.2-13.3 5.6-3.6 11.5-6.5 17.5-9.4 2.9-1.4 5.4-3.4 8.6-4.5 5.4-1.8 10.1-0.2 14 3 3.9 3.5 7 7.8 5.9 12.9z m0 0M755.8 625.2c-0.5 3.1-0.8 6.3-1.4 9.4-4 21.9-16.7 38.1-34.5 50.2-29.2 19.8-61.1 25.9-94.9 14.6-21-7-35.7-20.9-39.2-43.9-2.8-18.1 3.2-34.2 14.4-48.1 18.8-23.4 43.8-35.7 73.5-38.3 7.8-0.7 15.7-0.7 23.5 0.2 7.7 0.9 15.2 3.3 23.3 5.2V434.7c0-2.3-0.1-4.5-0.5-6.8-1.1-5.6-4.7-8.8-10.4-8.8-3.6 0-7.2 0.6-10.6 1.6-57.3 17.8-114.5 35.7-171.7 53.7-9.1 2.9-16.9 7.9-20.6 17.1-1.4 3.8-2 7.9-1.9 11.9-0.1 54.9-1.4 109.9 0.3 164.8 1.5 49.4-34.6 76.7-65.8 85.7-22 6.4-44.2 7.3-65.8-1.7-33.3-13.8-44.9-46.9-27.6-78.6 13.5-24.8 35.1-39.6 61.6-47.5 17.6-5.3 35.6-6.8 53.7-1.9 2.7 0.7 5.4 1.9 8.7 3.1v-5.6c0-66.3 0.4-132.6-0.2-198.9 0-27.9 18-52.6 44.6-61.1 65.5-19.9 130.8-40.1 196.3-59.8 6.4-1.9 13.1-2.4 19.6-1.5 14.4 2.2 23.2 12.7 24.8 27.3 0.2 1.3 0.5 2.6 0.8 3.9v293.6z m0 0" fill="#30B170" p-id="51696"></path></svg>