<?xml version="1.0" standalone="no"?><!DOCTYPE svg PUBLIC "-//W3C//DTD SVG 1.1//EN" "http://www.w3.org/Graphics/SVG/1.1/DTD/svg11.dtd"><svg t="1633786857713" class="icon" viewBox="0 0 1024 1024" version="1.1" xmlns="http://www.w3.org/2000/svg" p-id="45949" xmlns:xlink="http://www.w3.org/1999/xlink" width="300" height="300"><defs><style type="text/css"></style></defs><path d="M625.306 936.294H222.72c-73.523 0-133.12-59.596-133.12-133.12V400.59c0-73.523 59.597-133.12 133.12-133.12h402.586c73.523 0 133.12 59.597 133.12 133.12v402.585c0 73.472-59.597 133.12-133.12 133.12z" fill="#A5ADF6" p-id="45950"></path><path d="M805.018 756.531H402.432c-73.523 0-133.12-59.597-133.12-133.12V220.826c0-73.524 59.597-133.12 133.12-133.12h402.586c73.523 0 133.12 59.596 133.12 133.12V623.41c0 73.523-59.597 133.12-133.12 133.12z" fill="#A5ADF6" p-id="45951"></path><path d="M622.387 267.469H269.312v353.075c0 75.11 60.928 136.038 136.038 136.038h353.076V403.507c0-75.161-60.928-136.038-136.039-136.038z" fill="#635DF7" p-id="45952"></path><path d="M752.589 232.96l-93.85-23.296a41.313 41.313 0 0 0-51.251 40.192l0.358 123.187c-10.188-2.97-20.94-4.608-32.102-4.557-63.027 0.205-113.971 51.456-113.766 114.484 0.204 63.027 51.456 113.97 114.483 113.766 59.085-0.205 107.571-45.26 113.203-102.86 0.666-3.022 1.178-6.094 1.126-9.268l-0.563-182.016 42.445 10.547c22.118 5.53 44.544-7.987 50.022-30.105 5.53-22.17-7.987-44.596-30.105-50.074z" fill="#F7F8F8" p-id="45953"></path></svg>