<?xml version="1.0" standalone="no"?><!DOCTYPE svg PUBLIC "-//W3C//DTD SVG 1.1//EN" "http://www.w3.org/Graphics/SVG/1.1/DTD/svg11.dtd"><svg t="1633786846148" class="icon" viewBox="0 0 1024 1024" version="1.1" xmlns="http://www.w3.org/2000/svg" p-id="44937" xmlns:xlink="http://www.w3.org/1999/xlink" width="300" height="300"><defs><style type="text/css"></style></defs><path d="M483.328 1011.712c-55.5008-3.2768-104.8576-16.5888-155.648-41.984-110.592-55.5008-189.6448-159.9488-213.1968-282.2144-6.9632-36.6592-8.3968-94.4128-2.8672-130.4576 28.0576-187.392 179.2-327.8848 367.4112-341.8112 19.456-1.4336 26.2144-2.6624 28.0576-5.12 1.2288-1.8432 2.8672-3.2768 3.6864-3.2768 1.6384 0 1.6384 38.2976-0.2048 127.5904l-1.2288 70.8608-8.3968 1.2288c-4.7104 0.8192-15.36 3.072-24.1664 5.3248-8.6016 2.048-18.0224 3.8912-20.6848 3.8912-2.8672 0-5.5296 0.8192-5.9392 1.6384-0.2048 0.8192-11.264 6.7584-24.1664 13.1072-12.9024 6.3488-30.3104 16.7936-38.5024 22.9376-8.192 6.3488-16.384 11.4688-18.0224 11.4688-1.6384 0-3.4816 1.6384-4.3008 3.6864-0.6144 1.8432-2.4576 4.9152-3.8912 6.5536-14.336 16.1792-29.696 39.3216-37.2736 55.296-15.9744 34.6112-23.7568 81.5104-17.8176 109.7728 13.5168 66.7648 47.9232 112.64 109.9776 146.8416 7.3728 4.096 15.36 7.5776 17.408 7.5776s6.3488 1.4336 9.6256 3.072c3.072 1.6384 7.3728 3.072 9.4208 3.072 2.048 0 6.3488 1.4336 9.4208 3.072 3.2768 1.6384 9.6256 3.072 14.336 3.072 4.5056 0 9.0112 0.6144 9.6256 1.2288 1.8432 1.8432 41.1648 1.8432 54.272 0 5.9392-1.024 12.0832-2.8672 13.7216-4.5056 1.4336-1.6384 5.12-2.8672 7.9872-2.8672s5.3248-0.8192 5.3248-2.048c0-1.024 2.2528-2.048 5.12-2.048s5.12-0.8192 5.12-2.048c0-1.024 2.2528-2.048 4.9152-2.048 7.168 0 11.4688-2.048 11.4688-5.3248 0-1.6384 2.048-2.8672 4.5056-2.8672 5.5296 0 24.1664-11.8784 24.1664-15.36 0-1.6384 2.048-3.072 4.7104-3.4816 2.4576-0.4096 5.3248-2.6624 6.5536-5.12 1.024-2.6624 3.4816-4.7104 5.12-4.7104 4.3008 0 20.48-16.5888 20.48-21.0944 0-1.8432 1.2288-3.4816 2.6624-3.4816 3.8912 0 9.6256-6.7584 9.6256-10.8544 0-1.8432 1.2288-3.4816 2.8672-3.4816 3.8912 0 11.4688-10.6496 11.4688-16.1792 0-2.4576 1.2288-4.3008 2.6624-4.3008 3.2768 0 7.5776-8.3968 7.5776-14.7456 0-2.2528 1.4336-5.3248 3.2768-6.5536 2.2528-1.6384 3.6864-6.9632 4.3008-16.1792 0.6144-7.5776 2.048-13.7216 2.8672-13.7216 1.024 0 1.8432-84.5824 1.8432-189.44 0-167.1168 0.4096-189.44 3.072-189.44 1.6384 0 3.072 1.4336 3.072 3.072s6.7584 7.3728 14.9504 12.9024c97.8944 66.3552 160.768 170.8032 174.4896 290.2016 2.4576 20.8896 1.2288 75.1616-2.048 97.28-25.8048 171.8272-153.3952 303.9232-325.0176 336.6912-13.5168 2.6624-23.552 3.6864-58.9824 6.144-5.12 0.2048-20.6848 0-34.816-0.8192z" fill="#FC547C" p-id="44938"></path><path d="M480.4608 815.7184c-0.6144-0.6144-4.5056-1.4336-8.8064-1.6384-4.3008-0.4096-10.4448-1.8432-13.9264-3.2768-3.2768-1.4336-6.7584-2.4576-7.5776-2.2528-0.8192 0.2048-4.096-0.6144-7.168-2.048-3.072-1.2288-6.3488-2.4576-7.168-2.6624-1.024-0.4096-1.8432-0.6144-2.048-0.8192-0.4096-0.4096-2.8672-0.8192-5.5296-1.4336-5.7344-1.024-27.4432-12.9024-44.2368-24.1664-24.1664-16.1792-51.6096-47.3088-64.9216-73.9328-12.0832-23.552-22.1184-61.8496-21.9136-82.944 0.4096-27.2384 1.024-34.816 2.6624-34.816 0.8192 0 1.2288-2.6624 0.8192-6.144-0.6144-3.2768 0-6.144 1.024-6.144s1.4336-2.2528 1.024-5.12c-0.6144-2.8672-0.2048-5.12 1.024-5.12 1.024 0 1.4336-1.8432 0.8192-4.096-0.6144-2.2528-0.4096-4.096 0.6144-4.096 2.2528 0 8.6016-20.2752 7.168-22.528-0.8192-1.2288-0.2048-2.048 1.024-2.048s3.6864-3.4816 5.5296-7.5776c3.8912-9.6256 19.6608-34.2016 27.648-43.2128 3.072-3.6864 5.3248-7.5776 4.7104-8.8064-0.8192-1.024 0.2048-1.8432 2.048-1.8432 1.6384 0 4.096-2.2528 5.12-5.12s3.2768-5.12 4.9152-5.12c1.6384 0 9.8304-5.12 18.0224-11.4688 8.192-6.144 25.6-16.5888 38.5024-22.9376 12.9024-6.3488 24.1664-12.288 24.7808-13.312 0.6144-1.024 5.12-2.048 9.8304-2.6624 4.7104-0.4096 13.9264-2.048 20.2752-3.6864 6.3488-1.6384 15.5648-3.4816 20.48-4.3008l9.0112-1.4336-0.2048-42.3936c0-23.1424 0.6144-66.1504 1.4336-95.4368l1.6384-53.248 6.7584-18.432c7.168-19.456 17.408-40.96 21.9136-46.08 6.144-7.168 12.9024-13.5168 18.0224-16.9984 3.6864-2.4576 5.3248-5.5296 5.3248-9.6256 0-4.3008 1.6384-7.168 5.3248-9.4208 6.7584-4.5056 23.3472-20.6848 23.3472-22.7328 0-0.8192 2.8672-3.2768 6.144-5.12 3.4816-1.8432 6.144-4.7104 6.144-6.3488 0-1.4336 2.2528-4.096 5.12-5.5296 2.6624-1.4336 5.5296-4.3008 6.3488-6.5536 0.6144-2.048 3.2768-4.096 6.144-4.7104 2.6624-0.6144 7.168-1.4336 10.0352-2.048 3.072-0.6144 6.3488-3.4816 7.5776-6.3488 2.4576-5.3248 11.264-11.0592 16.7936-11.0592 1.6384 0 3.8912-1.2288 4.7104-2.8672 7.3728-12.6976 75.3664-20.48 113.2544-12.9024 26.8288 5.5296 38.5024 11.0592 52.4288 24.7808 20.48 20.48 25.6 45.2608 13.9264 66.9696-11.4688 21.2992-47.7184 53.6576-67.584 60.0064-21.2992 6.9632-40.96 22.3232-49.3568 38.912l-4.9152 9.8304 0.2048 214.8352c0 154.0096-0.4096 214.8352-2.048 214.8352-1.2288 0-1.6384 1.024-0.8192 2.2528 2.048 3.2768-3.4816 26.624-6.7584 27.8528-1.4336 0.6144-2.048 2.048-1.4336 3.072 1.8432 3.072-5.5296 18.0224-8.8064 18.0224-1.6384 0-2.2528 1.024-1.6384 2.2528 1.8432 2.8672-8.6016 18.2272-12.4928 18.2272-1.6384 0-2.6624 0.8192-2.048 1.8432 1.6384 2.4576-6.5536 12.4928-10.24 12.4928-1.8432 0-2.4576 1.024-1.6384 2.2528 1.6384 2.6624-17.2032 22.3232-21.7088 22.3232-1.6384 0-4.096 2.048-5.12 4.7104-1.2288 2.4576-4.096 4.7104-6.5536 5.12-2.6624 0.4096-4.7104 1.8432-4.7104 3.4816 0 3.4816-18.6368 15.36-24.1664 15.36-2.4576 0-4.5056 1.2288-4.5056 2.8672 0 3.2768-4.3008 5.3248-11.264 5.3248-2.4576 0-5.12 1.4336-5.9392 3.072-0.6144 1.6384-2.4576 2.4576-4.096 1.8432-1.8432-0.6144-4.5056 0.2048-6.3488 2.048-1.8432 1.6384-4.7104 2.4576-6.3488 1.8432-1.8432-0.6144-3.8912 0-4.9152 1.2288-0.8192 1.4336-5.12 3.4816-9.4208 4.5056-8.3968 2.2528-69.4272 4.3008-71.2704 2.4576z" fill="#FB9FC2" p-id="44939"></path></svg>