<?xml version="1.0" standalone="no"?><!DOCTYPE svg PUBLIC "-//W3C//DTD SVG 1.1//EN" "http://www.w3.org/Graphics/SVG/1.1/DTD/svg11.dtd"><svg t="1633786840600" class="icon" viewBox="0 0 1024 1024" version="1.1" xmlns="http://www.w3.org/2000/svg" p-id="44786" xmlns:xlink="http://www.w3.org/1999/xlink" width="300" height="300"><defs><style type="text/css"></style></defs><path d="M256 85.333333c-46.933333 0-85.333333 38.4-85.333333 85.333334v682.666666c0 46.933333 38.4 85.333333 85.333333 85.333334h512c46.933333 0 85.333333-38.4 85.333333-85.333334V337.066667L601.6 85.333333H256z" fill="#FEB800" p-id="44787"></path><path d="M686.933333 337.066667H853.333333L601.6 85.333333v166.4c0 46.933333 38.4 85.333333 85.333333 85.333334z" fill="#FFFFFF" opacity=".4" p-id="44788"></path><path d="M490.666667 503.466667l-149.333334 42.666666c-8.533333 4.266667-17.066667 12.8-17.066666 21.333334v166.4c-4.266667-4.266667-12.8-4.266667-21.333334-4.266667-25.6 0-42.666667 12.8-42.666666 25.6s17.066667 25.6 42.666666 25.6 42.666667-12.8 42.666667-25.6v-123.733333l149.333333-38.4v76.8c-4.266667-4.266667-12.8-4.266667-21.333333-4.266667-25.6 0-42.666667 12.8-42.666667 25.6s17.066667 25.6 42.666667 25.6 42.666667-12.8 42.666667-25.6v-166.4c4.266667-12.8-12.8-25.6-25.6-21.333333z" fill="#FFFFFF" p-id="44789"></path></svg>