<?xml version="1.0" standalone="no"?><!DOCTYPE svg PUBLIC "-//W3C//DTD SVG 1.1//EN" "http://www.w3.org/Graphics/SVG/1.1/DTD/svg11.dtd"><svg t="1633786809835" class="icon" viewBox="0 0 1821 1024" version="1.1" xmlns="http://www.w3.org/2000/svg" p-id="42783" xmlns:xlink="http://www.w3.org/1999/xlink" width="533.49609375" height="300"><defs><style type="text/css"></style></defs><path d="M1461.32352719 286.83557034c-62.11740797-49.98440357-152.32171395-43.16936369-206.08232075 13.94290007-2.30147173 2.41319424-4.49122263 4.91576548-6.63628416 7.50771542l-39.37081665 51.97305326-100.86258224 126.04471164-70.71999802 85.75777269-52.15180894 63.21228257-5.2732752 6.39049532-20.6238736 24.98102987-2.77070395 3.35165868c-9.71981015 11.79783853-21.0707603 22.1656366-33.89644193 30.47775008a192.01875929 192.01875929 0 0 1-43.95141797 21.09310415c-18.74694474 6.2117413-38.74517425 9.60808766-59.54780186 9.71981014-106.02413659 0.58095474-193.27898294-85.69073952-193.83759385-191.71487609-0.55860923-106.9402555 85.93652838-193.7929045 192.74271925-193.79290451 42.09683295 0 81.02076289 13.49601172 112.70510842 36.37666937 1.60879617 1.31831964 3.28462551 2.54726059 4.98279865 3.73151387 0.02234382 0.02234382 0.02234382 0.04468934 0.06703318 0.04468766 12.95974631 8.96010141 28.6455089 14.21103276 45.56021414 14.3227553h0.49157604c44.84519306 0 81.1995169-36.35432384 81.19951858-81.1995169 0-30.03086171-16.28906115-56.24083253-40.51038228-70.27311131-58.72105995-42.00745593-130.80406527-66.49690807-208.62957966-65.84892016-197.50207287 1.63114-354.49376513 162.97998852-350.94100693 360.45971754 3.46338119 192.49693037 160.5891398 347.47762743 353.9128104 347.47762744 88.37206645 0 169.16938599-32.39936662 231.19741526-85.91418457 1.69817316-1.74286252 3.37400252-3.48572502 5.07217738-5.25093136l0.02234381 0.02234383 0.49157773-0.58095305 82.07094815-99.52191876L1466.46273602 290.96928323l-5.13920883-4.13371289z" fill="#d4237a" p-id="42784"></path><path d="M757.58460896 603.53064613a93.93581985 93.8687867 44.999 1 0 132.74819487-132.75282854 93.93581985 93.8687867 44.999 1 0-132.74819487 132.75282854Z" fill="#d4237a" p-id="42785"></path><path d="M1303.32633733 223.46687757c19.64071981 2.48022742 36.17556985-14.05462259 33.69534075-33.69534241-1.67582932-13.38429086-12.49051409-24.19897562-25.87480496-25.87480498-19.64071981-2.48022742-36.17556985 14.05462259-33.69534075 33.69534243 1.67582932 13.38429086 12.49051409 24.19897562 25.87480496 25.87480496zM1395.11709564 193.86055872c19.66306368 2.48022742 36.19791367-14.05462259 33.71768625-33.71768624-1.69817316-13.40663469-12.51285962-24.22131943-25.89714878-25.8971488-19.66306368-2.48022742-36.19791367 14.05462259-33.71768625 33.71768626 1.69817316 13.40663469 12.51285962 24.22131943 25.89714878 25.89714878z" fill="#d4237a" p-id="42786"></path></svg>