<?xml version="1.0" standalone="no"?><!DOCTYPE svg PUBLIC "-//W3C//DTD SVG 1.1//EN" "http://www.w3.org/Graphics/SVG/1.1/DTD/svg11.dtd"><svg t="1633786762659" class="icon" viewBox="0 0 1024 1024" version="1.1" xmlns="http://www.w3.org/2000/svg" p-id="39314" xmlns:xlink="http://www.w3.org/1999/xlink" width="300" height="300"><defs><style type="text/css"></style></defs><path d="M676.266196 679.504081l-171.683212-93.371571 0.903596-472.88183 171.607912 93.371572-0.828296 472.881829z" fill="#FFAFD0" p-id="39315"></path><path d="M677.094492 206.622252l-171.607912-93.371572 0.0753-29.818663 171.607912 93.371571-0.0753 29.818664z" fill="#FFAFD0" p-id="39316"></path><path d="M677.169792 176.803588l-171.607912-93.371571 0.075299-44.652695 171.607913 93.371571-0.0753 44.652695z" fill="#FFAFD0" p-id="39317"></path><path d="M677.245092 132.150893L505.637179 38.779322 781.535113 0l171.683212 93.371571-275.973233 38.779322z" fill="#FFCFE3" p-id="39318"></path><path d="M320.776528 994.331936l-171.607913-93.371571C100.901537 874.605486 70.781675 832.36238 70.781675 780.857416a142.466946 142.466946 0 0 1 9.035959-49.020075l171.683212 93.371571a144.349437 144.349437 0 0 0-9.111259 49.020075c0 51.504964 30.119862 93.74807 78.386941 120.479447" fill="#FFB1D0" p-id="39319"></path><path d="M251.500846 825.208912L79.817634 731.837341a173.189205 173.189205 0 0 1 10.240753-22.589896l171.607912 93.371571a173.189205 173.189205 0 0 0-10.165453 22.589896" fill="#FFB4D2" p-id="39320"></path><path d="M261.666299 802.543716L90.058387 709.172145a209.10714 209.10714 0 0 1 12.575042-20.330907L274.090742 782.21281a192.390617 192.390617 0 0 0-12.575042 20.330906" fill="#FFB7D4" p-id="39321"></path><path d="M274.090742 782.21281L102.633429 688.841238a231.320538 231.320538 0 0 1 15.963527-20.180307l171.683212 93.296272a245.250974 245.250974 0 0 0-16.189426 20.255607" fill="#FFBBD6" p-id="39322"></path><path d="M290.280168 761.957203L118.596956 668.660931a264.904184 264.904184 0 0 1 21.535701-21.611001L311.740569 740.421502a263.021693 263.021693 0 0 0-21.460401 21.535701" fill="#FFBED8" p-id="39323"></path><path d="M311.740569 740.421502L140.132657 647.04993a287.719979 287.719979 0 0 1 30.119862-24.02059L341.860431 716.400912a295.626443 295.626443 0 0 0-30.119862 24.02059" fill="#FFC1DA" p-id="39324"></path><path d="M342.236929 716.400912l-171.607912-93.371572A340.730936 340.730936 0 0 1 220.176189 594.86727l171.607913 93.371571a344.721818 344.721818 0 0 0-49.547173 28.38797" fill="#FFC4DC" p-id="39325"></path><path d="M391.784102 688.012942L220.176189 594.86727a382.597544 382.597544 0 0 1 109.1092-32.378852 327.026399 327.026399 0 0 1 126.879917 5.647474L627.999118 661.281565a327.026399 327.026399 0 0 0-126.879918-5.647474 383.35054 383.35054 0 0 0-109.109199 32.378851" fill="#FFC8DE" p-id="39326"></path><path d="M627.999118 661.281565l-171.833812-93.371572a236.968012 236.968012 0 0 1 45.179793 16.565924L673.17891 677.696889a242.916685 242.916685 0 0 0-45.179792-16.490624" fill="#FFC4DC" p-id="39327"></path><path d="M673.17891 677.696889L501.1192 584.475917c1.204794 0.527098 2.334289 1.129495 3.463784 1.731892l171.683212 93.296272c-1.204794-0.527098-2.334289-1.129495-3.463784-1.731892" fill="#FFC1DA" p-id="39328"></path><path d="M953.218325 93.371571v74.471359l-193.143614 27.107875-1.280094 603.225531v3.764983c0 100.750938-115.961468 198.640488-258.579013 218.368998s-257.976616-45.179793-257.826017-146.156629 115.961468-198.565189 258.503714-218.368998c67.769689-9.563056 129.364806 0 175.372895 23.86999l0.828296-472.881829v-74.621958z" fill="#FFEAF3" p-id="39329"></path></svg>