<?xml version="1.0" standalone="no"?><!DOCTYPE svg PUBLIC "-//W3C//DTD SVG 1.1//EN" "http://www.w3.org/Graphics/SVG/1.1/DTD/svg11.dtd"><svg t="1633786758591" class="icon" viewBox="0 0 1024 1024" version="1.1" xmlns="http://www.w3.org/2000/svg" p-id="39163" xmlns:xlink="http://www.w3.org/1999/xlink" width="300" height="300"><defs><style type="text/css"></style></defs><path d="M384 284.8v147.2l416-16V256z" fill="#F8563E" p-id="39164"></path><path d="M720 688m-80 0a80 80 0 1 0 160 0 80 80 0 1 0-160 0Z" fill="#654B55" p-id="39165"></path><path d="M304 720m-80 0a80 80 0 1 0 160 0 80 80 0 1 0-160 0Z" fill="#654B55" p-id="39166"></path><path d="M512 0C230.4 0 0 230.4 0 512s230.4 512 512 512 512-230.4 512-512S793.6 0 512 0z m0 976C256 976 48 768 48 512S256 48 512 48 976 256 976 512 768 976 512 976z" fill="#EAD9A6" p-id="39167"></path><path d="M800 233.6l-416 25.6c-12.8 0-22.4 12.8-22.4 22.4v348.8c-16-9.6-35.2-16-57.6-16-57.6 0-102.4 48-102.4 102.4s48 102.4 102.4 102.4 102.4-48 102.4-102.4v-9.6-240l368-28.8v160c-16-9.6-35.2-16-57.6-16-57.6 0-102.4 48-102.4 102.4s48 102.4 102.4 102.4 102.4-48 102.4-102.4v-6.4V256c0-6.4-3.2-12.8-6.4-16 0-6.4-6.4-9.6-12.8-6.4zM304 774.4c-32 0-57.6-25.6-57.6-57.6s25.6-57.6 57.6-57.6 57.6 25.6 57.6 57.6-25.6 57.6-57.6 57.6z m105.6-352V307.2l368-25.6v112l-368 28.8z m310.4 320c-32 0-57.6-25.6-57.6-57.6s25.6-57.6 57.6-57.6 57.6 25.6 57.6 57.6-25.6 57.6-57.6 57.6z" fill="#EAD9A6" p-id="39168"></path></svg>