<?xml version="1.0" standalone="no"?><!DOCTYPE svg PUBLIC "-//W3C//DTD SVG 1.1//EN" "http://www.w3.org/Graphics/SVG/1.1/DTD/svg11.dtd"><svg t="1633786703069" class="icon" viewBox="0 0 1024 1024" version="1.1" xmlns="http://www.w3.org/2000/svg" p-id="33414" xmlns:xlink="http://www.w3.org/1999/xlink" width="300" height="300"><defs><style type="text/css"></style></defs><path d="M760.6272 193.7664a98.816 98.816 0 0 1 34.4832 69.888l0.1792 5.8624-0.0256 29.2096-62.8992 9.7536v-38.9632c0-8.2176-2.56-15.9744-7.168-22.144l-2.4832-2.9696-2.816-2.6624a29.696 29.696 0 0 0-20.992-7.296l-3.2512 0.384-289.1776 47.9488c-14.6432 2.4576-25.6512 15.232-27.0592 31.232l-0.1536 3.456v117.6576l359.3472-57.472a32 32 0 0 1 2.048-0.256l54.6048-8.448v290.56l-0.1024 1.28c-0.0512 0.2304-0.128 0.2304-0.256-0.1792 0.9984 5.4784 1.4848 10.9056 1.4848 16.384 0 59.4944-55.8848 107.3664-124.0832 107.3664-68.1984 0-124.0832-47.872-124.0832-107.392s55.8848-107.392 124.0832-107.392c18.2272 0 35.8912 3.4304 51.9936 9.9072l6.8096 2.944 1.2544 0.64V442.368l-353.1008 56.4736v246.2464c0 59.52-55.9104 107.392-124.0832 107.392-68.1984 0-124.0832-47.872-124.0832-107.392s55.8848-107.392 124.0832-107.392c18.9952 0 37.376 3.712 54.016 10.7008l7.1168 3.2512V317.4656c0-44.8768 28.928-83.2256 70.1184-94.592l4.7872-1.2032 4.9152-0.9472L685.312 172.7488a92.8512 92.8512 0 0 1 75.3152 20.992zM255.1808 700.5952c-34.0992 0-61.1584 20.48-61.1584 44.4416 0 23.9872 27.0592 44.4672 61.1584 44.4672 34.0992 0 61.1328-20.48 61.1328-44.4672 0-23.9616-27.0336-44.4416-61.1328-44.4416z m417.0752-68.096c-34.0736 0-61.1328 20.5056-61.1328 44.4672s27.0592 44.4672 61.1328 44.4672c34.1504 0 61.184-20.48 61.1584-44.4672 0-23.9616-27.0592-44.4416-61.1584-44.4416z" fill="#FB553C" p-id="33415"></path></svg>