<?xml version="1.0" standalone="no"?><!DOCTYPE svg PUBLIC "-//W3C//DTD SVG 1.1//EN" "http://www.w3.org/Graphics/SVG/1.1/DTD/svg11.dtd"><svg t="1633786687361" class="icon" viewBox="0 0 1024 1024" version="1.1" xmlns="http://www.w3.org/2000/svg" p-id="32980" xmlns:xlink="http://www.w3.org/1999/xlink" width="300" height="300"><defs><style type="text/css"></style></defs><path d="M643.7888 331.18208c0 27.48416 0.38912 54.96832-0.06144 82.432-2.08896 124.39552-0.24576 248.79104-0.98304 373.16608-0.08192 12.9024 0.512 25.96864-5.03808 38.21568a13.86496 13.86496 0 0 0-0.9216 5.44768 31.31392 31.31392 0 0 1-4.52608 15.19616c-3.072 5.48864-5.16096 11.63264-7.68 17.5104-4.32128 10.05568-11.34592 18.20672-17.42848 27.01312-9.23648 13.37344-21.93408 23.28576-34.5088 33.05472-8.3968 6.53312-18.1248 11.38688-27.56608 16.46592a135.22944 135.22944 0 0 1-20.60288 9.216c-17.14176 5.87776-34.07872 12.51328-52.16256 14.9504a143.93344 143.93344 0 0 1-20.13184 1.37216c-20.04992-0.12288-40.09984 1.06496-60.12928-0.83968a90.07104 90.07104 0 0 1-28.75392-7.10656c-9.0112-4.03456-18.65728-6.57408-27.7504-10.62912a132.64896 132.64896 0 0 1-14.17216-7.68c-20.09088-12.02176-39.58784-24.9856-54.3744-43.56096-6.9632-8.74496-13.84448-17.5104-19.74272-27.2384-8.92928-14.70464-14.00832-30.69952-17.22368-46.91968-2.99008-15.13472-3.25632-31.17056 2.53952-46.34624 0.36864-0.94208 0.75776-1.88416 0.96256-2.8672 3.46112-16.384 12.288-30.02368 22.26176-42.98752a213.2992 213.2992 0 0 1 34.304-34.73408c12.92288-10.5472 26.76736-19.94752 41.7792-27.0336 7.41376-3.50208 15.11424-7.04512 23.36768-9.15456 13.14816-3.33824 26.46016-6.20544 39.19872-11.03872 6.16448-2.33472 12.71808-1.65888 19.02592-1.98656 12.10368-0.63488 24.04352-3.33824 36.2496-2.47808 16.26112 1.16736 32.80896 0.7168 48.68096 4.25984 14.0288 3.13344 28.28288 5.8368 41.82016 11.0592 7.72096 2.99008 9.33888 1.37216 8.0896-6.94272a56.6272 56.6272 0 0 1-0.57344-8.54016c-0.02048-153.23136-0.28672-306.4832 0.22528-459.71456 0.08192-24.90368-0.28672-49.88928 0.98304-74.77248 1.29024-25.37472 12.32896-45.79328 34.83648-59.10528 14.49984-8.58112 29.85984-10.5472 46.1824-6.81984 6.9632 1.57696 11.6736 6.656 16.93696 10.6496 5.18144 3.93216 9.78944 8.84736 13.88544 13.94688 7.33184 9.17504 14.47936 18.55488 20.992 28.32384 8.33536 12.47232 17.44896 24.33024 27.11552 35.71712 10.89536 12.84096 22.65088 24.7808 35.79904 35.45088 13.84448 11.22304 28.3648 21.46304 42.82368 31.78496 4.62848 3.29728 9.99424 5.50912 14.80704 8.58112 11.63264 7.3728 24.63744 11.89888 37.02784 17.65376 7.55712 3.50208 15.50336 6.38976 22.95808 10.1376 16.7936 8.43776 33.5872 16.97792 47.73888 29.71648 14.27456 12.84096 27.9552 26.33728 38.8096 42.1888 12.36992 18.06336 21.97504 37.45792 21.62688 60.23168-0.16384 11.10016 1.35168 22.36416-1.06496 33.28-4.3008 19.33312-12.0832 37.08928-25.88672 51.712-4.64896 4.9152-13.74208 5.48864-18.96448 0.8192-3.33824-2.99008-7.04512-6.41024-8.6016-10.42432-3.70688-9.46176-8.35584-18.61632-8.43776-29.3888-0.08192-12.20608-3.72736-24.22784-8.2944-35.26656a61.99296 61.99296 0 0 0-28.672-31.92832 132.01408 132.01408 0 0 0-23.47008-10.0352c-11.30496-3.42016-22.75328-6.94272-34.44736-9.07264-4.34176-0.77824-8.58112-1.4336-12.5952-3.39968-7.9872-3.8912-16.95744-5.28384-24.6784-9.97376-9.50272-5.79584-19.5584-10.50624-28.54912-17.38752-12.45184-9.5232-24.12544-19.88608-36.08576-29.96224a231.71072 231.71072 0 0 1-18.45248-17.98144 140.92288 140.92288 0 0 0-25.35424-20.66432 14.58176 14.58176 0 0 0-15.01184-0.83968 15.58528 15.58528 0 0 0-8.21248 14.17216c0.12288 30.4128 0.08192 60.74368 0.08192 91.09504zM34.83648 438.45632c-0.59392-13.312 4.46464-25.00608 9.8304-36.74112 4.03456-8.82688 7.65952-17.85856 10.73152-27.05408 2.33472-7.00416 6.41024-12.98432 9.78944-19.33312 4.32128-8.15104 8.3968-16.44544 13.27104-24.33024 4.05504-6.5536 6.69696-13.94688 10.87488-20.50048 19.47648-30.5152 39.97696-60.29312 63.54944-87.8592 4.7104-5.50912 9.48224-10.89536 14.72512-15.89248 7.31136-6.98368 14.35648-14.2336 21.07392-21.8112 9.4208-10.62912 21.6064-18.16576 32.0512-27.68896a335.89248 335.89248 0 0 1 39.56736-30.39232c6.92224-4.62848 13.16864-10.38336 21.11488-13.6192 4.096-1.65888 7.43424-5.09952 11.12064-7.65952 8.192-5.67296 17.28512-9.728 25.9072-14.49984 7.4752-4.13696 14.45888-9.64608 23.32672-11.53024 5.87776-1.24928 10.05568-6.49216 15.62624-9.03168 10.99776-5.0176 23.63392-2.10944 30.49472 7.90528 3.76832 5.48864 8.2944 10.4448 9.5232 17.57184 3.072 17.77664-4.79232 27.15648-20.0704 35.34848-8.84736 4.73088-18.06336 8.8064-26.4192 14.47936-0.96256 0.65536-1.92512 1.41312-3.01056 1.8432-15.62624 6.3488-29.57312 15.54432-43.6224 24.76032a556.27776 556.27776 0 0 0-72.35584 57.07776 402.61632 402.61632 0 0 0-46.24384 50.5856c-7.45472 9.70752-15.91296 18.69824-22.95808 28.7744-4.15744 5.9392-8.00768 12.04224-11.3664 18.47296-2.3552 4.5056-5.95968 8.17152-8.58112 12.47232a654.1312 654.1312 0 0 0-24.55552 44.58496c-6.12352 12.00128-10.56768 24.6784-15.91296 36.98688-5.28384 12.14464-10.24 24.49408-17.03936 35.90144-4.75136 7.96672-13.312 10.9568-21.38112 14.2336a5.28384 5.28384 0 0 1-3.95264-0.22528c-7.08608-3.74784-15.11424-6.02112-20.41856-12.57472-4.79232-6.00064-4.21888-13.29152-4.68992-20.25472z" fill="#00BCF4" p-id="32981"></path><path d="M153.84576 508.2112c-16.15872 1.41312-33.23904-18.55488-27.97568-36.53632 3.82976-13.1072 8.82688-25.62048 14.35648-38.03136 2.99008-6.71744 5.44768-13.6192 8.8064-20.2752 7.5776-15.03232 16.2816-29.40928 24.20736-44.21632 8.192-15.29856 18.18624-29.55264 28.32384-43.45856 8.74496-12.00128 18.90304-23.18336 28.48768-34.69312 10.60864-12.71808 23.40864-23.20384 34.816-35.1232 10.26048-10.73152 22.9376-19.16928 34.7136-28.42624 6.98368-5.50912 13.86496-11.3664 21.52448-15.7696 10.89536-6.26688 20.8896-13.9264 32.09216-19.68128 9.216-4.73088 18.35008-9.64608 27.25888-14.99136 6.30784-3.76832 12.98432-7.22944 19.90656-9.56416 8.82688-2.9696 17.32608-1.57696 24.1664 5.57056 8.82688 9.216 15.5648 19.0464 11.93984 32.91136-1.14688 4.36224-2.56 8.43776-5.632 11.6736a72.41728 72.41728 0 0 1-19.8656 15.29856c-22.528 11.22304-44.89216 22.7328-65.24928 37.64224-12.5952 9.23648-24.49408 19.43552-37.02784 28.75392-12.55424 9.29792-21.8112 21.85216-32.93184 32.54272-6.90176 6.63552-12.30848 15.1552-18.80064 22.28224-9.29792 10.19904-15.36 22.4256-23.69536 33.15712-7.04512 9.05216-12.0832 19.43552-17.73568 29.3888a388.15744 388.15744 0 0 0-21.54496 43.84768c-3.25632 7.92576-6.41024 15.89248-9.728 23.79776-3.56352 8.51968-9.23648 15.27808-16.05632 21.0944-3.60448 3.09248-8.56064 2.51904-14.35648 2.80576zM474.78784 295.89504c0.96256 14.80704-6.53312 23.73632-16.85504 30.78144-9.1136 6.22592-19.02592 11.18208-28.54912 16.71168-10.1376 5.89824-20.60288 11.24352-30.24896 17.96096-5.36576 3.72736-10.6496 7.70048-15.52384 12.06272-12.30848 10.97728-24.6784 21.93408-36.41344 33.50528-7.65952 7.55712-13.04576 17.08032-19.39456 25.78432-7.22944 9.9328-15.07328 19.456-21.66784 29.77792-4.85376 7.5776-8.0896 16.1792-12.14464 24.2688-4.5056 8.99072-8.4992 18.20672-12.94336 27.2384-3.39968 6.92224-6.71744 13.90592-10.05568 20.84864-9.13408 18.96448-38.72768 18.28864-48.68096 0.2048-6.2464-11.38688-7.43424-21.31968-2.08896-33.42336 3.82976-8.66304 7.8848-17.38752 10.81344-26.56256 2.1504-6.77888 6.0416-13.12768 9.44128-19.41504 9.25696-17.12128 18.7392-34.2016 29.75744-50.29888 6.49216-9.46176 13.78304-18.26816 21.2992-26.91072 4.97664-5.71392 8.66304-12.43136 14.17216-17.73568 3.3792-3.2768 6.26688-7.10656 9.85088-10.11712 4.77184-4.01408 9.37984-8.06912 13.6192-12.6976 7.29088-7.9872 16.73216-13.49632 24.80128-20.62336 10.89536-9.64608 23.4496-16.7936 35.57376-24.6784 10.36288-6.73792 21.2992-12.0832 32.33792-17.42848 5.36576-2.60096 10.07616-6.32832 15.95392-8.2944 10.01472-3.35872 18.71872-0.32768 25.92768 5.59104 7.29088 6.00064 13.06624 13.88544 11.01824 23.4496z" fill="#00BCF4" p-id="32982"></path></svg>