<?xml version="1.0" standalone="no"?><!DOCTYPE svg PUBLIC "-//W3C//DTD SVG 1.1//EN" "http://www.w3.org/Graphics/SVG/1.1/DTD/svg11.dtd"><svg t="1633786681210" class="icon" viewBox="0 0 1024 1024" version="1.1" xmlns="http://www.w3.org/2000/svg" p-id="32835" xmlns:xlink="http://www.w3.org/1999/xlink" width="300" height="300"><defs><style type="text/css"></style></defs><path d="M418.903695 399.638933c-18.721387 0-33.698496-13.016455-37.442774-31.601742-1.86958-20.452821 11.232832-39.043225 31.828916-40.905642l374.425692-50.192146c20.589944-1.856277 39.311331 11.154038 41.187051 31.601742 1.86958 20.452821-11.232832 39.043225-31.828916 40.899502l-374.425691 50.198286h-3.744278z" fill="#E1E1E1" p-id="32836"></path><path d="M791.609209 270.812869c-1.467421 0-2.965541 0.071631-4.439102 0.202615l-374.682542 50.221821c-22.87294 2.058892-39.23356 22.862707-36.993542 47.337122 0.01842 0.207731 0.048095 0.416486 0.096191 0.630356 4.379751 21.76163 21.788236 36.384675 43.313481 36.384675h3.744278c0.26913 0 0.533143-0.017396 0.803295-0.053212l374.425691-50.198285c11.250228-1.00591 21.399379-6.633071 28.324093-15.800871 6.649444-8.798387 9.717316-19.99438 8.668426-31.530111-1.970888-21.553898-20.171412-37.19411-43.260269-37.19411m0 5.949502c19.008936 0 35.537378 12.629645 37.292348 31.779797 1.86958 20.452821-11.232832 39.043225-31.828916 40.899503l-374.425692 50.198285h-3.744277c-18.721387 0-33.698496-13.016455-37.442774-31.606858-1.86958-20.446681 11.232832-39.038108 31.828916-40.899503l374.426715-50.193169a42.931788 42.931788 0 0 1 3.89368-0.178055" fill="#E1E1E1" p-id="32837"></path><path d="M922.260851 115.572202c0.401136 0.226151 0.814552 0.452301 1.215688 0.689708-0.401136-0.23843-0.814552-0.463558-1.215688-0.689708m-3.372817-1.684362c0.407276 0.178055 0.808412 0.37453 1.221828 0.571005-0.413416-0.195451-0.814552-0.391926-1.221828-0.571005m-3.403517-1.302669c0.347924 0.107447 0.688685 0.249687 1.03661 0.37453-0.346901-0.124843-0.688685-0.267083-1.03661-0.37453m-8.200775-1.493003c0.394996 0.017396 0.808412 0.023536 1.204431 0.059351-0.396019-0.035816-0.803295-0.041956-1.204431-0.059351m18.439977 6.591115c0.346901 0.232291 0.688685 0.446162 1.03047 0.684592-0.341784-0.23843-0.683569-0.452301-1.03047-0.684592m-25.682939-6.198166c1.731434-0.285502 3.396353-0.399089 5.050016-0.428765-1.653663 0.029676-3.318582 0.137123-5.050016 0.428765M212.973556 703.041034c68.954465 0 125.058251 47.371914 125.05825 105.59599s-56.103786 105.59599-125.05825 105.59599c-68.960605 0-125.058251-47.371914-125.058251-105.59599s56.097646-105.59599 125.058251-105.59599m687.528735-666.156985c0.707105 0 1.414209 0.077771 2.115174 0.089027-3.349281-0.053212-6.703679-0.053212-10.064216 0.143263 2.647293-0.149403 5.306866-0.232291 7.949042-0.23229m70.948889 21.256116a116.490108 116.490108 0 0 1 9.094122 6.865361c-2.929726-2.457981-5.973038-4.729721-9.094122-6.865361m-9.66308-5.90243c2.210341 1.207501 4.337795 2.558265 6.470365 3.914146-2.133593-1.355881-4.266164-2.705622-6.470365-3.914146m-10.160408-4.948709c2.096754 0.909719 4.139274 1.927909 6.182816 2.951215-2.043542-1.02433-4.086062-2.047636-6.182816-2.951215m-10.567683-3.974521c2.078335 0.678452 4.128017 1.452071 6.170537 2.236947-2.043542-0.784876-4.092201-1.558495-6.170537-2.236947M812.053843 628.678396c68.954465 0 125.058251 47.371914 125.058251 105.59599s-56.103786 105.59599-125.058251 105.59599c-68.960605 0-125.058251-47.371914-125.05825-105.59599s56.097646-105.59599 125.05825-105.59599m172.355463-568.212256c-22.657023-19.042705-52.455699-29.531594-83.907015-29.531594-2.755764 0-5.547343 0.082888-8.303106 0.243547a4.181229 4.181229 0 0 0-0.38988 0.035816L442.49909 86.986143c-59.578933 7.888667-104.467283 58.378595-104.467284 117.452016v449.433012c-35.082006-23.296589-78.317717-37.092803-125.05825-37.092803-116.856451 0-211.924667 86.065168-211.924667 191.856609s95.068216 191.856609 211.924667 191.85661c116.850311 0 211.924667-86.065168 211.924667-191.85661 0-8.512884-0.682545-16.877389-1.874697-25.098631V204.439182c0-15.693424 12.694113-29.715789 28.306696-31.262004l449.454502-55.790654c1.821485-0.297782 3.378957-0.428765 4.882194-0.428765 6.77531 0 13.317307 2.689249 20.584827 8.465812 7.404644 5.884011 10.861372 13.266142 10.861372 23.237237v430.848749c-35.082006-23.296589-78.317717-37.092803-125.05825-37.092804-116.856451 0-211.924667 86.065168-211.924667 191.85661s95.068216 191.856609 211.924667 191.856609c116.850311 0 211.924667-86.065168 211.924667-191.856609V148.660808c-0.001023-34.409694-14.792914-67.379597-39.570228-88.194668" fill="#208BFF" p-id="32838"></path></svg>