<?xml version="1.0" standalone="no"?><!DOCTYPE svg PUBLIC "-//W3C//DTD SVG 1.1//EN" "http://www.w3.org/Graphics/SVG/1.1/DTD/svg11.dtd"><svg t="1633786676516" class="icon" viewBox="0 0 1024 1024" version="1.1" xmlns="http://www.w3.org/2000/svg" p-id="32688" xmlns:xlink="http://www.w3.org/1999/xlink" width="300" height="300"><defs><style type="text/css"></style></defs><path d="M185.015 827.705a128.097 128.097 0 1 0 256.194 0 128.097 128.097 0 1 0-256.194 0z" fill="#13F3B6" p-id="32689"></path><path d="M474.4 851.561a34.488 34.488 0 0 1-34.487-34.487V209a34.228 34.228 0 0 1 20.744-31.376L859.211 2.852a34.747 34.747 0 0 1 48.49 31.636v152.99a34.488 34.488 0 0 1-20.226 31.376L512.26 388.96l-3.37 1.297v426.818A34.747 34.747 0 0 1 474.4 851.56z m34.488-620v83.496l329.838-149.62V87.645z" fill="#474765" p-id="32690"></path><path d="M312.594 1024a196.295 196.295 0 1 1 196.294-196.295A196.554 196.554 0 0 1 312.594 1024z m0-323.873a127.32 127.32 0 1 0 127.319 127.06 127.32 127.32 0 0 0-127.32-127.06z" fill="#474765" p-id="32691"></path></svg>