<?xml version="1.0" standalone="no"?><!DOCTYPE svg PUBLIC "-//W3C//DTD SVG 1.1//EN" "http://www.w3.org/Graphics/SVG/1.1/DTD/svg11.dtd"><svg t="1633786673127" class="icon" viewBox="0 0 1210 1024" version="1.1" xmlns="http://www.w3.org/2000/svg" p-id="32543" xmlns:xlink="http://www.w3.org/1999/xlink" width="354.4921875" height="300"><defs><style type="text/css"></style></defs><path d="M482.070558 439.680641a100.777303 100.777303 0 0 0-51.1244 13.702473 98.927807 98.927807 0 0 0-37.421927 37.421927 97.19981 97.19981 0 0 0-13.702473 51.124401c0 27.742446 10.27348 51.947899 30.455941 72.143859s44.549913 30.455941 72.967357 30.45594 52.433898-10.27348 72.143859-30.45594 29.632442-44.401413 29.632442-72.386859-9.922481-51.947899-29.632442-72.130359c-20.24996-19.831461-44.549913-29.875442-73.318357-29.875442z m0 0" fill="#D22780" p-id="32544"></path><path d="M698.245636 712.650108q-27.431946-102.5323 46.16991-191.200126t200.474609-114.749776q-44.995412-151.388704-172.502664-248.021516T481.706059 61.991879a458.013605 458.013605 0 0 0-78.029847 6.493487 491.142541 491.142541 0 0 0-74.155356 17.941465 429.299162 429.299162 0 0 0-68.471866 28.808944 531.750461 531.750461 0 0 0-63.449876 38.852924 403.919211 403.919211 0 0 0-56.20039 48.397406 534.004957 534.004957 0 0 0-87.25033 118.894267 410.601698 410.601698 0 0 0-29.699942 68.471867 570.036387 570.036387 0 0 0-17.941465 74.398354 476.04957 476.04957 0 0 0 18.049465 229.283552 457.541106 457.541106 0 0 0 69.308865 132.826241 508.625007 508.625007 0 0 0 103.787797 103.180298 477.642567 477.642567 0 0 0 132.826241 68.458367A471.25708 471.25708 0 0 0 481.949059 1022.555503q109.606286 0 204.970099-45.575911t162.809682-124.321257q-122.552761-36.314929-151.483204-140.035227z m-51.1244-75.599852a184.706639 184.706639 0 0 1-69.295365 68.485366c-29.402943 16.915467-61.33038 25.163951-95.876812 25.163951-51.947899 0-96.335812-18.292464-133.42024-55.349892q-55.241892-55.255392-55.349892-133.420239a187.190634 187.190634 0 0 1 25.136951-95.282814 184.612139 184.612139 0 0 1 69.308865-68.471867 187.379634 187.379634 0 0 1 94.499815-25.150451q79.514845 0 134.824237 55.349892t55.349892 133.40674c0 34.600432-8.383484 66.47387-25.150451 95.282814z" fill="#D22780" p-id="32545"></path><path d="M982.244582 132.353741l226.880556 86.696831a653.290724 653.290724 0 0 0-43.280915-74.182355c-15.36297-22.558456-31.049939-41.08042-47.006908-55.349892a427.031166 427.031166 0 0 0-48.437906-38.272425c-16.294468-10.799979-31.994938-19.358962-47.587407-25.150451q-23.030955-8.693983-43.915414-14.525972a176.242156 176.242156 0 0 0-38.258925-6.493487c-11.447978-0.593999-21.721458-0.823498-30.455941-0.823498s-15.34947 0.350999-20.24996 1.417497h-7.195486L807.527923 1.187998q63.449876 81.99884 109.565786 155.722196c30.82044 49.126404 54.188894 90.922322 70.712862 125.549754 16.294468 34.708432 29.699942 65.636872 39.676422 93.149818s15.943469 50.773401 17.941465 69.902864 2.605495 33.884934 2.254496 43.915414a104.219796 104.219796 0 0 1-3.658493 25.150451q-57.752887-28.687444-128.344249-10.03048c-44.401413 12.514476-78.637346 36.00443-103.193799 70.712861s-31.873438 69.902863-22.315456 105.434795 33.412435 61.870379 71.54986 78.637346c37.907926 16.766967 79.231345 19.007963 123.376259 6.493487a210.383589 210.383589 0 0 0 60.749881-29.699942 174.14966 174.14966 0 0 0 43.915415-43.928914 143.653219 143.653219 0 0 0 22.315456-53.297896q76.504351-116.693772-78.043348-414.057691z m0 0" fill="#F8B500" p-id="32546"></path></svg>