<?xml version="1.0" standalone="no"?><!DOCTYPE svg PUBLIC "-//W3C//DTD SVG 1.1//EN" "http://www.w3.org/Graphics/SVG/1.1/DTD/svg11.dtd"><svg t="1633786654211" class="icon" viewBox="0 0 1024 1024" version="1.1" xmlns="http://www.w3.org/2000/svg" p-id="30913" xmlns:xlink="http://www.w3.org/1999/xlink" width="300" height="300"><defs><style type="text/css"></style></defs><path d="M512 51.2c253.952 0 460.8 206.848 460.8 460.8s-206.848 460.8-460.8 460.8-460.8-206.848-460.8-460.8 206.848-460.8 460.8-460.8m0-51.2C229.376 0 0 229.376 0 512s229.376 512 512 512 512-229.376 512-512S794.624 0 512 0z" fill="#0079F5" p-id="30914"></path><path d="M512 343.04c93.184 0 168.96 75.776 168.96 168.96s-75.776 168.96-168.96 168.96-168.96-75.776-168.96-168.96 75.776-168.96 168.96-168.96m0-51.2c-121.344 0-220.16 98.816-220.16 220.16s98.816 220.16 220.16 220.16 220.16-98.816 220.16-220.16-98.816-220.16-220.16-220.16z" fill="#f4ea2a" p-id="30915"></path><path d="M512 512m-81.92 0a81.92 81.92 0 1 0 163.84 0 81.92 81.92 0 1 0-163.84 0Z" fill="#ffffff" p-id="30916"></path></svg>