<?xml version="1.0" standalone="no"?><!DOCTYPE svg PUBLIC "-//W3C//DTD SVG 1.1//EN" "http://www.w3.org/Graphics/SVG/1.1/DTD/svg11.dtd"><svg t="1633786650004" class="icon" viewBox="0 0 1024 1024" version="1.1" xmlns="http://www.w3.org/2000/svg" p-id="30770" xmlns:xlink="http://www.w3.org/1999/xlink" width="300" height="300"><defs><style type="text/css"></style></defs><path d="M512 163.84c12.288 0 24.576 0 36.864 2.048 8.192 2.048 36.864-14.336 59.392-32.768 18.432-14.336 28.672-30.72 32.768-30.72 12.288 2.048-2.048 81.92 26.624 96.256C794.624 258.048 880.64 385.024 880.64 532.48c0 202.752-165.888 368.64-368.64 368.64S143.36 735.232 143.36 532.48 309.248 163.84 512 163.84z m116.736-26.624c-26.624 28.672-49.152 43.008-83.968 53.248-51.2 14.336-165.888 16.384-159.744 92.16 4.096 40.96 155.648 225.28 200.704 286.72-67.584-2.048-133.12 0-184.32 47.104-59.392 55.296-79.872 157.696-2.048 210.944 112.64 77.824 305.152-43.008 274.432-169.984-8.192-32.768-30.72-55.296-47.104-83.968-40.96-65.536-81.92-131.072-120.832-196.608-12.288-22.528-14.336-32.768-16.384-57.344 104.448-26.624 172.032-53.248 139.264-182.272z" fill="#FFC22F" p-id="30771"></path></svg>