<?xml version="1.0" standalone="no"?><!DOCTYPE svg PUBLIC "-//W3C//DTD SVG 1.1//EN" "http://www.w3.org/Graphics/SVG/1.1/DTD/svg11.dtd"><svg t="1633786639774" class="icon" viewBox="0 0 1024 1024" version="1.1" xmlns="http://www.w3.org/2000/svg" p-id="29958" xmlns:xlink="http://www.w3.org/1999/xlink" width="300" height="300"><defs><style type="text/css"></style></defs><path d="M512 0a512 512 0 1 0 512 512A512 512 0 0 0 512 0z m0 989.866667a477.866667 477.866667 0 1 1 477.866667-477.866667 479.232 479.232 0 0 1-477.866667 477.866667z" fill="#0B82FD" p-id="29959"></path><path d="M677.546667 256l-221.866667 68.266667h-1.706667c-18.773333 8.533333-44.373333 18.773333-44.373333 49.493333v235.52a101.205333 101.205333 0 0 0-39.253333-8.533333 96.597333 96.597333 0 0 0-30.72 5.12c-44.373333 13.653333-73.386667 54.613333-61.44 90.453333a71.168 71.168 0 0 0 71.68 44.373333 96.597333 96.597333 0 0 0 30.72-5.12 85.333333 85.333333 0 0 0 63.146666-71.68v-187.733333l256-102.4v143.36a101.205333 101.205333 0 0 0-39.253333-8.533333 96.597333 96.597333 0 0 0-30.72 5.12c-44.373333 13.653333-73.386667 54.613333-61.44 90.453333a71.168 71.168 0 0 0 71.68 44.373333 96.597333 96.597333 0 0 0 30.72-5.12 91.818667 91.818667 0 0 0 64.853333-64.853333v-273.066667a54.613333 54.613333 0 0 0-20.48-44.373333 47.104 47.104 0 0 0-37.546666-5.12z m-307.2 447.146667a85.333333 85.333333 0 0 1-20.48 3.413333 41.472 41.472 0 0 1-39.253334-20.48 26.794667 26.794667 0 0 1 5.12-23.893333 65.024 65.024 0 0 1 34.133334-23.893334 85.333333 85.333333 0 0 1 20.48-3.413333 41.472 41.472 0 0 1 39.253333 20.48v6.826667a51.2 51.2 0 0 1-39.253333 40.96zM443.733333 442.026667V375.466667c0-6.826667 3.413333-8.533333 22.186667-18.773334l220.16-68.266666c3.413333-1.706667 5.12 0 6.826667 0a20.138667 20.138667 0 0 1 6.826666 17.066666v32.426667z m216.746667 170.666666a85.333333 85.333333 0 0 1-20.48 3.413334 41.472 41.472 0 0 1-39.253333-20.48 26.794667 26.794667 0 0 1 5.12-23.893334 65.024 65.024 0 0 1 34.133333-23.893333 85.333333 85.333333 0 0 1 20.48-3.413333 41.472 41.472 0 0 1 39.253333 20.48c5.12 17.066667-13.653333 39.253333-39.253333 47.786666z" fill="#0B82FD" p-id="29960"></path></svg>