<?xml version="1.0" standalone="no"?><!DOCTYPE svg PUBLIC "-//W3C//DTD SVG 1.1//EN" "http://www.w3.org/Graphics/SVG/1.1/DTD/svg11.dtd"><svg t="1633786628214" class="icon" viewBox="0 0 1024 1024" version="1.1" xmlns="http://www.w3.org/2000/svg" p-id="29671" xmlns:xlink="http://www.w3.org/1999/xlink" width="300" height="300"><defs><style type="text/css"></style></defs><path d="M1018.88 547.84c7.68-87.04-10.24-176.64-46.08-256-89.6-194.56-304.64-312.32-517.12-286.72-158.72 17.92-327.68 115.2-396.8 266.24-87.04 194.56-74.24 432.64 79.36 593.92 140.8 145.92 366.08 194.56 555.52 125.44 181.76-66.56 307.2-245.76 325.12-435.2v-7.68z m-893.44 115.2c-2.56 0-2.56 0 0 0-48.64-56.32-43.52-89.6 5.12-140.8 12.8-15.36 28.16-28.16 30.72-48.64 2.56-15.36 17.92-23.04 35.84-23.04 17.92 2.56 28.16 10.24 30.72 28.16 2.56 23.04 5.12 43.52 7.68 66.56v2.56c0 43.52 0 87.04-5.12 130.56 0 7.68-2.56 17.92-2.56 25.6-5.12 17.92-15.36 25.6-33.28 25.6-15.36 0-30.72-7.68-33.28-23.04-5.12-20.48-20.48-30.72-35.84-43.52z m739.84-332.8c2.56 5.12 2.56 7.68 5.12 12.8 5.12 20.48 10.24 40.96-10.24 53.76-15.36 10.24-40.96 12.8-53.76 0-12.8-10.24-15.36-23.04-20.48-35.84-23.04-43.52-58.88-74.24-97.28-104.96-15.36-12.8-33.28-23.04-51.2-30.72-104.96-40.96-204.8-35.84-296.96 30.72-30.72 23.04-64 48.64-84.48 84.48-15.36 25.6-43.52 69.12-76.8 38.4-46.08-43.52 30.72-122.88 61.44-151.04 28.16-25.6 58.88-51.2 92.16-69.12 51.2-25.6 107.52-40.96 166.4-46.08 69.12-2.56 133.12 12.8 194.56 40.96 33.28 15.36 76.8 43.52 99.84 71.68 23.04 33.28 53.76 66.56 71.68 104.96z m-296.96 363.52c-10.24-15.36-20.48-33.28-15.36-48.64 2.56-12.8 15.36-20.48 28.16-20.48s23.04 7.68 30.72 17.92c2.56 5.12 5.12 12.8 10.24 17.92 12.8 17.92 40.96 23.04 56.32 7.68 12.8-12.8 12.8-30.72 12.8-48.64v-151.04c0-7.68 0-15.36 5.12-17.92 2.56-2.56 7.68-2.56 12.8-2.56h20.48c5.12 0 12.8 0 12.8 5.12V622.08c0 23.04 0 48.64-10.24 71.68-15.36 28.16-46.08 46.08-79.36 46.08-25.6 0-51.2-12.8-69.12-30.72-5.12-2.56-10.24-7.68-15.36-15.36z m-84.48-281.6z m-337.92 7.68z m317.44-314.88c0-2.56 0-2.56 0 0 0-2.56 0 0 0 0z m-143.36 632.32c-20.48 0-23.04-5.12-23.04-25.6v-15.36-15.36-28.16-30.72-28.16-28.16-23.04-33.28c0-15.36 0-30.72-2.56-46.08-2.56-10.24 76.8-7.68 81.92-7.68 38.4 2.56 81.92 2.56 110.08 35.84 25.6 30.72 33.28 76.8 30.72 117.76-2.56 33.28-10.24 64-28.16 92.16-35.84 53.76-112.64 35.84-166.4 35.84h-2.56z m552.96-28.16c-7.68 10.24-15.36 20.48-28.16 20.48-12.8 0-25.6-7.68-33.28-20.48-7.68-12.8-7.68-25.6-10.24-38.4-5.12-58.88-7.68-120.32 2.56-179.2 2.56-10.24 2.56-20.48 10.24-30.72 15.36-23.04 53.76-17.92 64 7.68 7.68 38.4 48.64 56.32 64 89.6 10.24 23.04 7.68 48.64-5.12 69.12-12.8 20.48-35.84 35.84-48.64 56.32-5.12 10.24-10.24 17.92-15.36 25.6z" fill="#AF1D62" p-id="29672"></path><path d="M463.36 558.08c-2.56-15.36-10.24-28.16-20.48-38.4-7.68-7.68-17.92-10.24-30.72-10.24-12.8-2.56-28.16-2.56-40.96-2.56-5.12 0-7.68 0-12.8 2.56-12.8 5.12-7.68 35.84-7.68 46.08 0 30.72 0 64-2.56 94.72 0 7.68 0 12.8 2.56 20.48 5.12 10.24 17.92 15.36 28.16 15.36 17.92-2.56 35.84-2.56 48.64-12.8 30.72-20.48 43.52-74.24 35.84-115.2z" fill="#AF1D62" p-id="29673"></path></svg>