<?xml version="1.0" standalone="no"?><!DOCTYPE svg PUBLIC "-//W3C//DTD SVG 1.1//EN" "http://www.w3.org/Graphics/SVG/1.1/DTD/svg11.dtd"><svg t="1633786607640" class="icon" viewBox="0 0 1024 1024" version="1.1" xmlns="http://www.w3.org/2000/svg" p-id="28547" xmlns:xlink="http://www.w3.org/1999/xlink" width="300" height="300"><defs><style type="text/css"></style></defs><path d="M512 512m-512 0a512 512 0 1 0 1024 0 512 512 0 1 0-1024 0Z" fill="#FF8B40" p-id="28548"></path><path d="M512 960c249.6 0 448-198.4 448-448s-198.4-448-448-448-448 198.4-448 448 198.4 448 448 448z m0 64c-281.6 0-512-230.4-512-512s230.4-512 512-512 512 230.4 512 512-230.4 512-512 512z" fill="#FFFFFF" p-id="28549"></path><path d="M512 576c38.4 0 64-25.6 64-64s-25.6-64-64-64-64 25.6-64 64 25.6 64 64 64z m0 64c-70.4 0-128-57.6-128-128s57.6-128 128-128 128 57.6 128 128-57.6 128-128 128zM512 160C320 160 160 320 160 512c0 19.2 12.8 32 32 32s32-12.8 32-32c0-160 128-288 288-288 19.2 0 32-12.8 32-32s-12.8-32-32-32z m0 704c192 0 352-160 352-352 0-19.2-12.8-32-32-32s-32 12.8-32 32c0 160-128 288-288 288-19.2 0-32 12.8-32 32s12.8 32 32 32z" fill="#FFFFFF" p-id="28550"></path></svg>