<?xml version="1.0" standalone="no"?><!DOCTYPE svg PUBLIC "-//W3C//DTD SVG 1.1//EN" "http://www.w3.org/Graphics/SVG/1.1/DTD/svg11.dtd"><svg t="1633787120779" class="icon" viewBox="0 0 1365 1024" version="1.1" xmlns="http://www.w3.org/2000/svg" p-id="64610" xmlns:xlink="http://www.w3.org/1999/xlink" width="399.90234375" height="300"><defs><style type="text/css"></style></defs><path d="M 814.623 803.033 V 477.96 l 190.2 -31.0458 c -30.3011 -161.621 -171.194 -283.881 -340.558 -283.881 c -191.457 0 -346.655 156.222 -346.655 348.967 c 0 192.729 155.198 348.967 346.655 348.967 c 18.5716 0 36.7864 -1.52049 54.5668 -4.34424 c 13.9016 -23.2572 38.881 -41.9219 70.5784 -49.8967 a 125.874 125.874 0 0 1 25.2121 -3.69261 Z m -86.6676 -611.53 l -37.1278 163.809 h -37.1433 l -26.5309 -163.809 c 38.912 -19.5956 100.802 0 100.802 0 Z M 664.266 641.552 c -71.0749 0 -128.698 -58.0112 -128.698 -129.552 c 0 -71.5559 57.6233 -129.567 128.698 -129.567 c 71.0904 0 128.698 58.0112 128.698 129.567 c 0 71.5404 -57.6078 129.552 -128.698 129.552 Z m 0 -228.336 c -54.1168 0 -98.1178 44.2958 -98.1178 98.785 c 0 54.4737 44.001 98.785 98.1178 98.785 c 54.1324 0 98.1333 -44.3113 98.1333 -98.785 c 0 -54.4892 -44.001 -98.785 -98.1333 -98.785 Z m 0 169.332 c -38.6482 0 -70.0819 -31.6509 -70.0819 -70.5474 c 0 -38.912 31.4492 -70.5629 70.0819 -70.5629 c 38.6638 0 70.0819 31.6509 70.0819 70.5629 c 0 38.8965 -31.4182 70.5474 -70.0819 70.5474 Z m 44.3888 334.274 c 1.69115 9.38667 5.38376 18.1062 10.7055 25.9258 a 430.39 430.39 0 0 1 -55.0788 3.66158 C 426.325 946.409 232.727 751.538 232.727 512 C 232.727 272.462 426.325 77.5758 664.266 77.5758 c 211.223 0 387.382 153.616 424.308 355.669 l -41.8909 6.84218 C 1013.03 258.343 854.419 120.304 664.266 120.304 C 449.722 120.304 275.177 296.014 275.177 512 c 0 215.971 174.545 391.68 389.089 391.68 c 14.367 0 28.5479 -0.837818 42.5115 -2.37382 c 0.124121 5.15103 0.682667 10.3331 1.87733 15.5152 Z M 1132.61 456.673 V 833.319 c 0 31.1855 -23.1021 56.0718 -59.1282 65.2412 c -39.5636 9.86764 -77.7619 -6.81115 -85.3333 -37.3295 c -7.58691 -30.5804 18.3234 -63.3639 57.8715 -73.3401 c 17.8735 -4.43733 35.4676 -3.53746 50.176 1.69115 V 562.657 l -202.271 37.2208 l -0.930909 282.298 h -0.046546 c -0.170667 26.7326 -24.1105 52.9842 -58.5697 61.5641 c -39.0827 9.89867 -80.0272 -8.82812 -84.4179 -36.8485 c -7.52485 -30.239 18.1062 -62.6967 57.2664 -72.5644 c 17.6252 -4.42182 34.847 -3.53746 49.3227 1.56703 V 501.744 L 1132.61 456.673 Z" fill="#d4237a" p-id="64611"></path></svg>