<?xml version="1.0" standalone="no"?><!DOCTYPE svg PUBLIC "-//W3C//DTD SVG 1.1//EN" "http://www.w3.org/Graphics/SVG/1.1/DTD/svg11.dtd"><svg t="1633786600430" class="icon" viewBox="0 0 1210 1024" version="1.1" xmlns="http://www.w3.org/2000/svg" p-id="28402" xmlns:xlink="http://www.w3.org/1999/xlink" width="354.4921875" height="300"><defs><style type="text/css"></style></defs><path d="M482.115891 439.680641a100.777303 100.777303 0 0 0-51.1514 13.702473 98.927807 98.927807 0 0 0-37.394927 37.421927 97.30781 97.30781 0 0 0-13.702473 51.124401c0 27.742446 10.27348 51.947899 30.469441 72.143859s44.549913 30.455941 72.899857 30.45594 52.420398-10.27348 72.130359-30.45594 29.632442-44.401413 29.632442-72.386859-9.908981-51.947899-29.632442-72.130359c-20.24996-19.831461-44.549913-29.875442-73.318357-29.875442z m0 0" fill="#742DD2" p-id="28403"></path><path d="M698.263969 712.650108q-27.418446-102.5323 46.19691-191.200126t200.474608-114.749776Q899.967075 255.311501 772.513824 158.67869T481.764892 61.991879a458.175605 458.175605 0 0 0-78.043348 6.493487 490.562042 490.562042 0 0 0-74.141855 17.941465 429.98766 429.98766 0 0 0-68.485366 28.808944 531.750461 531.750461 0 0 0-63.517376 38.852924 404.68871 404.68871 0 0 0-56.20039 48.397406 534.004957 534.004957 0 0 0-87.25033 118.894267 410.534198 410.534198 0 0 0-29.699942 68.471867 572.223382 572.223382 0 0 0-17.954965 74.398354A475.887571 475.887571 0 0 0 24.615285 693.534145a457.190107 457.190107 0 0 0 69.295365 132.826241 508.625007 508.625007 0 0 0 103.787797 103.180298 477.818067 477.818067 0 0 0 132.82624 68.458367A471.311079 471.311079 0 0 0 481.994392 1022.555503q109.633286 0 204.970099-45.575911t162.823182-124.321257q-122.566261-36.287929-151.523704-140.008227z m-51.1244-75.599852a184.747139 184.747139 0 0 1-69.308865 68.485366c-29.416443 16.915467-61.23588 25.163951-95.836312 25.163951-51.947899 0-96.335812-18.292464-133.40674-55.349892q-55.322892-55.255392-55.322892-133.420239a187.069135 187.069135 0 0 1 25.150451-95.282814 184.612139 184.612139 0 0 1 69.308865-68.471867 187.339134 187.339134 0 0 1 94.499815-25.150451q79.528345 0 134.837737 55.349892t55.349892 133.40674c0 34.600432-8.383484 66.47387-25.150451 95.282814z" fill="#742DD2" p-id="28404"></path><path d="M982.249415 132.353741l226.921056 86.696831a651.279228 651.279228 0 0 0-43.321415-74.155355c-15.34947-22.558456-31.049939-41.08042-46.993408-55.349892A427.139166 427.139166 0 0 0 1070.444742 51.2999c-16.294468-10.799979-31.994938-19.358962-47.587407-25.150451q-22.949955-8.693983-43.915414-14.525972a176.242156 176.242156 0 0 0-38.258925-6.493487c-11.447978-0.593999-21.721458-0.823498-30.455941-0.823498s-15.34947 0.350999-20.24996 1.417497h-7.208986L807.613756 1.187998q63.449876 81.99884 109.579286 155.762695c30.82044 49.126404 54.188894 90.922322 70.726361 125.549755 16.294468 34.708432 29.699942 65.636872 39.662923 93.149818s15.943469 50.773401 17.954965 69.902864a331.977852 331.977852 0 0 1 2.240996 43.915414 102.896799 102.896799 0 0 1-3.658493 25.150451q-57.739387-28.687444-128.34425-10.030481c-44.387913 12.514476-78.637346 36.00443-103.193798 70.712862s-31.873438 69.902863-22.301957 105.434794 33.398935 61.870379 71.549861 78.637347c37.894426 16.766967 79.217845 19.007963 123.376259 6.493487a210.302589 210.302589 0 0 0 60.749881-29.699942 174.14966 174.14966 0 0 0 43.807415-43.942414 143.20772 143.20772 0 0 0 22.355956-53.324896q76.504351-116.693772-78.029848-414.057691z m0 0" fill="#EFB1FF" p-id="28405"></path></svg>