<?xml version="1.0" standalone="no"?><!DOCTYPE svg PUBLIC "-//W3C//DTD SVG 1.1//EN" "http://www.w3.org/Graphics/SVG/1.1/DTD/svg11.dtd"><svg t="1633786589014" class="icon" viewBox="0 0 1024 1024" version="1.1" xmlns="http://www.w3.org/2000/svg" p-id="28103" xmlns:xlink="http://www.w3.org/1999/xlink" width="300" height="300"><defs><style type="text/css"></style></defs><path d="M845.482667 372.736v401.066667c0 64.853333-53.248 118.101333-118.101334 118.101333H246.442667a117.76 117.76 0 0 1-117.76-117.76V185.002667c0-64.853333 53.248-118.101333 118.101333-118.101334h294.570667c13.312 0 25.941333 5.12 35.157333 14.677334l254.634667 256.682666c9.216 8.874667 14.336 21.504 14.336 34.474667z" fill="#FF3149" opacity=".2" p-id="28104"></path><path d="M913.066667 449.536V887.466667c0 37.546667-30.72 68.266667-68.266667 68.266666h-580.266667c-37.546667 0-68.266667-30.72-68.266666-68.266666V204.8c0-37.546667 30.72-68.266667 68.266666-68.266667h335.530667c18.773333 0 37.205333 7.509333 50.517333 20.821334l241.664 241.664c13.312 13.653333 20.821333 31.744 20.821334 50.517333z" fill="#FF3149" p-id="28105"></path><path d="M897.365333 404.48c10.24 10.24 15.701333 23.893333 15.701334 38.229333v223.914667l-2.389334-2.389333-3.413333-3.413334-3.413333-3.413333-3.413334-3.413333-3.413333-3.413334-3.413333-3.413333-3.413334-3.413333-3.413333-3.413334-3.413333-3.413333-3.413334-3.413333-3.413333-3.413334-3.413333-3.413333-3.413334-3.413333-3.413333-3.413334-3.413333-3.413333-3.413334-3.413333-3.413333-3.413334-3.413333-3.413333-3.413334-3.413333-3.413333-3.413334-3.413333-3.413333-3.413334-3.413333-3.413333-3.413334-3.413333-3.413333-3.413334-3.413333-3.413333-3.413334-3.413333-3.413333-3.413334-3.413333-3.413333-3.413334-3.413333-3.413333-3.413334-3.413333-3.413333-3.413334-3.413333-3.413333-3.413334-3.413333-3.413333-3.413334-3.413333-3.413333-3.413334-3.413333-3.413333-3.413334-3.413333-3.413333-3.413334-3.413333-3.413333-3.413334-3.413333-3.413333-3.413334-3.413333-3.413333-3.413334-3.413333-3.413333-3.413334-3.413333-3.413333-3.413334-3.413333-3.413333-3.413334-3.413333-3.413333-3.413334-3.413333-3.413333-3.413334-3.413333-3.413333-3.413334-3.413333-3.413333-3.413334-3.413333-3.413333-3.413334-3.413333-3.413333-3.413334-3.413333-3.413333-3.413334-3.413333-3.413333-3.413334-3.413333-3.413333-3.413334-3.413333-3.413333-3.413334-3.413333-3.413333-3.413334-3.413333-3.413333-3.413334-3.413333-3.413333-3.413334-3.413333-3.413333-3.413334-3.413333-3.413333-3.413334-3.413333-3.413333-3.413334-3.413333-3.413333-3.413334-3.413333-3.413333-3.413334-3.413333-3.413333-3.413334c-12.288-11.605333-20.48-27.989333-20.48-46.08V169.984c0-12.288 15.018667-18.432 23.552-9.898667l243.029333 244.394667z" fill="#A01C3B" p-id="28106"></path><path d="M884.394667 420.181333h-197.290667c-31.744 0-57.344-25.6-57.344-57.344V161.792c0-9.216 11.264-13.994667 17.749333-7.509333l245.418667 245.418666c7.168 7.509333 2.048 20.48-8.533333 20.48z" fill="#F2618B" p-id="28107"></path><path d="M576.512 136.533333H264.533333c-37.546667 0-68.266667 30.72-68.266666 68.266667v271.36A418.133333 418.133333 0 0 0 576.512 136.533333z" fill="#FFFFFF" opacity=".2" p-id="28108"></path><path d="M486.741333 136.533333H263.168c-37.205333 0-66.901333 30.037333-66.901333 66.901334v192.512c0 2.048 2.048 3.754667 4.096 3.754666a325.085867 325.085867 0 0 0 290.133333-258.730666 3.754667 3.754667 0 0 0-3.754667-4.437334z" fill="#FFFFFF" opacity=".2" p-id="28109"></path><path d="M466.602667 612.693333v-45.056c0-7.509333 4.096-14.336 10.922666-18.090666l180.565334-22.186667c11.605333-2.048 20.821333-1.024 25.941333 3.413333 3.413333 3.072 5.461333 7.850667 5.461333 14.677334v190.805333c-2.048-1.024-4.096-2.389333-6.144-3.413333-16.384-7.168-35.157333-7.850667-53.589333-2.389334-18.090667 5.461333-33.450667 16.725333-43.008 31.744-10.24 15.701333-12.970667 33.792-8.192 50.517334 5.12 16.725333 17.408 30.037333 34.474667 37.546666 9.216 4.096 19.456 6.144 29.696 6.144 7.850667 0 15.701333-1.024 23.552-3.413333 30.72-9.216 51.2-34.816 53.248-61.781333 0-1.024 0.682667-1.706667 0.682666-2.730667v-242.688c0-16.042667-5.802667-29.354667-16.384-38.229333-8.533333-7.168-24.576-14.677333-50.176-9.898667l-181.930666 22.186667c-1.365333 0-2.730667 0.682667-4.096 1.024-19.114667 7.850667-31.744 26.624-31.744 47.104v178.176c-5.802667-3.072-12.288-5.802667-19.456-6.826667-17.749333-3.072-36.522667 0.341333-53.248 9.898667-35.157333 20.138667-49.152 61.781333-31.402667 92.501333 11.264 19.456 32.768 30.037333 55.637333 30.037333 13.312 0 27.306667-3.413333 40.277334-10.922666 16.725333-9.557333 29.013333-24.234667 35.157333-40.96 3.413333-9.898667 4.437333-19.797333 3.413333-29.354667 0-0.682667 0.341333-1.024 0.341334-1.706667v-176.128z" fill="#FFFFFF" p-id="28110"></path></svg>