<?xml version="1.0" standalone="no"?><!DOCTYPE svg PUBLIC "-//W3C//DTD SVG 1.1//EN" "http://www.w3.org/Graphics/SVG/1.1/DTD/svg11.dtd"><svg t="1633786561880" class="icon" viewBox="0 0 1024 1024" version="1.1" xmlns="http://www.w3.org/2000/svg" p-id="26963" xmlns:xlink="http://www.w3.org/1999/xlink" width="300" height="300"><defs><style type="text/css"></style></defs><path d="M15.36 0C2.56 0 0 5.12 0 15.36v993.28c0 12.8 2.56 15.36 15.36 15.36H1024V2.56C686.08 2.56 350.72 2.56 15.36 0zM512 860.16c-192 0-345.6-156.16-345.6-348.16S322.56 166.4 512 166.4c192 0 345.6 156.16 345.6 348.16 0 189.44-156.16 345.6-345.6 345.6z" fill="#F33991" p-id="26964"></path><path d="M614.4 463.36c-5.12-10.24-2.56-15.36 5.12-20.48 25.6-20.48 48.64-43.52 74.24-64 17.92-15.36 20.48-38.4 5.12-51.2-15.36-15.36-35.84-12.8-51.2 5.12l-53.76 61.44c-17.92 20.48-17.92 20.48-43.52 12.8-12.8-7.68-15.36-12.8-12.8-23.04 2.56-43.52 5.12-84.48 7.68-128 2.56-23.04-12.8-38.4-33.28-40.96-20.48 0-35.84 15.36-33.28 38.4 2.56 38.4 5.12 74.24 7.68 112.64 2.56 28.16 2.56 28.16-23.04 40.96-10.24 5.12-15.36 2.56-20.48-5.12-20.48-25.6-43.52-48.64-64-74.24-15.36-17.92-38.4-20.48-51.2-5.12-15.36 15.36-12.8 35.84 5.12 51.2 20.48 17.92 40.96 35.84 58.88 53.76 23.04 17.92 20.48 17.92 12.8 46.08-2.56 12.8-10.24 12.8-20.48 12.8-43.52-2.56-84.48-5.12-128-7.68-23.04-2.56-38.4 12.8-40.96 33.28 0 20.48 15.36 35.84 38.4 33.28 38.4-2.56 74.24-5.12 112.64-7.68 28.16-2.56 28.16-2.56 40.96 23.04 5.12 10.24 5.12 15.36-5.12 23.04-25.6 20.48-48.64 43.52-74.24 64-20.48 17.92-20.48 38.4-5.12 53.76 15.36 15.36 35.84 12.8 51.2-7.68l53.76-61.44c17.92-20.48 17.92-20.48 46.08-12.8 10.24 2.56 12.8 7.68 12.8 20.48-2.56 43.52-5.12 84.48-7.68 128-2.56 23.04 12.8 40.96 33.28 40.96s33.28-17.92 33.28-40.96c-2.56-20.48-2.56-40.96-5.12-64 0-15.36-2.56-33.28-2.56-48.64-2.56-28.16-2.56-25.6 23.04-38.4 12.8-5.12 17.92-2.56 25.6 5.12 20.48 23.04 40.96 46.08 61.44 71.68 17.92 20.48 38.4 23.04 53.76 7.68 15.36-15.36 12.8-35.84-7.68-53.76-20.48-17.92-38.4-35.84-61.44-53.76-15.36-12.8-23.04-23.04-12.8-43.52 5.12-10.24 10.24-12.8 23.04-12.8 43.52 2.56 84.48 5.12 128 7.68 23.04 2.56 38.4-12.8 38.4-33.28s-15.36-33.28-38.4-33.28c-38.4 2.56-74.24 5.12-112.64 7.68-30.72 2.56-28.16 2.56-43.52-23.04z" fill="#F33991" p-id="26965"></path></svg>