<?xml version="1.0" standalone="no"?><!DOCTYPE svg PUBLIC "-//W3C//DTD SVG 1.1//EN" "http://www.w3.org/Graphics/SVG/1.1/DTD/svg11.dtd"><svg t="1633786538005" class="icon" viewBox="0 0 1024 1024" version="1.1" xmlns="http://www.w3.org/2000/svg" p-id="26378" xmlns:xlink="http://www.w3.org/1999/xlink" width="300" height="300"><defs><style type="text/css"></style></defs><path d="M510.723192 1024c-280.897756 0-510.723192-229.825436-510.723192-510.723192s229.825436-510.723192 510.723192-510.723192 510.723192 229.825436 510.723192 510.723192c0 283.451372-229.825436 510.723192-510.723192 510.723192z m0-967.820449c-252.80798 0-457.097257 206.842893-457.097257 457.097257C53.625935 766.084788 260.468828 970.374065 510.723192 970.374065c252.80798 0 457.097257-206.842893 457.097257-457.097257 0-252.80798-204.289277-457.097257-457.097257-457.097257z" fill="#2F94FD" p-id="26379"></path><path d="M331.970075 273.236908h127.680798v165.985037l160.877805-165.985037h178.753118s-219.610973 204.289277-229.825437 214.50374c-10.214464 10.214464-15.321696 28.089776-2.553616 48.518704 15.321696 20.428928 191.521197 224.718204 191.521197 224.718204l-160.877805-2.553616-160.877806-191.521197-15.321696 194.074813-132.78803 2.553616L331.970075 273.236908z" fill="#2F94FD" p-id="26380"></path></svg>