<?xml version="1.0" standalone="no"?><!DOCTYPE svg PUBLIC "-//W3C//DTD SVG 1.1//EN" "http://www.w3.org/Graphics/SVG/1.1/DTD/svg11.dtd"><svg t="1633786459718" class="icon" viewBox="0 0 1024 1024" version="1.1" xmlns="http://www.w3.org/2000/svg" p-id="22790" xmlns:xlink="http://www.w3.org/1999/xlink" width="300" height="300"><defs><style type="text/css"></style></defs><path d="M983.781844 312.577032A511.282459 511.282459 0 0 0 512.230528 0.001485a508.773662 508.773662 0 0 0-361.983475 150.015782 511.487258 511.487258 0 0 0 0 724.22295A512.869656 512.869656 0 0 0 512.230528 1024a514.047255 514.047255 0 0 0 362.239475-149.759783A509.336861 509.336861 0 0 0 983.781844 711.680453a511.999258 511.999258 0 0 0 0-398.847422m-221.951678-50.175927A349.695493 349.695493 0 0 1 865.510016 512.000742a353.586687 353.586687 0 0 1-488.447292 326.655527 356.658683 356.658683 0 0 1-114.431834-76.799889A349.695493 349.695493 0 0 1 158.95104 512.000742a351.38509 351.38509 0 0 1 103.67985-249.599638 354.047487 354.047487 0 0 1 384.767442-76.799888 346.981897 346.981897 0 0 1 114.431834 76.799888z" fill="#C2B8B9" p-id="22791"></path><path d="M838.630055 376.832938a356.863483 356.863483 0 0 0-191.231723-191.231722 352.05069 352.05069 0 0 0-384.767442 76.799888A351.38509 351.38509 0 0 0 158.95104 512.000742a349.695493 349.695493 0 0 0 103.67985 249.855638 356.658683 356.658683 0 0 0 114.431834 76.799889A352.716289 352.716289 0 0 0 865.510016 512.000742a349.439493 349.439493 0 0 0-26.623962-135.167804m-88.063872-103.42385a336.485912 336.485912 0 0 1 0 476.927309 337.202711 337.202711 0 0 1-367.615467 73.471893A337.202711 337.202711 0 0 1 273.638874 273.409088a340.940306 340.940306 0 0 1 109.567841-73.215893 337.91951 337.91951 0 0 1 258.047626 0 337.100311 337.100311 0 0 1 109.567841 73.215893M512.230528 372.224945A140.287797 140.287797 0 0 0 372.454731 512.000742a139.417398 139.417398 0 0 0 139.775797 139.519798A138.956599 138.956599 0 0 0 651.750326 512.000742 139.826997 139.826997 0 0 0 512.230528 372.224945M424.422655 424.448869a123.596621 123.596621 0 0 1 175.103746 0 123.596621 123.596621 0 0 1 0 175.103746 123.596621 123.596621 0 0 1-175.103746 0 123.596621 123.596621 0 0 1 0-175.103746M563.942453 512.000742a51.763125 51.763125 0 1 0-51.711925 51.711925 51.558325 51.558325 0 0 0 51.711925-51.711925m-15.871977 0a34.50875 34.50875 0 0 1-10.239985 25.599963 36.147148 36.147148 0 0 1-51.199926 0 34.50875 34.50875 0 0 1-10.239985-25.599963 35.839948 35.839948 0 0 1 10.239985-25.599962 36.147148 36.147148 0 0 1 51.199926 0 35.839948 35.839948 0 0 1 10.239985 25.599962z" fill="#990000" p-id="22792"></path><path d="M824.038076 382.72093a332.799517 332.799517 0 0 0-73.215894-109.311842 337.100311 337.100311 0 0 0-109.567841-73.215893 337.91951 337.91951 0 0 0-258.047626 0 338.431509 338.431509 0 0 0-182.783735 182.527735 338.277909 338.277909 0 0 0 182.783735 441.08736 338.431509 338.431509 0 0 0 440.831361-182.527735 339.250708 339.250708 0 0 0 0-258.559625m-71.679896 28.159959a7.731189 7.731189 0 0 1-4.607994 10.239985l-2.815995 0.511999a7.423989 7.423989 0 0 1-7.42399-5.119992A226.662071 226.662071 0 0 0 686.310276 337.920995a229.529267 229.529267 0 0 0-78.847886-51.711925 6.86079 6.86079 0 0 1-4.095994-3.839995 8.499188 8.499188 0 0 1 0-6.143991 7.987188 7.987188 0 0 1 4.095994-4.095994 8.550388 8.550388 0 0 1 6.143991-0.255999 250.572437 250.572437 0 0 1 83.967878 54.78392A242.636448 242.636448 0 0 1 752.870179 410.880889m44.031936 1.279998a7.16799 7.16799 0 0 1-7.423989-5.119992 273.817203 273.817203 0 0 0-66.559903-105.215848 279.193195 279.193195 0 0 0-105.215848-66.559903 9.113587 9.113587 0 0 1-4.351994-4.095994 8.447988 8.447988 0 0 1-0.255999-6.143991 6.91199 6.91199 0 0 1 3.839994-4.351994 7.06559 7.06559 0 0 1 6.143991 0A296.959569 296.959569 0 0 1 804.070105 401.664902a7.16799 7.16799 0 0 1-0.256 5.631992 10.239985 10.239985 0 0 1-4.607993 4.351994l-2.559996 0.511999m-383.231445 1.279998a139.058998 139.058998 0 0 1 197.631714 0 139.980597 139.980597 0 0 1 0 197.375714 140.287797 140.287797 0 0 1-197.631714 0 139.366198 139.366198 0 0 1 0-197.375714m185.855731-96.767859a7.526389 7.526389 0 0 1 6.143991 0A202.598106 202.598106 0 0 1 665.830305 358.400965a197.887713 197.887713 0 0 1 41.47194 60.415913 7.782389 7.782389 0 0 1 0 5.887991 8.908787 8.908787 0 0 1-4.351994 4.607993 4.607993 4.607993 0 0 1-2.815995 0.767999 7.270389 7.270389 0 0 1-7.16799-5.119992 196.351715 196.351715 0 0 0-38.399944-55.55192 183.039735 183.039735 0 0 0-55.807919-38.399944 6.91199 6.91199 0 0 1-4.095995-4.351994 7.526389 7.526389 0 0 1 0-6.143991 6.91199 6.91199 0 0 1 4.351994-4.095994m-281.599592 288.255582a7.782389 7.782389 0 0 1 0-5.887991 7.884789 7.884789 0 0 1 4.351994-4.351994 7.782389 7.782389 0 0 1 5.887992-0.256 7.987188 7.987188 0 0 1 4.607993 4.095994 182.476535 182.476535 0 0 0 38.143945 56.063919 189.439725 189.439725 0 0 0 55.807919 38.143945 7.884789 7.884789 0 0 1 4.351993 4.351993 8.499188 8.499188 0 0 1 0 6.143991 7.731189 7.731189 0 0 1-7.423989 4.607994 6.80959 6.80959 0 0 1-3.071995-0.511999 203.212505 203.212505 0 0 1-102.143852-102.399852m-40.959941-1.791997a9.676786 9.676786 0 0 1 6.143991 0 7.935988 7.935988 0 0 1 4.351994 4.095994 230.809265 230.809265 0 0 0 130.047811 130.55981 7.01439 7.01439 0 0 1 4.607994 3.839995 7.526389 7.526389 0 0 1 0 6.143991 6.75839 6.75839 0 0 1-7.16799 5.119992 5.119993 5.119993 0 0 1-2.815996-0.511999A240.639651 240.639651 0 0 1 327.910795 696.832474a243.046048 243.046048 0 0 1-55.03992-83.967878 7.577589 7.577589 0 0 1 0-6.143991 6.86079 6.86079 0 0 1 4.095994-3.839994m-44.799935 9.727986a6.91199 6.91199 0 0 1 4.095994 4.351993 281.855591 281.855591 0 0 0 170.751753 172.031751 9.011187 9.011187 0 0 1 4.607993 4.095994 8.499188 8.499188 0 0 1 0.256 6.143991 7.884789 7.884789 0 0 1-7.679989 5.119992h-2.559997A300.543564 300.543564 0 0 1 220.390951 622.592582a7.833589 7.833589 0 0 1 0.511999-6.143991 7.01439 7.01439 0 0 1 4.607994-3.839994 6.502391 6.502391 0 0 1 5.631992 0.255999z" fill="#F02452" p-id="22793"></path><path d="M235.23893 617.21659a6.91199 6.91199 0 0 0-4.095994-4.351994 6.502391 6.502391 0 0 0-5.887992 0 7.01439 7.01439 0 0 0-4.607993 3.839995 7.833589 7.833589 0 0 0-0.511999 6.143991 300.543564 300.543564 0 0 0 181.503736 181.247737h2.559997a7.884789 7.884789 0 0 0 7.679989-5.119993 8.499188 8.499188 0 0 0-0.256-6.143991 9.011187 9.011187 0 0 0-4.607993-4.095994 281.855591 281.855591 0 0 1-171.775751-171.519751m46.847932-14.07998a9.676786 9.676786 0 0 0-6.143991 0 6.86079 6.86079 0 0 0-4.095994 3.839995 7.577589 7.577589 0 0 0 0 6.143991 243.046048 243.046048 0 0 0 55.03992 83.967878A240.639651 240.639651 0 0 0 411.110675 752.640393a5.119993 5.119993 0 0 0 2.815996 0.512 6.75839 6.75839 0 0 0 7.167989-5.119993 7.526389 7.526389 0 0 0 0-6.143991 7.01439 7.01439 0 0 0-4.607993-3.839994 230.809265 230.809265 0 0 1-130.047812-130.559811 7.935988 7.935988 0 0 0-4.351993-4.095994m34.815949-4.095994a7.782389 7.782389 0 0 0 0 5.887991 203.212505 203.212505 0 0 0 102.143852 102.399852 6.80959 6.80959 0 0 0 3.071996 0.511999 7.731189 7.731189 0 0 0 7.423989-4.607993 8.499188 8.499188 0 0 0 0-6.143991 7.884789 7.884789 0 0 0-4.351994-4.351994 189.439725 189.439725 0 0 1-55.807919-38.143945 182.476535 182.476535 0 0 1-38.143945-56.063918 7.987188 7.987188 0 0 0-4.607993-4.095994 7.782389 7.782389 0 0 0-5.887991 0.255999 7.884789 7.884789 0 0 0-4.351994 4.351994m288.255582-282.367591a7.526389 7.526389 0 0 0-6.143991 0 6.91199 6.91199 0 0 0-4.351994 4.095994 7.526389 7.526389 0 0 0 0 6.143991 6.91199 6.91199 0 0 0 4.095994 4.351994 183.039735 183.039735 0 0 1 55.807919 38.399944 196.351715 196.351715 0 0 1 38.399945 55.55192 7.270389 7.270389 0 0 0 7.167989 5.119992 4.607993 4.607993 0 0 0 2.815996-0.767998 8.908787 8.908787 0 0 0 4.351994-4.607994 7.782389 7.782389 0 0 0 0-5.887991 197.887713 197.887713 0 0 0-40.959941-60.927912 202.598106 202.598106 0 0 0-60.415912-41.727939m184.063733 90.111869a7.16799 7.16799 0 0 0 7.423989 5.119993l2.559997-0.512a10.239985 10.239985 0 0 0 4.607993-4.351993 7.16799 7.16799 0 0 0 0.255999-5.631992 296.959569 296.959569 0 0 0-181.759736-181.247737 7.06559 7.06559 0 0 0-6.143991 0 6.91199 6.91199 0 0 0-3.839995 4.351993 8.447988 8.447988 0 0 0 0.256 6.143991 9.113587 9.113587 0 0 0 4.351994 4.095994 279.193195 279.193195 0 0 1 105.215847 66.559904 273.817203 273.817203 0 0 1 66.559904 105.215847m-36.607947 10.239985a6.96319 6.96319 0 0 0 0-5.887991 242.636448 242.636448 0 0 0-54.783921-84.223878 250.572437 250.572437 0 0 0-84.223878-55.03992 8.550388 8.550388 0 0 0-6.143991 0.256 7.987188 7.987188 0 0 0-4.095994 4.095994 8.499188 8.499188 0 0 0 0 6.143991 6.86079 6.86079 0 0 0 4.095994 3.839994A229.529267 229.529267 0 0 1 686.310276 337.920995a226.662071 226.662071 0 0 1 51.455925 78.847885 7.423989 7.423989 0 0 0 7.423989 5.119993l2.815996-0.511999a6.96319 6.96319 0 0 0 4.863993-4.607994z" fill="#F8F7F9" p-id="22794"></path><path d="M512.230528 388.096922A124.10862 124.10862 0 0 0 388.070708 512.000742 124.10862 124.10862 0 0 0 512.230528 635.904563a124.10862 124.10862 0 0 0 123.90382-123.903821A124.10862 124.10862 0 0 0 512.230528 388.096922m36.863947 87.551873a51.609525 51.609525 0 0 1 0 72.959894 50.124727 50.124727 0 0 1-36.863947 15.103978 51.711925 51.711925 0 1 1 36.863947-88.063872z" fill="#F7D54A" p-id="22795"></path><path d="M537.830491 537.600705a34.50875 34.50875 0 0 0 10.239985-25.599963 35.839948 35.839948 0 0 0-10.239985-25.599962 36.147148 36.147148 0 0 0-51.199926 0 35.839948 35.839948 0 0 0-10.239985 25.599962 34.50875 34.50875 0 0 0 10.239985 25.599963 36.147148 36.147148 0 0 0 51.199926 0z" fill="#FFFFFF" p-id="22796"></path></svg>