<?xml version="1.0" standalone="no"?><!DOCTYPE svg PUBLIC "-//W3C//DTD SVG 1.1//EN" "http://www.w3.org/Graphics/SVG/1.1/DTD/svg11.dtd"><svg t="1633786451409" class="icon" viewBox="0 0 1024 1024" version="1.1" xmlns="http://www.w3.org/2000/svg" p-id="22647" xmlns:xlink="http://www.w3.org/1999/xlink" width="300" height="300"><defs><style type="text/css"></style></defs><path d="M779.530667 192c40.757333 0 73.813333 37.056 73.802666 82.752v517.173333C853.333333 837.610667 820.288 874.666667 779.530667 874.666667H244.48C203.722667 874.666667 170.666667 837.610667 170.666667 791.925333V274.752C170.666667 229.056 203.712 192 244.469333 192H779.52zM649.781333 449.824c-5.984-7.722667-11.498667-13.333333-16.533333-16.842667a114.88 114.88 0 0 0-15.328-9.002666l-16.832-8.309334c-5.984-2.976-12.938667-7.786667-20.874667-14.410666-9.216-7.253333-16.501333-14.624-21.834666-22.101334-5.333333-7.466667-9.824-14.122667-13.461334-19.968-3.648-5.856-7.232-10.453333-10.773333-13.792-3.541333-3.349333-8.16-4.629333-13.834667-3.84a23.125333 23.125333 0 0 0-16.32 8.693334c-4.106667 5.173333-6.272 11.754667-6.421333 19.978666-1.194667 41.685333-5.386667 231.978667-5.386667 231.978667-3.989333-1.770667-10.197333-3.754667-18.624-5.952-8.458667-2.112-17.952-3.136-28.725333-2.986667a109.290667 109.290667 0 0 0-33.589333 6.197334c-11.658667 3.968-22.56 11.178667-32.682667 21.621333-10.122667 10.453333-15.413333 21.781333-15.861333 34.005333a57.856 57.856 0 0 0 9.578666 34.08c6.730667 10.453333 16.405333 19.2 29.013334 26.24 12.629333 7.050667 26.858667 10.346667 42.72 9.877334 15.552-0.469333 28.650667-3.189333 39.264-8.149334 10.624-4.96 19.157333-11.018667 25.589333-18.176 6.474667-7.146667 10.944-14.890667 13.386667-23.189333 2.442667-8.309333 3.616-15.829333 3.52-22.56l0.522666-24.053333 4.330667-185.92 0.373333-18.165334c0.106667-4.501333 1.770667-7.552 5.013334-9.173333 3.296-1.642667 7.786667 0.629333 13.546666 6.656a238.613333 238.613333 0 0 0 22.656 22.250667 72.309333 72.309333 0 0 0 31.712 16.213333c11.52 2.517333 19.978667 6.432 25.365334 11.754667 5.376 5.333333 8.618667 13.504 9.717333 24.533333 0.650667 6.784 1.706667 11.456 3.146667 14.016 1.418667 2.592 3.061333 4 4.938666 4.309333 1.866667 0.32 4.181333-1.568 6.954667-5.557333 2.773333-4 4.853333-9.248 6.208-15.68 1.344-6.421333 1.418667-13.621333 0.298667-21.546667-1.12-7.904-4.789333-15.573333-10.773334-23.029333z" fill="#FF5487" p-id="22648"></path></svg>