<?xml version="1.0" standalone="no"?><!DOCTYPE svg PUBLIC "-//W3C//DTD SVG 1.1//EN" "http://www.w3.org/Graphics/SVG/1.1/DTD/svg11.dtd"><svg t="1633786403971" class="icon" viewBox="0 0 1024 1024" version="1.1" xmlns="http://www.w3.org/2000/svg" p-id="20499" xmlns:xlink="http://www.w3.org/1999/xlink" width="300" height="300"><defs><style type="text/css"></style></defs><path d="M425.036744 5.119344h169.962228c113.137507-2.559672 235.489834 32.251869 312.791931 112.113638 79.86177 77.302098 114.161376 199.654424 112.113638 312.791932v168.938359c2.559672 113.137507-32.251869 235.489834-112.113638 312.791931-77.302098 79.86177-199.654424 114.161376-312.791931 112.113638H425.036744c-113.137507 2.559672-235.489834-32.251869-312.791931-112.113638C32.383043 834.453107-1.916563 712.10078 0.131174 598.963273V429.512979c-2.559672-113.137507 32.251869-235.489834 112.113639-312.791931C189.54691 37.371213 311.899237 2.559672 425.036744 5.119344z" fill="#F962C3" p-id="20500"></path><path d="M112.244813 112.625573C36.990453 185.32026 1.666978 298.457768 0.131174 405.963996c137.198425 0 248.800129-111.601704 248.800129-248.800129 0-42.490557-10.750623-82.933376-29.692196-117.744917-40.442819 17.917705-77.302098 41.978623-106.994294 73.206623z" fill="#FFFFFF" opacity=".5" p-id="20501"></path><path d="M322.64986 337.876718c0-16.381901 6.143213-30.204131 18.941573-41.466688 10.750623-11.774492 27.132524-18.429639 43.514426-17.917705v406.475931c0 29.180262-9.726754 55.800852-29.180262 79.861769-20.477377 24.060918-45.050229 37.883147-75.25436 41.466688-42.490557 7.167082-77.814032-3.583541-106.994294-33.275737-30.204131-28.668328-41.466688-62.967934-34.81154-103.410753 4.60741-22.01318 13.822229-40.954754 27.644458-56.312786 13.822229-15.869967 32.251869-28.156393 53.753115-34.299607 35.835409-11.262557 70.135016-7.679016 102.898818 9.726754V337.876718z m418.250422-61.944065c0-16.381901 6.143213-30.204131 18.941573-41.466688 9.21482-9.21482 25.084787-10.238688 35.323476-2.047738 5.119344 4.60741 8.190951 10.750623 8.19095 16.893836v373.200193c0 29.180262-9.726754 55.800852-29.180262 79.86177-20.477377 24.060918-45.050229 37.883147-75.25436 41.466688-42.490557 7.167082-77.814032-3.583541-106.994294-33.275737-30.204131-28.668328-41.466688-62.967934-34.81154-103.410753 4.60741-22.01318 13.822229-40.954754 27.644458-56.312787 13.822229-15.869967 32.251869-28.156393 53.753115-34.299606 35.835409-11.262557 70.135016-7.679016 102.898818 9.726754l-0.511934-250.335932z" fill="#FFFFFF" p-id="20502"></path><path d="M681.003955 703.909829a118.256851 114.161376 0 1 0 236.513702 0 118.256851 114.161376 0 1 0-236.513702 0Z" fill="#FCB0E1" p-id="20503"></path><path d="M366.67622 283.611669c0-1.535803 1.535803-3.071607 3.071607-3.583541l392.653701-53.753114c18.941574-2.559672 37.371213 8.702885 40.442819 25.084787 0.511934 1.535803 0.511934 3.071607 0.511934 4.60741v58.360524L366.67622 381.391144V283.611669z" fill="#FFFFFF" p-id="20504"></path></svg>