<?xml version="1.0" standalone="no"?><!DOCTYPE svg PUBLIC "-//W3C//DTD SVG 1.1//EN" "http://www.w3.org/Graphics/SVG/1.1/DTD/svg11.dtd"><svg t="1633786393704" class="icon" viewBox="0 0 1024 1024" version="1.1" xmlns="http://www.w3.org/2000/svg" p-id="20210" xmlns:xlink="http://www.w3.org/1999/xlink" width="300" height="300"><defs><style type="text/css"></style></defs><path d="M509.305263 933.726316A397.473684 397.473684 0 1 1 906.778947 536.252632 399.225263 399.225263 0 0 1 509.305263 933.726316z m0-735.178105A337.704421 337.704421 0 1 0 847.009684 536.252632 339.267368 339.267368 0 0 0 509.305263 198.548211z" fill="#17abe3" p-id="20211"></path><path d="M398.632421 784.303158a110.484211 110.484211 0 1 1 110.484211-110.484211 110.322526 110.322526 0 0 1-110.484211 110.484211z m0-164.378947a50.795789 50.795789 0 1 0 50.79579 50.795789 50.364632 50.364632 0 0 0-50.79579-50.795789z" fill="#17abe3" p-id="20212"></path><path d="M479.420632 715.560421a28.240842 28.240842 0 0 1-29.884632-29.884632v-274.863157a29.884632 29.884632 0 1 1 59.769263 0v274.863157a29.938526 29.938526 0 0 1-29.884631 29.884632z" fill="#17abe3" p-id="20213"></path><path d="M548.163368 485.429895h-98.627368v-173.325474h242.068211v29.884632a141.608421 141.608421 0 0 1-143.440843 143.440842zM509.305263 425.660632h38.858105a89.330526 89.330526 0 0 0 80.680421-53.894737h-116.547368v53.894737z" fill="#17abe3" p-id="20214"></path></svg>