<?xml version="1.0" encoding="utf-8"?>
<!-- Generator: Adobe Illustrator 25.3.1, SVG Export Plug-In . SVG Version: 6.00 Build 0)  -->
<svg xmlns:xlink="http://www.w3.org/1999/xlink" version="1.1" id="图层_1" xmlns="http://www.w3.org/2000/svg" x="0px"
     y="0px"
     viewBox="0 0 64 64" style="enable-background:new 0 0 64 64;" xml:space="preserve">
<style type="text/css">
	.st0{fill:#FFFFFF;}
	.st1{fill:#EE4B4B;}
</style>
    <polygon class="st0" points="14.6,9.6 42.5,9.3 52,19 52,54.5 14.1,54.5 "/>
    <path class="st1" d="M10.3,40.5h3.5V44L10.3,40.5z"/>
    <path class="st1" d="M50.4,55.6h-35c-1.4,0-2.5-1.1-2.5-2.5l0,0V10.9c0-1.4,1.1-2.5,2.5-2.5h26.4c0.7,0,1.3,0.3,1.7,0.7l8.6,8.7
	c0.5,0.5,0.7,1.1,0.7,1.8v33.4C52.8,54.5,51.7,55.6,50.4,55.6L50.4,55.6z M15.4,10.1c-0.5,0-0.8,0.4-0.8,0.8v42.1
	c0,0.5,0.4,0.8,0.8,0.8l0,0h35c0.5,0,0.8-0.4,0.8-0.8v0V19.7c0-0.2-0.1-0.4-0.2-0.6l-8.6-8.7c-0.2-0.2-0.4-0.2-0.6-0.2H15.4z"/>
    <path class="st1" d="M45.6,23.5H11.9c-0.9,0-1.6,0.8-1.6,1.7v15.3h35.3c0.9,0,1.6-0.8,1.6-1.7V25.2C47.3,24.3,46.5,23.5,45.6,23.5z
	 M18.8,33.9c0,2.3-0.8,3.3-2.8,3.3c-0.4,0-0.8,0-1.2-0.1v-1.5c0.3,0,0.6,0.1,1,0.1c1.1,0,1.2-0.7,1.2-1.6v-7.1h1.9V33.9z M24.5,37.2
	c-2.5,0-3.8-1.3-4-3.1h1.9c0.2,1.1,1.2,1.8,2.2,1.6c1.3,0,1.8-0.6,1.8-1.4s-0.5-1.3-2.3-1.8c-2.6-0.6-3.3-1.6-3.3-3
	c0-1.7,1.2-2.9,3.5-2.9c2.5,0,3.6,1.4,3.7,2.9h-1.9c-0.1-0.7-0.5-1.4-1.9-1.4c-1,0-1.6,0.4-1.6,1.2c0,0.8,0.5,1.1,2.1,1.5
	c2.9,0.7,3.5,1.8,3.5,3.2C28.4,35.9,27,37.2,24.5,37.2z M42.5,9.3v8.2c0,0.8,0.7,1.5,1.5,1.5h8L42.5,9.3z"/>
</svg>
