<?xml version="1.0" encoding="utf-8"?>
<!-- Generator: Adobe Illustrator 25.3.1, SVG Export Plug-In . SVG Version: 6.00 Build 0)  -->
<svg xmlns:xlink="http://www.w3.org/1999/xlink" version="1.1" id="图层_1" xmlns="http://www.w3.org/2000/svg" x="0px"
     y="0px"
     viewBox="0 0 64 64" style="enable-background:new 0 0 64 64;" xml:space="preserve">
<style type="text/css">
	.st0{fill:#44B080;}
	.st1{fill:#4AC590;}
	.st2{fill:#F5F5F5;}
</style>
    <path class="st0"
          d="M52.6,21.1v32.3c0,2.1-1.6,3.8-3.7,3.8H16.2c-2,0-3.7-1.7-3.7-3.8V10.6c0-2.1,1.6-3.8,3.7-3.8h23.3"/>
    <path class="st1" d="M39.4,6.8l13.2,14.3H40.9c0,0-1.2-0.5-1.5-1.9V6.8z"/>
    <path class="st2" d="M22.8,34.8h-3.4v-3.4h-1.8V40h1.7v-3.6h3.4V40h1.7v-8.6h-1.7L22.8,34.8L22.8,34.8z M25,33.1h2.5v7h1.7v-7h2.5
	v-1.6h-6.7L25,33.1L25,33.1z M36.3,37.5l-2.4-6H32V40h1.7v-4.7l1.9,4.7H37l1.9-4.7V40h1.7v-8.6h-1.9L36.3,37.5z M43.4,38.4v-7h-1.7
	V40h5.8v-1.6C47.5,38.4,43.4,38.4,43.4,38.4z"/>
</svg>
