<?xml version="1.0" encoding="utf-8"?>
<!-- Generator: Adobe Illustrator 25.3.1, SVG Export Plug-In . SVG Version: 6.00 Build 0)  -->
<svg xmlns:xlink="http://www.w3.org/1999/xlink" version="1.1" id="图层_1" xmlns="http://www.w3.org/2000/svg" x="0px"
     y="0px"
     viewBox="0 0 65.1 64" style="enable-background:new 0 0 65.1 64;" xml:space="preserve">
<style type="text/css">
	.st0{fill:#49CECA;}
	.st1{fill:#FFFFFF;}
</style>
    <path class="st0" d="M25,10.1h15.2c10.1,0,15.2,5.1,15.2,15.2v14.4c0,10.1-5.1,15.2-15.2,15.2H25c-10.1,0-15.2-5.1-15.2-15.2V25.3
	C9.8,15.2,14.9,10.1,25,10.1z"/>
    <path class="st1" d="M33.6,21.9c-1.1,1.1-1.8,2.5-2,4l-1.4,12.7c-0.2,1.6-1.7,2.8-3.4,2.6s-2.8-1.7-2.6-3.4c0.2-1.3,1.2-2.4,2.6-2.6
	c1.1-0.1,1.9-1.2,1.7-2.3c-0.1-1.1-1.2-1.9-2.3-1.7c0,0,0,0,0,0c-3.8,0.5-6.5,4-6,7.9c0.5,3.8,4,6.5,7.9,6c3.2-0.4,5.6-2.9,6-6.1
	l1.5-12.7c0.1-0.6,0.4-1.2,0.8-1.7c1.2-1.1,3.1-1.1,4.2,0c1.2,1.2,1.2,3,0,4.2c-0.5,0.5-1.1,0.8-1.7,0.9c-1.1,0.2-1.9,1.2-1.7,2.3
	c0.2,1.1,1.2,1.8,2.3,1.7c1.5-0.2,2.9-0.9,4-2c2.7-2.7,2.7-7.2,0-9.9C40.7,19.3,36.3,19.3,33.6,21.9z"/>
</svg>
