<?xml version="1.0" standalone="no"?><!DOCTYPE svg PUBLIC "-//W3C//DTD SVG 1.1//EN" "http://www.w3.org/Graphics/SVG/1.1/DTD/svg11.dtd"><svg t="1638077852117" class="icon" viewBox="0 0 1024 1024" version="1.1" xmlns="http://www.w3.org/2000/svg" p-id="2372" xmlns:xlink="http://www.w3.org/1999/xlink" width="50" height="50"><defs><style type="text/css"></style></defs><path d="M538.08 221.632l262.72 261.248a96 96 0 0 1-0.032 136.192l-294.112 291.968a96 96 0 0 1-135.36-0.064l-262.72-261.248a96 96 0 0 1 0.096-136.192l294.08-291.968a96 96 0 0 1 135.36 0.064z" fill="#4662FF" opacity=".15" p-id="2373"></path><path d="M160 867.872m48 0l480 0q48 0 48 48l0 32q0 48-48 48l-480 0q-48 0-48-48l0-32q0-48 48-48Z" fill="#4662FF" opacity=".15" p-id="2374"></path><path d="M660.256 99.84l262.816 261.152a96 96 0 0 1 0 136.224l-269.12 267.36-399.008-396.48 269.984-268.224a96 96 0 0 1 135.328 0z" fill="#4662FF" opacity=".429" p-id="2375"></path><path d="M298.752 529.728l1.152 1.12a62.336 62.336 0 0 1 0.512 88.736v0.032a64 64 0 0 1-89.92 0.544l-1.12-1.088a62.336 62.336 0 0 1-0.544-88.768h0.032a64 64 0 0 1 89.92-0.576z" fill="#FFFFFF" p-id="2376"></path></svg>