<?xml version="1.0" standalone="no"?><!DOCTYPE svg PUBLIC "-//W3C//DTD SVG 1.1//EN" "http://www.w3.org/Graphics/SVG/1.1/DTD/svg11.dtd"><svg t="1645191892855" class="icon" viewBox="0 0 1024 1024" version="1.1" xmlns="http://www.w3.org/2000/svg" p-id="39529" xmlns:xlink="http://www.w3.org/1999/xlink" width="200" height="200"><defs><style type="text/css"></style></defs><path d="M896.9 551.3c-4.1 0-8.3-1.3-11.9-3.9-35.9-26.5-70.7-55.4-103.3-85.8-32.4-30.3-63.5-62.7-92.3-96.5-7.2-8.4-6.2-21 2.2-28.2 8.4-7.2 21-6.2 28.2 2.2 27.8 32.6 57.8 64 89.1 93.2 31.5 29.4 65.1 57.3 99.8 82.9 8.9 6.6 10.8 19.1 4.2 28-3.8 5.3-9.8 8.1-16 8.1z" fill="#FFFFFF" p-id="39530"></path><path d="M163.8 312.9a120.5 78.5 0 1 0 241 0 120.5 78.5 0 1 0-241 0Z" fill="#009588" p-id="39531"></path><path d="M669.6 307.2m-23.4 0a23.4 23.4 0 1 0 46.8 0 23.4 23.4 0 1 0-46.8 0Z" fill="#FFFFFF" p-id="39532"></path><path d="M751.7 955.5H186.4c-89.2 0-162.2-73-162.2-162.2V463.4c0-89.2 73-162.2 162.2-162.2h565.3c89.2 0 162.2 73 162.2 162.2v329.9c0 89.2-73 162.2-162.2 162.2z" fill="#01D0BD" p-id="39533"></path><path d="M751.7 341.3c32.5 0 63.1 12.8 86.2 35.9 23.2 23.2 35.9 53.8 35.9 86.2v329.9c0 32.5-12.8 63.1-35.9 86.2-23.2 23.2-53.8 35.9-86.2 35.9H186.4c-32.5 0-63.1-12.8-86.2-35.9-23.2-23.2-35.9-53.8-35.9-86.2V463.4c0-32.5 12.8-63.1 35.9-86.2 23.2-23.2 53.8-35.9 86.2-35.9h565.3m0-40H186.4c-89.2 0-162.2 73-162.2 162.2v329.9c0 89.2 73 162.2 162.2 162.2h565.3c89.2 0 162.2-73 162.2-162.2v-330c0-89.2-73-162.1-162.2-162.1z" fill="#009588" p-id="39534"></path><path d="M544.8 858.6H267.1c-90.9 0-165.2-74.3-165.2-165.2V576.6c0-90.9 74.3-165.2 165.2-165.2h277.7c90.9 0 165.2 74.3 165.2 165.2v116.8c0 90.8-74.3 165.2-165.2 165.2z" fill="#FFFFFF" p-id="39535"></path><path d="M248.2 292.3c-4.9 0-9.8-1.8-13.6-5.4L110 170.8c-8.1-7.5-8.5-20.2-1-28.3 7.5-8.1 20.2-8.5 28.3-1l124.6 116.1c8.1 7.5 8.5 20.2 1 28.3-4 4.3-9.4 6.4-14.7 6.4zM309.1 315.3c-4.3 0-8.7-1.4-12.3-4.2-8.7-6.8-10.2-19.4-3.4-28.1l104.9-134.1c6.8-8.7 19.4-10.2 28.1-3.4 8.7 6.8 10.2 19.4 3.4 28.1l-105 134c-3.9 5-9.8 7.7-15.7 7.7z" fill="#009588" p-id="39536"></path><path d="M93.4 117.7m-52.3 0a52.3 52.3 0 1 0 104.6 0 52.3 52.3 0 1 0-104.6 0Z" fill="#009588" p-id="39537"></path><path d="M424.4 136.3m-44.7 0a44.7 44.7 0 1 0 89.4 0 44.7 44.7 0 1 0-89.4 0Z" fill="#009588" p-id="39538"></path><path d="M913.9 529.6H794.2c-10.9 0-19.7-8.8-19.7-19.7 0-10.9 8.8-19.7 19.7-19.7h119.7v39.4zM913.9 617.6H794.2c-10.9 0-19.7-8.8-19.7-19.7 0-10.9 8.8-19.7 19.7-19.7h119.7v39.4z" fill="#FFFFFF" p-id="39539"></path><path d="M817.8 689.2m-16.3 0a16.3 16.3 0 1 0 32.6 0 16.3 16.3 0 1 0-32.6 0Z" fill="#FFFFFF" p-id="39540"></path><path d="M467.2 599.5l-122.6-70.8c-6.5-3.7-14.6 0.9-14.6 8.4v141.6c0 7.5 8.1 12.2 14.6 8.4l122.6-70.8c6.5-3.7 6.5-13 0-16.8z" fill="#00CFBA" p-id="39541"></path></svg>