<?xml version="1.0" standalone="no"?><!DOCTYPE svg PUBLIC "-//W3C//DTD SVG 1.1//EN" "http://www.w3.org/Graphics/SVG/1.1/DTD/svg11.dtd"><svg t="1645191925034" class="icon" viewBox="0 0 1024 1024" version="1.1" xmlns="http://www.w3.org/2000/svg" p-id="41459" xmlns:xlink="http://www.w3.org/1999/xlink" width="200" height="200"><defs><style type="text/css"></style></defs><path d="M516.352 511.1808m-434.9952 0a434.9952 434.9952 0 1 0 869.9904 0 434.9952 434.9952 0 1 0-869.9904 0Z" fill="#6FCBF6" p-id="41460"></path><path d="M85.7088 571.9552a430.6432 374.2208 0 1 0 861.2864 0 430.6432 374.2208 0 1 0-861.2864 0Z" fill="#68BEF3" p-id="41461"></path><path d="M98.7136 632.6784a417.6384 313.4976 0 1 0 835.2768 0 417.6384 313.4976 0 1 0-835.2768 0Z" fill="#5CAAF0" p-id="41462"></path><path d="M121.3952 693.4528a394.9568 252.7232 0 1 0 789.9136 0 394.9568 252.7232 0 1 0-789.9136 0Z" fill="#4F94EB" p-id="41463"></path><path d="M170.4448 774.8608a345.9072 171.3152 0 1 0 691.8144 0 345.9072 171.3152 0 1 0-691.8144 0Z" fill="#3A8CE6" p-id="41464"></path><path d="M461.8752 703.6928c-13.7216 0-27.4944-3.6352-39.9872-10.8544-25.0368-14.4384-39.9872-40.3456-39.9872-69.2736V398.848c0-28.928 14.9504-54.8352 39.9872-69.2736 25.0368-14.4384 54.9376-14.4384 80.0256 0l194.6112 112.3328c25.0368 14.4384 39.9872 40.3456 39.9872 69.2736s-14.9504 54.8352-39.9872 69.2736l-194.6112 112.3328c-12.5952 7.2704-26.3168 10.9056-40.0384 10.9056z m1.8944-301.568v218.112l188.8768-109.056-188.8768-109.056z" fill="#FFFFFF" p-id="41465"></path></svg>