<?xml version="1.0" standalone="no"?><!DOCTYPE svg PUBLIC "-//W3C//DTD SVG 1.1//EN" "http://www.w3.org/Graphics/SVG/1.1/DTD/svg11.dtd"><svg t="1653291479752" class="icon" viewBox="0 0 1024 1024" version="1.1" xmlns="http://www.w3.org/2000/svg" p-id="42664" xmlns:xlink="http://www.w3.org/1999/xlink" width="200" height="200"><defs><style type="text/css">@font-face { font-family: feedback-iconfont; src: url("//at.alicdn.com/t/font_1031158_u69w8yhxdu.woff2?t=1630033759944") format("woff2"), url("//at.alicdn.com/t/font_1031158_u69w8yhxdu.woff?t=1630033759944") format("woff"), url("//at.alicdn.com/t/font_1031158_u69w8yhxdu.ttf?t=1630033759944") format("truetype"); }
</style></defs><path d="M512 512m-422.4 0a422.4 422.4 0 1 0 844.8 0 422.4 422.4 0 1 0-844.8 0Z" fill="#119BF6" p-id="42665"></path><path d="M736 544H294.4c-19.2 0-32-12.8-32-32s12.8-32 32-32h435.2c19.2 0 38.4 12.8 38.4 32s-19.2 32-32 32z" fill="#FFFFFF" p-id="42666"></path><path d="M736 544c-6.4 0-19.2 0-19.2-6.4L512 339.2c-12.8-12.8-12.8-32 0-44.8 12.8-12.8 32-12.8 44.8 0l198.4 192c12.8 12.8 12.8 32 0 44.8-6.4 12.8-12.8 12.8-19.2 12.8z" fill="#FFFFFF" p-id="42667"></path><path d="M537.6 742.4c-6.4 0-19.2 0-19.2-6.4-12.8-12.8-12.8-32 0-44.8l192-198.4c12.8-12.8 32-12.8 44.8 0 12.8 12.8 12.8 32 0 44.8l-192 198.4c-6.4 6.4-12.8 6.4-25.6 6.4z" fill="#FFFFFF" p-id="42668"></path></svg>