<?xml version="1.0" standalone="no"?><!DOCTYPE svg PUBLIC "-//W3C//DTD SVG 1.1//EN" "http://www.w3.org/Graphics/SVG/1.1/DTD/svg11.dtd"><svg t="1653291125962" class="icon" viewBox="0 0 1024 1024" version="1.1" xmlns="http://www.w3.org/2000/svg" p-id="27747" xmlns:xlink="http://www.w3.org/1999/xlink" width="200" height="200"><defs><style type="text/css">@font-face { font-family: feedback-iconfont; src: url("//at.alicdn.com/t/font_1031158_u69w8yhxdu.woff2?t=1630033759944") format("woff2"), url("//at.alicdn.com/t/font_1031158_u69w8yhxdu.woff?t=1630033759944") format("woff"), url("//at.alicdn.com/t/font_1031158_u69w8yhxdu.ttf?t=1630033759944") format("truetype"); }
</style></defs><path d="M507.904 520.96m-450.816 0a450.816 450.816 0 1 0 901.632 0 450.816 450.816 0 1 0-901.632 0Z" fill="#FFF1DC" p-id="27748"></path><path d="M691.3536 249.4976l-102.656 73.0112v-29.9008c0-43.008-48.5376-68.0448-83.5584-43.1104l-321.024 228.352c-29.6448 21.0944-29.6448 65.1264 0 86.2208l321.024 228.352c35.0208 24.9344 83.5584-0.1024 83.5584-43.1104v-29.9008l102.656 73.0112c35.0208 24.9344 83.5584-0.1024 83.5584-43.1104v-456.704c0-43.008-48.5376-68.0448-83.5584-43.1104z m-197.12 191.5392L347.1872 531.968a35.77344 35.77344 0 0 1-49.3056-11.6224 35.87584 35.87584 0 0 1 11.6224-49.3568l147.0464-90.9312c16.8448-10.3936 38.912-5.2224 49.3568 11.6224s5.1712 38.9632-11.6736 49.3568z" fill="#FC7032" p-id="27749"></path><path d="M774.912 292.608c0-43.008-48.5376-68.0448-83.5584-43.1104l-102.656 73.0112v-29.9008c0-43.008-48.5376-68.0448-83.5584-43.1104l-321.024 228.352c-29.6448 21.0944-29.6448 65.1264 0 86.2208l321.024 228.352c35.0208 24.9344 83.5584-0.1024 83.5584-43.1104v-29.9008l46.7968 33.28c63.1296-50.8928 111.9232-118.784 139.4176-196.7616V292.608zM494.2336 441.0368L347.1872 531.968a35.77344 35.77344 0 0 1-49.3056-11.6224 35.87584 35.87584 0 0 1 11.6224-49.3568l147.0464-90.9312c16.8448-10.3936 38.912-5.2224 49.3568 11.6224s5.1712 38.9632-11.6736 49.3568z" fill="#FF8345" p-id="27750"></path><path d="M679.2704 258.0992l-90.5216 64.4096v-29.9008c0-43.008-48.5376-68.0448-83.5584-43.1104l-321.024 228.352c-29.6448 21.0944-29.6448 65.1264 0 86.2208l163.0208 115.968c189.2352-47.9744 329.5744-218.368 332.0832-421.9392z m-381.44 262.2464a35.87584 35.87584 0 0 1 11.6224-49.3568l147.0464-90.9312c16.8448-10.3936 38.912-5.2224 49.3568 11.6224s5.2224 38.912-11.6224 49.3568L347.1872 531.968a35.6864 35.6864 0 0 1-18.7904 5.376c-12.032 0-23.7568-6.0416-30.5664-16.9984z" fill="#FF9552" p-id="27751"></path><path d="M505.1392 249.4976l-321.024 228.352c-19.4048 13.824-26.0608 37.4272-20.0192 58.0608 45.1584-3.7376 88.3712-14.1824 128.6656-30.5152-1.4336-13.312 4.608-26.88 16.7424-34.4064l147.0464-90.9312c3.9936-2.4576 8.2944-4.0448 12.6464-4.8128a439.82848 439.82848 0 0 0 75.2128-134.912c-13.0048-2.1504-26.9824 0.4096-39.2704 9.1648z" fill="#FFA56A" p-id="27752"></path></svg>