<?xml version="1.0" standalone="no"?><!DOCTYPE svg PUBLIC "-//W3C//DTD SVG 1.1//EN" "http://www.w3.org/Graphics/SVG/1.1/DTD/svg11.dtd"><svg t="1653290877719" class="icon" viewBox="0 0 1024 1024" version="1.1" xmlns="http://www.w3.org/2000/svg" p-id="1254" xmlns:xlink="http://www.w3.org/1999/xlink" width="200" height="200"><defs><style type="text/css">@font-face { font-family: feedback-iconfont; src: url("//at.alicdn.com/t/font_1031158_u69w8yhxdu.woff2?t=1630033759944") format("woff2"), url("//at.alicdn.com/t/font_1031158_u69w8yhxdu.woff?t=1630033759944") format("woff"), url("//at.alicdn.com/t/font_1031158_u69w8yhxdu.ttf?t=1630033759944") format("truetype"); }
</style></defs><path d="M961.99296874 511.99296875c0-248.50861699-201.48435175-449.99296874-449.99296874-449.99296874s-449.99296874 201.48435175-449.99296874 449.99296874 201.48435175 449.99296874 449.99296874 449.99296874S961.99296875 760.50158574 961.99296874 511.99296875zM398.46114863 698.12131045l-158.97407871-158.94595371c-1.53278877-1.47653964-2.9390168-3.10776416-4.12024834-4.92179854-0.56249121-0.85779933-0.95623506-1.75778526-1.42029052-2.64370869-0.33749472-0.68905195-0.7734252-1.32185479-1.0546708-2.03903086-0.59061622-1.40622801-0.98436006-2.85464268-1.33591641-4.34524482-0.07031162-0.2953081-0.19687237-0.57655372-0.25312148-0.88592344-0.32343222-1.64528701-0.47811797-3.31869815-0.50624209-4.99210927 0-0.22499648-0.05624912-0.37968135-0.05624913-0.60467784 0-0.2953081 0.08437412-0.60467783 0.09843575-0.92811094-0.2812456-7.41082148 2.33433896-14.86383047 7.95925107-20.48874257L398.47521113 337.69100498c10.84201787-10.82795625 28.5042419-10.687333 39.50094551 0.2953081 11.01076523 10.98264112 11.12326347 28.64486513 0.2812456 39.50094551l-113.14510752 113.15916914L765.51478878 490.64642773c15.32788594 0 27.7308167 12.59980313 27.71675419 28.12456055 0.04218662 15.56694404-12.38886914 28.12456055-27.7167542 28.12456055L326.79976836 546.89554883l111.45763388 111.45763388c10.82795625 10.84201787 10.687333 28.5042419-0.2953081 39.50094552C426.96539141 708.86489258 409.30316738 708.97739082 398.46114863 698.12131045z" fill="#2a97e3" p-id="1255"></path></svg>