<?xml version="1.0" standalone="no"?><!DOCTYPE svg PUBLIC "-//W3C//DTD SVG 1.1//EN" "http://www.w3.org/Graphics/SVG/1.1/DTD/svg11.dtd"><svg t="1638079040677" class="icon" viewBox="0 0 1024 1024" version="1.1" xmlns="http://www.w3.org/2000/svg" p-id="20029" xmlns:xlink="http://www.w3.org/1999/xlink" width="50" height="50"><defs><style type="text/css"></style></defs><path d="M951.7 430.4H902c-10.3-48.3-29.3-93.4-55.4-133.5l35.2-35.2c23.5-23.5 23.5-62 0-85.5L849.6 144c-23.5-23.5-62-23.5-85.5 0L729 179.3c-40.1-26-85.2-45.1-133.5-55.4V74.2c0-33.2-27.2-60.5-60.4-60.5h-45.5c-33.2 0-60.5 27.2-60.5 60.5v49.7c-48.3 10.3-93.4 29.3-133.5 55.4l-35.2-35.2c-23.5-23.5-62-23.5-85.5 0l-32.2 32.2c-23.5 23.5-23.5 62 0 85.5l35.2 35.2c-26 40.1-45.1 85.2-55.4 133.5H72.9c-33.2 0-60.5 27.2-60.5 60.4v45.5c0 33.2 27.2 60.4 60.5 60.4h49.7c10.3 48.3 29.3 93.4 55.4 133.5l-35.2 35.2c-23.5 23.5-23.5 62 0 85.5l32.2 32.2c23.5 23.5 62 23.5 85.5 0l35.2-35.2c40.1 26 85.2 45.1 133.5 55.4V953c0 33.2 27.2 60.5 60.5 60.5H535c33.2 0 60.4-27.2 60.4-60.5v-49.7C643.8 893.1 688.8 874 729 848l35.2 35.2c23.5 23.5 62 23.5 85.5 0l32.2-32.2c23.5-23.5 23.5-62 0-85.5l-35.2-35.2c26-40.1 45.1-85.2 55.4-133.5h49.7c33.2 0 60.4-27.2 60.4-60.4v-45.5c-0.1-33.3-27.3-60.5-60.5-60.5zM512.3 783.1c-148.8 0-269.5-120.7-269.5-269.5s120.7-269.5 269.5-269.5 269.5 120.7 269.5 269.5-120.7 269.5-269.5 269.5z" fill="#83C6EF" p-id="20030"></path><path d="M512.3 513.6m-197.7 0a197.7 197.7 0 1 0 395.4 0 197.7 197.7 0 1 0-395.4 0Z" fill="#1A7FC0" p-id="20031"></path><path d="M512.3 316v395.3c109.2 0 197.7-88.5 197.7-197.7S621.4 316 512.3 316z" fill="#2D416C" p-id="20032"></path><path d="M512.3 513.6m-145.7 0a145.7 145.7 0 1 0 291.4 0 145.7 145.7 0 1 0-291.4 0Z" fill="#FFD96B" p-id="20033"></path><path d="M951.7 430.4H902c-10.3-48.3-29.3-93.4-55.4-133.5l35.2-35.2c23.5-23.5 23.5-62 0-85.5L849.6 144c-23.5-23.5-62-23.5-85.5 0L729 179.3c-40.1-26-85.2-45.1-133.5-55.4V74.2c0-33.2-27.2-60.5-60.5-60.5h-22.8v230.4c148.8 0 269.5 120.7 269.5 269.5S661.1 783.1 512.3 783.1v230.4H535c33.2 0 60.5-27.2 60.5-60.5v-49.7C643.8 893.1 688.8 874 729 848l35.2 35.2c23.5 23.5 62 23.5 85.5 0l32.2-32.2c23.5-23.5 23.5-62 0-85.5l-35.2-35.2c26-40.1 45.1-85.2 55.4-133.5h49.7c33.2 0 60.5-27.2 60.5-60.4v-45.5c-0.2-33.3-27.4-60.5-60.6-60.5z" fill="#429BCF" p-id="20034"></path><path d="M512.3 367.9v291.4c80.5 0 145.7-65.2 145.7-145.7-0.1-80.4-65.3-145.7-145.7-145.7z" fill="#FFB103" p-id="20035"></path><path d="M512.3 513.6m-70.3 0a70.3 70.3 0 1 0 140.6 0 70.3 70.3 0 1 0-140.6 0Z" fill="#FFFFFF" p-id="20036"></path><path d="M512.3 443.3v140.6c38.8 0 70.3-31.5 70.3-70.3s-31.5-70.3-70.3-70.3z" fill="#D2EDF7" p-id="20037"></path></svg>