<?xml version="1.0" standalone="no"?><!DOCTYPE svg PUBLIC "-//W3C//DTD SVG 1.1//EN" "http://www.w3.org/Graphics/SVG/1.1/DTD/svg11.dtd"><svg t="1653291073604" class="icon" viewBox="0 0 1024 1024" version="1.1" xmlns="http://www.w3.org/2000/svg" p-id="21515" xmlns:xlink="http://www.w3.org/1999/xlink" width="200" height="200"><defs><style type="text/css">@font-face { font-family: feedback-iconfont; src: url("//at.alicdn.com/t/font_1031158_u69w8yhxdu.woff2?t=1630033759944") format("woff2"), url("//at.alicdn.com/t/font_1031158_u69w8yhxdu.woff?t=1630033759944") format("woff"), url("//at.alicdn.com/t/font_1031158_u69w8yhxdu.ttf?t=1630033759944") format("truetype"); }
</style></defs><path d="M166.521 501.071c0-188.28 152.604-340.88300001 340.883-340.883 188.252 0 340.882 152.60299999 340.882 340.883 0 188.278-152.629 340.881-340.882 340.881-188.28 0.001-340.883-152.603-340.883-340.881" fill="#F7E946" p-id="21516"></path><path d="M147.904 516.672c13.31399999 0 24.569 10.25 25.627 23.717 2.01000001 25.803 6.982 51.579 14.772 76.653 55.899 179.813 248.651 284.002 429.468 232.373 13.542-3.769 27.889 3.99399999 31.808 17.687 3.894 13.667-4.02 27.88799999-17.687 31.807-207.524 59.28-428.616-60.34800001-492.732-266.591-8.919-28.741-14.62300001-58.312-16.935-87.909-1.106-14.169 9.47200001-26.555 23.643-27.661a27.16 27.16 0 0 1 2.036-0.076zM762.136 776.02700001c7.385 0 14.72100001 3.166 19.797 9.27099999 9.094 10.929 7.612 27.134-3.316 36.229-19.975 16.632-41.557 31.28-64.117 43.565-12.562 6.833-28.139 2.186-34.898-10.276-6.80800001-12.486-2.185-28.113 10.276-34.897 19.646-10.703 38.438-23.466 55.824-37.938a25.665 25.665 0 0 1 16.434-5.95399999zM521.798 112.377c170.944 0 329.728 110.32 383.09099999 281.968 36.355 117.00100001 17.764 242.345-50.95099999 343.896-7.964 11.732-23.967 14.82200001-35.725 6.884-11.758-7.965-14.849-23.968-6.885-35.727 59.921-88.537 76.101-197.801 44.419-299.778-57.207-183.984-253.50000001-287.244-437.433-229.987-29.923 9.298-58.362 22.463-84.518 39.17-11.95900001 7.661-27.888 4.17-35.525-7.84-7.638-11.98299999-4.145-27.888 7.839-35.524 30.024-19.17 62.634-34.295 96.928-44.947 39.469-12.262 79.441-18.11500001 118.76-18.115z" fill="#213847" p-id="21517"></path><path d="M614.858 347.513a25.658 25.658 0 0 1 12.412 3.19 25.73 25.73 0 0 1 13.314 22.537L640.584 653.473c0 9.371-5.1 18.014-13.314 22.536-8.191 4.522-18.216 4.221-26.154-0.779l-221.695-140.143a25.757 25.757 0 0 1-11.985-21.756c0-8.82 4.523-17.035 11.985-21.758L601.116 351.481a25.818 25.818 0 0 1 13.742-3.968z m-25.728 259.254L589.13 419.92l-147.803 93.412 147.803 93.435z" fill="#213847" p-id="21518"></path><path d="M373.365 279.98l-167.651 17.033 56.528-158.758z" fill="#FFF42E" p-id="21519"></path><path d="M262.242 112.52699999a25.709 25.709 0 0 1 20.251 9.84900001L393.617 264.102a25.767 25.767 0 0 1 3.417 25.952 25.744 25.744 0 0 1-21.056 15.52699999l-167.652 17.03300001c-8.969 0.805-17.436-2.789-22.863-9.723-5.451-6.936-6.93299999-16.205-3.99300001-24.495l56.52700001-158.759c3.168-8.844 10.854-15.274 20.1-16.783a25.629 25.629 0 0 1 4.145-0.32700001z m62.057 146.57400001l-53.488-68.211-27.21 76.428 80.698-8.217z" fill="#213847" p-id="21520"></path></svg>