<?xml version="1.0" standalone="no"?><!DOCTYPE svg PUBLIC "-//W3C//DTD SVG 1.1//EN" "http://www.w3.org/Graphics/SVG/1.1/DTD/svg11.dtd"><svg t="1653291141871" class="icon" viewBox="0 0 1024 1024" version="1.1" xmlns="http://www.w3.org/2000/svg" p-id="29239" xmlns:xlink="http://www.w3.org/1999/xlink" width="200" height="200"><defs><style type="text/css">@font-face { font-family: feedback-iconfont; src: url("//at.alicdn.com/t/font_1031158_u69w8yhxdu.woff2?t=1630033759944") format("woff2"), url("//at.alicdn.com/t/font_1031158_u69w8yhxdu.woff?t=1630033759944") format("woff"), url("//at.alicdn.com/t/font_1031158_u69w8yhxdu.ttf?t=1630033759944") format("truetype"); }
</style></defs><path d="M507.136 520.96m-450.816 0a450.816 450.816 0 1 0 901.632 0 450.816 450.816 0 1 0-901.632 0Z" fill="#FFF1DC" p-id="29240"></path><path d="M241.3056 292.608v456.704c0 43.008 48.5376 68.0448 83.5584 43.1104l102.656-73.0112v29.9008c0 43.008 48.5376 68.0448 83.5584 43.1104l321.024-228.352c29.6448-21.0944 29.6448-65.1264 0-86.2208l-321.024-228.352c-35.0208-24.9344-83.5584 0.1024-83.5584 43.1104v29.9008L324.9152 249.4976c-35.0208-24.9344-83.6096 0.1024-83.6096 43.1104z m269.056 99.1232a35.81952 35.81952 0 0 1 49.3568-11.6224L706.7648 471.04a35.81952 35.81952 0 0 1 11.6224 49.3568 35.84 35.84 0 0 1-30.5152 16.9984 35.4304 35.4304 0 0 1-18.7904-5.376l-147.0464-90.9312c-16.8448-10.4448-22.0672-32.512-11.6736-49.3568z" fill="#FC7032" p-id="29241"></path><path d="M511.1296 249.4976c-35.0208-24.9344-83.5584 0.1024-83.5584 43.1104v29.9008L324.9152 249.4976c-35.0208-24.9344-83.5584 0.1024-83.5584 43.1104v456.704c0 43.008 48.5376 68.0448 83.5584 43.1104l102.656-73.0112v29.9008c0 13.056 4.5056 24.4224 11.6736 33.2288 118.3744-41.6256 213.6576-132.2496 261.376-247.6032a35.4304 35.4304 0 0 1-31.488-3.0208l-147.0464-90.9312c-16.8448-10.3936-22.0672-32.512-11.6224-49.3568s32.512-22.0672 49.3568-11.6224l147.0464 90.9312c4.9152 3.0208 8.8064 7.1168 11.6736 11.7248 6.7072-24.576 11.3152-49.9712 13.6704-76.032L511.1296 249.4976z" fill="#FF8345" p-id="29242"></path><path d="M427.5712 292.608v29.9008L324.9152 249.4976c-35.0208-24.9344-83.5584 0.1024-83.5584 43.1104v352.8704c124.928-19.6096 232.3968-91.6992 299.264-192.9728l-18.5856-11.4688c-16.8448-10.3936-22.0672-32.512-11.6224-49.3568s32.512-22.0672 49.3568-11.6224l15.36 9.5232c10.8544-24.32 19.6096-49.7664 25.9584-76.1344L511.1296 249.4976c-35.0208-24.9344-83.5584 0.1024-83.5584 43.1104z" fill="#FF9552" p-id="29243"></path><path d="M416.8192 314.88L324.9152 249.4976c-35.0208-24.9344-83.5584 0.1024-83.5584 43.1104v163.84A442.2656 442.2656 0 0 0 416.8192 314.88zM459.4176 244.0704c-18.1248 7.8848-31.8464 25.7024-31.8464 48.5376v7.168c11.8784-17.7152 22.528-36.3008 31.8464-55.7056z" fill="#FFA56A" p-id="29244"></path></svg>