<?xml version="1.0" standalone="no"?><!DOCTYPE svg PUBLIC "-//W3C//DTD SVG 1.1//EN" "http://www.w3.org/Graphics/SVG/1.1/DTD/svg11.dtd"><svg t="1653290886069" class="icon" viewBox="0 0 1024 1024" version="1.1" xmlns="http://www.w3.org/2000/svg" p-id="1390" xmlns:xlink="http://www.w3.org/1999/xlink" width="200" height="200"><defs><style type="text/css">@font-face { font-family: feedback-iconfont; src: url("//at.alicdn.com/t/font_1031158_u69w8yhxdu.woff2?t=1630033759944") format("woff2"), url("//at.alicdn.com/t/font_1031158_u69w8yhxdu.woff?t=1630033759944") format("woff"), url("//at.alicdn.com/t/font_1031158_u69w8yhxdu.ttf?t=1630033759944") format("truetype"); }
</style></defs><path d="M0.008 512.008c0 282.747582 229.244418 511.992 511.992 511.992s511.992-229.244418 511.992-511.992-229.244418-511.992-511.992-511.992S0.008 229.260418 0.008 512.008zM641.181982 300.235309l180.877174 180.845174c1.743973 1.679974 3.343948 3.535945 4.687927 5.599913 0.63999 0.975985 1.087983 1.999969 1.615975 3.007953 0.383994 0.783988 0.879986 1.503977 1.199981 2.319964 0.67199 1.599975 1.119983 3.247949 1.519976 4.943923 0.079999 0.335995 0.223997 0.65599 0.287996 1.007984 0.367994 1.871971 0.543992 3.775941 0.575991 5.679911 0 0.255996 0.063999 0.431993 0.063999 0.687989 0 0.335995-0.095999 0.687989-0.111998 1.055984 0.319995 8.431868-2.655959 16.911736-9.055859 23.311636L641.165982 710.324901c-12.335807 12.319808-32.431493 12.15981-44.943298-0.335995-12.527804-12.495805-12.655802-32.591491-0.319995-44.943298l128.733989-128.749988L223.556507 536.29562c-17.439728 0-31.551507-14.335776-31.535507-31.9995-0.047999-17.711723 14.09578-31.9995 31.535507-31.9995L722.716708 472.29662l-126.814019-126.814019c-12.319808-12.335807-12.15981-32.431493 0.335995-44.943298C608.750488 288.0115 628.846174 287.883502 641.181982 300.235309z" fill="#2a97e3" p-id="1391"></path></svg>