<?xml version="1.0" standalone="no"?><!DOCTYPE svg PUBLIC "-//W3C//DTD SVG 1.1//EN" "http://www.w3.org/Graphics/SVG/1.1/DTD/svg11.dtd"><svg t="1657634065337" class="icon" viewBox="0 0 1024 1024" version="1.1" xmlns="http://www.w3.org/2000/svg" p-id="2523" xmlns:xlink="http://www.w3.org/1999/xlink" width="200" height="200"><defs><style type="text/css">@font-face { font-family: feedback-iconfont; src: url("//at.alicdn.com/t/font_1031158_u69w8yhxdu.woff2?t=1630033759944") format("woff2"), url("//at.alicdn.com/t/font_1031158_u69w8yhxdu.woff?t=1630033759944") format("woff"), url("//at.alicdn.com/t/font_1031158_u69w8yhxdu.ttf?t=1630033759944") format("truetype"); }
</style></defs><path d="M1022.293364 470.409918a511.990827 511.990827 0 1 0-551.883445 551.883446 513.484133 513.484133 0 0 0 551.883445-551.883446z m-285.434886 155.730544l-190.289924 161.27711a53.759037 53.759037 0 0 1-69.118761 0l-190.289924-161.27711a53.332378 53.332378 0 0 1-6.186556-75.091988 53.332378 53.332378 0 0 1 75.305317-6.186556l14.506407 12.373112a53.332378 53.332378 0 0 0 87.891759-40.745937V330.679089A53.332378 53.332378 0 0 1 512.009173 277.346711a53.332378 53.332378 0 0 1 53.332378 53.332378v185.810004a53.332378 53.332378 0 0 0 87.891759 40.745937l14.506407-12.373112a53.332378 53.332378 0 1 1 69.118761 81.278544z" fill="#927DD5" p-id="2524"></path></svg>