<?xml version="1.0" standalone="no"?><!DOCTYPE svg PUBLIC "-//W3C//DTD SVG 1.1//EN" "http://www.w3.org/Graphics/SVG/1.1/DTD/svg11.dtd"><svg t="1638079024913" class="icon" viewBox="0 0 1024 1024" version="1.1" xmlns="http://www.w3.org/2000/svg" p-id="18894" xmlns:xlink="http://www.w3.org/1999/xlink" width="50" height="50"><defs><style type="text/css"></style></defs><path d="M512 512m-512 0a512 512 0 1 0 1024 0 512 512 0 1 0-1024 0Z" fill="#E9F7FA" p-id="18895"></path><path d="M746.954018 570.738504l-78.476545-45.65908c0-5.23177 1.664654-10.225732 1.664654-15.695309a139.11751 139.11751 0 0 0-2.140269-19.73804l77.049698-44.232234a9.750116 9.750116 0 0 0 3.567116-13.079424l-53.506735-92.745007a9.274501 9.274501 0 0 0-12.841617-3.567116l-72.531351 41.61635a9.987924 9.987924 0 0 1-9.987924 0 156.477473 156.477473 0 0 0-21.878309-13.079424 9.036693 9.036693 0 0 1-5.469578-8.32327v-80.141198a9.512308 9.512308 0 0 0-9.512308-9.750117h-107.01347a9.512308 9.512308 0 0 0-9.512308 9.750117V356.711565a9.036693 9.036693 0 0 1-5.469577 8.32327 147.44078 147.44078 0 0 0-22.116117 13.317232 9.512308 9.512308 0 0 1-10.225732 0l-67.299582-39.951695a9.512308 9.512308 0 0 0-13.079424 3.329308l-54.695773 92.269391a9.512308 9.512308 0 0 0 3.329308 13.079424l73.958198 43.518811a129.129587 129.129587 0 0 0-2.14027 19.262425 159.093358 159.093358 0 0 0 2.14027 21.402694l-72.76916 41.140733a9.512308 9.512308 0 0 0-3.567115 13.079424l52.793311 93.220623a9.750116 9.750116 0 0 0 13.079424 3.567115L410.2183 642.080817a9.987924 9.987924 0 0 1 9.987924 0 150.770088 150.770088 0 0 0 23.780771 13.55504 9.512308 9.512308 0 0 1 5.707385 8.561078v78.476544a9.274501 9.274501 0 0 0 9.274501 9.512308h107.251277a9.274501 9.274501 0 0 0 9.512308-9.512308v-82.994891a9.750116 9.750116 0 0 1 5.469578-8.32327 195.002322 195.002322 0 0 0 21.164886-13.079424 9.036693 9.036693 0 0 1 10.225731 0l71.342313 41.140734a9.750116 9.750116 0 0 0 13.079425-3.567116l53.98235-92.507199a9.512308 9.512308 0 0 0-4.042731-12.603809z" fill="#FF912E" p-id="18896"></path><path d="M566.220158 760.984673H458.968881a16.884347 16.884347 0 0 1-11.652578-4.993962 16.64654 16.64654 0 0 1-4.756154-11.652578V665.861588a2.140269 2.140269 0 0 0-1.426847-2.140269 175.739898 175.739898 0 0 1-25.207617-14.268463 2.615885 2.615885 0 0 0-2.615885 0L343.632141 689.642359a16.408732 16.408732 0 0 1-22.353925-6.183l-52.793311-93.220622a16.408732 16.408732 0 0 1 6.183-22.353925l68.726428-39.000465a102.732931 102.732931 0 0 1-1.664653-17.59777 106.537854 106.537854 0 0 1 1.426846-15.219694l-69.677659-42.805387a15.457501 15.457501 0 0 1-7.609847-9.987924 16.64654 16.64654 0 0 1 1.664654-12.603809l54.695773-92.269391a14.981886 14.981886 0 0 1 9.987924-7.372039 16.64654 16.64654 0 0 1 12.603809 1.664654l67.299582 39.951695a2.615885 2.615885 0 0 0 2.615885 0 151.245704 151.245704 0 0 1 23.780771-13.792847 2.378077 2.378077 0 0 0 1.426846-2.14027v-80.616813a16.64654 16.64654 0 0 1 16.64654-16.64654h107.013469a16.64654 16.64654 0 0 1 16.64654 16.64654V356.711565a2.378077 2.378077 0 0 0 1.426846 2.14027 142.684626 142.684626 0 0 1 22.591733 13.555039 3.0915 3.0915 0 0 0 2.853692 0l71.342313-41.378541a15.695309 15.695309 0 0 1 12.603809-1.664654 16.884347 16.884347 0 0 1 9.987924 7.609846l53.268927 92.982815a16.408732 16.408732 0 0 1-5.945193 22.353925l-73.006967 42.091964a116.763586 116.763586 0 0 1 1.426846 15.933117 88.702276 88.702276 0 0 1 0 11.176962l74.671621 43.518811a15.457501 15.457501 0 0 1 7.609847 9.987924 16.64654 16.64654 0 0 1-1.664654 12.603809l-53.98235 92.507199a16.64654 16.64654 0 0 1-22.591733 5.945193l-71.342313-41.140734a2.615885 2.615885 0 0 0-2.615885 0 160.520204 160.520204 0 0 1-22.116117 13.792847 2.378077 2.378077 0 0 0-1.426846 2.14027v83.232698a16.64654 16.64654 0 0 1-4.756154 11.652578 17.122155 17.122155 0 0 1-12.366001 5.23177z m-151.245704-126.513702a15.695309 15.695309 0 0 1 9.036693 2.853692 148.392011 148.392011 0 0 0 23.780771 12.841617 16.408732 16.408732 0 0 1 9.750116 14.981885v78.476545a2.378077 2.378077 0 0 0 2.615885 2.615885h107.01347a2.378077 2.378077 0 0 0 2.615885-2.615885v-82.994891a16.408732 16.408732 0 0 1 9.036693-14.50627 156.477473 156.477473 0 0 0 20.213655-12.603809 16.64654 16.64654 0 0 1 18.073386 0l71.342313 40.902926a2.853693 2.853693 0 0 0 3.567116 0l53.98235-92.507199a2.853693 2.853693 0 0 0 0-1.902462 3.567116 3.567116 0 0 0-1.189039-1.664654L665.861588 531.73804a6.896424 6.896424 0 0 1-3.329307-6.658616v-5.707385a60.878774 60.878774 0 0 0 0-9.274501 90.604738 90.604738 0 0 0-1.189039-14.030655v-4.756154a6.896424 6.896424 0 0 1 3.567116-6.896423l76.81189-44.232234a1.902462 1.902462 0 0 0 1.189039-1.664654 1.902462 1.902462 0 0 0 0-1.902462L689.642359 343.632141a2.615885 2.615885 0 0 0-3.567115 0l-71.342313 41.616349a16.884347 16.884347 0 0 1-17.597771 0 150.294473 150.294473 0 0 0-20.927078-12.366 16.64654 16.64654 0 0 1-9.274501-14.744078v-82.04366a2.615885 2.615885 0 0 0-2.615885-2.615885h-107.013469a2.615885 2.615885 0 0 0-2.615885 2.615885V356.711565a16.64654 16.64654 0 0 1-9.274501 14.744078 145.300511 145.300511 0 0 0-21.164886 12.603809 17.122155 17.122155 0 0 1-17.835578 0l-68.726429-39.47608a3.567116 3.567116 0 0 0-2.140269 0 5.23177 5.23177 0 0 0-1.426846 0l-54.457966 92.269392a2.140269 2.140269 0 0 0 0 1.902461 3.567116 3.567116 0 0 0 0 1.664654l73.72039 43.518811a7.372039 7.372039 0 0 1 3.567116 6.896424v4.993962a83.946122 83.946122 0 0 0 0 13.317231 131.032048 131.032048 0 0 0 1.426846 16.64654v3.804924a6.658616 6.658616 0 0 1-3.329308 6.896423l-72.769159 41.140734a2.615885 2.615885 0 0 0 0 3.567116L332.930794 675.373897a2.615885 2.615885 0 0 0 3.567116 0l69.915467-39.47608a15.933117 15.933117 0 0 1 8.561077-1.189039z" fill="#170901" p-id="18897"></path><path d="M512 510.335346m-111.294008 0a111.294008 111.294008 0 1 0 222.588016 0 111.294008 111.294008 0 1 0-222.588016 0Z" fill="#FFFFFF" p-id="18898"></path><path d="M710.807246 856.107757h-198.807246a345.296795 345.296795 0 1 1 345.296795-345.772411 11.890386 11.890386 0 0 1-11.890385 11.890386 11.890386 11.890386 0 0 1-11.890386-11.890386A321.516024 321.516024 0 1 0 512 832.326986h198.807246a12.128193 12.128193 0 0 1 11.890385 11.890385 11.890386 11.890386 0 0 1-11.890385 11.890386z" fill="#24A5CC" p-id="18899"></path><path d="M686.313052 885.120297a11.176962 11.176962 0 0 1-8.32327-3.567115 11.890386 11.890386 0 0 1 0-16.884348l20.927078-20.927078-20.927078-20.927079a11.890386 11.890386 0 0 1 0-16.884347 11.890386 11.890386 0 0 1 16.646539 0l29.488156 29.488156a11.890386 11.890386 0 0 1 3.329308 8.32327 12.366001 12.366001 0 0 1-3.329308 8.561077l-29.488156 29.250349a11.652578 11.652578 0 0 1-8.323269 3.567115z" fill="#24A5CC" p-id="18900"></path></svg>