<?xml version="1.0" standalone="no"?><!DOCTYPE svg PUBLIC "-//W3C//DTD SVG 1.1//EN" "http://www.w3.org/Graphics/SVG/1.1/DTD/svg11.dtd"><svg t="1657634090159" class="icon" viewBox="0 0 1024 1024" version="1.1" xmlns="http://www.w3.org/2000/svg" p-id="4711" xmlns:xlink="http://www.w3.org/1999/xlink" width="200" height="200"><defs><style type="text/css">@font-face { font-family: feedback-iconfont; src: url("//at.alicdn.com/t/font_1031158_u69w8yhxdu.woff2?t=1630033759944") format("woff2"), url("//at.alicdn.com/t/font_1031158_u69w8yhxdu.woff?t=1630033759944") format("woff"), url("//at.alicdn.com/t/font_1031158_u69w8yhxdu.ttf?t=1630033759944") format("truetype"); }
</style></defs><path d="M512.1 512.1m-342.8 0a342.8 342.8 0 1 0 685.6 0 342.8 342.8 0 1 0-685.6 0Z" fill="#75AFCC" p-id="4712"></path><path d="M960.1 512.1c0 247.4-200.6 448-448 448s-448-200.6-448-448 200.6-448 448-448 448 200.6 448 448z" fill="#33B5E5" p-id="4713"></path><path d="M662.1 706.6H397.3c-25.3 0-46-20.7-46-46v-297c0-25.3 20.7-46 46-46h264.8c5.9 0 10.8 4.9 10.8 10.8v52c0 3.8-3.1 6.9-6.9 6.9h-2.5c-3.8 0-6.9-3.1-6.9-6.9V345c0-5.9-4.8-10.8-10.8-10.8H397.3c-36.5 0-38.9 63.4 0 63.4h264.8c5.9 0 10.8 4.9 10.8 10.8v287.3c0 6.1-4.9 10.9-10.8 10.9z" fill="#F9A21D" p-id="4714"></path><path d="M643.7 518.1l-13.9-18.9-14 18.9V395.2h27.9z" fill="#FF3D10" p-id="4715"></path></svg>