<?xml version="1.0" standalone="no"?><!DOCTYPE svg PUBLIC "-//W3C//DTD SVG 1.1//EN" "http://www.w3.org/Graphics/SVG/1.1/DTD/svg11.dtd"><svg t="1666434002599" class="icon" viewBox="0 0 1024 1024" version="1.1" xmlns="http://www.w3.org/2000/svg" p-id="18927" xmlns:xlink="http://www.w3.org/1999/xlink" width="200" height="200"><path d="M570.709333 730.453333H450.56c-88.064 0-159.744-71.68-159.744-159.744V450.56c0-88.064 71.68-159.744 159.744-159.744h120.149333C658.773333 290.816 730.453333 362.496 730.453333 450.56v120.149333c0 88.064-71.68 159.744-159.744 159.744z" fill="#FFE55C" p-id="18928"></path><path d="M632.832 512.682667c-5.461333 0-10.24-2.048-14.336-6.144L512.682667 401.408 407.552 506.538667c-8.192 8.192-21.162667 8.192-28.672 0-8.192-8.192-8.192-21.162667 0-28.672L498.346667 357.717333c7.509333-7.509333 21.162667-7.509333 28.672 0l119.466666 119.466667c8.192 8.192 8.192 21.162667 0 28.672-3.413333 4.778667-8.874667 6.826667-13.653333 6.826667z" fill="#4D4D4D" p-id="18929"></path><path d="M512.682667 657.408c-11.605333 0-20.48-8.874667-20.48-20.48v-266.24c0-11.605333 8.874667-20.48 20.48-20.48s20.48 8.874667 20.48 20.48v266.24c0 11.605333-8.874667 20.48-20.48 20.48z" fill="#4D4D4D" p-id="18930"></path><path d="M647.168 872.448h-273.066667c-124.245333 0-225.28-101.034667-225.28-225.28v-273.066667c0-124.245333 101.034667-225.28 225.28-225.28h273.066667c124.245333 0 225.28 101.034667 225.28 225.28v273.066667c0 124.245333-101.034667 225.28-225.28 225.28z m-273.066667-682.666667c-101.717333 0-184.32 82.602667-184.32 184.32v273.066667c0 101.717333 82.602667 184.32 184.32 184.32h273.066667c101.717333 0 184.32-82.602667 184.32-184.32v-273.066667c0-101.717333-82.602667-184.32-184.32-184.32h-273.066667z" fill="#4D4D4D" p-id="18931"></path></svg>