<?xml version="1.0" standalone="no"?><!DOCTYPE svg PUBLIC "-//W3C//DTD SVG 1.1//EN" "http://www.w3.org/Graphics/SVG/1.1/DTD/svg11.dtd"><svg t="1666435326432" class="icon" viewBox="0 0 1024 1024" version="1.1" xmlns="http://www.w3.org/2000/svg" p-id="64774" xmlns:xlink="http://www.w3.org/1999/xlink" width="200" height="200"><path d="M682.3295 791.679955H345.680378c-154.867988 0-280.51083-125.606717-280.51083-280.583081 0-154.867988 125.606717-280.51083 280.51083-280.51083h336.649122c154.976364 0 280.583081 125.606717 280.58308 280.51083 0 154.976364-125.606717 280.583081-280.58308 280.583081z m0-504.95562H345.680378c-123.908841 0-224.444789 100.427574-224.444789 224.372539s100.535949 224.444789 224.444789 224.44479h336.649122c123.908841 0 224.444789-100.535949 224.444789-224.44479 0-123.908841-100.535949-224.372539-224.444789-224.372539zM345.680378 679.439498c-92.949693 0-168.306498-75.356805-168.306498-168.306499 0-92.949693 75.356805-168.306498 168.306498-168.306498s168.306498 75.356805 168.306498 168.306498c0.036125 92.949693-75.32068 168.306498-168.306498 168.306499z m0-280.510831c-61.990545 0-112.168207 50.249912-112.168207 112.168207 0 62.02667 50.177662 112.276582 112.168207 112.276583s112.168207-50.249912 112.168207-112.276583c0.036125-61.918295-50.141537-112.168207-112.168207-112.168207z" fill="#231815" p-id="64775"></path></svg>