<?xml version="1.0" standalone="no"?><!DOCTYPE svg PUBLIC "-//W3C//DTD SVG 1.1//EN" "http://www.w3.org/Graphics/SVG/1.1/DTD/svg11.dtd"><svg t="1666435530076" class="icon" viewBox="0 0 1024 1024" version="1.1" xmlns="http://www.w3.org/2000/svg" p-id="69027" xmlns:xlink="http://www.w3.org/1999/xlink" width="200" height="200"><path d="M511.8 511.4m-423.8 0a423.8 423.8 0 1 0 847.6 0 423.8 423.8 0 1 0-847.6 0Z" fill="#1afa29" p-id="69028" data-spm-anchor-id="a313x.7781069.0.i51" class="selected"></path><path d="M511.8 959C265 959 64.2 758.2 64.2 511.4S265 63.9 511.8 63.9s447.6 200.8 447.6 447.5S758.6 959 511.8 959z m0-847.6c-220.6 0-400 179.4-400 400s179.4 400 400 400 400-179.4 400-400c0-220.5-179.5-400-400-400z" fill="#1afa29" p-id="69029" data-spm-anchor-id="a313x.7781069.0.i52" class="selected"></path><path d="M511.8 717.5c-113.7 0-206.1-92.5-206.1-206.1s92.5-206.1 206.1-206.1c13.1 0 23.8 10.6 23.8 23.8 0 13.1-10.6 23.8-23.8 23.8-87.4 0-158.6 71.1-158.6 158.5S424.3 670 511.8 670c87.4 0 158.5-71.1 158.5-158.6 0-32.4-9.7-63.6-28.1-90.1-7.5-10.8-4.8-25.6 6-33.1s25.6-4.8 33.1 6c23.9 34.5 36.6 75.1 36.6 117.2 0 113.7-92.5 206.1-206.1 206.1z" fill="#FFFFFF" p-id="69030" data-spm-anchor-id="a313x.7781069.0.i50" class=""></path><path d="M511.8 654.8c-13.1 0-23.8-10.6-23.8-23.8V391.8c0-13.1 10.6-23.8 23.8-23.8s23.8 10.6 23.8 23.8V631c0 13.2-10.7 23.8-23.8 23.8z" fill="#FFFFFF" p-id="69031"></path></svg>