<?xml version="1.0" standalone="no"?><!DOCTYPE svg PUBLIC "-//W3C//DTD SVG 1.1//EN" "http://www.w3.org/Graphics/SVG/1.1/DTD/svg11.dtd"><svg t="1666435413193" class="icon" viewBox="0 0 1024 1024" version="1.1" xmlns="http://www.w3.org/2000/svg" p-id="67890" data-spm-anchor-id="a313x.7781069.0.i48" xmlns:xlink="http://www.w3.org/1999/xlink" width="200" height="200"><path d="M464.5 64h95.2v509h-95.2z" p-id="67891" data-spm-anchor-id="a313x.7781069.0.i46" class="selected" fill="#d81e06"></path><path d="M685.9 227.7l-41 81.9c96.2 48.9 162.4 148.7 162.4 263.4 0 162.5-132.8 295.2-295.3 295.2-162.4 0-295.2-132.7-295.2-295.2 0-115.2 66.7-215.4 163.5-263.9l-0.7-0.2-41.6-81.1c-125.9 64-213 194.9-213 345.2 0 212.8 174.2 387 387 387s387-174.2 387-387c0.1-150.4-87-281.3-213.1-345.3z" p-id="67892" data-spm-anchor-id="a313x.7781069.0.i45" class="selected" fill="#d81e06"></path></svg>