<?xml version="1.0" standalone="no"?><!DOCTYPE svg PUBLIC "-//W3C//DTD SVG 1.1//EN" "http://www.w3.org/Graphics/SVG/1.1/DTD/svg11.dtd"><svg t="1676110815478" class="icon" viewBox="0 0 1024 1024" version="1.1" xmlns="http://www.w3.org/2000/svg" p-id="36840" xmlns:xlink="http://www.w3.org/1999/xlink" width="200" height="200"><path d="M596.42 475.53L784.9 283.52l-46.03-43.74-187.25 190.78c-0.81-0.4-1.56-0.87-2.38-1.23-33.66-15.41-71.54-10.03-99.19 10.77l137.13 135.57c8.55-11.52 38.56-58.86 9.24-100.14z m-171.37-15.89c-58.96 36.62-120.35 66.6-186.1 84.96 11.57 22.03 22.79 45.42 26.13 46.19s56.39-21 64.07-23.58c1.38-0.46 3.13-1.04 3.15-1 0.01 0.02-1.35 1.41-1.61 1.65-4.74 4.36-51.2 42.92-51.2 42.92 16.09 22.29 40.05 50.66 43.65 51.94 7.96-1.8 65.82-39.09 77.17-46.08 2.78-1.71 4.98-2.9 5.03-2.85 0.03 0.04-1.71 2.69-2.87 4.26-9.64 13.08-54.6 71.23-54.6 71.23 28.94 27.55 60.56 53.84 64.92 52.04 4.36-4.54 46.21-62.58 55.82-72.09 3.94-3.9 6.37-6.25 6.43-6.18 0.06 0.08-1.4 3.41-3.82 8.77-10.48 23.22-38.9 84.57-38.9 84.57 12.23 8.66 30.89 19.53 46.88 28.46 16.45-65.54 47.85-126.52 85.25-185.74l-139.4-139.47z m108.19 241.43c0 18.54 15.03 33.58 33.58 33.58 18.54 0 33.58-15.04 33.58-33.58s-15.03-33.58-33.58-33.58c-18.54 0-33.58 15.03-33.58 33.58zM370.6 403.12c0 15.09 12.23 27.31 27.31 27.31 15.08 0 27.31-12.23 27.31-27.31 0-15.08-12.23-27.31-27.31-27.31-15.08 0-27.31 12.23-27.31 27.31z m238.66 262.33c0 9.99 8.1 18.09 18.09 18.09s18.09-8.1 18.09-18.09v-0.24c0-9.99-8.1-18.09-18.09-18.09s-18.09 8.1-18.09 18.09v0.25-0.01z" p-id="36841"></path></svg>