<?xml version="1.0" standalone="no"?><!DOCTYPE svg PUBLIC "-//W3C//DTD SVG 1.1//EN" "http://www.w3.org/Graphics/SVG/1.1/DTD/svg11.dtd"><svg t="1676110911547" class="icon" viewBox="0 0 1024 1024" version="1.1" xmlns="http://www.w3.org/2000/svg" p-id="44828" xmlns:xlink="http://www.w3.org/1999/xlink" width="200" height="200"><path d="M512 512m-512 0a512 512 0 1 0 1024 0 512 512 0 1 0-1024 0Z" fill="#F26D64" p-id="44829"></path><path d="M464.804 619.285l18.761-43.15s16.468-42.525-40.649-32.311l-160.303 40.44s-14.513 4.15-20.94 14.854a206.407 206.407 0 0 1 15.828-0.618c90.542 0 165.369 58.964 177.322 135.498 81.825 17.702 277.417 33.239 326.836-205.182-0.001 0-74.211 175.312-316.855 90.469zM560.693 400.406L541.1 442.098s-17.719 40.857 39.606 32.311l160.72-35.646s36.689-9.381 20.429-39.399l-87.552-146.336s-27.309-24.181-45.443 4.586l-19.386 41.691c-0.21 0-296.634-112.567-367.093 181.982 0 0 78.588-169.058 318.312-80.881z" fill="#FFFFFF" p-id="44830"></path><path d="M277.5 598.5c-5.335 0-10.611 0.217-15.828 0.618-3.762 6.264-4.757 14.769 1.554 26.005l91.721 148.213s27.516 24.18 45.235-6.046l18.344-43.15s13.884 5.011 36.295 9.858C442.869 657.464 368.042 598.5 277.5 598.5z" fill="#FFFFFF" opacity=".4" p-id="44831"></path></svg>