<?xml version="1.0" standalone="no"?><!DOCTYPE svg PUBLIC "-//W3C//DTD SVG 1.1//EN" "http://www.w3.org/Graphics/SVG/1.1/DTD/svg11.dtd"><svg t="1676110857276" class="icon" viewBox="0 0 1024 1024" version="1.1" xmlns="http://www.w3.org/2000/svg" p-id="39419" xmlns:xlink="http://www.w3.org/1999/xlink" width="200" height="200"><path d="M513.6896 504.5248m-440.2688 0a440.2688 440.2688 0 1 0 880.5376 0 440.2688 440.2688 0 1 0-880.5376 0Z" fill="#6468E6" p-id="39420"></path><path d="M891.8016 353.2288c0-29.44-2.6112-58.3168-7.5776-86.3232-78.2848-121.8048-214.9376-202.5984-370.5344-202.5984-243.1488 0-440.2688 197.12-440.2688 440.2688 0 108.9536 39.68 208.5888 105.216 285.44 66.8672 34.2016 142.6432 53.504 222.8736 53.504 270.7968-0.0512 490.2912-219.5456 490.2912-490.2912z" fill="#727BEC" p-id="39421"></path><path d="M73.472 504.5248c0 24.4224 2.0992 48.3328 5.888 71.68 62.208 35.6864 134.2464 56.1664 211.0976 56.1664 234.7008 0 424.96-190.2592 424.96-424.96 0-34.56-4.2496-68.096-11.9808-100.2496-57.4464-27.4944-121.7536-42.9056-189.696-42.9056-243.2 0-440.2688 197.12-440.2688 440.2688z" fill="#8697F4" p-id="39422"></path><path d="M85.7088 401.408c31.488 9.8304 65.024 15.1552 99.7888 15.1552 184.4224 0 333.9776-149.504 333.9776-333.9776 0-6.0928-0.2048-12.1856-0.512-18.2272-1.7408 0-3.4816-0.1536-5.2736-0.1536-207.616 0.0512-381.5424 143.8208-427.9808 337.2032z" fill="#99B1FC" p-id="39423"></path><path d="M528.896 498.688c39.8336-26.88 66.048-72.3968 66.048-123.904 0-82.3808-67.0208-149.4016-149.4016-149.4016S296.1408 292.4032 296.1408 374.784c0 51.5584 26.2144 97.0752 66.048 123.904-81.5104 33.0752-139.1616 113.0496-139.1616 206.2848 0 11.3152 9.1648 20.48 20.48 20.48s20.48-9.1648 20.48-20.48c0-96.5632 75.7248-175.7184 170.9056-181.1968 3.5328 0.256 7.0656 0.4096 10.6496 0.4096s7.1168-0.1536 10.6496-0.4096c95.1808 5.5296 170.9056 84.6848 170.9056 181.1968 0 11.3152 9.1648 20.48 20.48 20.48s20.48-9.1648 20.48-20.48c0-93.2352-57.6512-173.2096-139.1616-206.2848zM337.1008 374.784c0-59.8016 48.64-108.4416 108.4416-108.4416s108.4416 48.64 108.4416 108.4416c0 56.4224-43.3664 102.912-98.5088 107.9296-3.2768-0.1536-6.6048-0.256-9.9328-0.256s-6.656 0.1024-9.9328 0.256c-55.1424-5.0688-98.5088-51.5072-98.5088-107.9296z" fill="#FFFFFF" p-id="39424"></path><path d="M700.5696 486.3488c29.8496-22.7328 49.2032-58.624 49.2032-99.0208 0-68.608-55.808-124.3648-124.3648-124.3648-11.3152 0-20.48 9.1648-20.48 20.48s9.1648 20.48 20.48 20.48c45.9776 0 83.4048 37.4272 83.4048 83.4048 0 43.3152-33.1264 78.9504-75.4176 82.9952-2.6624-0.1024-5.3248-0.2048-8.0384-0.2048-11.3152 0-20.48 9.1648-20.48 20.48 0 0.1024 0.0512 0.2048 0.0512 0.3072s-0.0512 0.2048-0.0512 0.3072c0 11.3152 9.1648 20.48 20.48 20.48 2.8672 0 5.7344-0.1536 8.5504-0.3072 74.496 4.4544 133.7856 66.4576 133.7856 142.08 0 11.3152 9.1648 20.48 20.48 20.48s20.48-9.1648 20.48-20.48c0.0512-74.2912-44.4416-138.3424-108.0832-167.1168z" fill="#FFFFFF" p-id="39425"></path></svg>