<?xml version="1.0" standalone="no"?><!DOCTYPE svg PUBLIC "-//W3C//DTD SVG 1.1//EN" "http://www.w3.org/Graphics/SVG/1.1/DTD/svg11.dtd"><svg t="1638078735658" class="icon" viewBox="0 0 1024 1024" version="1.1" xmlns="http://www.w3.org/2000/svg" p-id="4639" xmlns:xlink="http://www.w3.org/1999/xlink" width="50" height="50"><defs><style type="text/css"></style></defs><path d="M167.253 733.867H844.8l88.747 109.226c30.72 39.254 17.066 69.974-34.134 69.974h-793.6c-49.493 0-63.146-30.72-32.426-68.267l93.866-110.933zM435.2 158.72c44.373 0 58.027 29.013 58.027 49.493v235.52c0 20.48-25.6 42.667-47.787 42.667H199.68c-22.187 0-39.253-22.187-39.253-42.667V196.267c0-20.48 17.066-37.547 39.253-37.547H435.2z" fill="#DAE9FF" p-id="4640"></path><path d="M803.84 523.947c46.08 0 59.733 30.72 59.733 49.493v235.52c0 18.773-15.36 35.84-35.84 35.84h-235.52c-18.773 0-35.84-15.36-35.84-35.84V573.44c0-18.773 15.36-35.84 35.84-35.84l211.627-13.653z m-365.227 0c51.2 5.12 61.44 30.72 61.44 49.493v235.52c0 18.773-15.36 35.84-35.84 35.84h-235.52c-18.773 0-35.84-15.36-35.84-35.84V573.44c0-18.773 15.36-35.84 35.84-35.84l209.92-13.653z" fill="#DAE9FF" p-id="4641"></path><path d="M431.787 158.72c18.773 0 35.84 15.36 35.84 35.84v235.52c0 18.773-15.36 35.84-35.84 35.84H194.56c-18.773 0-35.84-15.36-35.84-35.84V194.56c0-18.773 15.36-35.84 35.84-35.84h237.227zM793.6 520.533c18.773 0 35.84 15.36 35.84 35.84v235.52c0 18.774-15.36 35.84-35.84 35.84H558.08c-18.773 0-35.84-15.36-35.84-35.84v-235.52c0-18.773 15.36-35.84 35.84-35.84H793.6z m-361.813 0c18.773 0 35.84 15.36 35.84 35.84v235.52c0 18.774-15.36 35.84-35.84 35.84H194.56c-18.773 0-35.84-15.36-35.84-35.84v-235.52c0-18.773 15.36-35.84 35.84-35.84h237.227z" fill="#3889FF" p-id="4642"></path><path d="M899.413 223.573l-194.56-102.4c-17.066-10.24-71.68-3.413-80.213 15.36l-90.453 223.574c-8.534 17.066-3.414 39.253 15.36 49.493l184.32 105.813c42.666 17.067 68.266-1.706 76.8-18.773L916.48 295.253c10.24-18.773 10.24-58.026-17.067-71.68z" fill="#FFD6C2" p-id="4643"></path><path d="M868.693 233.813L658.773 122.88c-17.066-8.533-39.253-1.707-47.786 15.36L500.053 348.16c-8.533 17.067-1.706 39.253 15.36 47.787l209.92 110.933c17.067 8.533 39.254 1.707 47.787-15.36L884.053 281.6c8.534-17.067 1.707-37.547-15.36-47.787z" fill="#FB560A" p-id="4644"></path></svg>