<?xml version="1.0" standalone="no"?><!DOCTYPE svg PUBLIC "-//W3C//DTD SVG 1.1//EN" "http://www.w3.org/Graphics/SVG/1.1/DTD/svg11.dtd"><svg t="1676110995837" class="icon" viewBox="0 0 1024 1024" version="1.1" xmlns="http://www.w3.org/2000/svg" p-id="50555" xmlns:xlink="http://www.w3.org/1999/xlink" width="200" height="200"><path d="M754.176 950.3232H267.9296c-107.264 0-194.2016-86.9376-194.2016-194.2016V269.824c0-107.264 86.9376-194.2016 194.2016-194.2016h486.2464c107.264 0 194.2016 86.9376 194.2016 194.2016v486.2464c0 107.264-86.9376 194.2528-194.2016 194.2528z" fill="#F6648C" p-id="50556"></path><path d="M675.1744 842.6496c-12.6464 0-25.3952-3.072-37.12-9.216l-112.7936-59.2896a28.4672 28.4672 0 0 0-26.4704 0l-112.7936 59.2896c-27.0336 14.2336-59.1872 11.8784-83.8656-6.0416-24.7296-17.92-36.864-47.7696-31.6928-77.8752l21.5552-125.6448c1.5872-9.216-1.4848-18.6368-8.192-25.1904L192.512 509.7472c-21.8624-21.2992-29.5936-52.5824-20.1728-81.6128 9.4208-29.0304 34.048-49.8176 64.3072-54.1696l126.1056-18.3296c9.2672-1.3312 17.2544-7.168 21.4016-15.5648L440.576 225.792c13.5168-27.392 40.8576-44.3904 71.424-44.3904 30.5152 0 57.9072 16.9984 71.424 44.3904l56.4224 114.2784a28.50816 28.50816 0 0 0 21.4016 15.5648l126.1056 18.3296c30.208 4.4032 54.8352 25.1392 64.3072 54.1696 9.4208 29.0304 1.6896 60.3136-20.1728 81.6128l-21.1456 20.6336a25.5744 25.5744 0 0 1-36.1984-0.4608 25.5744 25.5744 0 0 1 0.4608-36.1984l21.1456-20.6336c7.936-7.7312 10.5984-18.6368 7.2192-29.1328s-11.9808-17.7664-22.9376-19.3536l-126.1056-18.3296c-25.9584-3.7888-48.3328-20.0704-59.9552-43.5712l-56.4224-114.2784c-4.9152-9.9328-14.4384-15.872-25.4976-15.872-11.0592 0-20.5824 5.9392-25.4976 15.872L430.08 362.7008a79.6928 79.6928 0 0 1-59.9552 43.5712l-126.1056 18.3296c-10.9568 1.5872-19.5072 8.8064-22.9376 19.3536s-0.7168 21.4016 7.2192 29.1328l91.2896 88.9856c18.7904 18.2784 27.3408 44.6464 22.8864 70.5024l-21.5552 125.6448c-1.8944 10.9056 2.3552 21.2992 11.3152 27.8016 8.96 6.5024 20.1728 7.3216 29.952 2.1504l112.7936-59.2896c23.1936-12.1856 50.8928-12.1856 74.1376 0l112.7936 59.2896c9.7792 5.1712 20.992 4.352 29.952-2.1504s13.2096-16.896 11.3152-27.8016l-21.5552-125.5936c-4.4544-25.856 4.1472-52.1728 22.8864-70.5024a25.5744 25.5744 0 0 1 36.1984 0.4608 25.5744 25.5744 0 0 1-0.4608 36.1984 28.43648 28.43648 0 0 0-8.192 25.1904l21.5552 125.5936c5.1712 30.1056-6.9632 59.9552-31.6928 77.8752a79.73888 79.73888 0 0 1-46.7456 15.2064z" fill="#F7F8F8" p-id="50557"></path><path d="M418.7648 668.5184c-0.9728 0-1.9456-0.0512-2.9696-0.1536a25.6 25.6 0 0 1-22.4768-28.3648l6.4-55.5008c1.1776-10.3424-2.56-20.7872-10.0864-28.0064l-39.0656-37.4784a25.6256 25.6256 0 0 1-0.768-36.1984 25.6256 25.6256 0 0 1 36.1984-0.768l39.0656 37.4784c18.9952 18.2272 28.5184 44.6976 25.4976 70.8096l-6.4 55.5008a25.61024 25.61024 0 0 1-25.3952 22.6816z" fill="#F7F8F8" p-id="50558"></path></svg>