<?xml version="1.0" standalone="no"?><!DOCTYPE svg PUBLIC "-//W3C//DTD SVG 1.1//EN" "http://www.w3.org/Graphics/SVG/1.1/DTD/svg11.dtd"><svg t="1676110521579" class="icon" viewBox="0 0 1024 1024" version="1.1" xmlns="http://www.w3.org/2000/svg" p-id="10372" xmlns:xlink="http://www.w3.org/1999/xlink" width="200" height="200"><path d="M512 512m-448 0a448 448 0 1 0 896 0 448 448 0 1 0-896 0Z" fill="#8C9EFF" p-id="10373"></path><path d="M736 540H288c-15.46 0-28-12.54-28-28s12.54-28 28-28h448c15.46 0 28 12.54 28 28s-12.53 28-28 28z" fill="#FFFFFF" p-id="10374"></path><path d="M577.6 698.39c-7.16 0-14.33-2.73-19.8-8.2-10.94-10.94-10.94-28.66 0-39.59L696.41 512l-138.6-138.6c-10.94-10.94-10.94-28.66 0-39.59s28.66-10.94 39.59 0l158.4 158.4c5.25 5.25 8.2 12.37 8.2 19.8s-2.95 14.55-8.2 19.8L597.4 690.19c-5.47 5.47-12.63 8.2-19.8 8.2z" fill="#FFFFFF" p-id="10375"></path></svg>