<?xml version="1.0" standalone="no"?><!DOCTYPE svg PUBLIC "-//W3C//DTD SVG 1.1//EN" "http://www.w3.org/Graphics/SVG/1.1/DTD/svg11.dtd"><svg t="1676110604990" class="icon" viewBox="0 0 1024 1024" version="1.1" xmlns="http://www.w3.org/2000/svg" p-id="21143" xmlns:xlink="http://www.w3.org/1999/xlink" width="200" height="200"><path d="M514 114.3c219.9 0 398.8 178.9 398.8 398.9C912.8 733.1 733.9 912 514 912S115.2 733.1 115.2 513.2 294.1 114.3 514 114.3z m0 701.6c166.9 0 302.7-135.8 302.7-302.7S680.9 210.5 514 210.5 211.3 346.3 211.3 513.2 347.1 815.9 514 815.9z" fill="#BDD2EF" p-id="21144"></path><path d="M281.9 554.7L446 718.8c22.9 22.9 60.2 22.9 83.1 0 22.9-22.9 22.9-60.2 0-83.1L465.3 572H694c32.5 0 58.8-26.3 58.8-58.8s-26.3-58.8-58.8-58.8H465.3l63.8-63.8c11.5-11.5 17.2-26.5 17.2-41.5s-5.7-30.1-17.2-41.5c-22.9-22.9-60.2-22.9-83.1 0l-164.1 164c-22.9 23-22.9 60.2 0 83.1z" fill="#2867CE" p-id="21145"></path></svg>