<?xml version="1.0" standalone="no"?><!DOCTYPE svg PUBLIC "-//W3C//DTD SVG 1.1//EN" "http://www.w3.org/Graphics/SVG/1.1/DTD/svg11.dtd"><svg t="1676112517994" class="icon" viewBox="0 0 1024 1024" version="1.1" xmlns="http://www.w3.org/2000/svg" p-id="7257" xmlns:xlink="http://www.w3.org/1999/xlink" width="200" height="200"><path d="M514 912c-219.9 0-398.8-178.9-398.8-398.8S294.1 114.4 514 114.4s398.8 178.9 398.8 398.8S733.9 912 514 912z m0-701.5c-166.9 0-302.7 135.8-302.7 302.7 0 166.9 135.8 302.7 302.7 302.7s302.7-135.8 302.7-302.7c0-166.9-135.8-302.7-302.7-302.7z" fill="#BDD2EF" p-id="7258"></path><path d="M593.3 513.2l89.3-89.3c21.8-21.8 21.8-57.5 0-79.3-21.8-21.8-57.5-21.8-79.3 0L514 433.9l-89.3-89.3c-21.8-21.8-57.5-21.8-79.3 0-21.8 21.8-21.8 57.5 0 79.3l89.3 89.3-89.3 89.3c-21.8 21.8-21.8 57.5 0 79.3 21.8 21.8 57.5 21.8 79.3 0l89.3-89.3 89.3 89.3c21.8 21.8 57.5 21.8 79.3 0 21.8-21.8 21.8-57.5 0-79.3l-89.3-89.3z" fill="#2867CE" p-id="7259"></path></svg>