<?xml version="1.0" standalone="no"?><!DOCTYPE svg PUBLIC "-//W3C//DTD SVG 1.1//EN" "http://www.w3.org/Graphics/SVG/1.1/DTD/svg11.dtd"><svg t="1676794097483" class="icon" viewBox="0 0 1024 1024" version="1.1" xmlns="http://www.w3.org/2000/svg" p-id="11393" xmlns:xlink="http://www.w3.org/1999/xlink" width="16" height="16"><path d="M514.048 514.048m-481.28 0a481.28 481.28 0 1 0 962.56 0 481.28 481.28 0 1 0-962.56 0Z" fill="#2A78FF" opacity=".06" p-id="11394"></path><path d="M514.048 722.944c-3.072 0-6.144-1.024-9.216-4.096L390.144 604.16c-50.176-50.176-64.512-124.928-37.888-190.464C378.88 348.16 443.392 306.176 514.048 305.152c70.656 0 134.144 43.008 161.792 108.544 26.624 65.536 12.288 140.288-37.888 190.464L523.264 718.848c-2.048 2.048-5.12 4.096-9.216 4.096z m0-392.192c-60.416 0-114.688 36.864-138.24 92.16-23.552 55.296-10.24 119.808 31.744 162.816l106.496 105.472 106.496-106.496c43.008-43.008 55.296-107.52 31.744-162.816-22.528-54.272-77.824-91.136-138.24-91.136z m0 0" fill="#2A78FF" p-id="11395"></path><path d="M450.56 420.864h25.6v140.288H450.56V420.864z m100.352 140.288h-25.6V434.176c0-7.168 6.144-12.288 12.288-12.288h27.648c24.576 0 44.032 19.456 44.032 44.032s-19.456 44.032-44.032 44.032h-14.336v51.2z m0-76.8h14.336c10.24 0 18.432-8.192 18.432-18.432s-8.192-18.432-18.432-18.432h-14.336v36.864z m0 0" fill="#2A78FF" p-id="11396"></path></svg>