<?xml version="1.0" encoding="utf-8"?>
<!-- Generator: Adobe Illustrator 25.3.1, SVG Export Plug-In . SVG Version: 6.00 Build 0)  -->
<svg version="1.1" id="图层_1" xmlns="http://www.w3.org/2000/svg" xmlns:xlink="http://www.w3.org/1999/xlink" x="0px" y="0px"
	 viewBox="0 0 64 64" style="enable-background:new 0 0 64 64;" xml:space="preserve">
<style type="text/css">
	.st0{fill:#666666;}
</style>
<path class="st0" d="M16.2,38.6c1.5,0.4,4.9,0.4,10,0.4c-0.3,1-0.3,1.8-0.3,3.3c0,3.6,3.1,6.7,5.8,6.7c1.9,0,3.5-1.3,3.6-3
	c0-2,0.7-5.5,4.8-7.3c0.3-0.1,1.2-0.4,1.3-0.4l0,0c0.7,0.4,1.5,0.7,2.3,0.9h3.6c2,0,3.6-1.3,3.6-3.1V20c0-1.7-1.6-3.1-3.6-3.1h-3.6
	c-1.3,0-2.6,0.7-3.2,1.7l0,0l-0.3-0.1l0,0c-0.7-0.1-2-0.4-4.8-1c-0.5-0.1-3.8-0.7-7.1-0.7h-6.5c-2,0-3.5,0.6-4.2,2
	C16.9,20,13,26.3,13,35.1C13,36.3,13.9,38,16.2,38.6L16.2,38.6z M42.4,20c0-0.6,0.5-1,1.2-1h3.6c0.7,0,1.2,0.4,1.2,1v16.1
	c0,0.6-0.5,1-1.2,1h-3.6c-0.7,0-1.2-0.4-1.2-1V20L42.4,20z M15.3,34.5c0.4-10.1,4.3-14.7,4.3-14.7c0.3-0.4,0.8-0.9,2.1-0.9h6.5
	c3.2,0,6.5,0.6,6.5,0.6c4.9,1,5.2,1,5.5,1.1l-0.1,14.8c0,1.4,0,1.1,0,1.1c-5.4,1.8-7.1,6-7.1,9.4c0,0.6-0.5,1-1.2,1
	c-1.3,0-3.5-2.1-3.5-4.8c0-2.3,0.1-2.8,1.2-5.3c-11.9,0-11.8-0.1-12.7-0.4c-1.3-0.4-1.5-1.3-1.5-1.6C15.3,34.7,15.3,34.9,15.3,34.5z
	"/>
</svg>
