<?xml version="1.0" encoding="utf-8"?>
<!-- Generator: Adobe Illustrator 25.3.1, SVG Export Plug-In . SVG Version: 6.00 Build 0)  -->
<svg xmlns:xlink="http://www.w3.org/1999/xlink" version="1.1" id="图层_1" xmlns="http://www.w3.org/2000/svg" x="0px"
     y="0px"
     viewBox="0 0 64 64" style="enable-background:new 0 0 64 64;" xml:space="preserve">
<style type="text/css">
	.st0{fill:#666666;}
</style>
    <path class="st0" d="M45.4,44.6h-6.3c-0.1,0-0.4,0.1-0.5,0.3L35.1,48c-1.6,1.4-4.3,1.4-6,0l-3.6-3.1c-0.1-0.1-0.3-0.3-0.5-0.3h-6.3
	c-3.1,0-5.6-2.3-5.6-5.1V22c0-2.7,2.5-5.1,5.6-5.1h26.7c3.1,0,5.6,2.3,5.6,5.1v17.6C51,42.3,48.4,44.6,45.4,44.6L45.4,44.6z
	 M45.4,42.1c1.6,0,2.9-1.1,2.9-2.6V22c0-1.4-1.3-2.6-2.9-2.6H18.5c-1.6,0-2.9,1.1-2.9,2.6v17.6c0,1.4,1.3,2.6,2.9,2.6h6.3
	c0.9,0,1.8,0.4,2.5,0.9l3.5,3.1c0.5,0.4,1.4,0.4,2,0l3.5-3.1c0.7-0.6,1.6-0.9,2.5-0.9H45.4L45.4,42.1z M23.5,28.3
	c1.2,0,2.1,0.9,2.1,2.2v1.4c0,1.2-0.9,2.2-2.1,2.2s-2.1-0.9-2.1-2.2v-1.3C21.4,29.3,22.2,28.3,23.5,28.3z M32,28.3
	c1.2,0,2.1,0.9,2.1,2.2v1.4c0,1.2-0.9,2.2-2.1,2.2c-1.2-0.1-2.1-1-2.1-2.2v-1.3C29.9,29.3,30.8,28.3,32,28.3z M40.4,28.3
	c1.2,0,2.1,0.9,2.1,2.2v1.4c0,1.2-0.9,2.2-2.1,2.2c-1.2,0-2.1-0.9-2.1-2.2v-1.3C38.3,29.3,39.2,28.3,40.4,28.3z"/>
</svg>
