<?xml version="1.0" standalone="no"?><!DOCTYPE svg PUBLIC "-//W3C//DTD SVG 1.1//EN" "http://www.w3.org/Graphics/SVG/1.1/DTD/svg11.dtd"><svg t="1638078756629" class="icon" viewBox="0 0 1024 1024" version="1.1" xmlns="http://www.w3.org/2000/svg" p-id="6494" xmlns:xlink="http://www.w3.org/1999/xlink" width="50" height="50"><defs><style type="text/css"></style></defs><path d="M393.846 512a118.154 118.154 0 1 0 236.308 0 118.154 118.154 0 1 0-236.308 0z" fill="#FF7D41" p-id="6495"></path><path d="M232.369 234.338c-153.6 153.6-153.6 401.724 0 555.324 153.6 153.6 403.692 153.6 557.292 0s153.6-403.692 0-557.292c-153.599-153.6-403.692-153.6-557.292 1.968zM716.8 354.462l-51.2 122.092c11.815 51.2-1.97 106.338-41.354 145.723s-94.523 53.17-145.723 41.354l-124.061 51.2c-29.538 11.815-59.077-17.723-47.261-47.261l51.2-122.092c-11.816-51.2 1.969-106.338 41.353-145.723s94.523-53.17 145.723-41.354l122.092-51.2c31.508-11.816 61.047 17.723 49.231 47.261z" fill="#FF7D41" p-id="6496"></path></svg>