<?xml version="1.0" encoding="utf-8"?>
<!-- Generator: Adobe Illustrator 25.2.3, SVG Export Plug-In . SVG Version: 6.00 Build 0)  -->
<svg xmlns:xlink="http://www.w3.org/1999/xlink" version="1.1" id="图层_1" xmlns="http://www.w3.org/2000/svg" x="0px"
     y="0px"
     viewBox="0 0 128 128" style="enable-background:new 0 0 128 128;" xml:space="preserve">
<style type="text/css">
	.st0{fill:#66A8A8;}
</style>
    <path class="st0" d="M31.4,16.5h65.3c8.2,0,14.9,6.7,14.9,14.9v65.3c0,8.2-6.7,14.9-14.9,14.9H31.4c-8.2,0-14.9-6.7-14.9-14.9V31.4
	C16.5,23.2,23.2,16.5,31.4,16.5z M80.2,49l-4.5,4.8c-0.5,0.5-0.4,1.3,0.1,1.8l9.4,8.3l-9.4,8.3c-0.5,0.4-0.6,1.3-0.1,1.8l4.5,4.8
	c0.4,0.5,1.3,0.5,1.7,0.1L97,65c0.5-0.5,0.5-1.3,0-1.8L81.9,49C81.5,48.5,80.6,48.5,80.2,49z M66.8,38.2l-14.3,49
	c-0.2,0.7,0.2,1.4,0.9,1.6l6.4,1.8c0.7,0.2,1.4-0.2,1.6-0.9l14.3-49c0.2-0.7-0.2-1.4-0.9-1.6l-6.4-1.8
	C67.6,37.2,66.9,37.5,66.8,38.2L66.8,38.2z M46.1,49L31,63c-0.5,0.5-0.5,1.3,0,1.8L46.1,79c0.5,0.5,1.3,0.4,1.7-0.1l4.5-4.8
	c0.5-0.5,0.4-1.3-0.1-1.8L42.8,64l9.4-8.3c0.5-0.4,0.6-1.3,0.1-1.8L47.8,49C47.4,48.5,46.5,48.5,46.1,49L46.1,49z"/>
</svg>
