<?xml version="1.0" encoding="utf-8"?>
<!-- Generator: Adobe Illustrator 26.0.1, SVG Export Plug-In . SVG Version: 6.00 Build 0)  -->
<svg xmlns:xlink="http://www.w3.org/1999/xlink" version="1.1" id="图层_1" xmlns="http://www.w3.org/2000/svg" x="0px"
     y="0px"
     viewBox="0 0 64 64" style="enable-background:new 0 0 64 64;" xml:space="preserve">
<style type="text/css">
	.st0{fill:#999999;}
	.st1{fill:#12ADA9;}
</style>
    <path class="st0" d="M30.5,20h17.2c1.3,0,1.9,0.6,1.9,1.9l0,0c0,1.3-0.6,1.9-1.9,1.9H30.5c-1.3,0-1.9-0.6-1.9-1.9l0,0
	C28.6,20.6,29.3,20,30.5,20z"/>
    <path class="st0" d="M30.5,30.1h17.2c1.3,0,1.9,0.6,1.9,1.9l0,0c0,1.3-0.6,1.9-1.9,1.9H30.5c-1.3,0-1.9-0.6-1.9-1.9l0,0
	C28.6,30.8,29.3,30.1,30.5,30.1z"/>
    <path class="st0" d="M30.5,40.3h17.2c1.3,0,1.9,0.6,1.9,1.9l0,0c0,1.3-0.6,1.9-1.9,1.9H30.5c-1.3,0-1.9-0.6-1.9-1.9l0,0
	C28.6,40.9,29.3,40.3,30.5,40.3z"/>
    <path class="st1" d="M21.6,16.6c1,0,1.9,0.8,1.9,1.9v27c0,1-0.8,1.9-1.9,1.9c-1,0-1.9-0.8-1.9-1.9V25.7c0,0-3.7,0-3.9,0
	s-0.5-0.1-0.8-0.4s-0.8-1.5-0.1-2.3l5.2-5.8C20.5,16.9,21,16.6,21.6,16.6L21.6,16.6z"/>
</svg>
