<?xml version="1.0" encoding="utf-8"?>
<!-- Generator: Adobe Illustrator 25.2.3, SVG Export Plug-In . SVG Version: 6.00 Build 0)  -->
<svg xmlns:xlink="http://www.w3.org/1999/xlink" version="1.1" id="图层_1" xmlns="http://www.w3.org/2000/svg" x="0px"
     y="0px"
     viewBox="0 0 128 128" style="enable-background:new 0 0 128 128;" xml:space="preserve">
<style type="text/css">
	.st0{fill:#66A8A8;}
</style>
    <path class="st0" d="M70.7,70.6H101c3.1,0,5.5,2.5,5.5,5.5v29.9c0,3.1-2.5,5.5-5.5,5.5H70.7c-3.1,0-5.5-2.5-5.5-5.5V76.2
	C65.2,73.1,67.6,70.6,70.7,70.6z M22.9,70.5H53c3.1,0,5.5,2.5,5.5,5.5V106c0,3.1-2.5,5.5-5.5,5.5H22.9c-3.1,0-5.5-2.5-5.5-5.5V76.2
	C17.4,73.1,19.9,70.5,22.9,70.5z M22.9,22.6H53c3.1,0,5.5,2.5,5.5,5.5v30.2c0,3.1-2.5,5.5-5.5,5.5H22.9c-3.1,0-5.5-2.5-5.5-5.5V28.1
	C17.4,25.1,19.9,22.6,22.9,22.6z M111.4,39.2L90.1,17.9c-2.2-2.2-5.6-2.2-7.8,0L61,39.2c-2.2,2.2-2.2,5.7,0,7.8l21.3,21.3
	c2.2,2.2,5.6,2.2,7.8,0L111.4,47C113.6,44.9,113.6,41.4,111.4,39.2z M107.4,46.5l-18,18c-1.8,1.8-4.8,1.8-6.6,0l-18-18
	c-1.8-1.8-1.8-4.8,0-6.6l18-18c1.8-1.8,4.8-1.8,6.6,0l18,18C109.2,41.7,109.2,44.7,107.4,46.5L107.4,46.5z"/>
</svg>
