<?xml version="1.0" standalone="no"?><!DOCTYPE svg PUBLIC "-//W3C//DTD SVG 1.1//EN" "http://www.w3.org/Graphics/SVG/1.1/DTD/svg11.dtd"><svg t="1638079225338" class="icon" viewBox="0 0 1024 1024" version="1.1" xmlns="http://www.w3.org/2000/svg" p-id="24786" xmlns:xlink="http://www.w3.org/1999/xlink" width="50" height="50"><defs><style type="text/css"></style></defs><path d="M512.785 524.46c21.539 0 39 18.356 39 41 0 7.688-2.017 14.878-5.519 21.027h227.486l-20.018-88H272.837l-21.019 88h227.486c-3.502-6.148-5.519-13.339-5.519-21.027 0-22.643 17.461-41 39-41zM723.707 373.461H301.863l51.047-128h320.751z" fill="#FC7070" p-id="24787"></path><path d="M512.785 722.805c88.055 0 159.438 62.672 159.438 139.983 0 10.555-1.34 20.834-3.862 30.722h207.424l-56.59-296H207.507l-57.722 296H357.21a124.071 124.071 0 0 1-3.862-30.722c0-77.31 71.382-139.983 159.437-139.983z" fill="#AEE2FF" p-id="24788"></path><path d="M332.837 498.487h-60l-21.019 88h60zM412.91 245.461h-60l-51.047 128h60z" fill="#EA4F3B" p-id="24789"></path><path d="M207.507 597.51l-57.722 296h60l57.722-296z" fill="#64D0FF" p-id="24790"></path><path d="M803.384 740.648a8.002 8.002 0 0 1-7.88-6.677l-14.562-86.786a8 8 0 0 1 6.565-9.214c4.362-0.737 8.481 2.209 9.214 6.565l14.562 86.786a8 8 0 0 1-7.899 9.326zM812.574 794.884a8.002 8.002 0 0 1-7.887-6.72l-3.202-19.742a8 8 0 1 1 15.793-2.563l3.202 19.742a8 8 0 0 1-7.906 9.283z" fill="#FFFFFF" p-id="24791"></path><path d="M239.785 373.467h546v20h-546z" fill="#FFC912" p-id="24792"></path><path d="M433.744 201.416m-60 0a60 60 0 1 0 120 0 60 60 0 1 0-120 0Z" fill="#FFFFFF" p-id="24793"></path><path d="M433.744 271.416c-38.598 0-70-31.402-70-70s31.402-70 70-70 70 31.402 70 70-31.402 70-70 70z m0-120c-27.57 0-50 22.43-50 50s22.43 50 50 50 50-22.43 50-50-22.43-50-50-50z" fill="#723703" p-id="24794"></path><path d="M433.744 201.416m-16 0a16 16 0 1 0 32 0 16 16 0 1 0-32 0Z" fill="#723703" p-id="24795"></path><path d="M598.704 201.416m-60 0a60 60 0 1 0 120 0 60 60 0 1 0-120 0Z" fill="#FFFFFF" p-id="24796"></path><path d="M598.704 271.416c-38.598 0-70-31.402-70-70s31.402-70 70-70 70 31.402 70 70-31.402 70-70 70z m0-120c-27.57 0-50 22.43-50 50s22.43 50 50 50 50-22.43 50-50-22.43-50-50-50z" fill="#723703" p-id="24797"></path><path d="M598.704 201.416m-16 0a16 16 0 1 0 32 0 16 16 0 1 0-32 0Z" fill="#723703" p-id="24798"></path><path d="M192.785 480.466h640v20h-640zM152.785 578.466h720v20h-720z" fill="#FFC912" p-id="24799"></path><path d="M567.786 718.805c-10.256 0-20.282 0.861-30 2.485 73.711 12.324 129.438 69.192 129.438 137.498 0 10.555-1.34 20.834-3.862 30.722h60a124.077 124.077 0 0 0 3.862-30.722c0-77.31-71.383-139.983-159.438-139.983z" fill="#64D0FF" p-id="24800"></path><path d="M239.785 373.467h121.508v20H239.785zM192.785 480.466h121.508v20H192.785zM152.785 578.466h121.508v20H152.785z" fill="#FFB408" p-id="24801"></path><path d="M621.557 667.776m-32 0a32 32 0 1 0 64 0 32 32 0 1 0-64 0Z" fill="#FFFFFF" p-id="24802"></path><path d="M781.513 495.523c-11.645-22.022-27.7-41.19-38.843-51.785-5.134-4.881-10.444-9.93-17.043-7.829-5.263 1.674-8.172 7.297-6.498 12.561a9.981 9.981 0 0 0 5.771 6.236c7.831 6.033 60.985 59.808 52.256 112.506-6.416 38.733-45.416 67.891-115.953 86.723-5.734-16.377-21.335-28.159-39.646-28.159-23.159 0-42 18.841-42 42s18.841 42 42 42c21.008 0 38.461-15.503 41.523-35.67 76.134-19.759 120.585-51.92 132.101-95.644 6.658-25.288 2.06-53.192-13.668-82.939zM621.557 689.776c-12.131 0-22-9.869-22-22s9.869-22 22-22 22 9.869 22 22-9.87 22-22 22z" fill="#723703" p-id="24803"></path><path d="M405.157 662.749m-32 0a32 32 0 1 0 64 0 32 32 0 1 0-64 0Z" fill="#FFFFFF" p-id="24804"></path><path d="M405.157 620.749c-18.31 0-33.911 11.782-39.646 28.159-70.537-18.832-109.537-47.99-115.953-86.723-8.729-52.698 44.425-106.473 52.256-112.507a9.98 9.98 0 0 0 5.771-6.235c1.674-5.264-1.235-10.887-6.498-12.561-6.606-2.104-11.909 2.947-17.043 7.829-11.143 10.595-27.198 29.763-38.843 51.785-15.729 29.747-20.326 57.651-13.667 82.939 11.516 43.724 55.967 75.884 132.101 95.644 3.061 20.167 20.515 35.67 41.523 35.67 23.159 0 42-18.841 42-42s-18.842-42-42.001-42z m0 64c-12.131 0-22-9.869-22-22s9.869-22 22-22 22 9.869 22 22-9.869 22-22 22z" fill="#723703" p-id="24805"></path><path d="M723.707 393.453H302.864l-21.019 88h195.02a42.687 42.687 0 0 1-3.08-15.993c0-22.644 17.461-41 39-41s39 18.356 39 41c0 5.674-1.097 11.079-3.08 15.993h195.02l-20.018-88z" fill="#FC7070" p-id="24806"></path><path d="M362.864 393.454h-60l-21.019 88h60z" fill="#EA4F3B" p-id="24807"></path></svg>