<?xml version="1.0" standalone="no"?><!DOCTYPE svg PUBLIC "-//W3C//DTD SVG 1.1//EN" "http://www.w3.org/Graphics/SVG/1.1/DTD/svg11.dtd"><svg t="1638079298130" class="icon" viewBox="0 0 1024 1024" version="1.1" xmlns="http://www.w3.org/2000/svg" p-id="32103" xmlns:xlink="http://www.w3.org/1999/xlink" width="50" height="50"><defs><style type="text/css"></style></defs><path d="M850.4 804.7l-47.8 47.8c-4.2 4.2-9.8 6.3-15.3 6.3s-11.1-2.1-15.3-6.3L593.4 673.9c-4-4-6.3-9.6-6.3-15.3 0-5.7 2.3-11.3 6.3-15.3l7.7-7.7-23.3-23.3c-45.2 37.8-101.7 58.5-161.4 58.5-67.3 0-130.6-26.2-178.2-73.8-47.6-47.6-73.8-110.9-73.8-178.3s26.2-130.7 73.8-178.3c47.6-47.6 110.9-73.8 178.2-73.8 67.4 0 130.6 26.2 178.3 73.8 47.6 47.6 73.8 110.9 73.8 178.3 0 60.5-21.3 117.5-60.1 163.1l23.2 23.2 9.4-9.4c8.5-8.5 22.2-8.5 30.6 0l178.6 178.6c4.1 4 6.3 9.6 6.3 15.3 0.3 5.7-2 11.2-6.1 15.2z" fill="" p-id="32104"></path><path d="M659.6 616.6L613.5 660l172 175.5 47.7-46.9zM194 418.6c0-59.5 23.1-115.3 65.2-157.4 42-42 97.9-65.2 157.4-65.2s115.3 23.1 157.3 65.2c42 42 65.2 97.9 65.2 157.4 0 59.4-23.1 115.3-65.2 157.3-42 42-97.9 65.2-157.3 65.2S301.2 618 259.2 576c-42-42.1-65.2-97.9-65.2-157.4z" fill="#FFB400" p-id="32105"></path><path d="M432.2 640.6c-5.2 0.4-10.5 0.5-15.7 0.5-59.4 0-115.3-23.1-157.3-65.2-42-42-65.2-97.9-65.2-157.3 0-59.5 23.1-115.3 65.2-157.4 42-42 97.9-65.2 157.3-65.2 5.3 0 10.5 0.2 15.7 0.5-53.5 3.7-103.3 26.3-141.6 64.6-42 42-65.2 97.9-65.2 157.4 0 59.4 23.1 115.3 65.2 157.3 38.3 38.5 88.1 61.1 141.6 64.8z" fill="#FFFFFF" p-id="32106"></path><path d="M400.9 640.9c3.4 0.2 6.7 0.3 10.1 0.3 55.7 0 105.1-10.9 157.7-60.3 52.6-49.4 70.4-87.6 70.4-162.2S608 295.8 568.7 255.6c-39.3-40.2-102-59.5-157.7-59.5-3.4 0-6.7 0.1-10.1 0.3C455 199 505.5 221.8 544 261.3c41 42 63.6 97.9 63.6 157.4C607.6 478.1 585 534 544 576c-38.5 39.4-89 62.3-143.1 64.9z" fill="#F9F455" p-id="32107"></path></svg>