<?xml version="1.0" standalone="no"?><!DOCTYPE svg PUBLIC "-//W3C//DTD SVG 1.1//EN" "http://www.w3.org/Graphics/SVG/1.1/DTD/svg11.dtd"><svg t="1638078018151" class="icon" viewBox="0 0 1024 1024" version="1.1" xmlns="http://www.w3.org/2000/svg" p-id="7893" xmlns:xlink="http://www.w3.org/1999/xlink" width="50" height="50"><defs><style type="text/css"></style></defs><path d="M448.441168 902.546613c-1.742439-3.424793 0.901261 65.611831 0 120.168188-0.30042 19.947919-297.896939-198.277511-300.420471-240.336377s291.88853-202.243061 300.420471-180.252283c0.420589 1.081514 0 120.168189 0 120.168189s317.72469 57.139974 480.672754-300.420471c2.884037 7.450428 80.632854 489.384948-480.672754 480.672754z m120.889198-480.672754c-0.420589-1.081514 0-120.168189 0-120.168189S252.326684 244.565696 89.799209 602.126141c-2.884037-7.450428-49.809714-505.307233 479.531157-480.672754 1.742439 3.424793-0.901261-65.611831 0-120.168188C569.630786-18.662721 866.56638 199.56271 869.029828 241.621576S577.802223 443.864637 569.330366 421.873859z" fill="#8192DD" p-id="7894"></path></svg>