<?xml version="1.0" standalone="no"?><!DOCTYPE svg PUBLIC "-//W3C//DTD SVG 1.1//EN" "http://www.w3.org/Graphics/SVG/1.1/DTD/svg11.dtd"><svg t="1638078827375" class="icon" viewBox="0 0 1024 1024" version="1.1" xmlns="http://www.w3.org/2000/svg" p-id="13358" xmlns:xlink="http://www.w3.org/1999/xlink" width="50" height="50"><defs><style type="text/css"></style></defs><path d="M787.7 161.2H238.3C160.8 161.2 98 224 98 301.4v350.7c0 77.5 62.8 140.3 140.3 140.3h29.5l21.3 31.4c26 37.2 45.9 49.6 101.6 27l157.7-58.3h239.4c77.5 0 140.3-62.8 140.3-140.3V301.4c-0.1-77.4-62.9-140.2-140.4-140.2zM302.9 546.9c-38.7 0-70.1-31.4-70.1-70.1 0-38.7 31.4-70.1 70.1-70.1s70.1 31.4 70.1 70.1c0 38.7-31.4 70.1-70.1 70.1z m210.4 0c-38.7 0-70.1-31.4-70.1-70.1 0-38.7 31.4-70.1 70.1-70.1 38.7 0 70.1 31.4 70.1 70.1 0 38.7-31.4 70.1-70.1 70.1z m210.4 0c-38.7 0-70.1-31.4-70.1-70.1 0-38.7 31.4-70.1 70.1-70.1 38.7 0 70.1 31.4 70.1 70.1 0.1 38.7-31.3 70.1-70.1 70.1z" fill="#67DEC8" p-id="13359"></path></svg>