<?xml version="1.0" standalone="no"?><!DOCTYPE svg PUBLIC "-//W3C//DTD SVG 1.1//EN" "http://www.w3.org/Graphics/SVG/1.1/DTD/svg11.dtd"><svg t="1638078851196" class="icon" viewBox="0 0 1024 1024" version="1.1" xmlns="http://www.w3.org/2000/svg" p-id="15672" xmlns:xlink="http://www.w3.org/1999/xlink" width="50" height="50"><defs><style type="text/css"></style></defs><path d="M912.5 215.9h-388c-25.8 0-46.9 21-46.9 46.9v67.6H194.7c-25.8 0-46.8 21-46.8 46.8V725.3c0 25.8 21 46.9 46.8 46.9H256v94.3c0 9.3 5.1 17.8 13.3 22.2 3.7 2 7.7 2.9 11.8 2.9 4.9 0 9.8-1.4 14-4.3L465.5 772h273c25.8 0 46.9-21 46.9-46.9V599.8l55.3 37.4c4.2 2.9 9.1 4.3 14 4.3 4 0 8.1-1 11.8-2.9 8.2-4.3 13.3-12.9 13.3-22.2v-62.6h32.7c25.8 0 46.8-21 46.8-46.8V262.7c0-25.8-21-46.8-46.8-46.8z" fill="#FFD2C2" p-id="15673"></path><path d="M91.6 553.6c14.9 0 26.9-12 26.9-26.9v-29.1c0-14.9-12-26.9-26.9-26.9s-26.9 12-26.9 26.9v29.1c0 14.9 12 26.9 26.9 26.9z" fill="#F47E4B" p-id="15674"></path><path d="M884.7 132.6H468.5c-27.7 0-50.3 22.6-50.3 50.3v72.5H114.9c-27.7 0-50.2 22.5-50.2 50.2v109.8c0 14.9 12 26.9 26.9 26.9s26.9-12 26.9-26.9V309.2h576v366H397.1c-5.4 0-10.6 1.6-15.1 4.6l-147.5 99.6v-77.3c0-14.9-12-26.9-26.9-26.9h-89.1v-66.8c0-14.9-12-26.9-26.9-26.9s-26.9 12-26.9 26.9v70.4c0 27.7 22.5 50.3 50.2 50.3h65.8v101.1c0 10 5.5 19.1 14.3 23.8 3.9 2.1 8.3 3.2 12.6 3.2 5.3 0 10.5-1.6 15.1-4.6l182.7-123.4h292.8c27.7 0 50.3-22.6 50.3-50.3V544.4l59.4 40.1c4.5 3.1 9.8 4.6 15.1 4.6 4.3 0 8.7-1.1 12.6-3.2 8.8-4.7 14.3-13.8 14.3-23.8V495h35c27.7 0 50.2-22.5 50.2-50.2V182.9c-0.2-27.7-22.7-50.3-50.4-50.3z m-3.6 308.6h-58.4c-14.9 0-26.9 12-26.9 26.9v43.4l-47.5-32.1V305.6c0-27.7-22.6-50.2-50.3-50.2H472v-68.9h409v254.7z" fill="#F47E4B" p-id="15675"></path><path d="M208.2 442.4h326.6c11.1 0 20.2-9 20.2-20.2s-9-20.2-20.2-20.2H208.2c-11.1 0-20.2 9-20.2 20.2s9.1 20.2 20.2 20.2zM208.2 582.4h186.6c11.1 0 20.2-9 20.2-20.2 0-11.1-9-20.2-20.2-20.2H208.2c-11.1 0-20.2 9-20.2 20.2 0 11.1 9.1 20.2 20.2 20.2z" fill="#F47E4B" p-id="15676"></path></svg>