<?xml version="1.0" standalone="no"?><!DOCTYPE svg PUBLIC "-//W3C//DTD SVG 1.1//EN" "http://www.w3.org/Graphics/SVG/1.1/DTD/svg11.dtd"><svg t="1638078024486" class="icon" viewBox="0 0 1024 1024" version="1.1" xmlns="http://www.w3.org/2000/svg" p-id="8036" xmlns:xlink="http://www.w3.org/1999/xlink" width="50" height="50"><defs><style type="text/css"></style></defs><path d="M507.904 86.016c-249.856 0-450.56 200.704-450.56 450.56s200.704 450.56 450.56 450.56 450.56-200.704 450.56-450.56-204.8-450.56-450.56-450.56z m0 737.28c-143.36 0-258.048-94.208-290.816-221.184H147.456c-8.192-8.192-12.288-12.288-4.096-20.48l86.016-81.92c8.192-8.192 20.48-8.192 24.576 0l86.016 81.92c8.192 8.192 4.096 16.384-4.096 20.48H262.144c28.672 102.4 126.976 176.128 241.664 176.128 90.112 0 163.84-45.056 212.992-110.592l45.056 16.384c-53.248 86.016-147.456 139.264-253.952 139.264z m278.528-225.28c-8.192 8.192-20.48 8.192-24.576 0l-86.016-81.92c-8.192-12.288-4.096-16.384 4.096-20.48h77.824c-20.48-114.688-122.88-196.608-249.856-196.608-98.304-4.096-180.224 49.152-225.28 122.88l-40.96-16.384c49.152-90.112 151.552-155.648 266.24-155.648 151.552 0 274.432 106.496 294.912 241.664h65.536c8.192 8.192 12.288 16.384 4.096 20.48l-86.016 86.016z" fill="#0E79CB" p-id="8037"></path></svg>