<?xml version="1.0" standalone="no"?><!DOCTYPE svg PUBLIC "-//W3C//DTD SVG 1.1//EN" "http://www.w3.org/Graphics/SVG/1.1/DTD/svg11.dtd"><svg t="1637568466291" class="icon" viewBox="0 0 1024 1024" version="1.1" xmlns="http://www.w3.org/2000/svg" p-id="3276" xmlns:xlink="http://www.w3.org/1999/xlink" width="50" height="50"><defs><style type="text/css"></style></defs><path d="M789.322057 1016.010658c0-162.78285-124.55185-278.193894-278.193894-278.193894S232.935268 853.227807 232.935268 1016.010658h556.386789z" fill="#1A1A1A" p-id="3277"></path><path d="M795.621653 1024H208.404991v-11.116171c0-163.711611 129.89672-291.957533 293.608331-291.957533s293.608331 128.244923 293.608331 291.957533V1024z m-548.590189-23.968027h528.193398c-6.925761-138.814823-120.432345-250.674604-264.096699-250.674604S253.957225 861.21715 247.031464 1000.031973z" fill="" p-id="3278"></path><path d="M512 338.117956m-324.357312 0a324.357312 324.357312 0 1 0 648.714624 0 324.357312 324.357312 0 1 0-648.714624 0Z" fill="#1A1A1A" p-id="3279"></path><path d="M511.999001 676.235912c-186.436297 0-338.11496-151.676666-338.11496-338.11496S325.562704 0 511.999001 0c186.439293 0 338.117956 151.681659 338.117956 338.120952S698.437296 676.235912 511.999001 676.235912z m0-648.714625c-171.26154 0-310.593673 139.335129-310.593673 310.598666s139.332133 310.593673 310.593673 310.593673c171.264536 0 310.59567-139.329137 310.595671-310.593673S683.262538 27.521287 511.999001 27.521287z" fill="" p-id="3280"></path><path d="M512.608189 56.571534c-145.538853-0.385486-263.812079 102.842809-264.150628 230.57242-0.190746 70.560873 35.65244 133.818488 92.298875 176.383707l-0.198735 76.649751c-0.093875 34.079538 20.99 63.259613 50.829195 75.169725l0.230692-83.121118c0.032956-13.3432 10.875492-24.149785 24.22868-24.124818 13.36617 0.040945 24.150783 10.881484 24.132807 24.257641l-0.15779 69.773922c-0.047936 13.085544 10.523961 23.715364 23.602515 23.753314 13.067568 0.036951 23.698387-10.528955 23.723353-23.605511l0.122836-45.568213-0.117842-24.24266c0.043941-13.355184 10.905452-24.136802 24.248652-24.102847 13.355184 0.025965 24.169758 10.88448 24.124818 24.233672l-0.246671 69.806879c-0.026964 13.066569 10.531951 23.681409 23.6135 23.735337 13.076556 0.025965 23.708373-10.534947 23.73334-23.619492l0.110852-69.791898c0.030959-13.359179 10.880486-24.144791 24.247654-24.113833 13.3432 0.033955 24.156775 10.879487 24.112834 24.234672l-0.234687 83.129107c29.908103-11.738341 51.129794-40.808562 51.233655-74.901084l0.194741-76.642759c56.878125-42.267616 93.061857-105.335484 93.253601-175.896357 0.331558-127.72262-117.402387-231.583072-262.936247-231.969557zM395.892885 380.545358c-45.918745-0.127829-83.043222-37.447046-82.920385-83.360798 0.120839-45.923738 37.447046-83.048215 83.342822-82.92438 45.918745 0.125832 83.048215 37.453038 82.914393 83.360798-0.11984 45.913752-37.441054 83.048215-83.33683 82.92438z m115.686676 60.580187c-15.347527-0.032956-27.768957-5.062247-27.713031-22.618826 0.013981-17.528617 19.814568-34.759631 27.87881-34.755637 8.067238 0.026964 27.735002 17.380814 27.662099 34.908433-0.022969 17.542598-12.46637 22.508973-27.827878 22.46603z m116.014239-59.973995c-45.895776-0.115845-83.035232-37.431068-82.925379-83.353808 0.13482-45.908758 37.466021-83.03723 83.373781-82.915392 45.92973 0.113848 83.046218 37.441054 82.926377 83.3598-0.13482 45.913752-37.44405 83.030239-83.374779 82.9094z" fill="#F8EDD2" p-id="3281"></path><path d="M558.941381 639.903379h-0.080892c-20.644461-0.085885-37.385129-16.916434-37.342186-37.519949l0.247669-69.830847a10.30026 10.30026 0 0 0-3.025963-7.348197 10.346198 10.346198 0 0 0-7.367172-3.074899c-5.767307 0-10.44207 4.660783-10.460047 10.39014l0.117843 24.129811-0.120839 45.669079c-0.042943 20.576551-16.827552 37.326207-37.415089 37.326207-10.113509-0.026964-19.503982-3.95073-26.554576-11.041271-7.052592-7.095535-10.917436-16.517965-10.879487-26.521621l0.158788-69.755946c0.007989-5.746334-4.665776-10.45006-10.415106-10.466039-5.738345 0-10.41211 4.665776-10.425094 10.396132l-0.287616 103.379094-18.805913-7.50399c-36.245649-14.470696-59.596499-49.007625-59.488643-87.989623l0.17976-69.868796c-58.927392-46.673738-92.466651-113.065173-92.278901-183.16566C235.054441 152.401699 359.35962 42.808894 511.794274 42.808894h0.851864c152.902031 0.408455 277.008475 110.657385 276.655945 245.772143-0.190746 70.10548-34.087528 136.314159-93.267582 182.681306l-0.17976 69.857811c-0.115845 39.008963-23.654445 73.422056-59.965008 87.672047l-18.84586 7.396134 0.290612-103.373102a10.317237 10.317237 0 0 0-3.025963-7.36917 10.35219 10.35219 0 0 0-7.36118-3.068906c-5.754324 0-10.436078 4.660783-10.45006 10.39014l-0.109854 69.777917c-0.038948 20.603515-16.83654 37.358165-37.446047 37.358165z m-47.611487-145.295179c10.24034 0.021971 19.76763 3.993673 26.922086 11.186078 7.149463 7.186413 11.068235 16.722692 11.035279 26.850183l-0.247669 69.814868c-0.010985 5.439743 4.429092 9.895799 9.901791 9.922763 5.461714 0 9.911778-4.435084 9.922763-9.884814l0.109854-69.782911c0.045939-20.878149 17.075222-37.858497 37.958364-37.858497 10.218369 0.026964 19.732677 3.999665 26.879143 11.175093 7.157452 7.186413 11.078222 16.733678 11.043269 26.871154l-0.166778 59.064209c14.734345-12.417435 23.584539-30.805905 23.64346-50.926065l0.214714-83.527576 5.533618-4.117507c55.561881-41.293915 87.52724-101.389748 87.699011-164.889041 0.311584-119.935009-111.482284-217.809446-249.209558-218.174958h-0.776964c-137.299844 0-249.258493 97.278232-249.575071 216.852722-0.171771 63.493301 31.467023 123.75691 86.804205 165.340439l5.512646 4.144471-0.217709 83.549546c-0.056924 20.104181 8.697398 38.541586 23.374818 51.038915l0.163781-59.070201c0.050932-20.867164 17.06923-37.847512 37.942386-37.847512 20.988002 0.064913 37.966353 17.131147 37.942385 38.03626l-0.158788 69.787904a9.848862 9.848862 0 0 0 2.878161 7.036613 9.84287 9.84287 0 0 0 7.003657 2.9241c5.471701 0 9.911778-4.429092 9.922763-9.868836l0.120839-45.5772-0.117843-24.140797c0.073901-20.965033 17.092199-37.929403 37.941387-37.929403z m0.445406-39.724008c-14.226023-0.026964-24.965696-3.704059-32.147117-10.92243-6.353524-6.385482-9.557251-14.965037-9.522297-25.49499 0.018975-24.979678 25.987333-48.475335 41.637456-48.475335h0.045939c12.172762 0.042943 23.772288 11.809247 27.037932 15.411442 5.383818 5.945069 14.402787 18.173756 14.341868 33.316556-0.010985 8.454722-3.031955 36.164757-41.393781 36.164757z m-0.066911-56.817207c-4.969371 2.903127-14.075224 12.540271-14.081216 20.453715-0.004993 2.06924 0.249667 4.762647 1.512982 6.030955 0.650133 0.656125 3.475364 2.790278 12.468367 2.81125 14.027288 0 14.032281-4.042607 14.037275-8.724362 0.032956-7.945401-8.996998-17.642465-13.937408-20.571558z m116.113107-3.15579c-53.68139-0.128828-97.041548-43.712688-96.914717-97.143413 0.155792-53.296903 43.631796-96.649072 96.917713-96.649071h0.252663c25.887467 0.064913 50.198037 10.213376 68.452685 28.564895 18.251653 18.346526 28.266293 42.707029 28.199383 68.594496-0.156791 53.285917-43.629799 96.633093-96.907727 96.633093z m0.002996-180.031841v13.760644c-38.154103 0-69.282578 31.04259-69.395428 69.196693-0.088881 38.255967 30.953708 69.460341 69.199689 69.552218 38.342851 0 69.465334-31.037596 69.578184-69.186706 0.047936-18.534276-7.122499-35.972014-20.190067-49.114482-13.067568-13.137475-30.475346-20.399787-49.009622-20.447723l-0.182756-13.760644zM396.12158 394.304005c-26.148119-0.069907-50.455693-10.213376-68.710341-28.564895s-28.269289-42.707029-28.199383-68.589503c0.139813-53.290911 43.599838-96.649072 96.874771-96.649072h0.265645c25.885469 0.069907 50.192045 10.213376 68.446693 28.564895 18.254649 18.356513 28.266293 42.718015 28.191394 68.600488-0.138815 53.285917-43.595844 96.638086-96.868779 96.638087z m-0.033955-180.042826v13.760643c-38.14112 0-69.253617 31.04259-69.352485 69.202685-0.050932 18.529282 7.119503 35.966022 20.190067 49.103497 13.070564 13.142468 30.473349 20.40478 49.007625 20.452716 38.32887 0 69.43837-31.04259 69.538237-69.196692 0.053928-18.529282-7.114509-35.972014-20.182078-49.109489-13.070564-13.137475-30.475346-20.40478-49.009621-20.453715l-0.191745-13.759645z" fill="" p-id="3282"></path><path d="M536.249651 964.004034v-32.468688h110.905055c13.397128 0 24.254645-10.816571 24.254644-24.150783 0-13.35119-10.857516-24.151782-24.254644-24.151782H536.249651v-32.482668h98.936021c13.395131 0 24.255643-10.816571 24.255644-24.151782 0-13.341203-10.860512-24.150783-24.255644-24.150783h-98.936021v-18.331546c0-13.341203-10.861511-24.142794-24.247654-24.142794-13.398127 0-24.252647 10.801591-24.252647 24.142794v18.331546h-98.939017c-13.394132 0-24.251649 10.80958-24.251649 24.150783 0 13.335211 10.857516 24.151782 24.251649 24.151782h98.939017v32.482668H376.842298c-13.398127 0-24.252647 10.800592-24.252647 24.151782 0 13.335211 10.85452 24.150783 24.252647 24.150783h110.908051v32.468688h48.499302z" fill="#F8EDD2" p-id="3283"></path><path d="M550.010295 977.766675h-76.02059v-32.472682H376.840301c-20.958042 0-38.012292-17.007313-38.012292-37.907432 0-20.905113 17.053251-37.912425 38.012292-37.912426h97.148405V864.512753h-85.178373c-20.961038 0-38.01429-17.007313-38.014289-37.912425s17.053251-37.912425 38.014289-37.912425h85.178373v-4.574897c0-20.899121 17.053251-37.90144 38.012293-37.901441 20.958042 0 38.009296 17.002319 38.009296 37.901441v4.574897h85.175377c20.964034 0 38.017286 17.007313 38.017286 37.912425S656.149707 864.512753 635.185672 864.512753h-85.175377v4.961382h97.146408c20.961038 0 38.01429 17.007313 38.01429 37.912426 0 20.899121-17.053251 37.907432-38.01429 37.907432h-97.146408v32.472682z m-48.499303-27.522286h20.977017V917.771707h124.667695c5.786281 0 10.493002-4.660783 10.493003-10.385146 0-5.730356-4.705723-10.39014-10.493003-10.39014H522.489008v-60.004955H635.185672c5.786281 0 10.495-4.660783 10.495-10.390139 0-5.730356-4.708719-10.39014-10.495-10.39014H522.489008v-32.096184c0-5.724364-4.703725-10.380153-10.487011-10.380153-5.784284 0-10.490006 4.654791-10.490006 10.380153v32.096184h-112.699661c-5.786281 0-10.493002 4.660783-10.493002 10.39014 0 5.730356 4.705723 10.39014 10.493002 10.390139h112.699661v60.004955H376.840301c-5.784284 0-10.490006 4.660783-10.490007 10.39014 0 5.724364 4.705723 10.385146 10.490007 10.385146h124.670691v32.472682z" fill="" p-id="3284"></path><path d="M433.287002 143.102104m-22.688734 0a22.688734 22.688734 0 1 0 45.377467 0 22.688734 22.688734 0 1 0-45.377467 0Z" fill="#FFFFFF" p-id="3285"></path></svg>