<?xml version="1.0" standalone="no"?><!DOCTYPE svg PUBLIC "-//W3C//DTD SVG 1.1//EN" "http://www.w3.org/Graphics/SVG/1.1/DTD/svg11.dtd"><svg t="1637568496357" class="icon" viewBox="0 0 1024 1024" version="1.1" xmlns="http://www.w3.org/2000/svg" p-id="8107" xmlns:xlink="http://www.w3.org/1999/xlink" width="50" height="50"><defs><style type="text/css"></style></defs><path d="M506.990838 277.464274m-259.761111 0a259.761111 259.761111 0 1 0 519.522222 0 259.761111 259.761111 0 1 0-519.522222 0Z" fill="#FFFFFF" p-id="8108"></path><path d="M506.990838 549.089347c-149.774042 0-271.624076-121.852029-271.624076-271.627068S357.216796 5.8392 506.990838 5.8392s271.624076 121.847041 271.624076 271.623079-121.850034 271.627069-271.624076 271.627068z m0-519.524218c-136.691958 0-247.898147 111.208184-247.898147 247.89715 0 136.693954 111.207186 247.902138 247.898147 247.902137S754.888985 414.156232 754.888985 277.462279c0-136.688966-111.206188-247.897149-247.898147-247.89715z" fill="" p-id="8109"></path><path d="M242.301374 273.189377c0-144.325917 118.505937-261.325415 264.690462-261.325415 144.152328 0 261.390261 113.769132 264.621624 255.322601v513.524397s2.52204 56.190207-19.978784 56.190207c-18.530208 0-21.176953-40.509265-22.500824-61.416855 0 0-2.205787-12.632147-19.412124-12.632146s-18.971166 11.325235-18.971166 11.325235v90.164915s-7.941233 20.907589-26.47144 20.907589h-31.765929s-14.559592-3.919737-22.500824-19.600678V750.655989s0-20.254134-20.515516-20.254134-21.83839 18.947222-21.83839 18.947222v222.146007s-2.646745 29.401516-29.78062 29.401516c-34.192194 0-36.397981-26.787693-36.397981-26.787693V815.993578s-2.646745-18.947222-19.191645-18.947223-20.515516 18.947222-20.515516 18.947223V940.133201s0.440958 18.947222-19.191645 18.947222c-18.750687 0-21.176953-20.907589-21.176952-20.907589v-109.112138s1.323871-14.701257-14.889812-14.701256-14.889811 13.394345-14.889811 13.394345v96.698474s-1.764829 27.877119-29.118185 28.748061c-36.623448 1.166244-35.736544-28.74806-35.736545-28.748061v-152.888681s-1.323871-24.174868-24.486132-24.174868-24.486132 24.174868-24.486133 24.174868v206.465065s-1.323871 14.37403-15.882465 14.37403c-19.412124 0-18.530208-18.294764-18.530208-18.294764l-1.083439-700.918532z" fill="#1A1A1A" p-id="8110"></path><path d="M537.877843 1012.757569c-35.688658 0-47.147577-24.64775-48.220042-37.677956l-0.040903-0.972702V817.033121c-0.464901-2.200799-2.197806-8.122804-7.328681-8.122804-5.409217 0-7.879379 6.172413-8.652551 8.642576v122.57931c0.027934 1.075458 0.052875 13.196812-8.668514 22.126709-3.870852 3.961638-10.896249 8.683478-22.386096 8.683478-23.1882 0-31.699086-20.541455-32.960106-31.403784l-0.078813-1.36677 0.047887-110.169638c-0.005986-0.268366-0.186559-1.144296-0.374116-1.422638 0.032922 0.055868-0.743244-0.357156-2.700618-0.357156-2.000273 0-2.988936 0.34718-3.202432 0.481861l0.17359 1.051515-0.022946 97.445709c-0.846998 13.364416-10.415386 38.892087-40.580098 39.855809-15.996196 0.444948-28.148477-3.777074-36.77509-12.66008-11.353169-11.696358-11.245424-26.635054-11.195541-28.299122l-0.005986-152.096553c-0.34718-3.929713-2.308544-12.747873-12.624166-12.747873-10.246784 0-12.248054 8.702434-12.62217 12.784786l-0.049882 207.077617c-0.931798 10.106116-9.075552 25.147569-27.695548 25.14757-11.574646 0-18.534198-4.754763-22.335215-8.744335-7.828499-8.215584-8.108837-19.013067-8.057957-21.552067l-1.08344-700.759907c0-150.655958 124.060809-273.207334 276.552429-273.207334 72.736104 0 141.420783 27.668611 193.400939 77.913868 51.940251 50.203355 81.444524 117.324729 83.080657 189.005327l0.002993 513.533376c0.337203 7.970164 1.01959 44.805113-13.974973 60.486055-4.895431 5.120898-11.073829 7.826504-17.866776 7.826503-29.212962 0-32.618912-45.50446-34.252053-71.147857-0.559677-1.126338-2.294577-2.901144-7.660895-2.901144-4.01551 0-6.265194 0.907854-7.108201 1.718938v90.087098l-0.773173 2.034193c-4.029477 10.606933-16.47307 28.558508-37.561232 28.558508h-33.336217l-1.514421-0.408035c-2.013242-0.54172-19.956836-5.866137-29.998106-25.694278l-1.279975-2.53002V750.657984c-0.272356-8.392167-6.580449-8.392167-8.652552-8.392167-8.157721 0-9.71105 5.060042-9.976423 7.581084l-0.047887 222.712667c-1.251043 13.901148-11.555691 40.198001-41.5947 40.198001z m-24.535016-39.332047c0.467894 3.099675 3.692274 15.607116 24.535016 15.607116 14.553606 0 17.406863-14.239348 17.917656-18.215951l0.028932-222.290665c0.84201-12.052517 10.505173-29.986134 33.67342-29.986134 23.755858 0 32.377483 19.207607 32.377483 32.117098v111.902543c4.240977 6.770001 10.119086 9.786871 12.649106 10.829407h29.753684c7.767643 0 12.782791-8.076912 14.608476-11.621535l0.141665-89.414688c1.151279-7.390534 9.048616-21.362514 30.692465-21.362514 21.497196 0 29.74271 14.689285 31.097508 22.45593l0.153637 1.287956c2.6657 42.098509 8.393165 49.225666 10.731638 50.333049 4.435518-1.853619 8.987759-22.423008 8.056959-43.831414l-0.011971-0.523762V267.189556c-3.062762-134.12303-116.451792-243.463627-252.757663-243.463627-139.409536 0-252.8265 111.907531-252.8265 249.463448l1.08344 701.194879-0.013967 0.292309c0 0.811083 0.371123 3.318158 1.564303 4.518322 1.101397 1.112371 3.390986 1.343824 5.117905 1.343824 2.954019 0 3.797027-1.862598 4.019501-3.21141l0.016959-206.410195c0.778161-14.226379 11.096775-35.388367 36.330142-35.388367s35.551981 21.162986 36.332137 35.388367l0.01696 0.648468V924.450264c0 5.36133 2.455198 17.627342 23.495474 16.890084 15.394618-0.49084 17.389903-14.554603 17.633327-17.331042v-95.87941c-0.14366-2.863233 0.081807-10.829407 6.110559-17.483681 3.370036-3.716218 9.687107-8.150738 20.642217-8.150738 10.604938 0 16.852174 4.402595 20.227197 8.090879 6.496647 7.108201 6.675225 15.898428 6.525578 18.845463v107.881047c0.483857 2.82233 2.402323 9.902597 9.313989 9.902597 2.594868 0 4.41756-0.518774 5.4162-1.538364 1.572284-1.608199 1.92545-4.888447 1.917468-5.268549l-0.00399-125.642072 0.252403-1.205152c2.056141-9.814805 11.417018-28.377935 32.12508-28.377935 21.249781 0 29.530212 19.081904 30.93988 29.170063l0.113731 1.640124v157.431944z" fill="" p-id="8111"></path><path d="M850.468105 944.550761c0 37.326786-30.259488 67.586275-67.586275 67.586275h-39.425826c-37.326786 0-67.586275-30.259488-67.586274-67.586275V606.61839c0-37.326786 30.259488-67.586275 67.586274-67.586274h39.425826c37.326786 0 67.586275 30.259488 67.586275 67.586274v337.932371z" fill="#F8EDD2" p-id="8112"></path><path d="M782.882828 1024h-39.425826c-43.808468 0-79.450237-35.638776-79.450237-79.447244V606.619388c0-43.808468 35.641768-79.452232 79.450237-79.452232h39.425826c43.808468 0 79.448241 35.643764 79.448241 79.452232V944.552756c0 43.807471-35.639773 79.447244-79.448241 79.447244z m-39.426824-473.107913c-30.727383 0-55.724308 24.999918-55.724307 55.726303v337.933369c0 30.727383 24.996925 55.722313 55.724307 55.722312h39.425826c30.726385 0 55.72331-24.99493 55.72331-55.722312V606.619388c0-30.727383-24.996925-55.726303-55.72331-55.726303h-39.425826z" fill="" p-id="8113"></path><path d="M763.169416 760.786049c-6.211321 0-11.246422-7.603032-11.246422-16.982865 0 9.379833-5.036098 16.982865-11.246421 16.982865-6.211321 0-11.246422-7.603032-11.246422-16.982865V692.288927c0 9.379833-5.036098 16.982865-11.246421 16.982864-6.211321 0-11.246422-7.603032-11.246422-16.982864v-42.456663c0-42.141408 22.70135-76.988056 50.608398-76.988056h11.246422c27.907048 0 50.608398 34.846648 50.608398 76.988056v76.422392c0 9.379833-5.036098 17.548528-11.246421 17.548528-6.211321 0-11.246422-8.169693-11.246422-17.548528v17.548528c0 9.379833-5.036098 16.982865-11.246422 16.982865-6.211321 0-11.246422-7.603032-11.246421-16.982865 0.000998 9.378835-5.035101 16.982865-11.245424 16.982865z" fill="#FFE477" p-id="8114"></path><path d="M785.661261 772.650011c-4.109289 0-7.936244-1.273989-11.246421-3.530656-6.619357 4.513334-15.873486 4.513334-22.492843 0-3.310177 2.256667-7.137133 3.530656-11.246422 3.530656-12.958376 0-23.109386-12.669059-23.109386-28.845829v-22.678405c-12.662076-0.394069-22.492843-12.919468-22.492843-28.83685v-42.459656c0-48.994213 28.02477-88.850022 62.471363-88.850023h11.246421c34.446593 0 62.471363 39.85581 62.471363 88.850023v76.426383c0 16.492025-10.150013 29.411492-23.109386 29.411492-0.449937 0-0.895883-0.013967-1.337838-0.045892-3.550609 10.124074-11.586618 17.028756-21.154008 17.028757z m-23.108388-28.845829h22.492843v-17.548528h22.492843V649.829271c0-34.694008-18.105212-65.124093-38.746431-65.124094h-11.246422c-20.640221 0-38.746431 30.430085-38.746431 65.124094V692.288927h22.492843v51.514257h21.260755z" fill="" p-id="8115"></path><path d="M173.530898 861.113946c0 37.326786 30.259488 67.586275 67.586274 67.586274h39.425826c37.326786 0 67.586275-30.259488 67.586275-67.586274V523.181575c0-37.326786-30.259488-67.586275-67.586275-67.586275h-39.425826c-37.326786 0-67.586275 30.259488-67.586274 67.586275v337.932371z" fill="#F8EDD2" p-id="8116"></path><path d="M280.543996 940.562187h-39.425826c-43.808468 0-79.448241-35.638776-79.448242-79.447244V523.181575c0-43.808468 35.639773-79.447244 79.448242-79.447244h39.425826c43.808468 0 79.448241 35.638776 79.448241 79.447244v337.933368c0 43.808468-35.639773 79.447244-79.448241 79.447244z m-39.426824-473.102925c-30.726385 0-55.72331 24.99493-55.72331 55.722313v337.933368c0 30.727383 24.996925 55.722313 55.72331 55.722313h39.425826c30.726385 0 55.72331-24.99493 55.72331-55.722313V523.181575c0-30.727383-24.996925-55.722313-55.72331-55.722313h-39.425826z" fill="" p-id="8117"></path><path d="M260.830584 677.348236c6.211321 0 11.246422-7.603032 11.246422-16.982865 0 9.379833 5.036098 16.982865 11.246421 16.982865 6.211321 0 11.246422-7.603032 11.246422-16.982865v-51.514257c0 9.379833 5.036098 16.982865 11.246421 16.982864 6.211321 0 11.246422-7.603032 11.246422-16.982864v-42.456663c0-42.141408-22.70135-76.988056-50.608398-76.988056h-11.246422c-27.907048 0-50.608398 34.846648-50.608398 76.988056v76.422392c0 9.379833 5.036098 17.548528 11.246421 17.548528 6.211321 0 11.246422-8.169693 11.246422-17.548528v17.548528c0 9.379833 5.036098 16.982865 11.246422 16.982865 6.211321 0 11.246422-7.603032 11.246421-16.982865-0.000998 9.379833 5.035101 16.982865 11.245424 16.982865z" fill="#FFE477" p-id="8118"></path><path d="M283.323427 689.213195c-4.109289 0-7.936244-1.273989-11.246421-3.530656-6.619357 4.513334-15.873486 4.513334-22.492844 0-3.310177 2.256667-7.137133 3.530656-11.246421 3.530656-9.566392 0-17.602401-6.904682-21.155005-17.029754-0.442953 0.031925-0.888899 0.045892-1.337838 0.045892-12.958376 0-23.109386-12.919468-23.109386-29.411492v-76.426383c0-48.994213 28.02477-88.850022 62.471362-88.850023h11.246422c34.445595 0 62.470365 39.85581 62.470365 88.850023v42.459656c0 15.917383-9.829769 28.442782-22.491846 28.83685v22.678405c0.000998 16.177767-10.149015 28.846827-23.108388 28.846826z m-23.108388-28.845829h22.492843v-51.514257h22.491845v-42.459656c0-34.694008-18.105212-65.124093-38.744436-65.124093h-11.246421c-20.640221 0-38.746431 30.430085-38.746432 65.124093v76.426383h22.492843v17.548528h21.259758z" fill="" p-id="8119"></path><path d="M253.708416 532.528485m-19.558777 0a19.558777 19.558777 0 1 0 39.117554 0 19.558777 19.558777 0 1 0-39.117554 0Z" fill="#FFFFFF" p-id="8120"></path><path d="M793.792046 917.772047m-19.558777 0a19.558777 19.558777 0 1 0 39.117554 0 19.558777 19.558777 0 1 0-39.117554 0Z" fill="#FFFFFF" p-id="8121"></path></svg>