<?xml version="1.0" standalone="no"?><!DOCTYPE svg PUBLIC "-//W3C//DTD SVG 1.1//EN" "http://www.w3.org/Graphics/SVG/1.1/DTD/svg11.dtd"><svg t="1637572912622" class="icon" viewBox="0 0 1024 1024" version="1.1" xmlns="http://www.w3.org/2000/svg" p-id="4572" xmlns:xlink="http://www.w3.org/1999/xlink" width="50" height="50"><defs><style type="text/css"></style></defs><path d="M230.30808 734.981995S101.519149 691.811512 81.469259 629.313657c-20.04989-62.497855-26.913816-260.287308 102.958893-451.393464S530.514538-9.212112 591.567355 12.282815s234.818529 105.668338 305.986606 312.128014c71.168077 206.459676 110.364709 369.748868-69.54241 410.571166 0 0 7.225186 55.272669 0 76.767596-7.225186 21.675557-22.939964 40.822298-67.916744 55.272669 0 0 41.544817 100.791338-18.604853 117.589894-59.96904 16.798556-96.094967 14.450371-105.668337 11.921556-9.573371-2.348185-16.798556-103.320153-16.798557-103.320152h-27.636334s10.657149 92.301745 9.57337 104.945819c-1.264407 12.644075-7.225186 25.649409-27.636334 25.649408h-92.482374s-20.411149 1.445037-20.41115-23.843112 2.348185-108.016523 2.348186-108.016523h-24.023742s-1.264407 69.54241-4.877 86.340967c-3.612593 16.798556-7.225186 37.209705-32.332705 34.86152s-78.032003-3.612593-99.70756-22.759334-8.489593-81.644596 1.264407-106.752116c0 0-44.434891 3.612593-59.969039-25.28815-15.17289-28.539483-14.089112-74.238781-12.824705-123.370042z" fill="#C6D9E5" p-id="4573"></path><path d="M445.076719 357.285423s3.612593 88.869782 0 117.589894c-3.612593 28.720112-11.921556 70.806818-49.131261 83.992781-37.209705 13.185964-102.055745 8.489593-127.163265-8.489592-25.288149-16.798556-37.209705-48.047484-22.759334-113.977302s39.73852-143.961821 97.359374-180.087748c57.440225-35.945298 83.992781 0 89.95356 16.798556 5.780148 16.979186 10.657149 46.963706 11.740926 84.173411zM585.425948 308.87668c-6.322037 44.97678-9.031482 90.676078-7.225186 136.014117 0.903148 22.939964 2.890074 44.97678 6.683297 58.162743 10.837778 37.751594 30.526409 65.568558 66.652336 63.401003 35.945298-2.167556 111.629116-13.185964 136.917265-41.002927 25.288149-27.816964 16.256667-78.212633 9.031482-114.338561-7.225186-35.945298-27.094446-116.506116-88.147263-160.941007-61.233447-44.434891-100.791338-39.557891-109.280931-20.411149-6.322037 14.631001-8.850852 38.835372-14.631 79.115781z" fill="#DBE7EE" p-id="4574"></path><path d="M445.076719 344.821978s3.612593 88.869782 0 117.589894c-3.612593 28.720112-11.921556 70.806818-49.131261 83.992781-37.209705 13.185964-102.055745 8.489593-127.163265-8.489592-25.288149-16.798556-37.209705-48.047484-22.759334-113.977302 14.450371-66.110447 39.73852-143.961821 97.359374-180.087748 57.440225-35.945298 83.992781 0 89.95356 16.798556 5.780148 16.979186 10.657149 46.963706 11.740926 84.173411zM585.425948 296.413235c-6.322037 44.97678-9.031482 90.676078-7.225186 136.014117 0.903148 22.939964 2.890074 44.97678 6.683297 58.162744 10.837778 37.751594 30.526409 65.568558 66.652336 63.401002 35.945298-2.167556 111.629116-13.185964 136.917265-41.002927 25.288149-27.816964 16.256667-78.212633 9.031482-114.338561-7.225186-35.945298-27.094446-116.506116-88.147263-160.760377-61.233447-44.434891-100.791338-39.557891-109.280931-20.411149-6.322037 14.450371-8.850852 38.654742-14.631 78.935151z" fill="#3B444A" p-id="4575"></path><path d="M342.840344 244.03064c-57.440225 35.945298-82.909004 113.977301-97.359374 180.087749-0.361259 1.806296-0.541889 3.070704-0.903148 4.877 39.91915-31.971446 110.364709-76.767596 200.137638-85.979707-1.264407-36.306557-5.960778-65.568558-11.921556-82.186485-5.960778-16.798556-32.332705-52.743854-89.95356-16.798557zM708.79599 238.069862c-61.233447-44.434891-100.791338-39.557891-109.280931-20.411149-6.322037 14.269741-8.850852 38.654742-14.450371 78.754522-2.348185 16.076038-3.793222 32.332705-5.238259 48.770002 82.367115 4.696371 135.110969 15.534149 220.187528 70.0843-1.083778-5.599519-1.986926-11.199038-3.070704-16.256668-7.044556-36.125928-26.913816-116.506116-88.147263-160.941007z" fill="#283035" p-id="4576"></path><path d="M748.89577 780.681293c-1.806296 18.062964-19.86926 34.139001-70.264929 48.589373s-275.460197 25.288149-325.133348 14.450371-54.73078-64.84604-50.756928-93.566152c3.973852-28.720112 48.047484-64.84604 48.047484-64.84604-75.864448-39.557891-138.542932-93.566152-149.200081-154.7996-10.837778-61.233447 9.031482-152.993303 68.458633-301.651494 39.73852-99.165671 130.053339-179.36523 185.867897-221.813195-87.424745 13.005334-194.53812 57.801484-271.486346 170.875637-129.872709 191.106156-123.008783 389.076239-102.958893 451.393464 20.04989 62.497855 148.838821 105.668338 148.838821 105.668338-1.264407 49.131261-2.348185 94.83056 13.185964 123.550672 15.534149 28.720112 59.96904 25.288149 59.969039 25.288149-9.573371 25.288149-22.759334 87.605374-1.264407 106.752116 21.675557 19.146742 74.419411 20.411149 99.70756 22.759334 25.288149 2.348185 28.720112-18.062964 32.332705-34.86152 3.612593-16.798556 4.877-86.340967 4.877-86.340966h24.023742s-2.348185 82.909004-2.348185 108.016523 20.411149 23.843112 20.411149 23.843112h92.482374c20.411149 0 26.371927-13.005334 27.636335-25.649408 1.264407-12.644075-9.573371-104.945819-9.573371-104.94582h27.636335s7.225186 100.791338 16.798556 103.320153c9.573371 2.348185 45.699298 4.877 105.668338-11.921556s18.604853-117.589894 18.604852-117.589894c44.97678-14.450371 60.691558-33.597113 67.916744-55.272669s0-76.767596 0-76.767596c81.102707-18.424223 117.589894-61.775336 126.802006-122.647524-71.709966 71.890596-245.656307 99.88819-245.656307 99.888189 33.958372 23.120594 41.183557 50.215039 39.377261 68.278003z" fill="#B2CADA" p-id="4577"></path><path d="M367.044716 940.177263s-11.921556 14.450371-8.489593 19.146742c3.612593 4.877 18.062964 11.921556 31.248927 13.185963 13.185964 1.264407 22.759334-1.264407 24.023742-16.256667 1.264407-14.99226 4.877-29.442631 0-35.403409-4.877-5.960778-11.921556-9.573371-21.675556-5.960778-9.392741 3.793222-25.10752 25.288149-25.10752 25.288149zM552.009465 983.528376s-20.411149 5.960778-28.720113 0c-8.489593-5.960778-13.727852-7.225186-8.128333-25.288149 5.599519-18.062964 8.489593-43.712372 17.340445-44.61552 8.850852-0.903148 32.874594-5.05763 35.222779 0 2.348185 5.05763 3.612593 42.267335 2.348185 51.840706-1.264407 9.573371-6.322037 15.714778-18.062963 18.062963zM687.662322 894.116706c-3.793222 17.882334-9.031482 36.848446-7.225185 43.170483s0.903148 8.308963 16.256667 11.379667c15.353519 3.070704 35.04215 7.767074 42.267336 0s15.353519-14.99226 6.322037-30.345779-14.450371-24.385001-21.675557-31.429557c-7.225186-7.225186-10.837778-9.031482-18.966112-8.128333-7.947704 0.903148-15.353519 7.044556-16.979186 15.353519z" fill="#C6D9E5" p-id="4578"></path><path d="M504.865129 613.960138s-2.709445 58.524003-7.225185 70.264929-3.612593 18.966112-22.578705 18.062964-35.04215 3.612593-38.654742-3.612593-1.986926-19.146742 10.295889-40.280409c12.282815-20.953038 25.649409-37.209705 34.68089-48.950632s15.534149-14.450371 18.604853-12.824704c3.070704 1.445037 5.599519 4.154482 4.877 17.340445zM533.404612 614.321397s0.541889 44.97678 0 57.620855-3.431963 29.442631 8.308963 30.887668c11.560297 1.445037 30.345779 3.251333 38.474113 0 7.947704-3.251333 18.243593-3.251333 15.714779-18.243594-2.348185-14.99226-20.953038-35.945298-28.178224-50.937558s-14.450371-28.178223-18.062964-32.332705c-3.612593-4.154482-9.573371-7.947704-13.185963-4.877-3.793222 2.890074-3.251333 13.185964-3.070704 17.882334z" fill="#3B444A" p-id="4579"></path><path d="M543.519872 47.686224s-2.709445 6.322037 5.418889 12.644075 41.364187 18.062964 69.361781 28.720112c27.997594 10.837778 77.490114 37.751594 90.856707 49.492521 13.547223 11.740926 20.772408 18.966112 26.191298 15.353519s-4.515741-17.159816-13.547223-26.191297-40.461039-37.751594-65.749188-51.298817-56.717706-31.429557-72.071225-34.139002c-15.17289-2.528815-35.04215-8.850852-40.461039 5.418889z" fill="#DBE7EE" p-id="4580"></path></svg>