<?xml version="1.0" standalone="no"?><!DOCTYPE svg PUBLIC "-//W3C//DTD SVG 1.1//EN" "http://www.w3.org/Graphics/SVG/1.1/DTD/svg11.dtd"><svg t="1637572877191" class="icon" viewBox="0 0 1024 1024" version="1.1" xmlns="http://www.w3.org/2000/svg" p-id="2935" xmlns:xlink="http://www.w3.org/1999/xlink" width="50" height="50"><defs><style type="text/css"></style></defs><path d="M301.030718 375.436691C278.035962 371.386478 282.086175 405.356004 282.086175 405.356004c4.050213 47.687989 54.612546 79.567082 54.612545 79.567083 10.844118 6.924557 48.471901 4.050213 48.471901 4.050212a23.517364 23.517364 0 0 1 23.517365 16.200851v43.637776c0.783912 6.532601 10.060206 5.748689 10.060205 5.748689-0.783912 6.793905 9.66825 11.236074 9.66825 11.236074s1.30652-13.065202 0.783912 1.698477a16.462155 16.462155 0 0 0 13.065203 16.984763c-0.783912 8.884338 16.200851 13.065202 16.200851 13.065202 3.658257 10.060206 28.351489 5.226081 28.351489 5.226081 8.492382 8.492382 24.301276 0 24.301276 0 10.060206 6.924557 27.436925-2.351736 27.436925-2.351736a32.92431 32.92431 0 0 0 26.130405-5.356733 15.286287 15.286287 0 0 0 18.291283-14.502375c10.060206 2.482388 13.065202-14.110419 13.065203-14.110419 8.492382 2.351736 11.236074-13.065202 11.236074-13.065202 2.482388 1.95978 8.100425-1.698476 8.100425-1.698476l1.30652-45.858861c1.30652-22.994756 44.682992-13.065202 44.682993-13.065202 57.356238-3.788909 80.220343-82.833383 80.220342-82.833383 11.497378-34.361482-16.592807-34.361482-16.592807-34.361482 22.994756-30.572574 26.130405-121.114426 26.130405-121.114426 5.095429-108.310528-20.512368-140.189622-20.512368-140.189622C622.173392-12.077212 522.747202 0.33473 522.747202 0.33473c-105.828139-3.919561-166.973286 49.647769-209.043238 91.456417s-40.763431 145.28505-40.763431 145.285051a270.057733 270.057733 0 0 0 28.090185 138.360493z m298.27857-71.989265c16.592807-4.834125 28.351489 4.050213 48.471901 5.356733s19.859108 0 38.019739 17.768675 5.748689 70.813397 5.748689 70.813397a44.291036 44.291036 0 0 1-45.728208 39.195607 125.817899 125.817899 0 0 1-68.722965-25.085189c-20.251064-16.200851-28.743445-60.753191-28.743445-60.753191a81.134907 81.134907 0 0 1 50.954289-47.296032zM506.938307 392.290802a7.839121 7.839121 0 0 1 10.844118 0A97.205106 97.205106 0 0 1 550.053475 487.144171s-28.743445 27.436925-36.84387-6.924557c0 0-16.200851 33.969526-40.763432 3.2663C471.662261 483.747218 458.597059 437.36575 506.938307 392.290802z m-167.103938-65.326012c18.291283-18.291283 17.899327-16.592807 38.019739-17.768675s32.009746-10.190858 48.602553-5.356733a81.134907 81.134907 0 0 1 50.954289 47.296032s-8.492382 44.55234-28.743445 60.753191A125.817899 125.817899 0 0 1 380.205844 436.581838a44.291036 44.291036 0 0 1-45.728208-39.195607s-12.803898-52.652766 5.356733-70.421441z" fill="#2E2260" p-id="2936"></path><path d="M916.793706 906.537167s-8.753686-29.266053-35.406698-27.828881a454.669043 454.669043 0 0 1-80.742951-5.226081c-18.421935-5.356733-99.687494-39.195607-227.334521-113.797912 57.094934-35.014742 181.998269-99.42619 212.832146-112.360741s91.456417-6.009993 91.456417-6.009993C904.904372 640.529647 915.879142 614.399242 926.200652 590.620574a40.110171 40.110171 0 0 0-14.894331-49.909073c-10.97477-7.969773-16.331503-4.703473-21.557584-26.914317s-9.929554-26.130405-9.929554-26.130405c-27.044969-32.27105-73.949045 13.065202-73.949045 13.065203-9.406946 9.01499-7.577817 15.286287-7.577818 15.286286-44.291036 79.828387-271.886861 198.721728-287.434452 206.56085-15.155635-7.839121-242.620808-126.732463-286.519888-206.822154 0 0 1.829128-6.271297-7.708469-15.286287 0 0-46.773425-45.336252-73.818394-13.065202 0 0-4.180865 3.527605-9.929554 26.130405s-10.97477 18.944543-22.080192 26.914317a40.240823 40.240823 0 0 0-14.24107 50.170377C107.143115 614.399242 117.856581 640.529647 145.032202 641.313559c0 0 60.622539-6.924557 91.456416 6.009993s155.60656 77.345998 212.701495 112.360741c-127.777679 74.732958-209.043238 108.44118-227.465173 113.797912a454.146435 454.146435 0 0 1-80.742951 5.226081C114.59028 877.271114 105.836594 906.537167 105.836594 906.537167a40.502127 40.502127 0 0 1-10.582813 16.462155c-12.150638 16.723459 24.693232 31.879094 24.693232 31.879094a20.251064 20.251064 0 0 1 18.683239 22.472148c-1.567824 27.828881 11.758682 37.366479 11.758683 37.366479 50.692985 21.29628 71.989265-3.527605 71.989265-3.527605 4.572821-10.582814 56.702978-57.748195 56.702978-57.748194 7.577817-13.065202 143.717226-99.948798 232.299298-155.345256C599.831896 853.492446 735.971305 941.029302 743.679775 954.094504c0 0 52.26081 47.165381 56.572326 57.748195 0 0 21.426932 24.823885 71.989265 3.527604 0 0 13.065202-9.537598 11.889334-37.366479A20.120412 20.120412 0 0 1 902.813939 954.878416s36.974523-15.155635 24.823885-31.879094a41.677996 41.677996 0 0 1-10.844118-16.462155z" fill="#2E2260" p-id="2937"></path></svg>