<?xml version="1.0" standalone="no"?><!DOCTYPE svg PUBLIC "-//W3C//DTD SVG 1.1//EN" "http://www.w3.org/Graphics/SVG/1.1/DTD/svg11.dtd"><svg t="1637572888607" class="icon" viewBox="0 0 1024 1024" version="1.1" xmlns="http://www.w3.org/2000/svg" p-id="3230" xmlns:xlink="http://www.w3.org/1999/xlink" width="50" height="50"><defs><style type="text/css"></style></defs><path d="M512 64.2c-222.3 0-406.7 183.6-406.7 405 0 108 37 199.8 102.1 275.4v129.6c0 27 27.1 54 54.2 54h500.7c27.1 0 54.2-27 54.2-54V744.7c65.1-70.2 102.1-167.4 102.1-275.4 0.1-221.5-184.3-405.1-406.6-405.1z m229.6 604.9l-27.1 32.4v123.7H665V723.5h-52.6v101.6h-49.5V723.5H461.1v101.6h-49.5V723.5H359v101.6h-49.5V701.5l-27.1-32.4c-54.2-54-75-124.2-75-199.8 0-162 141.9-303.4 304.6-303.4 162.7 0 304.6 141.4 304.6 303.4 0 75.6-20.8 145.8-75 199.8z m-433-147.9h101.6V419.5H308.6v101.7z m304.8 0H715V419.5H613.4v101.7z" p-id="3231"></path></svg>