<?xml version="1.0" standalone="no"?><!DOCTYPE svg PUBLIC "-//W3C//DTD SVG 1.1//EN" "http://www.w3.org/Graphics/SVG/1.1/DTD/svg11.dtd"><svg t="1640748165838" class="icon" viewBox="0 0 1024 1024" version="1.1" xmlns="http://www.w3.org/2000/svg" p-id="10573" xmlns:xlink="http://www.w3.org/1999/xlink" width="50" height="50"><defs><style type="text/css"></style></defs><path d="M727.04 434.688H378.88c-84.992 0-153.6-68.608-153.6-153.6s68.608-153.6 153.6-153.6h348.16c84.992 0 153.6 68.608 153.6 153.6s-68.608 153.6-153.6 153.6z" fill="#172A88" p-id="10574"></path><path d="M721.92 281.088m-128 0a128 128 0 1 0 256 0 128 128 0 1 0-256 0Z" fill="#FFFFFF" p-id="10575"></path><path d="M378.88 555.008h348.16c84.992 0 153.6 68.608 153.6 153.6s-68.608 153.6-153.6 153.6H378.88c-84.992 0-153.6-68.608-153.6-153.6 0-84.48 68.608-153.6 153.6-153.6z" fill="#636363" p-id="10576"></path><path d="M384 708.608m-128 0a128 128 0 1 0 256 0 128 128 0 1 0-256 0Z" fill="#FFFFFF" p-id="10577"></path></svg>