<?xml version="1.0" standalone="no"?><!DOCTYPE svg PUBLIC "-//W3C//DTD SVG 1.1//EN" "http://www.w3.org/Graphics/SVG/1.1/DTD/svg11.dtd"><svg t="1640748108281" class="icon" viewBox="0 0 1133 1024" version="1.1" xmlns="http://www.w3.org/2000/svg" p-id="6775" xmlns:xlink="http://www.w3.org/1999/xlink" width="55.322265625" height="50"><defs><style type="text/css"></style></defs><path d="M856.742122 15.453174H264.067466c-127.715934 0-231.797603 104.536174-231.797604 231.797603 0 127.715934 104.536174 231.797603 231.797604 231.797603h592.674656c127.715934 0 231.797603-104.536174 231.797603-231.797603s-104.536174-231.797603-231.797603-231.797603z m-3.181536 434.961384c-112.262761 0-202.709277-90.901021-202.709277-202.709276s90.901021-202.709277 202.709277-202.709277c112.262761 0 202.709277 90.901021 202.709276 202.709277s-90.901021 202.709277-202.709276 202.709276z" fill="#5DBEAA" p-id="6776"></path><path d="M875.831336 549.951176H283.611185c-127.715934 0-231.797603 104.536174-231.797603 231.797603 0 127.715934 104.536174 231.797603 231.797603 231.797604h592.674656c127.715934 0 231.797603-104.536174 231.797603-231.797604s-104.536174-231.797603-232.252108-231.797603zM286.792721 984.912561c-112.262761 0-202.709277-90.901021-202.709277-202.709276s90.901021-202.709277 202.709277-202.709277c112.262761 0 202.709277 90.901021 202.709276 202.709277s-90.901021 202.709277-202.709276 202.709276z" fill="#CBCBCB" p-id="6777"></path></svg>