<?xml version="1.0" standalone="no"?><!DOCTYPE svg PUBLIC "-//W3C//DTD SVG 1.1//EN" "http://www.w3.org/Graphics/SVG/1.1/DTD/svg11.dtd"><svg t="1640748119272" class="icon" viewBox="0 0 1024 1024" version="1.1" xmlns="http://www.w3.org/2000/svg" p-id="7608" xmlns:xlink="http://www.w3.org/1999/xlink" width="50" height="50"><defs><style type="text/css"></style></defs><path d="M527.889655 487.282759H370.758621c-81.213793 0-146.537931-65.324138-146.537931-146.537931S289.544828 194.206897 370.758621 194.206897h157.131034c81.213793 0 146.537931 65.324138 146.537931 146.537931s-65.324138 146.537931-146.537931 146.537931z" fill="#FFB471" p-id="7609"></path><path d="M263.062069 340.744828c0 60.027586 49.434483 109.462069 109.462069 109.462069s109.462069-49.434483 109.462069-109.462069c0-60.027586-49.434483-109.462069-109.462069-109.462069s-109.462069 47.668966-109.462069 109.462069z m0 0" fill="#666666" p-id="7610"></path><path d="M716.8 512c68.855172-26.482759 120.055172-93.572414 120.055172-171.255172 0-100.634483-82.97931-183.613793-183.613793-183.613794H370.758621c-100.634483 0-183.613793 82.97931-183.613793 183.613794 0 79.448276 49.434483 146.537931 120.055172 173.020689-68.855172 26.482759-120.055172 93.572414-120.055172 171.255173 0 100.634483 82.97931 183.613793 183.613793 183.613793h282.482758c100.634483 0 183.613793-82.97931 183.613793-183.613793 0-79.448276-51.2-146.537931-120.055172-173.02069z m82.97931 171.255172c0 81.213793-65.324138 146.537931-146.537931 146.537931H372.524138c-81.213793 0-146.537931-65.324138-146.537931-146.537931s65.324138-146.537931 146.537931-146.537931H653.241379c79.448276 0 146.537931 67.089655 146.537931 146.537931z m-148.303448-195.972413H370.758621c-81.213793 0-146.537931-65.324138-146.537931-146.537931S289.544828 194.206897 370.758621 194.206897h280.717241c81.213793 0 146.537931 65.324138 146.537931 146.537931s-65.324138 146.537931-146.537931 146.537931z" fill="#666666" p-id="7611"></path><path d="M649.710345 609.103448c40.606897 0 74.151724 33.544828 74.151724 74.151724 0 40.606897-33.544828 74.151724-74.151724 74.151725-40.606897 0-74.151724-33.544828-74.151724-74.151725 0-40.606897 33.544828-74.151724 74.151724-74.151724m0-35.310345c-60.027586 0-109.462069 49.434483-109.462069 109.462069 0 60.027586 49.434483 109.462069 109.462069 109.462069 60.027586 0 109.462069-49.434483 109.462069-109.462069 1.765517-60.027586-47.668966-109.462069-109.462069-109.462069z" fill="#666666" p-id="7612"></path></svg>