<?xml version="1.0" standalone="no"?><!DOCTYPE svg PUBLIC "-//W3C//DTD SVG 1.1//EN" "http://www.w3.org/Graphics/SVG/1.1/DTD/svg11.dtd"><svg t="1640748094964" class="icon" viewBox="0 0 1024 1024" version="1.1" xmlns="http://www.w3.org/2000/svg" p-id="6630" xmlns:xlink="http://www.w3.org/1999/xlink" width="50" height="50"><defs><style type="text/css"></style></defs><path d="M332.8 247.7h426.7c146.1 0 264.5 118.4 264.5 264.5S905.6 776.7 759.5 776.7H332.8c-146.1 0-264.5-118.4-264.5-264.5s118.4-264.5 264.5-264.5z" fill="#FE6833" p-id="6631"></path><path d="M759.5 512.2m-238.9 0a238.9 238.9 0 1 0 477.8 0 238.9 238.9 0 1 0-477.8 0Z" p-id="6632"></path><path d="M759.5 512.2m-234.7 0a234.7 234.7 0 1 0 469.4 0 234.7 234.7 0 1 0-469.4 0Z" fill="#FFFFFF" p-id="6633"></path></svg>