<?xml version="1.0" standalone="no"?><!DOCTYPE svg PUBLIC "-//W3C//DTD SVG 1.1//EN" "http://www.w3.org/Graphics/SVG/1.1/DTD/svg11.dtd"><svg t="1638078043001" class="icon" viewBox="0 0 1024 1024" version="1.1" xmlns="http://www.w3.org/2000/svg" p-id="9704" xmlns:xlink="http://www.w3.org/1999/xlink" width="50" height="50"><defs><style type="text/css"></style></defs><path d="M69.8 512.6c0 243.9 197.7 441.6 441.6 441.6S953 756.5 953 512.6 755.3 71 511.4 71 69.8 268.7 69.8 512.6z" fill="#7D6CF7" p-id="9705"></path><path d="M727 475.8c-1.6 0-3.3-0.1-4.9-0.4l-136.6-22.3c-11.1-1.8-20.1-9.5-23.5-20.3-3.5-10.7-0.7-22.3 7.3-30.2l114.3-114.4c8-8 19.5-10.7 30.2-7.3 10.7 3.5 18.4 12.5 20.3 23.5l22.3 136.7c1.6 9.6-1.5 19-8.4 25.9-5.7 5.8-13.1 8.8-21 8.8z m-22.5-176.9c-2.7 0-5.3 1-7.3 3.1L582.9 416.3c-2.8 2.8-3.8 6.8-2.5 10.6 1.2 3.8 4.3 6.5 8.2 7.1l136.6 22.3c3.3 0.5 6.7-0.5 9.1-2.9 2.4-2.4 3.5-5.7 2.9-9.1l-22.3-136.7c-0.7-3.9-3.3-7.1-7.1-8.2-1.1-0.3-2.2-0.5-3.3-0.5z" fill="#FFFFFF" p-id="9706"></path><path d="M727 482c-2 0-3.9-0.2-5.9-0.5l-136.7-22.3c-13.4-2.2-24.3-11.6-28.4-24.5-4.2-12.9-0.8-26.9 8.8-36.4L679.3 284c9.6-9.6 23.5-12.9 36.4-8.8 12.9 4.2 22.2 15 24.5 28.4l22.3 136.7c1.9 11.5-1.8 22.9-10.1 31.2-6.8 6.7-15.8 10.5-25.4 10.5z m-22.3-196.3c-6.2 0-12.2 2.4-16.7 7L573.6 407c-6.3 6.3-8.6 15.5-5.8 24 2.7 8.5 9.8 14.7 18.7 16.1l136.6 22.3c7.5 1.2 15.1-1.2 20.6-6.7 5.5-5.5 7.9-13 6.6-20.6L728 305.5c-1.4-8.8-7.6-16-16.1-18.7-2.3-0.8-4.8-1.1-7.2-1.1z m22.2 176.9c-0.9 0-1.8-0.1-2.7-0.2l-136.7-22.3c-6.2-1-11.1-5.2-13.1-11.3-1.9-6-0.4-12.4 4-16.8l114.3-114.4c4.2-4.3 10-6 16.6-4.1 6 1.9 10.4 6.9 11.5 13.1l22.3 136.7c0.8 5.4-0.9 10.6-4.7 14.4-2.9 3.2-7.1 4.9-11.5 4.9zM704.5 305c-1.1 0-2.2 0.4-3 1.3L587.2 420.7c-1.2 1.2-1.6 2.8-1.1 4.3 0.5 1.6 1.8 2.7 3.4 3l136.6 22.3c1.4 0.2 2.8-0.2 3.8-1.2s1.4-2.3 1.2-3.8l-22.3-136.6c-0.2-1-0.8-2.7-2.9-3.4-0.6-0.2-1.1-0.3-1.4-0.3z" fill="#F9F9F9" p-id="9707"></path><path d="M510.2 745.7c-31.3 0-61.6-6.2-90.2-18.3-27.6-11.7-52.4-28.5-73.7-49.9-21.3-21.4-38-46.3-49.7-74.1-12.1-28.8-18.2-59.2-18.2-90.7s6.2-62 18.2-90.7c11.6-27.7 28.4-52.7 49.7-74.1 21.3-21.4 46-38.2 73.7-49.9 28.6-12.1 58.9-18.3 90.2-18.3 25.8 0 51.2 4.2 75.4 12.6 23.4 8.1 45.3 19.9 65.1 35.1 3.9 3 4.6 8.7 1.7 12.6-3 3.9-8.6 4.7-12.6 1.7-37.5-28.8-82.3-44-129.6-44-117.9 0-213.9 96.5-213.9 215.1s96 215.1 213.9 215.1c93.1 0 174.9-59.8 203.5-148.7 1.3-3.9 6.8-30 12.7-21.9 5.8 8.1 7.4 18.1 4.4 27.5-7.4 23.1-18.5 44.9-32.7 64.7-14.1 19.5-31 36.7-50.2 51-40.1 29.5-87.7 45.2-137.7 45.2z" fill="#F0BB3C" p-id="9708"></path><path d="M510.2 758c-32.9 0-64.8-6.5-95-19.3-29.1-12.3-55.2-30-77.6-52.6-22.4-22.5-39.9-48.7-52.3-78-12.7-30.4-19.2-62.5-19.2-95.5s6.5-65.1 19.2-95.5c12.3-29.2 29.9-55.5 52.3-78s48.5-40.2 77.6-52.6c55.2-23.4 118.2-25.5 174.5-6 24.8 8.6 47.8 21 68.5 36.9 9.2 7.1 11 20.4 4 29.7-7.1 9.4-20.5 11.2-29.8 4.1-35.3-27.2-77.6-41.5-122.2-41.5-111.2 0-201.6 91-201.6 202.8S399 715.4 510.2 715.4c87.8 0 164.9-56.3 191.8-140.2l0.6-2.4c4.1-15.4 8.1-27.4 18.8-29.4 5.6-1.1 11.2 1.3 14.8 6.4 8.1 11.3 10.4 25.3 6.2 38.4-7.8 24.2-19.3 47.1-34.4 68.1-14.8 20.6-32.6 38.6-52.9 53.7-42.2 31.4-92.3 48-144.9 48z" fill="#FFFFFF" p-id="9709"></path><path d="M793.3 476.1L770.1 334c-2.7-16.9-23.4-23.5-35.4-11.4l-119 119c-12 12-5.4 32.7 11.4 35.4l142.2 23.2c14.1 2.2 26.3-10.1 24-24.1z" fill="#FFFFFF" p-id="9710"></path></svg>