<?xml version="1.0" standalone="no"?><!DOCTYPE svg PUBLIC "-//W3C//DTD SVG 1.1//EN" "http://www.w3.org/Graphics/SVG/1.1/DTD/svg11.dtd"><svg t="1641044238415" class="icon" viewBox="0 0 1024 1024" version="1.1" xmlns="http://www.w3.org/2000/svg" p-id="10862" xmlns:xlink="http://www.w3.org/1999/xlink" width="50" height="50"><defs><style type="text/css"></style></defs><path d="M824.2 139.9l-10.1 8.8v723.9c0 7.3 5.9 13.3 13.3 13.3h52c7.3 0 13.3-5.9 13.3-13.3V148.7l-9.8-8.8h-58.7zM131.3 148.7v723.9c0 7.3 5.9 13.3 13.3 13.3h52c7.3 0 13.3-5.9 13.3-13.3V148.7l-6.5-5.8h-67.6l-4.5 5.8z" fill="#889CA9" p-id="10863"></path><path d="M835.5 885.8h43.9c7.3 0 13.3-5.9 13.3-13.3V148.7l-9.8-8.8H839l9.8 8.8v723.9c0 7.3-6 13.2-13.3 13.2zM152.7 885.8h43.9c7.3 0 13.3-5.9 13.3-13.3V148.7l-6.5-5.8h-43.9l6.5 5.8v723.9c-0.1 7.3-6 13.2-13.3 13.2z" fill="#73859E" p-id="10864"></path><path d="M92 659.5v52c0 7.3 5.9 13.3 13.3 13.3h813.5c7.3 0 13.3-5.9 13.3-13.3v-52c0-7.3-5.9-13.3-13.3-13.3H105.3c-7.4 0.1-13.3 6-13.3 13.3z" fill="#889CA9" p-id="10865"></path><path d="M840.1 724.9h78.6c7.3 0 13.3-5.9 13.3-13.3v-52c0-7.3-5.9-13.3-13.3-13.3h-78.6c7.3 0 13.3 5.9 13.3 13.3v52c0 7.3-5.9 13.3-13.3 13.3z" fill="#73859E" p-id="10866"></path><path d="M92 111.6v52c0 7.3 5.9 13.3 13.3 13.3h813.5c7.3 0 13.3-5.9 13.3-13.3v-52c0-7.3-5.9-13.3-13.3-13.3H105.3c-7.4 0-13.3 5.9-13.3 13.3z" fill="#889CA9" p-id="10867"></path><path d="M840.1 176.9h78.6c7.3 0 13.3-5.9 13.3-13.3v-52c0-7.3-5.9-13.3-13.3-13.3h-78.6c7.3 0 13.3 5.9 13.3 13.3v52c0 7.3-5.9 13.3-13.3 13.3z" fill="#73859E" p-id="10868"></path><path d="M271 238.6v407.7h-33.8c-7.5 0-13.7-6.1-13.7-13.7V252.3c0-7.5 6.1-13.7 13.7-13.7H271z" fill="#EB866B" p-id="10869"></path><path d="M251.6 270.5H271v234.6h-19.4z" fill="#FEF8E6" p-id="10870"></path><path d="M318.4 252.3v380.3c0 7.5-6.1 13.7-13.7 13.7H271V505.1h19.4V270.5H271v-31.9h33.7c7.6 0 13.7 6.1 13.7 13.7z" fill="#DA6749" p-id="10871"></path><path d="M271 270.5h19.4v234.6H271z" fill="#FCEFAD" p-id="10872"></path><path d="M365.8 238.6v407.7H332c-7.5 0-13.6-6.1-13.6-13.7V252.3c0-7.5 6.1-13.7 13.6-13.7h33.8z" fill="#FDF17F" p-id="10873"></path><path d="M346.4 270.5h19.4v234.6h-19.4z" fill="#46CDFB" p-id="10874"></path><path d="M413.2 252.3v380.3c0 7.5-6.1 13.7-13.7 13.7h-33.8V505.1h19.4V270.5h-19.4v-31.9h33.8c7.6 0 13.7 6.1 13.7 13.7z" fill="#FAD672" p-id="10875"></path><path d="M365.8 270.5h19.4v234.6h-19.4z" fill="#15B7FF" p-id="10876"></path><path d="M756.6 328.6v317.7h-33.8c-7.5 0-13.7-6.1-13.7-13.7V342.3c0-7.5 6.1-13.7 13.7-13.7h33.8z" fill="#F77490" p-id="10877"></path><path d="M737.2 362.6h19.4V541h-19.4z" fill="#FDF17F" p-id="10878"></path><path d="M804.1 342.3v290.3c0 7.5-6.1 13.7-13.7 13.7h-33.8V541H776V362.6h-19.4v-34h33.8c7.6 0 13.7 6.1 13.7 13.7z" fill="#F65D73" p-id="10879"></path><path d="M756.6 362.6H776V541h-19.4z" fill="#FAD672" p-id="10880"></path><path d="M661.8 378.6v267.7H628c-7.5 0-13.7-6.1-13.7-13.7V392.3c0-7.5 6.1-13.7 13.7-13.7h33.8z" fill="#8ADCFF" p-id="10881"></path><path d="M642.4 415.9h19.4v178.3h-19.4z" fill="#46CDFB" p-id="10882"></path><path d="M709.2 392.3v240.3c0 7.5-6.1 13.7-13.7 13.7h-33.8v-52h19.4V415.9h-19.4v-37.3h33.8c7.6 0 13.7 6.1 13.7 13.7z" fill="#46CDFB" p-id="10883"></path><path d="M661.8 415.9h19.4v178.3h-19.4z" fill="#15B7FF" p-id="10884"></path><path d="M529.4 640l-34.1 6c-7.4 1.3-14.5-3.7-15.8-11.1l-66-374.6c-1.3-7.4 3.6-14.5 11.1-15.8l33-5.8 8.3 46.1 41.3 230.9L529.4 640z" fill="#50E6CC" p-id="10885"></path><path d="M507.2 515.8l-19.5 3.5-41.4-230.9 19.5-3.5z" fill="#FDF17F" p-id="10886"></path><path d="M507.2 515.8l-19.5 3.5-41.4-230.9 19.5-3.5z" fill="#FDF17F" p-id="10887"></path><path d="M561.8 634.3l-32.4 5.7-22.3-124.2 18.7-3.3-41.3-230.9-18.7 3.4-8.3-46.1L491 233c7.4-1.3 14.5 3.7 15.8 11.1l66 374.5c1.4 7.3-3.5 14.4-11 15.7z" fill="#45DABD" p-id="10888"></path><path d="M465.747 284.901l18.701-3.35 41.36 230.918-18.701 3.35z" fill="#FAD672" p-id="10889"></path><path d="M814.1 656.2c-5.5 0-10-4.5-10-10V176.9c0-5.5 4.5-10 10-10s10 4.5 10 10v469.3c0 5.5-4.5 10-10 10zM892.7 656.2c-5.5 0-10-4.5-10-10V176.9c0-5.5 4.5-10 10-10s10 4.5 10 10v469.3c0 5.5-4.5 10-10 10zM879.4 895.9h-52c-12.8 0-23.3-10.5-23.3-23.3V724.8c0-5.5 4.5-10 10-10s10 4.5 10 10v147.8c0 1.8 1.5 3.3 3.3 3.3h52c1.8 0 3.3-1.5 3.3-3.3V724.8c0-5.5 4.5-10 10-10s10 4.5 10 10v147.8c0 12.8-10.5 23.3-23.3 23.3zM131.3 656.2c-5.5 0-10-4.5-10-10V176.9c0-5.5 4.5-10 10-10s10 4.5 10 10v469.3c0 5.5-4.5 10-10 10zM209.9 656.2c-5.5 0-10-4.5-10-10V176.9c0-5.5 4.5-10 10-10s10 4.5 10 10v469.3c0 5.5-4.5 10-10 10zM196.6 895.9h-52c-12.8 0-23.3-10.5-23.3-23.3V724.8c0-5.5 4.5-10 10-10s10 4.5 10 10v147.8c0 1.8 1.5 3.3 3.3 3.3h52c1.8 0 3.3-1.5 3.3-3.3V724.8c0-5.5 4.5-10 10-10s10 4.5 10 10v147.8c0 12.8-10.5 23.3-23.3 23.3z" fill="#00435B" p-id="10890"></path><path d="M918.8 734.8H105.3c-12.8 0-23.3-10.5-23.3-23.3v-52c0-12.7 10.4-23.1 23.2-23.3h813.6c12.8 0 23.3 10.5 23.3 23.3v52c0 12.8-10.5 23.3-23.3 23.3z m-813.4-78.6c-1.9 0-3.4 1.5-3.4 3.3v52c0 1.8 1.5 3.3 3.3 3.3h813.5c1.8 0 3.3-1.5 3.3-3.3v-52c0-1.8-1.5-3.3-3.3-3.3H105.4zM918.8 186.9H105.3c-12.8 0-23.3-10.5-23.3-23.3v-52c0-12.8 10.5-23.3 23.3-23.3h813.5c12.8 0 23.3 10.5 23.3 23.3v52c0 12.8-10.5 23.3-23.3 23.3z m-813.5-78.6c-1.9 0-3.3 1.4-3.3 3.3v52c0 1.8 1.5 3.3 3.3 3.3h813.5c1.8 0 3.3-1.5 3.3-3.3v-52c0-1.8-1.5-3.3-3.3-3.3H105.3z" fill="#00435B" p-id="10891"></path><path d="M304.7 656.3h-67.5c-13.1 0-23.7-10.6-23.7-23.7V252.3c0-13.1 10.6-23.7 23.7-23.7h67.5c13.1 0 23.7 10.6 23.7 23.7v380.3c0 13.1-10.6 23.7-23.7 23.7z m-67.5-407.7c-2 0-3.7 1.7-3.7 3.7v380.3c0 2 1.7 3.7 3.7 3.7h67.5c2 0 3.7-1.7 3.7-3.7V252.3c0-2.1-1.6-3.7-3.7-3.7h-67.5z" fill="#00435B" p-id="10892"></path><path d="M290.4 515.1h-38.8c-5.5 0-10-4.5-10-10V270.5c0-5.5 4.5-10 10-10h38.8c5.5 0 10 4.5 10 10v234.6c0 5.5-4.5 10-10 10z m-28.8-20h18.8V280.5h-18.8v214.6z" fill="#00435B" p-id="10893"></path><path d="M399.5 656.3H332c-13 0-23.6-10.6-23.6-23.7V252.3c0-13.1 10.6-23.7 23.6-23.7h67.5c13.1 0 23.7 10.6 23.7 23.7v380.3c0 13.1-10.6 23.7-23.7 23.7zM332 248.6c-2 0-3.6 1.7-3.6 3.7v380.3c0 2 1.6 3.7 3.6 3.7h67.5c2 0 3.7-1.7 3.7-3.7V252.3c0-2.1-1.6-3.7-3.7-3.7H332z" fill="#00435B" p-id="10894"></path><path d="M385.2 515.1h-38.8c-5.5 0-10-4.5-10-10V270.5c0-5.5 4.5-10 10-10h38.8c5.5 0 10 4.5 10 10v234.6c0 5.5-4.5 10-10 10z m-28.8-20h18.8V280.5h-18.8v214.6z" fill="#00435B" p-id="10895"></path><path d="M790.4 656.3h-67.6c-13.1 0-23.7-10.6-23.7-23.7V342.3c0-13.1 10.6-23.7 23.7-23.7h67.6c13.1 0 23.7 10.6 23.7 23.7v290.3c0 13.1-10.6 23.7-23.7 23.7z m-67.6-317.7c-2 0-3.7 1.7-3.7 3.7v290.3c0 2 1.7 3.7 3.7 3.7h67.6c2 0 3.7-1.7 3.7-3.7V342.3c0-2.1-1.6-3.7-3.7-3.7h-67.6z" fill="#00435B" p-id="10896"></path><path d="M776 551h-38.8c-5.5 0-10-4.5-10-10V362.6c0-5.5 4.5-10 10-10H776c5.5 0 10 4.5 10 10V541c0 5.5-4.5 10-10 10z m-28.8-20H766V372.6h-18.8V531z" fill="#00435B" p-id="10897"></path><path d="M695.5 656.3H628c-13.1 0-23.7-10.6-23.7-23.7V392.3c0-13.1 10.6-23.7 23.7-23.7h67.5c13.1 0 23.7 10.6 23.7 23.7v240.3c0 13.1-10.6 23.7-23.7 23.7zM628 388.6c-2 0-3.7 1.7-3.7 3.7v240.3c0 2 1.7 3.7 3.7 3.7h67.5c2 0 3.7-1.7 3.7-3.7V392.3c0-2.1-1.6-3.7-3.7-3.7H628z" fill="#00435B" p-id="10898"></path><path d="M681.2 604.2h-38.8c-5.5 0-10-4.5-10-10V415.9c0-5.5 4.5-10 10-10h38.8c5.5 0 10 4.5 10 10v178.3c0 5.5-4.5 10-10 10z m-28.8-20h18.8V425.9h-18.8v158.3z" fill="#00435B" p-id="10899"></path><path d="M492.9 656.2c-11.3 0-21.3-8.1-23.3-19.6l-66-374.6c-1.1-6.2 0.3-12.5 3.9-17.7 3.6-5.2 9.1-8.6 15.3-9.7l33-5.8c0.6-0.1 1.3-0.2 1.9-0.2l31.5-5.5c6.2-1.1 12.5 0.3 17.7 4 5.2 3.6 8.6 9.1 9.7 15.3l66 374.4c1.2 6.1-0.2 12.4-3.7 17.5-3.6 5.2-9.1 8.7-15.4 9.8L497 655.8c-1.3 0.3-2.7 0.4-4.1 0.4z m-35.4-407.3l-31.1 5.5c-1.3 0.2-2 0.9-2.4 1.5-0.3 0.5-0.8 1.4-0.6 2.7l66 374.6c0.3 2 2.3 3.3 4.2 3l66.5-11.7c1.3-0.2 2.1-1 2.4-1.5 0.3-0.4 0.8-1.3 0.5-2.5v-0.1l-66-374.5c-0.2-1.3-1-2-1.5-2.4-0.5-0.3-1.4-0.8-2.7-0.6l-33.4 5.9c-0.7 0-1.3 0.1-1.9 0.1z" fill="#00435B" p-id="10900"></path><path d="M487.7 529.3c-2 0-4-0.6-5.7-1.8-2.2-1.5-3.7-3.8-4.1-6.4l-41.4-230.9c-1-5.4 2.6-10.6 8.1-11.6l19.5-3.5c0.2 0 0.4-0.1 0.6-0.1l18-3.2c2.6-0.5 5.3 0.1 7.5 1.6s3.7 3.8 4.1 6.4l41.4 230.9c0.5 2.6-0.1 5.3-1.6 7.5s-3.8 3.7-6.4 4.1l-18.7 3.3c-0.2 0-0.5 0.1-0.7 0.1l-18.7 3.4c-0.7 0.1-1.3 0.2-1.9 0.2z m-29.8-232.8l37.9 211.2 9.6-1.7c0.2 0 0.5-0.1 0.7-0.1l8.1-1.5-37.8-211.2-8.8 1.6c-0.2 0-0.4 0.1-0.6 0.1l-9.1 1.6z" fill="#00435B" p-id="10901"></path></svg>