<?xml version="1.0" standalone="no"?><!DOCTYPE svg PUBLIC "-//W3C//DTD SVG 1.1//EN" "http://www.w3.org/Graphics/SVG/1.1/DTD/svg11.dtd"><svg t="1641044233713" class="icon" viewBox="0 0 1024 1024" version="1.1" xmlns="http://www.w3.org/2000/svg" p-id="10695" xmlns:xlink="http://www.w3.org/1999/xlink" width="50" height="50"><defs><style type="text/css"></style></defs><path d="M748 324.8H363.9c-49.5 0-89.7-40.2-89.7-89.7s40.2-89.7 89.7-89.7h384" fill="#FDF17F" p-id="10696"></path><path d="M673 145.5h75v179.4h-75z" fill="#FAD672" p-id="10697"></path><path d="M748 357.6H363.9c-67.5 0-122.5-54.9-122.5-122.5s54.9-122.5 122.5-122.5h384c18.1 0 32.8 14.7 32.8 32.8s-14.7 32.8-32.8 32.8h-384c-31.4 0-56.9 25.5-56.9 56.9s25.5 56.9 56.9 56.9H748c18.1 0 32.8 14.7 32.8 32.8s-14.7 32.8-32.8 32.8z" fill="#F77490" p-id="10698"></path><path d="M705.7 145.5c0-18.1-14.7-32.8-32.8-32.8h75c18.1 0 32.8 14.7 32.8 32.8s-14.7 32.8-32.8 32.8h-75c18.1 0 32.8-14.7 32.8-32.8zM780.8 324.8c0 18.1-14.7 32.8-32.8 32.8h-75c18.1 0 32.8-14.7 32.8-32.8 0-18.1-14.7-32.8-32.8-32.8h75c18.1 0 32.8 14.7 32.8 32.8z" fill="#F65D73" p-id="10699"></path><path d="M193.6 569.6H740c49.5 0 89.7-40.2 89.7-89.7s-40.2-89.7-89.7-89.7H193.6" fill="#FEF8E6" p-id="10700"></path><path d="M829.7 479.9c0 49.5-40.2 89.7-89.7 89.7h-75c49.5 0 89.7-40.2 89.7-89.7s-40.2-89.7-89.7-89.7h75c49.5 0 89.7 40.2 89.7 89.7z" fill="#FCEFAD" p-id="10701"></path><path d="M740 602.4H193.6c-18.1 0-32.8-14.7-32.8-32.8s14.7-32.8 32.8-32.8H740c31.4 0 56.9-25.5 56.9-56.9S771.4 423 740 423H193.6c-18.1 0-32.8-14.7-32.8-32.8s14.7-32.8 32.8-32.8H740c67.5 0 122.5 54.9 122.5 122.5s-55 122.5-122.5 122.5z" fill="#8ADCFF" p-id="10702"></path><path d="M862.5 479.9c0 67.5-54.9 122.5-122.5 122.5h-75c53.8 0 99.6-34.8 116-83.1 9.8-10.2 15.9-24.1 15.9-39.4s-6-29.1-15.9-39.4c-16.4-48.3-62.2-83.1-116-83.1h75c67.5 0 122.5 55 122.5 122.5z" fill="#46CDFB" p-id="10703"></path><path d="M884.5 847.7H216.7c-58.8 0-106.5-47.8-106.5-106.5S158 634.7 216.7 634.7h667.9" fill="#FDF17F" p-id="10704"></path><path d="M790.8 634.7h93.7v213h-93.7z" fill="#FAD672" p-id="10705"></path><path d="M884.5 880.5H216.7c-76.8 0-139.3-62.5-139.3-139.3S139.9 602 216.7 602h667.9c18.1 0 32.8 14.7 32.8 32.8s-14.7 32.8-32.8 32.8H216.7c-40.7 0-73.7 33-73.7 73.7s33.1 73.7 73.7 73.7h667.8c18.1 0 32.8 14.7 32.8 32.8 0 18-14.7 32.7-32.8 32.7z" fill="#BD9EE2" p-id="10706"></path><path d="M917.3 847.7c0 18.1-14.7 32.8-32.8 32.8h-93.7c18.1 0 32.8-14.7 32.8-32.8s-14.7-32.8-32.8-32.8h93.7c18.1 0 32.8 14.7 32.8 32.8zM823.7 634.7c0-18.1-14.7-32.8-32.8-32.8h93.7c18.1 0 32.8 14.7 32.8 32.8s-14.7 32.8-32.8 32.8h-93.7c18.1 0 32.8-14.7 32.8-32.8z" fill="#978CDB" p-id="10707"></path><path d="M441.6 641.7l-88.1-60-88 60V479.9h176.1z" fill="#F65D73" p-id="10708"></path><path d="M441.5 479.9v161.8l-50-34V479.9z" fill="#F04B69" p-id="10709"></path><path d="M927.1 843.5l-0.3-2.1c0-0.1 0-0.2-0.1-0.3-0.1-0.6-0.2-1.1-0.3-1.6-3.2-16.7-16-29.6-32-33.4l0.1-129.7c18.8-4.5 32.8-21.4 32.8-41.6 0-23.6-19.2-42.8-42.8-42.8h-74c9.7-6.1 18.6-13.5 26.5-22 22.8-24.6 35.4-56.6 35.4-90.1 0-59-38.8-109.5-92.8-126.4 6.9-7.6 11.1-17.7 11.1-28.7 0-20.2-14-37.1-32.8-41.6l-0.1-96.2c18.8-4.5 32.8-21.5 32.8-41.6 0-23.6-19.2-42.8-42.8-42.8h-384c-73.1 0-132.5 59.4-132.5 132.5 0 47.3 24.9 88.8 62.3 112.3h-100c-23.6 0-42.8 19.2-42.8 42.8 0 20.2 14 37.1 32.8 41.6V528c-18.8 4.5-32.8 21.5-32.8 41.6 0 12.5 5.4 23.8 14 31.7-21.6 8-41.2 21-57.3 38.3-25.9 27.7-40.1 63.8-40.1 101.7 0 82.3 67 149.3 149.3 149.3H886.2c0.3 0 0.6 0 1-0.1 0.3 0 0.6 0 0.9-0.1 0.4 0 0.7-0.1 1.1-0.1 0.5-0.1 1-0.1 1.5-0.2s1-0.2 1.5-0.2c0.5-0.1 1-0.2 1.6-0.3 0.5-0.1 1-0.2 1.5-0.4h0.1l0.3-0.1c0.4-0.1 1-0.3 1.6-0.5 0.4-0.1 0.9-0.3 1.3-0.4 0.4-0.1 0.7-0.2 1.1-0.4 0.5-0.2 1-0.4 1.6-0.6 0 0 0.1 0 0.1-0.1l0.2-0.1 0.6-0.3h0.1c0.3-0.1 0.6-0.3 0.9-0.4 0.1 0 0.2-0.1 0.3-0.1 0.1 0 0.2-0.1 0.3-0.1 0.4-0.2 0.9-0.5 1.3-0.7 0.7-0.4 1.3-0.7 1.9-1.1 0.5-0.3 0.9-0.6 1.4-0.9 0.3-0.2 0.6-0.4 1-0.7l0.9-0.6c0.5-0.4 1-0.7 1.4-1.1 0.1-0.1 0.2-0.2 0.3-0.2 0.4-0.4 0.9-0.8 1.3-1.2l0.1-0.1c0.5-0.5 1-0.9 1.4-1.4l1.4-1.4 0.1-0.1c0.4-0.5 0.8-0.9 1.2-1.4l0.2-0.2c0.4-0.5 0.8-1 1.1-1.5 0.2-0.3 0.5-0.6 0.7-0.9 0.6-0.8 1.2-1.7 1.7-2.6 0.5-0.8 1-1.7 1.4-2.5 0 0 0-0.1 0.1-0.1l0.1-0.1c0.5-1 0.9-1.9 1.3-2.8 0.1-0.3 0.2-0.6 0.3-0.8 0.2-0.6 0.5-1.2 0.7-1.8v-0.1c0.1-0.3 0.2-0.6 0.3-0.8v-0.1-0.1-0.1c0.1-0.2 0.1-0.4 0.2-0.6v-0.1l0.3-0.9v-0.1-0.1c0.1-0.3 0.1-0.5 0.2-0.9v-0.1-0.1c0.1-0.3 0.1-0.6 0.2-0.8v-0.1c0.1-0.3 0.1-0.6 0.2-0.8v-0.1-0.1c0-0.1 0-0.2 0.1-0.4v-0.2c0-0.2 0.1-0.3 0.1-0.5v-0.1c0-0.3 0.1-0.6 0.1-0.9 0-0.2 0.1-0.4 0.1-0.5 0.1-0.5 0.1-1 0.1-1.4v-0.2c0-0.4 0.1-0.9 0.1-1.3v-0.1-1.9c0-0.7 0-1.4-0.1-2.1 0.2-1.4 0.2-2.1 0.1-2.8z m-136.3-38.6c-0.5 0-0.9 0-1.3 0.1H216.7c-35.1 0-63.7-28.6-63.7-63.7s28.6-63.7 63.7-63.7h657.9l-0.1 127.3h-83.7z m-52.9-616.7V282h-374c-25.9 0-46.9-21-46.9-46.9s21-46.9 46.9-46.9h374z m-486.5 46.9c0-62 50.5-112.5 112.5-112.5h384c12.6 0 22.8 10.2 22.8 22.8 0 12.6-10.2 22.8-22.8 22.8h-384c-36.9 0-66.9 30-66.9 66.9s30 66.9 66.9 66.9H748c12.6 0 22.8 10.2 22.8 22.8 0 12.6-10.2 22.8-22.8 22.8h-0.8c-2.4-0.1-4.8-0.2-7.2-0.2H357.3c-59-3.4-105.9-52.5-105.9-112.3z m-80.6 155.1c0-12.6 10.2-22.8 22.8-22.8h163.1c2.4 0.1 4.8 0.2 7.2 0.2h382.8c59.4 3.5 105.8 52.8 105.8 112.3 0 28.4-10.7 55.6-30 76.5-19.2 20.7-45.1 33.3-73 35.6H451.6v-45.2H740c36.9 0 66.9-30 66.9-66.9 0-36.9-30-66.9-66.9-66.9H193.6c-12.6 0-22.8-10.2-22.8-22.8zM389 593.7s-0.1 0-0.1-0.1l-29.7-20.2c-3.4-2.3-7.9-2.3-11.3 0l-29.8 20.3-0.5 0.4-42 28.6V489.9h156.1v132.9L389 593.7zM740 433c25.9 0 46.9 21 46.9 46.9s-21 46.9-46.9 46.9H451.6v-46.9c0-5.5-4.5-10-10-10H265.5c-5.5 0-10 4.5-10 10v46.9h-51.9V433H740zM193.6 546.8h61.9V592h-38.8c-3.7 0-7.4 0.1-10.9 0.4h-12.2c-12.6 0-22.8-10.2-22.8-22.8s10.2-22.8 22.8-22.8z m701.1 321.3l-0.3 0.1c-0.1 0-0.2 0.1-0.3 0.1l-0.3 0.1-0.5 0.2c-0.2 0.1-0.5 0.2-0.7 0.3-0.1 0-0.2 0.1-0.3 0.1h-0.1c-0.1 0-0.2 0.1-0.3 0.1-0.2 0.1-0.4 0.1-0.6 0.2-0.1 0-0.2 0-0.2 0.1-0.2 0.1-0.4 0.1-0.6 0.2l-0.3 0.1c-0.2 0.1-0.4 0.1-0.6 0.1-0.1 0-0.2 0-0.2 0.1-0.2 0-0.4 0.1-0.6 0.1-0.2 0-0.5 0.1-0.7 0.1h-0.2c-0.2 0-0.5 0.1-0.7 0.1h-0.9-0.6-669c-71.3 0-129.3-58-129.3-129.3 0-32.8 12.3-64 34.7-88 22.2-23.8 52.2-38.3 84.4-40.8h48.9v29.3c0 3.7 2 7.1 5.3 8.8 1.5 0.8 3.1 1.2 4.7 1.2 2 0 3.9-0.6 5.6-1.7l10.2-7 44.8-30.6h54.6l44.9 30.6h0.1l10.2 7c1.7 1.2 3.7 1.7 5.6 1.7 1.6 0 3.2-0.4 4.7-1.2 3.3-1.7 5.3-5.1 5.3-8.8v-29.3H740c3.4 0 6.9-0.1 10.2-0.4h134.4c12.6 0 22.8 10.2 22.8 22.8s-10.2 22.8-22.8 22.8H216.7c-46.2 0-83.7 37.5-83.7 83.7s37.5 83.7 83.7 83.7h667.8c10.5 0 19.6 7.3 22.1 17.3 0 0.1 0.1 0.2 0.1 0.3 0.1 0.6 0.3 1.2 0.4 1.9 0.1 0.3 0.1 0.7 0.1 1 0 0.4 0.1 0.8 0.1 1.2V849.2c0 0.6-0.1 1.1-0.2 1.6V851.1c0 0.1 0 0.2-0.1 0.3 0 0.2-0.1 0.3-0.1 0.5 0 0.1-0.1 0.3-0.1 0.4l-0.1 0.3c0 0.2-0.1 0.3-0.1 0.5V853.4c0 0.2-0.1 0.3-0.1 0.5 0 0.1-0.1 0.3-0.1 0.4l-0.1 0.3c0 0.1-0.1 0.1-0.1 0.2-0.1 0.3-0.2 0.6-0.4 1-0.1 0.2-0.2 0.4-0.2 0.6-0.2 0.4-0.4 0.9-0.7 1.4-0.3 0.5-0.5 1-0.8 1.5-0.3 0.4-0.5 0.9-0.9 1.3 0 0.1-0.1 0.1-0.1 0.2s-0.1 0.1-0.1 0.2c-0.2 0.3-0.5 0.6-0.7 0.9-0.2 0.2-0.4 0.5-0.6 0.7l-0.1 0.1-0.8 0.8-0.8 0.8c-0.3 0.2-0.5 0.5-0.8 0.7-0.3 0.2-0.6 0.5-0.9 0.7-0.1 0.1-0.2 0.1-0.2 0.2-0.1 0.1-0.2 0.2-0.4 0.3-0.1 0.1-0.2 0.1-0.3 0.2-0.6 0.4-1.1 0.7-1.8 1.1-0.4 0.3-0.6 0.5-0.9 0.6z" fill="#00435B" p-id="10710"></path></svg>