<?xml version="1.0" standalone="no"?><!DOCTYPE svg PUBLIC "-//W3C//DTD SVG 1.1//EN" "http://www.w3.org/Graphics/SVG/1.1/DTD/svg11.dtd"><svg t="1641044130627" class="icon" viewBox="0 0 1024 1024" version="1.1" xmlns="http://www.w3.org/2000/svg" p-id="3747" xmlns:xlink="http://www.w3.org/1999/xlink" width="50" height="50"><defs><style type="text/css"></style></defs><path d="M713.856 702.24l-47.744-48.192a103.296 103.296 0 1 0-86.272 46.784 102.848 102.848 0 0 0 56.992-17.408l47.84 48.128c5.952 5.92 15.648 5.92 21.6 0l7.648-7.712a15.488 15.488 0 0 0 0-21.76l-0.064 0.16z m-78.208-78.72c-7.2 15.2-20.192 26.848-36.128 32.32-6.336 2.528-13.088 3.712-19.904 3.488a62.976 62.976 0 1 1-1.696-126.016 62.944 62.944 0 0 1 57.6 90.24l0.128-0.064z m-190.944-7.328h-50.624a15.904 15.904 0 0 1 0-31.744h49.824c1.248-14.624 4.896-28.928 10.688-42.336h-60.48a15.904 15.904 0 0 1 0-31.744h79.68a135.456 135.456 0 0 1 59.328-42.304h-139.008a15.872 15.872 0 1 1 0-31.744h242.848a15.872 15.872 0 1 1 0 31.744h-11.904a136.512 136.512 0 0 1 85.952 96.32v-228.224A48.128 48.128 0 0 0 663.2 288h-295.424A48.096 48.096 0 0 0 320 336.128V679.68c0 26.464 21.344 48 47.808 48.128h173.248a136.576 136.576 0 0 1-96.352-111.648z m-50.624-253.984h242.88a15.904 15.904 0 0 1 0 31.776h-242.88a15.904 15.904 0 0 1 0-31.776z" fill="#3E63AC" p-id="3748"></path></svg>