<?xml version="1.0" standalone="no"?><!DOCTYPE svg PUBLIC "-//W3C//DTD SVG 1.1//EN" "http://www.w3.org/Graphics/SVG/1.1/DTD/svg11.dtd"><svg t="1638078113614" class="icon" viewBox="0 0 1024 1024" version="1.1" xmlns="http://www.w3.org/2000/svg" p-id="17589" xmlns:xlink="http://www.w3.org/1999/xlink" width="50" height="50"><defs><style type="text/css"></style></defs><path d="M512 92.516193C280.51083 92.516193 92.841318 280.185705 92.841318 511.674875s187.669512 419.158682 419.158682 419.158682 419.158682-187.669512 419.158682-419.158682S743.48917 92.516193 512 92.516193z m1.047626 710.543145c-71.274677 0-138.539476-22.794892-193.449517-63.616171l0.758626 6.321879c1.661751 14.197135-8.055881 27.418895-22.542017 30.778523l-0.939251 0.21675-2.745502 0.397375c-7.911381 0.830876-15.678261-1.300501-21.891766-6.032879-6.213505-4.732378-10.115007-11.487758-11.018133-19.037889L250.057433 657.475482c-1.661751-14.197135 8.019756-27.418895 22.542017-30.778523l0.975375-0.21675 2.781627-0.4335c7.875256-0.830876 15.642136 1.300501 21.855641 6.032879 3.612503 2.745502 6.17738 6.32188 8.092006 10.223382l2.637127 3.287378c48.768786 62.243421 123.150215 97.934947 204.070275 97.934947 140.634728 0 255.078812-109.24208 255.078812-243.518804S653.646229 256.487688 513.011501 256.487688c-68.4208 0-132.795597 25.829394-181.311508 72.791928l-12.716009 7.947506c-3.287377 1.156001-6.75538 1.734001-10.331758 1.734001-17.231638 0-31.248148-13.36626-31.248148-29.803147 0-8.128131 3.612503-16.003387 9.898257-21.63889 59.823044-58.233543 140.092853-90.529316 225.636916-90.529317 175.025753 0 317.430607 135.938475 317.430607 303.016722s-142.296479 303.052847-317.322232 303.052847z m-113.432583-304.425598c0-61.15967 52.128413-110.903831 116.178085-110.903831 64.085797 0 116.178085 49.744161 116.178085 110.903831s-52.128413 110.903831-116.178085 110.903831c-64.049672 0-116.178085-49.744161-116.178085-110.903831z" fill="#FF2E92" p-id="17590"></path></svg>