<?xml version="1.0" standalone="no"?><!DOCTYPE svg PUBLIC "-//W3C//DTD SVG 1.1//EN" "http://www.w3.org/Graphics/SVG/1.1/DTD/svg11.dtd"><svg t="1645191532543" class="icon" viewBox="0 0 1024 1024" version="1.1" xmlns="http://www.w3.org/2000/svg" p-id="6782" xmlns:xlink="http://www.w3.org/1999/xlink" width="200" height="200"><defs><style type="text/css"></style></defs><path d="M512 646.56A213.28 213.28 0 0 0 564.64 512 210.08 210.08 0 0 0 512 372.64 210.08 210.08 0 0 0 459.36 512 212.64 212.64 0 0 0 512 646.56z" fill="#71A7DC" p-id="6783"></path><path d="M512 73.28A438.72 438.72 0 1 0 950.72 512 438.72 438.72 0 0 0 512 73.28zM192 646.88A210.56 210.56 0 0 1 320 304v168.48c0 39.2-9.92 61.6-44.16 107.84A214.72 214.72 0 0 1 192 646.88z m161.6 75.68a209.12 209.12 0 0 1-91.68-20.96 590.4 590.4 0 0 0 52.8-56.16A362.72 362.72 0 0 0 354.08 576a480.96 480.96 0 0 0 40.64 68.8C416 672.96 448 700.8 446.4 701.28a209.92 209.92 0 0 1-92.32 21.28z m158.4-75.52a198.56 198.56 0 0 1-83.04-69.76c-32.8-43.52-39.2-64-39.2-100.8V304A210.4 210.4 0 0 1 512 372.64 210.4 210.4 0 0 1 635.2 304v168.48c0 39.2-9.92 61.6-44.16 107.84A217.6 217.6 0 0 1 512 647.04z m158.24 75.52a209.6 209.6 0 0 1-91.68-20.96 590.4 590.4 0 0 0 52.8-56.16A362.72 362.72 0 0 0 669.92 576a480.96 480.96 0 0 0 40.64 68.8c21.12 27.52 52.64 55.36 51.68 55.84a209.92 209.92 0 0 1-92.32 21.92zM832 646.56c-4.96 0-48.8-18.56-87.2-69.92-32-43.52-39.2-64-39.2-100.8V304A210.56 210.56 0 0 1 832 646.56z" fill="#71A7DC" p-id="6784"></path></svg>