<?xml version="1.0" standalone="no"?><!DOCTYPE svg PUBLIC "-//W3C//DTD SVG 1.1//EN" "http://www.w3.org/Graphics/SVG/1.1/DTD/svg11.dtd"><svg t="1645192145873" class="icon" viewBox="0 0 1026 1024" version="1.1" xmlns="http://www.w3.org/2000/svg" p-id="53512" xmlns:xlink="http://www.w3.org/1999/xlink" width="200.390625" height="200"><defs><style type="text/css"></style></defs><path d="M265.403043 781.673864c-7.36277 0-14.845495-1.5801-21.951809-4.918165-139.636176-65.598972-229.8632-207.638389-229.8632-361.859468 0-220.349509 179.266906-399.616415 399.612278-399.616415 160.963391 0 305.488776 95.798739 368.192277 244.055147 11.122746 26.299153-1.17887 56.639557-27.48216 67.762303-26.303289 11.11861-56.639557-1.183007-67.762303-27.48216a295.813766 295.813766 0 0 0-272.947814-180.925598c-163.325268 0-296.202586 132.881455-296.202586 296.206723 0 114.329756 66.897798 219.629777 170.427445 268.265423 25.84415 12.144434 36.954488 42.935704 24.810054 68.783991-8.806369 18.737836-27.411841 29.728218-46.832182 29.728219z" fill="#1296db" p-id="53513"></path><path d="M588.657605 1000.596318c-220.345372 0-399.608142-179.26277-399.608142-399.608141 0-220.349509 179.26277-399.616415 399.608142-399.616415 220.349509 0 399.616415 179.266906 399.616415 399.616415 0 28.553484-23.151362 51.704846-51.704847 51.704846s-51.704846-23.151362-51.704846-51.704846c0-163.329404-132.877318-296.206722-296.206722-296.206723-163.325268 0-296.19845 132.881455-296.19845 296.206723s132.877318 296.19845 296.19845 296.198449c28.553484 0 51.704846 23.151362 51.704846 51.704846s-23.151362 51.704846-51.704846 51.704846z" fill="#1296db" p-id="53514"></path><path d="M748.47108 961.834229a51.704846 51.704846 0 0 1-45.959404-27.941298c-13.128895-25.360193-3.213973-56.560965 22.142083-69.693997 58.294112-30.183221 105.552341-79.596508 133.071729-139.143945 11.978979-25.918605 42.695794-37.231626 68.626808-25.244374 25.922742 11.978979 37.223353 42.704067 25.244374 68.626808-37.103398 80.279012-100.807904 146.903809-179.386861 187.593454a51.560073 51.560073 0 0 1-23.738729 5.803352z" fill="#1296db" p-id="53515"></path><path d="M588.657605 741.286174c-77.366995 0-140.30627-62.943411-140.306271-140.30627s62.939275-140.30627 140.306271-140.306271c77.362859 0 140.30627 62.943411 140.30627 140.306271s-62.943411 140.30627-140.30627 140.30627z m0-177.202848c-20.346891 0-36.896578 16.549687-36.896578 36.896578s16.549687 36.896578 36.896578 36.896578 36.896578-16.549687 36.896578-36.896578-16.549687-36.896578-36.896578-36.896578z" fill="#1296db" p-id="53516"></path></svg>