<?xml version="1.0" standalone="no"?><!DOCTYPE svg PUBLIC "-//W3C//DTD SVG 1.1//EN" "http://www.w3.org/Graphics/SVG/1.1/DTD/svg11.dtd"><svg t="1645191855628" class="icon" viewBox="0 0 1024 1024" version="1.1" xmlns="http://www.w3.org/2000/svg" p-id="36593" xmlns:xlink="http://www.w3.org/1999/xlink" width="200" height="200"><defs><style type="text/css"></style></defs><path d="M818.2784 175.7696m-43.7248 0a43.7248 43.7248 0 1 0 87.4496 0 43.7248 43.7248 0 1 0-87.4496 0Z" fill="#E2E5F1" p-id="36594"></path><path d="M846.9504 860.2624m-43.7248 0a43.7248 43.7248 0 1 0 87.4496 0 43.7248 43.7248 0 1 0-87.4496 0Z" fill="#ED98AB" p-id="36595"></path><path d="M146.5856 803.7376m-43.7248 0a43.7248 43.7248 0 1 0 87.4496 0 43.7248 43.7248 0 1 0-87.4496 0Z" fill="#CBDCFF" p-id="36596"></path><path d="M509.696 506.1632m-398.4384 0a398.4384 398.4384 0 1 0 796.8768 0 398.4384 398.4384 0 1 0-796.8768 0Z" fill="#9E80E8" p-id="36597"></path><path d="M587.0592 882.1248c177.0496-34.5088 310.7328-190.4128 310.7328-377.5488 0-195.9936-146.6368-357.6832-336.1792-381.5936 35.84 15.36 253.0304 119.552 263.68 389.376 1.792 91.136-58.0608 278.3232-238.2336 369.7664z" fill="#8669E0" p-id="36598"></path><path d="M509.696 339.2m-73.6768 0a73.6768 73.6768 0 1 0 147.3536 0 73.6768 73.6768 0 1 0-147.3536 0Z" fill="#C5DAFF" p-id="36599"></path><path d="M495.9232 275.3536s41.8304 24.8832 41.8304 57.6512-33.3824 61.6448-72.96 51.712c21.76 19.5072 107.7248 25.4464 117.6064-40.448 9.9328-65.792-61.9008-81.0496-86.4768-68.9152z" fill="#9AC0EF" p-id="36600"></path><path d="M670.2592 496.384m-73.6768 0a73.6768 73.6768 0 1 0 147.3536 0 73.6768 73.6768 0 1 0-147.3536 0Z" fill="#C5DAFF" p-id="36601"></path><path d="M656.4864 432.5376s41.8304 24.8832 41.8304 57.6512-33.3824 61.6448-72.96 51.712c21.76 19.5072 107.7248 25.4464 117.6064-40.448 9.9328-65.792-61.9008-81.0496-86.4768-68.9152z" fill="#9AC0EF" p-id="36602"></path><path d="M512.3584 656.1792m-73.6768 0a73.6768 73.6768 0 1 0 147.3536 0 73.6768 73.6768 0 1 0-147.3536 0Z" fill="#C5DAFF" p-id="36603"></path><path d="M498.5344 592.384s41.8304 24.8832 41.8304 57.6512c0 32.768-33.3824 61.6448-72.96 51.712 21.76 19.5072 107.7248 25.4464 117.6064-40.448 9.9328-65.792-61.8496-81.1008-86.4768-68.9152z" fill="#9AC0EF" p-id="36604"></path><path d="M351.0272 497.5104m-73.6768 0a73.6768 73.6768 0 1 0 147.3536 0 73.6768 73.6768 0 1 0-147.3536 0Z" fill="#C5DAFF" p-id="36605"></path><path d="M337.2032 433.664s41.8304 24.8832 41.8304 57.6512-33.3824 61.6448-72.96 51.712c21.76 19.5072 107.7248 25.4464 117.6064-40.448 9.9328-65.792-61.8496-81.0496-86.4768-68.9152z" fill="#9AC0EF" p-id="36606"></path><path d="M509.696 433.3568c-51.9168 0-94.1568-42.24-94.1568-94.1568s42.24-94.1568 94.1568-94.1568 94.1568 42.24 94.1568 94.1568-42.24 94.1568-94.1568 94.1568z m0-147.3536c-29.3376 0-53.1968 23.8592-53.1968 53.1968s23.8592 53.1968 53.1968 53.1968 53.1968-23.8592 53.1968-53.1968-23.8592-53.1968-53.1968-53.1968zM509.696 749.4656c-51.9168 0-94.1568-42.24-94.1568-94.1568s42.24-94.1568 94.1568-94.1568 94.1568 42.24 94.1568 94.1568-42.24 94.1568-94.1568 94.1568z m0-147.3536c-29.3376 0-53.1968 23.8592-53.1968 53.1968s23.8592 53.1968 53.1968 53.1968 53.1968-23.8592 53.1968-53.1968-23.8592-53.1968-53.1968-53.1968zM667.7504 591.4112c-51.9168 0-94.1568-42.24-94.1568-94.1568s42.24-94.1568 94.1568-94.1568 94.1568 42.24 94.1568 94.1568-42.24 94.1568-94.1568 94.1568z m0-147.3536c-29.3376 0-53.1968 23.8592-53.1968 53.1968s23.8592 53.1968 53.1968 53.1968 53.1968-23.8592 53.1968-53.1968-23.8592-53.1968-53.1968-53.1968zM351.6416 591.4112c-51.9168 0-94.1568-42.24-94.1568-94.1568s42.24-94.1568 94.1568-94.1568 94.1568 42.24 94.1568 94.1568-42.24 94.1568-94.1568 94.1568z m0-147.3536c-29.3376 0-53.1968 23.8592-53.1968 53.1968s23.8592 53.1968 53.1968 53.1968 53.1968-23.8592 53.1968-53.1968-23.8592-53.1968-53.1968-53.1968z" fill="#211D38" p-id="36607"></path><path d="M861.7984 883.968h-171.1616c140.6464-67.6352 237.9776-211.5584 237.9776-377.7536 0-230.9632-187.904-418.9184-418.9184-418.9184s-418.9184 187.904-418.9184 418.9184 187.904 418.9184 418.9184 418.9184c6.6048 0 13.1584-0.2048 19.712-0.512 1.0752 0.1536 2.1504 0.3072 3.2768 0.3072h329.1136c11.3152 0 20.48-9.1648 20.48-20.48s-9.216-20.48-20.48-20.48zM131.7376 506.1632c0-208.384 169.5232-377.9584 377.9584-377.9584s377.9584 169.5232 377.9584 377.9584-169.5232 377.9584-377.9584 377.9584-377.9584-169.5232-377.9584-377.9584z" fill="#211D38" p-id="36608"></path><path d="M153.344 600.32a12.8 12.8 0 0 1-12.544-10.2912c-4.9152-24.832-7.424-50.432-7.424-76.032 0-134.7584 68.1984-258.048 182.4768-329.8304 5.9904-3.7376 13.8752-1.9456 17.664 4.0448 3.7376 5.9904 1.9456 13.8752-4.0448 17.664-106.752 67.072-170.496 182.2208-170.496 308.1216 0 23.9104 2.3552 47.8208 6.912 71.0656 1.3824 6.912-3.1232 13.6704-10.0864 15.0528-0.8192 0.1536-1.6384 0.2048-2.4576 0.2048zM403.3536 169.6768c-5.376 0-10.3424-3.3792-12.1344-8.7552-2.2528-6.7072 1.3824-13.9776 8.0896-16.1792 12.288-4.096 24.9344-7.6288 37.5808-10.4448 6.912-1.536 13.7216 2.7648 15.3088 9.6768s-2.7648 13.7216-9.6768 15.3088c-11.776 2.6624-23.6032 5.9392-35.072 9.7792-1.3824 0.4096-2.7136 0.6144-4.096 0.6144zM470.8864 344.7296a12.84096 12.84096 0 0 1-12.5952-15.36c4.7104-23.3984 21.4016-34.8672 30.5152-37.9392 6.7072-2.304 13.9776 1.3312 16.2304 8.0384a12.8512 12.8512 0 0 1-7.8336 16.1792c-1.28 0.512-10.9568 4.7104-13.824 18.8416-1.2288 6.0416-6.5536 10.24-12.4928 10.24zM629.0432 503.6032a12.84096 12.84096 0 0 1-12.5952-15.36c4.7104-23.3984 21.4016-34.8672 30.5152-37.9392 6.656-2.2528 13.9776 1.3312 16.2304 8.0384a12.8512 12.8512 0 0 1-7.8336 16.1792c-1.28 0.512-10.9568 4.7104-13.7728 18.8416a12.8512 12.8512 0 0 1-12.544 10.24zM313.088 502.2208a12.81536 12.81536 0 0 1-12.5952-15.3088c4.7104-23.3984 21.4016-34.8672 30.5152-37.9392a12.8 12.8 0 0 1 16.2304 8.0384 12.8512 12.8512 0 0 1-7.8336 16.1792c-1.28 0.512-10.9568 4.7104-13.824 18.8416a12.8 12.8 0 0 1-12.4928 10.1888zM471.2448 661.0944a12.81536 12.81536 0 0 1-12.5952-15.3088c4.7104-23.3984 21.4016-34.8672 30.464-37.9392 6.7584-2.2528 13.9776 1.3312 16.2304 8.0384 2.2528 6.6048-1.2288 13.824-7.8336 16.1792-1.28 0.512-10.9568 4.7104-13.824 18.8416-1.1264 5.9904-6.5024 10.1888-12.4416 10.1888z" fill="#FFFFFF" p-id="36609"></path><path d="M340.6336 700.3648H244.5824c-8.4992 0-15.36-6.8608-15.36-15.36s6.8608-15.36 15.36-15.36h96.0512c8.4992 0 15.36 6.8608 15.36 15.36s-6.8608 15.36-15.36 15.36zM756.224 361.6768h-96.0512c-8.4992 0-15.36-6.8608-15.36-15.36s6.8608-15.36 15.36-15.36h96.0512c8.4992 0 15.36 6.8608 15.36 15.36s-6.8608 15.36-15.36 15.36z" fill="#A78FEF" p-id="36610"></path></svg>