<?xml version="1.0" standalone="no"?><!DOCTYPE svg PUBLIC "-//W3C//DTD SVG 1.1//EN" "http://www.w3.org/Graphics/SVG/1.1/DTD/svg11.dtd"><svg t="1638078000461" class="icon" viewBox="0 0 1024 1024" version="1.1" xmlns="http://www.w3.org/2000/svg" p-id="7451" xmlns:xlink="http://www.w3.org/1999/xlink" width="50" height="50"><defs><style type="text/css"></style></defs><path d="M512 938.666667C276.352 938.666667 85.333333 747.648 85.333333 512S276.352 85.333333 512 85.333333s426.666667 191.018667 426.666667 426.666667-191.018667 426.666667-426.666667 426.666667z m205.653333-210.090667A298.666667 298.666667 0 0 0 385.365333 241.408l41.6 74.88A213.333333 213.333333 0 0 1 725.333333 512h-91.733333a21.333333 21.333333 0 0 0-18.645333 31.701333l102.698666 184.874667z m-120.618666-20.864A213.333333 213.333333 0 0 1 298.666667 512h91.733333a21.333333 21.333333 0 0 0 18.645333-31.701333L306.346667 295.424a298.666667 298.666667 0 0 0 332.288 487.168l-41.6-74.88z" fill="#14D081" p-id="7452"></path></svg>