<?xml version="1.0" standalone="no"?><!DOCTYPE svg PUBLIC "-//W3C//DTD SVG 1.1//EN" "http://www.w3.org/Graphics/SVG/1.1/DTD/svg11.dtd"><svg t="1645191861964" class="icon" viewBox="0 0 1024 1024" version="1.1" xmlns="http://www.w3.org/2000/svg" p-id="36748" xmlns:xlink="http://www.w3.org/1999/xlink" width="200" height="200"><defs><style type="text/css"></style></defs><path d="M160.9216 382.3616H694.272c22.016 0 39.8848 17.8688 39.8848 39.8848v443.136c0 22.016-17.8688 39.8848-39.8848 39.8848H160.9216c-22.016 0-39.8848-17.8688-39.8848-39.8848V422.2464c0-22.016 17.8176-39.8848 39.8848-39.8848z" fill="#000100" p-id="36749"></path><path d="M694.272 912.9472H160.9216c-26.2144 0-47.5648-21.3504-47.5648-47.5648V422.2464c0-26.2144 21.3504-47.5648 47.5648-47.5648H694.272c26.2144 0 47.5648 21.3504 47.5648 47.5648v443.136c-0.0512 26.2144-21.3504 47.5648-47.5648 47.5648zM160.9216 390.0416c-17.7664 0-32.2048 14.4384-32.2048 32.2048v443.136c0 17.7664 14.4384 32.2048 32.2048 32.2048H694.272c17.7664 0 32.2048-14.4384 32.2048-32.2048V422.2464c0-17.7664-14.4384-32.2048-32.2048-32.2048H160.9216z" fill="#FFF100" p-id="36750"></path><path d="M734.1056 538.7264h57.6512l83.2-51.7632v302.5408l-83.2-40.3456h-57.6512z" fill="#000100" p-id="36751"></path><path d="M874.9568 797.184c-1.1264 0-2.304-0.256-3.3792-0.768l-81.6128-39.6288h-55.8592c-4.2496 0-7.68-3.4304-7.68-7.68v-210.432c0-4.2496 3.4304-7.68 7.68-7.68h55.4496l81.3568-50.5856c2.3552-1.4848 5.3248-1.536 7.7824-0.2048s3.9424 3.9424 3.9424 6.7072v302.5408c0 2.6624-1.3824 5.12-3.584 6.5024-1.2288 0.8192-2.6624 1.2288-4.096 1.2288z m-133.1712-55.7056h49.9712c1.1776 0 2.304 0.256 3.3792 0.768l72.192 35.0208v-276.48l-71.4752 44.4416c-1.2288 0.768-2.6112 1.1776-4.0448 1.1776h-49.9712v195.072z" fill="#FFF100" p-id="36752"></path><path d="M278.8864 581.4784h355.8912v44.1344H278.8864z" fill="#000100" p-id="36753"></path><path d="M634.7776 633.2928H278.8864c-4.2496 0-7.68-3.4304-7.68-7.68v-44.1344c0-4.2496 3.4304-7.68 7.68-7.68h355.8912c4.2496 0 7.68 3.4304 7.68 7.68v44.1344c0 4.2496-3.4304 7.68-7.68 7.68z m-348.2112-15.36h340.5312v-28.7744H286.5664v28.7744z" fill="#FFF100" p-id="36754"></path><path d="M322.5088 715.264h255.8976v48.5376H322.5088z" fill="#000100" p-id="36755"></path><path d="M578.4064 771.4816H322.5088c-4.2496 0-7.68-3.4304-7.68-7.68v-48.5376c0-4.2496 3.4304-7.68 7.68-7.68h255.8976c4.2496 0 7.68 3.4304 7.68 7.68v48.5376c0 4.2496-3.4304 7.68-7.68 7.68z m-248.2176-15.36h240.5376v-33.1776H330.1888v33.1776z" fill="#FFF100" p-id="36756"></path><path d="M900.8128 473.856h59.6992v328.1408h-59.6992z" fill="#000100" p-id="36757"></path><path d="M960.512 809.6768h-59.6992c-4.2496 0-7.68-3.4304-7.68-7.68V473.856c0-4.2496 3.4304-7.68 7.68-7.68h59.6992c4.2496 0 7.68 3.4304 7.68 7.68v328.1408c0 4.2496-3.4816 7.68-7.68 7.68z m-52.0192-15.36h44.3392V481.536h-44.3392v312.7808z" fill="#FFF100" p-id="36758"></path><path d="M51.0976 598.0672h69.9392v165.7344H51.0976z" fill="#000100" p-id="36759"></path><path d="M121.0368 771.4816H51.0976c-4.2496 0-7.68-3.4304-7.68-7.68v-165.7344c0-4.2496 3.4304-7.68 7.68-7.68h69.9392c4.2496 0 7.68 3.4304 7.68 7.68v165.7344c0 4.2496-3.4304 7.68-7.68 7.68z m-62.2592-15.36h54.5792v-150.3744H58.7776v150.3744z" fill="#FFF100" p-id="36760"></path><path d="M250.3168 301.568m-178.1248 0a178.1248 178.1248 0 1 0 356.2496 0 178.1248 178.1248 0 1 0-356.2496 0Z" fill="#000100" p-id="36761"></path><path d="M250.3168 487.3728c-102.4512 0-185.8048-83.3536-185.8048-185.8048 0-102.4512 83.3536-185.8048 185.8048-185.8048 102.4512 0 185.8048 83.3536 185.8048 185.8048 0.0512 102.4512-83.3024 185.8048-185.8048 185.8048z m0-356.2496c-94.0032 0-170.4448 76.4416-170.4448 170.4448s76.4416 170.4448 170.4448 170.4448S420.7616 395.5712 420.7616 301.568c0.0512-94.0032-76.4416-170.4448-170.4448-170.4448z" fill="#FFF100" p-id="36762"></path><path d="M250.3168 301.568m-94.7712 0a94.7712 94.7712 0 1 0 189.5424 0 94.7712 94.7712 0 1 0-189.5424 0Z" fill="#000100" p-id="36763"></path><path d="M250.3168 404.0192c-56.4736 0-102.4512-45.9776-102.4512-102.4512s45.9776-102.4512 102.4512-102.4512S352.768 245.0944 352.768 301.568s-45.9264 102.4512-102.4512 102.4512z m0-189.5424c-48.0256 0-87.0912 39.0656-87.0912 87.0912s39.0656 87.0912 87.0912 87.0912S337.408 349.5936 337.408 301.568s-39.0656-87.0912-87.0912-87.0912z" fill="#FFF100" p-id="36764"></path><path d="M652.6976 301.568m-178.1248 0a178.1248 178.1248 0 1 0 356.2496 0 178.1248 178.1248 0 1 0-356.2496 0Z" fill="#000100" p-id="36765"></path><path d="M652.7488 487.3728c-102.4512 0-185.8048-83.3536-185.8048-185.8048 0-102.4512 83.3536-185.8048 185.8048-185.8048 102.4512 0 185.8048 83.3536 185.8048 185.8048 0 102.4512-83.3536 185.8048-185.8048 185.8048z m0-356.2496c-94.0032 0-170.4448 76.4416-170.4448 170.4448s76.4416 170.4448 170.4448 170.4448 170.4448-76.4416 170.4448-170.4448-76.4928-170.4448-170.4448-170.4448z" fill="#FFF100" p-id="36766"></path><path d="M652.6976 301.568m-94.7712 0a94.7712 94.7712 0 1 0 189.5424 0 94.7712 94.7712 0 1 0-189.5424 0Z" fill="#000100" p-id="36767"></path><path d="M652.7488 404.0192c-56.4736 0-102.4512-45.9776-102.4512-102.4512s45.9776-102.4512 102.4512-102.4512 102.4512 45.9776 102.4512 102.4512-45.9776 102.4512-102.4512 102.4512z m0-189.5424c-48.0256 0-87.0912 39.0656-87.0912 87.0912s39.0656 87.0912 87.0912 87.0912 87.0912-39.0656 87.0912-87.0912-39.0656-87.0912-87.0912-87.0912z" fill="#FFF100" p-id="36768"></path></svg>