<?xml version="1.0" standalone="no"?><!DOCTYPE svg PUBLIC "-//W3C//DTD SVG 1.1//EN" "http://www.w3.org/Graphics/SVG/1.1/DTD/svg11.dtd"><svg t="1645191823359" class="icon" viewBox="0 0 1024 1024" version="1.1" xmlns="http://www.w3.org/2000/svg" p-id="34786" xmlns:xlink="http://www.w3.org/1999/xlink" width="200" height="200"><defs><style type="text/css"></style></defs><path d="M290.113964 282.366293m-69.236739 0a69.23674 69.23674 0 1 0 138.473479 0 69.23674 69.23674 0 1 0-138.473479 0Z" fill="#B0A7F7" p-id="34787"></path><path d="M680.225343 282.366293m-69.232704 0a69.232704 69.232704 0 1 0 138.465409 0 69.232704 69.232704 0 1 0-138.465409 0Z" fill="#B0A7F7" p-id="34788"></path><path d="M945.114989 348.959947a50.460743 50.460743 0 0 0-29.872922-7.941363 242.054192 242.054192 0 0 0 7.445028-59.640926c0-133.691714-108.766003-242.457717-242.457717-242.457717-80.111726 0-151.23696 39.081351-195.410791 99.150014C440.592298 78.554121 369.781813 39.908576 290.105894 39.908576c-75.886824 0.004035-145.962895 34.5417-192.267335 94.747561-16.980312 22.080863-12.848221 53.749468 9.236676 70.733816 22.080863 16.980312 53.753503 12.848221 70.733816-9.236677 27.05632-35.183304 67.993884-55.363566 112.304913-55.367601 78.061821 0 141.572548 63.510727 141.572548 141.572548s-63.510727 141.572548-141.572548 141.572547-141.576583-63.506691-141.576583-141.568512c0-27.855299-22.585268-50.440567-50.440567-50.440567s-50.440567 22.585268-50.440566 50.440567c0 81.265806 40.231396 153.262653 101.776958 197.27911v208.263047c0 55.448306 45.114043 100.562349 100.566384 100.562349h137.868193l-83.541685 108.564241c-16.988383 22.076827-12.864362 53.745433 9.212465 70.733816a50.198452 50.198452 0 0 0 30.724358 10.471462 50.359862 50.359862 0 0 0 40.009458-19.683927l102.592078-133.320471 102.600148 133.324506c16.988383 22.076827 48.661024 26.192778 70.737851 9.20843 22.076827-16.992418 26.196813-48.661024 9.20843-70.737851L585.869201 788.466764h125.879479c55.452342 0 100.566385-45.114043 100.566384-100.562349v-3.433994l84.316452 39.069246a50.432496 50.432496 0 0 0 48.35838-3.260478 50.436532 50.436532 0 0 0 23.287401-42.507275V391.386517a50.440567 50.440567 0 0 0-23.162308-42.42657z m-264.889646-209.158872c78.065856 0 141.576583 63.510727 141.576583 141.576583s-63.510727 141.576583-141.576583 141.576583-141.576583-63.510727-141.576583-141.576583 63.514762-141.576583 141.576583-141.576583z m-429.915039 547.784556v-166.090699c12.957173 2.146751 26.237165 3.321007 39.79559 3.321007 80.111726 0 151.23696-39.077316 195.406756-99.145978 44.222254 59.519869 115.032739 98.165414 194.708658 98.165414 10.580413 0 20.979241-0.758626 31.204552-2.078152v165.828408H250.310304z m617.085859-88.779433l-53.261203-24.679561c-0.597216-0.278432-1.214609-0.480194-1.819896-0.734414V494.882489c0.516511-0.213868 1.037058-0.383348 1.549535-0.613357l53.5356-24.42534v128.962406z" fill="#594BC8" p-id="34789"></path></svg>