<?xml version="1.0" standalone="no"?><!DOCTYPE svg PUBLIC "-//W3C//DTD SVG 1.1//EN" "http://www.w3.org/Graphics/SVG/1.1/DTD/svg11.dtd"><svg t="1645191759821" class="icon" viewBox="0 0 1024 1024" version="1.1" xmlns="http://www.w3.org/2000/svg" p-id="27735" xmlns:xlink="http://www.w3.org/1999/xlink" width="200" height="200"><defs><style type="text/css"></style></defs><path d="M906.86 737c0.78 1.33 0.95 2.43-0.57 3.4-79 48.75-221.63 84.71-380.17 84.71s-329.47-31.21-409.48-78.46c-2.73-1.48-4-4.55-2-8.49q2-3.95 385.68-619C501 118 638.7 321.58 906.86 737z" fill="#659C26" p-id="27736"></path><path d="M901.39 728.06c0.42 0.67 0.87 1.42 1.34 2.24C822.55 780 683 812.43 525.47 812.43s-327.28-31-406.76-78a21.56 21.56 0 0 1-4.83-3.18c1-1.92 2-3.68 2.83-5.26S247.07 506.45 505.16 72q1.04-1.7 396.23 656.06z" fill="#F5FBED" p-id="27737"></path><path d="M878.24 691.46c0.33 0.52 0.72 1.18 1.18 2-75.84 47-206.6 77.4-355.36 77.4s-309.15-29.3-384.23-73.64a48.43 48.43 0 0 1-4.63-2.91q1.43-2.82 2.74-5.06T504.88 71.44q0.97-1.64 373.36 620.02z" fill="#E7382C" p-id="27738"></path><path d="M449.05 312c8.51 2.28 12.32-8.19 13.9-14.1s1.22-13.24-1.31-16.56c-2.22-2.9-2.62-6.53-3.63-6.8-0.79-0.21-4.41 3-6.48 4.09-4.22 2.3-7.52 8.53-9.31 15.23s-1.68 15.87 6.83 18.14zM538.84 483.48c8.77 0.77 10.7-10.21 11.24-16.3s-1.08-13.25-4.18-16.08c-2.68-2.47-3.71-6-4.75-6.07-0.82-0.07-3.83 3.69-5.67 5.16-3.76 3-5.93 9.7-6.53 16.61s1.11 15.92 9.89 16.68zM418.5 553.19c8.51 2.28 12.32-8.19 13.9-14.1s1.22-13.24-1.31-16.56c-2.22-2.9-2.62-6.53-3.63-6.8-0.79-0.21-4.41 3-6.48 4.09-4.22 2.3-7.52 8.53-9.32 15.23s-1.66 15.86 6.84 18.14zM349.48 482c8.51 2.28 12.32-8.2 13.9-14.11s1.22-13.23-1.32-16.56c-2.21-2.9-2.61-6.53-3.62-6.8-0.8-0.21-4.41 3-6.48 4.1-4.23 2.3-7.52 8.52-9.32 15.22S341 479.71 349.48 482zM273.67 622.1c8.51 2.28 12.32-8.19 13.9-14.1s1.21-13.24-1.32-16.56c-2.21-2.91-2.62-6.53-3.63-6.8-0.79-0.21-4.41 3-6.47 4.09-4.23 2.3-7.53 8.53-9.32 15.23s-1.67 15.86 6.84 18.14zM599.15 643.2c8.38-2.72 5.87-13.58 4-19.4S596.94 612 593 610.63c-3.44-1.23-5.76-4-6.75-3.72-0.78 0.25-2.08 4.89-3.2 7-2.29 4.23-1.67 11.24 0.48 17.84s7.24 14.18 15.62 11.45zM562.69 355c8.81 0 9.78-11.11 9.78-17.22s-2.26-13.11-5.56-15.66c-2.89-2.23-4.22-5.63-5.27-5.63-0.82 0-3.49 4-5.19 5.63-3.49 3.31-5.06 10.18-5.06 17.12s2.49 15.76 11.3 15.76zM671.75 524.09c8.51-2.28 6.57-13.26 5-19.17s-5.56-12.07-9.42-13.68c-3.37-1.41-5.53-4.35-6.54-4.08-0.79 0.22-2.33 4.78-3.56 6.79-2.51 4.1-2.25 11.14-0.46 17.84s6.47 14.58 14.98 12.3z" fill="#3D3D3D" p-id="27739"></path></svg>