<?xml version="1.0" standalone="no"?><!DOCTYPE svg PUBLIC "-//W3C//DTD SVG 1.1//EN" "http://www.w3.org/Graphics/SVG/1.1/DTD/svg11.dtd"><svg t="1645192007790" class="icon" viewBox="0 0 1024 1024" version="1.1" xmlns="http://www.w3.org/2000/svg" p-id="46328" xmlns:xlink="http://www.w3.org/1999/xlink" width="200" height="200"><defs><style type="text/css"></style></defs><path d="M216.177778 614.4c-14.222222 0-25.6-11.377778-25.6-25.6s11.377778-25.6 25.6-25.6 25.6 11.377778 25.6 25.6-11.377778 25.6-25.6 25.6z m0-36.977778c-5.688889 0-11.377778 5.688889-11.377778 11.377778s5.688889 11.377778 11.377778 11.377778 11.377778-5.688889 11.377778-11.377778-5.688889-11.377778-11.377778-11.377778z" fill="#1EAA39" p-id="46329"></path><path d="M315.733333 236.088889c-2.844444 0-2.844444 0-5.688889-2.844445s-2.844444-8.533333 0-11.377777l28.444445-28.444445c2.844444-2.844444 8.533333-2.844444 11.377778 0s2.844444 8.533333 0 11.377778l-28.444445 28.444444c-2.844444 2.844444-5.688889 2.844444-5.688889 2.844445z" fill="#F7B52C" p-id="46330"></path><path d="M344.177778 236.088889c-2.844444 0-2.844444 0-5.688889-2.844445l-28.444445-28.444444c-2.844444-2.844444-2.844444-8.533333 0-11.377778s8.533333-2.844444 11.377778 0l28.444445 28.444445c2.844444 2.844444 2.844444 8.533333 0 11.377777-2.844444 2.844444-5.688889 2.844444-5.688889 2.844445z" fill="#F7B52C" p-id="46331"></path><path d="M150.755556 423.822222m-11.377778 0a11.377778 11.377778 0 1 0 22.755555 0 11.377778 11.377778 0 1 0-22.755555 0Z" fill="#FAED00" p-id="46332"></path><path d="M733.866667 742.4c-2.844444 0-8.533333-2.844444-8.533334-8.533333v-39.822223c0-2.844444 2.844444-8.533333 8.533334-8.533333s8.533333 2.844444 8.533333 8.533333v39.822223c0 5.688889-5.688889 8.533333-8.533333 8.533333z" fill="#E95513" p-id="46333"></path><path d="M753.777778 722.488889h-39.822222c-2.844444 0-8.533333-2.844444-8.533334-8.533333s2.844444-8.533333 8.533334-8.533334h39.822222c2.844444 0 8.533333 2.844444 8.533333 8.533334s-5.688889 8.533333-8.533333 8.533333z" fill="#E95513" p-id="46334"></path><path d="M659.911111 335.644444c-11.377778 0-19.911111-5.688889-22.755555-17.066666-5.688889-14.222222 2.844444-28.444444 14.222222-34.133334 5.688889-2.844444 14.222222-2.844444 19.911111 0 5.688889 2.844444 11.377778 8.533333 14.222222 14.222223 5.688889 14.222222-2.844444 28.444444-14.222222 34.133333-5.688889 2.844444-8.533333 2.844444-11.377778 2.844444z m0-36.977777h-2.844444c-5.688889 2.844444-8.533333 8.533333-5.688889 14.222222 2.844444 5.688889 8.533333 8.533333 14.222222 5.688889 5.688889-2.844444 8.533333-8.533333 5.688889-14.222222-2.844444-2.844444-5.688889-5.688889-11.377778-5.688889z" fill="#2CA6E0" p-id="46335"></path><path d="M776.533333 435.2m-11.377777 0a11.377778 11.377778 0 1 0 22.755555 0 11.377778 11.377778 0 1 0-22.755555 0Z" fill="#0DAC67" p-id="46336"></path><path d="M435.2 318.577778l-28.444444-17.066667c-42.666667-25.6-96.711111 5.688889-96.711112 54.044445v34.133333l125.155556 76.8 116.622222 71.111111 119.466667-73.955556-236.088889-145.066666z" fill="#FFD939" p-id="46337"></path><path d="M409.6 364.088889l28.444444 17.066667 184.888889 113.777777 48.355556-31.288889-236.088889-145.066666-28.444444-17.066667c-42.666667-25.6-96.711111 5.688889-96.711112 54.044445v34.133333l8.533334 5.688889c11.377778-36.977778 54.044444-54.044444 91.022222-31.288889z" fill="#FFB43B" p-id="46338"></path><path d="M310.044444 389.688889v332.8c0 51.2 54.044444 82.488889 96.711112 54.044444l28.444444-17.066666V469.333333l-125.155556-79.644444z" fill="#6CD5FF" p-id="46339"></path><path d="M364.088889 688.355556V423.822222l-54.044445-34.133333v332.8c0 51.2 54.044444 82.488889 96.711112 54.044444l28.444444-17.066666v-8.533334c-36.977778 2.844444-71.111111-22.755556-71.111111-62.577777z" fill="#2CA6E0" p-id="46340"></path><path d="M551.822222 557.511111l-256-159.288889v-42.666666c0-28.444444 14.222222-54.044444 39.822222-68.266667s54.044444-14.222222 79.644445 2.844444l136.533333 85.333334c5.688889 2.844444 8.533333 14.222222 5.688889 19.911111-2.844444 5.688889-14.222222 8.533333-19.911111 5.688889L398.222222 312.888889c-14.222222-8.533333-34.133333-11.377778-51.2 0-17.066667 8.533333-25.6 25.6-25.6 42.666667v25.6l227.555556 142.222222 93.866666-56.888889-56.888888-34.133333c-5.688889-2.844444-8.533333-14.222222-5.688889-19.911112 2.844444-5.688889 14.222222-8.533333 19.911111-5.688888l96.711111 59.733333-145.066667 91.022222z" fill="#3E3A39" p-id="46341"></path><path d="M372.622222 802.133333c-14.222222 0-25.6-2.844444-36.977778-11.377777-25.6-14.222222-39.822222-39.822222-39.822222-68.266667v-34.133333c0-8.533333 5.688889-14.222222 14.222222-14.222223s14.222222 5.688889 14.222223 14.222223v34.133333c0 17.066667 8.533333 34.133333 25.6 42.666667 17.066667 8.533333 34.133333 8.533333 51.2 0l22.755555-14.222223v-275.911111l-96.711111-59.733333v213.333333c0 8.533333-5.688889 14.222222-14.222222 14.222222s-14.222222-5.688889-14.222222-14.222222v-264.533333l153.6 96.711111V768l-34.133334 22.755556c-17.066667 5.688889-31.288889 11.377778-45.511111 11.377777z" fill="#3E3A39" p-id="46342"></path><path d="M671.288889 466.488889L551.822222 540.444444l-116.622222 71.111112v147.911111l236.088889-145.066667 31.288889-19.911111c39.822222-25.6 39.822222-85.333333 0-108.088889l-31.288889-19.911111z" fill="#FF382E" p-id="46343"></path><path d="M702.577778 483.555556l-31.288889-19.911112-5.688889 2.844445c25.6 28.444444 19.911111 73.955556-14.222222 96.711111l-31.288889 19.911111-182.044445 113.777778v62.577778l236.088889-145.066667 31.288889-19.911111c39.822222-25.6 39.822222-85.333333-2.844444-110.933333z" fill="#D81313" p-id="46344"></path><path d="M420.977778 785.066667v-182.044445l250.311111-153.6 39.822222 22.755556c22.755556 14.222222 36.977778 39.822222 36.977778 65.422222 0 28.444444-14.222222 51.2-36.977778 65.422222l-290.133333 182.044445z m28.444444-164.977778v113.777778l247.466667-153.6c14.222222-8.533333 22.755556-25.6 22.755555-42.666667s-8.533333-34.133333-22.755555-42.666667l-25.6-11.377777-221.866667 136.533333z" fill="#3E3A39" p-id="46345"></path><path d="M651.377778 577.422222c-2.844444 0-5.688889-2.844444-8.533334-5.688889-2.844444-5.688889-2.844444-11.377778 2.844445-14.222222 22.755556-17.066667 22.755556-31.288889 22.755555-31.288889 0-5.688889 5.688889-11.377778 11.377778-8.533333 5.688889 0 11.377778 5.688889 8.533334 11.377778 0 2.844444-2.844444 25.6-34.133334 45.511111l-2.844444 2.844444z" fill="#FFFFFF" p-id="46346"></path></svg>