<?xml version="1.0" encoding="utf-8"?>
<!-- Generator: Adobe Illustrator 25.2.3, SVG Export Plug-In . SVG Version: 6.00 Build 0)  -->
<svg version="1.1" id="图层_1" xmlns="http://www.w3.org/2000/svg" xmlns:xlink="http://www.w3.org/1999/xlink" x="0px" y="0px"
	 viewBox="0 0 64 64" style="enable-background:new 0 0 64 64;" xml:space="preserve">
<style type="text/css">
	.st0{fill:#19FFDC;}
	.st1{fill:#5C5CEF;}
</style>
<path class="st0" d="M39.3,46.5c0-12.2-10.1-22.1-22.3-22.1c-3.1,0-6.1,0.7-8.8,1.8c-5.9,29.1,28.2,31.6,29.3,29
	C38.6,52.4,39.3,49.6,39.3,46.5z"/>
<path class="st1" d="M31.6,58C17.2,58,5.4,46.4,5.4,32.1s11.7-26,26.1-26S57.7,17.7,57.7,32S46.1,58,31.6,58z M31.6,11.9
	c-11.3,0-20.5,9-20.5,20.2s9.2,20.2,20.5,20.2s20.5-9.1,20.5-20.2S42.9,11.9,31.6,11.9z"/>
<path class="st1" d="M31.6,27.4c-3.4,0-6.1-2.7-6.1-6.1s2.7-6.1,6.1-6.1s6.1,2.7,6.1,6.1C37.7,24.6,34.9,27.4,31.6,27.4z M31.6,18.7
	c-1.5,0-2.6,1.1-2.6,2.5s1.1,2.5,2.6,2.5c1.5,0,2.6-1.1,2.6-2.5C34.2,19.8,33,18.7,31.6,18.7z M31.6,48.6c-3.4,0-6.1-2.7-6.1-6.1
	c0-3.3,2.7-6.1,6.1-6.1s6.1,2.7,6.1,6.1C37.7,45.9,34.9,48.6,31.6,48.6z M31.6,40.1c-1.5,0-2.6,1.1-2.6,2.5s1.1,2.5,2.6,2.5
	c1.5,0,2.6-1.1,2.6-2.5S33,40.1,31.6,40.1z M42.4,38c-3.4,0-6.1-2.7-6.1-6.1s2.7-6.1,6.1-6.1s6.1,2.7,6.1,6.1S45.8,38,42.4,38z
	 M42.4,29.3c-1.5,0-2.6,1.1-2.6,2.5c0,1.4,1.1,2.5,2.6,2.5s2.6-1.1,2.6-2.5S43.8,29.3,42.4,29.3z M20.9,38.3c-3.4,0-6.1-2.7-6.1-6.1
	c0-3.3,2.7-6.1,6.1-6.1s6.1,2.7,6.1,6.1S24.2,38.3,20.9,38.3z M20.9,29.7c-1.5,0-2.6,1.1-2.6,2.5c0,1.4,1.1,2.5,2.6,2.5
	s2.6-1.1,2.6-2.5C23.4,30.9,22.3,29.7,20.9,29.7z M56.1,58H32.2c-1,0-1.8-1.3-1.8-2.8c0-1.6,0.8-2.8,1.8-2.8h23.9
	c1,0,1.8,1.3,1.8,2.8C57.9,56.7,57.1,58,56.1,58z"/>
</svg>
