<?xml version="1.0" standalone="no"?><!DOCTYPE svg PUBLIC "-//W3C//DTD SVG 1.1//EN" "http://www.w3.org/Graphics/SVG/1.1/DTD/svg11.dtd"><svg t="1635173370919" class="icon" viewBox="0 0 1024 1024" version="1.1" xmlns="http://www.w3.org/2000/svg" p-id="21557" xmlns:xlink="http://www.w3.org/1999/xlink" width="300" height="300"><defs><style type="text/css"></style></defs><path d="M730.07 669.06c-8.6 0-17.11-2.96-23.97-8.67L578.83 554.45a37.478 37.478 0 0 1-13.5-28.8c0-11.12 4.94-21.66 13.5-28.8L706.1 390.91c11.16-9.29 26.73-11.31 39.87-5.12 13.17 6.15 21.57 19.39 21.57 33.92v211.88c0 14.53-8.4 27.77-21.57 33.92a37.39 37.39 0 0 1-15.9 3.55z m-68.71-143.41l31.23 25.98v-51.96l-31.23 25.98z" fill="#2AAAA8" p-id="21558"></path><path d="M512.68 954.93c-235.19 0-426.52-191.35-426.52-426.54v-28.32c0-235.19 191.33-426.54 426.52-426.54h389.07c20.69 0 37.47 16.76 37.47 37.47v417.39c0 235.19-191.35 426.54-426.54 426.54z m0-806.45c-193.86 0-351.58 157.72-351.58 351.59v28.32c0 193.87 157.72 351.59 351.58 351.59 193.87 0 351.59-157.72 351.59-351.59V148.48H512.68z" fill="#4181BA" p-id="21559"></path><path d="M599.32 701.23H283.24c-20.69 0-37.47-16.76-37.47-37.47V387.58c0-20.71 16.78-37.47 37.47-37.47h316.08c20.69 0 37.47 16.76 37.47 37.47v276.17c0 20.72-16.78 37.48-37.47 37.48z m-278.61-74.95h241.14V425.05H320.71v201.23z" fill="#4181BA" p-id="21560"></path></svg>