<?xml version="1.0" standalone="no"?><!DOCTYPE svg PUBLIC "-//W3C//DTD SVG 1.1//EN" "http://www.w3.org/Graphics/SVG/1.1/DTD/svg11.dtd"><svg t="1635173360512" class="icon" viewBox="0 0 1024 1024" version="1.1" xmlns="http://www.w3.org/2000/svg" p-id="20626" xmlns:xlink="http://www.w3.org/1999/xlink" width="300" height="300"><defs><style type="text/css"></style></defs><path d="M512 85.333333c235.626667 0 426.666667 191.04 426.666667 426.666667 0 144.298667-71.637333 271.872-181.290667 349.098667h142.506667a38.784 38.784 0 1 1 0 77.568H512C276.373333 938.666667 85.333333 747.626667 85.333333 512S276.373333 85.333333 512 85.333333z" fill="#CCE6FF" p-id="20627"></path><path d="M507.157333 594.432a96.96 96.96 0 1 1 0 193.92 96.96 96.96 0 0 1 0-193.92z m0 58.176a38.784 38.784 0 1 0 0 77.568 38.784 38.784 0 0 0 0-77.568zM332.586667 415.04a96.96 96.96 0 1 1 0 193.92 96.96 96.96 0 0 1 0-193.92z m358.784 0a96.96 96.96 0 1 1 0 193.92 96.96 96.96 0 0 1 0-193.92z m-358.784 58.176a38.784 38.784 0 1 0 0 77.568 38.784 38.784 0 0 0 0-77.568z m358.784 0a38.784 38.784 0 1 0 0 77.568 38.784 38.784 0 0 0 0-77.568z m-184.234667-237.589333a96.96 96.96 0 1 1 0 193.941333 96.96 96.96 0 0 1 0-193.92z m0 58.197333a38.784 38.784 0 1 0 0 77.568 38.784 38.784 0 0 0 0-77.568z" fill="#0C66FF" p-id="20628"></path></svg>