<?xml version="1.0" standalone="no"?><!DOCTYPE svg PUBLIC "-//W3C//DTD SVG 1.1//EN" "http://www.w3.org/Graphics/SVG/1.1/DTD/svg11.dtd"><svg t="1635154019145" class="icon" viewBox="0 0 1024 1024" version="1.1" xmlns="http://www.w3.org/2000/svg" p-id="8201" xmlns:xlink="http://www.w3.org/1999/xlink" width="300" height="300"><defs><style type="text/css"></style></defs><path d="M713.155584 257.288192h-465.47968c-26.70592-0.026624-52.329472 10.351616-71.218176 28.826624-18.880512 18.481152-29.477888 43.558912-29.452288 69.690368v333.646848c0 26.114048 10.609664 51.16416 29.490176 69.62176 18.878464 18.46272 44.489728 28.822528 71.180288 28.793856h441.903104c-46.067712-36.557824-72.798208-91.544576-72.704-149.58592 0-39.74656 12.304384-76.681216 33.380352-107.358208 33.918976-59.215872 95.556608-96.77824 163.375104-96.774144v-78.34624c0.029696-26.100736-10.544128-51.14368-29.38368-69.618688-18.853888-18.473984-44.425216-28.869632-71.0912-28.896256z m-313.11872 392.426496c-5.025792-2.837504-8.12544-8.108032-8.152064-13.814784V422.864896c0.026624-5.702656 3.125248-10.970112 8.152064-13.806592a16.4352 16.4352 0 0 1 16.223232 0.052224l185.172992 106.472448c5.023744 2.844672 8.137728 8.131584 8.137728 13.843456 0 5.726208-3.113984 11.003904-8.137728 13.856768L416.259072 649.660416a16.431104 16.431104 0 0 1-16.222208 0.054272zM327.136256 183.554048l36.846592 59.958272 55.555072 0.044032-50.660352-82.787328c-4.483072-7.827456-12.995584-12.285952-21.801984-12.315648h-0.028672a25.869312 25.869312 0 0 0-11.824128 2.812928c-11.107328 7.1936-14.609408 21.1712-8.086528 32.287744zM619.982848 183.72608c6.381568-11.106304 2.904064-24.972288-8.070144-32.2048-5.796864-2.970624-12.61568-3.64032-18.93376-1.856512-6.327296 1.783808-11.626496 5.87264-14.737408 11.3664l-50.973696 82.613248 55.779328 0.043008 36.93568-59.961344z" fill="#FF7E00" opacity=".4" p-id="8202"></path><path d="M527.240192 243.688448l0.027648-0.044032-107.728896-0.08704 0.079872 0.131072z" fill="#FF7E00" opacity=".4" p-id="8203"></path><path d="M601.432064 543.2832c5.023744-2.852864 8.137728-8.13056 8.137728-13.856768 0-5.710848-3.113984-10.99776-8.137728-13.843456L416.259072 409.110528a16.438272 16.438272 0 0 0-16.223232-0.052224c-5.025792 2.83648-8.12544 8.10496-8.152064 13.806592v213.035008c0.026624 5.706752 3.125248 10.97728 8.152064 13.814784a16.43008 16.43008 0 0 0 16.223232-0.055296L601.432064 543.2832z" fill="#FFFFFF" opacity=".4" p-id="8204"></path><path d="M650.25536 530.924544a203.564032 203.564032 0 0 0-16.116736 35.772416c-26.962944 79.45728-3.126272 168.05888 59.48928 221.171712h22.708224c53.732352 0 97.297408-45.541376 97.297408-101.716992V434.151424c-67.821568-0.00512-129.4592 37.558272-163.378176 96.77312z" fill="#FD973F" opacity=".4" p-id="8205"></path><path d="M486.201344 323.554304l-50.656256-82.788352c-6.52288-11.392-21.588992-15.649792-33.65888-9.505792-11.10528 7.1936-14.60736 21.170176-8.085504 32.290816l36.846592 59.958272 55.554048 0.045056zM593.90464 323.684352l0.028672-0.045056-107.731968-0.084992 0.078848 0.130048z" fill="#FF7E00" p-id="8206"></path><path d="M686.647296 263.72096c6.378496-11.106304 2.902016-24.973312-8.07424-32.2048-5.792768-2.967552-12.612608-3.638272-18.925568-1.855488-6.330368 1.783808-11.629568 5.87264-14.741504 11.3664l-50.973696 82.613248 55.775232 0.045056 36.939776-59.964416z" fill="#FF7E00" p-id="8207"></path><path d="M880.297984 525.632512v-89.832448c0.023552-26.097664-10.549248-51.14368-29.389824-69.618688-18.850816-18.476032-44.422144-28.872704-71.08608-28.898304H314.338304c-26.702848-0.026624-52.328448 10.350592-71.218176 28.826624-18.878464 18.482176-29.478912 43.558912-29.45024 69.690368v333.645824c0 26.116096 10.60864 51.170304 29.489152 69.627904 18.880512 18.456576 44.489728 28.817408 71.182336 28.791808h441.900032c-46.062592-36.560896-72.793088-91.544576-72.701952-149.587968-0.003072-106.361856 88.077312-192.592896 196.758528-192.64512z m-212.20352 97.644544L482.922496 729.65632a16.44032 16.44032 0 0 1-16.223232 0.054272c-5.023744-2.837504-8.123392-8.105984-8.150016-13.817856V502.8608c0.026624-5.702656 3.126272-10.971136 8.150016-13.807616a16.433152 16.433152 0 0 1 16.223232 0.052224l185.171968 106.4704c5.026816 2.845696 8.136704 8.13056 8.136704 13.848576 0 5.722112-3.109888 10.999808-8.136704 13.852672z" fill="#FF7E00" p-id="8208"></path><path d="M782.995456 867.8656c53.7344 0 97.301504-45.544448 97.301504-101.722112V514.1504c-80.636928-0.008192-152.546304 53.08416-179.499008 132.544512-26.963968 79.455232-3.124224 168.055808 59.493376 221.17376h22.705152v-0.003072z" fill="#FF7E00" p-id="8209"></path><path d="M700.8 646.693888c-26.963968 79.455232-3.124224 168.055808 59.492352 221.17376h22.703104c53.7344 0 97.301504-45.545472 97.301504-101.722112V514.1504c-80.635904-0.008192-152.547328 53.083136-179.49696 132.543488z" fill="#FD973F" p-id="8210"></path></svg>