<?xml version="1.0" encoding="utf-8"?>
<!-- Generator: Adobe Illustrator 25.3.1, SVG Export Plug-In . SVG Version: 6.00 Build 0)  -->
<svg version="1.1" id="_1" xmlns="http://www.w3.org/2000/svg" xmlns:xlink="http://www.w3.org/1999/xlink" x="0px" y="0px"
	 viewBox="0 0 64 64" style="enable-background:new 0 0 64 64;" xml:space="preserve">
<style type="text/css">
	.st0{fill:#636363;}
	.st1{fill:#FF8CA6;}
	.st2{fill:#727171;}
	.st3{display:none;fill:#3F3F3F;enable-background:new    ;}
	.st4{font-family:'Bauhaus93';}
	.st5{font-size:17.0969px;}
</style>
<path class="st0" d="M16.3,46.1c4.7-1.4,7.4-6.6,5.9-11.4c-0.2-0.5-0.4-1.2-0.7-1.6c-8.5-13-2.8-23.6,7.8-29.2c0,0-30.3,5-24.6,35.2
	c0,0.3,0.3,1.5,0.5,1.9C7.2,45.3,11.8,47.4,16.3,46.1z"/>
<path class="st1" d="M51.5,38.2c-3.8-3.3-9.4-3.1-12.7,0.8c-0.4,0.4-0.8,1-1.1,1.4C30.9,54.5,18.8,55,8.6,48.8c0,0,20,23.3,42.8,2.7
	c0.2-0.2,1.1-1.2,1.2-1.3C55.5,46.4,55,41.3,51.5,38.2z"/>
<path class="st2" d="M38.9,5.3C38.6,5.2,37.4,5,37,4.9c-4.6-0.4-8.7,2.7-9.6,7.2c-1,4.8,2.3,9.6,7.2,10.7c0.5,0.1,1.2,0.2,1.7,0.2
	c15.6-1.3,22.1,8.7,22,20.7C58.5,43.6,68.3,14.4,38.9,5.3z"/>
<path class="st0" d="M29.5,24.5c-1.2-1-3.1-0.2-3.1,1.5v14.2c0,1.5,1.7,2.4,3.1,1.3l8.3-7.2c0.9-0.8,0.9-2,0-2.8L29.5,24.5z"/>
<text transform="matrix(1.2201 0 0 1 25.7622 38.2837)" class="st3 st4 st5">B</text>
</svg>
