<?xml version="1.0" standalone="no"?><!DOCTYPE svg PUBLIC "-//W3C//DTD SVG 1.1//EN" "http://www.w3.org/Graphics/SVG/1.1/DTD/svg11.dtd"><svg t="1635215258760" class="icon" viewBox="0 0 1024 1024" version="1.1" xmlns="http://www.w3.org/2000/svg" p-id="38636" xmlns:xlink="http://www.w3.org/1999/xlink" width="300" height="300"><defs><style type="text/css"></style></defs><path d="M930.133333 772.266667H314.88c-33.28 0-59.733333-26.453333-59.733333-59.733334V202.24c0-33.28 26.453333-59.733333 59.733333-59.733333H930.133333c33.28 0 59.733333 26.453333 59.733334 59.733333v510.293333c0 33.28-26.453333 59.733333-59.733334 59.733334z" fill="#0DA0DE" opacity=".5" p-id="38637"></path><path d="M804.693333 139.946667H139.946667C81.92 139.946667 34.133333 187.733333 34.133333 244.906667v424.106666c0 58.026667 47.786667 105.813333 105.813334 105.813334h664.746666c58.026667 0 105.813333-47.786667 105.813334-105.813334V244.906667c-0.853333-57.173333-48.64-104.96-105.813334-104.96z m66.56 529.066666c0 41.813333-25.6 67.413333-67.413333 67.413334H139.946667c-41.813333 0-67.413333-25.6-67.413334-67.413334V244.906667c0-41.813333 25.6-67.413333 67.413334-67.413334h664.746666c41.813333 0 67.413333 25.6 67.413334 67.413334v424.106666z m8.533334 0M834.56 849.92c0 11.093333 5.973333 20.48 14.506667 25.6 9.386667 5.12 20.48 5.12 29.866666 0s14.506667-15.36 14.506667-25.6-5.973333-20.48-14.506667-25.6c-9.386667-5.12-20.48-5.12-29.866666 0s-14.506667 15.36-14.506667 25.6z m0 0" fill="#0DA0DE" p-id="38638"></path><path d="M561.493333 434.346667L419.84 344.746667c-25.6-16.213333-46.08-5.973333-46.08 23.893333v189.44c0 29.866667 19.626667 40.106667 46.08 23.893333l141.653333-89.6c23.893333-16.213333 23.893333-41.813333 0-58.026666z m180.906667 384H80.213333c-16.213333 0-29.866667 13.653333-29.866666 29.866666 0 17.92 13.653333 29.866667 29.866666 29.866667h664.746667c16.213333 0 29.866667-13.653333 29.866667-29.866667s-14.506667-29.866667-32.426667-29.866666z m0 0" fill="#0DA0DE" p-id="38639"></path><path d="M105.813333 249.173333h-4.266666c-5.973333 0-10.24 4.266667-10.24 10.24v264.533334c0 5.973333 4.266667 10.24 10.24 10.24h4.266666c5.973333 0 10.24-4.266667 10.24-10.24V261.12c0-5.973333-4.266667-11.946667-10.24-11.946667z m0 0M92.16 561.493333c0 6.826667 5.12 11.946667 11.946667 11.946667 6.826667 0 11.946667-5.12 11.946666-11.946667 0-6.826667-5.12-11.946667-11.946666-11.946666-6.826667 0-11.946667 5.12-11.946667 11.946666z m0 0" fill="#FCFCFF" p-id="38640"></path></svg>