<?xml version="1.0" standalone="no"?><!DOCTYPE svg PUBLIC "-//W3C//DTD SVG 1.1//EN" "http://www.w3.org/Graphics/SVG/1.1/DTD/svg11.dtd"><svg t="1635173989218" class="icon" viewBox="0 0 1024 1024" version="1.1" xmlns="http://www.w3.org/2000/svg" p-id="27522" xmlns:xlink="http://www.w3.org/1999/xlink" width="300" height="300"><defs><style type="text/css"></style></defs><path d="M202.30144 371.392512c-22.263808 0-40.374272-18.10944-40.374272-40.374272s18.110464-40.374272 40.374272-40.374272c22.263808 0 40.374272 18.110464 40.374272 40.374272 0 22.263808-18.110464 40.374272-40.374272 40.374272z m0-62.804992c-12.371968 0-22.429696 10.058752-22.429696 22.429696 0 12.371968 10.058752 22.43072 22.429696 22.43072 12.371968 0 22.428672-10.058752 22.428672-22.43072 0-12.370944-10.056704-22.429696-22.428672-22.429696z" fill="#FFD8A0" p-id="27523"></path><path d="M785.481728 290.643968c-22.265856 0-40.374272-18.10944-40.374272-40.374272 0-22.263808 18.108416-40.374272 40.374272-40.374272s40.374272 18.110464 40.374272 40.374272c0 22.264832-18.108416 40.374272-40.374272 40.374272z m0-62.803968c-12.36992 0-22.427648 10.057728-22.427648 22.429696s10.057728 22.429696 22.427648 22.429696c12.371968 0 22.431744-10.057728 22.431744-22.429696 0.001024-12.36992-10.059776-22.429696-22.431744-22.429696z" fill="#FFF7EC" p-id="27524"></path><path d="M112.579584 703.357952c-22.263808 0-40.374272-18.112512-40.374272-40.375296 0-22.263808 18.110464-40.374272 40.374272-40.374272 22.264832 0 40.374272 18.111488 40.374272 40.374272 0.001024 22.264832-18.10944 40.375296-40.374272 40.375296z m0-62.804992c-12.371968 0-22.429696 10.058752-22.429696 22.429696 0 12.371968 10.057728 22.429696 22.429696 22.429696s22.43072-10.057728 22.43072-22.429696c0-12.370944-10.058752-22.429696-22.43072-22.429696z" fill="#FFF4E4" p-id="27525"></path><path d="M982.867968 514.946048c-17.309696 0-31.401984-14.089216-31.401984-31.403008s14.09024-31.403008 31.401984-31.403008c17.313792 0 31.401984 14.089216 31.401984 31.403008s-14.09024 31.403008-31.401984 31.403008z m0-44.860416c-7.419904 0-13.456384 6.037504-13.456384 13.458432s6.03648 13.457408 13.456384 13.457408c7.421952 0 13.46048-6.03648 13.46048-13.457408s-6.038528-13.458432-13.46048-13.458432zM327.909376 281.67168c-17.313792 0-31.401984-14.089216-31.401984-31.401984s14.088192-31.403008 31.401984-31.403008c17.312768 0 31.401984 14.089216 31.401984 31.403008 0 17.314816-14.089216 31.401984-31.401984 31.401984z m0-44.858368c-7.420928 0-13.46048 6.037504-13.46048 13.458432 0 7.420928 6.038528 13.458432 13.46048 13.458432 7.419904 0 13.457408-6.037504 13.457408-13.458432 0-7.420928-6.03648-13.458432-13.457408-13.458432z" fill="#FFC879" p-id="27526"></path><path d="M924.155904 418.898944l4.248576-30.253056-38.516736 7.095296 2.601984-41.285632-39.461888 7.273472 3.31264-52.747264 17.907712 1.122304-1.87392 29.807616 39.461888-7.272448-2.601984 41.284608 40.410112-7.446528-4.584448 32.584704 30.92992-2.70848 1.558528 17.874944z" fill="#FFD495" p-id="27527"></path><path d="M267.548672 813.83424l-1.593344-30.508032-36.466688 14.316544-5.326848-41.02144-37.351424 14.65856-6.792192-52.395008 17.785856-2.31424 3.849216 29.613056 37.3504-14.656512 5.327872 41.005056 38.23616-15.017984 1.717248 32.858112 29.841408-8.553472 4.942848 17.242112zM865.028096 750.97088l-0.434176-17.943552 29.857792-0.729088-10.679296-38.674432 41.348096-1.00864-10.92608-39.593984 32.835584 1.718272-5.376-30.569472 17.661952-3.120128 9.304064 52.790272-30.51008-1.595392 10.422272 37.75488-41.350144 1.007616 10.682368 38.673408z" fill="#FFF3E3" p-id="27528"></path><path d="M84.91008 558.281728l-47.760384-24.34048 19.636224-23.40352-36.422656-14.394368 24.077312-33.62816-37.316608-14.754816 30.763008-42.968064 14.596096 10.443776-17.390592 24.288256 37.315584 14.754816-24.078336 33.62816 38.211584 15.095808-21.143552 25.189376 27.661312 14.107648z" fill="#FFBD5E" p-id="27529"></path><path d="M642.557952 315.103232H341.79584c-17.255424-0.017408-33.811456 6.688768-46.016512 18.625536-12.198912 11.941888-19.0464 28.14464-19.030016 45.029376v215.579648c0 16.874496 6.85568 33.05984 19.054592 44.986368 12.197888 11.928576 28.745728 18.622464 45.991936 18.604032h285.528064c-29.765632-23.621632-47.036416-59.150336-46.976-96.652288 0-25.68192 7.950336-49.54624 21.568512-69.367808 21.915648-38.260736 61.74208-62.531584 105.562112-62.528512V378.75712c0.018432-16.864256-6.813696-33.045504-18.985984-44.983296-12.182528-11.936768-28.704768-18.653184-45.934592-18.670592zM440.241152 568.66304c-3.247104-1.833984-5.250048-5.23776-5.267456-8.926208V422.08768c0.017408-3.684352 2.019328-7.088128 5.267456-8.921088a10.617856 10.617856 0 0 1 10.481664 0.033792l119.647232 68.795392c3.24608 1.83808 5.25824 5.254144 5.25824 8.945664 0 3.698688-2.01216 7.108608-5.25824 8.952832l-119.647232 68.733952a10.617856 10.617856 0 0 1-10.481664 0.034816zM393.138176 267.461632l23.808 38.740992 35.895296 0.028672-32.73216-53.491712c-2.896896-5.057536-8.397824-7.938048-14.087168-7.957504h-0.019456a16.713728 16.713728 0 0 0-7.640064 1.8176c-7.176192 4.646912-9.439232 13.678592-5.224448 20.861952zM582.355968 267.572224c4.123648-7.176192 1.875968-16.135168-5.214208-20.808704-3.745792-1.918976-8.152064-2.352128-12.233728-1.199104-4.087808 1.152-7.512064 3.79392-9.522176 7.344128l-32.935936 53.379072 36.03968 0.028672 23.866368-38.744064zM522.432512 306.316288l0.017408-0.028672-69.607424-0.05632 0.0512 0.084992z" fill="#FF7E00" opacity=".4" p-id="27530"></path><path d="M570.370048 499.894272c3.24608-1.844224 5.25824-5.254144 5.25824-8.952832 0-3.69152-2.01216-7.107584-5.25824-8.945664l-119.647232-68.795392a10.620928 10.620928 0 0 0-10.481664-0.033792c-3.247104 1.83296-5.250048 5.236736-5.267456 8.921088v137.649152a10.31168 10.31168 0 0 0 5.267456 8.926208 10.617856 10.617856 0 0 0 10.481664-0.034816l119.647232-68.733952z" fill="#FFFFFF" opacity=".4" p-id="27531"></path><path d="M601.916416 491.90912a131.511296 131.511296 0 0 0-10.41408 23.112704c-17.422336 51.340288-2.020352 108.589056 38.437888 142.907392h14.671872c34.717696 0 62.866432-29.425664 62.866432-65.723392V429.380608c-43.820032-0.003072-83.646464 24.267776-105.562112 62.528512z" fill="#FD973F" opacity=".4" p-id="27532"></path><path d="M495.915008 357.919744l-32.731136-53.491712c-4.214784-7.360512-13.948928-10.112-21.747712-6.141952-7.175168 4.647936-9.438208 13.678592-5.224448 20.864l23.808 38.740992 35.895296 0.028672z" fill="#FF7E00" p-id="27533"></path><path d="M565.506048 358.003712l0.018432-0.028672-69.609472-0.055296 0.0512 0.083968z" fill="#FF7E00" p-id="27534"></path><path d="M625.429504 319.259648c4.1216-7.176192 1.875968-16.136192-5.216256-20.808704-3.743744-1.917952-8.150016-2.351104-12.229632-1.199104-4.089856 1.153024-7.514112 3.79392-9.524224 7.344128l-32.935936 53.379072 36.037632 0.028672 23.868416-38.744064z" fill="#FF7E00" p-id="27535"></path><path d="M750.554112 488.48896v-58.043392c0.016384-16.863232-6.815744-33.045504-18.99008-44.982272-12.18048-11.938816-28.701696-18.656256-45.93152-18.67264H384.869376c-17.2544-0.017408-33.811456 6.687744-46.017536 18.625536-12.197888 11.941888-19.0464 28.14464-19.028992 45.029376v215.579648c0 16.874496 6.85568 33.062912 19.054592 44.988416 12.198912 11.926528 28.745728 18.62144 45.99296 18.604032h285.52704c-29.763584-23.622656-47.034368-59.149312-46.976-96.653312-0.001024-68.724736 56.910848-124.440576 127.132672-124.475392z m-137.112576 63.091712l-119.645184 68.734976a10.61888 10.61888 0 0 1-10.482688 0.034816c-3.24608-1.833984-5.249024-5.23776-5.265408-8.927232V473.776128c0.016384-3.685376 2.019328-7.089152 5.265408-8.922112a10.61888 10.61888 0 0 1 10.482688 0.033792l119.645184 68.794368c3.248128 1.839104 5.25824 5.254144 5.25824 8.947712 0 3.69664-2.010112 7.107584-5.25824 8.950784z" fill="#FF7E00" p-id="27536"></path><path d="M687.683584 709.617664c34.719744 0 62.869504-29.427712 62.869504-65.72544V481.07008c-52.102144-0.00512-98.566144 34.29888-115.980288 85.641216-17.422336 51.33824-2.018304 108.587008 38.439936 142.907392h14.670848z" fill="#FF7E00" p-id="27537"></path><path d="M634.573824 566.711296c-17.422336 51.33824-2.018304 108.587008 38.439936 142.907392h14.669824c34.719744 0 62.869504-29.427712 62.869504-65.72544V481.07008c-52.10112-0.00512-98.56512 34.29888-115.979264 85.641216z" fill="#FD973F" p-id="27538"></path></svg>