<?xml version="1.0" standalone="no"?><!DOCTYPE svg PUBLIC "-//W3C//DTD SVG 1.1//EN" "http://www.w3.org/Graphics/SVG/1.1/DTD/svg11.dtd"><svg t="1635215228292" class="icon" viewBox="0 0 1024 1024" version="1.1" xmlns="http://www.w3.org/2000/svg" p-id="36685" xmlns:xlink="http://www.w3.org/1999/xlink" width="300" height="300"><defs><style type="text/css"></style></defs><path d="M512 68.266667C266.24 68.266667 68.266667 266.24 68.266667 512s197.973333 443.733333 443.733333 443.733333 443.733333-197.973333 443.733333-443.733333S757.76 68.266667 512 68.266667z m-102.4 648.533333V307.2l341.333333 204.8-341.333333 204.8z" fill="#5069BB" p-id="36686"></path><path d="M512 0C228.693333 0 0 228.693333 0 512s228.693333 512 512 512 512-228.693333 512-512S795.306667 0 512 0z m0 1006.933333C238.933333 1006.933333 17.066667 785.066667 17.066667 512S238.933333 17.066667 512 17.066667s494.933333 221.866667 494.933333 494.933333-221.866667 494.933333-494.933333 494.933333z" fill="#3D59B4" p-id="36687"></path><path d="M512 68.266667C266.24 68.266667 68.266667 266.24 68.266667 512s197.973333 443.733333 443.733333 443.733333 443.733333-197.973333 443.733333-443.733333S757.76 68.266667 512 68.266667z m0 870.4C276.48 938.666667 85.333333 747.52 85.333333 512S276.48 85.333333 512 85.333333s426.666667 191.146667 426.666667 426.666667-191.146667 426.666667-426.666667 426.666667z" fill="#3D59B4" p-id="36688"></path></svg>