<?xml version="1.0" standalone="no"?><!DOCTYPE svg PUBLIC "-//W3C//DTD SVG 1.1//EN" "http://www.w3.org/Graphics/SVG/1.1/DTD/svg11.dtd"><svg t="1635215210758" class="icon" viewBox="0 0 1024 1024" version="1.1" xmlns="http://www.w3.org/2000/svg" p-id="35712" xmlns:xlink="http://www.w3.org/1999/xlink" width="300" height="300"><defs><style type="text/css"></style></defs><path d="M192 896.00000001L896 896C966.656 896 1024 838.656 1024 768l0-576c0-70.656-57.344-128-128-128l-704 0c-70.656 0-128 57.344-128 128L64 768c0 70.656 57.344 128 128 128.00000001zM335.552 452.16L655.488 260.672c5.12-3.008 10.816-4.544 16.512-4.54400001 5.44 0 10.88 1.34399999 15.744 4.16000001A31.83 31.83 0 0 1 704 288.064L704 671.04c0 11.52-6.208 22.08-16.256 27.776-9.984 5.696-22.39999999 5.504-32.256-0.384l-319.936-191.488A31.902 31.902 0 0 1 320 479.552a31.823 31.823 0 0 1 15.552-27.392z" fill="#00D9A8" p-id="35713"></path></svg>