<?xml version="1.0" standalone="no"?><!DOCTYPE svg PUBLIC "-//W3C//DTD SVG 1.1//EN" "http://www.w3.org/Graphics/SVG/1.1/DTD/svg11.dtd"><svg t="1635490814348" class="icon" viewBox="0 0 1024 1024" version="1.1" xmlns="http://www.w3.org/2000/svg" p-id="12283" xmlns:xlink="http://www.w3.org/1999/xlink" width="50" height="50"><defs><style type="text/css"></style></defs><path d="M153.6 371.2c0 44.8 0 44.8-38.4 44.8-44.8 0-44.8 0-44.8-44.8 0-38.4 0-38.4 44.8-38.4 38.4-6.4 38.4-6.4 38.4 38.4z m0 192v102.4c0 19.2-6.4 25.6-25.6 25.6-57.6 0-57.6 0-57.6-51.2V467.2c0-19.2 6.4-32 32-32 64 0 51.2-6.4 51.2 51.2v76.8zM556.8 512v153.6c0 19.2-6.4 25.6-25.6 25.6-64 6.4-64 6.4-64-57.6V364.8c0-32 0-38.4 38.4-38.4h19.2c25.6 0 32 6.4 32 32V512z m390.4 0v153.6c0 19.2-6.4 32-25.6 32-57.6 0-57.6 0-57.6-57.6V358.4c0-25.6 6.4-32 32-32 51.2 0 51.2 0 51.2 51.2V512zM704 448c12.8-32 19.2-64 25.6-89.6 6.4-19.2 19.2-32 38.4-32 70.4 0 57.6 6.4 38.4 57.6-6.4 44.8-19.2 89.6-38.4 128-19.2 44.8-12.8 89.6-19.2 134.4 0 19.2 6.4 32-12.8 38.4-19.2 6.4-44.8 0-64 0-6.4 0-6.4-6.4-6.4-12.8v-6.4c19.2-115.2-38.4-204.8-70.4-307.2-12.8-25.6-12.8-32 25.6-32h19.2c19.2 0 32 6.4 32 25.6 12.8 32 25.6 57.6 32 96zM339.2 512V396.8c0-19.2 0-25.6-25.6-25.6-19.2 0-25.6 6.4-25.6 25.6v230.4c0 19.2 6.4 32 25.6 32 19.2 0 25.6-19.2 25.6-32V512z m89.6 0v108.8c0 12.8 0 25.6-6.4 38.4-6.4 19.2-25.6 32 6.4 44.8 6.4 0 6.4 19.2 0 32 0 6.4-12.8 12.8-19.2 12.8-25.6 0-51.2 0-70.4-25.6 0-19.2-12.8-19.2-19.2-19.2h-25.6c-83.2-12.8-89.6-25.6-89.6-108.8V390.4c0-38.4 12.8-57.6 51.2-64 44.8-12.8 89.6-12.8 128 0 32 6.4 44.8 32 44.8 64V512z m96-358.4c96-6.4 204.8 6.4 313.6 25.6 64 6.4 96 25.6 108.8 102.4 6.4 19.2-6.4 25.6-25.6 25.6h-38.4c-19.2 0-25.6-6.4-32-19.2-6.4-19.2-25.6-32-44.8-32-128-19.2-256-25.6-384-19.2-70.4 0-140.8 6.4-217.6 12.8-19.2 0-32 12.8-38.4 32-6.4 19.2-25.6 25.6-44.8 19.2h-25.6c-19.2 0-25.6-6.4-25.6-25.6 0-44.8 32-83.2 76.8-96 121.6-19.2 243.2-32 377.6-25.6z m0 716.8c-128 0-243.2-6.4-358.4-25.6-57.6-12.8-89.6-51.2-89.6-102.4 0-19.2 6.4-25.6 19.2-25.6H128c12.8 0 25.6 6.4 32 19.2 6.4 25.6 25.6 32 44.8 32 57.6 6.4 108.8 12.8 166.4 19.2 89.6 6.4 172.8 6.4 262.4 0 64-6.4 121.6-6.4 185.6-19.2 19.2 0 32-12.8 32-25.6 6.4-25.6 25.6-25.6 44.8-25.6 57.6 0 57.6 0 44.8 57.6-6.4 32-25.6 57.6-64 64-51.2 19.2-108.8 19.2-166.4 25.6-64 6.4-134.4 12.8-185.6 6.4z" fill="#42BD56" p-id="12284"></path></svg>