<?xml version="1.0" standalone="no"?><!DOCTYPE svg PUBLIC "-//W3C//DTD SVG 1.1//EN" "http://www.w3.org/Graphics/SVG/1.1/DTD/svg11.dtd"><svg t="1635491513564" class="icon" viewBox="0 0 1024 1024" version="1.1" xmlns="http://www.w3.org/2000/svg" p-id="24339" data-spm-anchor-id="a313x.7781069.0.i46" xmlns:xlink="http://www.w3.org/1999/xlink" width="50" height="50"><defs><style type="text/css"></style></defs><path d="M325.632 139.008c25.856-2.88 52.352 0.576 76.544 9.216 53.568 17.28 105.984 39.168 156.608 63.936a1938.24 1938.24 0 0 1 245.312 145.024 582.592 582.592 0 0 1 95.552 79.36c16.128 18.496 28.8 41.6 26.496 66.368-3.52 29.888-24.192 53.44-44.928 73.6a1617.28 1617.28 0 0 1-279.808 212.48c-51.84 31.168-107.072 56.448-164.096 76.608-36.864 12.672-75.456 23.616-114.56 19.52a94.912 94.912 0 0 1-61.632-28.8 112 112 0 0 1-25.28-53.504l1.088-1.728c17.28-4.032 34.048-9.216 51.264-13.184a1027.648 1027.648 0 0 0 207.808-78.336 1393.152 1393.152 0 0 0 203.84-120.96c20.736-15.488 43.712-31.04 55.872-55.808a57.408 57.408 0 0 0-4.096-55.296 171.328 171.328 0 0 0-48.896-48.96 761.6 761.6 0 0 0-68.48-43.072C589.248 358.4 542.08 335.296 494.272 312.32a1264.192 1264.192 0 0 0-169.344-67.392c-25.856-7.488-51.776-15.552-77.696-22.4 2.88-11.584 6.4-23.104 10.944-34.048a89.28 89.28 0 0 1 67.392-49.472" fill="#10ABF2" p-id="24340"></path><path d="M165.056 228.224c24.064-11.52 52.288-8.064 77.632-3.52-7.424 34.048-12.032 68.608-17.28 103.104-0.448 14.976-2.24 29.44-4.032 44.352-2.88 18.368-2.176 37.376-5.12 55.808-0.64 21.312-1.728 43.2-2.24 65.088-2.304 20.736-1.28 42.048-1.28 62.72 0 31.104-0.512 62.784 1.792 93.888 1.664 47.744 5.12 94.976 11.52 142.208v6.912c-24.192 4.544-52.416 8.064-74.88-6.912-22.4-14.976-28.16-42.624-33.92-66.752a1347.2 1347.2 0 0 1-19.648-236.096 1100.8 1100.8 0 0 1 10.944-123.264 532.032 532.032 0 0 1 23.04-98.432c5.76-16.64 17.92-31.04 33.408-39.04" fill="#FF8F21" p-id="24341"></path><path d="M341.76 346.24a21.632 21.632 0 0 0-14.464 21.312 343.68 343.68 0 0 0 0.64 41.408c0.64 40.96-0.64 82.432 0.64 123.264v109.44a24.192 24.192 0 0 0 10.88 23.552 30.72 30.72 0 0 0 27.072-5.76C432.704 615.104 499.52 570.88 565.76 526.4c8.064-5.696 17.28-14.336 16.128-25.856a32.96 32.96 0 0 0-18.432-24.192L361.344 351.424a30.144 30.144 0 0 0-19.584-5.12zM243.904 222.464l5.12 0.64c25.92 6.848 51.84 14.912 77.76 22.4 58.112 18.432 114.56 41.408 169.216 67.904 47.232 23.68 94.464 46.72 139.968 73.152 23.68 13.248 46.592 27.648 68.48 43.2 19.584 12.672 35.712 29.44 48.96 48.384 10.944 16.64 12.032 37.376 4.032 55.232-11.52 24.192-35.136 39.744-55.872 55.872a1404.608 1404.608 0 0 1-203.776 120.96 1086.976 1086.976 0 0 1-208.448 78.208c-17.28 4.032-33.92 9.216-51.2 13.248l-9.792 1.728c-0.576-4.032-1.216-8.064-1.792-12.672a1498.816 1498.816 0 0 1-11.456-142.208c-3.456-31.104-2.368-62.72-2.368-93.824-0.512-20.736 0-42.048 1.28-62.72 0.512-21.376 1.6-43.2 2.176-65.088 2.944-18.432 2.304-37.44 5.184-55.872 1.728-14.4 3.52-29.376 4.096-44.352 5.184-34.56 9.152-69.056 17.28-103.04l0.512-2.304 0.64 1.152z" fill="#7DE621" p-id="24342"></path><path d="M341.76 346.24a30.144 30.144 0 0 1 19.584 5.184l203.2 125.504a32 32 0 0 1 18.432 24.192c1.152 10.944-8.064 19.584-16.128 25.92a37030.656 37030.656 0 0 0-199.232 132.48c-7.488 5.76-17.792 8-27.072 5.76a25.728 25.728 0 0 1-10.88-23.04v-109.44c-1.152-40.896 0-82.368-0.576-123.264-1.152-13.824-1.792-27.52-1.152-41.984-1.152-9.216 5.12-17.856 13.824-21.312" fill="#FFFFFF" p-id="24343"></path></svg>