<?xml version="1.0" standalone="no"?><!DOCTYPE svg PUBLIC "-//W3C//DTD SVG 1.1//EN" "http://www.w3.org/Graphics/SVG/1.1/DTD/svg11.dtd"><svg t="1635666798391" class="icon" viewBox="0 0 1024 1024" version="1.1" xmlns="http://www.w3.org/2000/svg" p-id="6951" xmlns:xlink="http://www.w3.org/1999/xlink" width="50" height="50"><defs><style type="text/css"></style></defs><path d="M100.50943473 461.18505772h-65.03760276c-3.86635431 0-6.90420412-3.0378498-6.90420412-6.90420412V161.12834686c0-3.86635431 3.0378498-6.90420412 6.90420412-6.90420411H100.50943473c3.86635431 0 6.90420412 3.0378498 6.90420412 6.90420411v293.15250674c0 3.86635431-3.0378498 6.90420412-6.90420412 6.90420412zM404.15633171 274.0811262c0-70.1467138-58.5476509-127.03735571-130.90371002-127.03735573s-130.90371003 56.89064192-130.90371002 127.03735573c0 63.24250969 47.63900839 115.57637689 109.91492951 125.38034672l-44.73924266 51.09111045c-2.3474294 2.62359757-0.41425225 6.90420412 3.1759339 6.90420412H288.30378667c1.24275675 0 2.48551348-0.55233633 3.31401797-1.51892491 0 0 55.371717-66.69461175 94.58759639-120.96165609 13.67032415-18.91751926 17.9509307-41.83947694 17.95093068-60.89508029z m-190.55603358 0c0-33.00209567 26.65022788-59.65232355 59.65232356-59.65232357s59.65232355 26.65022788 59.65232356 59.65232357-26.65022788 59.65232355-59.65232356 59.65232355-59.65232355-26.65022788-59.65232356-59.65232355zM578.83269584 148.70077947c-84.78362653 0-153.54949953 68.76587298-153.54949954 153.5494995S494.0490693 455.79977851 578.83269584 455.79977851c84.78362653 0 153.54949953-68.76587298 153.54949952-153.54949954s-68.62778891-153.54949953-153.54949952-153.5494995zM689.85229802 321.44396642l-167.9102441 90.85932617c-12.56565149 6.76612003-26.78831197-4.00443838-26.78831196-20.16027602V213.1860459c0-17.12242621 15.32733314-28.1691528 28.30723687-20.43644418l166.80557142 99.55862333c10.35630617 6.07569962 10.08013802 23.47429398-0.41425223 29.13574137z" fill="#0090D6" p-id="6952"></path><path d="M533.67920092 255.301691v94.4495123c0 8.5612131 7.59462453 14.22266047 14.22266048 10.63247433l88.64998084-47.91517656c5.5233633-3.0378498 5.66144737-12.15139925 0.27616816-15.32733313l-88.0976445-52.61003535c-6.90420412-4.14252247-15.05116498 1.65700898-15.05116498 10.77055841zM864.94291437 226.71828596c-8.97546534 0-17.81284661 0.96658859-26.23597564 2.76168165l2.76168165-15.87966948c0.27616816-1.93317715 2.07126124-3.45210207 4.14252247-3.45210204l111.57193849 0.41425224c2.3474294 0 4.14252247-1.79509307 4.14252248-4.14252246v-50.12452188c0-2.3474294-1.79509307-4.14252247-4.14252248-4.14252248H790.51559402c-1.93317715 0-3.59018613 1.38084082-4.0044384 3.1759339l-36.31611365 152.72099502c-0.8285045 2.62359757 1.10467265 5.3852792 4.00443838 5.3852792h69.5943775c9.80396985-14.63691274 26.92639605-24.02663031 46.12008348-23.06004173 27.89298463 1.38084082 49.98643779 24.85513482 49.71026964 52.74811945-0.27616816 28.72148912-23.61237808 51.91961495-52.3338672 51.91961493-18.08901478 0-33.96868425-9.11354943-43.49648592-23.06004175h-69.5943775c-2.76168163 0-4.83294288 2.76168163-4.00443838 5.38527922 15.32733314 47.08667206 60.8950803 81.33152447 114.7478724 81.33152448 66.41844358 0 120.13315161-51.91961495 120.1331516-115.99062914s-53.71470801-115.99062914-120.1331516-115.99062913z" fill="#0090D6" p-id="6953"></path><path d="M20.420667 578.2803595h122.06632875v-41.83947693h27.47873239V578.2803595H292.44630914v183.51374539h-122.480581v38.24929081c0 13.2560719 7.04228819 19.88410785 21.1268646 19.88410784h77.46517016c15.05116498 0 24.1647144-4.83294288 27.47873236-14.63691272 3.59018613-10.63247434 6.07569962-25.95980747 7.59462455-45.98199941 6.35186779 2.89976573 15.6035013 6.2137837 27.47873237 10.08013801-2.62359757 17.39859437-5.66144737 32.31167525-8.97546535 44.73924267-5.5233633 20.43644418-20.57452827 30.65466627-45.01541083 30.65466628h-87.95956043c-31.06891852 0-46.67241982-15.05116498-46.67241982-45.01541084V761.93218898h-94.58759638v22.5077054H20.420667V578.2803595z m27.47873237 79.95068367h94.58759638v-55.50980109h-94.58759638v55.50980109z m0 79.12217914h94.58759638v-55.78596924h-94.58759638v55.78596924zM264.82949268 602.72124208h-95.00184863v55.50980109H264.82949268v-55.50980109z m0 134.63198023v-55.78596924h-95.00184863v55.78596924H264.82949268zM342.01849468 831.38848237c15.6035013-12.84181965 32.17359118-29.54999362 49.57218555-49.98643778l19.19368744 13.1179878c-19.19368743 22.23153725-36.45419773 39.49204754-51.91961493 51.91961496l-16.84625806-15.05116498z m1.93317716-161.00603997h89.20231716c-3.1759339-5.93761554-6.62803595-11.46097883-10.080138-16.70817395l15.05116497-7.18037229h-54.12896027v8.42312902H361.48835028v-105.22007071h164.73431019v105.22007071H503.71495506v-8.42312902h-57.71914641c4.97102697 7.59462453 9.52780169 15.6035013 13.53224009 23.88854624h88.23572858v18.91751929H343.95167184v-18.91751929z m22.78387358 37.5588704H521.66588576v68.62778889h-22.50770541V771.59807473H458.1472079v45.42966307c0 24.9932189-11.46097883 37.55887038-34.38293649 37.55887039-7.7327086 0-17.81284661-0.13808409-30.37849811-0.27616816-0.8285045-7.87079269-2.3474294-15.6035013-4.28060655-23.19812582 11.18481067 1.51892491 20.85069643 2.3474294 28.72148911 2.3474294 11.737147 0 17.53667845-6.35186779 17.53667845-18.91751928v-42.80606551h-45.9819994v4.83294287h-22.50770542v-68.62778889zM503.71495506 568.20022149h-119.71889936v21.54111685H503.71495506v-21.54111685z m-119.71889936 60.06657581H503.71495506v-21.54111684h-119.71889936v21.54111684z m115.16212465 97.34927802h-109.91492952v28.44532097h109.91492952v-28.44532097z m-25.13130298 68.21353667l15.6035013-14.08457641c12.56565149 9.80396985 26.78831197 21.817285 42.66798143 35.9018614L515.0378498 832.35507095c-11.737147-12.84181965-25.40747114-25.68363931-41.01097243-38.52545896z m54.26704435 45.42966307c50.67685821-30.5165822 91.54974657-69.31820932 122.480581-116.54296546l20.57452825 15.05116497c-34.65910465 50.67685821-76.36049751 90.99741024-125.38034672 120.82357201-6.07569962-8.14696086-12.01331517-14.63691274-17.67476253-19.33177152z m8.28504494-214.99691615c32.58784341-20.43644418 62.82825745-48.46751289 90.72124208-83.95512204l20.57452824 15.05116498c-27.61681646 35.07335691-58.82381906 64.20909827-93.6210078 87.54530818-6.62803595-7.59462453-12.42756741-13.80840823-17.67476252-18.64135112z m3.59018614 95.69226904c38.38737488-25.68363931 72.4941432-57.85723049 102.18222089-96.65885761l20.57452827 16.01775354c-33.27826384 40.04438386-68.48970482 73.46073179-105.49623888 100.24904377-6.07569962-7.59462453-11.737147-14.08457639-17.26051028-19.6079397zM733.34878394 623.01960217l19.4698556-10.08013801c13.11798782 20.57452827 26.23597565 41.56330877 39.21587937 62.96634153 10.63247434-22.78387358 19.88410785-45.42966308 27.61681646-67.9373685l22.50770543 8.14696088c-10.90864251 29.27382545-22.92195766 57.02872598-36.03994549 83.4027857 12.70373557 21.40303275 25.26938706 43.22031776 37.69695447 65.45185501l-22.50770543 11.737147c-9.11354943-17.26051028-18.64135111-34.52102059-28.30723686-51.91961495-13.53224006 25.13130297-28.1691528 48.88176514-43.77265409 71.25138647l-19.88410785-11.32289475v68.07545258h-24.85513482V554.39181327h281.82961199v261.94550413c0 23.33620992-12.70373557 34.93527282-38.11120672 34.93527282-14.08457639 0-30.93083443-0.27616816-50.67685821-0.69042042-1.10467265-6.90420412-2.62359757-15.46541722-4.69485879-25.40747113 18.50326702 1.51892491 34.24485242 2.3474294 47.36284023 2.34742939 14.08457639 0 21.12686459-5.93761554 21.12686459-17.95093069V578.00419135H729.48242963v205.46911445c18.91751926-27.47873238 35.62569324-54.95746475 50.12452187-82.43619712-14.7749968-25.95980747-30.10232993-51.91961495-46.25816756-78.01750651z m110.19109768 15.6035013l19.19368743-11.04672658c11.04672658 17.67476253 22.50770542 36.31611363 34.24485242 56.06213742 12.70373557-24.9932189 23.47429398-49.43410147 32.31167527-73.59881588l22.50770539 8.42312904c-12.42756741 31.06891852-26.09789155 60.61891214-40.87288835 88.78806491 13.9464923 23.47429398 28.30723687 48.46751289 43.22031776 74.8415726l-22.23153726 12.42756741c-11.04672658-20.71261235-22.50770542-41.56330877-34.38293649-62.69017337-13.67032415 24.1647144-28.1691528 47.08667206-43.63457 68.90395708l-20.16027602-12.70373557c18.91751926-27.06448014 35.76377732-53.71470801 50.26260596-79.95068366-12.97990373-23.06004175-26.37405971-46.12008349-40.45863611-69.4562934z" p-id="6954"></path></svg>