<?xml version="1.0" standalone="no"?><!DOCTYPE svg PUBLIC "-//W3C//DTD SVG 1.1//EN" "http://www.w3.org/Graphics/SVG/1.1/DTD/svg11.dtd"><svg t="1635666600601" class="icon" viewBox="0 0 1024 1024" version="1.1" xmlns="http://www.w3.org/2000/svg" p-id="2500" xmlns:xlink="http://www.w3.org/1999/xlink" width="50" height="50"><defs><style type="text/css"></style></defs><path d="M512 512m-447.5 0a447.5 447.5 0 1 0 895 0 447.5 447.5 0 1 0-895 0Z" fill="#FE163E" p-id="2501"></path><path d="M512 262c-137.75 0-250 112.24-250 250v12.76c1.28 29.33 23 52.29 49.74 58.67 66.33 11.48 117.35 62.5 128.83 127.55a65.43 65.43 0 0 0 61.23 51H512c137.76 0 250-112.25 250-250S649.76 262 512 262z m96.94 278.06c-30.61 31.89-70.15 56.12-114.8 66.33a41.81 41.81 0 0 1-49.74-29.34c-5.1-21.68-8.93-43.37-8.93-66.33s2.55-45.91 8.93-66.32a42.12 42.12 0 0 1 49.74-28.06c44.65 11.48 84.19 34.43 114.8 66.32 15.31 15.34 15.31 42.1 0 57.4z" fill="#FFFFFF" p-id="2502"></path></svg>