<?xml version="1.0" standalone="no"?><!DOCTYPE svg PUBLIC "-//W3C//DTD SVG 1.1//EN" "http://www.w3.org/Graphics/SVG/1.1/DTD/svg11.dtd"><svg t="1635666592367" class="icon" viewBox="0 0 1024 1024" version="1.1" xmlns="http://www.w3.org/2000/svg" p-id="2352" xmlns:xlink="http://www.w3.org/1999/xlink" width="50" height="50"><defs><style type="text/css"></style></defs><path d="M128.3072 533.76V510.464c0-210.432 171.52-381.952 381.952-381.952 210.432 0 381.9008 171.52 381.9008 381.952 0 210.432-171.4688 381.952-381.9008 381.952h-15.616a99.9424 99.9424 0 0 1-93.5424-77.9776A240.2304 240.2304 0 0 0 204.3392 619.52c-40.96-9.7792-74.0352-44.8512-76.032-89.7024v-5.7856" fill="#FE163E" p-id="2353"></path><path d="M482.9696 654.6432c68.1984-15.616 128.6144-52.6848 175.4112-101.376 23.3472-23.3472 23.3472-64.256 0-87.6544a370.0224 370.0224 0 0 0-175.4112-101.376 64.3584 64.3584 0 0 0-75.9808 42.9056c-9.728 31.232-13.6704 66.2528-13.6704 101.376 0 35.0208 5.8368 68.1472 13.6704 101.3248a63.8976 63.8976 0 0 0 75.9808 44.8z" fill="#FFFFFF" p-id="2354"></path></svg>