<?xml version="1.0" standalone="no"?><!DOCTYPE svg PUBLIC "-//W3C//DTD SVG 1.1//EN" "http://www.w3.org/Graphics/SVG/1.1/DTD/svg11.dtd"><svg t="1635667575975" class="icon" viewBox="0 0 1024 1024" version="1.1" xmlns="http://www.w3.org/2000/svg" p-id="17547" xmlns:xlink="http://www.w3.org/1999/xlink" width="50" height="50"><defs><style type="text/css"></style></defs><path d="M898.71 706.68c-31.08 0-56.5-25.43-56.5-56.5V401.21c0-31.08 25.43-56.5 56.5-56.5 31.08 0 56.5 25.43 56.5 56.5v248.97c0 31.08-25.42 56.5-56.5 56.5z" fill="#F7B52C" p-id="17548"></path><path d="M691.58 886.72H217.32c-82.84 0-150.63-67.78-150.63-150.63V301.24c0-82.84 67.78-150.63 150.63-150.63h474.27c82.84 0 150.63 67.78 150.63 150.63V736.1c-0.01 82.84-67.79 150.62-150.64 150.62z" fill="#F7B52C" p-id="17549"></path><path d="M430.71 664.86l128.62-128.62c13.93-13.93 13.93-36.52 0-50.45L430.71 357.17c-22.47-22.47-60.9-6.56-60.9 25.22v257.24c0 31.79 38.42 47.71 60.9 25.23z" fill="#FFFFFF" p-id="17550"></path></svg>