<?xml version="1.0" standalone="no"?><!DOCTYPE svg PUBLIC "-//W3C//DTD SVG 1.1//EN" "http://www.w3.org/Graphics/SVG/1.1/DTD/svg11.dtd"><svg t="1635666966047" class="icon" viewBox="0 0 1024 1024" version="1.1" xmlns="http://www.w3.org/2000/svg" p-id="12199" xmlns:xlink="http://www.w3.org/1999/xlink" width="50" height="50"><defs><style type="text/css"></style></defs><path d="M468.46623 224.91678l-6.186709 15.566557C383.947812 209.45001 344.233137 152.572208 344.233137 71.346716h16.963554c0 74.44007 35.423894 125.131164 107.269539 153.570064z" fill="#404A3B" p-id="12200"></path><path d="M297.218544 80.999428l99.999709-53.170789 23.610641 44.405157-99.999709 53.170789-23.610641-44.405157Z" fill="#C4D289" p-id="12201"></path><path d="M318.787804 85.316702a2.993569 2.993569 0 0 0-1.297213 4.091211l7.683493 14.468914a2.993569 2.993569 0 0 0 4.09121 1.197428l69.849932-37.220036a2.993569 2.993569 0 0 0 1.197427-4.09121l-7.483921-14.468914a3.093354 3.093354 0 0 0-4.09121-1.197428z m-6.58585-12.27363l69.849931-37.220036a16.863769 16.863769 0 0 1 22.950692 6.984994l7.683493 14.468914a16.963555 16.963555 0 0 1-6.885208 22.950692l-69.849932 37.220035a17.06334 17.06334 0 0 1-22.950691-6.984993l-7.683493-14.468915a16.963555 16.963555 0 0 1 6.885208-22.950691z" fill="#3C3E33" p-id="12202"></path><path d="M383.448884 174.824401q-16.963555-95.694407 52.287663-142.194504T633.711211 5.987137q-29.935685 126.029234-99.785617 172.629117t-150.47671-3.791853z" fill="#A0D289" p-id="12203"></path><path d="M526.341887 167.041123c-39.914247 26.842331-82.42292 26.842331-129.721302-0.798285-8.681349-55.480803 6.984993-95.39505 46.799455-122.137595S541.110159 8.082635 616.348514 17.662054c-19.757552 73.142857-49.892808 122.337166-90.006627 149.379069z m-142.893003 7.783278q81.624635 50.391737 150.676281 3.791853t99.785617-172.629117Q504.788194-14.069772 435.736547 32.629897t-52.287663 142.194504z" fill="#404A3B" p-id="12204"></path><path d="M313.598952 469.990255a320.212044 320.212044 0 0 0-122.736308 281.39544c15.466771 176.520756 168.438121 269.421165 345.757162 253.954395s311.830053-133.612941 296.363282-310.133697A320.511401 320.511401 0 0 0 652.071765 434.067433a180.811538 180.811538 0 0 0 1.895926-45.402455 177.019684 177.019684 0 1 0-340.368739 81.325277z m-29.1374-49.39388a193.883454 193.883454 0 1 1 386.070552 3.392711 337.375171 337.375171 0 0 1 179.61411 269.421165c15.666342 179.61411-117.2481 311.530696-311.830053 328.494251s-348.451374-89.807055-364.217501-269.421165a337.375171 337.375171 0 0 1 119.74274-287.981291 195.180667 195.180667 0 0 1-9.379848-43.506529z" fill="#33312B" p-id="12205"></path><path d="M313.598952 469.990255a176.919899 176.919899 0 1 1 340.368739-81.72442 180.811538 180.811538 0 0 1-1.895926 45.402456 320.511401 320.511401 0 0 1 180.911323 261.538102c15.466771 176.520756-119.044241 294.666927-296.363282 310.133697S206.229629 927.906451 190.862644 751.385695a320.212044 320.212044 0 0 1 122.736308-281.39544z" fill="#FFE692" p-id="12206"></path><path d="M360.198835 688.520756a62.964724 62.964724 0 1 1 62.864939-62.864938 62.864939 62.864939 0 0 1-62.864939 62.864938z m339.271098 0a62.964724 62.964724 0 1 1 62.864938-62.864938 62.864939 62.864939 0 0 1-62.465796 62.864938z" fill="#FFB381" p-id="12207"></path><path d="M460.583166 549.818749a12.373416 12.373416 0 0 1 12.373416 12.373416v12.373417a12.373416 12.373416 0 0 1-24.647047 0v-12.07406a12.373416 12.373416 0 0 1 12.273631-12.672773z m151.075424 0a12.373416 12.373416 0 0 1 12.373416 12.373416v12.373417a12.373416 12.373416 0 0 1-24.647047 0v-12.07406A12.373416 12.373416 0 0 1 611.65859 549.818749zM544.802226 638.228805a33.527967 33.527967 0 0 1-8.481777 22.351978 33.527967 33.527967 0 0 1-8.481777-22.351978h16.963554a16.664198 16.664198 0 0 0 33.328396 0h17.262912a33.627753 33.627753 0 0 1-58.773728 22.351978 33.627753 33.627753 0 0 1-58.773728-22.351978h16.963554a16.664198 16.664198 0 0 0 33.328396 0z" fill="#33312B" p-id="12208"></path><path d="M404.004721 172.130189a8.501735 8.501735 0 1 1-13.071916-10.876632c2.295069-2.694212 13.870201-17.961411 17.362698-22.252193a285.48665 285.48665 0 0 1 28.039758-30.634184 221.025141 221.025141 0 0 1 95.195478-53.085948 8.481777 8.481777 0 0 1 3.991425 16.364841 203.06373 203.06373 0 0 0-87.611771 49.094523 272.51452 272.51452 0 0 0-26.343403 28.838044c-3.292925 4.09121-15.067628 19.458195-17.562269 22.551549z" fill="#404A3B" p-id="12209"></path></svg>