<?xml version="1.0" standalone="no"?><!DOCTYPE svg PUBLIC "-//W3C//DTD SVG 1.1//EN" "http://www.w3.org/Graphics/SVG/1.1/DTD/svg11.dtd"><svg t="1635667630214" class="icon" viewBox="0 0 1024 1024" version="1.1" xmlns="http://www.w3.org/2000/svg" p-id="20834" xmlns:xlink="http://www.w3.org/1999/xlink" width="50" height="50"><defs><style type="text/css"></style></defs><path d="M64 512c0 160.055 85.388 307.952 224 387.98 138.612 80.027 309.388 80.027 448 0C874.612 819.951 960 672.054 960 512c0-247.424-200.576-448-448-448S64 264.576 64 512z" fill="#E78AF2" p-id="20835"></path><path d="M742.648 260H271.954c-16.94 0-30.62 13.775-30.62 30.69V637.37c0 13.263 10.675 23.962 23.908 23.962h477.47c16.941 0 30.621-13.775 30.621-30.69V290.69c0-16.978-13.744-30.689-30.685-30.689zM598.68 465.115L466.974 538.22c-8.946 5.005-20.307-1.14-20.307-10.959V384.726c0-9.692 11.035-15.837 20.046-11.086l131.706 69.43c9.076 4.751 9.272 17.04 0.261 22.045zM707.367 764H316.633c-0.38 0-0.633-0.254-0.633-0.635v-64.063c0-0.318 0.253-0.635 0.633-0.635h390.734c0.317 0 0.633 0.254 0.633 0.635v64.063c-0.063 0.381-0.316 0.635-0.633 0.635z" fill="#F9EFFF" p-id="20836"></path></svg>