<?xml version="1.0" encoding="utf-8"?>
<!-- Generator: Adobe Illustrator 25.3.1, SVG Export Plug-In . SVG Version: 6.00 Build 0)  -->
<svg version="1.1" id="图层_1" xmlns="http://www.w3.org/2000/svg" x="0px"
     y="0px"
     viewBox="0 0 64.1 64" style="enable-background:new 0 0 64.1 64;" xml:space="preserve">
<style type="text/css">
	.st0{fill:#7BCECC;}
	.st1{fill:#70ACB1;}
</style>
    <g>
	<path class="st0" d="M47.3,32.2c0-8.5-6.9-15.3-15.3-15.3s-15.4,6.8-15.4,15.3c0,3.6,1.2,6.9,3.3,9.5l2.2,2.3
		c2.7,2.3,6.1,3.6,9.8,3.6C40.4,47.5,47.3,40.7,47.3,32.2z M38.2,27.7c0.4-0.8,1.1-1.3,2-1.7c0.3-0.1,0.7-0.2,1-0.2
		c0.5,0,1,0.1,1.5,0.4c0.8,0.4,1.3,1.1,1.7,2s0.2,1.8-0.2,2.6c-0.4,0.8-1.1,1.3-2,1.7c-0.8,0.3-1.8,0.2-2.6-0.2
		c-0.8-0.4-1.3-1.1-1.7-2C37.8,29.3,37.9,28.5,38.2,27.7z M37.7,36.7c1,0,2.1,0.5,2.7,1.3c0.5,0.7,0.7,1.7,0.6,2.5
		c-0.1,0.9-0.6,1.7-1.3,2.2c-0.7,0.6-1.5,0.8-2.5,0.6c-0.9-0.1-1.7-0.6-2.2-1.3c-0.5-0.7-0.7-1.7-0.6-2.5c0.1-0.9,0.6-1.7,1.3-2.2
		C36.3,36.9,37,36.7,37.7,36.7z M31.9,19.1c1.9,0,3.3,1.5,3.3,3.3c0,1.9-1.5,3.3-3.3,3.3c-1.9,0-3.3-1.5-3.3-3.3
		C28.6,20.5,30,19.1,31.9,19.1z M19.7,30.6c-0.4-0.8-0.5-1.7-0.2-2.6c0.3-0.8,0.8-1.5,1.7-2c0.5-0.2,1-0.4,1.5-0.4
		c0.3,0,0.7,0,1,0.2c1.8,0.5,2.7,2.5,2.2,4.2c-0.5,1.8-2.5,2.7-4.2,2.2C20.8,32.1,20,31.5,19.7,30.6z M28.9,42
		c-1,1.4-3.2,1.9-4.6,0.7c-0.7-0.5-1.2-1.3-1.3-2.2c-0.1-0.9,0.1-1.8,0.6-2.5c0.5-0.7,1.3-1.2,2.2-1.3c0.2,0,0.3,0,0.5,0
		c0.7,0,1.3,0.2,2,0.6C29.6,38.5,29.9,40.6,28.9,42z M29.5,32.2c0-1.3,1-2.4,2.4-2.4s2.4,1,2.4,2.4c0,1.3-1,2.4-2.4,2.4
		C30.6,34.6,29.5,33.5,29.5,32.2z"/>
        <path class="st1" d="M20,45.9c-0.8-0.7-1.5-1.4-2.2-2.3l0,0l0,0c-2.5-3.1-4-7.1-4-11.4c0-5.4,2.4-10.1,6-13.5l0,0L34.1,4.8
		c-10.6,0-21.7,0-21.7,0c-4.4,0-8,3.6-8,8v38.8c0,4.4,3.6,8,8,8h20.8L20,45.9z"/>
        <path class="st0" d="M51.3,4.8c0,0-7.2,0-13,0l-9.9,9.6c1.1-0.2,2.4-0.3,3.6-0.3c10,0,18.3,8.1,18.3,18.3c0,10-8.1,18.3-18.3,18.3
		c-1.3,0-2.7-0.2-4-0.4l9.4,9.7h13.9c4.4,0,8-3.6,8-8v-39C59.3,8.4,55.7,4.8,51.3,4.8z"/>
</g>
</svg>
