<?xml version="1.0" standalone="no"?><!DOCTYPE svg PUBLIC "-//W3C//DTD SVG 1.1//EN" "http://www.w3.org/Graphics/SVG/1.1/DTD/svg11.dtd"><svg t="1635667633868" class="icon" viewBox="0 0 1024 1024" version="1.1" xmlns="http://www.w3.org/2000/svg" p-id="20986" xmlns:xlink="http://www.w3.org/1999/xlink" width="50" height="50"><defs><style type="text/css"></style></defs><path d="M758.3744 950.3232H272.128c-107.264 0-194.2016-86.9376-194.2016-194.2016V269.824c0-107.264 86.9376-194.2016 194.2016-194.2016h486.2464c107.264 0 194.2016 86.9376 194.2016 194.2016v486.2464c0 107.264-86.9376 194.2528-194.2016 194.2528z" fill="#F6CC4F" p-id="20987"></path><path d="M520.3456 856.2176c-188.9792 0-342.6816-153.7536-342.6816-342.6816s153.7536-342.6816 342.6816-342.6816 342.6816 153.7536 342.6816 342.6816c0 50.4832-10.7008 99.072-31.8464 144.4864-5.9904 12.8-21.1968 18.3808-33.9968 12.3904s-18.3808-21.1968-12.3904-33.9968c17.9712-38.6048 27.0848-79.9232 27.0848-122.88 0-160.7168-130.7648-291.4816-291.4816-291.4816S228.864 352.768 228.864 513.536s130.7648 291.4816 291.4816 291.4816c61.8496 0 120.8832-19.0976 170.8032-55.2448a25.5744 25.5744 0 0 1 35.7376 5.7344 25.56928 25.56928 0 0 1-5.7344 35.7376c-58.6752 42.496-128.1024 64.9728-200.8064 64.9728z" fill="#F7F8F8" p-id="20988"></path><path d="M480.1024 644.0448c-11.6736 0-23.3984-3.072-34.048-9.216-21.2992-12.288-34.048-34.3552-34.048-58.9312V448.8192c0-24.6272 12.7488-46.6432 34.048-58.9312 21.2992-12.288 46.7456-12.288 68.0448 0l110.0288 63.5392c21.2992 12.288 34.048 34.3552 34.048 58.9312 0 24.6272-12.7488 46.6432-34.048 58.9312l-110.0288 63.5392a67.7376 67.7376 0 0 1-33.9968 9.216z m0.1024-212.1728c-3.8912 0-6.9632 1.4336-8.4992 2.304-2.56 1.4848-8.448 5.8368-8.448 14.592v127.0784c0 8.8064 5.888 13.1584 8.448 14.592 2.56 1.4848 9.2672 4.4032 16.8448 0l110.0288-63.5392c7.6288-4.4032 8.448-11.6736 8.448-14.592 0-2.9184-0.8192-10.1888-8.448-14.592l-110.0288-63.488c-3.0208-1.7408-5.8368-2.3552-8.3456-2.3552z" fill="#F7F8F8" p-id="20989"></path></svg>