<?xml version="1.0" standalone="no"?><!DOCTYPE svg PUBLIC "-//W3C//DTD SVG 1.1//EN" "http://www.w3.org/Graphics/SVG/1.1/DTD/svg11.dtd"><svg t="1635667670424" class="icon" viewBox="0 0 1024 1024" version="1.1" xmlns="http://www.w3.org/2000/svg" p-id="23821" xmlns:xlink="http://www.w3.org/1999/xlink" width="50" height="50"><defs><style type="text/css"></style></defs><path d="M820.792042 355.192401l-0.660432 513.566025-540.50365 145.325086 0.660432-513.556018 540.50365-145.335093z" fill="#0062D7" p-id="23822"></path><path d="M279.62796 1014.083512l-32.491259-9.396148 0.660432-513.556018L280.288392 500.527494l-0.660432 513.556018z" fill="#0053B7" p-id="23823"></path><path d="M280.288392 500.527494l-32.491259-9.396148 540.493643-145.335093 32.501266 9.396148L280.288392 500.527494z" fill="#0059C5" p-id="23824"></path><path d="M742.69094 24.966335l24.105773 119.758358-475.921394 292.601448-24.105773-119.758357L742.69094 24.966335z" fill="#EFA1BF" p-id="23825"></path><path d="M290.875319 437.326141l-32.491259-9.396148-24.105772-119.758357 32.491258 9.396148 24.105773 119.758357z" fill="#C6859E" p-id="23826"></path><path d="M266.769546 317.567784l-32.491258-9.396148L710.199681 15.570188l32.491259 9.396147-475.921394 292.601449z" fill="#E096B2" p-id="23827"></path><path d="M514.921912 815.62366L482.420646 806.227512l128.844303-153.490428 32.501265 9.396148-128.844302 153.490428z" fill="#E0E0E0" p-id="23828"></path><path d="M511.979987 824.369382l-32.501266-9.396148-0.170111-0.060039 32.501266 9.396148 0.170111 0.060039" fill="#C4C4C4" p-id="23829"></path><path d="M511.809876 824.309343l-32.501266-9.396148a2.161414 2.161414 0 0 1-1.120733-2.001309l32.501265 9.396148a2.161414 2.161414 0 0 0 1.120734 2.001309" fill="#C4C4C4" p-id="23830"></path><path d="M510.689142 822.278014l-32.501265-9.396148v-0.130085l32.501265 9.396148v0.130085" fill="#C7C7C7" p-id="23831"></path><path d="M643.766214 662.133232l-32.501265-9.396148-128.313956-84.62537 32.501266 9.396148 128.313955 84.62537z" fill="#C2C2C2" p-id="23832"></path><path d="M514.921912 815.62366L482.420646 806.227512l0.530347-238.115798 32.501266 9.396148-0.530347 238.115798z" fill="#CCCCCC" p-id="23833"></path><path d="M515.452259 577.507862l128.313955 84.62537-128.844302 153.490428 0.530347-238.115798z" fill="#EFEFEF" p-id="23834"></path><path d="M512.380249 570.463252l-32.501266-9.396148a3.001964 3.001964 0 0 1 0.370243-0.280183l32.501265 9.396148a3.001964 3.001964 0 0 0-0.370242 0.280183" fill="#DADADA" p-id="23835"></path><path d="M512.750491 570.183069l-32.501265-9.396148a2.221453 2.221453 0 0 1 0.55036-0.270177l32.501265 9.396148a2.221453 2.221453 0 0 0-0.55036 0.270177" fill="#D8D8D8" p-id="23836"></path><path d="M513.300851 569.922899l-32.501265-9.396148h0.320209l32.501266 9.396148h-0.32021" fill="#D5D5D5" p-id="23837"></path><path d="M513.611054 569.852853l-32.501265-9.396148h0.250163l32.501266 9.396148h-0.250164" fill="#D3D3D3" p-id="23838"></path><path d="M513.861218 569.842846l-32.501266-9.396147h0.220144l32.501266 9.396147h-0.220144" fill="#D0D0D0" p-id="23839"></path><path d="M514.091368 569.872866l-32.501265-9.396148h0.080052l32.501266 9.396148h-0.080053" fill="#CECECE" p-id="23840"></path><path d="M510.689142 822.147929l-32.501265-9.396148 0.560366-248.852824 32.491259 9.396148-0.55036 248.852824z" fill="#CCCCCC" p-id="23841"></path><path d="M511.239502 573.295105l-32.501265-9.396148v-0.280183l32.501265 9.396148v0.280183" fill="#C7C7C7" p-id="23842"></path><path d="M511.249509 573.004915l-32.501266-9.396148v-0.350229l32.501266 9.396148v0.350229" fill="#C9C9C9" p-id="23843"></path><path d="M511.299542 572.654686l-32.501266-9.396148q0-0.160105 0.070046-0.320209l32.491259 9.436174q0 0.160105-0.070046 0.320209" fill="#CCCCCC" p-id="23844"></path><path d="M511.359581 572.374503l-32.501266-9.396148q0-0.160105 0.090059-0.310203l32.491259 9.346115q-0.050033 0.160105-0.090059 0.310203" fill="#CECECE" p-id="23845"></path><path d="M511.439633 572.014267l-32.501265-9.396148q0.050033-0.160105 0.120078-0.320209l32.501266 9.396148q-0.070046 0.160105-0.120079 0.320209" fill="#D0D0D0" p-id="23846"></path><path d="M511.569718 571.704064l-32.501265-9.396148q0.070046-0.170111 0.160105-0.330216l32.501265 9.396148q-0.090059 0.160105-0.160105 0.330216" fill="#D3D3D3" p-id="23847"></path><path d="M511.729823 571.373848l-32.501265-9.396148a4.062658 4.062658 0 0 1 0.220144-0.380249l32.501265 9.396148a4.062658 4.062658 0 0 0-0.220144 0.380249" fill="#D5D5D5" p-id="23848"></path><path d="M511.959974 570.993599L479.418682 561.597451a3.562331 3.562331 0 0 1 0.420275-0.52034l32.501266 9.396148a3.562331 3.562331 0 0 0-0.420275 0.52034" fill="#D8D8D8" p-id="23849"></path><path d="M648.629396 658.510862a2.431591 2.431591 0 0 1 0.900589 2.081361 4.002619 4.002619 0 0 1-0.910595 2.511644L514.001309 823.538839a2.52165 2.52165 0 0 1-1.200785 0.800524 1.480969 1.480969 0 0 1-1.000655-0.06004 2.221453 2.221453 0 0 1-1.120733-2.17142l0.560366-248.852824a4.162724 4.162724 0 0 1 1.140747-2.821846 2.461611 2.461611 0 0 1 1.000655-0.570374 1.430936 1.430936 0 0 1 1.200785 0.180118z m-133.707484 157.102791L643.766214 662.133232 515.442252 577.507862l-0.530347 238.155824" fill="#EFEFEF" p-id="23850"></path></svg>