<?xml version="1.0" standalone="no"?><!DOCTYPE svg PUBLIC "-//W3C//DTD SVG 1.1//EN" "http://www.w3.org/Graphics/SVG/1.1/DTD/svg11.dtd"><svg t="1631937263786" class="icon" viewBox="0 0 1024 1024" version="1.1" xmlns="http://www.w3.org/2000/svg" p-id="5154" xmlns:xlink="http://www.w3.org/1999/xlink" width="200" height="200"><defs><style type="text/css"></style></defs><path d="M508.032 511.936m-416 0a416 416 0 1 0 832 0 416 416 0 1 0-832 0Z" fill="#AEECFF" p-id="5155"></path><path d="M759.872 734.272c0 12.288-10.112 22.4-22.4 22.4h-467.2a22.464 22.464 0 0 1-22.4-22.4v-339.2c0-12.288 10.112-22.4 22.4-22.4h467.264c12.224 0 22.4 10.112 22.4 22.4v339.2z" fill="#59CAF6" p-id="5156"></path><path d="M247.872 333.312h512v95.296h-512z" fill="#555555" p-id="5157"></path><path d="M370.816 372.672h-41.984l-40-39.36h41.984zM457.856 372.672h-41.984l-40-39.36h41.984zM544.832 372.672h-41.984l-40-39.36h41.984zM631.808 372.672h-41.984l-40-39.36h41.984zM718.784 372.672h-41.984l-40-39.36h41.984z" fill="#FFFFFF" p-id="5158"></path><path d="M370.816 389.312h-41.984l-40 39.296h41.984zM457.856 389.312h-41.984l-40 39.296h41.984zM544.832 389.312h-41.984l-40 39.296h41.984zM631.808 389.312h-41.984l-40 39.296h41.984zM718.784 389.312h-41.984l-40 39.296h41.984z" fill="#FFFFFF" p-id="5159"></path><path d="M608 875.008h320v-256h-320v256z m302.976-28.608v20.992h-20.992v-20.992h20.992z m-37.952 0v20.992h-20.992v-20.992h20.992z m-38.016 0v20.992h-20.992v-20.992h20.992z m-38.016 0v20.992h-20.992v-20.992h20.992z m-38.016 0v20.992h-20.992v-20.992h20.992z m-37.952 0v20.992h-20.992v-20.992h20.992z m-38.016 0v20.992h-20.992v-20.992h20.992z m-38.016 0v20.992H624v-20.992h20.992z m265.984-220.416v20.992h-20.992v-20.992h20.992z m-37.952 0v20.992h-20.992v-20.992h20.992z m-38.016 0v20.992h-20.992v-20.992h20.992z m-38.016 0v20.992h-20.992v-20.992h20.992z m-38.016 0v20.992h-20.992v-20.992h20.992z m-37.952 0v20.992h-20.992v-20.992h20.992z m-38.016 0v20.992h-20.992v-20.992h20.992z m-38.016 0v20.992H624v-20.992h20.992z" fill="#555555" p-id="5160"></path><path d="M624 654.976h132.992v184H624z" fill="#717171" p-id="5161"></path><path d="M777.6 654.976h132.992v184H777.6z" fill="#616161" p-id="5162"></path></svg>