<?xml version="1.0" standalone="no"?><!DOCTYPE svg PUBLIC "-//W3C//DTD SVG 1.1//EN" "http://www.w3.org/Graphics/SVG/1.1/DTD/svg11.dtd"><svg t="1631936958932" class="icon" viewBox="0 0 1024 1024" version="1.1" xmlns="http://www.w3.org/2000/svg" p-id="1122" xmlns:xlink="http://www.w3.org/1999/xlink" width="200" height="200"><defs><style type="text/css"></style></defs><path d="M796.5 441.9c-12.8 114-109.6 202.7-227 202.7-126.2 0-228.5-102.3-228.5-228.5 0-99.9 64.1-184.9 153.5-215.9C344.6 209.7 226 334.3 226 486.6c0 158.5 128.5 287 287 287s287-128.5 287-287c0-15.2-1.2-30.1-3.5-44.7z" fill="#3296FA" p-id="1123"></path><path d="M659.9 567.2c-68.1 3.7-129.5-44.3-141-113.1-12.4-73.9 37.5-143.9 111.4-156.3 58.5-9.8 114.6 19.4 141.5 68.7-20.3-86.9-104.9-144.1-194.1-129.1-92.8 15.6-155.5 103.5-139.9 196.3s103.5 155.5 196.3 139.9c8.9-1.4 17.5-3.6 25.8-6.4z" fill="#3296FA" p-id="1124"></path></svg>