<?xml version="1.0" standalone="no"?><!DOCTYPE svg PUBLIC "-//W3C//DTD SVG 1.1//EN" "http://www.w3.org/Graphics/SVG/1.1/DTD/svg11.dtd"><svg t="1632398167046" class="icon" viewBox="0 0 1024 1024" version="1.1" xmlns="http://www.w3.org/2000/svg" p-id="47408" xmlns:xlink="http://www.w3.org/1999/xlink" width="200" height="200"><defs><style type="text/css"></style></defs><path d="M431.7184 331.4688c-16.2304 0-32.1536-7.68-42.1376-22.016l-112.64-162.5088c-16.128-23.2448-10.3424-55.1424 12.9024-71.2704 23.2448-16.128 55.1424-10.3424 71.2704 12.9024l112.64 162.5088c16.128 23.2448 10.3424 55.1424-12.9024 71.2704-8.9088 6.144-19.0976 9.1136-29.1328 9.1136zM594.7904 326.5536c-11.4688 0-22.9888-3.84-32.512-11.6736-21.8112-17.9712-24.9856-50.2272-7.0144-72.0896l125.6448-152.6784c17.9712-21.8112 50.2272-24.9856 72.0896-7.0144s24.9856 50.2272 7.0144 72.0896L634.368 307.9168a51.12832 51.12832 0 0 1-39.5776 18.6368z" fill="#F7BC00" p-id="47409"></path><path d="M431.6672 310.9888c-9.728 0-19.3024-4.608-25.2928-13.2096l-112.64-162.5088c-9.6768-13.9264-6.1952-33.0752 7.7312-42.752 13.9264-9.6768 33.0752-6.1952 42.752 7.7312l112.64 162.5088c9.6768 13.9264 6.1952 33.0752-7.7312 42.752a30.59712 30.59712 0 0 1-17.4592 5.4784zM594.7904 306.0736c-6.8608 0-13.7728-2.304-19.5072-7.0144a30.72 30.72 0 0 1-4.1984-43.264l125.6448-152.6784a30.72 30.72 0 0 1 43.264-4.1984 30.72 30.72 0 0 1 4.1984 43.264l-125.6448 152.6784a30.53568 30.53568 0 0 1-23.7568 11.2128z" fill="#FFD029" p-id="47410"></path><path d="M431.6672 295.6288c-4.864 0-9.6768-2.304-12.6464-6.6048l-112.64-162.5088c-4.8128-6.9632-3.1232-16.5376 3.8912-21.3504 6.9632-4.8128 16.5376-3.1232 21.3504 3.8912l112.64 162.5088c4.8128 6.9632 3.1232 16.5376-3.8912 21.3504-2.6112 1.8432-5.6832 2.7136-8.704 2.7136zM594.8416 290.7136c-3.4304 0-6.912-1.1264-9.728-3.4816a15.34976 15.34976 0 0 1-2.0992-21.6064l125.6448-152.6784a15.34976 15.34976 0 0 1 23.7056 19.5072L606.72 285.1328c-3.072 3.6864-7.4752 5.5808-11.8784 5.5808z" fill="#FFE576" p-id="47411"></path><path d="M825.8048 945.4592H206.848c-69.5808 0-126.0032-56.4224-126.0032-126.0032V345.2928c0-69.5808 56.4224-126.0032 126.0032-126.0032h618.9568c69.5808 0 126.0032 56.4224 126.0032 126.0032v474.2144c0 69.5296-56.4224 125.952-126.0032 125.952z" fill="#6D5CF4" p-id="47412"></path><path d="M780.4928 890.5728H252.2112c-69.5808 0-126.0032-56.4224-126.0032-126.0032V377.9584c0-69.5808 56.4224-126.0032 126.0032-126.0032h528.2816c69.5808 0 126.0032 56.4224 126.0032 126.0032v386.6112c0 69.5808-56.4224 126.0032-126.0032 126.0032z" fill="#756AF6" p-id="47413"></path><path d="M738.2528 841.3696H294.4512c-69.5808 0-126.0032-56.4224-126.0032-126.0032V412.6208c0-69.5808 56.4224-126.0032 126.0032-126.0032h443.8016c69.5808 0 126.0032 56.4224 126.0032 126.0032v302.7968c-0.0512 69.5808-56.4224 125.952-126.0032 125.952z" fill="#8D7AF9" p-id="47414"></path><path d="M707.8912 787.3024H324.8128c-67.84 0-122.7776-54.9888-122.7776-122.7776V446.6688c0-67.84 54.9888-122.7776 122.7776-122.7776h383.0784c67.84 0 122.7776 54.9888 122.7776 122.7776v217.8048c0 67.84-54.9888 122.8288-122.7776 122.8288z" fill="#8E88FC" p-id="47415"></path><path d="M662.6816 479.1296l-152.064-87.808c-39.6288-22.8864-86.8864-22.8864-126.5152 0-39.6288 22.8864-63.232 63.8464-63.232 109.568v175.5648c0 45.7216 23.6544 86.6816 63.232 109.568 19.4048 11.2128 41.2672 17.1008 63.2832 17.1008 22.016 0 43.8784-5.9392 63.232-17.1008l152.064-87.808c39.5776-22.8864 63.232-63.8464 63.232-109.568 0-45.6704-23.6544-86.6304-63.232-109.5168z m-147.1488 109.568l-26.2656 15.1552v-30.3104l26.2656 15.1552z" fill="#6D5CF4" p-id="47416"></path><path d="M451.7376 762.624c-15.616 0-31.2832-4.096-45.5168-12.3392-28.5184-16.4352-45.5168-45.9264-45.5168-78.848V505.9584c0-32.9216 16.9984-62.4128 45.5168-78.848 28.5184-16.4352 62.5664-16.4352 91.0336 0l143.2576 82.7392c28.5184 16.4352 45.5168 45.9264 45.5168 78.848s-16.9984 62.4128-45.5168 78.848l-143.2576 82.7392c-14.2336 8.192-29.8496 12.3392-45.5168 12.3392z m11.3664-237.0048v126.1568l109.2096-63.0784-109.2096-63.0784z m126.2592 72.9088z" fill="#F7BC00" p-id="47417"></path><path d="M451.7376 742.0928c-12.1344 0-24.2176-3.1744-35.2768-9.5744-22.1184-12.7488-35.2768-35.584-35.2768-61.1328V505.9584c0-25.4976 13.2096-48.384 35.2768-61.1328 22.1184-12.7488 48.4864-12.7488 70.5536 0l143.2576 82.7392c22.1184 12.7488 35.2768 35.584 35.2768 61.1328 0 25.4976-13.2096 48.3328-35.2768 61.1328l-143.2576 82.7392a70.48704 70.48704 0 0 1-35.2768 9.5232z m0.0512-245.2992c-1.9456 0-3.584 0.7168-4.608 1.28-1.6896 0.9728-4.5568 3.328-4.5568 7.8848v165.4272c0 4.608 2.8672 6.912 4.5568 7.8848 1.6896 0.9728 5.1712 2.304 9.1136 0l143.2576-82.7392c3.9936-2.304 4.5568-5.9392 4.5568-7.8848 0-1.9456-0.6144-5.632-4.5568-7.8848L456.2944 498.0736c-1.5872-0.9728-3.1232-1.28-4.5056-1.28z" fill="#FFD029" p-id="47418"></path><path d="M451.7376 726.7328c-9.472 0-18.944-2.5088-27.5968-7.4752-17.3056-9.984-27.5968-27.8528-27.5968-47.8208V505.9584c0-19.968 10.3424-37.8368 27.5968-47.8208s37.9392-9.984 55.1936 0l143.2576 82.7392c17.3056 9.984 27.5968 27.8528 27.5968 47.8208 0 19.968-10.3424 37.8368-27.5968 47.8208l-143.2576 82.7392c-8.6016 4.9664-18.1248 7.4752-27.5968 7.4752z m0-245.2992a24.576 24.576 0 0 0-12.2368 3.328 24.2176 24.2176 0 0 0-12.2368 21.1968v165.4272c0 8.8576 4.5568 16.7936 12.2368 21.1968 7.68 4.4032 16.8448 4.4032 24.4736 0l143.2576-82.7392a24.2176 24.2176 0 0 0 12.2368-21.1968c0-8.8576-4.5568-16.7936-12.2368-21.1968L463.9744 484.7616c-3.7888-2.2016-8.0384-3.328-12.2368-3.328z" fill="#FFE576" p-id="47419"></path></svg>