<?xml version="1.0" standalone="no"?><!DOCTYPE svg PUBLIC "-//W3C//DTD SVG 1.1//EN" "http://www.w3.org/Graphics/SVG/1.1/DTD/svg11.dtd"><svg t="1632582562272" class="icon" viewBox="0 0 1535 1024" version="1.1" xmlns="http://www.w3.org/2000/svg" p-id="202869" xmlns:xlink="http://www.w3.org/1999/xlink" width="449.70703125" height="300"><defs><style type="text/css"></style></defs><path d="M25.416512 7.067693C2.310592 18.348819 0 40.775153 0 225.486594 0 427.867268 1.766923 437.245553 39.551898 448.526679c14.814972 4.077515 66.735333 5.844439 149.508893 4.757101 151.139899-2.310592 152.906822-2.990178 152.906822-55.454207 0-42.542076-10.60154-49.609769-73.803026-49.609769-76.657287 0-72.579772 10.057871-74.890363-168.129547C191.235466-6.524024 196.536236 3.533847 101.53013 1.766923a244.650916 244.650916 0 0 0-76.113618 5.30077zM877.481285 11.824794A51.376692 51.376692 0 0 0 860.491638 40.775153c-1.766923 13.591718-4.213432 15.358641-36.697637 18.892487-24.193257 2.990178-37.784975 7.611362-43.085745 14.814972-8.290948 11.145208-10.60154 60.211309-2.990178 70.812849s30.037696 20.115742 56.677462 20.115742h27.183435v258.242633l15.358641 13.591717c14.814972 13.591718 16.581895 13.591718 133.334749 13.591718s117.976108 0 129.257234-13.591718a64.288824 64.288824 0 0 0 11.145209-39.551898c0-35.474383-14.814972-49.609769-50.697107-49.609769-49.609769 0-49.609769 0-49.609769-96.773029v-84.948234l36.018052-2.310592c43.629413-2.990178 58.444385-16.581895 58.444385-53.143616s-20.115742-51.920361-61.434563-51.920361c-30.717282 0-32.484205 0-36.018052-17.669233-7.067693-33.027874-27.183435-40.775153-94.462437-40.775152-51.784444-0.543669-62.385984 1.223255-75.434032 11.281125zM728.787895 342.239448c-47.16326 49.609769-171.79931 43.085745-224.26334-11.824794-21.882665-22.970003-17.669233-34.794797 17.669233-47.16326C754.204407 198.303159 761.136183 195.312981 761.136183 165.275285c0-19.436156-30.037696-65.512079-58.444386-88.482081a208.632864 208.632864 0 0 0-139.04327-51.376692 217.467481 217.467481 0 0 0-74.346695 6.388107C421.343244 57.900717 379.480754 95.142023 351.75365 153.450491c-16.581895 34.251128-18.348819 44.308999-18.348819 91.472259s2.310592 57.7648 16.581896 89.161667a252.398195 252.398195 0 0 0 113.354924 112.675339c31.26095 14.814972 41.86249 16.581895 94.462437 16.581895s62.521901-1.766923 91.472259-15.902309a224.671091 224.671091 0 0 0 93.782851-79.647465c28.814441-43.765331 19.436156-60.890895-14.271303-25.552429z m-259.601805-141.625697c-21.882665-18.348819 2.990178-66.735333 45.396336-87.938413 34.251128-16.581895 94.462437-17.125564 121.509955 0 36.018051 22.426334 21.882665 35.474383-76.657287 67.958588-67.279002 23.241837-82.637643 26.503849-90.249004 19.979825zM1164.946111 66.735333c-4.077515 10.60154 78.560127 352.297319 89.705336 368.199629 8.290948 13.591718 12.368463 13.591718 81.550305 13.591717 60.754977 0 74.890364-1.766923 85.627821-10.60154 13.591718-11.281126 16.581895-17.125564 77.336872-214.749137 53.143616-172.342978 54.36687-164.052031-38.872312-164.052031a316.687019 316.687019 0 0 0-75.569949 6.524025c-17.669233 8.290948-25.416512 27.183435-50.697107 125.723387a640.033979 640.033979 0 0 1-20.65941 73.803026c-7.067693 6.524024-13.591718-11.824794-25.960181-70.812848-19.164322-91.064508-28.678524-124.771967-36.969472-130.072737-13.591718-8.290948-81.550305-6.524024-84.948234 2.310592z" fill="#D70C18" p-id="202870"></path><path d="M133.334749 645.742501c-15.358641 11.824794-15.358641 13.591718-15.358641 91.472259s0 80.327051 14.814972 93.782851 18.348819 14.814972 79.647465 14.814972h64.96841v176.692328h81.550305l1.766924-87.394744 1.766923-86.715158 73.803026-2.990178 74.210778-2.718343 1.766923-24.736926 1.766924-24.736926-75.56995-1.766923-75.569949-1.766924-1.766924-43.085744-1.766923-43.085745-39.551898 1.766924-39.551898 1.495088-1.766923 43.085745-1.766924 43.085745-36.56172-1.766924L203.875763 789.678789v-100.306875l155.217415-1.766923 154.673745-1.223255v-53.007698H331.094239c-175.333156 0-182.400849 0-197.75949 12.368463zM544.076453 658.110964l1.766924 25.416511h106.287231v-47.299177l-54.910539-1.766923-54.910539-1.766923 1.766923 25.416512zM897.053358 969.63313l-3.533846-19.436156a167.178126 167.178126 0 0 1-1.766924-42.542076l2.310592-24.193257 38.328644-2.990178 38.328643-2.990178 1.766923-94.462437c1.766923-106.287231-2.990178-133.334749-25.416511-143.39262s-256.067959-10.057871-260.281391 0c-1.223255 4.077515-1.766923 60.211309-1.223255 125.043801l1.902841 118.791612 37.241306 1.766923a111.18025 111.18025 0 0 1 36.56172 5.30077 353.384656 353.384656 0 0 1-43.085745 71.356517 54.36687 54.36687 0 0 1-21.882665 8.290948c-13.591718 1.766923-14.814972 4.757101-14.814972 25.416511V1019.378816H720.36103c45.396337 0 55.454208-6.524024 80.870719-51.376692 8.834616-15.358641 17.669233-28.270772 20.659411-28.270773s4.077515 11.824794 4.077515 25.960181a64.288824 64.288824 0 0 0 11.417043 40.095566c10.60154 13.591718 16.581895 13.591718 76.657287 15.90231l65.512079 2.310592v-54.36687zM872.180515 776.087072L869.869923 706.769312l-34.794797-1.766923c-24.193257-1.223255-36.56172 0-39.551898 5.844439a232.962039 232.962039 0 0 0-5.30077 62.5219c0 43.085745-2.310592 59.66764-11.824794 77.880542a94.32652 94.32652 0 0 1-14.814972 23.649589 729.467481 729.467481 0 0 1-2.446509-94.054686V686.381736h135.917175v79.647465c0 75.56995 0 79.647465-11.824794 79.647465s-11.824794-4.621184-13.048049-69.589594zM1387.442527 650.363685l-17.125564-17.125564H1187.372445c-116.209185 0-184.167773 2.310592-185.25511 5.844438s-1.223255 90.92859 0 194.769313l1.766923 188.788956h34.251128c24.736926 0 35.338466-2.310592 37.784975-8.290947s13.591718-9.378285 25.960181-10.60154a29.765861 29.765861 0 0 0 31.26095-19.436156c13.591718-25.416512 16.581895-25.960181 28.270772-2.990178 9.378285 19.436156 12.368463 20.659411 40.775153 22.426334l31.26095 1.766923 10.057871-23.649588c5.30077-13.591718 11.824794-24.193257 13.591718-24.193258a41.726573 41.726573 0 0 1 11.688877 20.931245c7.067693 21.882665 15.358641 27.183435 40.775153 27.183435a23.241837 23.241837 0 0 1 20.115742 8.834617c2.310592 6.524024 12.368463 8.834616 39.008229 8.834616h35.338466V667.489249zM1100.929121 903.577383c-8.834616 27.183435-18.892487 48.386514-21.882665 48.386514S1073.745686 909.557738 1073.745686 854.647199s2.310592-97.316698 5.30077-97.316697 13.591718 21.882665 21.882665 48.930183l15.90231 48.930183z m116.209185-18.348819a78.831962 78.831962 0 0 1-13.591717 31.26095c-2.990178 0-9.514202-13.591718-14.814972-31.26095-9.378285-30.037696-9.378285-33.571542 0-61.978232 5.30077-17.125564 11.824794-29.494027 14.814972-27.183435a115.393682 115.393682 0 0 1 13.591717 30.717281c9.786037 24.872843 9.786037 29.494027 0.271835 58.580303z m105.063977 63.745155a349.035307 349.035307 0 0 1-19.436156-50.153438l-14.814972-44.308999 13.591717-40.775152c18.348819-54.36687 18.892487-56.133793 22.426334-56.133794a793.348553 793.348553 0 0 1 3.805681 98.675869c0 55.590125-2.310592 95.142023-5.30077 92.695514z m-11.281126-244.650916a45.532254 45.532254 0 0 0-44.852667 32.484205c-5.30077 20.115742-11.824794 18.348819-20.659411-5.844438-5.844439-16.581895-11.145208-21.203079-27.183435-24.193258-32.484205-5.844439-49.609769 1.223255-59.66764 24.193258a55.590125 55.590125 0 0 1-11.824795 20.65941c-1.766923 0-5.844439-8.290948-9.378285-18.348818-6.524024-18.348819-24.193257-28.950358-49.609769-28.950359-8.834616 0-13.591718-3.533847-13.591717-8.834616 0-7.611362 18.348819-8.834616 126.946642-8.834617s126.810725 1.223255 126.810724 8.834617-5.980356 8.698699-16.581895 8.698699zM547.6103 707.720733a52.192195 52.192195 0 0 0-4.757101 27.183435v22.426334h29.494027c16.581895 0 29.494027 1.766923 29.494027 4.077515A584.443855 584.443855 0 0 1 570.852137 873.539687a25.824263 25.824263 0 0 1-17.669233 7.611362c-9.378285 0-11.145208 3.533847-9.378285 24.736926s4.077515 25.960181 15.358641 27.183435 13.591718 4.757101 13.591717 46.075922v44.308999l43.085745-1.766923 42.134324-2.310592 1.766924-64.96841c1.223255-49.609769 3.533847-66.055747 10.057871-69.589594s8.834616-19.436156 8.834616-77.336873c0-96.773029-2.310592-100.306875-74.890364-102.753384a201.021503 201.021503 0 0 0-56.133793 2.310592z" p-id="202871"></path><path d="M152.906822 914.858508c-8.834616 28.950358-18.348819 47.16326-25.96018 51.376692-17.125564 9.378285-18.348819 13.591718-15.90231 36.561721l2.310592 21.203079 37.784975-2.310592c25.416512-1.766923 40.775153-5.844439 49.609769-13.591718s47.16326-112.13167 47.16326-132.247411c0-4.077515-13.591718-6.524024-40.775153-6.524025h-40.775152zM391.849217 885.364481c2.310592 9.378285 11.145208 40.775153 20.115742 69.589594 18.892487 61.434563 27.183435 67.958588 79.647465 67.958588h33.571542v-26.096098c0-22.426334-1.766923-27.183435-13.591718-28.270773s-13.591718-4.077515-31.26095-65.512078L471.496682 869.869923h-83.181312l3.533847 15.90231z" p-id="202872"></path></svg>