<?xml version="1.0" encoding="utf-8"?>
<!-- Generator: Adobe Illustrator 25.2.3, SVG Export Plug-In . SVG Version: 6.00 Build 0)  -->
<svg version="1.1" id="图层_1" xmlns="http://www.w3.org/2000/svg" x="0px"
     y="0px"
     viewBox="0 0 64 64" style="enable-background:new 0 0 64 64;" xml:space="preserve">
<style type="text/css">
	.st0{fill:#F4F4F4;}
	.st1{fill:#018EFF;}
	.st2{fill:#FF396E;}
	.st3{fill:#00BEFF;}
</style>
    <path class="st0" d="M14.1,3.9h35.8c6.8,0,10.2,3.4,10.2,10.2v35.8c0,6.8-3.4,10.2-10.2,10.2H14.1c-6.8,0-10.2-3.4-10.2-10.2V14.1
	C3.9,7.3,7.3,3.9,14.1,3.9z"/>
    <path class="st1" d="M19.4,42.4c-4-2.2-5-7.7-2.1-11.1c1.3-1.4,10.3-6.8,11-6.6c0.8,0.3,0.4,0-5.4-3.4c-5.1-3-6.2-4-7-6.2
	c-1.7-5.1,2.8-10.5,8-9.7c1.2,0.2,4.9,2,8.4,4.2c0.7,0.4,3.4,2,6,3.5c5.7,3.3,7.4,4.7,8.6,7.1c1,2,1.2,4.8,0.5,7.3
	c-0.4,1.5-2,3.8-3.4,4.8L43.1,33l-1.6-0.9c-0.9-0.5-1.6-0.9-1.6-0.8c0,0.1,0.6,0.5,1.3,0.9c0.7,0.4,1.3,0.8,1.3,0.9
	c0,0.2-13.5,8.1-16,9.3C24,43.7,21.7,43.7,19.4,42.4z M39.6,31c0-0.1-0.4-0.4-1-0.7c-1.2-0.6-1.3-0.4-0.1,0.3
	C39.5,31.2,39.6,31.2,39.6,31z M37.1,29.6c-0.5-0.5-3.4-2.1-3.4-1.9c0,0.2,3.3,2.2,3.6,2.2C37.3,29.9,37.3,29.7,37.1,29.6z"/>
    <path class="st2" d="M20.1,58.2c-1.4-0.2-3.1-2-3.3-3.7c-0.3-2.1,0.1-3.2,1.3-4.4c1.9-1.9,5.1-1.5,6.5,0.9c0.8,1.3,0.7,4.1-0.1,5.4
	C23.7,57.6,21.9,58.4,20.1,58.2z M22,56.1c1-0.4,1.3-1.3,1.2-2.7c-0.1-1.5-0.3-2-1.2-2.4c-1.2-0.6-1.7-0.5-2.6,0.4
	c-1.1,1.1-1.1,3.2,0,4.3C20.3,56.5,20.8,56.6,22,56.1z M29.2,58c-1.3-0.3-2.7-1.7-2.9-3c-0.1-0.6-0.2-2.1-0.1-3.5
	c0.1-2.1,0.2-2.5,0.7-2.6c0.9-0.2,1.2,0.5,1.2,3.4c0,2.8,0.1,3.2,1.2,3.7c1,0.5,1.5,0.5,2.4-0.3c0.7-0.6,0.8-1,1-3.7
	c0.1-2.7,0.2-3.1,0.8-3.2c0.3-0.1,0.7,0.1,0.9,0.3c0.4,0.6,0.4,4.4,0,5.9C33.7,57.4,31.4,58.6,29.2,58z M11.2,57.9
	c-0.1-0.1-0.2-1.1-0.2-2.2c0-1.9,0-2-1.8-3.9c-1-1.1-1.8-2.1-1.7-2.3c0.3-0.9,1.4-0.6,2.9,0.9l1.5,1.5l1.7-1.4
	c3-2.6,3.9-1.5,1.1,1.3c-1.6,1.6-1.6,1.7-1.7,3.9c-0.1,2-0.2,2.3-0.8,2.4C11.8,58.1,11.4,58,11.2,57.9z M38.8,30.5
	c-2.2-1.3-4.9-2.9-6.1-3.5c-2.1-1.1-4.4-2.5-11.2-6.6c-3.6-2.1-4.8-3.3-5.5-5.3c-1.7-5.1,2.8-10.5,8-9.7c1.2,0.2,4.9,2,8.4,4.2
	c0.7,0.4,3.4,2,6,3.5c5.5,3.2,7.1,4.4,8.2,6.4c2.3,3.9,1.4,9.3-2,12.3c-0.7,0.6-1.3,1-1.6,1C42.9,32.8,40.9,31.8,38.8,30.5
	L38.8,30.5z"/>
    <path class="st3" d="M48.2,58.1c-1.3-0.4-2.7-1.8-2.9-3.1c-0.1-0.6-0.2-2.1-0.1-3.5c0.1-2.1,0.2-2.5,0.7-2.6
	c0.9-0.2,1.2,0.5,1.2,3.4c0,2.5,0.1,2.7,0.9,3.3c1.1,0.9,1.8,0.9,2.8,0.1c0.7-0.6,0.8-1,1-3.7c0.2-2.9,0.2-3.1,0.9-3.2
	c0.6-0.1,0.8,0.1,0.9,0.8c0.4,1.4,0,5.6-0.7,6.5C51.9,57.8,50,58.6,48.2,58.1z M36.1,57.7C36,57.4,36,55.4,36,53.2
	c0.1-3.7,0.2-4.1,0.7-4.2c0.3-0.1,0.7,0.1,0.9,0.3c0.3,0.5,0.4,7.5,0.1,8.3C37.5,58.2,36.3,58.3,36.1,57.7L36.1,57.7z M40.7,56.1
	c-1.1-1.1-2.1-2.3-2.1-2.6c0-0.8,4.1-4.7,4.8-4.5c1.1,0.2,0.9,0.9-0.9,2.7l-1.7,1.8l1.7,1.8c1.7,1.8,2,2.6,0.8,2.7
	C42.9,58.1,42,57.4,40.7,56.1z M19.4,42.4c-2.1-1.1-3.5-3.3-3.7-5.8c-0.3-3.7,1-5.5,6.3-8.6l3.6-2.1l8.2,3.5
	c4.5,1.9,8.3,3.4,8.5,3.4c0.2,0,0.3,0.1,0.3,0.3c0,0.3-13.1,7.9-16,9.3C24,43.7,21.7,43.7,19.4,42.4z"/>
</svg>
