<?xml version="1.0" encoding="utf-8"?>
<!-- Generator: Adobe Illustrator 25.2.3, SVG Export Plug-In . SVG Version: 6.00 Build 0)  -->
<svg version="1.1" id="图层_1" xmlns="http://www.w3.org/2000/svg" xmlns:xlink="http://www.w3.org/1999/xlink" x="0px" y="0px"
	 viewBox="0 0 64 64" style="enable-background:new 0 0 64 64;" xml:space="preserve">
<style type="text/css">
	.st0{fill:#42BD56;}
	.st1{fill:#FFFFFF;}
</style>
<path class="st0" d="M13.6,5.5h36.7c4.5,0,8.1,3.6,8.2,8.1v36.8c0,4.5-3.7,8.1-8.2,8.1H13.6c-4.5,0-8.1-3.6-8.2-8.1V13.6
	C5.5,9.1,9.2,5.5,13.6,5.5z"/>
<path class="st1" d="M32.6,50.8c-6.2,0.1-12.5-0.3-18.7-1.4c-3-0.6-4.8-2.6-4.7-5.4c0-0.8,0.3-1.2,1.1-1.2h1.9c0.8,0,1.3,0.2,1.6,1
	c0.3,1.1,1.2,1.7,2.4,1.8c2.8,0.4,5.7,0.8,8.5,1c4.5,0.3,9,0.3,13.6,0c3.3-0.2,6.5-0.5,9.8-1c0.9-0.1,1.6-0.5,1.7-1.4
	c0.3-1.3,1.1-1.4,2.3-1.4c2.9,0,3,0.1,2.2,2.9c-0.5,1.7-1.4,2.9-3.2,3.5c-2.8,0.8-5.7,1.1-8.6,1.4C39.2,50.8,35.9,50.9,32.6,50.8z
	 M32.6,13.3c5.2-0.3,10.8,0.3,16.4,1.2c3.3,0.5,4.9,1.4,5.6,5.3c0.2,1-0.2,1.5-1.2,1.4c-0.6,0-1.3-0.1-1.9-0.1
	c-0.7,0.1-1.4-0.4-1.6-1.1c-0.4-1-1.3-1.7-2.3-1.7c-6.7-0.9-13.4-1.4-20.1-1.1c-3.9,0.2-7.8,0.7-11.6,1.1c-0.9,0-1.7,0.6-2,1.5
	c-0.4,1.1-1.1,1.4-2.1,1.3c-0.5-0.1-0.9-0.1-1.4-0.1c-0.9,0-1.2-0.4-1.2-1.3c-0.1-2.4,1.5-4.4,3.9-5C19.3,13.5,25.7,13.1,32.6,13.3z
	 M27.5,32.1v5.5c0,0.6-0.1,1.3-0.3,1.9c-0.2,0.8-1.4,1.7,0.3,2.2c0.4,0.1,0.3,1,0.1,1.6c-0.2,0.5-0.6,0.7-1.1,0.6
	c-1.3-0.1-2.7,0.1-3.6-1.4c-0.2-0.4-0.6-0.5-1.1-0.5c-0.5,0-0.9,0-1.4-0.1c-4.3-0.6-4.8-1.2-4.8-5.5V25.8c0-1.9,0.7-2.9,2.6-3.4
	c2.2-0.7,4.6-0.7,6.8,0.1c1.6,0.5,2.2,1.5,2.3,3.4C27.6,27.9,27.5,30,27.5,32.1z M22.9,32.1v-6c0-0.8-0.1-1.5-1.2-1.5
	c-1,0-1.3,0.5-1.3,1.4v11.9c0,0.9,0.3,1.6,1.3,1.6s1.2-0.8,1.2-1.7C22.9,35.9,22.8,34,22.9,32.1z M42.2,28.7
	c0.6-1.9,1.1-3.3,1.5-4.7c0.3-1.1,0.9-1.6,2-1.6c3.6,0,3.1,0.2,2.1,2.9c-0.9,2.4-1.6,4.7-2.6,7c-1,2.3-0.7,4.7-0.8,7.1
	c0,0.8,0.3,1.8-0.7,2.2c-1,0.4-2.3,0.1-3.4-0.1c-0.3-0.1-0.4-0.4-0.4-0.7v-0.3c0.9-5.9-2.1-10.8-3.7-16.1c-0.6-1.7-0.5-1.9,1.3-1.9
	c0.4,0,0.8,0,1.2,0c1-0.1,1.5,0.3,1.8,1.3C41.1,25.3,41.6,26.8,42.2,28.7z M54.8,32.1V40c0,1.1-0.3,1.6-1.5,1.6c-3,0.1-3,0.1-3-3
	c0-4.8,0-9.7,0-14.6c0-1.3,0.5-1.8,1.8-1.7c2.7,0.1,2.7,0,2.7,2.7C54.8,25.1,54.8,32.1,54.8,32.1z M34.3,32.2c0,2.7,0,5.5,0,8.2
	c0,0.9-0.3,1.2-1.2,1.3c-3.4,0.2-3.4,0.3-3.4-3.1V24.4c0-1.9,0.1-2,1.9-2c0.3,0,0.6,0,0.8,0c1.3-0.1,1.8,0.4,1.8,1.7
	C34.2,26.8,34.3,29.5,34.3,32.2C34.3,32.1,34.3,32.2,34.3,32.2z M13.5,34.8v5.4c0,1-0.4,1.4-1.4,1.4c-2.9,0.1-2.9,0.1-2.9-2.8
	c0-3,0-6.1,0-9.1c0-1.1,0.4-1.6,1.5-1.6c3.3,0,2.8-0.2,2.8,2.7C13.5,30.8,13.5,34.8,13.5,34.8z M13.5,24.6c0,2.3,0,2.3-2,2.3
	c-2.3,0-2.3,0-2.2-2.3c0-2.2,0-2.2,2.2-2.2C13.5,22.4,13.5,22.4,13.5,24.6z"/>
</svg>
