<?xml version="1.0" encoding="utf-8"?>
<!-- Generator: Adobe Illustrator 25.2.3, SVG Export Plug-In . SVG Version: 6.00 Build 0)  -->
<svg version="1.1" id="图层_1" xmlns="http://www.w3.org/2000/svg" xmlns:xlink="http://www.w3.org/1999/xlink" x="0px" y="0px"
	 viewBox="0 0 64 64" style="enable-background:new 0 0 64 64;" xml:space="preserve">
<style type="text/css">
	.st0{fill:#10ABF2;}
	.st1{fill:#FF8F21;}
	.st2{fill:#7DE621;}
</style>
<g>
	<path class="st0" d="M19.4,7.3c1.8-0.3,3.5,0.1,5.1,0.6c3.6,1.2,7.1,2.7,10.6,4.4c5.8,2.9,11.3,6.3,16.6,10
		c2.3,1.6,4.5,3.3,6.4,5.5c1,1.2,2,2.8,1.8,4.5c-0.2,2.1-1.6,3.7-3,5c-5.8,5.5-12,10.5-18.8,14.5c-3.5,2.1-7.1,3.9-11.1,5.3
		c-2.5,0.8-5,1.6-7.7,1.3c-1.5-0.1-3.1-0.8-4.1-2c-0.9-1-1.4-2.4-1.8-3.7l0.1-0.1l3.4-0.9c4.8-1.2,9.6-3.1,14.1-5.4
		c4.7-2.4,9.5-5.1,13.8-8.3c1.4-1.1,3-2.2,3.7-3.8c0.6-1.2,0.4-2.7-0.2-3.8c-0.8-1.3-2-2.5-3.3-3.3c-1.4-1.1-3-2.1-4.6-3
		c-3.1-1.9-6.2-3.4-9.5-5c-3.8-1.8-7.5-3.4-11.4-4.6l-5.3-1.5c0.2-0.8,0.4-1.5,0.7-2.4C15.8,8.9,17.6,7.6,19.4,7.3z"/>
	<path class="st1" d="M8.9,13.2c1.6-0.8,3.6-0.6,5.4-0.3c-0.5,2.4-0.8,4.8-1.2,7.2c0,1-0.1,2.1-0.3,3.1c-0.2,1.2-0.1,2.6-0.3,3.9
		c0,1.4-0.1,3-0.2,4.5c-0.1,1.4-0.1,2.9-0.1,4.4c0,2.2,0,4.4,0.1,6.6c0.1,3.3,0.3,6.6,0.7,9.9v0.5c-1.6,0.2-3.6,0.4-5-0.6
		c-1.4-1-2-2.9-2.4-4.6c-0.7-5.6-1.1-11.1-1.1-16.5c0.1-2.8,0.3-5.8,0.7-8.5c0.3-2.3,0.7-4.6,1.5-6.9C7.1,14.8,7.8,13.7,8.9,13.2z"
		/>
	<path class="st2" d="M14,12.9h0.3c1.8,0.5,3.6,1,5.4,1.5c4,1.2,7.8,2.9,11.5,4.7c3.2,1.6,6.4,3.2,9.5,5.1c1.5,0.9,3.1,1.9,4.7,3
		c1.2,0.9,2.5,2,3.3,3.3c0.7,1.1,0.8,2.6,0.2,3.8c-0.8,1.6-2.4,2.7-3.8,3.8c-4.4,3.2-9,6-13.9,8.4c-4.5,2.3-9.3,4.1-14.2,5.5
		c-1.1,0.3-2.3,0.6-3.5,0.9c-0.2,0-0.4,0.1-0.6,0.1c0-0.3-0.1-0.5-0.1-0.8c-0.4-3.2-0.6-6.6-0.7-9.9c-0.1-2.2-0.1-4.4-0.1-6.6
		c0-1.4-0.1-2.9,0.1-4.4c0.1-1.4,0.1-3,0.2-4.5c0.2-1.2,0.2-2.6,0.3-3.8l0.3-3.1c0.2-2.3,0.5-4.7,1-7.1 M20.7,21.5
		c-0.6,0.1-0.9,0.8-0.9,1.4v19c0,0.6,0.1,1.3,0.7,1.5c0.6,0.2,1.2,0,1.9-0.4l13.6-9.3c0.5-0.4,1.1-1,1.1-1.8c0-0.7-0.6-1.2-1.2-1.6
		c-4.6-2.9-9.2-5.9-13.8-8.8C21.6,21.7,21.1,21.3,20.7,21.5z"/>
</g>
</svg>
