<?xml version="1.0" standalone="no"?><!DOCTYPE svg PUBLIC "-//W3C//DTD SVG 1.1//EN" "http://www.w3.org/Graphics/SVG/1.1/DTD/svg11.dtd"><svg t="1632578798418" class="icon" viewBox="0 0 1024 1024" version="1.1" xmlns="http://www.w3.org/2000/svg" p-id="151471" xmlns:xlink="http://www.w3.org/1999/xlink" width="170" height="170"><defs><style type="text/css"></style></defs><path d="M672.0512 657.9712m-217.6512 0a217.6512 217.6512 0 1 0 435.3024 0 217.6512 217.6512 0 1 0-435.3024 0Z" fill="#97E9FF" p-id="151472"></path><path d="M930.3808 940.544H512c-236.3136 0-428.544-192.256-428.544-428.544S275.6864 83.456 512 83.456 940.544 275.712 940.544 512c0 82.5088-23.5008 162.6112-67.968 231.68l-38.7328-24.9344c39.6544-61.6192 60.6208-133.0944 60.6208-206.7456 0-210.8928-171.5712-382.464-382.464-382.464S129.536 301.1072 129.536 512 301.1072 894.464 512 894.464h418.3808v46.08z" fill="#3F3F3F" p-id="151473"></path><path d="M512 424.576c-57.9584 0-105.1136-47.1552-105.1136-105.1136S454.0416 214.3232 512 214.3232s105.1136 47.1552 105.1136 105.1136-47.1552 105.1392-105.1136 105.1392z m0-164.1728c-32.5632 0-59.0336 26.496-59.0336 59.0336s26.496 59.0336 59.0336 59.0336c32.5632 0 59.0336-26.496 59.0336-59.0336s-26.4704-59.0336-59.0336-59.0336zM512 803.5072c-57.9584 0-105.1136-47.1552-105.1136-105.1136s47.1552-105.1136 105.1136-105.1136 105.1136 47.1552 105.1136 105.1136-47.1552 105.1136-105.1136 105.1136z m0-164.1728c-32.5632 0-59.0336 26.496-59.0336 59.0336s26.496 59.0336 59.0336 59.0336c32.5632 0 59.0336-26.496 59.0336-59.0336s-26.4704-59.0336-59.0336-59.0336zM325.8368 617.1136c-57.9584 0-105.1136-47.1552-105.1136-105.1136s47.1552-105.1136 105.1136-105.1136 105.1136 47.1552 105.1136 105.1136-47.1296 105.1136-105.1136 105.1136z m0-164.1472c-32.5632 0-59.0336 26.496-59.0336 59.0336s26.496 59.0336 59.0336 59.0336c32.5632 0 59.0336-26.496 59.0336-59.0336s-26.4704-59.0336-59.0336-59.0336zM700.7232 617.1136c-57.9584 0-105.1136-47.1552-105.1136-105.1136s47.1552-105.1136 105.1136-105.1136 105.1136 47.1552 105.1136 105.1136-47.1552 105.1136-105.1136 105.1136z m0-164.1472c-32.5632 0-59.0336 26.496-59.0336 59.0336s26.496 59.0336 59.0336 59.0336c32.5632 0 59.0336-26.496 59.0336-59.0336s-26.496-59.0336-59.0336-59.0336z" fill="#3F3F3F" p-id="151474"></path></svg>