<?xml version="1.0" standalone="no"?><!DOCTYPE svg PUBLIC "-//W3C//DTD SVG 1.1//EN" "http://www.w3.org/Graphics/SVG/1.1/DTD/svg11.dtd"><svg t="1632577619445" class="icon" viewBox="0 0 1024 1024" version="1.1" xmlns="http://www.w3.org/2000/svg" p-id="120892" xmlns:xlink="http://www.w3.org/1999/xlink" width="200" height="200"><defs><style type="text/css"></style></defs><path d="M389.842311 369.275391c0 0-54.207599-52.138474-127.760802-9.55461-65.813938 40.649815-54.193273 115.050316-54.193273 115.050316S61.690526 503.173984 61.690526 652.223648c3.281743 148.84091 158.777213 150.336984 158.777213 150.336984l309.799812-0.467651L386.531915 672.168909l79.646991 0.864694 0.013303-157.420309 102.108562-0.694825 0.732687 157.684322 77.813227 1.106194L530.266527 802.560632l262.197654 0c0 0 144.715963 0.148379 165.04087-141.442406 9.680477-154.855904-139.875724-185.378058-139.875724-185.378058s17.017582-229.233891-193.000666-255.367085C444.611705 201.987341 389.842311 369.275391 389.842311 369.275391z" fill="#6399fd" p-id="120893"></path></svg>