<?xml version="1.0" standalone="no"?><!DOCTYPE svg PUBLIC "-//W3C//DTD SVG 1.1//EN" "http://www.w3.org/Graphics/SVG/1.1/DTD/svg11.dtd"><svg t="1632575985212" class="icon" viewBox="0 0 1024 1024" version="1.1" xmlns="http://www.w3.org/2000/svg" p-id="30707" xmlns:xlink="http://www.w3.org/1999/xlink" width="200" height="200"><defs><style type="text/css"></style></defs><path d="M619.2128 725.504c0-180.3264-146.176-326.4512-326.4512-326.4512-45.7728 0-89.344 9.4208-128.8704 26.4192-84.8384 430.6432 412.9792 466.2272 429.1584 428.3904 16.8448-39.424 26.1632-82.7904 26.1632-128.3584z" fill="#ffe048" p-id="30708"></path><path d="M507.4432 895.3856c-210.8928 0-382.464-171.5712-382.464-382.464s171.5712-382.464 382.464-382.464 382.464 171.5712 382.464 382.464-171.5712 382.464-382.464 382.464z m0-713.728c-182.6816 0-331.264 148.6336-331.264 331.264s148.6336 331.264 331.264 331.264 331.264-148.6336 331.264-331.264-148.5824-331.264-331.264-331.264z" fill="#55524F" p-id="30709"></path><path d="M507.4432 442.5216c-49.1008 0-89.0368-39.936-89.0368-89.0368s39.936-89.0368 89.0368-89.0368 89.0368 39.936 89.0368 89.0368-39.936 89.0368-89.0368 89.0368z m0-126.8736c-20.8896 0-37.8368 16.9984-37.8368 37.8368 0 20.8896 16.9984 37.8368 37.8368 37.8368s37.8368-16.9984 37.8368-37.8368-16.9472-37.8368-37.8368-37.8368zM507.4432 757.0432c-49.1008 0-89.0368-39.936-89.0368-89.0368s39.936-89.0368 89.0368-89.0368 89.0368 39.936 89.0368 89.0368-39.936 89.0368-89.0368 89.0368z m0-126.8736c-20.8896 0-37.8368 16.9984-37.8368 37.8368 0 20.8896 16.9984 37.8368 37.8368 37.8368s37.8368-16.9984 37.8368-37.8368c0-20.8896-16.9472-37.8368-37.8368-37.8368zM664.7296 599.7568c-49.1008 0-89.0368-39.936-89.0368-89.0368s39.936-89.0368 89.0368-89.0368 89.0368 39.936 89.0368 89.0368-39.936 89.0368-89.0368 89.0368z m0-126.8736c-20.8384 0-37.8368 16.9984-37.8368 37.8368s16.9984 37.8368 37.8368 37.8368 37.8368-16.9984 37.8368-37.8368-16.9984-37.8368-37.8368-37.8368zM350.208 604.8768c-49.1008 0-89.0368-39.936-89.0368-89.0368s39.936-89.0368 89.0368-89.0368 89.0368 39.936 89.0368 89.0368-39.936 89.0368-89.0368 89.0368z m0-126.8736c-20.8384 0-37.8368 16.9984-37.8368 37.8368s16.9984 37.8368 37.8368 37.8368c20.8896 0 37.8368-16.9984 37.8368-37.8368s-16.9984-37.8368-37.8368-37.8368zM864.3584 895.3856h-348.8256c-14.1312 0-25.6-11.4688-25.6-25.6s11.4688-25.6 25.6-25.6h348.8256c14.1312 0 25.6 11.4688 25.6 25.6s-11.4688 25.6-25.6 25.6z" fill="#55524F" p-id="30710"></path></svg>