<?xml version="1.0" standalone="no"?><!DOCTYPE svg PUBLIC "-//W3C//DTD SVG 1.1//EN" "http://www.w3.org/Graphics/SVG/1.1/DTD/svg11.dtd"><svg t="1632579482233" class="icon" viewBox="0 0 1024 1024" version="1.1" xmlns="http://www.w3.org/2000/svg" p-id="166210" data-spm-anchor-id="a313x.7781069.0.i126" width="220" height="220" xmlns:xlink="http://www.w3.org/1999/xlink"><defs><style type="text/css"></style></defs><path d="M837.41 820.879c66.219-70.807 106.289-154.112 118.993-250.375 7.031-53.279 4.558-106.18-7.825-158.431-23.814-100.489-75.605-183.998-156.524-248.041C682.531 77.35 558.012 47.658 421.168 74.901 318.43 95.354 233.184 147.419 166.987 228.49 80.997 333.801 49.114 454.781 70.925 588.818c15.845 97.374 60.874 180.407 132.494 248.255 85.678 81.166 188.136 122.848 306.141 123.749 127.27 0.972 254.553 0.23 381.83 0.21 22.007-0.003 38.813-16.394 38.879-37.779 0.067-21.738-16.738-38.318-38.875-38.323-40.702-0.009-81.404-0.003-122.106-0.003h-5.452l-0.365-0.954c1.439-1.049 2.858-2.125 4.319-3.141 25.278-17.58 48.598-37.474 69.62-59.953z m-134.884 80.155c1.763 6.519 6.716 9.802 14.949 9.803 57.886 0.01 115.772-0.003 173.658 0.017 6.997 0.002 11.977 3.875 13.054 9.962 1.029 5.81-2.167 11.628-7.813 13.522-2.146 0.72-4.582 0.788-6.886 0.793-26.024 0.052-52.048 0.033-78.072 0.033H690.305c-57.386 0-114.773-0.255-172.158 0.066-67.671 0.378-132.118-13.472-192.642-43.776-81.947-41.031-144.509-102.257-187.419-183.313-24.92-47.074-40.382-97.226-45.485-150.197-11.207-116.342 19.27-220.823 93.192-311.476 65.974-80.907 151.071-131.525 254.095-148.785 128.851-21.587 244.618 10.079 344.874 93.956 73.098 61.156 119.815 139.343 139.888 232.582 20.057 93.163 9.759 183.41-31.272 269.554C853.547 777.4 792.2 840.952 710.92 885.304c-7.187 3.921-10.108 9.394-8.394 15.73z" p-id="166211" data-spm-anchor-id="a313x.7781069.0.i124" class="selected" fill="#1296db"></path><path d="M440.375 404.606c20.9 18.685 46.226 27.112 74.729 27.963 3.446-0.29 7.454-0.425 11.401-0.989 41.709-5.961 71.261-28.379 86.241-67.572 15.318-40.079 7.592-78.31-20.131-109.777-23.982-27.221-57.41-36.712-93.279-31.381-62.171 9.241-101.152 67.032-87.504 128.366 4.517 20.3 12.795 39.311 28.543 53.39z m71.829-157.117c21.775-0.838 41.722 6.274 58.09 20.523 12.538 10.915 18.393 26.354 21.807 42.434 10.471 49.321-27.418 96.006-83.564 96.003-14.426-0.236-32.712-6.618-48.405-19.03-12.488-9.877-18.43-24.358-22.37-39.327-13.218-50.221 22.434-98.6 74.442-100.603zM499.377 612.131c-62.115 9.391-101.269 67.128-87.51 128.44 4.966 22.13 14.13 42.713 32.605 57.049 20.286 15.742 43.711 23.779 72.139 24.274 3.265-0.325 9.133-0.501 14.843-1.54 56.824-10.344 93.92-59.757 87.459-116.964-6.647-58.859-60.718-100.152-119.536-91.259z m53.559 173.638c-12.012 6.729-24.934 10.101-40.871 10.126-18.04-0.313-36.268-6.754-51.99-19.098-11.954-9.386-17.638-23.212-21.781-37.406-15.062-51.599 23.759-103.369 76.807-102.67 36.35 0.478 67.446 24.859 76.391 59.893 8.88 34.779-6.954 71.45-38.556 89.155zM720.375 624.302c50.913-7.042 88.224-46.992 91.863-98.237 4.547-64.037-50.4-117.596-114.309-111.421-64.93 6.274-108.579 67.458-92.96 130.856 5.303 21.525 14.237 41.624 32.337 55.545 20.337 15.642 43.682 23.867 71.174 24.043 2.925-0.181 7.453-0.171 11.895-0.786z m-68.763-45.235c-12.331-10.078-18.144-25.022-21.642-40.294-10.862-47.421 19.707-91.27 68.027-98.077 3.123-0.44 6.314-0.395 8.398-0.514 43.984 0.455 77.364 32.383 80.212 75.704 2.6 39.554-27.585 76.542-67.823 82.444-25.127 3.685-47.845-3.467-67.172-19.263zM423.782 508.47c-5.599-60.475-63.845-104.094-123.501-92.486-58.541 11.391-95.738 65.725-84.583 124.31 4.154 21.814 12.675 42.178 29.519 57.209 20.753 18.52 45.91 27.025 73.903 27.686 4.495-0.3 9.194-0.289 13.792-0.968 57.472-8.496 96.224-57.913 90.87-115.751z m-57.804 74.982c-25.997 19.355-54.332 20.151-83.66 7.384-31.227-13.595-39.829-40.596-42.861-66.459-0.14-44.976 32.266-80.576 72.149-83.882 42.303-3.507 79.821 25.122 85.856 66.186 4.642 31.578-5.964 57.771-31.484 76.771z" p-id="166212"></path></svg>