<?xml version="1.0" standalone="no"?><!DOCTYPE svg PUBLIC "-//W3C//DTD SVG 1.1//EN" "http://www.w3.org/Graphics/SVG/1.1/DTD/svg11.dtd"><svg t="1632577133970" class="icon" viewBox="0 0 1024 1024" version="1.1" xmlns="http://www.w3.org/2000/svg" p-id="106500" xmlns:xlink="http://www.w3.org/1999/xlink" width="200" height="200"><defs><style type="text/css"></style></defs><path d="M435.245737 277.021879h220.023199c28.158874 0 56.275082 5.119795 81.831393 15.359386 12.799488 5.119795 23.039078 35.795901 5.119796 48.595389-25.598976 17.919283-51.155287 33.278669-74.194366 48.59539-35.795901 23.039078-71.591803 43.518259-107.430369 66.514673-63.954775 38.398464-127.90955 74.194366-189.304428 112.550164-58.877645 35.838566-115.110062 69.07457-176.50494 104.870472-38.398464 20.479181-76.754263 28.158874-117.66996 10.23959-35.838566-17.919283-58.877645-48.59539-61.437542-86.951188-2.559898-43.518259-5.119795-89.553751 0-133.029346 10.23959-74.237031 48.638054-135.589243 120.272522-168.867912 30.718771-12.799488 61.394878-17.919283 94.630881-17.919283 69.117235 2.559898 135.589243 0 204.663814 0z" fill="#FEC901" p-id="106501"></path><path d="M361.051371 975.361946c-33.278669 2.559898-69.07457-12.799488-104.870472-30.676107-23.039078-12.799488-46.078157-23.039078-66.514672-38.398464-30.718771-20.436516-43.518259-51.112622-46.078157-86.951188-5.119795-53.715185 28.158874-84.433956 66.557338-107.43037 43.475594-28.158874 86.951189-53.75785 133.029345-79.314161 48.59539-28.158874 97.190779-58.83498 145.786169-89.553751 46.078157-28.158874 94.673546-56.275082 140.709038-86.951188 28.158874-17.919283 56.317747-33.278669 84.433956-51.197953 12.799488-7.679693 25.598976-12.799488 38.398464-15.359385 25.556311-7.637028 43.475594 7.679693 45.992827 33.278669 0 28.158874-10.23959 51.197952-23.039079 74.23703l-84.391291 153.465862c-38.398464 69.07457-79.271496 140.709038-117.669959 209.783608-17.919283 30.676106-38.398464 58.83498-69.074571 79.271496-46.078157 25.598976-89.511086 35.838566-143.268936 35.838566z" fill="#43C700" p-id="106502"></path><path d="M916.207832 632.591656c-2.559898 61.437542-10.23959 107.430369-28.158874 153.508527-17.919283 40.958362-38.398464 79.271496-69.07457 112.550164-48.638054 53.75785-109.990267 94.630881-181.624735 109.990267-15.359386 2.559898-33.278669 2.559898-51.197952 2.559898-22.996413-2.559898-28.116209-25.598976-17.876619-48.59539 7.679693-17.919283 20.479181-35.838566 30.718772-56.317747 12.799488-22.996413 23.039078-48.552725 35.795901-71.591803 28.158874-53.75785 56.275082-107.430369 86.993854-161.145554 30.718771-56.317747 58.83498-110.032932 89.511086-166.308014 5.119795-10.23959 12.799488-20.479181 20.479181-30.718772 12.799488-15.359386 38.398464-12.799488 48.638054 2.559898 10.196925 20.479181 20.436516 43.518259 22.996414 63.99744 7.679693 33.236004 10.23959 66.514673 12.799488 89.511086z" fill="#00BFFF" p-id="106503"></path><path d="M422.446249 246.303108H189.666227c-15.359386 0-33.278669-5.119795-48.638055-10.239591-25.556311-10.23959-30.676106-43.518259-5.07713-63.954775 20.479181-20.479181 46.078157-35.838566 69.07457-51.155287 33.278669-20.479181 69.07457-38.398464 107.43037-51.197952 43.518259-12.756823 89.553751-15.316721 135.589243-12.756823 69.07457 2.559898 130.469448 23.039078 186.74453 61.394878 25.598976 15.359386 48.638054 30.718771 71.677133 48.638054 10.196925 7.679693 17.876618 20.436516 20.436516 35.795902 0 15.359386-5.119795 25.598976-20.479181 30.718771-17.919283 5.119795-35.838566 12.756823-51.197952 12.756823-79.271496 2.559898-156.025759 0-232.780022 0z" fill="#FF5000" p-id="106504"></path><path d="M888.048958 164.42905c0 35.838566-28.158874 56.317747-61.394877 43.518259-30.718771-12.799488-61.394878-30.718771-89.553752-51.197952-40.915697-28.158874-81.831393-58.83498-122.789755-86.951189-12.799488-7.679693-23.039078-20.479181-30.718771-30.718771-7.679693-10.23959-10.196925-23.039078-2.559898-30.718771 5.119795-5.119795 17.919283-10.196925 25.598976-7.679693 25.598976 5.119795 53.75785 7.679693 79.356826 17.919283 56.232417 17.919283 109.990267 38.398464 158.585657 71.677133 17.919283 15.359386 46.035492 38.355799 43.518259 74.151701z m122.789755 166.308014c-2.559898 7.679693-5.119795 17.919283-10.23959 25.598976-7.679693 10.23959-23.039078 15.359386-33.278669 10.23959-12.756823-7.679693-25.556311-15.359386-35.795902-25.598976-23.039078-25.598976-35.795901-53.75785-35.795901-89.553751 0-25.598976 20.479181-43.518259 40.958362-40.958362 7.679693 2.559898 17.876618 7.679693 22.996413 12.799488 30.718771 30.718771 46.078157 66.557338 51.197952 107.473035z" fill="#F847FF" p-id="106505"></path></svg>