<?xml version="1.0" standalone="no"?><!DOCTYPE svg PUBLIC "-//W3C//DTD SVG 1.1//EN" "http://www.w3.org/Graphics/SVG/1.1/DTD/svg11.dtd"><svg t="1632581932146" class="icon" viewBox="0 0 1077 1024" version="1.1" xmlns="http://www.w3.org/2000/svg" p-id="197286" data-spm-anchor-id="a313x.7781069.0.i186" width="315.52734375" height="300" xmlns:xlink="http://www.w3.org/1999/xlink"><defs><style type="text/css"></style></defs><path d="M559.104 432.64c-229.376 0-415.232-69.632-415.232-155.648 0-53.76 72.192-100.864 181.76-128.512v49.152c-79.36 18.944-129.536 47.616-129.536 79.36 0 57.344 162.816 103.936 363.52 103.936s363.52-46.592 363.52-103.936c0-31.744-50.688-60.416-129.536-79.36V148.48c109.568 28.16 181.76 75.264 181.76 128.512-1.024 86.016-186.88 155.648-416.256 155.648zM559.104 822.272c200.704 0 363.52-52.224 363.52-116.736h51.712c0 93.184-185.856 168.448-415.232 168.448s-414.72-75.264-414.72-168.448h51.712c0 64.512 162.816 116.736 363.008 116.736z" fill="#d4237a" p-id="197287" data-spm-anchor-id="a313x.7781069.0.i190" class="selected"></path><path d="M793.088 796.16v-103.936H844.8v103.936h-51.712z m0-259.584H844.8v103.936h-51.712v-103.936z m0-363.008H844.8v311.296h-51.712V173.568zM273.92 692.224h51.712v103.936H273.92v-103.936z m0-155.648h51.712v103.936H273.92v-103.936z m0-363.008h51.712v311.296H273.92V173.568zM144.384 315.904h51.712v389.12H144.384v-389.12z m778.24 0h51.712v389.12h-51.712v-389.12z" fill="#d4237a" p-id="197288" data-spm-anchor-id="a313x.7781069.0.i187" class=""></path><path d="M481.28 510.976v207.36l181.76-103.936L481.28 510.976z" fill="#2394FB" p-id="197289"></path></svg>