<?xml version="1.0" standalone="no"?><!DOCTYPE svg PUBLIC "-//W3C//DTD SVG 1.1//EN" "http://www.w3.org/Graphics/SVG/1.1/DTD/svg11.dtd"><svg t="1631937201574" class="icon" viewBox="0 0 1024 1024" version="1.1" xmlns="http://www.w3.org/2000/svg" p-id="2387" xmlns:xlink="http://www.w3.org/1999/xlink" width="200" height="200"><defs><style type="text/css"></style></defs><path d="M520.037 960.005h319.975q31.997 0 31.997 31.997 0 31.998-31.997 31.998H520.037q-31.998 0-31.998-31.998 0-31.997 31.998-31.997z" fill="#B6ABFA" p-id="2388"></path><path d="M759.898 960.005s-119.59 63.835-241.47 63.835c-2.135 0-4.247 0.16-6.399 0.16a511.96 511.96 0 1 1 247.87-63.995z m-55.996-476.66L392.16 300.417c-0.544-0.32-1.128-0.488-1.688-0.8a31.582 31.582 0 0 0-3.112-1.424 31.102 31.102 0 0 0-3.152-0.976 29.278 29.278 0 0 0-2.784-0.64 30.726 30.726 0 0 0-3.6-0.36c-0.591-0.016-1.167-0.16-1.775-0.16-0.352 0-0.68 0.096-1.032 0.104-1.024 0-2.032 0.168-3.048 0.304a32.126 32.126 0 0 0-3.552 0.608c-0.552 0.136-1.08 0.336-1.6 0.504a31.71 31.71 0 0 0-4.56 1.728l-0.327 0.176a31.894 31.894 0 0 0-17.879 28.574v359.972a31.51 31.51 0 0 0 0.4 3.952 32.685 32.685 0 0 0 4 19.79 31.718 31.718 0 0 0 43.709 11.903L703.91 540.725a33.885 33.885 0 0 0 0-57.38z" fill="#325FD3" p-id="2389"></path></svg>