<?xml version="1.0" standalone="no"?><!DOCTYPE svg PUBLIC "-//W3C//DTD SVG 1.1//EN" "http://www.w3.org/Graphics/SVG/1.1/DTD/svg11.dtd"><svg t="1632576693675" class="icon" viewBox="0 0 1024 1024" version="1.1" xmlns="http://www.w3.org/2000/svg" p-id="70770" xmlns:xlink="http://www.w3.org/1999/xlink" width="200" height="200"><defs><style type="text/css"></style></defs><path d="M773.9392 301.8752m-200.0384 0a200.0384 200.0384 0 1 0 400.0768 0 200.0384 200.0384 0 1 0-400.0768 0Z" fill="#5CF4A1" p-id="70771"></path><path d="M924.4672 706.2528a24.32 24.32 0 0 1-24.2688 24.2688h-145.7664a24.3712 24.3712 0 0 0-24.2688 24.32 24.2688 24.2688 0 0 0 24.2688 24.2688h48.5888a24.32 24.32 0 0 1 24.2688 24.32 24.32 24.32 0 0 1-24.2688 24.2688h-64.512A388.7616 388.7616 0 0 1 122.88 390.4512h-48.5888a24.32 24.32 0 0 1 0-48.5888h97.28a24.2688 24.2688 0 0 0 6.8096-47.5648l0.768-0.9728H122.88a24.32 24.32 0 1 1 0-48.5888h101.632a388.7616 388.7616 0 0 1 619.52 437.248h56.32a24.32 24.32 0 0 1 24.1152 24.2688z" fill="#58E000" p-id="70772"></path><path d="M351.7952 630.016a85.4528 85.4528 0 0 0 45.4144 7.4752c1.8944 0 3.4304-0.4608 3.9936 2.1504a17.152 17.152 0 0 0 14.7968 13.312 193.1264 193.1264 0 0 0 21.0944 0.4608 4.608 4.608 0 0 0 4.6592-4.4032v-10.24c0-4.2496-1.9456-5.12-7.4752-4.6592a53.5552 53.5552 0 0 1-9.0624 0c-1.5872 0-3.2768 0.3072-4.8128-0.9728 0.5632-1.024 1.536-1.0752 2.304-1.4336 14.1824-7.2192 21.8624-19.2512 8.4992-45.056a83.7632 83.7632 0 0 1 1.28-76.288c8.96-17.8176 6.912-30.3616-3.6864-38.656a40.96 40.96 0 0 0-15.36-6.8608 111.7184 111.7184 0 0 0-40.6016-1.8944 49.2544 49.2544 0 0 0-20.48 6.5024 25.1392 25.1392 0 0 0-12.6976 28.8768 246.8864 246.8864 0 0 1 0.5632 101.0176c-3.9424 15.0528 0.256 25.2928 11.5712 30.6688z m24.4224-136.2432a22.272 22.272 0 0 1 0-4.1472 7.2192 7.2192 0 0 1 5.12-5.7856 23.1424 23.1424 0 0 1 13.568 0 6.0416 6.0416 0 0 1 5.12 6.4512V607.0272a10.752 10.752 0 0 1-8.8064 10.24 17.0496 17.0496 0 0 1-11.1104-1.6384 7.8336 7.8336 0 0 1-3.7888-6.3488v-3.3792zM282.368 454.4512h25.6a10.8544 10.8544 0 0 0 10.24-7.936 22.0672 22.0672 0 0 1 14.5408-15.7184 54.4256 54.4256 0 0 1 9.3696-2.304 821.8112 821.8112 0 0 1 97.28-8.7552c9.0112-0.3072 18.0224 0 27.0336-0.3584s24.9856 0 34.4576 0l18.6368 0.4096c19.0976 0.6144 38.0928 1.9968 57.088 3.8912 11.3152 1.1776 22.6304 2.5088 33.8432 4.3008a36.6592 36.6592 0 0 1 27.6992 24.7296c0.512 1.28 1.4848 1.6384 3.1232 1.6384h31.744c2.5088 0 3.2256-0.9728 3.0208-3.2768a117.76 117.76 0 0 0-2.6624-17.4592 41.5232 41.5232 0 0 0-33.0752-33.1776A452.7104 452.7104 0 0 0 588.8 392.3968c-12.6464-1.3824-25.6-2.3552-38.0928-3.2768-14.9504-1.0752-29.952-1.8944-44.9536-2.3552-9.3184-0.3072-18.7392 0-28.1088 0-15.6672 0-31.3856 0-47.0528 0.9216-10.24 0.7168-20.48 1.024-30.72 1.7408-15.616 1.1776-31.2832 2.56-46.848 4.608a304.1792 304.1792 0 0 0-42.1888 7.7824 38.4 38.4 0 0 0-26.0608 23.5008 84.8384 84.8384 0 0 0-5.4784 26.6752c-0.0512 2.1504 1.28 2.4576 3.072 2.4576z" fill="#FFFFFF" p-id="70773"></path><path d="M673.3824 646.0928c-10.496 0-20.992 0.3584-31.488 0.3072-2.4576 0-3.1744 0.768-3.5328 3.1744a22.8864 22.8864 0 0 1-11.008 18.2272 37.7344 37.7344 0 0 1-12.544 4.1472c-24.1664 3.7888-48.4864 6.2976-72.9088 7.7824-13.312 0.8192-26.6752 1.3824-40.0384 1.536h-48.128c-21.3504-0.4096-42.6496-1.3824-63.8976-3.2768-16.2304-1.4848-32.4608-3.328-48.5376-5.9392a30.1568 30.1568 0 0 1-15.36-6.2464 25.6 25.6 0 0 1-8.1408-16.9472c-0.256-1.536-0.6656-2.3552-2.4064-2.2528-7.3728 0.3072-14.7456-0.6656-21.1968-0.3072H286.72a6.6048 6.6048 0 0 0-6.7072 7.424 77.312 77.312 0 0 0 4.5056 20.48 38.6048 38.6048 0 0 0 26.624 24.9856 276.1216 276.1216 0 0 0 37.0176 6.8096c24.576 3.3792 49.3056 5.12 74.0352 6.7584 17.4592 1.1264 34.8672 1.28 52.3264 1.4336 19.5584 0 39.1168-0.4608 58.6752-1.5872 8.2432-0.512 16.4864-0.8704 24.7296-1.4848 15.36-1.1264 30.4128-2.56 45.5168-4.5056a299.52 299.52 0 0 0 41.9328-7.8848 38.1952 38.1952 0 0 0 25.6-23.1424 82.5344 82.5344 0 0 0 5.5808-26.368c0.256-2.4576-0.7168-3.1232-3.1744-3.1232zM595.456 548.2496q13.824-37.7856 27.2384-75.6736a4.3008 4.3008 0 0 0-4.3008-6.144h-27.8016a5.7856 5.7856 0 0 0-5.4784 4.0448q-5.12 16.2304-10.24 32.512c-2.2528 7.4752-4.4544 14.9504-6.8608 22.9888-0.3584-1.3312-0.5632-1.9968-0.768-2.6624-5.12-17.7152-10.24-35.2256-16.0256-52.7872-1.0752-3.4304-1.9456-4.096-5.12-4.096h-28.416c-4.0448 0-5.4784 2.2016-4.096 5.9904 4.4032 12.1856 8.9088 24.4224 12.9024 36.864 4.864 15.36 10.7008 29.952 16.5888 44.7488a78.1824 78.1824 0 0 1 6.4 32.6656c-0.5632 13.6704 0 27.392 0 40.96 0 4.7104 1.1776 5.8368 5.7856 5.8368h26.368a5.4272 5.4272 0 0 0 5.4272-5.376v-39.8336a107.8272 107.8272 0 0 1 5.376-30.72c0.8192-3.072 1.9456-6.1952 3.0208-9.3184zM492.288 466.432h-25.6A6.2464 6.2464 0 0 0 460.8 472.6784v155.4432a5.5296 5.5296 0 0 0 5.12 5.5296h26.368a6.0416 6.0416 0 0 0 6.0416-6.0416v-48.6912-106.24a6.2464 6.2464 0 0 0-6.0416-6.2464zM671.5904 466.432h-13.1072a18.8416 18.8416 0 0 0-18.8416 18.8416v129.9968a18.432 18.432 0 0 0 18.3808 18.432h0.4096a18.7904 18.7904 0 0 0 18.7392-18.7904V471.9104c0-4.352-1.3312-5.4784-5.5808-5.4784zM287.1296 633.2416a61.7472 61.7472 0 0 1 23.552 0c3.7888 0.8704 5.7344-0.4608 6.0416-3.3792V522.24a5.12 5.12 0 0 0-5.12-5.12h-27.136c-4.5056 0-5.12 0.768-5.12 5.12v106.7008c-0.1024 4.5568 1.792 5.3248 7.7824 4.3008zM279.2448 500.1216a3.7888 3.7888 0 0 0 4.096 4.2496c9.216 0 18.432-0.9216 27.5968 0 5.5808 0.512 6.8096-2.1504 5.12-9.4208a43.9296 43.9296 0 0 1 0-19.1488c1.3824-6.5536 0.5632-9.2672-3.84-9.3184h-28.6208a4.4544 4.4544 0 0 0-4.4544 4.352v14.4384c0 4.8128 0.0512 9.8816 0.1024 14.848z" fill="#FFFFFF" p-id="70774"></path></svg>