<?xml version="1.0" standalone="no"?><!DOCTYPE svg PUBLIC "-//W3C//DTD SVG 1.1//EN" "http://www.w3.org/Graphics/SVG/1.1/DTD/svg11.dtd"><svg t="1632576906057" class="icon" viewBox="0 0 1024 1024" version="1.1" xmlns="http://www.w3.org/2000/svg" p-id="82368" xmlns:xlink="http://www.w3.org/1999/xlink" width="200" height="200"><defs><style type="text/css"></style></defs><path d="M512 113.777778c220.330667 0 398.222222 177.891556 398.222222 398.222222s-177.891556 398.222222-398.222222 398.222222S113.777778 732.330667 113.777778 512 291.669333 113.777778 512 113.777778z m0 67.640889A324.323556 324.323556 0 0 0 186.737778 506.709333v1.848889C187.221333 687.701333 332.885333 832.483556 512 832h1.877333c179.143111-0.512 323.953778-146.147556 323.413334-325.262222A324.323556 324.323556 0 0 0 512 181.418667z m-0.028444 49.237333c153.372444 0 279.096889 122.680889 276.024888 276.024889a274.830222 274.830222 0 0 1-268.117333 275.939555l-7.907555 0.113778c-151.836444 0.625778-275.427556-121.941333-276.053334-273.749333v-2.275556A274.887111 274.887111 0 0 1 512 230.656z m15.104 303.104h-33.678223v88.860444h33.678223v-88.860444z m143.985777-143.957333h-318.577777v232.647111l106.183111 0.170666v-125.44h106.154666v125.44H600.177778v-161.137777H600.177778v-0.113778h-176.810667v0.113778h-0.085333v125.155555h-35.413334v-161.052444h247.751112v196.721778h35.384888l0.056889-232.504889z" fill="#FC6C02" p-id="82369"></path></svg>