<?xml version="1.0" standalone="no"?><!DOCTYPE svg PUBLIC "-//W3C//DTD SVG 1.1//EN" "http://www.w3.org/Graphics/SVG/1.1/DTD/svg11.dtd"><svg t="1635173386245" class="icon" viewBox="0 0 1024 1024" version="1.1" xmlns="http://www.w3.org/2000/svg" p-id="22539" xmlns:xlink="http://www.w3.org/1999/xlink" width="300" height="300"><defs><style type="text/css"></style></defs><path d="M844.032 297.472h-323.1232l140.4928-140.288a25.6 25.6 0 1 0-36.1472-36.1984l-184.32 184.0128a25.6 25.6 0 0 0 18.0736 43.6736h385.024a16.128 16.128 0 0 1 16.128 16.128v457.9328a16.128 16.128 0 0 1-16.128 16.0768H179.968a16.128 16.128 0 0 1-16.128-16.0768V364.8a16.128 16.128 0 0 1 16.128-16.128h189.0304a25.6 25.6 0 0 0 18.176-43.6224L240.1792 157.0304a25.6 25.6 0 1 0-36.352 35.84L307.5072 297.472H179.968A67.4304 67.4304 0 0 0 112.64 364.8v457.9328a67.3792 67.3792 0 0 0 67.328 67.2768h664.064A67.3792 67.3792 0 0 0 911.36 822.7328V364.8a67.4304 67.4304 0 0 0-67.328-67.328z" fill="#E73E3C" p-id="22540"></path><path d="M426.5472 761.4976a42.3424 42.3424 0 0 0 44.1856-3.1744L651.3664 629.76a42.5472 42.5472 0 0 0 0-69.3248L470.7328 431.5648a42.5984 42.5984 0 0 0-67.2768 34.6624v257.4336a42.3936 42.3936 0 0 0 23.0912 37.8368z m28.1088-278.4768l157.1328 111.9232-157.1328 111.9232z" fill="#E73E3C" p-id="22541"></path><path d="M786.1248 822.272h-80.6912a25.6 25.6 0 0 1 0-51.2h80.6912a6.2464 6.2464 0 0 0 6.2464-6.2464v-204.8a25.6 25.6 0 0 1 51.2 0v204.8a57.4976 57.4976 0 0 1-57.4464 57.4464z" fill="#FF9B05" p-id="22542"></path></svg>