<?xml version="1.0" standalone="no"?><!DOCTYPE svg PUBLIC "-//W3C//DTD SVG 1.1//EN" "http://www.w3.org/Graphics/SVG/1.1/DTD/svg11.dtd"><svg t="1638078004932" class="icon" viewBox="0 0 1024 1024" version="1.1" xmlns="http://www.w3.org/2000/svg" p-id="7604" xmlns:xlink="http://www.w3.org/1999/xlink" width="50" height="50"><defs><style type="text/css"></style></defs><path d="M512 512m-512 0a512 512 0 1 0 1024 0 512 512 0 1 0-1024 0Z" fill="#FFFFFF" p-id="7605"></path><path d="M512 512m-473.492089 0a473.492089 473.492089 0 1 0 946.984178 0 473.492089 473.492089 0 1 0-946.984178 0Z" fill="#FFE1EB" p-id="7606"></path><path d="M985.344266 499.937637c0-1.596489-0.118258-3.178196-0.177388-4.759903-0.088694-2.394734-0.147823-4.80425-0.280863-7.198984-0.103476-2.069523-0.251299-4.124264-0.38434-6.193786s-0.221735-3.784271-0.354776-5.661624c-0.177388-2.365169-0.399122-4.730338-0.620857-7.080725-0.133041-1.552142-0.266082-3.119067-0.413904-4.656427-0.266082-2.616468-0.57651-5.218155-0.872156-7.819841-0.147823-1.271278-0.280864-2.557339-0.44347-3.813835-0.354775-2.808638-0.753898-5.617277-1.15302-8.411133-0.147823-1.034762-0.280864-2.084305-0.443469-3.119067-0.443469-2.956461-0.946068-5.912923-1.478231-8.869384-0.147823-0.827809-0.266082-1.670401-0.413904-2.49821-0.546945-3.133849-1.138238-6.252916-1.759095-9.371983-0.133041-0.650422-0.236517-1.300843-0.369558-1.936483q-0.975632-4.892944-2.069523-9.756322c-0.103476-0.473034-0.206952-0.96085-0.310428-1.478231q-1.138238-5.055549-2.394734-10.081534l-0.251299-1.005197q-1.300843-5.18859-2.734727-10.347615l-0.177388-0.650421q-1.478231-5.292066-3.059937-10.525003l-0.103476-0.354776q-1.626054-5.336413-3.370366-10.628479v-0.133041q-5.321631-16.127497-11.825846-31.737614l-259.680795-101.066635-99.263194 51.885899-175.155561-8.869385-130.823421 113.084652-17.738769 164.083612 45.603419 140.431921 369.808985 249.909689a152.612542 152.612542 0 0 1 17.443122 5.321631c167.927012-72.758517 285.416792-239.961196 285.416792-434.599838q0.014782-6.075528-0.147823-12.091928z" fill="#FABACF" p-id="7607"></path><path d="M312.926666 691.368518c-1.611272-1.892135-39.601802-47.066867-60.755284-112.774223-28.899411-89.8173-12.964084-174.534704 46.106017-244.987181 49.151172-58.626631 111.28121-89.329484 195.569927-101.377064 30.481118-4.360781 47.909458-0.724333 121.939254-2.542557l74.517612 1.093891-145.664857 143.728375c-0.354775-0.073912 25.898603-87.023444-28.086384-86.624322-65.810833 0.487816-133.395542 37.088809-172.701698 83.963506-45.514725 54.295415-57.488394 117.149786-35.595796 186.818802a304.75205 304.75205 0 0 0 50.03811 94.237209zM721.213997 310.221504c1.611272 1.892135 39.601802 47.066867 60.755284 112.774223 28.899411 89.8173 12.964084 174.534704-46.106017 244.987181-49.151172 58.626631-111.28121 89.329484-195.569928 101.377064-30.481118 4.360781-47.909458 0.724333-121.939254 2.542557l-74.517611-1.093891 145.664857-143.728375c0.354775 0.073912-25.898603 87.023444 28.086384 86.624322 65.810833-0.487816 133.395542-37.088809 172.701698-83.963506 45.514725-54.295415 57.488394-117.149786 35.595796-186.818802a304.75205 304.75205 0 0 0-50.03811-94.237209z" fill="#FFFFFF" p-id="7608"></path></svg>