<?xml version="1.0" standalone="no"?><!DOCTYPE svg PUBLIC "-//W3C//DTD SVG 1.1//EN" "http://www.w3.org/Graphics/SVG/1.1/DTD/svg11.dtd"><svg t="1645192090079" class="icon" viewBox="0 0 1024 1024" version="1.1" xmlns="http://www.w3.org/2000/svg" p-id="50763" xmlns:xlink="http://www.w3.org/1999/xlink" width="200" height="200"><defs><style type="text/css"></style></defs><path d="M506.2656 513.1264m-450.816 0a450.816 450.816 0 1 0 901.632 0 450.816 450.816 0 1 0-901.632 0Z" fill="#C65EDB" p-id="50764"></path><path d="M506.2656 530.7904c42.0352 0 76.2368-34.2016 76.2368-76.2368s-34.2016-76.2368-76.2368-76.2368-76.2368 34.2016-76.2368 76.2368 34.2016 76.2368 76.2368 76.2368z" fill="#FFFFFF" p-id="50765"></path><path d="M708.608 761.088l-91.0336-66.7648c90.368-42.0352 153.0368-133.5808 153.0368-239.7696 0-146.0224-118.3744-264.3456-264.3456-264.3456-146.0224 0-264.3456 118.3744-264.3456 264.3456 0 107.6224 64.3072 200.1408 156.5696 241.3568l-87.3984 65.28c-14.08 10.5472-6.656 32.9728 10.9568 32.9728h375.7568c17.664 0 25.088-22.5792 10.8032-33.0752zM506.2656 313.856c77.568 0 140.6976 63.1296 140.6976 140.6976s-63.1296 140.6976-140.6976 140.6976S365.568 532.1216 365.568 454.5536 428.6976 313.856 506.2656 313.856z" fill="#FFFFFF" p-id="50766"></path></svg>