<?xml version="1.0" standalone="no"?><!DOCTYPE svg PUBLIC "-//W3C//DTD SVG 1.1//EN" "http://www.w3.org/Graphics/SVG/1.1/DTD/svg11.dtd"><svg t="1645191589150" class="icon" viewBox="0 0 1024 1024" version="1.1" xmlns="http://www.w3.org/2000/svg" p-id="13987" xmlns:xlink="http://www.w3.org/1999/xlink" width="200" height="200"><defs><style type="text/css"></style></defs><path d="M739.555556 513.580247a284.641975 284.641975 0 0 1-460.148149 0 290.17284 290.17284 0 1 0 460.148149 0z" fill="#C9FBF2" p-id="13988"></path><path d="M509.530864 630.814815A284.641975 284.641975 0 0 0 739.555556 513.580247a289.975309 289.975309 0 0 0-460.148149 0 284.740741 284.740741 0 0 0 230.123457 117.234568z" fill="#DC4E45" p-id="13989"></path><path d="M739.555556 513.580247a277.432099 277.432099 0 0 1-19.753087 24.296296A290.17284 290.17284 0 0 1 288.888889 879.012346a290.074074 290.074074 0 0 0 450.666667-365.432099z" fill="#A9ECEB" p-id="13990"></path><path d="M496.987654 433.481481h135.901235v267.456791H496.987654z" fill="#FF6B5B" p-id="13991"></path><path d="M496.987654 701.234568v91.753086a9.876543 9.876543 0 1 0 19.753087 0v-45.432098h19.753086v45.432098a9.876543 9.876543 0 1 0 19.753087 0v-45.432098h19.753086v45.432098a9.876543 9.876543 0 1 0 19.753086 0v-45.432098h19.753087v45.432098a9.876543 9.876543 0 1 0 19.753086 0V701.234568z" fill="#DC4E45" p-id="13992"></path><path d="M675.851852 345.679012a166.419753 166.419753 0 1 1-166.320988-166.320987A166.320988 166.320988 0 0 1 675.851852 345.679012z" fill="#CEFBF2" p-id="13993"></path><path d="M622.222222 223.506173A164.54321 164.54321 0 0 1 644.148148 306.17284 166.222222 166.222222 0 0 1 365.432099 428.345679a166.222222 166.222222 0 1 0 256.790123-204.839506z" fill="#A9ECEB" p-id="13994"></path><path d="M589.333333 301.925926A16.395062 16.395062 0 1 1 572.839506 285.530864a16.395062 16.395062 0 0 1 16.493827 16.395062zM467.061728 301.925926a16.395062 16.395062 0 1 1-16.395061-16.395062 16.395062 16.395062 0 0 1 16.395061 16.395062z" fill="#00716A" p-id="13995"></path><path d="M473.580247 361.283951l38.419753-66.567902 38.518519 66.567902h-76.938272z" fill="#FF6B5B" p-id="13996"></path><path d="M512 428.148148c-31.012346 0-58.666667-15.308642-68.54321-38.222222a7.901235 7.901235 0 1 1 14.419753-6.320988c7.407407 16.888889 29.62963 28.740741 54.123457 28.740741s46.814815-11.851852 54.222222-28.740741a7.901235 7.901235 0 0 1 14.518519 6.320988c-9.975309 22.91358-37.530864 38.222222-68.740741 38.222222z" fill="#00716A" p-id="13997"></path><path d="M381.333333 118.419753m21.037037 0l219.358025 0q21.037037 0 21.037037 21.037037l0 87.012346q0 21.037037-21.037037 21.037037l-219.358025 0q-21.037037 0-21.037037-21.037037l0-87.012346q0-21.037037 21.037037-21.037037Z" fill="#00C4B8" p-id="13998"></path><path d="M381.333333 190.91358h261.432099v56.592593H381.333333z" fill="#FF6B5B" p-id="13999"></path><path d="M711.111111 247.407407a13.82716 13.82716 0 0 1-13.82716 13.827161H321.481481a13.82716 13.82716 0 0 1-13.82716-13.827161 13.82716 13.82716 0 0 1 13.82716-13.82716h376a13.82716 13.82716 0 0 1 13.827161 13.82716z" fill="#00C4B8" p-id="14000"></path></svg>