<?xml version="1.0" standalone="no"?><!DOCTYPE svg PUBLIC "-//W3C//DTD SVG 1.1//EN" "http://www.w3.org/Graphics/SVG/1.1/DTD/svg11.dtd"><svg t="1653291497339" class="icon" viewBox="0 0 1024 1024" version="1.1" xmlns="http://www.w3.org/2000/svg" p-id="42841" xmlns:xlink="http://www.w3.org/1999/xlink" width="200" height="200"><defs><style type="text/css">@font-face { font-family: feedback-iconfont; src: url("//at.alicdn.com/t/font_1031158_u69w8yhxdu.woff2?t=1630033759944") format("woff2"), url("//at.alicdn.com/t/font_1031158_u69w8yhxdu.woff?t=1630033759944") format("woff"), url("//at.alicdn.com/t/font_1031158_u69w8yhxdu.ttf?t=1630033759944") format("truetype"); }
</style></defs><path d="M512 0C232.0896 0 0 232.0896 0 512s232.0896 512 512 512 512-232.0896 512-512c-1.6896-279.9104-232.0896-512-512-512z" fill="#1890FF" p-id="42842"></path><path d="M443.904 536.4736l158.3616-127.8976c11.1104-6.7072 13.9264-17.92 11.1104-29.184-2.7648-8.96-13.8752-17.92-24.9856-20.1728a44.3392 44.3392 0 0 0-36.1472 8.96l-183.3984 148.1216c-13.9264 11.2128-13.9264 29.184 0 42.5984l183.3984 148.1216c11.1104 8.96 22.2208 11.2128 36.1472 8.96 11.1104-2.2528 22.2208-11.2128 24.9856-20.1728 2.816-9.0112 0-20.224-11.1104-29.184L443.904 536.4736z" fill="#FFFFFF" p-id="42843"></path></svg>