<?xml version="1.0" standalone="no"?><!DOCTYPE svg PUBLIC "-//W3C//DTD SVG 1.1//EN" "http://www.w3.org/Graphics/SVG/1.1/DTD/svg11.dtd"><svg t="1653291077316" class="icon" viewBox="0 0 1024 1024" version="1.1" xmlns="http://www.w3.org/2000/svg" p-id="21655" xmlns:xlink="http://www.w3.org/1999/xlink" width="200" height="200"><defs><style type="text/css">@font-face { font-family: feedback-iconfont; src: url("//at.alicdn.com/t/font_1031158_u69w8yhxdu.woff2?t=1630033759944") format("woff2"), url("//at.alicdn.com/t/font_1031158_u69w8yhxdu.woff?t=1630033759944") format("woff"), url("//at.alicdn.com/t/font_1031158_u69w8yhxdu.ttf?t=1630033759944") format("truetype"); }
</style></defs><path d="M836.97698567 521.60556641c0 165.48046875-134.12460938 299.60419922-299.60419921 299.60419921-165.45585938 0-299.60332031-134.12373047-299.60332032-299.60419921 0-165.47871094 134.14658203-299.60244141 299.60332032-299.60244141 165.48046875-0.00087891 299.60419922 134.12373047 299.60419921 299.60244141" fill="#F7E946" p-id="21656"></path><path d="M876.096 507.328c-13.314 0-24.569-10.25-25.627-23.717-2.01-25.803-6.982-51.579-14.772-76.653-55.899-179.813-248.651-284.002-429.468-232.373-13.542 3.769-27.889-3.994-31.808-17.687-3.894-13.667 4.02-27.888 17.687-31.807 207.524-59.28 428.616 60.348 492.732 266.591 8.919 28.741 14.623 58.312 16.935 87.909 1.106 14.169-9.472 26.555-23.643 27.661a27.16 27.16 0 0 1-2.036 0.076zM261.864 247.973c-7.385 0-14.721-3.166-19.797-9.271-9.094-10.929-7.612-27.134 3.316-36.229 19.975-16.632 41.557-31.28 64.117-43.565 12.562-6.833 28.139-2.186 34.898 10.276 6.808 12.486 2.185 28.113-10.276 34.897-19.646 10.703-38.438 23.466-55.824 37.938a25.665 25.665 0 0 1-16.434 5.954zM502.202 911.623c-170.944 0-329.728-110.32-383.091-281.968-36.355-117.001-17.764-242.345 50.951-343.896 7.964-11.732 23.967-14.822 35.725-6.884 11.758 7.965 14.849 23.968 6.885 35.727-59.921 88.537-76.101 197.801-44.419 299.778 57.207 183.984 253.5 287.244 437.433 229.987 29.923-9.298 58.362-22.463 84.518-39.17 11.959-7.661 27.888-4.17 35.525 7.84 7.638 11.983 4.145 27.888-7.839 35.524-30.024 19.17-62.634 34.295-96.928 44.947-39.469 12.262-79.441 18.115-118.76 18.115z" fill="#213847" p-id="21657"></path><path d="M409.142 676.487a25.658 25.658 0 0 1-12.412-3.19 25.73 25.73 0 0 1-13.314-22.537V370.527c0-9.371 5.1-18.014 13.314-22.536 8.191-4.522 18.216-4.221 26.154 0.779l221.695 140.143a25.757 25.757 0 0 1 11.985 21.756c0 8.82-4.523 17.035-11.985 21.758L422.884 672.519a25.818 25.818 0 0 1-13.742 3.968z m25.728-259.254V604.08l147.803-93.412-147.803-93.435z" fill="#213847" p-id="21658"></path><path d="M650.635 744.02l167.651-17.033-56.528 158.758z" fill="#FFF42E" p-id="21659"></path><path d="M761.758 911.473a25.709 25.709 0 0 1-20.251-9.849L630.383 759.898a25.767 25.767 0 0 1-3.417-25.952 25.744 25.744 0 0 1 21.056-15.527l167.652-17.033c8.969-0.805 17.436 2.789 22.863 9.723 5.451 6.936 6.933 16.205 3.993 24.495l-56.527 158.759c-3.168 8.844-10.854 15.274-20.1 16.783a25.629 25.629 0 0 1-4.145 0.327z m-62.057-146.574l53.488 68.211 27.21-76.428-80.698 8.217z" fill="#213847" p-id="21660"></path></svg>