<?xml version="1.0" standalone="no"?><!DOCTYPE svg PUBLIC "-//W3C//DTD SVG 1.1//EN" "http://www.w3.org/Graphics/SVG/1.1/DTD/svg11.dtd"><svg t="1653291765042" class="icon" viewBox="0 0 1024 1024" version="1.1" xmlns="http://www.w3.org/2000/svg" p-id="53620" xmlns:xlink="http://www.w3.org/1999/xlink" width="200" height="200"><defs><style type="text/css">@font-face { font-family: feedback-iconfont; src: url("//at.alicdn.com/t/font_1031158_u69w8yhxdu.woff2?t=1630033759944") format("woff2"), url("//at.alicdn.com/t/font_1031158_u69w8yhxdu.woff?t=1630033759944") format("woff"), url("//at.alicdn.com/t/font_1031158_u69w8yhxdu.ttf?t=1630033759944") format("truetype"); }
</style></defs><path d="M0 512c0 282.453 229.547 512 512 512s512-229.547 512-512S794.453 0 512 0 0 229.547 0 512z m213.419-1.195l1.365-7.338a31.147 31.147 0 0 1 9.728-14.678L464.64 263.083a29.867 29.867 0 0 1 42.837 4.352c10.657 13.373 8.768 32.792-4.266 43.861L321.707 482.219h458.837a30.55 30.55 0 0 1 21.478 9.248 30.565 30.565 0 0 1 8.648 21.728c0 17.066-13.571 30.89-30.126 30.89H315.989l164.182 169.046c12.916 11.023 14.801 30.287 4.266 43.605a29.952 29.952 0 0 1-42.41 4.437l-217.6-224a31.573 31.573 0 0 1-9.643-33.621l-1.365 7.253z" fill="#3478F5" p-id="53621"></path></svg>