<?xml version="1.0" standalone="no"?><!DOCTYPE svg PUBLIC "-//W3C//DTD SVG 1.1//EN" "http://www.w3.org/Graphics/SVG/1.1/DTD/svg11.dtd"><svg t="1657634059295" class="icon" viewBox="0 0 1240 1024" version="1.1" xmlns="http://www.w3.org/2000/svg" p-id="2376" xmlns:xlink="http://www.w3.org/1999/xlink" width="242.1875" height="200"><defs><style type="text/css">@font-face { font-family: feedback-iconfont; src: url("//at.alicdn.com/t/font_1031158_u69w8yhxdu.woff2?t=1630033759944") format("woff2"), url("//at.alicdn.com/t/font_1031158_u69w8yhxdu.woff?t=1630033759944") format("woff"), url("//at.alicdn.com/t/font_1031158_u69w8yhxdu.ttf?t=1630033759944") format("truetype"); }
</style></defs><path d="M984.576 1024h-437.248l31.232-102.4a702.976 702.976 0 0 1 212.48-320A307.2 307.2 0 0 1 984.576 512a262.656 262.656 0 0 1 180.736 74.752A282.112 282.112 0 0 1 1240.576 768a256 256 0 0 1-256 256z" fill="#F9BBB8" p-id="2377"></path><path d="M512 0a512 512 0 1 0 512 512A512 512 0 0 0 512 0z m111.104 474.624a51.2 51.2 0 0 1-72.192 0l-23.04-23.04v189.952a51.2 51.2 0 0 1-102.4 0v-189.44l-22.528 22.528a51.2 51.2 0 0 1-72.192 0 51.2 51.2 0 0 1 0-72.704l108.544-108.544a55.296 55.296 0 0 1 75.264 0l108.544 108.544a51.2 51.2 0 0 1 0 72.704z" fill="#F55E55" p-id="2378"></path></svg>