<?xml version="1.0" standalone="no"?><!DOCTYPE svg PUBLIC "-//W3C//DTD SVG 1.1//EN" "http://www.w3.org/Graphics/SVG/1.1/DTD/svg11.dtd"><svg t="1657634094677" class="icon" viewBox="0 0 1024 1024" version="1.1" xmlns="http://www.w3.org/2000/svg" p-id="4858" xmlns:xlink="http://www.w3.org/1999/xlink" width="200" height="200"><defs><style type="text/css">@font-face { font-family: feedback-iconfont; src: url("//at.alicdn.com/t/font_1031158_u69w8yhxdu.woff2?t=1630033759944") format("woff2"), url("//at.alicdn.com/t/font_1031158_u69w8yhxdu.woff?t=1630033759944") format("woff"), url("//at.alicdn.com/t/font_1031158_u69w8yhxdu.ttf?t=1630033759944") format("truetype"); }
</style></defs><path d="M511.1 513.2m-448 0a448 448 0 1 0 896 0 448 448 0 1 0-896 0Z" fill="#E9E9FF" p-id="4859"></path><path d="M679.1 366.5v293.3c0 22.1-17.9 40-40 40h-256c-22.1 0-40-17.9-40-40V366.5c0-22.1 17.9-40 40-40h256c22 0 40 18 40 40z" fill="#887FFE" p-id="4860"></path><path d="M622.9 448.8l-17-17c-6.6-6.6-17.2-6.6-23.8 0l-17 17c-3.1 3.1-8.4 0.9-8.4-3.5V326.5h74.7v118.7c-0.1 4.5-5.4 6.7-8.5 3.6z" fill="#C6C9FF" p-id="4861"></path></svg>