<?xml version="1.0" standalone="no"?><!DOCTYPE svg PUBLIC "-//W3C//DTD SVG 1.1//EN" "http://www.w3.org/Graphics/SVG/1.1/DTD/svg11.dtd"><svg t="1666433876114" class="icon" viewBox="0 0 1024 1024" version="1.1" xmlns="http://www.w3.org/2000/svg" p-id="9036" xmlns:xlink="http://www.w3.org/1999/xlink" width="200" height="200"><path d="M814.19268799 771.55200195l-111.23657227 123.59619141c-6.79779052 7.41577148-16.68548584 12.35961914-27.1911621 12.35961914-11.12365723 0-20.39337158-4.94384766-27.19116211-12.35961914l-111.23657227-123.59619141c-6.17980958-6.79779052-9.88769531-15.44952393-9.88769531-24.71923828 0-20.39337158 16.68548584-37.07885742 37.07885742-37.07885742 11.12365723 0 20.39337158 4.94384766 27.19116211 12.35961914l46.34857177 51.91040039V153.57104492c0-20.39337158 16.68548584-37.07885742 37.07885743-37.07885742s37.07885742 16.68548584 37.07885742 37.07885742v620.45288086L759.19238281 722.11352539c6.79779052-7.41577148 16.68548584-12.35961914 27.19116211-12.35961914 20.39337158 0 37.07885742 16.68548584 37.07885742 37.07885742 0.61798096 9.26971435-3.08990479 17.92144776-9.26971435 24.71923828zM465.65142823 314.24609375c-11.12365723 0-20.39337158-4.94384766-27.19116211-12.35961914l-46.34857179-51.91040039V870.42895508c0 20.39337158-16.68548584 37.07885742-37.07885742 37.07885742s-37.07885742-16.68548584-37.07885742-37.07885742V249.97607422L270.98742675 301.88647461c-6.79779052 7.41577148-16.68548584 12.35961914-27.1911621 12.35961914-20.39337158 0-37.07885742-16.68548584-37.07885742-37.07885742 0-9.26971435 3.70788575-17.92144776 9.88769531-24.71923828L326.60571289 128.85180664c6.79779052-7.41577148 16.68548584-12.35961914 27.19116211-12.35961914 11.12365723 0 20.39337158 4.94384766 27.19116211 12.35961914l111.23657226 123.59619141c6.17980958 6.79779052 9.88769531 15.44952393 9.88769532 24.71923828 0.61798096 20.39337158-16.06750489 37.07885742-36.46087647 37.07885742z" fill="#1afa29" p-id="9037" data-spm-anchor-id="a313x.7781069.0.i7" class="selected"></path></svg>