<?xml version="1.0" standalone="no"?><!DOCTYPE svg PUBLIC "-//W3C//DTD SVG 1.1//EN" "http://www.w3.org/Graphics/SVG/1.1/DTD/svg11.dtd"><svg t="1666434784097" class="icon" viewBox="0 0 1024 1024" version="1.1" xmlns="http://www.w3.org/2000/svg" p-id="56602" xmlns:xlink="http://www.w3.org/1999/xlink" width="200" height="200"><path d="M453.290667 293.546667H573.44c88.064 0 159.744 71.68 159.744 159.744V573.44c0 88.064-71.68 159.744-159.744 159.744H453.290667C365.226667 733.184 293.546667 661.504 293.546667 573.44V453.290667C293.546667 365.226667 365.226667 293.546667 453.290667 293.546667z" fill="#FFE55C" p-id="56603"></path><path d="M511.317333 672.426667c-5.461333 0-10.24-2.048-14.336-6.144L376.832 546.816c-8.192-8.192-8.192-21.162667 0-28.672 8.192-8.192 21.162667-8.192 28.672 0l105.130667 105.130667 105.130666-105.130667c8.192-8.192 21.162667-8.192 28.672 0 8.192 8.192 8.192 21.162667 0 28.672L525.653333 666.282667c-4.096 4.096-9.557333 6.144-14.336 6.144z" fill="#4D4D4D" p-id="56604"></path><path d="M511.317333 673.792c-11.605333 0-20.48-8.874667-20.48-20.48v-266.24c0-11.605333 8.874667-20.48 20.48-20.48s20.48 8.874667 20.48 20.48v266.24c0 10.922667-9.557333 20.48-20.48 20.48z" fill="#4D4D4D" p-id="56605"></path><path d="M649.898667 875.178667h-273.066667c-124.245333 0-225.28-101.034667-225.28-225.28v-273.066667c0-124.245333 101.034667-225.28 225.28-225.28h273.066667c124.245333 0 225.28 101.034667 225.28 225.28v273.066667c0 124.245333-101.034667 225.28-225.28 225.28z m-273.066667-682.666667c-101.717333 0-184.32 82.602667-184.32 184.32v273.066667c0 101.717333 82.602667 184.32 184.32 184.32h273.066667c101.717333 0 184.32-82.602667 184.32-184.32v-273.066667c0-101.717333-82.602667-184.32-184.32-184.32h-273.066667z" fill="#4D4D4D" p-id="56606"></path></svg>