<?xml version="1.0" standalone="no"?><!DOCTYPE svg PUBLIC "-//W3C//DTD SVG 1.1//EN" "http://www.w3.org/Graphics/SVG/1.1/DTD/svg11.dtd"><svg t="1638078708272" class="icon" viewBox="0 0 1024 1024" version="1.1" xmlns="http://www.w3.org/2000/svg" p-id="3353" xmlns:xlink="http://www.w3.org/1999/xlink" width="50" height="50"><defs><style type="text/css"></style></defs><path d="M986.074074 512c0 261.82163-212.252444 474.074074-474.074074 474.074074S37.925926 773.82163 37.925926 512 250.17837 37.925926 512 37.925926s474.074074 212.252444 474.074074 474.074074z" fill="#FC7068" p-id="3354"></path><path d="M666.311111 481.630815a66.925037 66.925037 0 0 1-94.65837 0l-26.311111-26.311111c-26.121481-26.130963-26.121481-68.494222 0-94.625185l26.311111-26.311112a66.925037 66.925037 0 0 1 94.65837 0l26.282667 26.311112c26.126222 26.130963 26.126222 68.494222 0 94.625185l-26.282667 26.311111z m-182.016-55.04a66.925037 66.925037 0 0 1-66.925037 66.948741h-37.191111a66.925037 66.925037 0 0 1-66.948741-66.953482v-37.162667a66.925037 66.925037 0 0 1 66.948741-66.94874h37.191111a66.925037 66.925037 0 0 1 66.925037 66.94874v37.167408zM704.474074 642.133333c-0.014222 36.939852-29.956741 66.88237-66.896593 66.896593h-37.191111a66.925037 66.925037 0 0 1-66.94874-66.896593v-37.18637a66.925037 66.925037 0 0 1 66.94874-66.953482h37.191111a66.925037 66.925037 0 0 1 66.896593 66.953482v37.18637z m-220.178963 0c-0.018963 36.949333-29.975704 66.896593-66.925037 66.896593h-37.191111a66.925037 66.925037 0 0 1-66.948741-66.896593v-37.18637a66.925037 66.925037 0 0 1 66.948741-66.953482h37.191111a66.925037 66.925037 0 0 1 66.925037 66.953482v37.18637z" fill="#FFFFFF" p-id="3355"></path></svg>