<?xml version="1.0" standalone="no"?><!DOCTYPE svg PUBLIC "-//W3C//DTD SVG 1.1//EN" "http://www.w3.org/Graphics/SVG/1.1/DTD/svg11.dtd"><svg t="1666435332238" class="icon" viewBox="0 0 1024 1024" version="1.1" xmlns="http://www.w3.org/2000/svg" p-id="64933" data-spm-anchor-id="a313x.7781069.0.i41" xmlns:xlink="http://www.w3.org/1999/xlink" width="200" height="200"><path d="M680.378748 791.679955H343.657377c-154.867988 0-280.51083-125.606717-280.510831-280.583081 0-154.867988 125.606717-280.51083 280.510831-280.51083h336.721371c154.867988 0 280.51083 125.606717 280.510831 280.51083-0.036125 154.976364-125.642842 280.583081-280.510831 280.583081z m0-504.95562H343.657377c-123.908841 0-224.372539 100.427574-224.37254 224.372539s100.427574 224.444789 224.37254 224.44479h336.721371c123.908841 0 224.372539-100.535949 224.37254-224.44479-0.036125-123.908841-100.463699-224.372539-224.37254-224.372539z m0 392.715163c-92.949693 0-168.414873-75.356805-168.414873-168.306499 0-92.949693 75.429055-168.306498 168.414873-168.306498 92.877443 0 168.306498 75.356805 168.306499 168.306498 0 92.949693-75.429055 168.306498-168.306499 168.306499z m0-280.510831c-61.990545 0-112.276582 50.249912-112.276582 112.168207 0 62.02667 50.249912 112.276582 112.276582 112.276583 61.918295 0 112.168207-50.249912 112.168207-112.276583 0-61.918295-50.249912-112.168207-112.168207-112.168207z" fill="#1afa29" p-id="64934" data-spm-anchor-id="a313x.7781069.0.i42" class="selected"></path></svg>