<?xml version="1.0" standalone="no"?><!DOCTYPE svg PUBLIC "-//W3C//DTD SVG 1.1//EN" "http://www.w3.org/Graphics/SVG/1.1/DTD/svg11.dtd"><svg t="1666444099980" class="icon" viewBox="0 0 1024 1024" version="1.1" xmlns="http://www.w3.org/2000/svg" p-id="44160" xmlns:xlink="http://www.w3.org/1999/xlink" width="200" height="200"><path d="M867.340007 319.228555c-51.538817-51.534723-120.027677-79.890538-192.814423-79.890538H388.423497v-54.715159c0-17.449417-11.967566-23.99653-26.734898-14.519692l-131.680065 85.000929c-14.705933 9.533121-14.583137 24.802896 0.314155 34.022885l131.114177 81.201393c14.772448 9.225105 26.986631 2.430352 26.986631-15.018041v-54.524825H674.588005c116.408243 0 211.132628 94.785783 211.132628 211.133652 0 19.317974-2.552126 38.388309-7.66354 56.705489-4.550643 16.389272 5.048993 33.282011 21.438265 37.766139 2.743484 0.874927 5.481851 1.245364 8.225335 1.245364 13.459546 0 25.802666-8.971325 29.601179-22.493294 6.541997-23.743774 9.784854-48.363498 9.784854-73.163323 0-72.7847-28.355815-141.335982-79.766719-192.750979zM816.547181 734.829018l-131.052778-81.202417c-14.896268-9.218966-27.110451-2.490727-27.110451 15.020089v54.40612H349.535815c-116.41029 0-211.133651-94.723362-211.133652-211.132628 0-40.756239 11.653411-80.32749 33.653471-114.417913 9.224082-14.273075 5.106298-33.339316-9.100262-42.562374-14.273075-9.16166-33.339316-5.048993-42.500976 9.156544-28.478612 44.060495-43.561122 95.223758-43.561122 147.884118 0 72.849168 28.355815 141.27663 79.828117 192.748932 51.477418 51.538817 119.965256 79.893608 192.814424 79.893609h308.910558v54.716182c0 17.509792 12.028964 24.051789 26.734898 14.519692l131.680065-85.063351c14.705933-9.475815 14.583137-24.742521-0.314155-33.966603z" fill="" p-id="44161"></path></svg>