<?xml version="1.0" standalone="no"?><!DOCTYPE svg PUBLIC "-//W3C//DTD SVG 1.1//EN" "http://www.w3.org/Graphics/SVG/1.1/DTD/svg11.dtd"><svg t="1638078718699" class="icon" viewBox="0 0 1024 1024" version="1.1" xmlns="http://www.w3.org/2000/svg" p-id="3644" xmlns:xlink="http://www.w3.org/1999/xlink" width="50" height="50"><defs><style type="text/css"></style></defs><path d="M286.976 535.466667h154.197333c24.064 0 44.330667 18.005333 47.146667 41.856l0.298667 5.546666v154.197334a201.642667 201.642667 0 1 1-211.413334-201.386667l9.813334-0.213333h154.154666-154.197333z m450.048 0a201.642667 201.642667 0 1 1-201.642667 201.6v-154.154667c0-26.197333 21.248-47.445333 47.445334-47.445333h154.197333z m0-450.133334a201.642667 201.642667 0 0 1 9.770667 402.986667l-9.813334 0.213333H582.826667c-24.064 0-44.373333-17.962667-47.189334-41.856l-0.256-5.546666V286.890667A201.6 201.6 0 0 1 737.024 85.333333z" fill="#4C5271" p-id="3645"></path><path d="M286.976 85.333333a201.685333 201.685333 0 0 1 201.642667 201.6v154.154667c0 26.197333-21.248 47.445333-47.445334 47.445333H286.976a201.642667 201.642667 0 1 1 0-403.2z" fill="#156DF9" p-id="3646"></path></svg>