<?xml version="1.0" standalone="no"?><!DOCTYPE svg PUBLIC "-//W3C//DTD SVG 1.1//EN" "http://www.w3.org/Graphics/SVG/1.1/DTD/svg11.dtd"><svg t="1676110456201" class="icon" viewBox="0 0 1024 1024" version="1.1" xmlns="http://www.w3.org/2000/svg" p-id="2394" xmlns:xlink="http://www.w3.org/1999/xlink" width="200" height="200"><path d="M512 896c-211.776 0-384-172.224-384-384s172.224-384 384-384 384 172.224 384 384-172.224 384-384 384zM512 192C335.552 192 192 335.552 192 512s143.552 320 320 320 320-143.552 320-320-143.552-320-320-320z" fill="#979797" p-id="2395"></path><path d="M640 544H384a32 32 0 0 1 0-64h256a32 32 0 0 1 0 64z" fill="#F5A623" p-id="2396"></path><path d="M512 672a32 32 0 0 1-22.464-54.784l105.216-103.68-105.536-107.072a32 32 0 1 1 45.568-44.928l128 129.792a32 32 0 0 1-0.32 45.312l-128 126.208A32.128 32.128 0 0 1 512 672z" fill="#F5A623" p-id="2397"></path></svg>