<?xml version="1.0" standalone="no"?><!DOCTYPE svg PUBLIC "-//W3C//DTD SVG 1.1//EN" "http://www.w3.org/Graphics/SVG/1.1/DTD/svg11.dtd"><svg t="1676110849749" class="icon" viewBox="0 0 1024 1024" version="1.1" xmlns="http://www.w3.org/2000/svg" p-id="39266" xmlns:xlink="http://www.w3.org/1999/xlink" width="200" height="200"><path d="M512 51.2C257.6384 51.2 51.2 257.6384 51.2 512s206.4384 460.8 460.8 460.8 460.8-206.4384 460.8-460.8S766.3616 51.2 512 51.2z m-36.864 239.616c0-20.2752 16.5888-36.864 36.864-36.864s36.864 16.5888 36.864 36.864v294.912c0 20.2752-16.5888 36.864-36.864 36.864s-36.864-16.5888-36.864-36.864V290.816zM512 770.048c-30.4128 0-55.296-24.8832-55.296-55.296s24.8832-55.296 55.296-55.296 55.296 24.8832 55.296 55.296-24.8832 55.296-55.296 55.296z" fill="#409EFF" p-id="39267"></path></svg>