<?xml version="1.0" standalone="no"?><!DOCTYPE svg PUBLIC "-//W3C//DTD SVG 1.1//EN" "http://www.w3.org/Graphics/SVG/1.1/DTD/svg11.dtd"><svg t="1676110676352" class="icon" viewBox="0 0 1024 1024" version="1.1" xmlns="http://www.w3.org/2000/svg" p-id="27835" xmlns:xlink="http://www.w3.org/1999/xlink" width="200" height="200"><path d="M515.1744 512m-432.3328 0a432.3328 432.3328 0 1 0 864.6656 0 432.3328 432.3328 0 1 0-864.6656 0Z" fill="#37F7AD" p-id="27836"></path><path d="M290.2528 417.8432c-85.0432 0-160.4096 41.3696-207.104 105.0624 4.5568 182.7328 122.368 337.3056 285.952 396.032 103.2192-33.28 177.92-130.048 177.92-244.3776-0.0512-141.7728-114.9952-256.7168-256.768-256.7168z" fill="#83FFCF" p-id="27837"></path><path d="M619.4688 265.0624H410.88a41.1648 41.1648 0 0 0-41.1648 41.1648v60.416h290.9184v-60.416c0-22.7328-18.432-41.1648-41.1648-41.1648z" fill="#C5FFEE" p-id="27838"></path><path d="M735.8464 340.736h-441.344c-19.9168 0-36.0448 16.128-36.0448 36.0448s16.128 36.0448 36.0448 36.0448h22.4768v293.5808c0 35.2768 28.5696 63.8464 63.8464 63.8464h268.7488c35.2768 0 63.8464-28.5696 63.8464-63.8464V412.8256h22.4768c19.9168 0 36.0448-16.128 36.0448-36.0448-0.0512-19.8656-16.1792-36.0448-36.096-36.0448zM473.9584 630.272c0 14.3872-11.6736 26.0608-26.0608 26.0608s-26.0608-11.6736-26.0608-26.0608V487.4752c0-14.3872 11.6736-26.0608 26.0608-26.0608s26.0608 11.6736 26.0608 26.0608v142.7968z m138.7008 0c0 14.3872-11.6736 26.0608-26.0608 26.0608s-26.0608-11.6736-26.0608-26.0608V487.4752c0-14.3872 11.6736-26.0608 26.0608-26.0608s26.0608 11.6736 26.0608 26.0608v142.7968z" fill="#FFFFFF" p-id="27839"></path></svg>