<?xml version="1.0" standalone="no"?><!DOCTYPE svg PUBLIC "-//W3C//DTD SVG 1.1//EN" "http://www.w3.org/Graphics/SVG/1.1/DTD/svg11.dtd"><svg t="1676110722977" class="icon" viewBox="0 0 1024 1024" version="1.1" xmlns="http://www.w3.org/2000/svg" p-id="31592" xmlns:xlink="http://www.w3.org/1999/xlink" width="200" height="200"><path d="M678.351513 916.230204L238.346036 915.108576c-1.402036 0-2.850806 0-4.252841-0.233673-26.405002-3.131213-62.203642-17.712382-78.513988-42.52841a51.781845 51.781845 0 0 1-7.103647-43.883712c3.224682-10.889142 10.047921-19.955639 20.329515-33.695586 25.049701-33.461914 71.644014-95.712291 67.531377-192.03213-6.028753-137.586418 74.307882-251.945781 206.753503-298.353156V185.72297a111.648761 111.648761 0 0 1 105.479804-112.723655 110.059787 110.059787 0 0 1 81.738671 30.470905 111.415088 111.415088 0 0 1 34.349869 80.196431v122.3977a317.000228 317.000228 0 0 1 203.108211 295.035005c0 129.034001-58.838757 245.776824-153.476154 304.755785a68.045457 68.045457 0 0 1-35.938843 10.375063z m-437.435078-75.896855l435.332025 1.074893c70.942997-45.098809 116.836292-139.175391 116.836292-240.308886A241.757656 241.757656 0 0 0 617.17603 369.202684a37.387614 37.387614 0 0 1-27.292958-35.985578v-149.550455a36.032313 36.032313 0 0 0-37.808224-35.985578 37.387614 37.387614 0 0 0-34.209666 38.041897V331.81507a37.387614 37.387614 0 0 1-28.04071 36.172516C399.673589 392.102597 305.176395 465.429054 310.924741 599.510383c5.187531 120.668523-51.688376 199.042308-80.710511 237.878691a54.866323 54.866323 0 0 0 10.702205 2.944275z" p-id="31593"></path><path d="M282.650358 553.33668h547.728538v74.775227H282.650358z" p-id="31594"></path><path d="M433.743051 769.250148a37.387614 37.387614 0 0 1-37.387613-37.387613v-141.138241a37.387614 37.387614 0 0 1 74.775227 0v141.138241a37.387614 37.387614 0 0 1-37.387614 37.387613zM624.653553 725.272968a37.387614 37.387614 0 0 1-37.387614-37.387614V590.724294a37.387614 37.387614 0 0 1 74.775228 0v97.16106a37.387614 37.387614 0 0 1-37.387614 37.387614z" p-id="31595"></path></svg>