<?xml version="1.0" standalone="no"?><!DOCTYPE svg PUBLIC "-//W3C//DTD SVG 1.1//EN" "http://www.w3.org/Graphics/SVG/1.1/DTD/svg11.dtd"><svg t="1676111006340" class="icon" viewBox="0 0 1024 1024" version="1.1" xmlns="http://www.w3.org/2000/svg" p-id="50710" xmlns:xlink="http://www.w3.org/1999/xlink" width="200" height="200"><path d="M833.7408 237.1072c-88.2176-88.2176-224.256-103.68-316.4672-35.9424-3.2256 2.3552-7.3728 2.3552-10.5984 0-92.2624-67.6864-228.2496-52.224-316.416 35.9424-47.2576 47.2576-75.008 108.5952-78.0288 172.6464-3.072 64.8192 19.4048 124.672 63.3856 168.6528l160.3072 157.696 140.1344 140.1344a51.10272 51.10272 0 0 0 36.1472 14.9504c13.056 0 26.1632-4.9664 36.1472-14.8992l173.3632-173.1584 126.976-124.928c89.856-89.9072 83.2-242.944-14.9504-341.0944z" fill="#9fc6ff" p-id="50711"></path></svg>