<?xml version="1.0" standalone="no"?><!DOCTYPE svg PUBLIC "-//W3C//DTD SVG 1.1//EN" "http://www.w3.org/Graphics/SVG/1.1/DTD/svg11.dtd"><svg t="1676110599759" class="icon" viewBox="0 0 1024 1024" version="1.1" xmlns="http://www.w3.org/2000/svg" p-id="21002" xmlns:xlink="http://www.w3.org/1999/xlink" width="200" height="200"><path d="M912.8 513.2C912.8 733.1 733.9 912 514 912S115.2 733.1 115.2 513.2 294.1 114.3 514 114.3s398.8 179 398.8 398.9z m-701.5 0c0 166.9 135.8 302.7 302.7 302.7s302.7-135.8 302.7-302.7S680.9 210.5 514 210.5 211.3 346.3 211.3 513.2z" fill="#BDD2EF" p-id="21003"></path><path d="M626.8 345.9c0 15-5.7 30.1-17.2 41.5L487.1 510l122.6 122.6c22.9 22.9 22.9 60.2 0 83.1-22.9 22.9-60.2 22.9-83.1 0L362.4 551.6c-22.9-22.9-22.9-60.2 0-83.1l164.1-164.1c22.9-22.9 60.2-22.9 83.1 0 11.5 11.5 17.2 26.5 17.2 41.5z" fill="#2867CE" p-id="21004"></path></svg>