<?xml version="1.0" standalone="no"?><!DOCTYPE svg PUBLIC "-//W3C//DTD SVG 1.1//EN" "http://www.w3.org/Graphics/SVG/1.1/DTD/svg11.dtd"><svg t="1676110615815" class="icon" viewBox="0 0 1024 1024" version="1.1" xmlns="http://www.w3.org/2000/svg" p-id="22815" xmlns:xlink="http://www.w3.org/1999/xlink" width="200" height="200"><path d="M514 114.3c-219.9 0-398.8 178.9-398.8 398.8S294.1 912 514 912s398.9-178.9 398.9-398.8-179-398.9-398.9-398.9z m95.6 518.3c22.9 22.9 22.9 60.2 0 83.1-22.9 22.9-60.2 22.9-83.1 0L362.4 551.6c-22.9-22.9-22.9-60.2 0-83.1l164.1-164.1c22.9-22.9 60.2-22.9 83.1 0 11.5 11.5 17.2 26.5 17.2 41.5s-5.7 30.1-17.2 41.5L487.1 510l122.5 122.6z" fill="#0C0C0C" p-id="22816"></path></svg>