<?xml version="1.0" standalone="no"?><!DOCTYPE svg PUBLIC "-//W3C//DTD SVG 1.1//EN" "http://www.w3.org/Graphics/SVG/1.1/DTD/svg11.dtd"><svg t="1638078745522" class="icon" viewBox="0 0 1024 1024" version="1.1" xmlns="http://www.w3.org/2000/svg" p-id="5620" xmlns:xlink="http://www.w3.org/1999/xlink" width="50" height="50"><defs><style type="text/css"></style></defs><path d="M653.923556 508.814222c0.199111-3.655111 0.298667-7.338667 0.298666-11.036444 0-109.966222-89.144889-199.111111-199.111111-199.111111s-199.111111 89.144889-199.111111 199.111111 89.144889 199.111111 199.111111 199.111111c37.248 0 72.106667-10.24 101.916445-28.017778a111.075556 111.075556 0 0 0 99.896888 62.549333c61.340444 0 111.075556-49.834667 111.075556-111.317333s-49.735111-111.331556-111.075556-111.331555c-0.995556 0-1.991111 0-2.986666 0.042666z m-141.923556 515.185778c-282.766222 0-512-229.233778-512-512s229.233778-512 512-512c282.780444 0 512 229.233778 512 512s-229.219556 512-512 512z" fill="#7E80BE" p-id="5621"></path><path d="M459.178667 495.744m-128 0a128 128 0 1 0 256 0 128 128 0 1 0-256 0Z" fill="#7E80BE" p-id="5622"></path></svg>