<?xml version="1.0" standalone="no"?><!DOCTYPE svg PUBLIC "-//W3C//DTD SVG 1.1//EN" "http://www.w3.org/Graphics/SVG/1.1/DTD/svg11.dtd"><svg t="1676112481133" class="icon" viewBox="0 0 1024 1024" version="1.1" xmlns="http://www.w3.org/2000/svg" p-id="3609" xmlns:xlink="http://www.w3.org/1999/xlink" width="200" height="200"><path d="M902.6048 215.9104h-186.1632V135.3728c0-41.5232-33.792-75.3152-75.3152-75.3152H381.4912c-41.5232 0-75.3152 33.792-75.3152 75.3152v80.5888H120.0128c-21.504 0-38.912 17.408-38.912 38.912s17.408 38.912 38.912 38.912h63.4368v544.5632c0 56.3712 45.6704 102.0416 102.0416 102.0416h451.6864c56.3712 0 102.0416-45.6704 102.0416-102.0416V293.7856h63.4368c21.504 0 38.912-17.408 38.912-38.912s-17.4592-38.9632-38.9632-38.9632zM384.0512 137.8816h254.5664v76.9024H384.0512V137.8816z" fill="#aaaaf8" p-id="3610"></path><path d="M393.8816 771.1744c-21.1968 0-38.4-17.2032-38.4-38.4V452.4544c0-21.1968 17.2032-38.4 38.4-38.4s38.4 17.2032 38.4 38.4v280.2688c0 21.248-17.2032 38.4512-38.4 38.4512zM627.2 771.1744c-21.1968 0-38.4-17.2032-38.4-38.4V452.4544c0-21.1968 17.2032-38.4 38.4-38.4s38.4 17.2032 38.4 38.4v280.2688c0 21.248-17.2032 38.4512-38.4 38.4512z" fill="#FFCD43" p-id="3611"></path></svg>