<?xml version="1.0" standalone="no"?><!DOCTYPE svg PUBLIC "-//W3C//DTD SVG 1.1//EN" "http://www.w3.org/Graphics/SVG/1.1/DTD/svg11.dtd"><svg t="1676112535358" class="icon" viewBox="0 0 1024 1024" version="1.1" xmlns="http://www.w3.org/2000/svg" p-id="9914" xmlns:xlink="http://www.w3.org/1999/xlink" width="200" height="200"><path d="M696.5 905.4h-362c-49.5 0-90-40.5-90-90V343.1h542.1v472.3c-0.1 49.5-40.6 90-90.1 90z" fill="#635DF7" opacity=".7" p-id="9915"></path><path d="M802.1 420.2H228.9c-39.9 0-72.5-32.6-72.5-72.5s32.6-72.5 72.5-72.5H802c39.9 0 72.5 32.6 72.5 72.5s-32.6 72.5-72.4 72.5z" fill="#635DF7" opacity=".7" p-id="9916"></path><path d="M668.8 274.9H581c0-36.1-29.4-65.5-65.5-65.5S450 238.8 450 274.9h-87.8c0-84.5 68.8-153.3 153.3-153.3 84.5 0 153.3 68.8 153.3 153.3z" fill="#635DF7" opacity=".7" p-id="9917"></path><path d="M434.5 753.1c-22 0-40-18-40-40V570.8c0-22 18-40 40-40s40 18 40 40V713c0 22.1-18 40.1-40 40.1zM596.5 753.1c-22 0-40-18-40-40V570.8c0-22 18-40 40-40s40 18 40 40V713c0 22.1-18 40.1-40 40.1z" fill="#FFFFFF" p-id="9918"></path></svg>