<?xml version="1.0" encoding="utf-8"?>
<!-- Generator: Adobe Illustrator 25.3.1, SVG Export Plug-In . SVG Version: 6.00 Build 0)  -->
<svg version="1.1" id="图层_1" xmlns="http://www.w3.org/2000/svg" x="0px"
     y="0px"
     viewBox="0 0 64 64" style="enable-background:new 0 0 64 64;" xml:space="preserve">
<style type="text/css">
	.st0{fill:#666666;}
</style>
    <path class="st0" d="M47.6,24.4c-1.5-0.4-4.9-0.4-10-0.4c0.3-1,0.3-1.8,0.3-3.3c0-3.6-3.1-6.7-5.8-6.7c-1.9,0-3.5,1.3-3.6,3
	c0,2-0.7,5.5-4.8,7.3c-0.3,0.1-1.2,0.4-1.3,0.4l0,0c-0.7-0.4-1.5-0.7-2.3-0.9h-3.6c-2,0-3.6,1.3-3.6,3.1V43c0,1.7,1.6,3.1,3.6,3.1
	h3.6c1.3,0,2.6-0.7,3.2-1.7l0,0l0.3,0.1l0,0c0.7,0.1,2,0.4,4.8,1c0.5,0.1,3.8,0.7,7.1,0.7H42c2,0,3.5-0.6,4.2-2
	c0.7-1.1,4.7-7.4,4.7-16.2C50.9,26.7,49.9,25,47.6,24.4L47.6,24.4z M21.4,43c0,0.6-0.5,1-1.2,1h-3.6c-0.7,0-1.2-0.4-1.2-1V26.9
	c0-0.6,0.5-1,1.2-1h3.6c0.7,0,1.2,0.4,1.2,1V43L21.4,43z M48.5,28.5c-0.4,10.1-4.3,14.7-4.3,14.7c-0.3,0.4-0.8,0.9-2.1,0.9h-6.5
	c-3.2,0-6.5-0.6-6.5-0.6c-4.9-1-5.2-1-5.5-1.1l0.1-14.8c0-1.4,0-1.1,0-1.1c5.4-1.8,7.1-6,7.1-9.4c0-0.6,0.5-1,1.2-1
	c1.3,0,3.5,2.1,3.5,4.8c0,2.3-0.1,2.8-1.2,5.3c11.9,0,11.8,0.1,12.7,0.4c1.3,0.4,1.5,1.3,1.5,1.6C48.5,28.3,48.5,28.1,48.5,28.5z"/>
</svg>
