<?xml version="1.0" encoding="utf-8"?>
<!-- Generator: Adobe Illustrator 25.2.3, SVG Export Plug-In . SVG Version: 6.00 Build 0)  -->
<svg version="1.1" id="图层_1" xmlns="http://www.w3.org/2000/svg" x="0px"
     y="0px"
     viewBox="0 0 128 128" style="enable-background:new 0 0 128 128;" xml:space="preserve">
<style type="text/css">
	.st0{fill:#66A8A8;}
	.st1{opacity:0.478;fill:#66A8A8;enable-background:new    ;}
</style>
    <path class="st0" d="M69.1,27.9c1.6,0,3.1,0.6,4.3,1.7l5.5,5.2L44.7,67.5c-2.3,2.1-3.5,5.1-3.5,8.2v4.6c0,3.9,3.3,6.9,7.3,6.9h4.8
	c3.2,0,6.3-1.2,8.6-3.4l34.2-32.6l5.7,5.5c1.1,1.1,1.8,2.6,1.8,4.1v42.7c0,3.2-2.7,5.8-6.1,5.8h-73c-3.4,0-6.1-2.6-6.1-5.8V33.7
	c0-3.2,2.7-5.8,6.1-5.8C24.5,27.9,69.1,27.9,69.1,27.9z"/>
    <path class="st1" d="M107.7,23c2.6,3,2.4,7.7-0.5,10.4l0,0l-49.8,48c-1.4,1.3-3.2,2-5,1.9l-5.7-0.3c-0.8,0-1.4-0.7-1.3-1.6l0.3-6
	c0.1-1.9,0.9-3.8,2.3-5.1l49.8-48C100.7,19.8,105.1,20,107.7,23L107.7,23z"/>
</svg>
