<?xml version="1.0" encoding="utf-8"?>
<!-- Generator: Adobe Illustrator 25.2.3, SVG Export Plug-In . SVG Version: 6.00 Build 0)  -->
<svg version="1.1" id="图层_1" xmlns="http://www.w3.org/2000/svg" x="0px"
     y="0px"
     viewBox="0 0 128 128" style="enable-background:new 0 0 128 128;" xml:space="preserve">
<style type="text/css">
	.st0{fill:#66A8A8;}
</style>
    <path class="st0" d="M102.4,32.9H36.1c-2.8,0-5.1,2.3-5.1,5.1v66.3c0,2.8,2.3,5.1,5.1,5.1h66.3c2.8,0,5.1-2.3,5.1-5.1V38.1
	C107.4,35.2,105.1,32.9,102.4,32.9z M89.6,76.3H74.3v15.3H64.1V76.3H48.8V66.1h15.3V50.8h10.2v15.3h15.3L89.6,76.3L89.6,76.3z"/>
    <path class="st0" d="M23.7,25.7h64.1V31h5.3v-5.3c0-2.9-2.4-5.3-5.3-5.3H23.7c-2.9,0-5.3,2.4-5.3,5.3v64.1c0,2.9,2.4,5.3,5.3,5.3H29
	v-5.3h-5.3V25.7z"/>
</svg>
