<?xml version="1.0" encoding="utf-8"?>
<!-- Generator: Adobe Illustrator 25.2.3, SVG Export Plug-In . SVG Version: 6.00 Build 0)  -->
<svg version="1.1" id="图层_1" xmlns="http://www.w3.org/2000/svg" x="0px"
     y="0px"
     viewBox="0 0 128 128" style="enable-background:new 0 0 128 128;" xml:space="preserve">
<style type="text/css">
	.st0{fill:#66A8A8;}
</style>
    <path class="st0" d="M109.2,112V22.1c0-3.1-2.8-6.1-6.4-6.1H25.1c-3.7,0-7.8,2.9-7.8,6.1V112C67,91,64.3,91.1,64.1,90.9
	C64.2,90.7,64.3,90.8,109.2,112z M62.2,75.1c-1.7,0-3.1-1.4-3.1-3.1V57.6H44.7c-1.7,0-3.1-1.4-3.1-3.1v-2.9c0-1.7,1.4-3.1,3.1-3.1
	h14.4V34.2c0-1.7,1.4-3.1,3.1-3.1h2.9c1.7,0,3.1,1.4,3.1,3.1v14.4h14.4c1.7,0,3.1,1.4,3.1,3.1v2.9c0,1.7-1.4,3.1-3.1,3.1H68.1V72
	c0,1.7-1.4,3.1-3.1,3.1C65.1,75.1,62.2,75.1,62.2,75.1z"/>
</svg>
