<?xml version="1.0" encoding="utf-8"?>
<!-- Generator: Adobe Illustrator 25.2.3, SVG Export Plug-In . SVG Version: 6.00 Build 0)  -->
<svg version="1.1" id="图层_1" xmlns="http://www.w3.org/2000/svg" x="0px"
     y="0px"
     viewBox="0 0 128 128" style="enable-background:new 0 0 128 128;" xml:space="preserve">
<style type="text/css">
	.st0{fill:#66A8A8;}
</style>
    <path class="st0" d="M111.4,14.1c-0.3-0.3-0.8-0.5-1.6-0.5L84.9,26.2c-5.8,2.9-12.5,3.2-18.6,0.9l-18.7-7.2
	c-0.2-0.1-0.4-0.1-0.6-0.1h-0.7c-0.2,0-0.4,0-0.6,0.1L17,30.7c-0.7,0.4-1,1-1,1.8v80.1c0,0.6,0.2,1.2,0.6,1.6c0.2,0,0.3,0,0.5,0.1
	c0.2,0.1,0.3,0.1,0.5,0.1H18c0.3,0,0.6-0.1,0.8-0.2l19.6-7.5c5.3-2,11.2-2,16.5,0l19.9,7.7c0.2,0.1,0.4,0.1,0.6,0.1H76
	c0.2,0,0.4,0,0.6-0.1l34.4-17c0.7-0.3,1-0.9,1-1.8V15.5C112,14.9,111.8,14.4,111.4,14.1z M46,87.4l-18,8.1V46.9l18-8.1V87.4z
	 M79.6,100.5h-6.5V42.1h6.5V100.5z"/>
</svg>
