<?xml version="1.0" standalone="no"?><!DOCTYPE svg PUBLIC "-//W3C//DTD SVG 1.1//EN" "http://www.w3.org/Graphics/SVG/1.1/DTD/svg11.dtd"><svg t="1638078015224" class="icon" viewBox="0 0 1024 1024" version="1.1" xmlns="http://www.w3.org/2000/svg" p-id="7750" xmlns:xlink="http://www.w3.org/1999/xlink" width="50" height="50"><defs><style type="text/css"></style></defs><path d="M512 0c282.794667 0 512 229.205333 512 512s-229.205333 512-512 512S0 794.794667 0 512 229.205333 0 512 0z m4.181333 294.741333c37.973333 0 75.093333 9.386667 108.202667 27.306667l-45.866667 16.597333c-14.634667 5.290667-23.893333 27.648-18.56 42.496 4.096 11.349333 19.413333 21.888 31.274667 21.888 3.968 0 9.642667-0.597333 12.672-1.706666l114.474667-50.773334a29.610667 29.610667 0 0 0 17.152-37.504l-40.533334-113.066666c-6.656-18.517333-20.394667-31.744-39.168-28.928-16.64 2.517333-27.989333 23.68-22.229333 39.68l15.274667 42.624a298.026667 298.026667 0 0 0-135.381334-32.512C347.946667 220.842667 213.333333 356.224 213.333333 522.624c0 166.4 134.613333 301.824 300.16 301.824a298.837333 298.837333 0 0 0 278.912-190.08c5.973333-15.146667-2.56-35.882667-17.621333-41.941333-15.061333-5.973333-40.064 3.2-45.866667 17.834666a227.882667 227.882667 0 0 1-212.736 145.024c-126.250667 0-228.949333-103.296-228.949333-230.272 0-126.976 102.698667-230.272 228.949333-230.272z" fill="#4881F3" p-id="7751"></path></svg>