<?xml version="1.0" standalone="no"?><!DOCTYPE svg PUBLIC "-//W3C//DTD SVG 1.1//EN" "http://www.w3.org/Graphics/SVG/1.1/DTD/svg11.dtd"><svg t="1638079278327" class="icon" viewBox="0 0 1024 1024" version="1.1" xmlns="http://www.w3.org/2000/svg" p-id="29949" xmlns:xlink="http://www.w3.org/1999/xlink" width="50" height="50"><defs><style type="text/css"></style></defs><path d="M0 512c0 280.868571 227.693714 508.576914 508.576914 508.576914C789.445486 1020.576914 1017.124571 792.868571 1017.124571 512 1017.1392 231.131429 789.445486 3.423086 508.576914 3.423086 227.708343 3.423086 0 231.131429 0 512z" fill="#FC4D7A" opacity=".1" p-id="29950"></path><path d="M491.593143 219.428571C341.284571 219.428571 219.428571 341.284571 219.428571 491.593143s121.856 272.149943 272.164572 272.149943 272.149943-121.856 272.149943-272.149943A272.164571 272.164571 0 0 0 491.593143 219.428571z m-22.864457 27.209143c13.604571-2.720914 9.801143 2.4576 24.766171 2.4576 14.965029 0 4.622629 6.524343 19.309714 8.981943l10.620343-4.622628a1009.985829 1009.985829 0 0 1 39.745829 156.481828c-46.650514 6.977829-94.061714 6.977829-140.712229 0a841.245257 841.245257 0 0 1 37.010286-141.794743l9.259886-21.504z m-206.848 276.245943a150.235429 150.235429 0 0 1 0-33.206857 224.256 224.256 0 0 1 22.601143-66.121143c25.482971 11.410286 51.785143 20.948114 78.6432 28.5696a496.683886 496.683886 0 0 0 2.4576 103.687314 480.636343 480.636343 0 0 1-81.656686-24.766171l-22.045257-8.162743z m27.209143 75.117714c28.0576 6.9632 56.510171 12.244114 85.1968 15.798858 4.900571 21.211429 9.801143 61.220571 17.144685 81.627428-34.567314-18.505143-75.117714-30.749257-94.983314-66.677028l-7.343543-30.749258z m80.310857-197.866057a593.042286 593.042286 0 0 1-66.1504-22.586514 331.776 331.776 0 0 1 97.982171-100.425143 845.604571 845.604571 0 0 0-31.8464 123.026286z m154.843428 318.434743a130.633143 130.633143 0 0 1-31.305143 6.524343A202.488686 202.488686 0 0 1 453.485714 718.570057c0-2.4576-12.522057-48.991086-22.3232-94.705371 40.989257 4.227657 82.300343 4.227657 123.2896 0A448.804571 448.804571 0 0 1 533.504 699.245714l-9.259886 19.309715z m40.287086-152.956343a602.550857 602.550857 0 0 1-142.072686 0 642.574629 642.574629 0 0 1-3.803428-99.883885c49.429943 8.616229 99.971657 8.616229 149.416228 0a651.556571 651.556571 0 0 1-3.540114 99.883885z m120.0128-190.507885c-18.505143 7.606857-49.532343 19.309714-66.940343 24.488228a933.7856 933.7856 0 0 0-29.666743-121.929143 296.111543 296.111543 0 0 1 94.164115 80.559543l2.442971 16.881372z m-96.607086 326.582857c7.343543-20.948114 19.8656-67.496229 24.766172-87.083886 27.209143-6.261029 67.759543-21.504 85.182171-27.209143-19.8656 34.552686-51.170743 99.064686-84.640914 117.569829l-25.307429-3.2768z m138.532572-177.707886c-25.863314 10.064457-81.656686 27.209143-105.0624 33.748114 2.9696-34.5088 2.9696-69.193143 0-103.701943 38.370743-12.522057 85.723429-31.012571 90.624-33.470171 7.358171 20.948114 20.143543 32.928914 20.143543 56.334629 0 14.965029-9.245257 23.683657-12.785372 35.927771l7.0656 11.1616z" fill="#FC4D7A" opacity=".5" p-id="29951"></path><path d="M491.593143 273.846857c120.246857 0 217.717029 97.499429 217.717028 217.746286 0 120.246857-97.470171 217.717029-217.717028 217.717028-120.246857 0-217.731657-97.470171-217.731657-217.717028 0-120.246857 97.4848-217.731657 217.731657-217.731657z m0-54.418286C341.284571 219.428571 219.428571 341.284571 219.428571 491.593143s121.856 272.149943 272.164572 272.149943 272.149943-121.856 272.149943-272.149943A272.164571 272.164571 0 0 0 491.593143 219.428571z" fill="#FC4D7A" p-id="29952"></path><path d="M690.614857 652.141714l92.379429 92.3648a27.209143 27.209143 0 0 1-38.487772 38.473143l-92.379428-92.3648a27.209143 27.209143 0 0 1 38.487771-38.473143z" fill="#FC4D7A" p-id="29953"></path></svg>