<?xml version="1.0" standalone="no"?><!DOCTYPE svg PUBLIC "-//W3C//DTD SVG 1.1//EN" "http://www.w3.org/Graphics/SVG/1.1/DTD/svg11.dtd"><svg t="1638079288124" class="icon" viewBox="0 0 1024 1024" version="1.1" xmlns="http://www.w3.org/2000/svg" p-id="30960" xmlns:xlink="http://www.w3.org/1999/xlink" width="50" height="50"><defs><style type="text/css"></style></defs><path d="M512 0C229.22752 0 0 229.22752 0 512s229.22752 512 512 512 512-229.22752 512-512S794.77248 0 512 0z m260.08576 750.76608c-22.98368 22.9888-60.63616 22.9888-83.67616 0l-60.8512-60.86656c-12.64128-12.63104-18.33984-29.76256-17.05984-46.40256-82.83136 57.23136-197.16096 49.01376-270.86848-24.68864-82.9696-83.00032-82.9696-217.56416 0-300.55936 83.00032-83.00032 217.5488-83.00032 300.5184 0 73.70752 73.71264 81.98144 188.1344 24.75008 270.90944 17.21856-1.3824 34.18112 4.84864 46.40256 17.05984l60.8512 60.86144c23.04 23.04 23.04 60.69248-0.06656 83.6864z" fill="#ED1C24" p-id="30961"></path><path d="M615.4752 343.00416c-69.34016-69.34016-181.69856-69.34016-251.01312 0-69.33504 69.33504-69.33504 181.72416 0 251.05408 69.31456 69.34016 181.67296 69.34016 251.01312 0 69.3248-69.32992 69.3248-181.77024 0-251.05408z m-203.69408 47.35488C376.5248 425.63584 353.8944 468.3264 344.2688 512.01536a161.5616 161.5616 0 0 1 44.50304-144.60416c39.31136-39.3216 93.83936-54.15936 144.65536-44.58496-43.67872 9.62048-86.36928 32.24064-121.64608 67.5328z" fill="#ED1C24" p-id="30962"></path></svg>