<?xml version="1.0" standalone="no"?><!DOCTYPE svg PUBLIC "-//W3C//DTD SVG 1.1//EN" "http://www.w3.org/Graphics/SVG/1.1/DTD/svg11.dtd"><svg t="1638079342759" class="icon" viewBox="0 0 1024 1024" version="1.1" xmlns="http://www.w3.org/2000/svg" p-id="36755" xmlns:xlink="http://www.w3.org/1999/xlink" width="50" height="50"><defs><style type="text/css"></style></defs><path d="M631.7 337.5c-81.2-81.3-213-81.3-294.3 0-81.3 81.3-81.3 213 0 294.3 37.7 37.7 89.7 61 147.1 61 57.5 0 109.5-23.3 147.1-61 37.7-37.7 61-89.7 61-147.1 0.1-57.5-23.2-109.6-60.9-147.2z" fill="#C06BE4" p-id="36756"></path><path d="M510.9 0C228.8 0 0 228.8 0 510.9s228.8 510.9 510.9 510.9 510.9-228.8 510.9-510.9S793.1 0 510.9 0z m-26.3 756.8c-75.2 0-143.2-30.5-192.5-79.7-49.3-49.3-79.8-117.3-79.8-192.5 0-150.3 121.9-272.2 272.2-272.2 150.3 0 272.2 121.9 272.2 272.2 0 75.2-30.5 143.2-79.8 192.5-49.1 49.2-117.2 79.7-192.3 79.7z m316 43.8c-6.7 6.7-16 10.9-26.3 10.9s-19.6-4.2-26.3-10.9L695.5 748c-6.7-6.7-10.9-16-10.9-26.3 0-20.5 16.6-37.1 37.1-37.1 10.3 0 19.5 4.2 26.3 10.9l52.6 52.5c6.8 6.7 10.9 16 10.9 26.3s-4.2 19.6-10.9 26.3z" fill="#C06BE4" p-id="36757"></path></svg>