<?xml version="1.0" standalone="no"?><!DOCTYPE svg PUBLIC "-//W3C//DTD SVG 1.1//EN" "http://www.w3.org/Graphics/SVG/1.1/DTD/svg11.dtd"><svg t="1638078770277" class="icon" viewBox="0 0 1024 1024" version="1.1" xmlns="http://www.w3.org/2000/svg" p-id="8173" xmlns:xlink="http://www.w3.org/1999/xlink" width="50" height="50"><defs><style type="text/css"></style></defs><path d="M439.9 359.2l-99.7-156.3h-81.4c-66.5 0-120.5 53.9-120.5 120.5v294.9h751.4V359.2H439.9z" fill="#2867CE" p-id="8174"></path><path d="M769.3 871.6H258.7c-92.9 0-168.5-75.6-168.5-168.5V323.3c0-92.9 75.6-168.5 168.5-168.5h81.4c16.4 0 31.7 8.4 40.5 22.2l85.5 134.1h423.5c26.6 0 48.1 21.5 48.1 48.1v343.9c0.1 92.9-75.5 168.5-168.4 168.5zM258.7 250.9c-39.9 0-72.4 32.5-72.4 72.4v379.8c0 39.9 32.5 72.4 72.4 72.4h510.5c39.9 0 72.4-32.5 72.4-72.4V407.3H439.9c-16.4 0-31.7-8.4-40.5-22.2L313.9 251h-55.2z" fill="#BDD2EF" p-id="8175"></path><path d="M840.2 272.7h-314l-69.6-109.2h383.6z" fill="#2867CE" p-id="8176"></path></svg>