<?xml version="1.0" standalone="no"?><!DOCTYPE svg PUBLIC "-//W3C//DTD SVG 1.1//EN" "http://www.w3.org/Graphics/SVG/1.1/DTD/svg11.dtd"><svg t="1638079002876" class="icon" viewBox="0 0 1024 1024" version="1.1" xmlns="http://www.w3.org/2000/svg" p-id="17673" xmlns:xlink="http://www.w3.org/1999/xlink" width="50" height="50"><defs><style type="text/css"></style></defs><path d="M389.2 904.7c-15.6 0-31.2-2.9-46-8.9-40.7-16.4-69.3-53.4-74.8-96.5-3.9-30.3-28.8-54.2-60.7-58.1-43.3-5.2-80.6-33.2-97.5-72.9C93.1 628 99.5 581.5 127 547.2c19-23.8 19-57 0-80.8-27.5-34.3-33.9-80.8-16.7-121.2 16.9-39.7 54.2-67.7 97.5-72.9 31.9-3.9 56.8-27.8 60.7-58.2 5.5-43.1 34.1-80 74.8-96.4 40-16.2 86.1-10 120.4 16.1 25.7 19.5 61.6 19.5 87.3 0 34.2-26 80.4-32.2 120.4-16 40.6 16.4 69.3 53.3 74.8 96.4 3.9 30.4 28.8 54.3 60.7 58.1 43.3 5.2 80.6 33.1 97.5 72.9 17.2 40.4 10.7 86.9-16.7 121.2-19 23.8-19 57 0 80.8 27.5 34.3 33.9 80.8 16.7 121.2-16.9 39.8-54.3 67.7-97.6 72.9-31.8 3.9-56.8 27.8-60.7 58.1-5.4 43-34.1 80-74.7 96.4-40 16.2-86.2 10-120.4-16-25.7-19.5-61.6-19.5-87.3 0-21.7 16.4-48 24.9-74.5 24.9z m118-165.4c40.3 0 80.7 12.2 114.9 36.6 13.7-81.2 78.2-144.7 160.6-158.4-23-32.3-35.5-71.2-35.5-110.6 0-39.5 12.5-78.4 35.5-110.6-82.4-13.7-146.9-77.3-160.6-158.4-34.3 24.4-74.6 36.6-114.9 36.6-40.3 0-80.7-12.2-114.9-36.6-13.7 81.1-78.1 144.7-160.6 158.4 23 32.3 35.5 71.2 35.5 110.6 0 39.5-12.5 78.4-35.5 110.6 82.4 13.7 146.9 77.3 160.6 158.4 34.3-24.5 74.6-36.6 114.9-36.6z" fill="#5F6165" p-id="17674"></path><path d="M507.2 465.1c23 0 41.7 18.7 41.7 41.7s-18.7 41.7-41.7 41.7c-23 0-41.7-18.7-41.7-41.7s18.7-41.7 41.7-41.7m0-114c-86 0-155.7 69.7-155.7 155.7s69.7 155.7 155.7 155.7S663 592.8 663 506.8s-69.8-155.7-155.8-155.7z" fill="#F65509" p-id="17675"></path></svg>