<?xml version="1.0" standalone="no"?><!DOCTYPE svg PUBLIC "-//W3C//DTD SVG 1.1//EN" "http://www.w3.org/Graphics/SVG/1.1/DTD/svg11.dtd"><svg t="1638078938146" class="icon" viewBox="0 0 1024 1024" version="1.1" xmlns="http://www.w3.org/2000/svg" p-id="15830" xmlns:xlink="http://www.w3.org/1999/xlink" width="50" height="50"><defs><style type="text/css"></style></defs><path d="M901.12 579.584c-20.48-40.96-34.816-83.968-65.536-120.832-16.384-16.384-38.912-22.528-60.6208-22.7328-2.6624 0.8192-2.8672 5.12-2.048 7.5776 2.2528 8.192-3.4816 16.1792-9.6256 21.9136-6.144 5.7344-13.312 11.4688-15.1552 19.6608-1.2288 5.3248 0 11.264-2.8672 15.7696-1.6384 2.4576-4.3008 4.096-6.7584 5.7344-15.1552 8.6016-31.744 14.1312-47.7184 21.0944-78.4384 33.5872-142.336 97.28-223.8464 122.2656-8.6016 2.6624-20.0704 7.3728-26.4192 1.024-10.24-10.24-28.672-6.144-30.72 6.144l-1.2288 4.9152c7.5776 27.648 21.9136 52.4288 38.7072 75.3664 1.4336 0.4096 2.8672 1.2288 4.096 2.6624 7.9872 7.9872 15.36 16.5888 23.3472 24.7808l1.4336 1.4336c9.4208 6.5536 19.456 12.4928 29.696 17.8176 59.392 24.576 120.832 18.432 184.32 30.72 30.72 6.144 57.344 16.384 83.968 34.816 10.24 6.144 24.576 16.384 36.864 6.144 0-12.288-2.048-26.624-4.096-38.912 0-16.384-4.096-34.816 10.24-49.152 18.432-18.432 38.912-32.768 55.296-53.248 12.288-16.384 22.528-32.768 30.72-51.2 10.24-26.4192 12.288-57.1392-2.048-83.7632z" fill="#DBF083" p-id="15831"></path><path d="M731.136 286.1056l-77.2096-73.5232L512 159.744h-133.9392l-138.6496 58.7776L154.4192 309.248l-16.7936 107.9296 9.8304 52.6336 40.5504 63.6928 62.464 66.1504 22.1184 24.576V663.552l-24.576 41.7792 8.6016 22.1184 34.4064-14.7456 74.752-36.864 52.6336-28.2624 93.5936-4.9152 83.1488-7.3728 100.5568-63.0784 57.5488-101.1712 15.9744-106.7008-38.0928-78.2336z m-10.4448 114.688c-11.4688 122.6752-128 185.7536-236.1344 212.1728-12.9024 3.072-18.2272-16.5888-5.5296-19.6608 97.8944-23.7568 210.7392-79.6672 221.184-192.3072 1.2288-13.312 21.7088-13.312 20.48-0.2048z" fill="#7EC3FC" p-id="15832"></path><path d="M262.9632 748.9536c-6.7584 0-13.5168-2.2528-19.2512-6.7584-9.8304-7.7824-13.9264-20.48-10.4448-32.5632 1.2288-4.5056 2.6624-9.216 4.096-13.9264 6.144-21.504 17.2032-60.416 15.5648-73.728-87.2448-50.176-139.264-131.072-139.264-217.2928 0-147.6608 150.528-267.6736 335.4624-267.6736S784.384 257.2288 784.384 404.6848s-150.528 267.6736-335.4624 267.6736c-13.5168 0-27.2384-0.6144-40.7552-2.048-10.8544 0.4096-50.176 25.3952-76.3904 41.984-18.2272 11.4688-37.0688 23.3472-53.8624 32.5632-4.7104 2.6624-9.8304 4.096-14.9504 4.096z m185.9584-570.9824c-162.4064 0-294.5024 101.5808-294.5024 226.7136 0 72.2944 45.4656 140.6976 121.856 183.5008 27.8528 15.5648 17.6128 58.1632 3.2768 108.544 10.0352-6.144 20.48-12.6976 30.72-19.0464 50.7904-32.1536 80.4864-50.176 102.1952-47.9232 12.0832 1.2288 24.576 1.6384 36.6592 1.6384 162.4064 0 294.5024-101.5808 294.5024-226.7136-0.2048-124.928-132.3008-226.7136-294.7072-226.7136z" fill="#888888" p-id="15833"></path><path d="M923.4432 616.2432c0-58.9824-30.9248-115.3024-84.992-155.0336-9.216-6.7584-21.9136-4.7104-28.672 4.5056-6.7584 9.216-4.7104 21.9136 4.5056 28.672 44.032 32.3584 68.1984 75.5712 68.1984 121.856 0 53.6576-33.9968 104.448-90.7264 136.3968-22.1184 12.288-17.6128 41.5744-7.9872 76.8l-13.1072-8.192c-39.936-25.1904-63.0784-39.1168-81.3056-37.4784-9.0112 0.8192-18.432 1.2288-27.648 1.2288-74.3424 0-143.36-28.4672-184.5248-76.3904-7.3728-8.6016-20.2752-9.4208-28.8768-2.2528-8.6016 7.3728-9.4208 20.2752-2.048 28.8768 0.8192 1.024 1.8432 2.048 2.6624 3.072 0.8192 0.4096 1.6384 1.024 2.4576 1.8432 4.5056 4.5056 8.8064 9.216 13.312 13.9264 49.3568 45.2608 121.0368 71.68 197.2224 71.68 10.24 0 20.6848-0.4096 30.72-1.4336 9.216 1.6384 37.4784 19.456 56.32 31.3344 14.1312 8.8064 28.4672 18.0224 41.5744 25.1904 4.3008 2.4576 9.216 3.6864 13.9264 3.6864 6.3488 0 12.4928-2.048 17.6128-6.3488 9.0112-7.168 12.9024-19.0464 9.8304-29.9008-1.024-3.4816-2.048-7.168-3.072-10.8544-4.096-14.7456-11.6736-40.96-11.8784-52.224 66.7648-39.1168 106.496-101.9904 106.496-168.96z" fill="#888888" p-id="15834"></path></svg>