<?xml version="1.0" standalone="no"?><!DOCTYPE svg PUBLIC "-//W3C//DTD SVG 1.1//EN" "http://www.w3.org/Graphics/SVG/1.1/DTD/svg11.dtd"><svg t="1638078831962" class="icon" viewBox="0 0 1024 1024" version="1.1" xmlns="http://www.w3.org/2000/svg" p-id="13501" xmlns:xlink="http://www.w3.org/1999/xlink" width="50" height="50"><defs><style type="text/css"></style></defs><path d="M545.571095 173.768649H120.736317c-33.335223 0-60.358693 27.024493-60.358693 60.358693V475.564159c0 33.335223 27.02347 60.358693 60.358693 60.358693h45.655829c1.532913 35.742039 3.676739 89.964988 3.676739 113.822349 0 26.833135 49.742914-62.275345 77.363996-113.822349h298.139237c33.336246 0 60.358693-27.02347 60.358693-60.358693V234.127342c0-33.335223-27.022447-60.358693-60.359716-60.358693z" fill="#B94694" p-id="13502"></path><path d="M172.998611 354.846774m-41.86755 0a41.86755 41.86755 0 1 0 83.7351 0 41.86755 41.86755 0 1 0-83.7351 0Z" fill="#FFFFFF" p-id="13503"></path><path d="M333.174684 354.846774m-41.86755 0a41.86755 41.86755 0 1 0 83.735099 0 41.86755 41.86755 0 1 0-83.735099 0Z" fill="#FFFFFF" p-id="13504"></path><path d="M493.349733 354.846774m-41.86755 0a41.86755 41.86755 0 1 0 83.7351 0 41.86755 41.86755 0 1 0-83.7351 0Z" fill="#FFFFFF" p-id="13505"></path><path d="M410.935722 273.840832h487.502049c38.253232 0 69.263503 31.010271 69.263504 69.263503v277.050944c0 38.253232-31.010271 69.261457-69.263504 69.261456h-52.390207c-1.759063 41.013089-4.219091 103.238292-4.219092 130.615827 0 30.789237-57.078996-71.462588-88.775906-130.615827H410.935722c-38.254256 0-69.263503-31.008224-69.263504-69.261456V343.104335c0.001023-38.254256 31.009248-69.263503 69.263504-69.263503z" fill="#E72F6C" p-id="13506"></path><path d="M790.424732 481.629295c0 26.533306 21.508873 48.040133 48.044226 48.040133 26.533306 0 48.042179-21.506826 48.042179-48.040133 0-26.536376-21.509896-48.045249-48.042179-48.045249-26.536376 0-48.044226 21.509896-48.044226 48.045249zM606.620519 481.629295c0 26.533306 21.51092 48.040133 48.044226 48.040133 26.530236 0 48.041156-21.506826 48.041156-48.040133 0-26.536376-21.51092-48.045249-48.041156-48.045249-26.53433 0-48.044226 21.509896-48.044226 48.045249zM422.816307 481.629295c0 26.533306 21.51092 48.040133 48.045249 48.040133s48.043203-21.506826 48.043203-48.040133c0-26.536376-21.509896-48.045249-48.043203-48.045249s-48.045249 21.509896-48.045249 48.045249z" fill="#FFFFFF" p-id="13507"></path></svg>