<?xml version="1.0" standalone="no"?><!DOCTYPE svg PUBLIC "-//W3C//DTD SVG 1.1//EN" "http://www.w3.org/Graphics/SVG/1.1/DTD/svg11.dtd"><svg t="1638078985052" class="icon" viewBox="0 0 1041 1024" version="1.1" xmlns="http://www.w3.org/2000/svg" p-id="15988" xmlns:xlink="http://www.w3.org/1999/xlink" width="50.830078125" height="50"><defs><style type="text/css"></style></defs><path d="M688.0256 416v320a80.042667 80.042667 0 0 1-96.170667 78.404267 80.162133 80.162133 0 0 1-63.829333-78.404267v-128h64a32.085333 32.085333 0 0 0 31.982933-32 32.085333 32.085333 0 0 0-31.982933-32h-64v-128a80.162133 80.162133 0 0 1 63.829333-78.404267c5.290667-0.955733 10.717867-1.5872 16.162134-1.5872a80.042667 80.042667 0 0 1 80.008533 79.991467z" fill="#EA6352" p-id="15989"></path><path d="M608.017067 816.008533c5.444267 0 10.888533-0.648533 16.162133-1.604266 2.781867-0.580267 5.393067-1.570133 8.072533-2.389334-32.494933-10.205867-56.234667-40.209067-56.234666-76.014933v-320c0-35.805867 23.739733-65.809067 56.234666-75.997867-2.679467-0.853333-5.290667-1.826133-8.072533-2.389333a80.042667 80.042667 0 0 0-96.1536 78.404267v319.982933a80.042667 80.042667 0 0 0 79.991467 80.008533z" fill="#F3A89F" p-id="15990"></path><path d="M576.017067 16.008533a31.982933 31.982933 0 1 1-32 32c0-17.6128 14.250667-32.017067 32-32.017066zM460.014933 112.469333c2.56 4.642133 4.010667 9.9328 4.010667 15.530667 0 5.751467-1.450667 11.042133-4.010667 15.684267a32.256 32.256 0 0 1-27.989333 16.315733 32 32 0 0 1 0-64c11.997867 0 22.391467 6.724267 27.989333 16.469333zM576.017067 176.008533a31.982933 31.982933 0 1 1 0 64 31.914667 31.914667 0 0 1-32-32 31.982933 31.982933 0 0 1 32-32.017066z" fill="#EA6352" p-id="15991"></path><path d="M925.781333 170.0864a62.395733 62.395733 0 0 1 0 88.149333l-5.614933 5.444267-88.149333 88.32-88.32-88.32-5.444267-5.461333a62.3616 62.3616 0 0 1 0-88.149334c24.1664-24.32 63.829333-24.32 88.32 0l5.444267 5.614934 5.444266-5.632a62.583467 62.583467 0 0 1 88.32 0.034133z" fill="#E8523F" p-id="15992"></path><path d="M925.781333 170.0864c-16.298667-16.2816-39.304533-21.4016-60.1088-15.889067 10.274133 2.730667 20.053333 7.8336 28.1088 15.872a62.395733 62.395733 0 0 1 0 88.1664l-5.614933 5.444267-72.157867 72.311467 16.008534 16.008533 88.149333-88.32 5.632-5.461333a62.378667 62.378667 0 0 0-0.017067-88.132267zM832.017067 640v16.008533H768.017067v-160.017066h64z" fill="#F3A89F" p-id="15993"></path><path d="M976.0256 512c17.6128 0 31.982933 14.250667 31.982933 32v80.008533c0 17.749333-14.370133 31.982933-31.982933 31.982934h-96.017067l-15.991466-15.991467H832.017067V512h48.008533l15.991467-55.995733c4.642133-16.162133 10.717867-24.0128 23.995733-24.0128 13.277867 0 24.0128 10.734933 24.0128 24.0128V512h31.982933z" fill="#E8523F" p-id="15994"></path><path d="M848.0256 768a96.068267 96.068267 0 0 1 95.982933 96 96.068267 96.068267 0 0 1-95.982933 96 95.982933 95.982933 0 0 1-96.017067-96A95.982933 95.982933 0 0 1 848.0256 768z" fill="#EA6352" p-id="15995"></path><path d="M848.0256 768c-5.461333 0-10.8032 0.5632-16.0256 1.4336a96.017067 96.017067 0 0 1 80.008533 94.5664 96.017067 96.017067 0 0 1-80.008533 94.549333c5.2224 0.887467 10.5472 1.450667 16.008533 1.450667a96.068267 96.068267 0 0 0 96.017067-96A96.068267 96.068267 0 0 0 848.008533 768z" fill="#F3A89F" p-id="15996"></path><path d="M310.101333 784.008533l25.9072 207.991467h-128l-31.982933-256h128l5.905067 48.008533z" fill="#EA6352" p-id="15997"></path><path d="M368.0256 736l15.991467 48.008533h-74.069334l-5.9392-48.008533z" fill="#FFFFFF" p-id="15998"></path><path d="M592.0256 544a32.085333 32.085333 0 0 1 31.982933 32 32.085333 32.085333 0 0 1-31.982933 32h-64v-64h64z" fill="#F3A89F" p-id="15999"></path><path d="M528.0256 736a80.162133 80.162133 0 0 0 63.829333 78.404267v1.5872h-63.829333a80.042667 80.042667 0 0 1-80.008533-79.991467v-320a80.042667 80.042667 0 0 1 80.008533-80.008533h63.829333v1.604266a80.162133 80.162133 0 0 0-63.829333 78.404267v320z" fill="#EA6352" p-id="16000"></path><path d="M37.461333 496.008533a159.880533 159.880533 0 0 1 138.564267-80.008533H448.017067v320H176.008533a159.880533 159.880533 0 0 1-138.5472-80.008533A159.5392 159.5392 0 0 1 16.0256 576c0-29.115733 7.850667-56.490667 21.435733-80.008533z" fill="#EA6352" p-id="16001"></path><path d="M528.0256 544h47.991467v64h-48.008534z" fill="#FFFFFF" p-id="16002"></path><path d="M976.0256 512h-32.017067c17.629867 0 32.017067 14.250667 32.017067 32v80.008533c0 17.749333-14.3872 31.982933-32.017067 31.982934h32.017067a31.982933 31.982933 0 0 0 31.982933-31.982934v-80.008533c0-17.749333-14.370133-32-31.982933-32z" fill="#F3A89F" p-id="16003"></path><path d="M832.017067 368.008533a15.957333 15.957333 0 0 1-11.3152-4.693333l-93.696-93.713067a77.687467 77.687467 0 0 1-22.9888-55.381333c0-20.9408 8.192-40.618667 22.9888-55.3984a77.4656 77.4656 0 0 1 55.330133-22.9376 77.994667 77.994667 0 0 1 49.681067 17.681067 78.0288 78.0288 0 0 1 49.698133-17.681067c20.992 0 40.6528 8.192 55.381333 23.005867a77.602133 77.602133 0 0 1 22.9376 55.330133c0 20.974933-8.157867 40.618667-22.971733 55.3984l-5.649067 5.546667-88.098133 88.1664a15.9232 15.9232 0 0 1-11.298133 4.6592zM782.353067 167.867733a45.738667 45.738667 0 0 0-32.699734 13.550934 45.909333 45.909333 0 0 0-13.636266 32.785066c0 12.407467 4.829867 24.029867 13.585066 32.733867l82.414934 82.432 82.5344-82.500267a45.909333 45.909333 0 0 0 13.482666-32.6656c0-12.373333-4.829867-24.0128-13.568-32.733866-17.493333-17.578667-48.0768-17.527467-65.672533 0l-5.512533 5.495466a15.957333 15.957333 0 0 1-22.562134 0l-5.495466-5.461333a46.199467 46.199467 0 0 0-32.887467-13.636267zM1008.0256 560.008533a15.9744 15.9744 0 0 1-16.008533-16.008533 16.008533 16.008533 0 0 0-16.008534-16.008533 15.9744 15.9744 0 1 1 0-32A48.059733 48.059733 0 0 1 1024.017067 544a15.9744 15.9744 0 0 1-16.008534 16.008533zM976.0256 672a15.9744 15.9744 0 1 1 0-32c8.823467 0 15.991467-7.168 15.991467-16.008533a15.9744 15.9744 0 1 1 32 0 48.059733 48.059733 0 0 1-48.008534 48.008533z" fill="#FFFFFF" p-id="16004"></path><path d="M1008.0256 640a15.9744 15.9744 0 0 1-16.008533-16.008533v-79.991467a15.9744 15.9744 0 1 1 32 0v80.008533a15.9744 15.9744 0 0 1-16.008534 15.991467zM976.0256 528.008533h-32.017067a15.9744 15.9744 0 1 1 0-32h32.017067a15.9744 15.9744 0 1 1 0 32zM976.0256 672h-96.017067a15.9744 15.9744 0 1 1 0-32h96.017067a15.9744 15.9744 0 1 1 0 32z" fill="#FFFFFF" p-id="16005"></path><path d="M944.0256 528.008533a15.9744 15.9744 0 0 1-16.008533-16.008533v-55.995733a15.9744 15.9744 0 1 1 32 0V512a15.9744 15.9744 0 0 1-16.008534 16.008533zM880.0256 528.008533a16.0256 16.0256 0 0 1-15.4112-20.3776l16.008533-56.0128a16.128 16.128 0 0 1 19.780267-11.008 16.0256 16.0256 0 0 1 11.008 19.780267l-16.008533 55.978667a16.008533 16.008533 0 0 1-15.36 11.6224z" fill="#FFFFFF" p-id="16006"></path><path d="M896.017067 471.995733a15.991467 15.991467 0 0 1-15.36-20.394666c2.7648-9.728 10.1888-35.601067 39.355733-35.601067a40.0384 40.0384 0 0 1 40.004267 40.004267 15.9744 15.9744 0 1 1-32 0 8.021333 8.021333 0 0 0-8.004267-8.004267c-2.935467 0-5.051733 0-8.618667 12.3904a15.9744 15.9744 0 0 1-15.377066 11.605333zM880.0256 672a15.9744 15.9744 0 0 1-11.3152-4.693333l-16.008533-15.991467a15.9744 15.9744 0 1 1 22.6304-22.6304l15.991466 16.008533a15.9744 15.9744 0 0 1-11.3152 27.306667zM880.0256 528.008533H832.017067a15.9744 15.9744 0 1 1 0-32h48.008533a15.9744 15.9744 0 1 1 0 32z" fill="#FFFFFF" p-id="16007"></path><path d="M864.017067 656.008533H832.017067a15.9744 15.9744 0 1 1 0-32.017066h32a15.9744 15.9744 0 1 1 0 32.017066z" fill="#FFFFFF" p-id="16008"></path><path d="M832.017067 672H768.017067a15.9744 15.9744 0 0 1-16.008534-16.008533v-159.982934c0-8.874667 7.168-16.008533 16.008534-16.008533h64c8.8576 0 16.008533 7.150933 16.008533 16.008533v160a15.9744 15.9744 0 0 1-16.008533 15.991467zM784.008533 640h32.017067V512h-32.017067v128zM848.0256 976.008533a112.145067 112.145067 0 0 1-112.008533-112.008533 112.145067 112.145067 0 0 1 112.008533-112.008533 112.145067 112.145067 0 0 1 111.991467 112.008533 112.145067 112.145067 0 0 1-112.008534 112.008533z m0-192A80.093867 80.093867 0 0 0 768.017067 863.982933a80.093867 80.093867 0 0 0 80.008533 80.008534 80.093867 80.093867 0 0 0 79.991467-80.008534 80.093867 80.093867 0 0 0-80.008534-80.008533z" fill="#FFFFFF" p-id="16009"></path><path d="M848.0256 912.008533a15.9744 15.9744 0 0 1-16.008533-16.008533v-64a15.9744 15.9744 0 1 1 32 0v64a15.9744 15.9744 0 0 1-16.008534 16.008533z" fill="#FFFFFF" p-id="16010"></path><path d="M880.0256 880.008533h-64a15.9744 15.9744 0 1 1 0-32.017066h64a15.9744 15.9744 0 1 1 0 32.017066zM432.0256 176.008533A48.059733 48.059733 0 0 1 384.017067 128a48.059733 48.059733 0 0 1 48.008533-48.008533A48.059733 48.059733 0 0 1 480.017067 128a48.059733 48.059733 0 0 1-48.008534 48.008533z m0-64a16.008533 16.008533 0 1 0 0 32.017067 16.008533 16.008533 0 0 0 0-32.034133zM576.017067 96a48.059733 48.059733 0 0 1-48.008534-48.008533A48.059733 48.059733 0 0 1 576.017067 0a48.059733 48.059733 0 0 1 48.008533 48.008533 48.059733 48.059733 0 0 1-48.008533 47.991467z m0-64a16.008533 16.008533 0 1 0 0.017066 32.017067 16.008533 16.008533 0 0 0-0.017066-32.017067zM576.017067 256a48.059733 48.059733 0 0 1-48.008534-48.008533 48.059733 48.059733 0 0 1 48.008534-47.991467 48.059733 48.059733 0 0 1 48.008533 48.008533A48.059733 48.059733 0 0 1 576.017067 256z m0-64a16.008533 16.008533 0 1 0 0.017066 32.017067 16.008533 16.008533 0 0 0-0.017066-32.017067z" fill="#FFFFFF" p-id="16011"></path><path d="M548.027733 208.469333a15.752533 15.752533 0 0 1-7.7312-2.030933L452.1984 157.525333a15.991467 15.991467 0 1 1 15.5136-27.972266l88.098133 48.9472a15.991467 15.991467 0 0 1-7.7824 29.986133z" fill="#FFFFFF" p-id="16012"></path><path d="M459.997867 128.4608a16.008533 16.008533 0 0 1-7.765334-29.986133l88.081067-48.930134a15.957333 15.957333 0 0 1 21.742933 6.212267 15.9744 15.9744 0 0 1-6.212266 21.742933L467.746133 126.464a15.752533 15.752533 0 0 1-7.748266 2.013867zM688.0256 432.0256a15.9744 15.9744 0 0 1-16.008533-15.991467 64.1024 64.1024 0 0 0-64.034134-64.034133 64.085333 64.085333 0 0 0-64 64.034133 15.991467 15.991467 0 1 1-32.017066 0 96.119467 96.119467 0 0 1 96.017066-96.034133 96.136533 96.136533 0 0 1 96.034134 96.034133 15.9744 15.9744 0 0 1-16.008534 15.991467zM608.017067 832A96.085333 96.085333 0 0 1 512.017067 736a15.9744 15.9744 0 1 1 32 0 64.068267 64.068267 0 0 0 64 64 64.068267 64.068267 0 0 0 64-64 15.9744 15.9744 0 1 1 32 0 96.085333 96.085333 0 0 1-96 96z" fill="#FFFFFF" p-id="16013"></path><path d="M528.0256 752.008533a15.9744 15.9744 0 0 1-16.008533-16.008533v-320a15.9744 15.9744 0 1 1 32 0v320a15.9744 15.9744 0 0 1-16.008534 16.008533zM448.017067 432.0256a15.9744 15.9744 0 0 1-16.008534-15.991467 96.119467 96.119467 0 0 1 96-96.034133 15.9744 15.9744 0 1 1 0 32 64.085333 64.085333 0 0 0-64 64.034133c0 8.840533-7.168 15.991467-16.008533 15.991467zM528.059733 832a96.085333 96.085333 0 0 1-96.017066-96 15.991467 15.991467 0 1 1 32 0 64.068267 64.068267 0 0 0 64 64 15.9744 15.9744 0 1 1 0 32z" fill="#FFFFFF" p-id="16014"></path><path d="M448.0512 752.008533a15.991467 15.991467 0 0 1-16.008533-16.008533v-320a15.991467 15.991467 0 1 1 32 0v320a15.9744 15.9744 0 0 1-15.991467 16.008533zM688.0256 752.008533a15.9744 15.9744 0 0 1-16.008533-16.008533v-320a15.9744 15.9744 0 1 1 32 0v320a15.9744 15.9744 0 0 1-16.008534 16.008533zM592.0256 832h-64a15.9744 15.9744 0 1 1 0-32h64a15.9744 15.9744 0 1 1 0 32zM592.0256 352h-64a15.9744 15.9744 0 1 1 0-32h64a15.9744 15.9744 0 1 1 0 32z" fill="#FFFFFF" p-id="16015"></path><path d="M448.017067 432.008533H175.991467a15.9744 15.9744 0 1 1 0-32H448.017067a15.991467 15.991467 0 1 1 0 32zM448.0512 752.008533h-272.042667a15.9744 15.9744 0 1 1 0-32h272.042667a15.991467 15.991467 0 1 1 0 32z" fill="#FFFFFF" p-id="16016"></path><path d="M176.0256 752.008533C78.984533 752.008533 0.017067 673.058133 0.017067 576c0-97.041067 78.967467-176.008533 176.008533-176.008533a15.9744 15.9744 0 1 1 0 32c-79.4112 0-144.008533 64.597333-144.008533 144.008533 0 79.4112 64.597333 144.008533 144.008533 144.008533a15.991467 15.991467 0 1 1 0 32z" fill="#FFFFFF" p-id="16017"></path><path d="M208.008533 1008.008533a16.008533 16.008533 0 0 1-15.872-14.0288L160.136533 737.9968a16.008533 16.008533 0 0 1 31.744-3.959467l32.017067 255.982934a16.008533 16.008533 0 0 1-15.889067 17.9712zM336.008533 1008.008533a16.008533 16.008533 0 0 1-15.872-14.0288l-32-255.982933a16.008533 16.008533 0 0 1 31.744-3.959467l32.017067 255.982934a16.008533 16.008533 0 0 1-15.889067 17.9712z" fill="#FFFFFF" p-id="16018"></path><path d="M352.017067 1008.008533h-144.008534a15.9744 15.9744 0 1 1 0-32.017066h144.008534a15.9744 15.9744 0 1 1 0 32.017066zM384.017067 800a15.991467 15.991467 0 0 1-15.172267-10.939733l-15.991467-47.991467a15.991467 15.991467 0 1 1 30.344534-10.120533l16.008533 47.9744a15.991467 15.991467 0 0 1-15.189333 21.077333z" fill="#FFFFFF" p-id="16019"></path><path d="M384.017067 800h-74.001067a15.9744 15.9744 0 1 1 0-32H384.017067a15.9744 15.9744 0 1 1 0 32zM592.0256 624.008533a15.9744 15.9744 0 1 1 0-32.017066 16.008533 16.008533 0 0 0 0-31.982934 15.9744 15.9744 0 1 1 0-32.017066A48.059733 48.059733 0 0 1 640.017067 576a48.059733 48.059733 0 0 1-48.008534 48.008533z" fill="#FFFFFF" p-id="16020"></path><path d="M592.0256 624.008533h-64a15.9744 15.9744 0 1 1 0-32.017066h64a15.9744 15.9744 0 1 1 0 32.017066zM592.0256 560.008533h-64a15.9744 15.9744 0 1 1 0-32.017066h64a15.9744 15.9744 0 1 1 0 32zM96.017067 592.008533H16.008533a15.9744 15.9744 0 1 1 0-32.017066h80.008534a15.9744 15.9744 0 1 1 0 32.017066zM96.017067 512H37.444267a15.991467 15.991467 0 1 1 0-32h58.5728a15.9744 15.9744 0 1 1 0 32zM96.017067 672H37.444267a15.991467 15.991467 0 1 1 0-32h58.5728a15.9744 15.9744 0 1 1 0 32z" fill="#FFFFFF" p-id="16021"></path></svg>