<?xml version="1.0" standalone="no"?><!DOCTYPE svg PUBLIC "-//W3C//DTD SVG 1.1//EN" "http://www.w3.org/Graphics/SVG/1.1/DTD/svg11.dtd"><svg t="1638079049888" class="icon" viewBox="0 0 1024 1024" version="1.1" xmlns="http://www.w3.org/2000/svg" p-id="20918" xmlns:xlink="http://www.w3.org/1999/xlink" width="50" height="50"><defs><style type="text/css"></style></defs><path d="M791.2448 469.8624c-1.0752-7.936-6.9632-14.1312-14.6432-16.384-28.0064-8.1408-48.4864-33.9456-48.4864-64.5632 0-11.776 3.0208-22.8864 8.3456-32.512 3.8912-7.0656 3.584-15.7184-1.28-22.1184-15.36-20.224-33.3824-38.3488-53.4528-53.9136-6.4512-4.9664-15.2064-5.3248-22.3232-1.3312a67.0208 67.0208 0 0 1-32.6656 8.4992c-30.976 0-56.9856-20.9408-64.8192-49.408-2.1504-7.7824-8.3968-13.8752-16.384-14.9504-13.0048-1.792-26.2144-2.7648-39.7312-2.7648-12.4416 0-24.6784 0.8192-36.6592 2.4064-8.0384 1.024-14.2848 7.1168-16.384 14.8992-7.68 28.7232-33.792 49.8688-64.9216 49.8688-12.4416 0-24.0128-3.3792-33.9968-9.2672-7.1168-4.1984-16.0256-3.9424-22.5792 1.024a289.536 289.536 0 0 0-53.1456 52.736c-5.12 6.6048-5.3248 15.5648-1.0752 22.7328 5.9392 9.984 9.3696 21.6576 9.3696 34.1504 0 31.488-21.6576 57.9072-50.944 65.1776-7.936 1.9968-14.1824 8.2432-15.2576 16.384-1.6384 12.3904-2.5088 25.0368-2.5088 37.888 0 12.8512 0.8704 25.4976 2.5088 37.888 1.0752 8.1408 7.2704 14.3872 15.2576 16.384 29.2352 7.2704 50.944 33.6896 50.944 65.1776 0 12.4928-3.4304 24.1664-9.3696 34.1504-4.2496 7.168-4.0448 16.1792 1.0752 22.7328 15.36 19.7632 33.2288 37.5296 53.1456 52.736 6.5536 5.0176 15.4624 5.2224 22.5792 1.024 9.984-5.888 21.6064-9.2672 33.9968-9.2672 31.1296 0 57.2416 21.1456 64.9216 49.8688 2.0992 7.8336 8.3456 13.8752 16.384 14.8992 12.032 1.536 24.2688 2.4064 36.6592 2.4064 13.4656 0 26.7264-0.9728 39.7312-2.7648 8.0384-1.1264 14.2336-7.168 16.384-14.9504 7.7824-28.4672 33.8432-49.408 64.8192-49.408 11.8784 0 22.9888 3.072 32.6656 8.4992 7.1168 3.9936 15.872 3.6352 22.3232-1.3312 20.1216-15.5136 38.0928-33.6896 53.4528-53.9136 4.864-6.4 5.2224-15.0528 1.28-22.1184a67.02592 67.02592 0 0 1-8.3456-32.512c0-30.6176 20.48-56.4736 48.4864-64.5632 7.68-2.2528 13.6192-8.448 14.6432-16.384 1.6896-12.5952 2.56-25.4464 2.56-38.4512 0-13.2096-0.8704-26.0608-2.56-38.656zM505.856 637.9008c-71.5264 0-129.536-58.0096-129.536-129.536 0-71.5776 58.0096-129.536 129.536-129.536 71.5776 0 129.536 58.0096 129.536 129.536s-58.0096 129.536-129.536 129.536z" fill="#96e9ff" p-id="20919"></path><path d="M505.8048 661.1456c-84.224 0-152.7808-68.5568-152.7808-152.7808s68.5056-152.7808 152.7808-152.7808 152.7808 68.5568 152.7808 152.7808-68.5056 152.7808-152.7808 152.7808z m0-264.6016c-61.6448 0-111.8208 50.176-111.8208 111.8208s50.176 111.8208 111.8208 111.8208 111.8208-50.176 111.8208-111.8208-50.1248-111.8208-111.8208-111.8208z" fill="#55524F" p-id="20920"></path><path d="M505.8048 885.1968c-21.9648 0-44.3904-1.9968-66.6112-5.9904a20.46976 20.46976 0 0 1-16.8448-18.7392c-2.2528-32.7168-29.696-58.368-62.5152-58.368-15.2576 0-30.0032 5.632-41.5232 15.8208a20.49024 20.49024 0 0 1-25.1392 1.5872 378.4192 378.4192 0 0 1-96.8704-96.1536 20.49536 20.49536 0 0 1 1.536-25.344 62.72 62.72 0 0 0 16.0768-41.7792c0-33.4336-26.1632-60.928-59.5968-62.5664a20.54656 20.54656 0 0 1-19.1488-16.7424c-4.1472-22.528-6.2464-45.568-6.2464-68.5056s2.0992-45.9264 6.2464-68.5056a20.44928 20.44928 0 0 1 19.1488-16.7424c33.4336-1.6384 59.5968-29.1328 59.5968-62.5664 0-15.4112-5.6832-30.208-16.0768-41.7792a20.4288 20.4288 0 0 1-1.536-25.344 376.79104 376.79104 0 0 1 96.8704-96.1536 20.41856 20.41856 0 0 1 25.1392 1.5872c11.52 10.1888 26.2656 15.8208 41.5232 15.8208 32.8192 0 60.2624-25.6512 62.5152-58.368a20.46976 20.46976 0 0 1 16.8448-18.7392c45.9264-8.192 91.6992-7.8848 137.1648 0.7168 9.1136 1.7408 15.9232 9.3184 16.5888 18.5344 2.5088 32.4608 29.952 57.9072 62.464 57.9072 14.6944 0 29.0304-5.2224 40.3456-14.6944a20.5312 20.5312 0 0 1 24.8832-1.1264 378.39872 378.39872 0 0 1 96.3584 97.0752 20.5312 20.5312 0 0 1-1.1264 24.6784 62.77632 62.77632 0 0 0-14.4384 40.0384 62.464 62.464 0 0 0 56.7808 62.464c9.1136 0.8704 16.5888 7.68 18.2272 16.6912 4.1472 22.5792 6.2976 45.6704 6.2976 68.6592s-2.0992 46.08-6.2976 68.6592a20.49536 20.49536 0 0 1-18.2272 16.6912c-32.3584 3.0208-56.7808 29.9008-56.7808 62.464 0 14.592 5.12 28.8256 14.4384 40.0384a20.5312 20.5312 0 0 1 1.1264 24.6784 378.39872 378.39872 0 0 1-96.3584 97.0752 20.5312 20.5312 0 0 1-24.8832-1.1264c-11.3152-9.472-25.6-14.6944-40.3456-14.6944-32.5632 0-60.0064 25.4464-62.464 57.9072a20.45952 20.45952 0 0 1-16.5888 18.5344c-23.4496 4.1472-47.1552 6.4-70.5536 6.4z m-45.056-44.032c31.5904 4.3008 62.6176 4.096 93.952-0.512 11.008-45.7216 52.48-79.5136 100.7616-79.5136 18.8416 0 37.3248 5.1712 53.3504 14.7968 25.1392-19.0464 47.3088-41.472 66.2016-66.7648-9.472-15.9232-14.592-34.304-14.592-52.992 0-48.3328 32.5632-89.0368 77.9776-100.5056 2.2016-15.6672 3.328-31.488 3.328-47.3088s-1.1264-31.6416-3.328-47.3088c-45.4144-11.4688-77.9776-52.1728-77.9776-100.5056 0-18.7392 5.12-37.0688 14.592-52.992a336.60928 336.60928 0 0 0-66.2016-66.7648 103.76704 103.76704 0 0 1-53.3504 14.7968c-48.2816 0-89.7536-33.8432-100.7616-79.5136-31.2832-4.608-62.3616-4.8128-93.952-0.512-10.8032 46.0288-52.2752 80.0256-100.9152 80.0256-19.712 0-38.8608-5.632-55.3472-16.0768A336.36352 336.36352 0 0 0 238.592 304.896c10.5984 16.5376 16.2816 35.84 16.2816 55.6544 0 49.5104-34.7648 91.1872-81.7152 101.2736a337.46944 337.46944 0 0 0 0 93.0816c47.0016 10.0864 81.7152 51.7632 81.7152 101.2736 0 19.8144-5.6832 39.1168-16.2816 55.6544 18.8928 24.832 41.0112 46.7456 65.8944 65.3824 16.4864-10.4448 35.6352-16.0768 55.3472-16.0768 48.64 0 90.112 33.9968 100.9152 80.0256z" fill="#55524F" p-id="20921"></path></svg>