<?xml version="1.0" standalone="no"?><!DOCTYPE svg PUBLIC "-//W3C//DTD SVG 1.1//EN" "http://www.w3.org/Graphics/SVG/1.1/DTD/svg11.dtd"><svg t="1637568489298" class="icon" viewBox="0 0 1024 1024" version="1.1" xmlns="http://www.w3.org/2000/svg" p-id="7948" xmlns:xlink="http://www.w3.org/1999/xlink" width="50" height="50"><defs><style type="text/css"></style></defs><path d="M702.642951 849.126649c18.048249-33.373452 103.377274-28.11228 125.474797-57.534882 64.62633-86.048808 131.453763-175.02546 66.302508-333.270245-27.853794-67.654586-37.532085-93.335115-55.682734-183.035526C816.946206 167.595992 753.296155 87.982478 654.668054 45.051029 581.165732 13.058485 514.905973 12.675728 512.004971 12.675728h-0.010936c-2.907961 0-69.165732 0.383751-142.663084 32.375301C270.70285 87.982478 207.0528 167.595992 185.261483 275.28699c-18.150649 89.700412-27.829934 115.38094-55.682733 183.035527-65.15026 158.244784 1.677173 247.221437 66.302508 333.270244 22.097522 29.423596 108.71301 19.663783 126.761259 53.037235-61.663689 24.687348 441.711845 29.204878 380.000434 4.496653z" fill="" p-id="7949"></path><path d="M542.558944 878.149592h-0.021872c-55.014649 0-110.483635-1.564831-152.19026-4.290858-78.034765-5.103099-83.248217-11.863487-85.292241-22.472326-0.310183-1.613546-0.518959-4.270975 0.482175-7.213732-10.916039-7.862928-31.843417-12.090159-50.74268-15.90282-27.304016-5.510711-55.538579-11.20932-68.983798-29.114407-63.635138-84.721584-135.757546-180.750913-67.876287-345.628832 27.505833-66.816497 37.061841-92.176901 54.98184-180.74097C195.559146 160.891278 261.740365 78.148101 364.302416 33.503689 440.216606 0.45732 509.098998 0.07854 511.995029 0.07854c2.896031 0 71.783394 0.378781 147.699573 33.425149 102.564039 44.644412 168.745258 127.387588 191.389577 239.280963 17.920994 88.565064 27.476008 113.925468 54.984823 180.740971 67.87927 164.877918-4.244132 260.907247-67.87927 345.628831-13.226501 17.615783-39.637748 24.135581-67.598913 31.03416-18.912186 4.669639-39.856466 9.841336-50.834143 18.250066 0.98125 2.784683 0.858967 5.407317 0.487145 7.337009-2.120575 11.002532-4.321678 22.373903-177.684877 22.373903z m-206.48115-35.157002c28.851946 5.205499 108.483355 9.963619 206.458284 9.96362 80.525173 0 127.304078-3.203231 147.104062-6.264295l1.92174-3.557158c12.100101-22.373903 43.054726-30.01513 72.989328-37.400854 21.4016-5.285033 45.657476-11.272948 53.493561-21.704823 65.386874-87.058889 127.148986-169.29106 64.727736-320.907682-28.206726-68.513553-38.006307-94.524148-56.379651-185.337041-20.942291-103.479674-82.060179-179.96452-176.751347-221.184-71.163029-30.974509-134.955247-31.328435-137.636536-31.328435-2.681289 0-66.488419 0.353926-137.647472 31.329429-94.691169 41.21948-155.809056 117.704326-176.751348 221.183006-18.373344 90.813887-28.172924 116.823487-56.37965 185.337041-62.422245 151.616621-0.659138 233.848792 64.727736 320.907682 7.685965 10.235029 32.197344 15.180054 53.823627 19.544481 30.342214 6.126105 61.720357 12.458998 73.945724 35.06355l2.354206 4.355479z" fill="" p-id="7950"></path><path d="M512 400.76974m-296.91228 0a296.91228 296.91228 0 1 0 593.82456 0 296.91228 296.91228 0 1 0-593.82456 0Z" fill="#F8EDD2" p-id="7951"></path><path d="M512 710.280202c-170.664016 0-309.509468-138.847441-309.509468-309.512451S341.33499 91.261266 512 91.261266s309.509468 138.843464 309.509468 309.50748S682.664016 710.280202 512 710.280202z m0-593.825553c-156.773406 0-284.316085 127.540691-284.316085 284.314097S355.226594 685.086819 512 685.086819s284.316085-127.545662 284.316085-284.319068S668.773406 116.454649 512 116.454649z" fill="" p-id="7952"></path><path d="M577.394827 550.758897c-8.126384 44.821375-26.066268 98.24932-65.396815 98.24932-39.332536 0-57.269437-53.427946-65.393833-98.24932-9.05395-49.966229-3.42195-83.369507 17.21513-102.120637 11.812784-10.731122 28.02181-16.173235 48.179697-16.173235 20.158882 0 36.367907 5.442113 48.182679 16.175224 20.635091 18.750136 26.268085 52.153414 17.213142 102.118648z" fill="#1A1A1A" p-id="7953"></path><path d="M511.997017 661.6064c-26.506687 0-61.519534-18.840606-77.789203-108.596691-9.893033-54.598089-2.976559-91.783208 21.139137-113.693826 14.205763-12.901406 33.265087-19.446058 56.650066-19.446058s42.447285 6.544652 56.653049 19.446058c24.117685 21.911612 31.031177 59.100707 21.141126 113.688855-16.274641 89.761056-51.287487 108.601662-77.794175 108.601662z m0-216.543192c-16.923837 0-30.285546 4.339573-39.708334 12.901406-17.16045 15.58866-21.507977 45.205126-13.290128 90.552419 5.949142 32.824668 20.747433 87.895984 52.999457 87.895984s47.052303-55.070322 53.004427-87.900955c8.214866-45.338346 3.86734-74.959783-13.293111-90.547448-9.423783-8.561833-22.785491-12.901406-39.712311-12.901406z" fill="" p-id="7954"></path><path d="M371.685157 417.372458c-8.032932 0-16.300489-1.192016-24.574011-3.542244a15.13134 15.13134 0 0 1-0.321119-0.095441c-0.851014-0.266439-20.960186-6.708691-29.077623-24.518338-6.048559-13.271239-3.878276-28.684924 6.452194-45.814555 10.525328-17.448761 21.214695-28.500008 30.643449-38.24988 14.330035-14.816186 26.721429-27.628117 35.789297-60.721212 1.363014-15.389825 13.4144-42.921507 50.446415-42.921506 12.374493 0 22.482268 3.54125 30.041973 10.524334 18.045266 16.669328 15.256606 48.559472 13.223518 71.846027-2.578889 29.438509-35.862866 133.492816-112.624093 133.492815z" fill="#1A1A1A" p-id="7955"></path><path d="M371.685157 429.966664c-9.191146 0-18.616917-1.353072-28.009879-4.015472l-0.784404-0.241584c-2.541111-0.792357-26.396334-8.793476-36.640311-31.269779-5.41527-11.883371-8.573763-31.511363 7.130221-57.545817 11.261017-18.668614 22.474315-30.266656 32.369336-40.495721 13.52873-13.984062 24.240963-25.060163 32.421033-54.292877 2.841351-25.85252 23.518198-53.191332 62.874595-53.191332 15.647317 0 28.630245 4.664668 38.586904 13.865755 22.585662 20.857786 19.487814 56.311052 17.227061 82.192404-3.255922 37.165235-40.391332 144.994423-125.174556 144.994423z m69.360591-215.8592c-34.131014 0-37.614602 28.21468-37.900925 31.432823l-0.398664 2.214028c-9.919876 36.209833-23.987449 50.755604-38.884163 66.156365-9.405887 9.723029-19.125934 19.776124-28.910602 35.994097-8.054804 13.35475-9.998416 24.824544-5.777149 34.084287 5.757266 12.63099 21.227619 17.674439 21.38271 17.724148 7.149111 2.032093 14.262431 3.061064 21.129196 3.061064 67.037204 0 97.812878-96.162548 100.076614-121.990214 1.805421-20.690765 4.280917-49.023751-9.223953-61.501639-5.228365-4.827713-12.257181-7.174959-21.493064-7.174959z" fill="" p-id="7956"></path><path d="M677.208979 413.733779a15.13134 15.13134 0 0 1-0.321119 0.09544c-8.273522 2.350229-16.539091 3.542245-24.565064 3.542245h-0.010936c-76.754268-0.008948-110.043216-104.056295-112.624093-133.491821-2.034082-23.285561-4.822742-55.174711 13.225507-71.846027 7.558711-6.985072 17.668474-10.525328 30.043961-10.525329 37.029033 0 49.079425 27.531682 50.441445 42.921507 9.067868 33.092101 21.458268 45.902043 35.788303 60.719223 9.430742 9.750866 20.119115 20.803107 30.643448 38.252863 10.331464 17.128637 12.503736 32.542322 6.455177 45.813561-8.115449 17.810641-28.225616 24.252893-29.076629 24.518338z" fill="#1A1A1A" p-id="7957"></path><path d="M652.32379 429.966664c-84.783223-0.004971-121.926586-107.829188-125.183503-144.983487-2.260753-25.906206-5.353631-61.344559 17.227061-82.202346 9.95666-9.201087 22.941577-13.865755 38.591875-13.865755 39.352419 0 60.025289 27.338812 62.867635 53.191332 8.18007 29.232715 18.892303 40.303845 32.417057 54.282936 9.899992 10.24 21.114283 21.837049 32.374306 40.505662 15.705973 26.029483 12.54748 45.662447 7.13221 57.545817-10.241988 22.472326-34.0992 30.477421-36.786454 31.319488l-0.637266 0.191875c-9.393957 2.661406-18.813763 4.014478-28.002921 4.014478z m-69.364567-215.8592c-9.235883 0-16.267682 2.347247-21.495052 7.178936-13.506858 12.473911-11.034346 40.795961-9.228924 61.476784 2.265724 25.84755 33.048357 122.005126 100.078602 122.010098v12.596194l0.009941-12.596194c6.863783 0 13.96915-1.027977 21.124226-3.061065 0.152109-0.048715 15.622462-5.093157 21.377739-17.719176 4.22226-9.265709 2.275666-20.735503-5.779138-34.089258-9.784668-16.222944-19.507697-26.276039-28.908613-35.994098-14.899697-15.405732-28.96727-29.951503-38.887146-66.151394l-0.398664-2.218998c-0.285328-3.21715-3.769911-31.431829-37.892971-31.431829z" fill="" p-id="7958"></path><path d="M769.729864 1009.087379c0-142.16699-114.012955-254.655876-254.655876-254.655876S260.419107 866.920388 260.419107 1009.087379H769.729864z" fill="#1A1A1A" p-id="7959"></path><path d="M775.456311 1024H236.613592v-14.220676c0-149.859915 119.561445-267.254058 269.421359-267.254058s269.421359 117.394144 269.42136 267.254058V1024z m-502.132816-29.825243h483.502975c-6.339852-127.254369-110.24205-229.464482-241.751487-229.464481S279.663348 866.920388 273.323495 994.174757z" fill="" p-id="7960"></path><path d="M307.877033 486.906035m-20.769305 0a20.769305 20.769305 0 1 0 41.53861 0 20.769305 20.769305 0 1 0-41.53861 0Z" fill="#FFFFFF" p-id="7961"></path></svg>