<?xml version="1.0" standalone="no"?><!DOCTYPE svg PUBLIC "-//W3C//DTD SVG 1.1//EN" "http://www.w3.org/Graphics/SVG/1.1/DTD/svg11.dtd"><svg t="1637568501149" class="icon" viewBox="0 0 1024 1024" version="1.1" xmlns="http://www.w3.org/2000/svg" p-id="8267" xmlns:xlink="http://www.w3.org/1999/xlink" width="50" height="50"><defs><style type="text/css"></style></defs><path d="M500.30814 897.509969s59.080134-127.53575-26.854788-182.985858-260.87794-132.647377-273.916439-329.929396c-8.987586-135.980482 28.062464-371.556217 288.564505-372.951842C814.476768 9.894343 768.811032 258.144674 814.197843 412.289278c54.011495 183.437737-82.443859 218.35536-137.32712 262.882401-69.317384 56.238897-7.343028 129.533213-77.164277 151.713257s-99.398306 70.625033-99.398306 70.625033z" fill="#F8EDD2" p-id="8268"></path><path d="M510.238473 903.572341l-20.491497-10.943061c0.547853-1.185682 53.746566-119.064025-22.599931-168.327795-10.743115-6.930139-23.095798-14.329152-36.175284-22.159049-92.089269-55.130195-231.256895-138.451818-243.04373-316.776928-3.880958-58.739225-3.297115-205.688761 85.747972-301.325077C325.138183 28.767274 397.261813 0.494867 488.039435 0.008998L491.5215 0c118.575156 0 199.887319 32.871172 248.583241 100.499011 42.428606 58.921176 54.010495 133.97502 65.208488 206.561526 5.646484 36.593173 10.982051 71.15989 20.046617 101.944623 46.623479 158.343476-45.01891 214.450408-105.659625 251.584436-13.386405 8.1938-26.02901 15.93772-35.497467 23.618657-30.357847 24.627386-32.237343 52.517896-34.054854 79.489652-1.915486 28.435364-4.087902 60.670707-46.9184 74.277053-64.928563 20.623461-92.7191 65.151503-92.991027 65.597383z m-18.716973-880.30359l-3.358099 0.008998c-84.107413 0.449879-150.540572 26.226957-197.458971 76.617424-82.861747 88.997099-83.241645 228.211713-79.557634 283.933748C222.127847 549.988298 354.999163 629.536935 442.923551 682.176798c13.252441 7.934869 25.76808 15.428857 36.838107 22.572938 53.858536 34.752667 57.607529 97.563799 47.298298 147.627354 16.699515-13.302428 39.483397-27.162705 69.123436-36.579176 26.544871-8.434735 28.706291-23.368724 30.746743-53.662589 1.949476-28.949226 4.378824-64.97855 42.610557-95.99522 10.664136-8.652676 23.947569-16.783493 38.008792-25.39518 61.070599-37.392958 137.074188-83.92946 95.486357-225.166531-9.500449-32.275332-14.948985-67.587849-20.718436-104.971809-21.796147-141.265063-44.338093-287.337834-290.795905-287.337834z" fill="" p-id="8269"></path><path d="M321.129259 320.737864a103.322252 57.546546 90 1 0 115.093091 0 103.322252 57.546546 90 1 0-115.093091 0Z" fill="#1A1A1A" p-id="8270"></path><path d="M378.675805 435.695992c-38.792582 0-69.180421-50.495439-69.180421-114.956128 0-64.465687 30.387839-114.960127 69.180421-114.960127s69.180421 50.495439 69.180421 114.960127c0 64.460689-30.386839 114.956128-69.180421 114.956128z m0-206.647504c-21.716168 0-45.91167 37.656887-45.91167 91.692376 0 54.03049 24.195502 91.687377 45.91167 91.687376s45.91167-37.656887 45.91167-91.687376c0.001-54.036488-24.194502-91.692376-45.91167-91.692376z" fill="" p-id="8271"></path><path d="M551.315442 320.737864a103.322252 57.546546 90 1 0 115.093091 0 103.322252 57.546546 90 1 0-115.093091 0Z" fill="#1A1A1A" p-id="8272"></path><path d="M608.860988 435.695992c-38.792582 0-69.180421-50.495439-69.180422-114.956128 0-64.465687 30.387839-114.960127 69.180422-114.960127 38.794582 0 69.182421 50.495439 69.18242 114.960127 0 64.460689-30.387839 114.956128-69.18242 114.956128z m0-206.647504c-21.716168 0-45.91167 37.656887-45.911671 91.692376 0 54.03049 24.195502 91.687377 45.911671 91.687376s45.91367-37.656887 45.913669-91.687376c0-54.036488-24.197502-91.692376-45.913669-91.692376z" fill="" p-id="8273"></path><path d="M710.875591 731.410576s-3.923946 71.932682-36.620165 102.014604c-32.697219 30.080922-81.088223 37.928814-105.93755 71.932682-24.849327 34.004868-26.156975 79.780575-26.156976 79.780574s34.876634-50.571419 81.959989-70.18915c47.083356-19.617732 93.294945-47.519238 105.065785-81.524106 11.769839-34.004868-18.311082-102.014604-18.311083-102.014604z" fill="#F8EDD2" p-id="8274"></path><path d="M529.414323 1024l1.115701-39.192475c0.056985-2.017458 1.720538-49.813622 28.394374-86.315819 15.499837-21.209304 38.563644-32.994139 60.868654-44.392078 16.371603-8.361754 33.303056-17.01543 46.584489-29.235149 28.792268-26.485887 32.84418-93.423911 32.88217-94.09573l2.695276-48.282034 19.559747 44.214126c3.270122 7.389016 31.559525 73.272322 18.664987 110.529317-14.029232 40.533115-68.423625 70.478073-111.584033 88.456245-43.262382 18.028158-76.533447 65.587386-76.865358 66.065257l-22.316007 32.24834z m185.494185-245.145165c-5.730461 22.26902-15.667792 47.395272-32.775198 63.134045-15.621805 14.370141-33.991871 23.759619-51.754101 32.835182-20.793416 10.625147-40.436141 20.659452-52.667856 37.397957-7.500986 10.266243-12.6586 21.796147-16.201649 32.621239 15.048959-14.838015 35.11357-31.039664 58.136387-40.633088 54.801283-22.831868 89.796885-49.317755 98.545535-74.585969 4.324839-12.499643 1.523591-32.182357-3.283118-50.769366z" fill="" p-id="8275"></path><path d="M339.875225 128.480496m-19.181849 0a19.181849 19.181849 0 1 0 38.363698 0 19.181849 19.181849 0 1 0-38.363698 0Z" fill="#FFFFFF" p-id="8276"></path></svg>