<?xml version="1.0" standalone="no"?><!DOCTYPE svg PUBLIC "-//W3C//DTD SVG 1.1//EN" "http://www.w3.org/Graphics/SVG/1.1/DTD/svg11.dtd"><svg t="1637572892042" class="icon" viewBox="0 0 1024 1024" version="1.1" xmlns="http://www.w3.org/2000/svg" p-id="3397" xmlns:xlink="http://www.w3.org/1999/xlink" width="50" height="50"><defs><style type="text/css"></style></defs><path d="M560 64C349.6 64 177.6 226.4 161.6 432H160v2.4C99.2 456.8 56 515.2 56 584s43.2 127.2 104 149.6V976h512v-128c166.4-48.8 288-202.4 288-384 0-220.8-179.2-400-400-400z" fill="#FFFFFF" p-id="3398"></path><path d="M679.2 819.2c-9.6 0-19.2-6.4-22.4-16-4.8-12.8 1.6-26.4 14.4-30.4C800.8 725.6 888 601.6 888 464c0-72-23.2-140.8-66.4-198.4-8-10.4-5.6-25.6 4.8-33.6 10.4-8 25.6-5.6 33.6 4.8 50.4 65.6 76.8 144 76.8 227.2 0 157.6-100 300-248 353.6-4 0.8-6.4 1.6-9.6 1.6z" fill="#B2B5B7" p-id="3399"></path><path d="M216 768c-22.4 0-44-4-64.8-12C80 729.6 32 660 32 584c0-101.6 82.4-184 184-184 13.6 0 24 10.4 24 24s-10.4 24-24 24c-75.2 0-136 60.8-136 136 0 56.8 35.2 108 88 127.2 15.2 5.6 31.2 8.8 48 8.8 13.6 0 24 10.4 24 24s-10.4 24-24 24z" fill="#444B54" p-id="3400"></path><path d="M984 464c0-233.6-190.4-424-424-424-216 0-397.6 164.8-421.6 376.8C76 446.4 32 510.4 32 584c0 70.4 40.8 135.2 104 165.6V976c0 13.6 10.4 24 24 24h512c13.6 0 24-10.4 24-24v-110.4c170.4-57.6 288-220 288-401.6z m-288 350.4v-36c0-14.4 11.2-25.6 25.6-26.4 13.6-0.8 23.2-12 22.4-25.6-0.8-13.6-12-23.2-25.6-22.4-40 2.4-70.4 35.2-70.4 74.4V952h-48v-56c0-13.6-10.4-24-24-24s-24 10.4-24 24v56h-56v-56c0-13.6-10.4-24-24-24s-24 10.4-24 24v56h-56v-56c0-13.6-10.4-24-24-24s-24 10.4-24 24v56h-56v-56c0-13.6-10.4-24-24-24s-24 10.4-24 24v56h-56V764.8c10.4 1.6 20.8 3.2 32 3.2 13.6 0 24-10.4 24-24s-10.4-24-24-24c-16.8 0-32.8-3.2-48-8.8C115.2 691.2 80 640 80 584c0-75.2 60.8-136 136-136 13.6 0 24-10.4 24-24s-10.4-24-24-24c-8.8 0-18.4 0.8-27.2 1.6C219.2 223.2 376 88 560 88c207.2 0 376 168.8 376 376 0 155.2-97.6 295.2-240 350.4z" fill="#444B54" p-id="3401"></path><path d="M216 584m-80 0a80 80 0 1 0 160 0 80 80 0 1 0-160 0Z" fill="#444B54" p-id="3402"></path><path d="M576 584m-80 0a80 80 0 1 0 160 0 80 80 0 1 0-160 0Z" fill="#444B54" p-id="3403"></path><path d="M368 776l48-64 48 64z" fill="#444B54" p-id="3404"></path><path d="M464 800H368c-8.8 0-17.6-4.8-21.6-13.6-4-8-3.2-17.6 2.4-24.8l48-64c4.8-6.4 12-9.6 19.2-9.6s14.4 3.2 19.2 9.6l48 64c5.6 7.2 6.4 16.8 2.4 24.8-4 8.8-12.8 13.6-21.6 13.6z" fill="#444B54" p-id="3405"></path><path d="M784 608h-48c-13.6 0-24-10.4-24-24s10.4-24 24-24h22.4c-4-32.8-16.8-63.2-37.6-88.8-8-10.4-6.4-25.6 4-33.6s25.6-6.4 33.6 4c32 40.8 49.6 90.4 49.6 142.4 0 13.6-10.4 24-24 24z" fill="#B2B5B7" p-id="3406"></path><path d="M736 608c-13.6 0-24-10.4-24-24 0-75.2-60.8-136-136-136-13.6 0-24-10.4-24-24s10.4-24 24-24c101.6 0 184 82.4 184 184 0 13.6-10.4 24-24 24z" fill="#444B54" p-id="3407"></path></svg>