<?xml version="1.0" standalone="no"?><!DOCTYPE svg PUBLIC "-//W3C//DTD SVG 1.1//EN" "http://www.w3.org/Graphics/SVG/1.1/DTD/svg11.dtd"><svg t="1640747915076" class="icon" viewBox="0 0 1024 1024" version="1.1" xmlns="http://www.w3.org/2000/svg" p-id="3521" xmlns:xlink="http://www.w3.org/1999/xlink" width="50" height="50"><defs><style type="text/css"></style></defs><path d="M663.466667 480H360.533333C266.666667 480 192 405.333333 192 311.466667v-4.266667c0-93.866667 74.666667-168.533333 168.533333-168.533333h302.933334c93.866667 0 168.533333 74.666667 168.533333 168.533333v4.266667c0 93.866667-74.666667 168.533333-168.533333 168.533333z" fill="#f88a3a" p-id="3522" data-spm-anchor-id="a313x.7781069.0.i10" class=""></path><path d="M654.933333 309.333333m-117.333333 0a117.333333 117.333333 0 1 0 234.666667 0 117.333333 117.333333 0 1 0-234.666667 0Z" fill="#d81e06" p-id="3523" data-spm-anchor-id="a313x.7781069.0.i11" class=""></path><path d="M663.466667 885.333333H360.533333C266.666667 885.333333 192 810.666667 192 716.8v-4.266667c0-93.866667 74.666667-168.533333 168.533333-168.533333h302.933334c93.866667 0 168.533333 74.666667 168.533333 168.533333v4.266667c0 93.866667-74.666667 168.533333-168.533333 168.533333z" fill="#425efa" p-id="3524" data-spm-anchor-id="a313x.7781069.0.i1" class=""></path><path d="M369.066667 714.666667m-117.333334 0a117.333333 117.333333 0 1 0 234.666667 0 117.333333 117.333333 0 1 0-234.666667 0Z" fill="#9ba9f6" p-id="3525" data-spm-anchor-id="a313x.7781069.0.i9" class=""></path></svg>