<?xml version="1.0" standalone="no"?><!DOCTYPE svg PUBLIC "-//W3C//DTD SVG 1.1//EN" "http://www.w3.org/Graphics/SVG/1.1/DTD/svg11.dtd"><svg t="1640748084098" class="icon" viewBox="0 0 1024 1024" version="1.1" xmlns="http://www.w3.org/2000/svg" p-id="5792" xmlns:xlink="http://www.w3.org/1999/xlink" width="50" height="50"><defs><style type="text/css"></style></defs><path d="M734.4 728H286.5c-123.7 0-224-100.3-224-224s100.3-224 224-224h447.9c123.7 0 224 100.3 224 224-0.1 123.7-100.4 224-224 224z" fill="#CCCCCC" p-id="5793"></path><path d="M281.4 706.8c-111.1 0-201.6-90.4-201.6-201.6s90.4-201.6 201.6-201.6S483 394 483 505.2s-90.5 201.6-201.6 201.6z" fill="#FFFFFF" p-id="5794"></path><path d="M281.4 311.1c107 0 194.1 87.1 194.1 194.1s-87.1 194.1-194.1 194.1S87.3 612.2 87.3 505.2s87-194.1 194.1-194.1m0-14.9c-115.4 0-209 93.6-209 209s93.6 209 209 209 209-93.6 209-209-93.6-209-209-209z" fill="#CCCCCC" p-id="5795"></path></svg>