<?xml version="1.0" standalone="no"?><!DOCTYPE svg PUBLIC "-//W3C//DTD SVG 1.1//EN" "http://www.w3.org/Graphics/SVG/1.1/DTD/svg11.dtd"><svg t="1641044176352" class="icon" viewBox="0 0 1024 1024" version="1.1" xmlns="http://www.w3.org/2000/svg" p-id="7052" xmlns:xlink="http://www.w3.org/1999/xlink" width="50" height="50"><defs><style type="text/css"></style></defs><path d="M229.160719 0h565.678562c5.382019 0 9.772614 4.390595 9.772614 9.772614v907.011895c0 5.382019-4.390595 9.772614-9.772614 9.772614H229.160719c-5.382019 0-9.772614-4.390595-9.772614-9.772614V9.772614C219.388105 4.390595 223.7787 0 229.160719 0z" fill="#493A31" p-id="7053"></path><path d="M229.160719 0h565.678562c5.382019 0 9.772614 4.390595 9.772614 9.772614v550.948824c0 5.382019-4.390595 9.772614-9.772614 9.772615H229.160719c-5.382019 0-9.772614-4.390595-9.772614-9.772615V9.772614C219.388105 4.390595 223.7787 0 229.160719 0z" fill="#FFFFFF" p-id="7054"></path><path d="M525.313416 594.854772h236.525588c5.382019 0 9.772614 4.390595 9.772614 9.772614v292.611895c0 5.382019-4.390595 9.772614-9.772614 9.772614H525.313416c-5.382019 0-9.772614-4.390595-9.772614-9.772614V604.627386c0-5.382019 4.390595-9.772614 9.772614-9.772614z" fill="#D7CFB5" p-id="7055"></path><path d="M761.839004 604.627386v292.611895H525.313416V604.627386h236.525588m0-9.772614H525.313416c-5.382019 0-9.772614 4.390595-9.772614 9.772614v292.611895c0 5.382019 4.390595 9.772614 9.772614 9.772614h236.525588c5.382019 0 9.772614-4.390595 9.772614-9.772614V604.627386c0-5.382019-4.390595-9.772614-9.772614-9.772614z" fill="#5D4E44" p-id="7056"></path><path d="M265.701798 594.854772h236.525588c5.382019 0 9.772614 4.390595 9.772614 9.772614v292.611895c0 5.382019-4.390595 9.772614-9.772614 9.772614h-236.525588c-5.382019 0-9.772614-4.390595-9.772614-9.772614V604.627386c0-5.382019 4.390595-9.772614 9.772614-9.772614z" fill="#D7CFB5" p-id="7057"></path><path d="M502.227386 604.627386v292.611895h-236.525588V604.627386h236.525588m0-9.772614h-236.525588c-5.382019 0-9.772614 4.390595-9.772614 9.772614v292.611895c0 5.382019 4.390595 9.772614 9.772614 9.772614h236.525588c5.382019 0 9.772614-4.390595 9.772614-9.772614V604.627386c0-5.382019-4.390595-9.772614-9.772614-9.772614z" fill="#5D4E44" p-id="7058"></path><path d="M786.199723 590.039281H298.702075c-5.382019 0.141632-9.914246-3.965698-10.055879-9.347718s3.965698-9.914246 9.347718-10.055878h488.347441c5.382019-0.141632 9.914246 3.965698 10.055879 9.347717 0.141632 5.382019-3.965698 9.914246-9.347718 10.055879h-0.849793z" fill="#5D4E44" p-id="7059"></path><path d="M516.815491 750.933333v-73.082157c40.365145 0 73.082158 32.717012 73.082158 73.082157s-32.717012 73.082158-73.082158 73.082158v-73.082158z" fill="#C7B299" p-id="7060"></path><path d="M526.588105 688.33195c34.55823 5.382019 58.35242 37.815768 52.970401 72.373997-4.248963 27.334993-25.635408 48.721438-52.970401 52.970402V688.33195m-9.772614-10.480774v146.305947c40.365145 0 73.082158-32.717012 73.082158-73.082158 0.141632-40.506777-32.717012-73.22379-73.082158-73.223789z" fill="#5D4E44" p-id="7061"></path><path d="M509.592254 750.933333v-73.082157c-40.365145 0-73.082158 32.717012-73.082157 73.082157s32.717012 73.082158 73.082157 73.082158v-73.082158z" fill="#C7B299" p-id="7062"></path><path d="M499.81964 688.33195v125.344399c-34.55823-5.382019-58.35242-37.815768-52.970401-72.373998 4.248963-27.334993 25.635408-48.721438 52.970401-52.970401m9.772614-10.480774c-40.365145 0-73.082158 32.717012-73.082157 73.082157s32.717012 73.082158 73.082157 73.082158V677.851176zM226.328077 0h571.343846c3.824066 0 6.939972 3.115906 6.939972 6.939972v15.437898c0 3.824066-3.115906 6.939972-6.939972 6.939972H226.328077c-3.824066 0-6.939972-3.115906-6.939972-6.939972V6.939972C219.388105 3.115906 222.504011 0 226.328077 0zM225.053389 190.211895h573.893222c3.115906 0 5.665284 2.549378 5.665284 5.665283v8.214662c0 3.115906-2.549378 5.665284-5.665284 5.665283H225.053389c-3.115906 0-5.665284-2.549378-5.665284-5.665283v-8.214662c0-3.115906 2.549378-5.665284 5.665284-5.665283zM225.053389 380.282158h573.893222c3.115906 0 5.665284 2.549378 5.665284 5.665283v8.214661c0 3.115906-2.549378 5.665284-5.665284 5.665284H225.053389c-3.115906 0-5.665284-2.549378-5.665284-5.665284v-8.214661c0-3.115906 2.549378-5.665284 5.665284-5.665283zM225.053389 570.494053h573.893222c3.115906 0 5.665284 2.549378 5.665284 5.665283v8.214661c0 3.115906-2.549378 5.665284-5.665284 5.665284H225.053389c-3.115906 0-5.665284-2.549378-5.665284-5.665284v-8.214661c0-3.115906 2.549378-5.665284 5.665284-5.665283zM225.053389 911.827386h573.893222c3.115906 0 5.665284 2.549378 5.665284 5.665283v8.214662c0 3.115906-2.549378 5.665284-5.665284 5.665283H225.053389c-3.115906 0-5.665284-2.549378-5.665284-5.665283v-8.214662c0-3.115906 2.549378-5.665284 5.665284-5.665283z" fill="#5D4E44" p-id="7063"></path><path d="M228.877455 0h10.19751c5.240387 0 9.48935 4.248963 9.48935 9.48935v1004.879668c0 5.240387-4.248963 9.48935-9.48935 9.48935H228.877455C223.637068 1024 219.388105 1019.751037 219.388105 1014.51065V9.48935C219.388105 4.248963 223.637068 0 228.877455 0zM784.783402 0h10.197511c5.240387 0 9.48935 4.248963 9.48935 9.48935v1004.879668c0 5.240387-4.248963 9.48935-9.48935 9.48935h-10.197511c-5.240387 0-9.48935-4.248963-9.489349-9.48935V9.48935c0-5.240387 4.248963-9.48935 9.489349-9.48935z" fill="#5D4E44" p-id="7064"></path><path d="M248.705947 375.466667v-136.533334c0-2.69101 2.124481-4.815491 4.815491-4.815491h19.545229c2.69101 0 4.815491 2.124481 4.815491 4.815491v136.533334c0 2.69101-2.124481 4.815491-4.815491 4.815491H253.521438c-2.69101 0-4.815491-2.124481-4.815491-4.815491z" fill="#9E6C65" p-id="7065"></path><path d="M277.882158 375.466667v-136.533334c0-2.69101 2.124481-4.815491 4.815491-4.815491h19.545228c2.69101 0 4.815491 2.124481 4.815491 4.815491v136.533334c0 2.69101-2.124481 4.815491-4.815491 4.815491H282.839281c-2.69101 0-4.957123-2.124481-4.957123-4.815491zM396.286584 331.560719h114.155463c3.540802 0 6.231812 2.832642 6.231812 6.231812V373.908714c0 3.540802-2.832642 6.373444-6.231812 6.373444h-114.155463c-3.540802 0-6.231812-2.832642-6.231812-6.373444v-36.116183c0-3.39917 2.832642-6.231812 6.231812-6.231812z" fill="#D7CFB5" p-id="7066"></path><path d="M311.307331 375.608299L304.367358 258.761826c-0.141632-2.69101 1.841217-4.957123 4.532227-5.098755l19.545228-1.133057c2.69101-0.141632 4.957123 1.841217 5.098755 4.532227l6.939973 116.846473c0.141632 2.69101-1.841217 4.957123-4.532227 5.098755l-19.545228 1.133057c-2.69101 0.283264-4.957123-1.841217-5.098755-4.532227z" fill="#C7B299" p-id="7067"></path><path d="M590.039281 153.529184m-36.541079 0a36.541079 36.541079 0 1 0 73.082158 0 36.541079 36.541079 0 1 0-73.082158 0Z" fill="#D7CFB5" p-id="7068"></path><path d="M590.039281 153.529184m-21.952974 0a21.952974 21.952974 0 1 0 43.905947 0 21.952974 21.952974 0 1 0-43.905947 0Z" fill="#C7B299" p-id="7069"></path><path d="M663.121438 153.529184m-36.541078 0a36.541079 36.541079 0 1 0 73.082157 0 36.541079 36.541079 0 1 0-73.082157 0Z" fill="#D7CFB5" p-id="7070"></path><path d="M663.121438 153.529184m-21.952973 0a21.952974 21.952974 0 1 0 43.905947 0 21.952974 21.952974 0 1 0-43.905947 0Z" fill="#C7B299" p-id="7071"></path><path d="M626.58036 90.21964m-36.541079 0a36.541079 36.541079 0 1 0 73.082157 0 36.541079 36.541079 0 1 0-73.082157 0Z" fill="#D7CFB5" p-id="7072"></path><path d="M626.58036 90.21964m-21.952974 0a21.952974 21.952974 0 1 0 43.905947 0 21.952974 21.952974 0 1 0-43.905947 0Z" fill="#C7B299" p-id="7073"></path><path d="M699.662517 90.21964m-36.541079 0a36.541079 36.541079 0 1 0 73.082158 0 36.541079 36.541079 0 1 0-73.082158 0Z" fill="#D7CFB5" p-id="7074"></path><path d="M699.662517 90.21964m-21.952973 0a21.952974 21.952974 0 1 0 43.905947 0 21.952974 21.952974 0 1 0-43.905947 0Z" fill="#C7B299" p-id="7075"></path><path d="M736.203596 153.529184m-36.541079 0a36.541079 36.541079 0 1 0 73.082158 0 36.541079 36.541079 0 1 0-73.082158 0Z" fill="#D7CFB5" p-id="7076"></path><path d="M736.203596 153.529184m-21.952974 0a21.952974 21.952974 0 1 0 43.905948 0 21.952974 21.952974 0 1 0-43.905948 0Z" fill="#C7B299" p-id="7077"></path><path d="M634.157676 506.507508l34.02711-91.456089 9.159347 3.407668-34.027109 91.456089z" fill="#9E6C65" p-id="7078"></path><path d="M663.404703 443.733333c-12.605256-4.673859-1.416321-35.124758-1.274689-34.983126 2.124481-5.523651 27.193361 3.824066 25.068879 9.347718 0 0-11.188935 30.309267-23.79419 25.635408zM637.910927 438.351314c-4.815491-0.70816-2.69101-15.296266-2.549378-15.154634 0.424896-2.69101 10.055878-1.133057 9.630982 1.416321 0 0.141632-2.266113 14.588105-7.081604 13.738313z" fill="#9E6C65" p-id="7079"></path><path d="M624.501201 510.355651l13.268094-86.802058 4.758838 0.727989-13.268094 86.802058z" fill="#9E6C65" p-id="7080"></path><path d="M692.439281 521.772614c0-14.871369-9.914246-28.043154-25.635408-36.965975v-0.849793c0-5.948548-3.257538-10.764039-7.364869-10.764038h-80.447026c-3.965698 0-7.364869 4.815491-7.364869 10.764038v0.849793c-15.57953 8.922822-25.635408 22.236238-25.635408 36.965975 0 14.871369 10.055878 28.184786 25.77704 37.107607 0 0.283264-0.141632 0.566528-0.141632 0.849793 0 5.948548 3.257538 10.905671 7.364869 10.905671h80.447026c3.965698 0 7.364869-4.815491 7.364869-10.905671 0-0.283264-0.141632-0.566528-0.141632-0.849793 15.721162-8.922822 25.77704-22.236238 25.77704-37.107607z" fill="#72A48E" p-id="7081"></path></svg>