<?xml version="1.0" standalone="no"?><!DOCTYPE svg PUBLIC "-//W3C//DTD SVG 1.1//EN" "http://www.w3.org/Graphics/SVG/1.1/DTD/svg11.dtd"><svg t="1641044267329" class="icon" viewBox="0 0 1024 1024" version="1.1" xmlns="http://www.w3.org/2000/svg" p-id="14063" xmlns:xlink="http://www.w3.org/1999/xlink" width="50" height="50"><defs><style type="text/css"></style></defs><path d="M209.92 153.6h155.648v720.896H209.92z" fill="#FFDA44" p-id="14064"></path><path d="M375.808 884.736H199.68V143.36h176.128v741.376z m-155.648-20.48h135.168V163.84H220.16v700.416z" fill="#1C1C1C" p-id="14065"></path><path d="M818.176 874.496H365.568V153.6H686.08c72.704 0 132.096 59.392 132.096 132.096v588.8z" fill="#BCE1FA" p-id="14066"></path><path d="M828.416 884.736H355.328V143.36H686.08c77.824 0 142.336 63.488 142.336 142.336v599.04z m-452.608-20.48h432.128V284.672c0-66.56-54.272-121.856-121.856-121.856H375.808v701.44z" fill="#1C1C1C" p-id="14067"></path><path d="M691.2 361.472H436.224c-6.144 0-10.24-4.096-10.24-10.24s4.096-10.24 10.24-10.24h254.976c6.144 0 10.24 4.096 10.24 10.24s-5.12 10.24-10.24 10.24zM691.2 432.128H436.224c-6.144 0-10.24-4.096-10.24-10.24s4.096-10.24 10.24-10.24h254.976c6.144 0 10.24 4.096 10.24 10.24s-5.12 10.24-10.24 10.24z" fill="#1C1C1C" p-id="14068"></path><path d="M578.56 502.784H436.224c-6.144 0-10.24-4.096-10.24-10.24s4.096-10.24 10.24-10.24h141.312c6.144 0 10.24 4.096 10.24 10.24s-4.096 10.24-9.216 10.24z" fill="#1C1C1C" p-id="14069"></path><path d="M726.016 665.6c-13.312-7.168-29.696-3.072-36.864 10.24l-9.216 15.36c-3.072 5.12-10.24 5.12-13.312 0l-5.12-8.192c-9.216-16.384-31.744-22.528-48.128-13.312-13.312 8.192-17.408 24.576-10.24 37.888l48.128 64.512 12.288 18.432c4.096 6.144 13.312 6.144 18.432 0l12.288-18.432 44.032-57.344c11.264-17.408 5.12-38.912-12.288-49.152z" fill="#FFCEEB" p-id="14070"></path><path d="M673.792 805.888c-7.168 0-13.312-3.072-17.408-9.216L644.096 778.24l-48.128-63.488s0-1.024-1.024-1.024c-5.12-9.216-6.144-19.456-4.096-28.672 3.072-10.24 9.216-18.432 17.408-23.552 10.24-6.144 22.528-8.192 34.816-4.096 11.264 3.072 21.504 10.24 27.648 21.504l2.048 4.096 6.144-11.264c10.24-17.408 32.768-23.552 51.2-13.312 22.528 12.288 29.696 40.96 16.384 63.488 0 0 0 1.024-1.024 1.024L703.488 778.24l-12.288 18.432c-4.096 6.144-10.24 9.216-17.408 9.216z m0-20.48s1.024 0 0 0l13.312-18.432 44.032-57.344c6.144-12.288 2.048-27.648-9.216-34.816-8.192-5.12-18.432-2.048-23.552 6.144l-9.216 15.36c-3.072 5.12-9.216 9.216-15.36 9.216s-12.288-3.072-15.36-9.216l-5.12-8.192c-3.072-6.144-9.216-10.24-15.36-11.264-6.144-2.048-13.312-1.024-19.456 2.048-4.096 2.048-7.168 6.144-8.192 10.24-1.024 4.096-1.024 9.216 1.024 13.312l48.128 63.488 14.336 19.456z" fill="#1C1C1C" p-id="14071"></path></svg>