<?xml version="1.0" standalone="no"?><!DOCTYPE svg PUBLIC "-//W3C//DTD SVG 1.1//EN" "http://www.w3.org/Graphics/SVG/1.1/DTD/svg11.dtd"><svg t="1638078054693" class="icon" viewBox="0 0 1024 1024" version="1.1" xmlns="http://www.w3.org/2000/svg" p-id="11217" xmlns:xlink="http://www.w3.org/1999/xlink" width="50" height="50"><defs><style type="text/css"></style></defs><path d="M532.4 832.8L426 682.5c-4-5.6-12.6-4.3-14.7 2.3L395.7 734c-1.6 5-7.3 7.3-11.9 4.8C299 693 241.3 603.4 241.3 500.3c0-12.8 0.9-25.5 2.6-37.8 0.5-3.4-1.2-6.8-4.2-8.4l-117.8-64.8c-4.4-2.4-10-0.4-11.8 4.3-14.2 38-22.1 79.1-22.1 122 0 166.1 116.6 305 272.5 339.2 4.2 0.9 7 4.8 6.5 9.1l-7.7 67.1c-0.8 6.9 6.6 11.6 12.5 8.1l158-94.4c4.2-2.4 5.4-7.9 2.6-11.9z" fill="#86BF78" p-id="11218"></path><path d="M757.2 301.2L680 468.3c-2.9 6.2 2.6 13.1 9.3 11.6l50.4-10.9c5.1-1.1 10 2.7 10.1 8 2.6 96.3-46.3 190.9-135.7 242.3-11.1 6.4-22.5 11.9-34.1 16.6-3.2 1.3-5.3 4.4-5.2 7.9l2.6 134.4c0.1 5.1 4.6 8.9 9.6 8.1 40-6.6 79.5-20.3 116.8-41.7 144-82.8 206.3-253.1 158.3-405.3-1.3-4.1 0.7-8.4 4.6-10.1l62-26.8c6.3-2.7 6.8-11.5 0.8-14.9l-160.6-89.9c-4.3-2.6-9.6-0.8-11.7 3.6z" fill="#83B6D7" p-id="11219"></path><path d="M181 363.7l183-20.4c6.8-0.8 9.9-9 5.1-14l-35.4-37.4c-3.6-3.8-2.8-9.9 1.6-12.8 81-52.1 187.3-59.2 277.6-9.3 11.2 6.2 21.8 13.1 31.8 20.6 2.8 2.1 6.5 2.2 9.4 0.4L767.8 219c4.3-2.7 5.2-8.6 1.9-12.4-26.3-30.8-58.5-57.6-96.1-78.3-145.4-80.4-323.4-45.5-428.7 74.3-2.8 3.2-7.6 3.8-11.1 1.3l-55-39.2c-5.6-4-13.4 0.2-13.2 7.1l6.2 183.9c0.1 4.9 4.4 8.5 9.2 8z" fill="#E2B796" p-id="11220"></path><path d="M122.1 407.1l105.5 58c-1.4 11.5-2.1 23.2-2.1 34.8 0 105.5 57.8 202.2 150.7 252.4 3.5 1.9 7.5 2.9 11.5 2.9 10.6 0 19.9-6.8 23.1-16.9l11-34.6 92.9 131.2-137.8 82.3 5.9-51.9c1.4-12.4-6.7-23.7-18.9-26.4-36.6-8.1-71.4-22.2-103.3-42.1-31.3-19.5-59.1-43.9-82.4-72.6-23.5-28.9-41.9-61.3-54.5-96.2-13.1-36-19.7-74-19.7-112.8 0-37.1 6.1-73.4 18.1-108.1m-4.1-19.2c-3.3 0-6.5 2-7.8 5.4-14.2 38-22.1 79.1-22.1 122 0 166.1 116.6 305 272.5 339.2 4.2 0.9 7 4.8 6.5 9.1l-7.7 67.1c-0.6 5.3 3.6 9.3 8.3 9.3 1.4 0 2.9-0.4 4.3-1.2l157.9-94.3c4.2-2.5 5.3-8 2.5-12L426.1 682.2c-1.7-2.4-4.3-3.5-6.8-3.5-3.4 0-6.8 2.1-8 5.8l-15.6 49a8.43 8.43 0 0 1-8 5.8c-1.3 0-2.7-0.3-4-1-84.8-45.7-142.4-135.3-142.4-238.4 0-12.8 0.9-25.4 2.6-37.8 0.5-3.4-1.2-6.8-4.2-8.5L122 388.9c-1.3-0.7-2.7-1-4-1z" fill="#7AB66E" p-id="11221"></path><path d="M592.2 861.4L590.7 741c10.7-4.5 21.2-9.6 31.3-15.3 91.8-52 147.5-149.9 145.3-255.5-0.1-4-1.2-8-3.1-11.5-5.2-9.2-15.7-14-26.1-11.8l-35.5 7.5L771 308.8l139.6 79.3-48.1 20.4c-11.5 4.9-17.3 17.5-13.7 29.4 11 35.8 15.9 73.1 14.3 110.6-1.5 36.9-9.1 73.1-22.6 107.5-13.6 34.7-32.7 66.6-56.8 94.8-25 29.2-54.7 53.7-88.5 72.8-32.2 18.5-66.8 31.1-103 37.8m-14.7 13c1.6 2.9 5 4.7 8.5 4.1 40-6.3 79.7-19.8 117-40.9 144.5-81.9 207.9-251.8 160.9-404.3-1.3-4.1 0.8-8.4 4.7-10.1l62.1-26.4c4.9-2.1 6.3-7.7 4-11.8-0.7-1.2-1.7-2.3-3.1-3.1L771.8 291c-4.2-2.4-9.6-0.7-11.7 3.7l-78.3 166.5c-1.3 2.7-1 5.4 0.3 7.6 1.7 3 5.1 4.9 9 4.1l50.4-10.6c3.7-0.8 7.3 1 9 4.1 0.7 1.2 1.1 2.5 1.1 4 2 96.3-47.6 190.6-137.3 241.4-11.2 6.3-22.6 11.7-34.2 16.3-3.2 1.3-5.3 4.4-5.3 7.9l1.7 134.4c0 1.4 0.4 2.8 1 4z" fill="#79AAD7" p-id="11222"></path><path d="M752.3 209.4l-101.9 64.1c-9.4-6.8-19.3-13.1-29.4-18.7-92.3-51.2-204.9-47.5-293.8 9.5-3.4 2.2-6.2 5.2-8.1 8.7-5.1 9.3-3.7 20.7 3.6 28.4l24.9 26.4-159.8 17.6L182.5 185l42.6 30.4c10.1 7.2 24 5.6 32.2-3.7 24.8-28.1 54-51.7 86.9-70 32.3-18 67.1-30.4 103.5-36.9 36.7-6.6 73.9-6.9 110.5-1.1 37.9 6.1 74.3 18.7 108.3 37.5 32.4 17.9 61.2 40.8 85.8 68.2m18.8 5.7c1.6-2.9 1.4-6.7-0.9-9.4-26.3-30.9-58.5-57.6-96-78.4-145.3-80.6-323.3-45.9-428.8 73.8-2.8 3.2-7.6 3.8-11.1 1.3l-55-39.2c-4.3-3.1-9.9-1.3-12.2 2.8-0.7 1.2-1.1 2.7-1 4.3l6 183.8c0.2 4.9 4.4 8.6 9.3 8l182.9-20.2c2.9-0.3 5.1-2 6.4-4.2 1.7-3 1.5-6.9-1.2-9.8l-35.3-37.4c-2.6-2.8-2.9-6.7-1.2-9.8 0.7-1.2 1.6-2.2 2.8-3 81.1-52 187.4-59 277.5-9 11.2 6.2 21.8 13.1 31.8 20.6 2.8 2.1 6.5 2.2 9.4 0.4l113.7-71.6c1.3-0.8 2.2-1.8 2.9-3z" fill="#E7A98F" p-id="11223"></path></svg>