<?xml version="1.0" standalone="no"?><!DOCTYPE svg PUBLIC "-//W3C//DTD SVG 1.1//EN" "http://www.w3.org/Graphics/SVG/1.1/DTD/svg11.dtd"><svg t="1641044249916" class="icon" viewBox="0 0 1024 1024" version="1.1" xmlns="http://www.w3.org/2000/svg" p-id="12377" xmlns:xlink="http://www.w3.org/1999/xlink" width="50" height="50"><defs><style type="text/css"></style></defs><path d="M584.3 129.2l272.1 109.6-94.5 35.7-272-109.7" fill="#F7D7FF" p-id="12378"></path><path d="M761.9 283.5c-1.1 0-2.3-0.2-3.4-0.7l-272-109.6c-4.6-1.9-6.8-7.1-5-11.7 1.9-4.6 7.1-6.8 11.7-5L762 264.8l69.6-26.3-250.6-101c-4.6-1.9-6.8-7.1-5-11.7 1.9-4.6 7.1-6.8 11.7-5l272.1 109.7c3.4 1.4 5.7 4.7 5.6 8.4 0 3.7-2.4 7-5.8 8.3l-94.5 35.6c-1 0.5-2.1 0.7-3.2 0.7z" fill="#330867" p-id="12379"></path><path d="M762.8 737.9c-1.1 0-2.3-0.2-3.4-0.7l-286-115.3c-3.4-1.4-5.6-4.7-5.6-8.3V171.1c0-3 1.5-5.8 4-7.5 1.5-1 3.3-1.5 5-1.5 1.1 0 2.3 0.2 3.4 0.7l286.1 115.3c3.4 1.4 5.6 4.7 5.6 8.3v442.5c0 3-1.5 5.8-4 7.5-1.6 1-3.3 1.5-5.1 1.5z" fill="#FFE08A" p-id="12380"></path><path d="M476.7 171.1l286.1 115.3v442.5L476.7 613.6V171.1m0-18c-3.5 0-7.1 1-10.1 3.1-5 3.3-7.9 8.9-7.9 14.9v442.5c0 7.3 4.5 13.9 11.3 16.7l286.1 115.3c2.2 0.9 4.5 1.3 6.7 1.3 3.5 0 7.1-1 10.1-3.1 5-3.3 7.9-8.9 7.9-14.9V286.4c0-7.3-4.5-13.9-11.3-16.7l-286-115.3c-2.2-0.9-4.5-1.3-6.8-1.3z" fill="#330867" p-id="12381"></path><path d="M762.8 737.9c-1.8 0-3.6-0.6-5.2-1.6-2.4-1.7-3.8-4.4-3.8-7.4V286.4c0-3.8 2.4-7.2 6-8.5l96.8-34.6c1-0.4 2-0.5 3-0.5 1.8 0 3.6 0.6 5.2 1.6 2.4 1.7 3.8 4.4 3.8 7.4v442.5c0 3.8-2.4 7.2-6 8.5l-96.8 34.6c-0.9 0.3-2 0.5-3 0.5z" fill="#EAB236" p-id="12382"></path><path d="M859.6 251.9v442.5L762.8 729V286.4l96.8-34.5m0-18c-2 0-4.1 0.3-6.1 1.1l-96.8 34.6c-7.2 2.6-11.9 9.3-11.9 16.9V729c0 5.9 2.8 11.3 7.6 14.7 3.1 2.2 6.7 3.3 10.4 3.3 2 0 4.1-0.3 6.1-1.1l96.8-34.6c7.2-2.6 11.9-9.3 11.9-16.9V251.9c0-5.9-2.8-11.3-7.6-14.7-3.1-2.2-6.8-3.3-10.4-3.3z" fill="#330867" p-id="12383"></path><path d="M403.4 108l304.8 122.9-105.8 40L297.5 148" fill="#F7D7FF" p-id="12384"></path><path d="M602.4 279.9c-1.1 0-2.3-0.2-3.4-0.7L294.2 156.3c-4.6-1.9-6.8-7.1-5-11.7 1.9-4.6 7.1-6.8 11.7-5l301.6 121.6 81-30.5L400 116.4c-4.6-1.9-6.8-7.1-5-11.7 1.9-4.6 7.1-6.8 11.7-5l304.8 122.9c3.4 1.4 5.7 4.7 5.6 8.4 0 3.7-2.4 7-5.8 8.3l-105.9 39.9c-0.9 0.5-1.9 0.7-3 0.7z" fill="#330867" p-id="12385"></path><path d="M603.4 789.1c-1.1 0-2.3-0.2-3.4-0.7L279.5 659.2c-3.4-1.4-5.6-4.7-5.6-8.3V155c0-3 1.5-5.8 4-7.5 1.5-1 3.3-1.5 5-1.5 1.1 0 2.3 0.2 3.4 0.7l320.5 129.2c3.4 1.4 5.6 4.7 5.6 8.3V780c0 3-1.5 5.8-4 7.5-1.5 1-3.2 1.6-5 1.6z" fill="#FC6B79" p-id="12386"></path><path d="M282.9 155l320.5 129.2V780L282.9 650.8V155m0-18c-3.5 0-7.1 1-10.1 3.1-5 3.3-7.9 8.9-7.9 14.9v495.8c0 7.3 4.5 13.9 11.3 16.7l320.5 129.2c2.2 0.9 4.5 1.3 6.7 1.3 3.5 0 7.1-1 10.1-3.1 5-3.3 7.9-8.9 7.9-14.9V284.3c0-7.3-4.5-13.9-11.3-16.7L289.6 138.3c-2.2-0.8-4.5-1.3-6.7-1.3z" fill="#330867" p-id="12387"></path><path d="M603.4 789.1c-1.8 0-3.6-0.6-5.2-1.6-2.4-1.7-3.8-4.4-3.8-7.4V284.3c0-3.8 2.4-7.2 6-8.5L708.8 237c1-0.4 2-0.5 3-0.5 1.8 0 3.6 0.6 5.2 1.6 2.4 1.7 3.8 4.4 3.8 7.4v495.8c0 3.8-2.4 7.2-6 8.5l-108.4 38.8c-1 0.3-2 0.5-3 0.5z" fill="#DD365E" p-id="12388"></path><path d="M711.8 245.5v495.8l-108.4 38.8V284.3l108.4-38.8m0-18c-2 0-4.1 0.3-6.1 1.1l-108.4 38.8c-7.2 2.6-11.9 9.3-11.9 16.9v495.8c0 5.9 2.8 11.3 7.6 14.7 3.1 2.2 6.7 3.3 10.4 3.3 2 0 4.1-0.3 6.1-1.1l108.4-38.8c7.2-2.6 11.9-9.3 11.9-16.9V245.5c0-5.9-2.8-11.3-7.6-14.7-3.1-2.2-6.7-3.3-10.4-3.3z" fill="#330867" p-id="12389"></path><path d="M278.2 237.1l272 109.7-94.5 35.6-272-109.6" fill="#F7D7FF" p-id="12390"></path><path d="M455.7 391.4c-1.1 0-2.3-0.2-3.4-0.7l-272-109.6c-4.6-1.9-6.8-7.1-5-11.7 1.9-4.6 7.1-6.8 11.7-5l268.8 108.4 69.6-26.3-250.7-101c-4.6-1.9-6.8-7.1-5-11.7 1.9-4.6 7.1-6.8 11.7-5l272.1 109.7c3.4 1.4 5.7 4.7 5.6 8.4 0 3.7-2.4 7-5.8 8.3l-94.5 35.6c-0.9 0.4-2 0.6-3.1 0.6z" fill="#330867" p-id="12391"></path><path d="M456.6 845.9c-1.1 0-2.3-0.2-3.4-0.7l-286-115.3c-3.4-1.4-5.6-4.7-5.6-8.3V279.1c0-3 1.5-5.8 4-7.5 1.5-1 3.3-1.5 5-1.5 1.1 0 2.3 0.2 3.4 0.7l286 115.3c3.4 1.4 5.6 4.7 5.6 8.3v442.5c0 3-1.5 5.8-4 7.5-1.4 0.9-3.2 1.5-5 1.5z" fill="#66C1FF" p-id="12392"></path><path d="M170.6 279.1l286.1 115.3v442.5L170.6 721.5V279.1m0-18c-3.5 0-7.1 1-10.1 3.1-5 3.3-7.9 8.9-7.9 14.9v442.5c0 7.3 4.5 13.9 11.3 16.7L450 853.6c2.2 0.9 4.5 1.3 6.7 1.3 3.5 0 7.1-1 10.1-3.1 5-3.3 7.9-8.9 7.9-14.9V394.4c0-7.3-4.5-13.9-11.3-16.7L177.3 262.4c-2.2-0.9-4.5-1.3-6.7-1.3z" fill="#330867" p-id="12393"></path><path d="M456.6 845.9c-1.8 0-3.6-0.6-5.2-1.6-2.4-1.7-3.8-4.4-3.8-7.4V394.4c0-3.8 2.4-7.2 6-8.5l96.8-34.6c1-0.4 2-0.5 3-0.5 1.8 0 3.6 0.6 5.2 1.6 2.4 1.7 3.8 4.4 3.8 7.4v442.5c0 3.8-2.4 7.2-6 8.5l-96.8 34.6c-0.9 0.3-1.9 0.5-3 0.5z" fill="#18A3D3" p-id="12394"></path><path d="M553.4 359.8v442.5l-96.8 34.6V394.4l96.8-34.6m0-18c-2 0-4.1 0.3-6.1 1.1l-96.8 34.6c-7.2 2.6-11.9 9.3-11.9 16.9v442.5c0 5.9 2.8 11.3 7.6 14.7 3.1 2.2 6.7 3.3 10.4 3.3 2 0 4.1-0.3 6.1-1.1l96.8-34.6c7.2-2.6 11.9-9.3 11.9-16.9V359.8c0-5.9-2.8-11.3-7.6-14.7-3.1-2.2-6.7-3.3-10.4-3.3z" fill="#330867" p-id="12395"></path><path d="M419.2 914.8c-1.9 0-3.8-0.6-5.3-1.7-0.3-0.2-0.6-0.5-0.8-0.7L129.5 798c-3.4-1.4-5.6-4.7-5.6-8.3V644.4c0-3 1.5-5.8 4-7.5 1.5-1 3.3-1.5 5-1.5 1.1 0 2.3 0.2 3.4 0.7l284.5 114.7 135.1-38.2c0.8-0.2 1.6-0.3 2.5-0.3 1.7 0 3.3 0.5 4.8 1.4 2.2 1.3 3.6 3.5 4.1 6l6.1 33.3L736 701.1l6.4-33.9c0.6-3.4 3.2-6.1 6.5-7l142.2-37.5c0.8-0.2 1.5-0.3 2.3-0.3 2 0 3.9 0.6 5.5 1.9 2.2 1.7 3.5 4.3 3.5 7.1v126.4c0 3.9-2.6 7.4-6.3 8.6l-474.2 148c-0.9 0.3-1.8 0.4-2.7 0.4z" fill="#FC6B79" p-id="12396"></path><path d="M893.4 631.3v126.4L419.2 905.8V760.5l139.1-39.4 7.9 43.4L743.8 708l7.4-39.2 142.2-37.5m-760.6 13.1l286.1 115.3V905L132.8 789.7V644.4m760.6-31.1c-1.5 0-3.1 0.2-4.6 0.6l-142.2 37.5c-6.7 1.8-11.8 7.2-13.1 14.1l-5.4 28.6-147.9 47-4.2-23.2c-0.9-5-3.9-9.4-8.2-12.1-2.9-1.8-6.2-2.7-9.5-2.7-1.6 0-3.3 0.2-4.9 0.7l-132.2 37.4-281.6-113.5c-2.2-0.9-4.5-1.3-6.7-1.3-3.5 0-7.1 1-10.1 3.1-5 3.3-7.9 8.9-7.9 14.9v145.3c0 7.3 4.5 13.9 11.3 16.7l282.3 113.8c0.1 0 0.1 0.1 0.2 0.1 3.1 2.3 6.9 3.5 10.7 3.5 1.8 0 3.6-0.3 5.4-0.8L899 774.9c7.5-2.3 12.6-9.3 12.6-17.2V631.3c0-5.6-2.6-10.9-7-14.3-3.4-2.4-7.3-3.7-11.2-3.7z" fill="#330867" p-id="12397"></path><path d="M258.9 810.2c-16.6 0-29.6-17.4-29.6-39.5s13-39.5 29.6-39.5 29.6 17.4 29.6 39.5-13 39.5-29.6 39.5z" fill="#FFFFFF" p-id="12398"></path><path d="M258.9 740.2c11.4 0 20.6 13.7 20.6 30.5s-9.2 30.5-20.6 30.5c-11.4 0-20.6-13.7-20.6-30.5s9.2-30.5 20.6-30.5m0-18c-21.6 0-38.6 21.3-38.6 48.5s17 48.5 38.6 48.5 38.6-21.3 38.6-48.5-17-48.5-38.6-48.5z" fill="#330867" p-id="12399"></path><path d="M492.3 851.7c-2.5 0-5-0.4-7.3-1.2-15.8-5.2-22.7-25.7-15.8-46.8 5.7-17.3 19.3-29.4 33.2-29.4 2.5 0 5 0.4 7.3 1.2 8 2.6 14.2 9.6 16.9 19.1 2.4 8.4 2 18.2-1.1 27.6-5.7 17.4-19.4 29.5-33.2 29.5z" fill="#FFFFFF" p-id="12400"></path><path d="M502.4 783.3c1.5 0 3 0.2 4.5 0.7 10.8 3.6 15.3 19.4 10 35.4-4.6 13.8-14.9 23.2-24.6 23.2-1.5 0-3-0.2-4.5-0.7-10.8-3.6-15.3-19.4-10-35.4 4.5-13.7 14.9-23.1 24.6-23.2m0-18c-17.9 0-34.7 14.3-41.7 35.6-8.5 25.8 0.9 51.4 21.5 58.1 3.3 1.1 6.7 1.6 10.1 1.6 17.9 0 34.7-14.3 41.7-35.6 8.5-25.8-0.9-51.4-21.5-58.1-3.2-1-6.6-1.6-10.1-1.6z" fill="#330867" p-id="12401"></path><path d="M824.4 749.5c-2.5 0-5-0.4-7.3-1.2-8-2.6-14.2-9.6-16.9-19.1-2.4-8.4-2-18.2 1.1-27.6 5.7-17.3 19.3-29.4 33.2-29.4 2.5 0 5 0.4 7.3 1.2 15.8 5.2 22.7 25.7 15.8 46.8-5.8 17.2-19.4 29.3-33.2 29.3z" fill="#FFFFFF" p-id="12402"></path><path d="M834.5 681.1c1.5 0 3 0.2 4.5 0.7 10.8 3.6 15.3 19.4 10 35.4-4.6 13.8-14.9 23.2-24.6 23.2-1.5 0-3-0.2-4.5-0.7-10.8-3.6-15.3-19.4-10-35.4 4.5-13.8 14.9-23.2 24.6-23.2m0-18c-17.9 0-34.7 14.3-41.7 35.6-8.5 25.8 0.9 51.4 21.5 58.1 3.3 1.1 6.7 1.6 10.1 1.6 17.9 0 34.7-14.3 41.7-35.6 3.7-11.1 4.1-22.8 1.2-32.9-3.5-12.4-11.8-21.6-22.7-25.2-3.3-1.1-6.7-1.6-10.1-1.6z" fill="#330867" p-id="12403"></path></svg>