<?xml version="1.0" standalone="no"?><!DOCTYPE svg PUBLIC "-//W3C//DTD SVG 1.1//EN" "http://www.w3.org/Graphics/SVG/1.1/DTD/svg11.dtd"><svg t="1645192079232" class="icon" viewBox="0 0 1024 1024" version="1.1" xmlns="http://www.w3.org/2000/svg" p-id="50441" xmlns:xlink="http://www.w3.org/1999/xlink" width="200" height="200"><defs><style type="text/css"></style></defs><path d="M781.031917 1005.969812a20.830141 20.830141 0 0 1-14.790781-6.131436l-88.836762-88.832576a20.918031 20.918031 0 0 1 0-29.589933 20.913846 20.913846 0 0 1 29.585747 0l88.836762 88.832577a20.918031 20.918031 0 0 1-14.794966 35.721368zM247.906714 1005.969812a20.918031 20.918031 0 0 1-14.799151-35.721368l88.832576-88.832577a20.926402 20.926402 0 1 1 29.594118 29.589933l-88.832577 88.832576a20.842696 20.842696 0 0 1-14.794966 6.131436zM508.791983 219.03665a20.851067 20.851067 0 0 1-14.585703-5.926357l-175.405101-170.592029a20.926402 20.926402 0 1 1 29.175589-30.004276l175.400917 170.596215a20.934773 20.934773 0 0 1 0.418528 29.589932 20.863623 20.863623 0 0 1-15.00423 6.336515z" fill="#6E6E96" p-id="50442"></path><path d="M508.791983 219.03665a20.926402 20.926402 0 0 1-14.799152-35.721368l173.011121-172.998566a20.922217 20.922217 0 1 1 29.585747 29.594118L523.586949 212.909399a20.846882 20.846882 0 0 1-14.794966 6.127251z" fill="#6E6E96" p-id="50443"></path><path d="M974.475577 796.944353c0 51.303167-41.974177 93.277344-93.277344 93.277344H138.110068C86.806901 890.221697 44.832724 848.243335 44.832724 796.944353V293.639273c0-51.303167 41.974177-93.277344 93.277344-93.277344h743.083979c51.303167 0 93.277344 41.974177 93.277345 93.277344v503.30508z" fill="#F0F0FF" p-id="50444"></path><path d="M909.432134 219.995079a88.644239 88.644239 0 0 1 7.939477 36.683983v502.40943c0 49.503497-15.652949 73.267519-65.482897 73.267518H105.092391c-13.890946 0-27.074579-3.155701-38.868699-8.772347 14.204842 31.34775 45.958564 53.324658 82.650917 53.324657h721.688826c49.829948 0 90.59458-40.509329 90.59458-90.00864V301.239742c-0.004185-35.704627-21.211001-66.72174-51.725881-81.244663z" fill="#6E6E96" opacity=".2" p-id="50445"></path><path d="M101.354935 831.732404a88.652609 88.652609 0 0 1-7.939476-36.688168V322.103365c0-49.503497 15.652949-73.267519 65.478711-73.267519H877.577965c13.890946 0 27.074579 3.155701 38.864514 8.768163 3.063625-57.237895-45.954379-53.324658-82.650917-53.324658H140.223635c-49.825763 0-90.590394 40.505144-90.590395 90.00864v485.664124c0 35.700442 16.590452 51.780289 51.721695 51.780289z" fill="#FFFFFF" p-id="50446"></path><path d="M881.194047 911.148099H138.110068C75.138339 911.148099 23.906322 859.907711 23.906322 796.944353V293.643458c0-62.971729 51.232017-114.203746 114.203746-114.203746h743.083979c62.967544 0 114.203746 51.232017 114.203747 114.203746v503.29671c0.004185 62.967544-51.236203 114.207932-114.203747 114.207931zM138.110068 221.292516C98.215975 221.292516 65.759126 253.74518 65.759126 293.643458v503.29671c0 39.889908 32.45685 72.350942 72.350942 72.350942h743.083979c39.889908 0 72.350942-32.461035 72.350943-72.350942V293.643458c0-39.894093-32.461035-72.350942-72.350943-72.350942H138.110068z" fill="#6E6E96" p-id="50447"></path><path d="M833.791562 360.607945m-54.797877 0a54.797876 54.797876 0 1 0 109.595753 0 54.797876 54.797876 0 1 0-109.595753 0Z" fill="#9CA2D1" p-id="50448"></path><path d="M833.791562 436.336408c-41.756543 0-75.728464-33.971921-75.728464-75.724278 0-41.756543 33.971921-75.728464 75.728464-75.728464 41.760728 0 75.732649 33.971921 75.732648 75.728464 0 41.752357-33.971921 75.724278-75.732648 75.724278z m0-109.599938c-18.678906 0-33.87566 15.196753-33.87566 33.87566 0 18.674721 15.196753 33.871474 33.87566 33.871474 18.683092 0 33.879845-15.196753 33.879844-33.871474 0-18.678906-15.196753-33.87566-33.879844-33.87566z" fill="#6E6E96" p-id="50449"></path><path d="M833.791562 556.194468m-54.797877 0a54.797876 54.797876 0 1 0 109.595753 0 54.797876 54.797876 0 1 0-109.595753 0Z" fill="#9CA2D1" p-id="50450"></path><path d="M833.791562 631.922932c-41.756543 0-75.728464-33.967736-75.728464-75.728464s33.971921-75.724278 75.728464-75.724278c41.760728 0 75.732649 33.976106 75.732648 75.724278s-33.971921 75.728464-75.732648 75.728464z m0-109.599938c-18.678906 0-33.87566 15.192568-33.87566 33.871474s15.196753 33.87566 33.87566 33.87566c18.683092 0 33.879845-15.196753 33.879844-33.87566s-15.196753-33.871474-33.879844-33.871474z" fill="#6E6E96" p-id="50451"></path><path d="M700.025815 678.83574c-11.614153 44.573236-36.583536 90.992181-81.843159 99.241369a1212.588735 1212.588735 0 0 1-402.368672 0c-45.259622-8.253373-73.773938-55.404742-81.847344-99.241369-16.510931-89.619409-16.510931-195.762306 0-268.879154 9.818668-43.476693 36.587721-90.992181 81.847344-99.241369a1212.366915 1212.366915 0 0 1 402.368672 0c45.255437 8.253373 69.145018 56.518027 81.843159 99.241369 21.231927 71.400884 13.593791 190.488852 0 268.879154z" fill="#66DEC5" p-id="50452"></path><path d="M682.857794 421.566554c-11.430001-38.454356-32.481961-81.579486-71.371586-92.406806 5.093486 10.994732 9.224358 22.466585 12.518173 33.561763 20.085161 67.542055 12.865552 180.197248 0 254.352046-10.986361 42.1667-34.612269 86.074477-77.427687 93.88421a1147.21884 1147.21884 0 0 1-380.626141 0 73.171257 73.171257 0 0 1-8.429155-2.101011c12.970184 29.610859 35.830186 55.212219 67.274198 60.946054a1147.022132 1147.022132 0 0 0 380.630326 0c42.815419-7.805548 66.437141-51.713325 77.427687-93.880025 12.865552-74.150613 20.085161-186.814176 0.004185-254.356231z" fill="#6E6E96" opacity=".2" p-id="50453"></path><path d="M192.204817 711.652524c-46.159458-104.661307-18.42779-194.263975-3.603526-259.922654 8.818386-39.044481 50.210809-84.504997 90.858252-91.917129 119.602758-20.127013 337.789796-37.927011 350.713942 29.456004 0.615236 3.235222-9.730777-27.689815-6.729931-26.664422-8.345449-39.647161-22.274062-45.025247-50.097807-50.097806a1088.716991 1088.716991 0 0 0-361.336183 0c-40.647443 7.412132-64.687694 50.07688-73.501894 89.121361-14.828448 65.658679-14.828448 160.974255 0 241.461382 6.516482 35.415843 9.266211 68.563264 53.697147 68.563264-5.512014-11.463483 4.913519 11.149587 0 0z" fill="#FFFFFF" opacity=".2" p-id="50454"></path><path d="M416.996228 816.401722A1237.997572 1237.997572 0 0 1 212.24394 799.300666c-55.819085-10.182787-90.100716-65.863758-99.442263-116.564245-17.055018-92.590958-16.988053-201.521251 0.175782-277.521758 11.116105-49.223083 42.957718-105.460696 98.981882-115.67278a1238.294727 1238.294727 0 0 1 205.041072-17.159649c68.408408 0 137.298124 5.754761 204.752288 17.105241 56.773329 10.346013 85.090936 67.881063 98.902361 114.329305 15.372535 51.713325 21.520712 157.944112 0.577568 278.689451l-0.38086 1.749447c-17.113612 65.650308-52.207188 106.486089-98.8061 114.982209a1237.533006 1237.533006 0 0 1-205.049442 17.163835z m0-500.973879c-66.018613 0-132.505978 5.558052-197.6122 16.510931-35.093576 6.399294-56.342245 46.958846-64.432392 82.76392-15.979401 70.768906-15.912436 172.919045 0.175782 260.23655 6.445332 34.984759 29.393224 75.565238 64.545394 81.972902a1193.897273 1193.897273 0 0 0 197.323416 16.456522 1195.525347 1195.525347 0 0 0 197.612199-16.50256c38.701288-7.064753 56.898887-54.383534 64.369613-82.600694 14.116951-81.964531 19.7043-193.318102 0.418528-258.169022-10.371125-34.892683-30.083796-77.825289-65.076925-84.203656a1193.001623 1193.001623 0 0 0-197.323415-16.464893z" fill="#6E6E96" p-id="50455"></path><path d="M228.29449 542.320264l174.132776-141.169508s-200.922756-54.170084-174.132776 141.169508z" fill="#FFFFFF" opacity=".3" p-id="50456"></path><path d="M336.224501 444.606522c0-34.528563 22.726073-45.996232 50.499593-25.488357l106.444237 78.603751c27.773521 20.516245 28.271569 54.735097 1.113284 76.05073l-108.66662 85.258347c-27.166655 21.315633-49.390494 10.505054-49.390494-24.023509v-190.400962z" fill="#FFFFFF" p-id="50457"></path></svg>