<?xml version="1.0" standalone="no"?><!DOCTYPE svg PUBLIC "-//W3C//DTD SVG 1.1//EN" "http://www.w3.org/Graphics/SVG/1.1/DTD/svg11.dtd"><svg t="1645191659244" class="icon" viewBox="0 0 1024 1024" version="1.1" xmlns="http://www.w3.org/2000/svg" p-id="19876" xmlns:xlink="http://www.w3.org/1999/xlink" width="200" height="200"><defs><style type="text/css"></style></defs><path d="M512 512m-435.05 0a435.05 435.05 0 1 0 870.1 0 435.05 435.05 0 1 0-870.1 0Z" fill="#2C3D71" p-id="19877"></path><path d="M512 960C265 960 64 759 64 512S265 64 512 64s448 201 448 448-201 448-448 448z m0-870.1C279.25 89.9 89.9 279.25 89.9 512S279.25 934.1 512 934.1 934.1 744.75 934.1 512 744.75 89.9 512 89.9z" fill="#1B1E3B" p-id="19878"></path><path d="M407.34 349.76s20.72-10.36 31.08 0 31.08 31.08 46.61 20.72 51.79-15.54 62.15-10.36 36.25 10.36 46.61 0S547.18 298 547.18 298s-46.61-15.54-67.33-10.36-62.15 31.05-72.51 62.12z" fill="#8DA0B7" p-id="19879"></path><path d="M407.34 349.76a43.13 43.13 0 0 1 11.51-6 29.28 29.28 0 0 1 13.91-1.46 19.15 19.15 0 0 1 7.3 3.08l1.66 1.21 1.22 1 2.43 2c3.24 2.56 6.35 5.15 9.61 7.43 6.41 4.46 13.41 8.42 19.09 8.87a9.89 9.89 0 0 0 6.86-1.79 64.92 64.92 0 0 1 12.84-6.36 110.5 110.5 0 0 1 26.12-5.89 91.77 91.77 0 0 1 13.46-0.51c4.63 0.23 9.12 0.48 14.59 2.65l2 0.92 1.14 0.65c0.75 0.44 1.65 0.82 2.47 1.24 1.73 0.77 3.54 1.45 5.37 2.17a70.35 70.35 0 0 0 11.43 3.21 50.29 50.29 0 0 0 11.83 1.18 22.53 22.53 0 0 0 11.62-3.16c-2.42 3.6-6.59 6-10.82 7.39a48.69 48.69 0 0 1-13.23 2.2 74.63 74.63 0 0 1-13.36-0.95 55.62 55.62 0 0 1-6.66-1.49c-1.12-0.37-2.22-0.66-3.37-1.11l-1.72-0.66c-0.43-0.13-0.62-0.12-0.93-0.21a42.47 42.47 0 0 0-10.26-0.32 106.86 106.86 0 0 0-11.61 1.42 129.37 129.37 0 0 0-22.71 5.85 53.45 53.45 0 0 0-9.77 4.56 24.66 24.66 0 0 1-17.15 3.6 37.73 37.73 0 0 1-14.21-5.72 65.34 65.34 0 0 1-10.76-8.5 120.39 120.39 0 0 1-9-9.49l-2-2.46-1-1.23-0.75-0.81a11.72 11.72 0 0 0-3.77-2.68c-6.39-2.75-15.23-1.72-23.38 0.17z" fill="#FFFFFF" p-id="19880"></path><path d="M237.14 729.79c10.62-4.48 19.34-12.3 26.89-20.68a146.49 146.49 0 0 0 19.25-27.9c10.67-20 18-41.6 22.91-63.7 2.5-11 4.67-22.17 6.2-33.42 0.89-5.6 1.44-11.26 2.13-16.88s1.29-11.55 2.09-17.3a531.72 531.72 0 0 1 14.18-68.38c12.28-45 30.19-88.52 54.69-128.82 12.45-20 26.76-39.22 45-55.63 9.17-8.11 19.48-15.56 31.87-20.49a61.47 61.47 0 0 1 20.16-4.3 124.34 124.34 0 0 1 18.89 1.1c24.84 3.39 48.24 14.45 67.14 30.3a151 151 0 0 1 42.92 59.11 156.19 156.19 0 0 1 5.85 17.41c1.62 6 2.76 11.68 4 17.24 2.45 11.2 5 22.34 7.6 33.46 5.32 22.22 10.95 44.36 17.13 66.33 12.62 43.83 27.09 87.26 46.74 128.33 9.73 20.55 21 40.42 34.5 58.69a190.93 190.93 0 0 0 22.55 25.51 121.84 121.84 0 0 0 27.72 20c-21.47-8.65-39.58-24.41-54.75-41.91s-27.8-37.35-39.07-57.64c-22.21-40.84-39-84.26-53.16-128.3q-10.68-33-19.27-66.64-4.36-16.77-8.38-33.59c-1.37-5.63-2.65-11.24-4.12-16.26a136.73 136.73 0 0 0-5.44-15.14 134 134 0 0 0-37.72-51c-16.37-13.52-36.23-22.66-57-25.35a109.49 109.49 0 0 0-15.48-1 41 41 0 0 0-13.4 2.82c-9.05 3.49-17.82 9.5-25.85 16.55-16.14 14.2-29.68 32.19-41.8 50.91-24.25 37.7-42.07 79.79-55.8 122.9a569.93 569.93 0 0 0-16.32 66c-1.06 5.59-2 11.14-2.87 16.81s-1.83 11.49-3 17.2q-3.22 17.16-8.08 34c-6.53 22.35-15.25 44.29-27.78 64a149 149 0 0 1-21.94 27.17c-8.55 7.86-18.16 14.98-29.18 18.49z" fill="#FFFFFF" p-id="19881"></path><path d="M183.56 741.44c54.71-4.67 109.43-7.31 164.16-9.22 27.36-1.15 54.73-1.55 82.1-2.31l82.11-1.15h82.11c27.37 0.38 54.74 0.37 82.12 1.14 54.75 1.13 109.51 3 164.28 6.92-54.71 4.7-109.43 7.34-164.16 9.25-27.36 1.16-54.73 1.54-82.1 2.31l-82.11 1.13H430c-27.37-0.37-54.74-0.39-82.12-1.15-54.79-1.17-109.55-3.02-164.32-6.92zM358.26 460.9a90.45 90.45 0 0 1 12.48-36.54 50 50 0 0 1 14.75-15.17 34.23 34.23 0 0 1 22.71-4.94c7.86 0.83 15 4.63 20.32 7.51 5.76 3 11.24 6.36 16.65 9.71 10.79 6.74 21 14 31.14 20.4S496.63 454 507 457.33a59.61 59.61 0 0 0 15.74 2.77l4 0.12 4-0.42a77.69 77.69 0 0 0 8.7-1.25c24.11-4.21 48.19-10.12 72.72-16.28-21.11 14.14-44.5 24.47-68.9 32.12a94.08 94.08 0 0 1-9.62 2.56l-5.26 1-5.37 0.39c-7.2 0.56-14.39-0.53-21.25-2.1-13.68-3.55-25.63-10.06-36.56-16.93s-20.93-14.47-30.92-21.58q-7.47-5.36-15-10.32c-5.34-3.48-9.27-6.11-13.86-7.21a22.87 22.87 0 0 0-6.72-0.72 26.05 26.05 0 0 0-6.85 1.6c-4.63 1.84-9.09 5.31-13.12 9.47-8.2 8.39-14.66 19.17-20.47 30.35z" fill="#FFFFFF" p-id="19882"></path></svg>