<?xml version="1.0" standalone="no"?><!DOCTYPE svg PUBLIC "-//W3C//DTD SVG 1.1//EN" "http://www.w3.org/Graphics/SVG/1.1/DTD/svg11.dtd"><svg t="1645191911917" class="icon" viewBox="0 0 1024 1024" version="1.1" xmlns="http://www.w3.org/2000/svg" p-id="41313" xmlns:xlink="http://www.w3.org/1999/xlink" width="200" height="200"><defs><style type="text/css"></style></defs><path d="M518.4512 522.24m-436.2752 0a436.2752 436.2752 0 1 0 872.5504 0 436.2752 436.2752 0 1 0-872.5504 0Z" fill="#C0EFFF" p-id="41314"></path><path d="M798.208 455.68c0-155.648-126.208-281.856-281.856-281.856C360.6528 173.824 234.496 300.032 234.496 455.68c0 124.8256 81.2032 230.656 193.6384 267.6736l-19.5584 54.7328H355.9424a32.3072 32.3072 0 1 0 0 64.6144h320.768a32.3072 32.3072 0 1 0 0-64.6144h-45.4144l-24.3712-55.552c111.2064-37.6832 191.2832-142.8992 191.2832-266.8544z" fill="#6FCBF6" p-id="41315"></path><path d="M798.208 455.68c0-16.0768-1.4336-31.7952-3.9936-47.104-56.2688-95.6928-158.72-159.744-275.712-159.744C397.312 248.832 291.84 317.4912 236.9536 418.8672c-1.5872 12.032-2.4576 24.32-2.4576 36.7616 0 124.8256 81.2032 230.656 193.6384 267.6736l-19.5584 54.7328H355.9424a32.3072 32.3072 0 1 0 0 64.6144h320.768a32.3072 32.3072 0 1 0 0-64.6144h-45.4144l-24.3712-55.552c111.2064-37.632 191.2832-142.848 191.2832-266.8032z" fill="#68BEF3" p-id="41316"></path><path d="M796.0576 490.4448c-55.8592-95.232-159.232-159.1808-277.6064-159.1808-120.832 0-226.048 66.6624-281.0368 165.12 15.4624 106.7008 90.6752 193.9968 190.6176 226.9696l-19.5584 54.7328H355.9424a32.3072 32.3072 0 1 0 0 64.6144h320.768a32.3072 32.3072 0 1 0 0-64.6144h-45.4144l-24.3712-55.552c100.6592-34.0992 175.7696-123.4944 189.1328-232.0896z" fill="#5CAAF0" p-id="41317"></path><path d="M781.7216 550.6048c-58.2144-82.7904-154.368-136.96-263.2704-136.96-110.6432 0-208.2304 55.8592-266.1376 140.9536 29.8496 79.5648 94.6688 142.0288 175.7184 168.7552l-19.5584 54.7328H355.9424a32.3072 32.3072 0 1 0 0 64.6144h320.768a32.3072 32.3072 0 1 0 0-64.6144h-45.4144l-24.3712-55.552c81.3056-27.5456 145.92-91.2384 174.7968-171.9296z" fill="#4F94EB" p-id="41318"></path><path d="M757.1456 602.112c-58.88-65.1264-143.9744-106.0352-238.6944-106.0352-96.0512 0-182.2208 42.1376-241.2032 108.9024 34.6112 55.1936 87.808 97.5872 150.784 118.3744l-19.5584 54.7328H355.9424a32.3072 32.3072 0 1 0 0 64.6144h320.768a32.3072 32.3072 0 1 0 0-64.6144h-45.4144l-24.3712-55.552c63.0784-21.3504 116.1216-64.4608 150.2208-120.4224z" fill="#3A8CE6" p-id="41319"></path><path d="M516.352 642.7136c-80.896 0-146.688-65.792-146.688-146.688 0-80.896 65.792-146.688 146.688-146.688 80.896 0 146.688 65.792 146.688 146.688 0 80.8448-65.8432 146.688-146.688 146.688z m0-231.936c-47.0016 0-85.248 38.2464-85.248 85.248s38.2464 85.248 85.248 85.248 85.248-38.2464 85.248-85.248-38.2464-85.248-85.248-85.248z" fill="#FFFFFF" p-id="41320"></path><path d="M516.352 291.1744m-29.6448 0a29.6448 29.6448 0 1 0 59.2896 0 29.6448 29.6448 0 1 0-59.2896 0Z" fill="#FFFFFF" p-id="41321"></path></svg>