<?xml version="1.0" standalone="no"?><!DOCTYPE svg PUBLIC "-//W3C//DTD SVG 1.1//EN" "http://www.w3.org/Graphics/SVG/1.1/DTD/svg11.dtd"><svg t="1645192086466" class="icon" viewBox="0 0 1024 1024" version="1.1" xmlns="http://www.w3.org/2000/svg" p-id="50608" xmlns:xlink="http://www.w3.org/1999/xlink" width="200" height="200"><defs><style type="text/css"></style></defs><path d="M513.792 514.5088m-457.0112 0a457.0112 457.0112 0 1 0 914.0224 0 457.0112 457.0112 0 1 0-914.0224 0Z" fill="#8C7BFD" p-id="50609"></path><path d="M440.6272 732.16c-17.6128 0-35.2768-4.6592-51.3024-13.9264-32.1536-18.5344-51.3024-51.7632-51.3024-88.8832V399.6672c0-37.12 19.2-70.3488 51.3024-88.8832 32.1536-18.5856 70.5024-18.5344 102.656 0l198.912 114.8416c32.1536 18.5344 51.3024 51.7632 51.3024 88.8832s-19.2 70.3488-51.3024 88.8832l-198.912 114.8416c-16.0768 9.2672-33.7408 13.9264-51.3536 13.9264z m0.0512-332.6976c-0.1024 0-0.3072 0.1024-0.4096 0.2048l0.1024 229.6832c0 0.1536 0.256 0.3072 0.4096 0.3072l198.8608-114.944c0.1536-0.0512 0.1536-0.3584 0.1024-0.512l-0.1024 0.1024-198.8608-114.8416h-0.1024z" fill="#FFE37B" p-id="50610"></path></svg>