<?xml version="1.0" standalone="no"?><!DOCTYPE svg PUBLIC "-//W3C//DTD SVG 1.1//EN" "http://www.w3.org/Graphics/SVG/1.1/DTD/svg11.dtd"><svg t="1635173379213" class="icon" viewBox="0 0 1024 1024" version="1.1" xmlns="http://www.w3.org/2000/svg" p-id="21710" xmlns:xlink="http://www.w3.org/1999/xlink" width="300" height="300"><defs><style type="text/css"></style></defs><path d="M512 512m-512 0a512 512 0 1 0 1024 0 512 512 0 1 0-1024 0Z" fill="#E8ECFF" p-id="21711"></path><path d="M273.066667 256h477.866666a34.133333 34.133333 0 0 1 34.133334 34.133333v460.8a34.133333 34.133333 0 0 1-34.133334 34.133334H273.066667a34.133333 34.133333 0 0 1-34.133334-34.133334V290.133333a34.133333 34.133333 0 0 1 34.133334-34.133333z m52.565333 119.466667a25.6 25.6 0 1 0 0-51.2 25.6 25.6 0 0 0 0 51.2z m109.568 0a25.6 25.6 0 1 0 0-51.2 25.6 25.6 0 0 0 0 51.2z m102.4 0a25.6 25.6 0 1 0 0-51.2 25.6 25.6 0 0 0 0 51.2z m-213.316267 51.2a34.133333 34.133333 0 0 0-34.133333 34.133333v221.866667a34.133333 34.133333 0 0 0 34.133333 34.133333h375.466667a34.133333 34.133333 0 0 0 34.133333-34.133333V460.8a34.133333 34.133333 0 0 0-34.133333-34.133333h-375.466667z m332.919467 140.322133c-7.1168 1.4848-14.455467 3.413333-22.016 5.819733-6.519467 1.9968-13.841067 4.5056-21.981867 7.509334-8.1408 3.0208-16.349867 6.7072-24.576 11.042133l35.976534 30.7712a23.381333 23.381333 0 0 1 5.751466 17.527467c-0.273067 3.072-1.092267 6.007467-2.4576 8.840533-1.365333 2.833067-3.345067 5.358933-5.922133 7.5776-2.4064 2.184533-5.137067 3.7376-8.157867 4.676267a23.722667 23.722667 0 0 1-9.147733 1.024 25.053867 25.053867 0 0 1-8.840533-2.474667 23.483733 23.483733 0 0 1-7.560534-5.905067L556.202667 614.4c-6.673067 6.2464-12.544 12.629333-17.595734 19.1488-5.0688 6.519467-9.3184 12.544-12.7488 18.039467-4.061867 6.280533-7.509333 12.509867-10.2912 18.670933l-43.9808-188.398933 185.6 85.111466z" fill="#4551B1" p-id="21712"></path></svg>