<?xml version="1.0" standalone="no"?><!DOCTYPE svg PUBLIC "-//W3C//DTD SVG 1.1//EN" "http://www.w3.org/Graphics/SVG/1.1/DTD/svg11.dtd"><svg t="1635173399387" class="icon" viewBox="0 0 1024 1024" version="1.1" xmlns="http://www.w3.org/2000/svg" p-id="22828" xmlns:xlink="http://www.w3.org/1999/xlink" width="300" height="300"><defs><style type="text/css"></style></defs><path d="M977.295 875.877H211.722c-20.946 0-37.96-19.016-37.96-42.353V285.838c0-23.358 17.01-42.353 37.96-42.353h765.573c20.916 0 37.924 18.995 37.924 42.353v547.686c0 23.337-17.008 42.353-37.924 42.353z m-755.66-50.821h745.753v-530.75H221.635v530.75z" fill="#FC6D41" p-id="22829"></path><path d="M375.332 801.396H270.31c-13.214 0-23.936-10.122-23.936-22.6 0-12.477 10.722-22.558 23.936-22.558h105.022c13.215 0 23.936 10.086 23.936 22.558-0.005 12.483-10.721 22.6-23.936 22.6z m181.15 0h-105.02c-13.216 0-23.973-10.122-23.973-22.6 0-12.477 10.757-22.558 23.972-22.558h105.022c13.214 0 23.9 10.086 23.9 22.558-0.005 12.483-10.686 22.6-23.9 22.6z m181.11 0H632.535c-13.215 0-23.9-10.122-23.9-22.6 0-12.477 10.685-22.558 23.9-22.558h105.057c13.18 0 23.9 10.086 23.9 22.558 0 12.483-10.72 22.6-23.9 22.6z m181.08 0H813.65c-13.215 0-23.9-10.122-23.9-22.6 0-12.477 10.685-22.558 23.9-22.558H918.67c13.215 0 23.936 10.086 23.936 22.558 0 12.483-10.72 22.6-23.936 22.6zM375.332 365.935H270.31c-13.214 0-23.936-10.122-23.936-22.6s10.722-22.564 23.936-22.564h105.022c13.215 0 23.936 10.087 23.936 22.564s-10.721 22.6-23.936 22.6z m181.15 0h-105.02c-13.216 0-23.973-10.122-23.973-22.6s10.757-22.564 23.972-22.564h105.022c13.214 0 23.9 10.087 23.9 22.564s-10.686 22.6-23.9 22.6z m181.11 0H632.535c-13.215 0-23.9-10.122-23.9-22.6s10.685-22.564 23.9-22.564h105.057c13.18 0 23.9 10.087 23.9 22.564s-10.72 22.6-23.9 22.6z m181.08 0H813.65c-13.215 0-23.9-10.122-23.9-22.6s10.685-22.564 23.9-22.564H918.67c13.215 0 23.936 10.087 23.936 22.564s-10.72 22.6-23.936 22.6zM156.892 620.706h-54.41c-11.633 0-21.12-10.015-21.12-22.39 0-12.405 9.492-22.42 21.12-22.42h54.405v44.81z m53.458-436.168H105.293c-13.18 0-23.936-9.943-23.936-22.23 0-12.283 10.757-22.232 23.936-22.232H210.35c13.179 0 23.9 9.949 23.9 22.231 0 12.288-10.721 22.231-23.9 22.231z m181.115 0H286.444c-13.215 0-23.936-9.943-23.936-22.23 0-12.283 10.72-22.232 23.936-22.232h105.021c13.215 0 23.936 9.949 23.936 22.231-0.005 12.288-10.721 22.231-23.936 22.231z m181.11 0H467.517c-13.178 0-23.9-9.943-23.9-22.23 0-12.283 10.722-22.232 23.9-22.232h105.058c13.214 0 23.936 9.949 23.936 22.231 0 12.288-10.722 22.231-23.936 22.231z m181.115 0H648.668c-13.215 0-23.936-9.943-23.936-22.23 0-12.283 10.721-22.232 23.936-22.232H753.69c13.214 0 23.936 9.949 23.936 22.231 0 12.288-10.722 22.231-23.936 22.231z" fill="#FC6D41" p-id="22830"></path><path d="M157.804 644.366H56.617v-530.75h745.754v112.927h47.872v-121.4c0-23.337-17.014-42.348-37.96-42.348H46.705c-20.91 0-37.924 19.01-37.924 42.348v547.691c0 23.342 17.014 42.348 37.924 42.348h111.099v-50.816zM523.336 457.931l176.19 101.73-176.19 101.75z" fill="#FC6D41" p-id="22831"></path></svg>