<?xml version="1.0" standalone="no"?><!DOCTYPE svg PUBLIC "-//W3C//DTD SVG 1.1//EN" "http://www.w3.org/Graphics/SVG/1.1/DTD/svg11.dtd"><svg t="1635173346418" class="icon" viewBox="0 0 1024 1024" version="1.1" xmlns="http://www.w3.org/2000/svg" p-id="19851" xmlns:xlink="http://www.w3.org/1999/xlink" width="300" height="300"><defs><style type="text/css"></style></defs><path d="M768.042667 853.333333H938.666667v85.333334H512C276.352 938.666667 85.333333 747.648 85.333333 512S276.352 85.333333 512 85.333333s426.666667 191.018667 426.666667 426.666667a426.026667 426.026667 0 0 1-170.624 341.333333zM512 384a85.333333 85.333333 0 1 0 0-170.666667 85.333333 85.333333 0 0 0 0 170.666667z m0 426.666667a85.333333 85.333333 0 1 0 0-170.666667 85.333333 85.333333 0 0 0 0 170.666667z m128-298.666667a85.333333 85.333333 0 1 0 170.666667 0 85.333333 85.333333 0 0 0-170.666667 0zM213.333333 512a85.333333 85.333333 0 1 0 170.666667 0 85.333333 85.333333 0 0 0-170.666667 0z m298.666667 64a64 64 0 1 0 0-128 64 64 0 0 0 0 128z" fill="#4398FF" p-id="19852"></path></svg>