<?xml version="1.0" standalone="no"?><!DOCTYPE svg PUBLIC "-//W3C//DTD SVG 1.1//EN" "http://www.w3.org/Graphics/SVG/1.1/DTD/svg11.dtd"><svg t="1635173390017" class="icon" viewBox="0 0 1024 1024" version="1.1" xmlns="http://www.w3.org/2000/svg" p-id="22684" xmlns:xlink="http://www.w3.org/1999/xlink" width="300" height="300"><defs><style type="text/css"></style></defs><path d="M824.7 140.1H198c-74.3 0-134.7 60.4-134.7 134.7v474.4c0 74.3 60.4 134.7 134.7 134.7h626.7c74.3 0 134.7-60.4 134.7-134.7V274.8c-0.1-74.2-60.5-134.7-134.7-134.7zM117.2 538.9H183v95.6h-65.8v-95.6z m65.7-53.9h-65.8v-95.6h65.8V485z m53.9-291h549v636h-549V194z m668.7 291h-65.8v-95.6h65.8V485z m-65.8 53.9h65.8v95.6h-65.8v-95.6z m65.8-264.1v60.8h-65.8V195.5c37.4 7 65.8 39.9 65.8 79.3z m-722.6-79.3v140.1h-65.8v-60.8c0.1-39.4 28.4-72.3 65.8-79.3z m-65.7 553.7v-60.8H183v140.2c-37.5-7.1-65.8-40-65.8-79.4z m722.5 79.3V688.4h65.8v60.8c0 39.4-28.4 72.3-65.8 79.3z" fill="#e59233" p-id="22685"></path><path d="M641 457.7L444.3 344.1c-19.6-11.3-43.1-11.3-62.7 0s-31.4 31.6-31.4 54.3v227.2c0 22.7 11.7 43 31.4 54.3 9.8 5.7 20.6 8.5 31.4 8.5 10.8 0 21.5-2.8 31.4-8.5L641 566.3c19.6-11.3 31.4-31.6 31.4-54.3 0-22.7-11.7-43-31.4-54.3z m-26.9 62L417.4 633.3c-3.8 2.2-7.2 1-8.9 0-1.7-1-4.4-3.2-4.4-7.7V398.4c0-4.4 2.8-6.7 4.4-7.7 1-0.6 2.5-1.2 4.5-1.2 1.3 0 2.8 0.3 4.4 1.2l196.8 113.6c3.8 2.2 4.4 5.8 4.4 7.7-0.1 1.9-0.6 5.4-4.5 7.7z" fill="#e59233" p-id="22686"></path></svg>