<?xml version="1.0" standalone="no"?><!DOCTYPE svg PUBLIC "-//W3C//DTD SVG 1.1//EN" "http://www.w3.org/Graphics/SVG/1.1/DTD/svg11.dtd"><svg t="1635174058773" class="icon" viewBox="0 0 1024 1024" version="1.1" xmlns="http://www.w3.org/2000/svg" p-id="29479" xmlns:xlink="http://www.w3.org/1999/xlink" width="300" height="300"><defs><style type="text/css"></style></defs><path d="M0 512c0 282.774588 229.225412 512 512 512s512-229.225412 512-512S794.774588 0 512 0 0 229.225412 0 512z" fill="#448AFF" p-id="29480"></path><path d="M735.984941 452.065882L449.837176 266.541176a52.645647 52.645647 0 0 0-28.912941-8.704c-28.129882 0-54.151529 22.859294-54.151529 55.205648v371.139764c0 32.316235 26.021647 55.205647 54.181647 55.205647 9.697882 0 19.666824-2.740706 28.882823-8.704l286.117648-185.584941c33.430588-21.684706 33.430588-71.378824 0-93.003294z m-21.534117 58.458353l-286.117648 185.584941a13.191529 13.191529 0 0 1-7.378823 2.288942 14.275765 14.275765 0 0 1-14.095059-14.336V312.922353c0-9.788235 8.432941-14.305882 14.095059-14.305882 2.56 0 4.969412 0.752941 7.348706 2.319058l286.147765 185.584942a13.944471 13.944471 0 0 1 6.475294 12.016941 13.854118 13.854118 0 0 1-6.475294 11.986823z" fill="#FFFFFF" p-id="29481"></path></svg>