<?xml version="1.0" encoding="utf-8"?>
<!-- Generator: Adobe Illustrator 25.2.3, SVG Export Plug-In . SVG Version: 6.00 Build 0)  -->
<svg xmlns:xlink="http://www.w3.org/1999/xlink" version="1.1" id="图层_1" xmlns="http://www.w3.org/2000/svg" x="0px"
     y="0px"
     viewBox="0 0 64 64" style="enable-background:new 0 0 64 64;" xml:space="preserve">
<style type="text/css">
	.st0{fill:#EC4152;}
	.st1{fill:#FBBA4B;}
	.st2{fill:#56AB8A;}
</style>
    <g>
	<path class="st0" d="M30.9,41.8c0.8-0.5,1.7-0.8,2.3-0.1c0.4,0.7-0.1,1.6-1,2.1c-0.9,0.5-7.3,4.1-7.9,4.5s-0.4,0.7-0.3,1
		c0.1,0.2,0.7,0.4,1.1,0.1c0.5-0.3,5-2.6,5-2.6s1.7-0.4,2.2,0.2c0.5,0.6-0.4,1.7-1.2,2.1c-4.4,2.6-8.6,5.2-13.1,7.7
		c-3.7,2-8.8-1.3-8.9-5.5c-0.2-4.8,0-9.4-0.1-14.2c0-1.5,0.3-2.5,1.9-2.5c1.6,0.1,1.5,1.4,1.6,2.5c0.3,5,0.6,5.1,5,2.6
		c2.9-1.7,5.8-3.4,8.7-5.1c0.6-0.3,1.8-0.9,2.4-0.8c1.1,0.2,1.4,1.4,0.5,2.2c-1.4,1.2-8.2,5.8-8.5,6.1c-0.3,0.3-0.2,0.6-0.1,0.7
		c0.1,0.1,0.6,0.2,0.9,0s8.1-5.1,8.8-5.5c0.9-0.5,2-1,2.4,0.4c0.3,1.1-0.7,1.5-1.4,1.9c-1.2,0.8-5.8,3.5-7.8,5.1
		c-0.8,0.6-0.8,0.9-0.6,1.2c0.2,0.3,0.8-0.1,0.8-0.1S30,42.4,30.9,41.8z"/>
        <path class="st1" d="M33.3,23.3c-0.8-0.4-1.5-1-1.3-2c0.4-0.8,1.4-0.7,2.3-0.2c0.9,0.5,7.2,4.2,7.8,4.5s0.9,0,1-0.2
		c0.1-0.2,0-0.8-0.5-1c-0.5-0.3-4.7-3-4.7-3s-1.2-1.2-0.9-2s1.7-0.5,2.4,0c4.5,2.5,8.8,4.8,13.2,7.4c3.6,2.2,3.3,8.3-0.3,10.5
		c-4,2.6-8.1,4.7-12.2,7.2c-1.3,0.8-2.3,1-3.1-0.4c-0.7-1.4,0.5-2,1.4-2.6c4.2-2.8,4.1-3.1-0.3-5.6c-2.9-1.6-5.9-3.3-8.8-4.9
		c-0.6-0.3-1.7-1.1-1.9-1.7c-0.4-1.1,0.6-1.9,1.7-1.5c1.7,0.6,9.2,4.2,9.6,4.3c0.4,0.1,0.6-0.2,0.7-0.3c0.1-0.2-0.1-0.6-0.4-0.8
		s-8.4-4.4-9.1-4.8C29,25.6,28,24.8,29,23.8c0.8-0.8,1.6-0.2,2.3,0.3c1.3,0.7,5.9,3.2,8.3,4.2c0.9,0.4,1.2,0.2,1.3-0.1
		c0.1-0.3-0.5-0.7-0.5-0.7S34.2,23.7,33.3,23.3z"/>
        <path class="st2" d="M16,31c0,0.9-0.2,1.8-1.1,2c-0.9,0-1.3-0.9-1.3-1.9c0-1.1,0.2-8.4,0.2-9s-0.4-0.8-0.7-0.8s-0.7,0.4-0.7,0.9
		c0,0.5-0.3,5.6-0.3,5.6s-0.5,1.7-1.3,1.8s-1.3-1.2-1.2-2.1c0-5.1,0-10,0.1-15.2C9.9,8,15.4,5.3,19,7.4c4.2,2.3,8.1,4.8,12.2,7.2
		c1.3,0.8,2,1.5,1.2,2.9c-0.9,1.3-2,0.6-3,0.1c-4.4-2.3-4.7-2.1-4.8,3c0,3.4-0.1,6.7-0.1,10.1c0,0.6-0.2,2-0.6,2.5
		c-0.7,0.9-1.9,0.4-2.1-0.7c-0.3-1.8-0.8-10-0.9-10.4s-0.5-0.5-0.6-0.5c-0.2,0-0.5,0.4-0.5,0.7c0,0.4,0.2,9.5,0.2,10.4
		c0,1-0.2,2.3-1.6,1.9c-1.1-0.3-0.9-1.4-0.9-2.2c-0.1-1.5,0-6.7-0.4-9.3c-0.1-1-0.4-1.2-0.7-1.1c-0.3,0.1-0.3,0.8-0.3,0.8
		S15.9,29.9,16,31z"/>
</g>
</svg>
