<?xml version="1.0" standalone="no"?><!DOCTYPE svg PUBLIC "-//W3C//DTD SVG 1.1//EN" "http://www.w3.org/Graphics/SVG/1.1/DTD/svg11.dtd"><svg t="1635174185437" class="icon" viewBox="0 0 1024 1024" version="1.1" xmlns="http://www.w3.org/2000/svg" p-id="34756" xmlns:xlink="http://www.w3.org/1999/xlink" width="300" height="300"><defs><style type="text/css"></style></defs><path d="M602.4333333333333 207.76666666666662H142.83333333333331c-61 0-111 50-111 111v397.5c0 61.1 50 111 111 111h459.6c61.1 0 111-49.9 111-111V318.76666666666677c0-61-50-111-111-111zM237.73333333333332 524.2666666666665c-53.4 0-96.7-43.3-96.7-96.7 0-53.4 43.3-96.7 96.7-96.7 53.4 0 96.7 43.3 96.7 96.7 0 53.4-43.3 96.7-96.7 96.7zM940.6333333333332 275.26666666666677l-159 111-1.3 0.3v223.4l1.3 0.3 159 111h49.7v-446z" fill="#d4237a" p-id="34757"></path></svg>