<?xml version="1.0" standalone="no"?><!DOCTYPE svg PUBLIC "-//W3C//DTD SVG 1.1//EN" "http://www.w3.org/Graphics/SVG/1.1/DTD/svg11.dtd"><svg t="1635215233274" class="icon" viewBox="0 0 1024 1024" version="1.1" xmlns="http://www.w3.org/2000/svg" p-id="36832" xmlns:xlink="http://www.w3.org/1999/xlink" width="300" height="300"><defs><style type="text/css"></style></defs><path d="M512.289995 0.00008C230.000042-0.15992 0.16008 229.360042 0.00008 511.649995S229.440042 1023.83991 511.709995 1023.99991 1023.83991 794.529948 1023.99991 512.229995 794.559948 0.16008 512.289995 0.00008z m175.139971 613.999898l-159.939974 98.999984A119.81998 119.81998 0 0 1 406.000013 715.839961c-38.529994-21.479996-61.55999-60.71999-61.52999-104.769982l0.11-198.219968A119.87998 119.87998 0 0 1 527.709992 311.000028l159.829974 99.199984a119.86998 119.86998 0 0 1-0.11 203.799966z" fill="#FFB940" p-id="36833"></path><path d="M633.589975 497.099997l-159.829974-99.199983a17.339997 17.339997 0 0 0-9.179998-2.64 18.269997 18.269997 0 0 0-8.599999 2.29 16.869997 16.869997 0 0 0-8.999998 15.359997l-0.11 198.219968a16.819997 16.819997 0 0 0 8.929998 15.259997 16.609997 16.609997 0 0 0 17.779997-0.45l159.939974-98.999983a17.599997 17.599997 0 0 0 0-29.829996z" fill="#FFB940" p-id="36834"></path></svg>