<?xml version="1.0" standalone="no"?><!DOCTYPE svg PUBLIC "-//W3C//DTD SVG 1.1//EN" "http://www.w3.org/Graphics/SVG/1.1/DTD/svg11.dtd"><svg t="1635215219132" class="icon" viewBox="0 0 1024 1024" version="1.1" xmlns="http://www.w3.org/2000/svg" p-id="36542" xmlns:xlink="http://www.w3.org/1999/xlink" width="300" height="300"><defs><style type="text/css"></style></defs><path d="M512 106.506c-247.512 0-448.16 200.648-448.16 448.16s200.648 448.16 448.16 448.16 448.16-200.649 448.16-448.16-200.649-448.16-448.16-448.16zM672.456 825.689c-14.9 9.574-34.77 5.309-44.386-9.514l-140.462-216.592c-8.606-5.796-14.191-15.502-14.192-26.513v-268.404c0-17.649 14.371-31.955 32.096-31.955 17.736 0 32.102 14.306 32.102 31.955v254.198l144.396 222.653c3.219 4.894 5.135 10.895 5.135 17.343 0 2.385-0.262 4.708-0.759 6.944-2.022 9.088-7.926 16.713-15.883 21.045z" fill="#56C6F8" p-id="36543"></path></svg>