<?xml version="1.0" standalone="no"?><!DOCTYPE svg PUBLIC "-//W3C//DTD SVG 1.1//EN" "http://www.w3.org/Graphics/SVG/1.1/DTD/svg11.dtd"><svg t="1635215249328" class="icon" viewBox="0 0 1024 1024" version="1.1" xmlns="http://www.w3.org/2000/svg" p-id="38344" xmlns:xlink="http://www.w3.org/1999/xlink" width="300" height="300"><defs><style type="text/css"></style></defs><path d="M512 512m-512 0a512 512 0 1 0 1024 0 512 512 0 1 0-1024 0Z" fill="#E4E7E7" p-id="38345"></path><path d="M512 512m-369.777778 0a369.777778 369.777778 0 1 0 739.555556 0 369.777778 369.777778 0 1 0-739.555556 0Z" fill="#1688AE" p-id="38346"></path><path d="M540.444444 483.555556m-341.333333 0a341.333333 341.333333 0 1 0 682.666667 0 341.333333 341.333333 0 1 0-682.666667 0Z" fill="#26A6D1" p-id="38347"></path><path d="M512 512m-199.111111 0a199.111111 199.111111 0 1 0 398.222222 0 199.111111 199.111111 0 1 0-398.222222 0Z" fill="#324D5B" p-id="38348"></path><path d="M654.222222 398.222222m-85.333333 0a85.333333 85.333333 0 1 0 170.666667 0 85.333333 85.333333 0 1 0-170.666667 0Z" fill="#FFFFFF" p-id="38349"></path></svg>