<?xml version="1.0" standalone="no"?><!DOCTYPE svg PUBLIC "-//W3C//DTD SVG 1.1//EN" "http://www.w3.org/Graphics/SVG/1.1/DTD/svg11.dtd"><svg t="1635490060433" class="icon" viewBox="0 0 1024 1024" version="1.1" xmlns="http://www.w3.org/2000/svg" p-id="2988" xmlns:xlink="http://www.w3.org/1999/xlink" width="300" height="300"><defs><style type="text/css"></style></defs><path d="M134.4 332.8c6.4-12.8 12.8-25.6 25.6-38.4 0 6.4 0 12.8-6.4 19.2 0 19.2 6.4 38.4 19.2 51.2 6.4 12.8 19.2 19.2 32 19.2 19.2 0 32 0 51.2-12.8l6.4-6.4c-6.4 19.2-12.8 32-19.2 44.8-19.2 57.6-19.2 115.2-6.4 166.4 6.4 38.4 25.6 70.4 51.2 102.4 25.6 38.4 64 64 102.4 83.2 44.8 19.2 89.6 32 140.8 25.6 44.8 0 83.2-12.8 121.6-38.4 32-19.2 64-44.8 83.2-70.4v12.8c0 12.8 0 25.6 6.4 38.4 6.4 19.2 19.2 32 38.4 38.4 25.6 6.4 51.2 0 64-12.8l6.4-6.4c-32 44.8-76.8 83.2-121.6 115.2-57.6 32-115.2 51.2-179.2 57.6-38.4 0-76.8 0-115.2-6.4-83.2-19.2-160-57.6-217.6-121.6-57.6-57.6-89.6-128-108.8-204.8-12.8-38.4-12.8-76.8-6.4-121.6 0-44.8 12.8-89.6 32-134.4m320-230.4c44.8-6.4 83.2-6.4 128 0 83.2 12.8 153.6 51.2 211.2 108.8 51.2 51.2 89.6 115.2 115.2 185.6 19.2 76.8 19.2 153.6 0 230.4-6.4 32-19.2 57.6-38.4 89.6-6.4 6.4-12.8 19.2-19.2 25.6 0-6.4 6.4-12.8 6.4-19.2 6.4-12.8 0-32-6.4-44.8-6.4-12.8-19.2-25.6-38.4-32-19.2-6.4-38.4-6.4-51.2 6.4-6.4 0-12.8 6.4-19.2 12.8 25.6-38.4 38.4-76.8 44.8-121.6 6.4-51.2 0-96-19.2-140.8-19.2-38.4-44.8-76.8-76.8-102.4-32-25.6-70.4-44.8-108.8-57.6-51.2-12.8-102.4-12.8-153.6 0-25.6 6.4-51.2 19.2-76.8 32-25.6 19.2-51.2 44.8-70.4 70.4 0-6.4 6.4-12.8 6.4-19.2 0-19.2-6.4-38.4-19.2-51.2-12.8-12.8-32-19.2-44.8-19.2-19.2 0-32 6.4-44.8 19.2l-6.4 6.4c19.2-32 44.8-57.6 70.4-83.2 57.6-51.2 134.4-89.6 211.2-96" fill="#38CEFF" p-id="2989"></path><path d="M768 652.8c12.8-6.4 38.4-12.8 51.2-6.4 19.2 6.4 32 19.2 38.4 32 6.4 12.8 6.4 32 6.4 44.8 0 6.4-6.4 12.8-6.4 19.2l-6.4 6.4s-6.4 0-6.4 6.4c-19.2 19.2-44.8 25.6-64 12.8-19.2-6.4-32-19.2-38.4-38.4-6.4-12.8-6.4-25.6-6.4-38.4v-12.8c6.4-6.4 6.4-12.8 12.8-19.2 6.4 0 12.8 0 19.2-6.4M179.2 275.2c12.8-12.8 25.6-19.2 44.8-19.2 12.8 0 32 6.4 38.4 19.2 12.8 12.8 19.2 32 19.2 51.2 0 6.4 0 12.8-6.4 19.2 0 6.4-6.4 19.2-6.4 25.6l-6.4 6.4c-19.2 6.4-38.4 12.8-57.6 6.4-12.8 0-25.6-6.4-32-19.2-12.8-12.8-19.2-32-19.2-51.2 0-6.4 0-12.8 6.4-19.2 0-6.4 6.4-12.8 12.8-12.8 0-6.4 0-6.4 6.4-6.4" fill="#0B99FF" p-id="2990"></path><path d="M390.4 326.4c19.2-12.8 44.8-19.2 64-12.8 6.4 0 19.2 6.4 25.6 12.8 51.2 38.4 108.8 76.8 160 108.8 12.8 6.4 19.2 12.8 25.6 19.2 12.8 6.4 25.6 19.2 32 32 6.4 12.8 6.4 32 0 44.8-6.4 12.8-12.8 25.6-25.6 32-12.8 12.8-25.6 19.2-38.4 25.6-51.2 38.4-108.8 76.8-166.4 108.8-12.8 12.8-25.6 12.8-44.8 12.8-19.2 0-32-12.8-44.8-25.6-6.4-12.8-12.8-32-6.4-51.2 0-19.2 12.8-32 25.6-38.4 44.8-25.6 83.2-57.6 128-83.2L409.6 435.2c-6.4-6.4-12.8-6.4-19.2-12.8-12.8-6.4-19.2-25.6-19.2-44.8-6.4-19.2 6.4-38.4 19.2-51.2" fill="#FF4A4A" p-id="2991"></path></svg>