<?xml version="1.0" standalone="no"?><!DOCTYPE svg PUBLIC "-//W3C//DTD SVG 1.1//EN" "http://www.w3.org/Graphics/SVG/1.1/DTD/svg11.dtd"><svg t="1635666625447" class="icon" viewBox="0 0 1024 1024" version="1.1" xmlns="http://www.w3.org/2000/svg" p-id="2947" xmlns:xlink="http://www.w3.org/1999/xlink" width="50" height="50"><defs><style type="text/css"></style></defs><path d="M524.8 697.6c-89.6 0-172.8-51.2-211.2-140.8-32-83.2-12.8-179.2 51.2-243.2s160-83.2 243.2-51.2 140.8 115.2 140.8 204.8c0 57.6-25.6 115.2-64 160-44.8 44.8-102.4 70.4-160 70.4M300.8 832c6.4-32 38.4-32 70.4-25.6 38.4 12.8 102.4 38.4 160 38.4 204.8 0 371.2-166.4 371.2-371.2 0-204.8-166.4-371.2-371.2-371.2-204.8 0-371.2 166.4-371.2 371.2v371.2c0 19.2 6.4 38.4 19.2 51.2 12.8 12.8 32 19.2 51.2 19.2 19.2 0 38.4-6.4 51.2-25.6 12.8-12.8 12.8-32 19.2-57.6" fill="#016ED2" p-id="2948"></path><path d="M652.8 467.2c0 51.2-32 96-76.8 121.6-51.2 19.2-108.8 6.4-147.2-32-32-32-44.8-89.6-25.6-140.8 19.2-51.2 64-76.8 121.6-76.8 70.4 0 128 57.6 128 128" fill="#FB7E00" p-id="2949"></path></svg>