<?xml version="1.0" standalone="no"?><!DOCTYPE svg PUBLIC "-//W3C//DTD SVG 1.1//EN" "http://www.w3.org/Graphics/SVG/1.1/DTD/svg11.dtd"><svg t="1635666674058" class="icon" viewBox="0 0 1024 1024" version="1.1" xmlns="http://www.w3.org/2000/svg" p-id="3552" xmlns:xlink="http://www.w3.org/1999/xlink" width="50" height="50"><defs><style type="text/css"></style></defs><path d="M38.4 514.56s419.84-61.44 514.56-79.36c94.72-17.92 148.48-30.72 192-30.72 43.52 0 66.56 2.56 79.36 23.04 12.8 17.92 10.24 48.64 0 87.04s-51.2 138.24-51.2 138.24 12.8-79.36-23.04-110.08c-38.4-33.28-179.2-23.04-276.48-20.48-97.28 0-435.2-7.68-435.2-7.68z m386.56-197.12s258.56-38.4 317.44-48.64c58.88-12.8 92.16-17.92 117.76-17.92s40.96 2.56 48.64 12.8 5.12 30.72 0 53.76-33.28 84.48-33.28 84.48 7.68-48.64-12.8-69.12c-23.04-20.48-110.08-12.8-168.96-12.8-61.44 2.56-268.8-2.56-268.8-2.56z m340.48-158.72s76.8-25.6 117.76-33.28 46.08-7.68 66.56-7.68c17.92 0 28.16 0 33.28 7.68 5.12 7.68 5.12 20.48 0 35.84-5.12 15.36-25.6 64-25.6 64s7.68-43.52-5.12-56.32c-15.36-15.36-51.2-10.24-92.16-10.24-43.52 2.56-94.72 0-94.72 0zM145.92 670.72v79.36c0 43.52-2.56 74.24-7.68 94.72-2.56 20.48-12.8 40.96-25.6 58.88-2.56 0-2.56-2.56-5.12-2.56l-5.12-7.68c12.8-17.92 20.48-35.84 23.04-51.2 2.56-15.36 5.12-43.52 5.12-84.48v-99.84h197.12v128c0 51.2 2.56 81.92 7.68 94.72 2.56 5.12 5.12 7.68 7.68 7.68 2.56 0 5.12-5.12 7.68-10.24V870.4c2.56-17.92 2.56-28.16 5.12-35.84h2.56c2.56 0 5.12 2.56 12.8 2.56-2.56 20.48-5.12 35.84-5.12 43.52-2.56 17.92-10.24 25.6-23.04 25.6-10.24 0-17.92-5.12-20.48-15.36-7.68-12.8-10.24-46.08-10.24-102.4v-112.64l-166.4-5.12z m15.36 33.28l12.8-7.68c5.12 7.68 15.36 20.48 28.16 38.4 12.8 17.92 23.04 30.72 30.72 38.4 17.92-25.6 33.28-53.76 48.64-81.92l12.8 7.68c-15.36 30.72-30.72 58.88-51.2 87.04 23.04 30.72 43.52 58.88 58.88 81.92l-12.8 7.68c-7.68-7.68-17.92-23.04-33.28-43.52-7.68-10.24-15.36-20.48-23.04-33.28-20.48 28.16-43.52 56.32-71.68 79.36l-5.12-5.12c-2.56 0-5.12-2.56-7.68-5.12 28.16-25.6 51.2-53.76 74.24-81.92-17.92-28.16-40.96-56.32-61.44-81.92z m225.28 102.4c28.16-23.04 53.76-53.76 76.8-94.72l15.36 7.68c-10.24 15.36-20.48 30.72-30.72 43.52v143.36h-15.36v-122.88c-15.36 17.92-28.16 30.72-38.4 38.4V819.2c-2.56-5.12-5.12-10.24-7.68-12.8z m15.36-76.8l-7.68-15.36c25.6-20.48 48.64-46.08 69.12-74.24l15.36 7.68c-20.48 28.16-46.08 56.32-76.8 81.92z m87.04 15.36h171.52v15.36h-56.32v104.96c2.56 23.04-10.24 33.28-35.84 33.28h-35.84c0-2.56-2.56-7.68-2.56-10.24v-5.12H563.2c17.92 0 25.6-5.12 25.6-20.48v-104.96h-99.84v-12.8z m15.36-84.48h138.24v15.36h-138.24v-15.36z" fill="#FF6600" p-id="3553"></path></svg>