<?xml version="1.0" standalone="no"?><!DOCTYPE svg PUBLIC "-//W3C//DTD SVG 1.1//EN" "http://www.w3.org/Graphics/SVG/1.1/DTD/svg11.dtd"><svg t="1635667646773" class="icon" viewBox="0 0 1024 1024" version="1.1" xmlns="http://www.w3.org/2000/svg" p-id="22553" xmlns:xlink="http://www.w3.org/1999/xlink" width="50" height="50"><defs><style type="text/css"></style></defs><path d="M438.1696 876.8c-92.5184 0-184.7296-0.0512-275.968-0.1024-66.9184-0.0512-108.544-41.728-108.5952-108.8-0.1536-167.3216-0.1536-359.3216 0-513.5872 0.0512-65.5872 42.1376-108.032 107.1104-108.0832 176.6912-0.1536 358.6048-0.1536 556.1344 0 63.9488 0.0512 106.7008 41.7792 108.9536 106.24 0.1024 3.0208 0.1536 6.0928 0.2048 9.1136l0.0512 11.4176c12.0832-7.9872 22.2208-14.6944 24.0128-15.9744 16.128-11.9808 46.7456-34.7136 82.432-13.1584 21.4528 12.9536 34.816 37.1712 34.816 63.1296v426.1376c0 19.7632-7.4752 38.1952-20.992 51.9168-26.7264 27.136-59.0848 26.88-96.1024-0.768-2.816-2.0992-12.1344-9.1648-24.2688-18.3296-0.0512 1.792-0.1024 3.5328-0.2048 5.3248-2.56 64-45.568 105.3696-109.568 105.4208-92.5696 0.0512-185.4464 0.1024-278.016 0.1024z m-1.7408-669.2352c-94.1568 0-185.5488 0.0512-275.6608 0.1024-31.1808 0.0512-45.7216 14.848-45.7728 46.6944-0.1536 154.2144-0.1536 346.1632 0 513.4848 0.0512 32.768 14.592 47.36 47.2064 47.4112 182.4256 0.1024 368.7936 0.1024 553.8816 0 31.1808 0 47.0016-15.2064 48.2304-46.4384 0.1024-2.1504 0.1536-4.3008 0.2048-6.4512v-38.2464c-0.0512-5.7344-0.1024-11.9296-0.1024-18.5344 0-1.024 0.0512-1.9968 0.1536-3.0208a30.67392 30.67392 0 0 1 16.9984-25.8048 30.78656 30.78656 0 0 1 32.2048 2.9696l33.0752 24.9856c19.3024 14.592 36.1984 27.3408 40.0896 30.3104 7.6288 5.6832 11.9296 7.7312 13.8752 8.448 0.4096-0.3584 0.9728-0.8704 1.6896-1.5872 2.0992-2.1504 3.328-5.3248 3.328-8.8064V306.9952c0-4.1984-1.7408-8.0384-4.4544-10.0864-2.1504 0.9216-6.6048 3.3792-15.0528 9.6768-2.1504 1.6384-10.4448 7.1168-49.152 32.6656l-24.9856 16.4864a30.6432 30.6432 0 0 1-31.488 1.4336 30.72 30.72 0 0 1-16.1792-27.0336V262.5024c-0.0512-2.6112-0.0512-5.2224-0.1536-7.8848-1.0752-31.5904-16.64-46.9504-47.5648-46.9504-96.768-0.1024-189.8496-0.1024-280.3712-0.1024z m463.5648 88.5248c0.0512 0 0.0512 0 0 0 0.0512 0 0.0512 0 0 0z" fill="#00A0E9" p-id="22554"></path><path d="M344.2176 571.648c-73.3184 0-132.9664-59.648-132.9664-132.9664 0-73.3184 59.648-132.9152 132.9664-132.9152s132.9152 59.648 132.9152 132.9152c0 73.3184-59.5968 132.9664-132.9152 132.9664z m0-204.4416c-39.424 0-71.5264 32.0512-71.5264 71.4752 0 39.424 32.0512 71.5264 71.5264 71.5264 39.424 0 71.4752-32.0512 71.4752-71.5264 0-39.3728-32.0512-71.4752-71.4752-71.4752zM655.0016 733.0816H492.4416c-16.9472 0-30.72-13.7728-30.72-30.72s13.7728-30.72 30.72-30.72h162.56c16.9472 0 30.72 13.7728 30.72 30.72s-13.7216 30.72-30.72 30.72z" fill="#F39800" p-id="22555"></path><path d="M795.8528 599.7568c-16.9472 0-30.72-13.7728-30.72-30.72V466.3808c0-16.9472 13.7728-30.72 30.72-30.72s30.72 13.7728 30.72 30.72v102.656c0 16.9472-13.7216 30.72-30.72 30.72z" fill="#00A0E9" p-id="22556"></path></svg>