<?xml version="1.0" standalone="no"?><!DOCTYPE svg PUBLIC "-//W3C//DTD SVG 1.1//EN" "http://www.w3.org/Graphics/SVG/1.1/DTD/svg11.dtd"><svg t="1635667655416" class="icon" viewBox="0 0 1024 1024" version="1.1" xmlns="http://www.w3.org/2000/svg" p-id="22708" xmlns:xlink="http://www.w3.org/1999/xlink" width="50" height="50"><defs><style type="text/css"></style></defs><path d="M943.0528 314.5728c-13.8752-7.7824-25.4976-3.9936-46.4896 10.3936-2.56 1.792-43.4688 26.6752-69.5808 42.6496V296.1408c-0.0512-3.072-0.1024-6.144-0.2048-9.216-1.5872-42.3424-29.5936-67.7376-74.8544-67.7888-177.3056-0.1536-354.6112-0.1536-531.9168 0-45.9776 0.0512-73.0624 25.4976-73.1136 68.5056-0.1536 142.6432-0.1536 346.2656 0 488.8576 0.0512 44.032 27.0336 69.0688 74.5472 69.0688 176.64 0.1024 353.28 0.1024 529.8688 0 45.5168-0.0512 73.6768-25.0368 75.4688-67.1744 0.1024-2.1504 0.1536-4.3008 0.2048-6.5024v-51.456a1644.032 1644.032 0 0 1-0.1024-16.384c0.0512 0 0.0512 0.0512 0.1024 0.0512v-1.2288c28.0064 19.6096 64.256 44.9536 70.144 48.9984 23.3472 16.128 38.144 17.7152 53.4016 3.3792a36.75136 36.75136 0 0 0 11.6224-26.88V347.136c0-13.1584-6.9632-25.7536-19.0976-32.5632z" fill="#9bc6fc" p-id="22709"></path><path d="M358.5536 442.3168m-142.6432 0a142.6432 142.6432 0 1 0 285.2864 0 142.6432 142.6432 0 1 0-285.2864 0Z" fill="#FEC963" p-id="22710"></path><path d="M667.0848 667.2384H496.6912c-19.8144 0-35.84 16.0256-35.84 35.84s16.0256 35.84 35.84 35.84h170.3936c19.8144 0 35.84-16.0256 35.84-35.84s-16.0768-35.84-35.84-35.84zM814.2848 423.6288c-19.8144 0-35.84 16.0256-35.84 35.84v111.6672c0 19.8144 16.0256 35.84 35.84 35.84s35.84-16.0256 35.84-35.84V459.4688c0-19.8144-16.0256-35.84-35.84-35.84z" fill="#FEC963" p-id="22711"></path><path d="M944.7424 236.7488c-29.3376-17.7152-54.3744-2.4576-75.3664 13.1584-2.304 1.6384-20.4288 13.6192-38.144 25.2928v-25.4464l-0.0512-2.0992c-0.0512-3.0208-0.1024-6.0416-0.2048-9.0624-2.1504-61.2864-42.7008-100.9152-103.424-100.9152-202.752-0.1536-389.632-0.1536-571.2896 0-61.5936 0.0512-101.4784 40.2944-101.5296 102.5536-0.1536 158.208-0.1536 355.4304 0 527.616 0.0512 63.6416 39.5264 103.2192 103.0656 103.2704 93.4912 0.0512 188.1088 0.1024 283.1872 0.1024s190.6176-0.0512 285.9008-0.1024c61.7472-0.0512 101.5808-38.4 104.0896-100.1472 0.1024-2.6112 0.2048-5.2736 0.256-7.8848V748.8512c18.688 14.1312 34.6624 26.2144 38.5024 29.0816 12.6976 9.472 51.3536 38.3488 87.552 1.6384 12.1344-12.3392 19.0976-29.5936 19.0976-47.36V294.2976c0-23.7056-12.1344-45.7216-31.6416-57.5488z m-14.4384 495.36c0 5.7856-2.1504 11.2128-5.888 15.0016-5.3248 5.376-7.9872 8.0896-27.136-6.1952-4.0448-3.0208-21.4528-16.1792-41.3696-31.232l-33.8432-25.6a23.05536 23.05536 0 0 0-24.1664-2.2528 23.01952 23.01952 0 0 0-12.7488 19.5584c-0.1024 0.8192-0.1536 1.5872-0.1536 2.4064 0 6.7072 0.0512 13.1072 0.1024 18.9952v39.3728c-0.0512 2.304-0.1536 4.608-0.2048 6.8608-1.4848 36.5568-21.5552 55.9104-58.0608 55.9104-190.6176 0.1536-382.0544 0.1536-569.0368 0-38.3488-0.0512-56.9856-18.7392-57.0368-57.1904-0.1536-172.1344-0.1536-369.3568 0-527.5136 0.0512-37.4784 18.7392-56.4736 55.5008-56.5248 92.672-0.1024 186.6752-0.1024 283.4944-0.1024 92.928 0 188.4672 0.0512 287.744 0.1024 36.2496 0.0512 56.1152 19.5584 57.3952 56.4736 0.1024 2.7136 0.1536 5.4272 0.1536 8.1408l0.0512 69.7344c0 8.4992 4.6592 16.2816 12.1344 20.2752s16.5376 3.584 23.6032-1.0752l25.856-17.0496c36.1472-23.8592 47.7696-31.5392 49.92-33.1776 18.944-14.08 21.6576-12.4416 24.2688-10.8544 5.7856 3.4816 9.4208 10.4448 9.4208 18.1248v437.8112z" fill="#474747" p-id="22712"></path><path d="M344.7808 301.568c-70.6048 0-128.0512 57.4464-128.0512 128.0512s57.4464 128.0512 128.0512 128.0512c70.6048 0 128.0512-57.4464 128.0512-128.0512S415.3856 301.568 344.7808 301.568z m0 210.0736c-45.2096 0-81.9712-36.7616-81.9712-81.9712S299.5712 347.648 344.7808 347.648c45.2096 0 81.9712 36.7616 81.9712 81.9712s-36.7616 82.0224-81.9712 82.0224zM664.1152 677.4784H497.0496c-12.7488 0-23.04 10.2912-23.04 23.04s10.2912 23.04 23.04 23.04h167.0144c12.7488 0 23.04-10.2912 23.04-23.04s-10.2912-23.04-22.9888-23.04zM808.8064 435.0464c-12.7488 0-23.04 10.2912-23.04 23.04v105.472c0 12.7488 10.2912 23.04 23.04 23.04s23.04-10.2912 23.04-23.04v-105.472a23.04 23.04 0 0 0-23.04-23.04z" fill="#474747" p-id="22713"></path></svg>