<?xml version="1.0" standalone="no"?><!DOCTYPE svg PUBLIC "-//W3C//DTD SVG 1.1//EN" "http://www.w3.org/Graphics/SVG/1.1/DTD/svg11.dtd"><svg t="1635667599756" class="icon" viewBox="0 0 1024 1024" version="1.1" xmlns="http://www.w3.org/2000/svg" p-id="19981" xmlns:xlink="http://www.w3.org/1999/xlink" width="50" height="50"><defs><style type="text/css"></style></defs><path d="M706.773333 354.666667h-10.133333v341.333333h10.133333a32 32 0 0 0 32-32v-277.333333a32 32 0 0 0-32-32zM339.306667 354.666667h-16.533334a32 32 0 0 0-32 32v277.333333a32 32 0 0 0 32 32h16.533334zM360.64 696h314.666667v-341.333333h-314.666667zM493.546667 458.666667l80.426666 47.893333a21.333333 21.333333 0 0 1 0 36.48l-80.426666 47.893333a21.333333 21.333333 0 0 1-32-18.24v-96a21.333333 21.333333 0 0 1 32-18.026666z" fill="#7C32C9" p-id="19982"></path><path d="M512 0a512 512 0 1 0 512 512A512 512 0 0 0 512 0z m248.106667 664a53.333333 53.333333 0 0 1-53.333334 53.333333h-384a53.333333 53.333333 0 0 1-53.333333-53.333333v-277.333333a53.333333 53.333333 0 0 1 53.333333-53.333334h384a53.333333 53.333333 0 0 1 53.333334 53.333334z" fill="#7C32C9" p-id="19983"></path></svg>