<svg version="1.1" id="图层_1" xmlns="http://www.w3.org/2000/svg" xmlns:xlink="http://www.w3.org/1999/xlink" x="0px" y="0px"
	 viewBox="0 0 64 64" style="enable-background:new 0 0 64 64;" xml:space="preserve">
<style type="text/css">
	.st0{fill:#EA4975;}
	.st1{fill:#F08198;}
</style>
<path class="st0" d="M53.7,31v-1.7c0-0.4,0-0.9,0-1.3c0-0.2-0.1-0.2-0.2-0.2h-1.1c0.1,1.1,0.2,2.2,0.3,3.3
	C53,31.1,53.3,31.1,53.7,31z M45.8,31v-0.2c0-0.6-0.1-1.1-0.2-1.6L45.5,28c0-0.1,0-0.2-0.1-0.2c-0.3,0-0.6,0.1-0.9,0.1
	c0.2,1.1,0.3,2.1,0.5,3.1L45.8,31C45.8,31,45.8,31,45.8,31z M55,30.9v-2.8c0-0.2-0.1-0.3-0.3-0.3h-1.1v3.2l1.3,0.1
	C55,31.1,55,30.9,55,30.9z M47.1,30.4l-0.2-3c0-0.1-0.1-0.2-0.2-0.2c-0.3,0-0.6,0-0.9,0c0.1,1.1,0.2,2.2,0.3,3.2
	C46.5,30.4,46.8,30.4,47.1,30.4z M55,40l-0.1-3.2c0-1.3,0-2.6,0-4c0-0.3,0-0.6,0-0.8c0-0.1-0.1-0.2-0.2-0.2c-0.6,0-1.1,0-1.7,0
	c-0.2,0-0.4,0-0.6,0.1c0,0.1,0,0.1,0,0.2l0.2,2.7c0.1,0.9,0.2,1.7,0.2,2.6c0.1,0.9,0.2,1.9,0.3,2.8c0,0.1,0.1,0.1,0.1,0.1
	c0.6,0,1.2,0,1.8,0C55,40.1,55,40.1,55,40C55,40,55,40,55,40z M48.1,37.4l-0.2-1.9c-0.1-0.7-0.1-1.5-0.2-2.2c0-0.4-0.1-0.9-0.2-1.3
	c0-0.2-0.1-0.2-0.3-0.2c-0.3,0-0.6,0-0.9,0.1C46,31.9,45.6,32,45.1,32c0.5,2.7,1,5.5,1.5,8.2c0.6-0.1,1.2-0.2,1.8-0.2
	c0-0.2-0.1-0.4-0.1-0.6L48.1,37.4C48.1,37.4,48.1,37.4,48.1,37.4z M51.5,36.8c-0.1-0.6-0.1-1.3-0.2-1.9c-0.1-0.9-0.2-1.7-0.3-2.6
	c-0.1-0.8-0.1-1.6-0.2-2.4l-0.3-3.3l-0.2-2.4c0-0.3-0.1-0.4-0.5-0.4c-0.4,0-0.8,0-1.2,0.1c-0.3,0-0.7,0.1-1,0.1
	c1,5.1,1.5,10.3,2,15.3c0.6,0.1,1.2,0.1,1.8,0.1c0.1,0,0.2,0,0.2-0.1l-0.1-0.6C51.6,38.2,51.6,37.5,51.5,36.8z M44.6,36
	c-0.7-0.5-1.4-0.9-2.2-1.2c-1.6-0.6-3.3-0.9-5-0.8c-0.4,0-0.8,0-1.2,0.1c0,0,0-0.1,0-0.1c-0.1-1.2-0.2-2.4-0.3-3.6
	c-0.1-1-0.1-2-0.1-3c0-1.9,0-3.8,0-5.7c0-0.5,0-0.4-0.4-0.3c-1.1,0.4-2.1,0.8-3.2,1.3c0,0-0.1,0.1-0.1,0.2c0.3,1.2,0.6,2.4,0.7,3.7
	c0.2,1.1,0.3,2.1,0.5,3.1c0.1,0.9,0.2,1.8,0.3,2.8c0.1,0.9,0.2,1.9,0.3,2.8c0.1,0.9,0.2,1.8,0.3,2.7c0.1,1.1,0.2,2.3,0.3,3.4
	c0,0.1,0,0.2,0.1,0.2c0.2,0,0.5,0,0.7,0c1.1-0.1,2.2-0.2,3.3-0.3c0.8-0.1,1.6-0.3,2.5-0.6c1.1-0.4,2.1-1,3.1-1.8
	c0.4-0.3,0.7-0.7,0.9-1.1C45.3,37,45.2,36.4,44.6,36L44.6,36z M30,31v-1.7c0-0.4,0-0.9,0-1.3c0-0.2-0.1-0.2-0.2-0.2h-1.1
	c0.1,1.1,0.2,2.2,0.3,3.3C29.3,31.1,29.6,31.1,30,31L30,31z M22.7,31v-0.2c0-0.6-0.1-1.1-0.2-1.6c0-0.4-0.1-0.7-0.1-1.1
	c0-0.1,0-0.2-0.1-0.2c-0.3,0-0.6,0.1-0.9,0.1c0.2,1.1,0.3,2.1,0.5,3.1L22.7,31C22.7,31,22.7,31,22.7,31z M32,30.9v-2.8
	c0-0.2-0.1-0.3-0.3-0.3h-1v3.2l1.3,0.1C32,31.1,32,30.9,32,30.9z M24,30.4c-0.1-1-0.2-2-0.2-3c0-0.1-0.1-0.2-0.2-0.2
	c-0.3,0-0.6,0-0.9,0l0.3,3.2C23.4,30.4,23.7,30.4,24,30.4z M31.3,40c0-1.1,0-2.1-0.1-3.2c0-1.3,0-2.6,0-4c0-0.3,0-0.6,0-0.8
	c0-0.1-0.1-0.2-0.2-0.2c-0.6,0-1.1,0-1.7,0c-0.2,0-0.4,0-0.6,0.1c0,0.1,0,0.1,0,0.2l0.2,2.7c0.1,0.9,0.2,1.7,0.2,2.6
	c0.1,0.9,0.2,1.9,0.2,2.8c0,0.1,0.1,0.1,0.1,0.1c0.6,0,1.2,0,1.8,0C31.3,40.1,31.3,40.1,31.3,40C31.3,40,31.3,40,31.3,40z
	 M25.1,37.4l-0.2-1.9c-0.1-0.7-0.1-1.5-0.2-2.2c-0.1-0.4-0.1-0.9-0.2-1.3c0-0.2-0.1-0.2-0.3-0.2c-0.3,0-0.6,0-0.9,0.1
	c-0.4,0.1-0.8,0.1-1.2,0.2c0.5,2.7,1,5.5,1.5,8.2c0.6-0.1,1.2-0.2,1.8-0.2c0-0.2-0.1-0.4-0.1-0.6L25.1,37.4z M28.4,36.8
	c0-0.6-0.1-1.3-0.2-1.9c-0.1-0.9-0.2-1.7-0.2-2.6c-0.1-0.8-0.1-1.6-0.2-2.4l-0.2-3.3l-0.2-2.4c0-0.3-0.1-0.4-0.5-0.4
	c-0.4,0-0.8,0.1-1.2,0.1l-1,0.1c1,5.1,1.5,10.3,2,15.3c0.6,0.1,1.2,0.1,1.8,0.1c0.1,0,0.2,0,0.2-0.1l-0.1-0.6
	C28.6,38.2,28.5,37.5,28.4,36.8L28.4,36.8z M21.5,36c-0.7-0.5-1.4-0.9-2.2-1.2c-1.6-0.6-3.3-0.9-5-0.8c-0.4,0-0.8,0-1.2,0.1
	c0,0,0-0.1,0-0.1c-0.1-1.2-0.2-2.4-0.3-3.6c-0.1-1-0.1-2-0.1-3c0-1.9,0-3.8,0-5.7c0-0.5,0-0.4-0.4-0.2c-1.1,0.4-2.1,0.8-3.2,1.3
	c0,0-0.1,0.1-0.1,0.2c0.3,1.2,0.6,2.4,0.7,3.7c0.2,1.1,0.3,2.1,0.5,3.1c0.1,0.9,0.2,1.8,0.3,2.8c0.1,0.9,0.2,1.9,0.3,2.8l0.3,2.7
	c0.1,0.6,0.1,1.3,0.2,1.9c0,0.5,0.1,1,0.1,1.5c0,0.1,0,0.2,0.1,0.2c0.2,0,0.5,0,0.7,0c1.1-0.1,2.2-0.2,3.3-0.3
	c0.8-0.1,1.6-0.3,2.5-0.6c1.1-0.4,2.1-1,3.1-1.8c0.4-0.3,0.7-0.7,0.9-1.1C22.2,37,22.1,36.4,21.5,36z M16.1,5.6h31.6
	c2.8,0,5.5,1.1,7.5,3.1c2,2,3.1,4.6,3.1,7.4v31.4c0,2.8-1.1,5.4-3.1,7.4c-2,2-4.7,3.1-7.5,3.1H16.1c-5.8,0-10.5-4.7-10.5-10.5V16.1
	C5.6,10.3,10.3,5.6,16.1,5.6L16.1,5.6z"/>
<path class="st1" d="M38.7,39.3l-0.5-4.2c0.6,0.2,3.1,1.4,3.2,1.6C40.6,37.6,39.7,38.5,38.7,39.3 M16.6,39.3l-0.5-4.2
	c0.6,0.2,3.1,1.4,3.2,1.6C18.5,37.6,17.6,38.5,16.6,39.3"/>
</svg>
