<?xml version="1.0" standalone="no"?><!DOCTYPE svg PUBLIC "-//W3C//DTD SVG 1.1//EN" "http://www.w3.org/Graphics/SVG/1.1/DTD/svg11.dtd"><svg t="1632397585064" class="icon" viewBox="0 0 1024 1024" version="1.1" xmlns="http://www.w3.org/2000/svg" p-id="5548" xmlns:xlink="http://www.w3.org/1999/xlink" width="200" height="200"><defs><style type="text/css"></style></defs><path d="M454.4 657.971a217.651 217.651 0 1 0 435.302 0 217.651 217.651 0 1 0-435.302 0z" fill="#d4237a" p-id="5549"></path><path d="M930.38 940.544H512C275.686 940.544 83.456 748.288 83.456 512S275.686 83.456 512 83.456 940.544 275.712 940.544 512c0 82.509-23.5 162.611-67.968 231.68l-38.733-24.934c39.655-61.62 60.621-133.095 60.621-206.746 0-210.893-171.571-382.464-382.464-382.464S129.536 301.107 129.536 512 301.107 894.464 512 894.464h418.38v46.08z" fill="#d4237a" p-id="5550"></path><path d="M512 424.576c-57.958 0-105.114-47.155-105.114-105.114S454.042 214.323 512 214.323s105.114 47.155 105.114 105.114S569.958 424.576 512 424.576z m0-164.173c-32.563 0-59.034 26.496-59.034 59.034S479.462 378.47 512 378.47c32.563 0 59.034-26.496 59.034-59.033s-26.47-59.034-59.034-59.034z m0 543.104c-57.958 0-105.114-47.155-105.114-105.113S454.042 593.28 512 593.28s105.114 47.155 105.114 105.114S569.958 803.507 512 803.507z m0-164.173c-32.563 0-59.034 26.496-59.034 59.034s26.496 59.034 59.034 59.034c32.563 0 59.034-26.496 59.034-59.034s-26.47-59.034-59.034-59.034z m-186.163-22.22c-57.959 0-105.114-47.156-105.114-105.114s47.155-105.114 105.114-105.114S430.95 454.042 430.95 512s-47.13 105.114-105.113 105.114z m0-164.148c-32.563 0-59.034 26.496-59.034 59.034s26.496 59.034 59.034 59.034c32.563 0 59.033-26.496 59.033-59.034s-26.47-59.034-59.033-59.034z m374.886 164.148c-57.958 0-105.113-47.156-105.113-105.114s47.155-105.114 105.113-105.114S805.837 454.042 805.837 512s-47.155 105.114-105.114 105.114z m0-164.148c-32.563 0-59.033 26.496-59.033 59.034s26.496 59.034 59.033 59.034c32.563 0 59.034-26.496 59.034-59.034s-26.496-59.034-59.034-59.034z" fill="#d4237a" p-id="5551"></path></svg>