<?xml version="1.0" standalone="no"?><!DOCTYPE svg PUBLIC "-//W3C//DTD SVG 1.1//EN" "http://www.w3.org/Graphics/SVG/1.1/DTD/svg11.dtd"><svg t="1632582407372" class="icon" viewBox="0 0 1024 1024" version="1.1" xmlns="http://www.w3.org/2000/svg" p-id="201929" xmlns:xlink="http://www.w3.org/1999/xlink" width="300" height="300"><defs><style type="text/css"></style></defs><path d="M512 0C229.242 0 0 229.242 0 512s229.242 512 512 512 512-229.242 512-512S794.758 0 512 0z" fill="#F83C92" p-id="201930"></path><path d="M299.364 334.358c103.87 0 188.082 84.458 188.082 188.639s-84.213 188.616-188.082 188.616-188.06-84.435-188.06-188.616c0-104.181 84.191-188.639 188.06-188.639z m0 53.426c-74.307 0-134.634 60.505-134.634 135.213s60.327 135.19 134.634 135.19c74.33 0 134.656-60.483 134.656-135.19 0-74.708-60.327-135.213-134.656-135.213z" fill="#FFFFFF" p-id="201931"></path><path d="M541.25 455.502h322.227q13.601 0 13.601 13.601v-0.022q0 13.601-13.601 13.601H541.25q-13.602 0-13.602-13.601v0.022q0-13.601 13.602-13.601z" fill="#D8D8D8" p-id="201932"></path><path d="M673.97 271.583a26.713 26.713 0 0 1 23.997-26.58l3.028-0.133a26.713 26.713 0 0 1 26.713 26.713v458.574a26.713 26.713 0 0 1-23.975 26.579l-3.05 0.134a26.713 26.713 0 0 1-26.713-26.713V271.583zM561.597 262.9a26.713 26.713 0 0 1 31.878 16.25l0.846 2.605 28.76 107.075a26.713 26.713 0 0 1-50.754 16.473l-0.846-2.627-28.761-107.075a26.713 26.713 0 0 1 18.877-32.723z m214.929 158.653a26.713 26.713 0 0 0 31.9-16.25l0.823-2.627 28.761-107.075a26.713 26.713 0 0 0-50.754-16.45l-0.846 2.604-28.761 107.075a26.713 26.713 0 0 0 18.877 32.723z m-204.488 117.56a26.713 26.713 0 0 1 51.266 14.736l-0.801 2.805-56.097 161.681a26.713 26.713 0 0 1-51.29-14.692l0.824-2.827 56.098-161.681z m268.666 179.2a26.713 26.713 0 0 0 51.267-14.692l-0.802-2.828-56.097-161.68a26.713 26.713 0 0 0-51.289 14.714l0.824 2.805 56.097 161.68z" fill="#FFFFFF" p-id="201933"></path></svg>