<?xml version="1.0" encoding="utf-8"?>
<!-- Generator: Adobe Illustrator 25.2.3, SVG Export Plug-In . SVG Version: 6.00 Build 0)  -->
<svg version="1.1" id="图层_1" xmlns="http://www.w3.org/2000/svg" xmlns:xlink="http://www.w3.org/1999/xlink" x="0px" y="0px"
	 viewBox="0 0 64 64" style="enable-background:new 0 0 64 64;" xml:space="preserve">
<style type="text/css">
	.st0{fill:#EF6930;}
	.st1{fill:#7DD11E;}
	.st2{fill:#3FB0F0;}
	.st3{fill:#F9C332;}
	.st4{fill:#F28931;}
</style>
<path class="st0" d="M58,30.1C57.1,16.7,46.3,6.2,33.1,5.9h-1.8c5.5,2.2,10.9,6.7,13.9,11.9C47.6,22,49,27,49,32.3
	c0,5.1-1.3,9.8-3.5,14c6.3-3.4,10.9-9,12.7-15.6C58,30.6,58,30.1,58,30.1z"/>
<path class="st1" d="M32.4,57.9c-0.1,0-0.1,0.1-0.3,0.1C18,58,6.7,46.6,6.3,32.6v-0.7c2.1-5.8,6.6-10.6,12.2-13.6
	c-2.1,4.1-3.3,8.8-3.3,13.6c0,5.4,1.4,10.2,3.8,14.6C22.1,51.7,26.9,55.9,32.4,57.9z"/>
<path class="st2" d="M58,30.6c-1.8,6.7-6.4,12.2-12.7,15.6c-3.9,2.1-8.7,3.4-13.5,3.4c-4.7,0-9-1-12.9-3c3.1,5.4,7.9,9.6,13.5,11.5
	c0.1,0,0.1,0,0.3,0.1C46.9,58,58,46.4,58,32.2C58.1,31.4,58,31,58,30.6z"/>
<path class="st3" d="M32,6.2c-0.3-0.1-0.7-0.3-0.9-0.4C17.4,6.4,6.3,17.8,6.3,31.9v0.1c2.1-5.8,6.6-10.6,12.2-13.6
	c4.2-2.2,8.9-3.5,13.9-3.5c4.5,0,8.8,1,12.6,2.8C42,12.4,37.4,8.3,32,6.2z"/>
<path class="st4" d="M43.3,26.2l-0.3-3.9c0,0-7.7-2.2-14.3-1.7S20,24.7,20,27.4s2.9,4.5,8.5,5.5c5.6,1,5.5,1.2,6.6,1.6
	c1.4,0.5,1,4.1-6,3.1c-6.9-0.9-8-2.1-8-2.1l0.3,4.3c0,0,4.7,1.8,9.2,2.1c4.5,0.3,8.1-0.3,10.5-1.4s4.5-3.4,2.9-6.6
	c-1.6-3.3-4.6-3.7-6.4-4.3c0,0-4.7-0.7-6.7-1.4s-2.6-2.6-0.5-3.3C32.2,23.9,37.2,24.2,43.3,26.2z"/>
</svg>
