<?xml version="1.0" standalone="no"?><!DOCTYPE svg PUBLIC "-//W3C//DTD SVG 1.1//EN" "http://www.w3.org/Graphics/SVG/1.1/DTD/svg11.dtd"><svg t="1632398945931" class="icon" viewBox="0 0 1024 1024" version="1.1" xmlns="http://www.w3.org/2000/svg" p-id="55367" xmlns:xlink="http://www.w3.org/1999/xlink" width="200" height="200"><defs><style type="text/css"></style></defs><path d="M554.18 512m-394.66 0a394.66 394.66 0 1 0 789.32 0 394.66 394.66 0 1 0-789.32 0Z" fill="#99D1FF" p-id="55368"></path><path d="M489.82 926.66c-55.97 0-110.28-10.97-161.41-32.59-49.38-20.89-93.72-50.78-131.8-88.86-38.08-38.07-67.97-82.42-88.86-131.8C86.13 622.28 75.16 567.97 75.16 512s10.97-110.28 32.59-161.41c20.89-49.38 50.78-93.72 88.86-131.8 38.07-38.07 82.42-67.97 131.8-88.86 51.13-21.63 105.44-32.59 161.41-32.59s110.28 10.97 161.41 32.59c49.38 20.89 93.72 50.78 131.8 88.86 38.08 38.08 67.97 82.42 88.86 131.8 21.63 51.13 32.59 105.44 32.59 161.41 0 11.05-8.95 20-20 20s-20-8.95-20-20c0-50.59-9.9-99.65-29.43-145.83-18.87-44.61-45.89-84.68-80.3-119.1-34.41-34.41-74.48-61.43-119.1-80.3-46.18-19.53-95.24-29.43-145.83-29.43s-99.65 9.9-145.83 29.43c-44.61 18.87-84.68 45.89-119.1 80.3-34.41 34.41-61.43 74.48-80.3 119.1-19.53 46.18-29.43 95.24-29.43 145.83s9.9 99.65 29.43 145.83c18.87 44.61 45.89 84.68 80.3 119.1s74.48 61.43 119.1 80.3c46.18 19.53 95.24 29.43 145.83 29.43 58.59 0 114.69-13.14 166.74-39.05 49.65-24.72 94.03-60.93 128.35-104.73 6.81-8.7 19.38-10.22 28.08-3.41 8.69 6.81 10.22 19.38 3.41 28.08-37.96 48.45-87.07 88.51-142.01 115.86-57.64 28.7-119.74 43.25-184.57 43.25z" fill="#0072F0" p-id="55369"></path><path d="M489.93 552.38c-11.05 0-20-8.95-20-20V242.76c0-11.05 8.95-20 20-20s20 8.95 20 20v289.62c0 11.05-8.96 20-20 20z" fill="#0072F0" p-id="55370"></path><path d="M695.06 532.14H467.29c-11.05 0-20-8.95-20-20s8.95-20 20-20h227.76c11.05 0 20 8.95 20 20s-8.95 20-19.99 20z" fill="#0072F0" p-id="55371"></path></svg>