<?xml version="1.0" standalone="no"?><!DOCTYPE svg PUBLIC "-//W3C//DTD SVG 1.1//EN" "http://www.w3.org/Graphics/SVG/1.1/DTD/svg11.dtd"><svg t="1632577566622" class="icon" viewBox="0 0 1024 1024" version="1.1" xmlns="http://www.w3.org/2000/svg" p-id="117002" xmlns:xlink="http://www.w3.org/1999/xlink" width="200" height="200"><defs><style type="text/css"></style></defs><path d="M512 1024A512 512 0 1 1 512 0a512 512 0 0 1 0 1024z m0-256a256 256 0 1 0 0-512 256 256 0 0 0 0 512z m32.512-383.36v94.08h95.232c17.792 0 32.256 14.656 32.256 32.64 0 18.048-14.464 32.64-32.256 32.64H512.256a32.448 32.448 0 0 1-32.256-32.64V384.64c0-18.048 14.464-32.64 32.256-32.64 17.856 0 32.256 14.592 32.256 32.64z" fill="#FBBC05" p-id="117003"></path></svg>