<?xml version="1.0" standalone="no"?><!DOCTYPE svg PUBLIC "-//W3C//DTD SVG 1.1//EN" "http://www.w3.org/Graphics/SVG/1.1/DTD/svg11.dtd"><svg t="1632580664136" class="icon" viewBox="0 0 1024 1024" version="1.1" xmlns="http://www.w3.org/2000/svg" p-id="174822" xmlns:xlink="http://www.w3.org/1999/xlink" width="200" height="200"><defs><style type="text/css"></style></defs><path d="M71.68 512C71.68 268.82048 268.82048 71.68 512 71.68a438.94784 438.94784 0 0 1 311.52128 129.14688 30.72 30.72 0 1 1-43.45856 43.4176A377.52832 377.52832 0 0 0 512 133.12C302.75584 133.12 133.12 302.75584 133.12 512S302.75584 890.88 512 890.88c206.9504 0 375.15264-165.92896 378.81856-371.99872L890.88 512V123.96544a30.72 30.72 0 0 1 61.29664-2.9696l0.14336 2.9696V512c0 243.17952-197.14048 440.32-440.32 440.32S71.68 755.17952 71.68 512z" p-id="174823"></path><path d="M235.52 512a92.16 92.16 0 1 0 184.32 0 92.16 92.16 0 0 0-184.32 0z m61.44 0a30.72 30.72 0 1 1 61.44 0 30.72 30.72 0 0 1-61.44 0zM604.16 512a92.16 92.16 0 1 0 184.32 0 92.16 92.16 0 0 0-184.32 0z m61.44 0a30.72 30.72 0 1 1 61.44 0 30.72 30.72 0 0 1-61.44 0z" p-id="174824"></path><path d="M512 235.52a92.16 92.16 0 1 0 0 184.32 92.16 92.16 0 0 0 0-184.32z m0 61.44a30.72 30.72 0 1 1 0 61.44 30.72 30.72 0 0 1 0-61.44zM512 604.16a92.16 92.16 0 1 0 0 184.32 92.16 92.16 0 0 0 0-184.32z m0 61.44a30.72 30.72 0 1 1 0 61.44 30.72 30.72 0 0 1 0-61.44z" p-id="174825"></path></svg>