<?xml version="1.0" standalone="no"?><!DOCTYPE svg PUBLIC "-//W3C//DTD SVG 1.1//EN" "http://www.w3.org/Graphics/SVG/1.1/DTD/svg11.dtd"><svg t="1632580355429" class="icon" viewBox="0 0 1024 1024" version="1.1" xmlns="http://www.w3.org/2000/svg" p-id="173906" data-spm-anchor-id="a313x.7781069.0.i146" width="200" height="200" xmlns:xlink="http://www.w3.org/1999/xlink"><defs><style type="text/css"></style></defs><path d="M573.44 683.804444a28.444444 28.444444 0 0 1 28.444444 28.444445 28.444444 28.444444 0 0 1-28.444444 28.444444 28.444444 28.444444 0 1 1 0-56.888889m0-56.888888a85.333333 85.333333 0 1 0 85.333333 85.333333 85.333333 85.333333 0 0 0-85.333333-85.333333z" fill="#1422ee" p-id="173907" data-spm-anchor-id="a313x.7781069.0.i145" class="selected"></path><path d="M574.482963 118.234074v56.888889a337.161481 337.161481 0 0 1 237.511111 575.051852 333.842963 333.842963 0 0 1-237.985185 98.702222A337.445926 337.445926 0 0 1 398.222222 799.857778l-13.653333-8.248889h-1.517037l-5.688889-3.128889q-9.481481-5.688889-19.721482-10.524444L316.586667 730.074074a336.877037 336.877037 0 0 1 257.896296-554.571852v-56.888889m0 0h-0.948148a393.860741 393.860741 0 0 0-300.278519 648.05926 288.616296 288.616296 0 0 0-44.088889-3.318519A344.082963 344.082963 0 0 0 67.318519 805.925926a21.143704 21.143704 0 0 0-7.490371 28.444444 21.428148 21.428148 0 0 0 18.299259 10.42963 20.48 20.48 0 0 0 10.61926-2.939259A306.915556 306.915556 0 0 1 229.736296 805.925926a232.201481 232.201481 0 0 1 118.897778 31.668148c5.973333 3.508148 11.946667 6.447407 17.92 9.955556a3.792593 3.792593 0 0 0 2.465185 1.042963 393.671111 393.671111 0 1 0 205.463704-730.074074z" fill="#1422ee" p-id="173908" data-spm-anchor-id="a313x.7781069.0.i141" class="selected"></path><path d="M373.665185 483.555556a28.444444 28.444444 0 0 1 28.444445 28.444444 28.444444 28.444444 0 0 1-28.444445 28.444444 28.444444 28.444444 0 1 1 0-56.888888m0-56.888889a85.333333 85.333333 0 1 0 85.333334 85.333333 85.333333 85.333333 0 0 0-85.333334-85.333333zM573.62963 283.306667a28.444444 28.444444 0 0 1 28.444444 28.444444 28.444444 28.444444 0 0 1-28.444444 28.444445 28.444444 28.444444 0 0 1-28.444445-27.780741 29.108148 29.108148 0 0 1 28.444445-29.108148m0-56.888889a85.333333 85.333333 0 1 0 0 170.666666 85.333333 85.333333 0 0 0 0-170.666666zM773.214815 483.555556a28.444444 28.444444 0 0 1 28.444444 28.444444 28.444444 28.444444 0 0 1-28.444444 28.444444 28.444444 28.444444 0 1 1 0-56.888888m0-56.888889a85.333333 85.333333 0 1 0 85.333333 85.333333 85.333333 85.333333 0 0 0-85.333333-85.333333zM573.44 459.093333a56.888889 56.888889 0 1 0 56.888889 56.888889 56.888889 56.888889 0 0 0-56.888889-56.888889z" fill="#1422ee" p-id="173909" data-spm-anchor-id="a313x.7781069.0.i144" class="selected"></path></svg>