<?xml version="1.0" standalone="no"?><!DOCTYPE svg PUBLIC "-//W3C//DTD SVG 1.1//EN" "http://www.w3.org/Graphics/SVG/1.1/DTD/svg11.dtd"><svg t="1632577708100" class="icon" viewBox="0 0 1024 1024" version="1.1" xmlns="http://www.w3.org/2000/svg" p-id="133160" xmlns:xlink="http://www.w3.org/1999/xlink" width="200" height="200"><defs><style type="text/css"></style></defs><path d="M858.75 512c0-58.97 44.19-107.53 101.25-114.6-10.91-42.77-27.84-83.1-49.74-120.16-19.48 14.95-43.78 23.94-70.24 23.94-63.83 0-115.58-51.75-115.58-115.58 0-26.67 9.13-51.16 24.3-70.72C711.14 92.41 670.12 75.1 626.6 64c-7.08 57.05-55.63 101.25-114.6 101.25-58.97 0-107.53-44.19-114.6-101.25-42.86 10.93-83.27 27.91-120.4 49.87 14.2 19.2 22.7 42.87 22.7 68.58 0 63.84-51.75 115.58-115.58 115.58-25.93 0-49.79-8.64-69.07-23.07C92.5 312.64 75.13 353.77 64 397.4c57.06 7.07 101.25 55.63 101.25 114.6S121.06 619.53 64 626.6c10.98 43.07 28.07 83.68 50.19 120.96 19.71-15.62 44.58-25.01 71.67-25.01 63.84 0 115.58 51.75 115.58 115.58 0 27.1-9.4 51.97-25.01 71.68 37.28 22.12 77.89 39.21 120.96 50.19 7.07-57.05 55.63-101.25 114.6-101.25 58.97 0 107.53 44.19 114.6 101.25 43.44-11.08 84.39-28.35 121.93-50.75-12.89-18.64-20.47-41.23-20.47-65.61 0-63.84 51.75-115.58 115.58-115.58 24.38 0 46.96 7.59 65.61 20.47 22.4-37.54 39.67-78.49 50.75-121.93-57.04-7.07-101.24-55.63-101.24-114.6z" fill="#8C9EFF" p-id="133161"></path><path d="M512 512m-140 0a140 140 0 1 0 280 0 140 140 0 1 0-280 0Z" fill="#FFD600" p-id="133162"></path><path d="M512 680c-92.63 0-168-75.36-168-168 0-92.63 75.37-168 168-168s168 75.37 168 168c0 92.64-75.37 168-168 168z m0-280c-61.76 0-112 50.24-112 112s50.24 112 112 112 112-50.24 112-112-50.24-112-112-112z" fill="#FFFFFF" p-id="133163"></path></svg>