<?xml version="1.0" standalone="no"?><!DOCTYPE svg PUBLIC "-//W3C//DTD SVG 1.1//EN" "http://www.w3.org/Graphics/SVG/1.1/DTD/svg11.dtd"><svg t="1632575876909" class="icon" viewBox="0 0 1024 1024" version="1.1" xmlns="http://www.w3.org/2000/svg" p-id="23935" xmlns:xlink="http://www.w3.org/1999/xlink" width="200" height="200"><defs><style type="text/css"></style></defs><path d="M512 408c-48.5 0-88-39.5-88-88s39.5-88 88-88 88 39.5 88 88-39.5 88-88 88z m0-128c-22.1 0-40 17.9-40 40s17.9 40 40 40 40-17.9 40-40-17.9-40-40-40zM512 792c-48.5 0-88-39.5-88-88s39.5-88 88-88 88 39.5 88 88-39.5 88-88 88z m0-128c-22.1 0-40 17.9-40 40s17.9 40 40 40 40-17.9 40-40-17.9-40-40-40zM320 600c-48.5 0-88-39.5-88-88s39.5-88 88-88 88 39.5 88 88-39.5 88-88 88z m0-128c-22.1 0-40 17.9-40 40s17.9 40 40 40 40-17.9 40-40-17.9-40-40-40zM704 600c-48.5 0-88-39.5-88-88s39.5-88 88-88 88 39.5 88 88-39.5 88-88 88z m0-128c-22.1 0-40 17.9-40 40s17.9 40 40 40 40-17.9 40-40-17.9-40-40-40zM896 920H512c-13.3 0-24-10.7-24-24s10.7-24 24-24h384c13.3 0 24 10.7 24 24s-10.7 24-24 24z" p-id="23936" fill="#d4237a"></path><path d="M512 920c-55.1 0-108.5-10.8-158.8-32.1-48.6-20.6-92.2-50-129.7-87.4-37.5-37.5-66.9-81.1-87.4-129.7C114.8 620.5 104 567.1 104 512s10.8-108.5 32.1-158.8c20.6-48.6 50-92.2 87.4-129.7 37.5-37.5 81.1-66.9 129.7-87.4C403.5 114.8 456.9 104 512 104s108.5 10.8 158.8 32.1c48.6 20.6 92.2 50 129.7 87.4 37.5 37.5 66.9 81.1 87.4 129.7C909.2 403.5 920 456.9 920 512c0 59.1-12.4 116-36.7 169.4-23.5 51.5-56.9 96.8-99.3 134.7-0.7 0.6-1.4 1.3-2.1 1.9-9.9 8.8-25.1 7.8-33.9-2.1-8.8-9.9-7.8-25.1 2.1-33.9 0.6-0.6 1.3-1.1 1.9-1.7C828.3 712 872 614.2 872 512c0-198.5-161.5-360-360-360S152 313.5 152 512s161.5 360 360 360c13.3 0 24 10.7 24 24s-10.7 24-24 24z" p-id="23937" fill="#d4237a"></path></svg>