<?xml version="1.0" standalone="no"?><!DOCTYPE svg PUBLIC "-//W3C//DTD SVG 1.1//EN" "http://www.w3.org/Graphics/SVG/1.1/DTD/svg11.dtd"><svg t="1632581375986" class="icon" viewBox="0 0 1024 1024" version="1.1" xmlns="http://www.w3.org/2000/svg" p-id="187206" xmlns:xlink="http://www.w3.org/1999/xlink" width="200" height="200"><defs><style type="text/css"></style></defs><path d="M512 64c247.424 0 448 200.576 448 448 0 164.512-88.672 308.32-220.864 386.24H896a32 32 0 0 1 0 64H511.744a31.904 31.904 0 0 1-12.032-2.368C257.984 953.344 64 755.328 64 512 64 264.576 264.576 64 512 64z m0 64C299.936 128 128 299.936 128 512s171.936 384 384 384 384-171.936 384-384S724.064 128 512 128z m0 448a128 128 0 1 1 0 256 128 128 0 0 1 0-256z m0 64a64 64 0 1 0 0 128 64 64 0 0 0 0-128z m-192-256a128 128 0 1 1 0 256 128 128 0 0 1 0-256z m384 0a128 128 0 1 1 0 256 128 128 0 0 1 0-256z m-384 64a64 64 0 1 0 0 128 64 64 0 0 0 0-128z m384 0a64 64 0 1 0 0 128 64 64 0 0 0 0-128z m-192-256a128 128 0 1 1 0 256 128 128 0 0 1 0-256z m0 64a64 64 0 1 0 0 128 64 64 0 0 0 0-128z" p-id="187207" data-spm-anchor-id="a313x.7781069.0.i179" class="selected" fill="#15c3bc"></path></svg>