<?xml version="1.0" standalone="no"?><!DOCTYPE svg PUBLIC "-//W3C//DTD SVG 1.1//EN" "http://www.w3.org/Graphics/SVG/1.1/DTD/svg11.dtd"><svg t="1632580901040" class="icon" viewBox="0 0 1024 1024" version="1.1" xmlns="http://www.w3.org/2000/svg" p-id="177968" xmlns:xlink="http://www.w3.org/1999/xlink" width="200" height="200"><defs><style type="text/css"></style></defs><path d="M512 406.4768c-51.712 0-93.7472-42.0352-93.7472-93.7472s42.0352-93.696 93.7472-93.696 93.7472 42.0352 93.7472 93.7472-42.0352 93.696-93.7472 93.696z m0-126.0032c-17.8176 0-32.3072 14.4896-32.3072 32.3072 0 17.8176 14.4896 32.3072 32.3072 32.3072s32.3072-14.4896 32.3072-32.3072c0-17.8176-14.4896-32.3072-32.3072-32.3072zM512 801.3312c-51.712 0-93.7472-42.0352-93.7472-93.7472s42.0352-93.7472 93.7472-93.7472 93.7472 42.0352 93.7472 93.7472-42.0352 93.7472-93.7472 93.7472z m0-126.0544c-17.8176 0-32.3072 14.4896-32.3072 32.3072s14.4896 32.3072 32.3072 32.3072 32.3072-14.4896 32.3072-32.3072-14.4896-32.3072-32.3072-32.3072zM709.4272 603.904c-51.712 0-93.7472-42.0352-93.7472-93.7472s42.0352-93.7472 93.7472-93.7472 93.7472 42.0352 93.7472 93.7472-42.0864 93.7472-93.7472 93.7472z m0-126.0544c-17.8176 0-32.3072 14.4896-32.3072 32.3072s14.4896 32.3072 32.3072 32.3072 32.3072-14.4896 32.3072-32.3072-14.4896-32.3072-32.3072-32.3072zM314.5728 603.904c-51.712 0-93.7472-42.0352-93.7472-93.7472s42.0352-93.7472 93.7472-93.7472c51.6608 0 93.7472 42.0352 93.7472 93.7472s-42.0352 93.7472-93.7472 93.7472z m0-126.0544c-17.8176 0-32.3072 14.4896-32.3072 32.3072s14.4896 32.3072 32.3072 32.3072c17.8176 0 32.3072-14.4896 32.3072-32.3072s-14.4896-32.3072-32.3072-32.3072z" fill="#FF623E" p-id="177969"></path><path d="M920.5248 884.6848h-184.832c128.9216-76.6464 215.552-217.2416 215.552-377.8048 0-242.176-197.0176-439.2448-439.2448-439.2448-242.176 0-439.2448 197.0688-439.2448 439.2448S269.824 946.1248 512 946.1248h408.5248c16.9472 0 30.72-13.7728 30.72-30.72s-13.7728-30.72-30.72-30.72zM134.1952 506.88c0-208.3328 169.472-377.8048 377.8048-377.8048s377.8048 169.472 377.8048 377.8048-169.472 377.8048-377.8048 377.8048S134.1952 715.2128 134.1952 506.88z" fill="#303135" p-id="177970"></path></svg>