<?xml version="1.0" standalone="no"?><!DOCTYPE svg PUBLIC "-//W3C//DTD SVG 1.1//EN" "http://www.w3.org/Graphics/SVG/1.1/DTD/svg11.dtd"><svg t="1632575839417" class="icon" viewBox="0 0 1024 1024" version="1.1" xmlns="http://www.w3.org/2000/svg" p-id="22787" xmlns:xlink="http://www.w3.org/1999/xlink" width="200" height="200"><defs><style type="text/css"></style></defs><path d="M512 85.333333c235.648 0 426.666667 191.018667 426.666667 426.666667a426.666667 426.666667 0 0 1-240.512 384h215.808c13.653333 0 24.704 9.557333 24.704 21.333333s-11.093333 21.333333-24.704 21.333334H536.746667a28.501333 28.501333 0 0 1-4.992-0.426667l-7.765334 0.256L512 938.666667C276.352 938.666667 85.333333 747.648 85.333333 512S276.352 85.333333 512 85.333333z m0 42.666667a384 384 0 1 0 0 768 384 384 0 0 0 0-768z m0 512c46.890667 0 85.333333 37.248 85.333333 85.333333 0 46.890667-38.442667 85.333333-85.333333 85.333334s-85.333333-38.442667-85.333333-85.333334 38.442667-85.333333 85.333333-85.333333z m0 42.666667c-23.296 0-42.666667 19.370667-42.666667 42.666666s19.370667 42.666667 42.666667 42.666667 42.666667-19.370667 42.666667-42.666667a42.24 42.24 0 0 0-42.666667-42.666666z m205.013333-240.512c48.042667 0 85.333333 38.442667 85.333334 85.333333 0 46.848-38.485333 85.333333-85.333334 85.333333-46.890667 0-85.333333-38.485333-85.333333-85.333333 0-46.890667 38.4-85.333333 85.333333-85.333333zM298.666667 426.666667c48.085333 0 85.333333 38.442667 85.333333 85.333333s-38.442667 85.333333-85.333333 85.333333-85.333333-38.442667-85.333334-85.333333 38.442667-85.333333 85.333334-85.333333z m418.346666 58.154666c-23.338667 0-42.666667 19.370667-42.666666 42.666667s19.328 42.666667 42.666666 42.666667c23.296 0 42.666667-19.370667 42.666667-42.666667a42.24 42.24 0 0 0-42.666667-42.666667zM298.666667 469.333333c-23.296 0-42.666667 19.370667-42.666667 42.666667s19.370667 42.666667 42.666667 42.666667 42.666667-19.370667 42.666666-42.666667a42.24 42.24 0 0 0-42.666666-42.666667z m213.333333-256c46.890667 0 85.333333 38.442667 85.333333 85.333334s-38.442667 85.333333-85.333333 85.333333-85.333333-38.442667-85.333333-85.333333 38.442667-85.333333 85.333333-85.333334z m0 42.666667c-23.296 0-42.666667 19.370667-42.666667 42.666667s19.370667 42.666667 42.666667 42.666666 42.666667-19.370667 42.666667-42.666666-19.370667-42.666667-42.666667-42.666667z" fill="#7A4BFD" p-id="22788"></path></svg>