<?xml version="1.0" standalone="no"?><!DOCTYPE svg PUBLIC "-//W3C//DTD SVG 1.1//EN" "http://www.w3.org/Graphics/SVG/1.1/DTD/svg11.dtd"><svg t="1632575894451" class="icon" viewBox="0 0 1024 1024" version="1.1" xmlns="http://www.w3.org/2000/svg" p-id="24963" xmlns:xlink="http://www.w3.org/1999/xlink" width="200" height="200"><defs><style type="text/css"></style></defs><path d="M477.1 949.8c-0.9 0-1.9 0-2.8-0.1-50.1-4-98.6-16.5-144.1-37.2-47.2-21.4-89.8-51-126.7-87.9C141.2 762.3 99.9 683.9 84 597.7c-15.5-84.2-6-170.1 27.5-248.5 7.6-17.8 28.2-26 45.9-18.4 17.8 7.6 26 28.2 18.4 45.9-58.5 136.8-28.3 293.2 77 398.4 60.8 60.8 141.4 98 226.9 104.9 19.3 1.5 33.6 18.4 32.1 37.7-1.4 18.2-16.7 32.1-34.7 32.1zM789.6 834.8c-9 0-17.9-3.4-24.7-10.3-13.7-13.7-13.7-35.8 0-49.5 14.7-14.7 28.2-30.7 40.1-47.5C906.8 583.4 889.9 388 764.9 263c-124.6-124.6-319.5-141.7-463.5-40.7-15.8 11.1-37.7 7.3-48.8-8.6-11.1-15.8-7.3-37.7 8.6-48.8 82.2-57.6 182.8-84.8 283.3-76.6 49.9 4.1 98.2 16.7 143.6 37.3 47 21.4 89.5 50.9 126.3 87.7 36.9 36.9 66.5 79.5 87.9 126.6 20.7 45.5 33.2 93.9 37.3 144 8.1 100.8-19.3 201.6-77.4 283.8-14.2 20.3-30.3 39.3-47.8 56.8-6.8 6.9-15.8 10.3-24.8 10.3z" fill="#4D4D4D" p-id="24964"></path><path d="M430.481935 374.663632a85 85 0 1 0 154.262379-71.436113 85 85 0 1 0-154.262379 71.436113Z" fill="#3285FF" p-id="24965"></path><path d="M430.340356 734.560896a85 85 0 1 0 154.262379-71.436114 85 85 0 1 0-154.262379 71.436114Z" fill="#3285FF" p-id="24966"></path><path d="M250.409121 554.280466a85 85 0 1 0 157.357609-64.331818 85 85 0 1 0-157.357609 64.331818Z" fill="#3285FF" p-id="24967"></path><path d="M599.927525 569.318118a85 85 0 1 0 157.357609-64.331817 85 85 0 1 0-157.357609 64.331817Z" fill="#3285FF" p-id="24968"></path><path d="M183.4 248.3c11.8-12.1 31.2-12.2 43.3-0.4 12.1 11.8 12.2 31.2 0.4 43.3-11.8 12.1-31.2 12.2-43.3 0.4-12-11.9-12.2-31.3-0.4-43.3" fill="#3285FF" p-id="24969"></path><path d="M837.9 950.9H494.1c-19.3 0-35-15.7-35-35s15.7-35 35-35h343.8c19.3 0 35 15.7 35 35s-15.6 35-35 35z" fill="#4D4D4D" p-id="24970"></path></svg>