<?xml version="1.0" standalone="no"?><!DOCTYPE svg PUBLIC "-//W3C//DTD SVG 1.1//EN" "http://www.w3.org/Graphics/SVG/1.1/DTD/svg11.dtd"><svg t="1632578198204" class="icon" viewBox="0 0 1024 1024" version="1.1" xmlns="http://www.w3.org/2000/svg" p-id="138725" xmlns:xlink="http://www.w3.org/1999/xlink" width="200" height="200"><defs><style type="text/css"></style></defs><path d="M785.92 240.64C711.68 166.4 614.4 128 512 128S312.32 166.4 240.64 240.64C168.96 312.32 128 409.6 128 512s40.96 199.68 112.64 271.36C312.32 855.04 409.6 896 512 896s199.68-40.96 271.36-112.64C855.04 711.68 896 614.4 896 512s-38.4-199.68-110.08-271.36zM855.04 512c0 189.44-153.6 343.04-343.04 343.04S168.96 701.44 168.96 512 322.56 168.96 512 168.96s343.04 153.6 343.04 343.04z" fill="#fa4be8" p-id="138726"></path><path d="M450.56 512c0 30.72 25.6 56.32 56.32 56.32s56.32-25.6 56.32-56.32c0-30.72-25.6-56.32-56.32-56.32s-56.32 25.6-56.32 56.32z m74.24 0c0 10.24-7.68 17.92-17.92 17.92s-17.92-7.68-17.92-17.92c0-10.24 7.68-17.92 17.92-17.92s17.92 7.68 17.92 17.92zM506.88 430.08c56.32 0 102.4-46.08 102.4-102.4s-46.08-102.4-102.4-102.4-102.4 46.08-102.4 102.4 46.08 102.4 102.4 102.4z m-64-102.4c0-35.84 28.16-64 64-64s64 28.16 64 64-28.16 64-64 64-64-30.72-64-64zM412.16 463.36c-12.8-25.6-33.28-43.52-61.44-51.2-53.76-17.92-112.64 12.8-130.56 66.56-7.68 25.6-5.12 53.76 5.12 79.36 12.8 25.6 33.28 43.52 61.44 51.2 10.24 2.56 20.48 5.12 33.28 5.12 15.36 0 33.28-5.12 46.08-10.24 25.6-12.8 43.52-33.28 51.2-61.44s7.68-53.76-5.12-79.36z m-30.72 69.12c-5.12 15.36-15.36 30.72-30.72 38.4-15.36 7.68-33.28 10.24-48.64 5.12-15.36-5.12-30.72-15.36-38.4-30.72-7.68-15.36-10.24-33.28-5.12-48.64 7.68-25.6 33.28-43.52 61.44-43.52 7.68 0 12.8 0 20.48 2.56 15.36 5.12 30.72 15.36 38.4 30.72 7.68 10.24 7.68 28.16 2.56 46.08zM524.8 596.48c-28.16-5.12-53.76 2.56-76.8 17.92-23.04 15.36-35.84 40.96-40.96 66.56-5.12 28.16 2.56 53.76 17.92 76.8 15.36 23.04 40.96 35.84 66.56 40.96 5.12 0 10.24 2.56 15.36 2.56 23.04 0 43.52-7.68 61.44-20.48 46.08-33.28 56.32-97.28 23.04-143.36-15.36-23.04-40.96-35.84-66.56-40.96z m20.48 153.6c-12.8 10.24-30.72 15.36-48.64 10.24-17.92-2.56-30.72-12.8-40.96-25.6-10.24-12.8-15.36-30.72-10.24-48.64 2.56-17.92 12.8-30.72 25.6-40.96 10.24-7.68 23.04-12.8 38.4-12.8h10.24c17.92 2.56 30.72 12.8 40.96 25.6 20.48 30.72 12.8 71.68-15.36 92.16zM673.28 412.16c-25.6 7.68-48.64 25.6-61.44 51.2s-15.36 53.76-5.12 79.36c7.68 25.6 25.6 48.64 51.2 61.44 15.36 7.68 30.72 10.24 46.08 10.24 10.24 0 20.48-2.56 33.28-5.12 25.6-7.68 48.64-25.6 61.44-51.2s15.36-53.76 5.12-79.36c-17.92-53.76-76.8-84.48-130.56-66.56z m92.16 79.36c5.12 15.36 5.12 33.28-2.56 48.64-7.68 15.36-20.48 25.6-38.4 30.72-15.36 5.12-33.28 5.12-48.64-5.12-15.36-7.68-25.6-20.48-30.72-38.4-5.12-15.36-5.12-33.28 5.12-48.64 7.68-15.36 20.48-25.6 38.4-30.72 7.68-2.56 12.8-2.56 20.48-2.56 23.04 2.56 48.64 20.48 56.32 46.08z" fill="#fa4be8" p-id="138727"></path></svg>