<?xml version="1.0" standalone="no"?><!DOCTYPE svg PUBLIC "-//W3C//DTD SVG 1.1//EN" "http://www.w3.org/Graphics/SVG/1.1/DTD/svg11.dtd"><svg t="1632579098845" class="icon" viewBox="0 0 1024 1024" version="1.1" xmlns="http://www.w3.org/2000/svg" p-id="158690" width="180" height="180" xmlns:xlink="http://www.w3.org/1999/xlink"><defs><style type="text/css"></style></defs><path d="M511.6 404.5c-69.9 0-126.8-56.9-126.8-126.8s56.9-126.8 126.8-126.8 126.8 56.9 126.8 126.8-56.8 126.8-126.8 126.8z m0-208.8c-45.2 0-82 36.8-82 82s36.8 82 82 82 82-36.8 82-82-36.7-82-82-82zM511.6 866.9c-69.9 0-126.8-56.9-126.8-126.8s56.9-126.8 126.8-126.8 126.8 56.9 126.8 126.8-56.8 126.8-126.8 126.8z m0-208.8c-45.2 0-82 36.8-82 82s36.8 82 82 82 82-36.8 82-82-36.7-82-82-82zM742.9 635.7c-69.9 0-126.8-56.9-126.8-126.8S673 382.1 742.9 382.1 869.6 439 869.6 508.9s-56.8 126.8-126.7 126.8z m0-208.8c-45.2 0-82 36.8-82 82s36.8 82 82 82 82-36.8 82-82-36.8-82-82-82zM280.4 635.7c-69.9 0-126.8-56.9-126.8-126.8s56.9-126.8 126.8-126.8S407.2 439 407.2 508.9s-56.9 126.8-126.8 126.8z m0-208.8c-45.2 0-82 36.8-82 82s36.8 82 82 82 82-36.8 82-82-36.7-82-82-82z" fill="#0295FF" p-id="158691"></path><path d="M511.8 959.2C265 959.2 64.3 758.5 64.3 511.7S265.1 64.2 511.8 64.2c142.1 0 272.6 65.2 358 179 7.4 9.9 5.4 23.9-4.5 31.3-9.9 7.4-23.9 5.4-31.3-4.5-76.9-102.3-194.3-161-322.2-161C289.7 109 109 289.7 109 511.8s180.7 402.8 402.8 402.8 402.7-180.7 402.7-402.8c0-36.5-4.9-72.6-14.5-107.4-3.3-11.9 3.7-24.2 15.6-27.5 11.9-3.3 24.2 3.7 27.5 15.6 10.7 38.7 16.1 78.9 16.1 119.4 0.1 246.6-200.6 447.3-447.4 447.3z" fill="#0295FF" p-id="158692"></path><path d="M511.6 579.8c-37 0-67.1-30.1-67.1-67.1s30.1-67.1 67.1-67.1 67.1 30.1 67.1 67.1-30 67.1-67.1 67.1z m0-89.5c-12.3 0-22.4 10-22.4 22.4 0 12.3 10 22.4 22.4 22.4 12.3 0 22.4-10 22.4-22.4 0-12.4-10-22.4-22.4-22.4zM936.8 956.4H548.9c-12.4 0-22.4-10-22.4-22.4 0-12.4 10-22.4 22.4-22.4h387.8c12.4 0 22.4 10 22.4 22.4 0 12.4-10 22.4-22.3 22.4z" fill="#0295FF" p-id="158693"></path></svg>