<?xml version="1.0" standalone="no"?><!DOCTYPE svg PUBLIC "-//W3C//DTD SVG 1.1//EN" "http://www.w3.org/Graphics/SVG/1.1/DTD/svg11.dtd"><svg t="1632581813465" class="icon" viewBox="0 0 1024 1024" version="1.1" xmlns="http://www.w3.org/2000/svg" p-id="193584" xmlns:xlink="http://www.w3.org/1999/xlink" width="200" height="200"><defs><style type="text/css"></style></defs><path d="M512 470.4c-192 0-384-51.2-384-153.6 0-54.4 54.4-96 156.8-124.8l16 60.8c-80 19.2-112 51.2-112 64 0 32 115.2 89.6 323.2 89.6s323.2-60.8 323.2-89.6c0-16-32-48-124.8-70.4l16-60.8c112 25.6 172.8 73.6 172.8 128C896 416 704 470.4 512 470.4zM512 841.6c-192 0-384-51.2-384-153.6h60.8c0 32 115.2 89.6 323.2 89.6s323.2-60.8 323.2-89.6H896c0 102.4-192 153.6-384 153.6z" fill="#666666" p-id="193585"></path><path d="M128 316.8h60.8v374.4H128zM835.2 320H896v368h-60.8zM316.8 496V201.6c0-9.6-9.6-16-19.2-12.8l-44.8 12.8v294.4h64zM761.6 496V198.4l-41.6-12.8c-9.6-3.2-19.2 3.2-19.2 12.8v294.4h60.8zM700.8 544h60.8v128h-60.8zM700.8 723.2h60.8v57.6h-60.8z" fill="#666666" p-id="193586"></path><path d="M252.8 723.2h60.8v57.6H252.8zM252.8 544h60.8v128H252.8z" fill="#666666" p-id="193587"></path><path d="M585.6 611.2l-124.8-70.4c-12.8-6.4-28.8 3.2-28.8 16v144c0 16 16 25.6 28.8 16l124.8-70.4c12.8-6.4 12.8-25.6 0-35.2z" fill="#F4BF24" p-id="193588"></path></svg>