<?xml version="1.0" standalone="no"?><!DOCTYPE svg PUBLIC "-//W3C//DTD SVG 1.1//EN" "http://www.w3.org/Graphics/SVG/1.1/DTD/svg11.dtd"><svg t="1632576425268" class="icon" viewBox="0 0 1024 1024" version="1.1" xmlns="http://www.w3.org/2000/svg" p-id="48618" xmlns:xlink="http://www.w3.org/1999/xlink" width="200" height="200"><defs><style type="text/css"></style></defs><path d="M768 711.111111c0 15.644444-1.422222 31.004444-4.266667 46.08A255.744 255.744 0 0 1 512 967.111111a256 256 0 1 1 256-256z" fill="#5895F8" opacity=".4" p-id="48619"></path><path d="M839.111111 56.888889C721.351111 56.888889 625.777778 152.462222 625.777778 270.222222v169.813334C568.604444 379.448889 487.822222 341.333333 398.222222 341.333333 225.564444 341.333333 85.333333 481.564444 85.333333 654.222222s140.231111 312.888889 312.888889 312.888889c151.324444 0 280.746667-107.804444 307.768889-256.568889 3.413333-18.488889 5.12-37.546667 5.12-56.32 0-3.128889-0.284444-6.257778-0.568889-9.386666 0.284444-1.706667 0.568889-3.128889 0.568889-4.835556v-369.777778C711.111111 199.68 768.568889 142.222222 839.111111 142.222222c23.608889 0 42.666667-19.057778 42.666667-42.666666S862.72 56.888889 839.111111 56.888889z m-217.031111 638.293333c-19.626667 108.088889-113.777778 186.595556-223.857778 186.595556-125.44 0-227.555556-102.115556-227.555555-227.555556s102.115556-227.555556 227.555555-227.555555 227.555556 102.115556 227.555556 227.555555c0 13.653333-1.137778 27.591111-3.697778 40.96z" fill="#333333" p-id="48620"></path><path d="M455.111111 654.222222m-85.333333 0a85.333333 85.333333 0 1 0 170.666666 0 85.333333 85.333333 0 1 0-170.666666 0Z" fill="#5895F8" p-id="48621"></path></svg>