<?xml version="1.0" standalone="no"?><!DOCTYPE svg PUBLIC "-//W3C//DTD SVG 1.1//EN" "http://www.w3.org/Graphics/SVG/1.1/DTD/svg11.dtd"><svg t="1632580261610" class="icon" viewBox="0 0 1024 1024" version="1.1" xmlns="http://www.w3.org/2000/svg" p-id="172833" xmlns:xlink="http://www.w3.org/1999/xlink" width="400" height="400"><defs><style type="text/css"></style></defs><path d="M914.218667 847.104a67.114667 67.114667 0 1 1 0 134.229333H512C253.866667 981.333333 42.666667 770.133333 42.666667 512S253.866667 42.666667 512 42.666667s469.333333 211.2 469.333333 469.333333c0 130.944-53.504 251.562667-140.8 335.104h73.685334zM512 813.781333c56.789333 0 100.437333-43.648 100.437333-100.437333 0-56.789333-43.648-100.437333-100.437333-100.437333-56.789333 0-100.437333 43.648-100.437333 100.437333 0 56.789333 43.648 100.437333 100.437333 100.437333zM310.656 411.562667c-56.789333 0-100.437333 43.648-100.437333 100.437333 0 56.789333 43.648 100.437333 100.437333 100.437333 56.789333 0 100.437333-43.648 100.437333-100.437333 0-56.789333-43.178667-100.437333-100.437333-100.437333zM512 210.218667c-56.789333 0-100.437333 43.648-100.437333 100.437333 0 56.789333 43.648 100.437333 100.437333 100.437333 56.789333 0 100.437333-43.648 100.437333-100.437333 0-56.789333-43.648-100.437333-100.437333-100.437333z m201.344 201.344c-56.789333 0-100.437333 43.648-100.437333 100.437333 0 56.789333 43.648 100.437333 100.437333 100.437333 56.789333 0 100.437333-43.648 100.437333-100.437333 0-56.789333-43.648-100.437333-100.437333-100.437333z" fill="#FF9F10" p-id="172834"></path></svg>