<?xml version="1.0" standalone="no"?><!DOCTYPE svg PUBLIC "-//W3C//DTD SVG 1.1//EN" "http://www.w3.org/Graphics/SVG/1.1/DTD/svg11.dtd"><svg t="1632576607990" class="icon" viewBox="0 0 1024 1024" version="1.1" xmlns="http://www.w3.org/2000/svg" p-id="62738" xmlns:xlink="http://www.w3.org/1999/xlink" width="200" height="200"><defs><style type="text/css"></style></defs><path d="M479.51 244.54c-17.05 9.85-38.86 4-48.7-13.05l-60.16-104.21c-9.85-17.05-4-38.86 13.05-48.7 17.05-9.85 38.86-4 48.7 13.05l60.16 104.21c9.84 17.05 4 38.85-13.05 48.7zM541.16 287.37c-16.09-9.29-21.6-29.86-12.31-45.94l62.19-107.71c9.29-16.09 29.86-21.6 45.94-12.31 16.09 9.29 21.6 29.86 12.31 45.94L587.1 275.06c-9.29 16.08-29.86 21.6-45.94 12.31z" fill="#F9B428" p-id="62739"></path><path d="M716.63 949.52H309.56c-137.66 0-249.26-111.6-249.26-249.26V471.42c0-137.66 111.6-249.26 249.26-249.26h407.08c137.66 0 249.26 111.6 249.26 249.26v228.83c0 137.67-111.6 249.27-249.27 249.27z" fill="#4077FF" p-id="62740"></path><path d="M705.18 954.53H321.01c-69.64 0-135.11-27.12-184.36-76.36-49.24-49.24-76.36-114.72-76.36-184.35V477.86c0-69.64 27.12-135.11 76.36-184.36s114.72-76.36 184.36-76.36h384.17c69.64 0 135.11 27.12 184.35 76.36 49.24 49.24 76.36 114.72 76.36 184.36v215.96c0 69.64-27.12 135.11-76.36 184.35-49.24 49.24-114.71 76.36-184.35 76.36zM321.01 268.1c-56.03 0-108.7 21.82-148.32 61.44s-61.44 92.29-61.44 148.32v215.96c0 56.03 21.82 108.7 61.44 148.32 39.62 39.62 92.29 61.44 148.32 61.44h384.17c56.03 0 108.7-21.82 148.32-61.44 39.62-39.62 61.44-92.29 61.44-148.32V477.86c0-56.03-21.82-108.7-61.44-148.32s-92.29-61.44-148.32-61.44H321.01z" fill="#6899FC" opacity=".33" p-id="62741"></path><path d="M638.99 834.77h-249.8c-45.28 0-87.86-17.63-119.88-49.65-32.02-32.02-49.65-74.59-49.65-119.88V524.82c0-45.28 17.63-87.86 49.65-119.88s74.59-49.65 119.88-49.65h249.8c45.28 0 87.86 17.63 119.88 49.65 32.02 32.02 49.65 74.59 49.65 119.88v140.42c0 45.28-17.63 87.86-49.65 119.88-32.03 32.02-74.6 49.65-119.88 49.65z" fill="#2F60EA" opacity=".59" p-id="62742"></path><path d="M632.9 823.08H395.27c-43.08 0-83.57-16.77-114.03-47.23-30.46-30.46-47.23-70.96-47.23-114.03V528.24c0-43.08 16.77-83.57 47.23-114.03s70.96-47.23 114.03-47.23H632.9c43.07 0 83.57 16.77 114.03 47.23 30.46 30.46 47.23 70.96 47.23 114.03v133.58c0 43.07-16.77 83.57-47.23 114.03s-70.96 47.23-114.03 47.23z" fill="#FFFFFF" opacity=".47" p-id="62743"></path><path d="M626.7 809.88h-227c-41.15 0-79.84-15.89-108.93-44.75-29.1-28.86-45.12-67.23-45.12-108.04V530.52c0-40.81 16.02-79.18 45.12-108.04 29.1-28.86 67.78-44.75 108.93-44.75h227c41.15 0 79.84 15.89 108.93 44.75 29.1 28.86 45.12 67.23 45.12 108.04v126.56c0 40.81-16.02 79.18-45.12 108.04-29.1 28.87-67.78 44.76-108.93 44.76z" fill="#FFFFFF" p-id="62744"></path><path d="M647.86 544.62L471.5 446.21c-33.51-18.7-74.85 4.4-73.39 41.01l9.06 227.1c1.55 38.76 49.17 59.9 80.55 35.76l167.29-128.69c26.49-20.38 22.79-60.06-7.15-76.77z" fill="#F9C969" opacity=".33" p-id="62745"></path><path d="M617.8 557.27L480.77 480.8c-26.04-14.53-58.16 3.42-57.03 31.87l7.04 176.46c1.2 30.12 38.2 46.54 62.59 27.78l129.99-99.99c20.58-15.83 17.71-46.67-5.56-59.65z" fill="#FF9406" p-id="62746"></path><path d="M420.38 513.52l11.72 176.1c1.89 28.39 35.74 42.81 60.08 25.6l128.14-90.57s-18.42-18.4-31.97-4.67-95.39 80.12-125.82 74.88c-30.43-5.24-17.69-140.04-17.69-140.04s0.02-44.12-24.46-41.3z" fill="#FFCA45" opacity=".21" p-id="62747"></path><path d="M464.29 469.85l156.3 83.08s32.59 38.74-28.87 51.47c-61.46 12.73-170.93-106.03-127.43-134.55z" fill="#F9DB98" opacity=".27" p-id="62748"></path></svg>