<?xml version="1.0" standalone="no"?><!DOCTYPE svg PUBLIC "-//W3C//DTD SVG 1.1//EN" "http://www.w3.org/Graphics/SVG/1.1/DTD/svg11.dtd"><svg t="1632576803638" class="icon" viewBox="0 0 1024 1024" version="1.1" xmlns="http://www.w3.org/2000/svg" p-id="74574" xmlns:xlink="http://www.w3.org/1999/xlink" width="200" height="200"><defs><style type="text/css"></style></defs><path d="M597.271118 174.403166c138.652224 0 252.325716 113.566837 252.325716 252.38971V597.271118c0 138.652224-113.673492 252.325716-252.325716 252.325716h-170.478242C287.970003 849.596834 174.403166 735.923341 174.403166 597.271118v-170.478242C174.403166 287.970003 287.970003 174.403166 426.792876 174.403166H597.271118M597.271118 0h-170.478242C191.468055 0 0 191.468055 0 426.792876V597.271118c0 235.282158 191.468055 426.728882 426.792876 426.728882H597.271118c235.346151 0 426.792876-191.468055 426.792875-426.792876v-170.414248C1024 191.468055 832.553276 0 597.271118 0z" fill="#71C2FF" p-id="74575"></path><path d="M376.750089 292.236225S607.936673 374.105031 733.491595 511.946672c0 0-257.637163 202.986856-356.741506 218.835871 0 0.063993-67.448974-219.262493 0-438.546318z" fill="#FF3131" p-id="74576"></path></svg>