<?xml version="1.0" standalone="no"?><!DOCTYPE svg PUBLIC "-//W3C//DTD SVG 1.1//EN" "http://www.w3.org/Graphics/SVG/1.1/DTD/svg11.dtd"><svg t="1632576993364" class="icon" viewBox="0 0 1024 1024" version="1.1" xmlns="http://www.w3.org/2000/svg" p-id="88499" xmlns:xlink="http://www.w3.org/1999/xlink" width="200" height="200"><defs><style type="text/css"></style></defs><path d="M510.04952427 1009.11136462a504.6272 504.6272 0 1 1 504.5491808-504.6272 505.17333333 505.17333333 0 0 1-504.5491808 504.54918187z m0-980.15329493a475.52609493 475.52609493 0 1 0 475.44807573 475.52609493A476.07222827 476.07222827 0 0 0 510.04952427 28.95806969z" fill="#3EA1FC" p-id="88500"></path><path d="M694.33051413 913.14793635c184.67108587-88.5516192 273.8468576-237.17790507 267.44929494-446.03489493-22.23542827-344.61013333-439.0131808-482.93790507-533.02613334-268.6976-44.3148192 196.21790507 223.60259093 174.45059093 329.24038187 320.50224747 94.40304747 133.10049493 73.18186667 264.48457173-63.66354347 394.23024746z" fill="#3EA1FC" p-id="88501"></path><path d="M321.63352427 96.44454649C136.9624384 184.99616462 47.78666667 333.70046969 54.18422827 542.47944142c22.23542827 344.61013333 439.0131808 482.93790507 533.02613333 268.6976 44.3928384-196.21790507-223.52457173-174.45059093-329.0843424-320.42422827-94.40304747-133.33455253-73.33790507-264.79664747 63.50750507-394.30826666z" fill="#3EA1FC" p-id="88502"></path></svg>