<?xml version="1.0" standalone="no"?><!DOCTYPE svg PUBLIC "-//W3C//DTD SVG 1.1//EN" "http://www.w3.org/Graphics/SVG/1.1/DTD/svg11.dtd"><svg t="1632576744026" class="icon" viewBox="0 0 1024 1024" version="1.1" xmlns="http://www.w3.org/2000/svg" p-id="73736" xmlns:xlink="http://www.w3.org/1999/xlink" width="200" height="200"><defs><style type="text/css"></style></defs><path d="M753.664 536.9856c0-77.312-503.296-279.1424-599.04-225.6896-25.1904 14.0288-53.6064 110.6432-53.6064 225.6896 0 115.0464 28.416 211.712 53.6064 225.7408 95.744 53.4016 599.04-148.4288 599.04-225.7408z m76.8 0c0 146.432-574.6176 370.0736-713.216 292.864-124.0576-69.1712-124.0576-516.5568 0-585.6768 138.5984-77.312 713.216 146.432 713.216 292.864z" fill="#FF8F20" p-id="73737"></path><path d="M459.0592 507.0336a331.8784 331.8784 0 0 0-73.3696-24.8832 269.0048 269.0048 0 0 0-5.2224 54.8352c0 20.2752 1.8944 39.7312 5.2224 54.8352l1.6384-0.3072c20.48-3.9936 46.3872-12.8 71.7312-24.576a334.6944 334.6944 0 0 0 52.5824-29.952 334.6944 334.6944 0 0 0-52.5824-29.952z m146.2784 29.952c0 63.3344-214.9888 160.1024-266.8544 126.6688-46.3872-29.9008-46.3872-223.4368 0-253.3376 51.8656-33.4336 266.8544 63.3344 266.8544 126.6688z" fill="#7EE622" p-id="73738"></path><path d="M928.9216 538.4704c0-50.5856-110.336-152.832-270.1312-236.6464C507.0848 222.208 351.8976 182.528 319.488 200.8064c-31.1808 17.5616-72.6016 167.5776-77.1072 334.08-4.7616 174.7968 30.9248 315.0848 73.7792 336.5376 128.8192 64.512 612.7616-199.168 612.7616-332.9536z m76.8 0c0 196.7616-549.376 489.1136-723.968 401.6128-174.5408-87.4496-135.168-729.9584 0-806.1952 135.2704-76.2368 723.968 207.8208 723.968 404.5824z" fill="#0FABF2" p-id="73739"></path></svg>