<?xml version="1.0" standalone="no"?><!DOCTYPE svg PUBLIC "-//W3C//DTD SVG 1.1//EN" "http://www.w3.org/Graphics/SVG/1.1/DTD/svg11.dtd"><svg t="1632576888569" class="icon" viewBox="0 0 1024 1024" version="1.1" xmlns="http://www.w3.org/2000/svg" p-id="82224" xmlns:xlink="http://www.w3.org/1999/xlink" width="200" height="200"><defs><style type="text/css"></style></defs><path d="M0 0h1024v1024H0z" fill="#FFFFFF" p-id="82225"></path><path d="M102.4 524.8c2.56-23.04 5.12-38.4 7.68-46.08 5.12-25.6 12.8-43.52 17.92-53.76 10.24-28.16 43.52-71.68 74.24-97.28 33.28-25.6 58.88-40.96 94.72-56.32C358.4 243.2 435.2 227.84 545.28 230.4c179.2 5.12 266.24 76.8 286.72 94.72 20.48 15.36 87.04 79.36 89.6 161.28s-25.6 163.84-140.8 235.52S486.4 806.4 384 780.8c-69.12-15.36-115.2-35.84-138.24-58.88l46.08-163.84c79.36 15.36 163.84 7.68 250.88-28.16 87.04-35.84 140.8-92.16 166.4-174.08-64-17.92-138.24-10.24-225.28 20.48s-151.04 92.16-192 181.76L102.4 524.8z" fill="#FF9331" p-id="82226"></path></svg>