<?xml version="1.0" standalone="no"?><!DOCTYPE svg PUBLIC "-//W3C//DTD SVG 1.1//EN" "http://www.w3.org/Graphics/SVG/1.1/DTD/svg11.dtd"><svg t="1635173317964" class="icon" viewBox="0 0 1024 1024" version="1.1" xmlns="http://www.w3.org/2000/svg" p-id="17373" xmlns:xlink="http://www.w3.org/1999/xlink" width="300" height="300"><defs><style type="text/css"></style></defs><path d="M452.1 656.8c-4 0-8-1-11.8-2.9-8-4.4-13.2-12.8-13.2-22.1V392.2c0-9.3 5.1-17.7 13.2-22.1 8.3-4.3 17.9-3.8 25.7 1.3l179.7 119.8c6.9 4.6 11.1 12.4 11.1 20.7s-4.1 16.1-11.1 20.7L466 652.5c-4.3 2.8-9.1 4.3-13.9 4.3zM477 438.9v146.2L586.8 512 477 438.9zM901.3 272.4H122.7v59.9h778.6v-59.9zM901.3 691.7H122.7v59.9h778.6v-59.9zM901.3 152.6H122.7v59.9h778.6v-59.9zM901.3 811.5H122.7v59.9h778.6v-59.9z" fill="#FF3399" p-id="17374"></path><path d="M242.5 182.6h-59.9v119.8h59.9V182.6zM362.3 182.6h-59.9v119.8h59.9V182.6zM482.1 182.6h-60v119.8h60V182.6zM601.8 182.6h-59.9v119.8h59.9V182.6zM721.6 182.6h-59.9v119.8h59.9V182.6zM841.4 182.6h-59.9v119.8h59.9V182.6zM242.5 721.6h-59.9v119.8h59.9V721.6zM362.3 721.6h-59.9v119.8h59.9V721.6zM482.1 721.6h-60v119.8h60V721.6zM601.8 721.6h-59.9v119.8h59.9V721.6zM721.6 721.6h-59.9v119.8h59.9V721.6zM841.4 721.6h-59.9v119.8h59.9V721.6zM242.5 332.3h-59.9v359.4h59.9V332.3zM841.4 332.3h-59.9v359.4h59.9V332.3z" fill="#FF3399" p-id="17375"></path></svg>