<?xml version="1.0" standalone="no"?><!DOCTYPE svg PUBLIC "-//W3C//DTD SVG 1.1//EN" "http://www.w3.org/Graphics/SVG/1.1/DTD/svg11.dtd"><svg t="1633787208194" class="icon" viewBox="0 0 1024 1024" version="1.1" xmlns="http://www.w3.org/2000/svg" p-id="71481" xmlns:xlink="http://www.w3.org/1999/xlink" width="300" height="300"><defs><style type="text/css"></style></defs><path d="M960 512c0 247.4-200.6 448-448 448-75.3 0-146.3-18.6-208.7-51.5-27.3-14.4-52.9-31.5-76.4-50.9C127.4 775.4 64 651.1 64 512 64 264.6 264.6 64 512 64c81 0 157.1 21.5 222.7 59.2C869.3 200.4 960 345.6 960 512z" fill="#4DBCFB" p-id="71482"></path><path d="M960 512c0 247.4-200.6 448-448 448-75.3 0-146.3-18.6-208.7-51.5-27.3-14.4-52.9-31.5-76.4-50.9L251.2 538l483.5-414.8C869.3 200.4 960 345.6 960 512z" fill="#3892CB" p-id="71483"></path><path d="M849.7 148.3v557.2c0 33.1-26.9 60-60 60H364.2c-33.1 0-60-26.9-60-60V304.4L520.1 88.3h269.6c33.1 0 60 26.9 60 60z" fill="#96F5E6" p-id="71484"></path><path d="M576.9 88.3v677.2H364.2c-33.1 0-60-26.9-60-60V304.4L520.3 88.3h56.6z" fill="#B4FBFC" p-id="71485"></path><path d="M520.2 88.4v156c0 33.1-26.9 60-60 60h-156l216-216z" fill="#FFFFFF" p-id="71486"></path><path d="M761.4 309.6h-87.8c-19.1 0-34.5-15.5-34.5-34.5v-87.8c0-19.1 15.5-34.5 34.5-34.5h87.8c19.1 0 34.5 15.5 34.5 34.5V275c0.1 19.1-15.4 34.6-34.5 34.6z" fill="#F3A333" p-id="71487"></path><path d="M500.8 388.9h232.4c4.9 0 9.4 2 12.6 5.2 3.2 3.3 5.2 7.7 5.2 12.6 0 9.8-8 17.8-17.8 17.8H500.8c-4.9 0-9.4-2-12.6-5.2s-5.2-7.7-5.2-12.6c0-9.7 8-17.7 17.8-17.8zM420.8 489h312.4c4.9 0 9.4 2 12.6 5.2 3.2 3.3 5.2 7.7 5.2 12.6 0 9.8-8 17.8-17.8 17.8H420.8c-4.9 0-9.4-2-12.6-5.2s-5.2-7.7-5.2-12.6c0-9.7 8-17.7 17.8-17.8zM420.8 589.1h312.4c4.9 0 9.4 2 12.6 5.2 3.2 3.3 5.2 7.7 5.2 12.6 0 9.8-8 17.8-17.8 17.8H420.8c-4.9 0-9.4-2-12.6-5.2-3.2-3.2-5.2-7.7-5.2-12.6 0-9.8 8-17.8 17.8-17.8z" fill="#F3A333" p-id="71488"></path><path d="M488.2 419.4c-3.2-3.2-5.2-7.7-5.2-12.6 0-9.8 8-17.8 17.8-17.8h76v35.6h-76c-4.9 0-9.4-2-12.6-5.2zM420.8 589.1h156v35.6h-156c-4.9 0-9.4-2-12.6-5.2-3.2-3.2-5.2-7.7-5.2-12.6 0-9.8 8-17.8 17.8-17.8zM408.2 519.4c-3.2-3.2-5.2-7.7-5.2-12.6 0-9.8 8-17.8 17.8-17.8h156v35.6h-156c-4.9 0-9.4-2-12.6-5.2z" fill="#F7C832" p-id="71489"></path><path d="M400.9 463.4l-176.1 36.5v231.7c-10.7-5.7-22.8-9-35.8-9-41.7 0-75.5 33.8-75.5 75.5s33.8 75.5 75.5 75.5 75.5-33.8 75.5-75.5V639.3l136.4-27.7L537.3 584v147.6c-10.7-5.7-22.8-9-35.8-9-41.7 0-75.5 33.8-75.5 75.5s33.8 75.5 75.5 75.5 75.5-33.8 75.5-75.5V426.9l-176.1 36.5z m136.4 85.7l-136.4 27.7-136.4 27.7v-40.9l136.4-28.4 136.4-28.4v42.3z" fill="#E02B6C" p-id="71490"></path><path d="M577 426.9v371.2c0 41.7-33.8 75.5-75.5 75.5S426 839.8 426 798.1s33.8-75.5 75.5-75.5c12.9 0 25.1 3.3 35.8 9V584l-136.4 27.7v-34.9l136.4-27.7v-42.3l-136.4 28.4v-71.8L577 426.9z" fill="#BA0C52" p-id="71491"></path></svg>