<?xml version="1.0" standalone="no"?><!DOCTYPE svg PUBLIC "-//W3C//DTD SVG 1.1//EN" "http://www.w3.org/Graphics/SVG/1.1/DTD/svg11.dtd"><svg t="1633787102292" class="icon" viewBox="0 0 1025 1024" version="1.1" xmlns="http://www.w3.org/2000/svg" p-id="63259" xmlns:xlink="http://www.w3.org/1999/xlink" width="300.29296875" height="300"><defs><style type="text/css"></style></defs><path d="M844.958166 437.62334a61.387249 61.387249 0 1 1 61.387249-61.38725 61.456204 61.456204 0 0 1-61.387249 61.38725z m0-92.072255a30.685005 30.685005 0 1 0 30.685005 30.685005 30.788438 30.788438 0 0 0-30.685005-30.685005z m0 0" fill="#45DBC6" p-id="63260"></path><path d="M31.753809 229.99963a15.342503 15.342503 0 0 1 0-30.685006h96.692244a15.342503 15.342503 0 0 1 0 30.685006z m0 0" fill="#423851" p-id="63261"></path><path d="M80.10855 278.337132a15.290786 15.290786 0 0 1-15.342502-15.342502V166.302385a15.342503 15.342503 0 0 1 30.685005 0v96.692245a15.394219 15.394219 0 0 1-15.342503 15.342502z m0 0M7.671251 801.568189a7.671251 7.671251 0 1 1 0-15.342503h48.268548a7.671251 7.671251 0 1 1 0 15.342503z m0 0" fill="#423851" p-id="63262"></path><path d="M31.753809 825.702463a7.705729 7.705729 0 0 1-7.619535-7.654013v-48.268547a7.671251 7.671251 0 1 1 15.342502 0v48.268547a7.602296 7.602296 0 0 1-7.722967 7.654013z m0 0" fill="#423851" p-id="63263"></path><path d="M835.735425 44.544974c-250.755105 0-252.289355 252.289355-252.289355 252.289355v477.634518c0 42.510799 21.94495 192.126058-192.126059 192.126059-190.298749 0-188.299052-192.901803-188.299052-192.901803l-42.338412 45.269002a18.452376 18.452376 0 1 1-26.547701-25.634047l275.906466-276.061615a17.468043 17.468043 0 0 1 24.703154 24.703153l-47.716908 47.734146v176.162961s-7.360954 53.560849 53.56085 53.560849 51.87145-57.698153 51.87145-57.698154V328.208885c0-342.224003 377.528998-328.122692 377.528997-328.122691z" fill="#45DBC6" p-id="63264"></path><path d="M679.983165 787.363445a15.394219 15.394219 0 0 1-15.342502-15.342503V270.131479a168.939917 168.939917 0 0 1 168.802006-168.802006h176.473258a15.342503 15.342503 0 1 1 0 30.685005H833.442669a138.323867 138.323867 0 0 0-138.117001 138.117001v501.872225a15.394219 15.394219 0 0 1-15.342503 15.342502z m0 0" fill="#423851" p-id="63265"></path><path d="M445.949664 1023.948284c-137.496406 0-249.42772-111.827882-249.42772-249.324288a15.342503 15.342503 0 1 1 30.685005 0 218.682379 218.682379 0 1 0 437.364759 0 15.342503 15.342503 0 1 1 30.685005 0c0 137.496406-111.879598 249.376004-249.376004 249.376004z m0 0" fill="#423851" p-id="63266"></path><path d="M422.625612 942.49511c-1.379101 0-2.758203-0.310298-3.844245-0.310298a249.617347 249.617347 0 0 1-123.533004-77.04005 15.328712 15.328712 0 0 1 23.013754-20.255551 218.018687 218.018687 0 0 0 108.345651 67.52425 15.394219 15.394219 0 0 1 10.8949 18.721301 15.51489 15.51489 0 0 1-14.894294 11.343109zM513.715257 770.9349a15.290786 15.290786 0 0 1-15.342502-15.342503V345.016683A323.278598 323.278598 0 0 1 820.70322 22.755172h96.692245a15.342503 15.342503 0 0 1 0 30.685006h-96.692245a292.369489 292.369489 0 0 0-291.576505 291.576505v410.575714a15.394219 15.394219 0 0 1-15.342503 15.342503z m0 0" fill="#423851" p-id="63267"></path><path d="M440.27811 843.682497a88.193532 88.193532 0 0 1-88.0901-88.0901 15.342503 15.342503 0 1 1 30.685006 0 57.396475 57.396475 0 0 0 114.792949 0 15.342503 15.342503 0 0 1 30.685006 0 88.193532 88.193532 0 0 1-88.0901 88.0901z m0 0" fill="#423851" p-id="63268"></path><path d="M367.547752 770.9349a15.290786 15.290786 0 0 1-15.342503-15.342503v-146.408848a15.342503 15.342503 0 1 1 30.685005 0v146.408848a15.394219 15.394219 0 0 1-15.342502 15.342503zM886.693221 132.014478a15.290786 15.290786 0 0 1-15.342503-15.342503V38.097675a15.342503 15.342503 0 1 1 30.685005 0v78.5743a15.394219 15.394219 0 0 1-15.342502 15.342503zM598.340365 664.433797a15.394219 15.394219 0 0 1-15.342503-15.342502V497.166041a15.342503 15.342503 0 1 1 30.685005 0v151.925254a15.394219 15.394219 0 0 1-15.342502 15.342502zM598.340365 449.587044a15.394219 15.394219 0 0 1-15.342503-15.342503v-21.634652a15.342503 15.342503 0 0 1 30.685005 0v21.634652a15.394219 15.394219 0 0 1-15.342502 15.342503zM445.949664 316.383091a15.342503 15.342503 0 1 1 0-30.685005h64.04202a15.342503 15.342503 0 0 1 0 30.685005zM445.949664 400.491036a15.342503 15.342503 0 1 1 0-30.685006h58.473898a15.342503 15.342503 0 1 1 0 30.685006zM445.949664 484.581741a15.342503 15.342503 0 1 1 0-30.685005h58.473898a15.342503 15.342503 0 1 1 0 30.685005z" fill="#423851" p-id="63269"></path><path d="M127.825457 859.025a15.273548 15.273548 0 0 1-10.739751-26.099494l287.887409-287.887409a15.308025 15.308025 0 1 1 21.634653 21.634653l-287.88741 287.887409a15.738994 15.738994 0 0 1-10.894901 4.447602z m0 0" fill="#423851" p-id="63270"></path></svg>