<?xml version="1.0" standalone="no"?><!DOCTYPE svg PUBLIC "-//W3C//DTD SVG 1.1//EN" "http://www.w3.org/Graphics/SVG/1.1/DTD/svg11.dtd"><svg t="1633786313900" class="icon" viewBox="0 0 1024 1024" version="1.1" xmlns="http://www.w3.org/2000/svg" p-id="16099" xmlns:xlink="http://www.w3.org/1999/xlink" width="300" height="300"><defs><style type="text/css"></style></defs><path d="M916.76672 0H407.1424a101.86752 101.86752 0 0 0-101.90848 101.86752v536.576c-50.91328-17.32608-64.3072-27.2384-101.33504-27.2384C114.56512 611.1232 34.4064 667.36128 9.13408 753.0496c-40.09984 136.3968 58.12224 260.99712 187.26912 265.50272 116.81792 4.01408 210.69824-97.19808 210.69824-214.016V152.7808a50.91328 50.91328 0 0 1 50.9952-50.91328h407.71584c28.13952 0 50.91328 22.81472 50.91328 50.91328v485.66272c-50.7904-17.32608-64.22528-27.2384-101.25312-27.2384-89.2928-0.08192-169.49248 56.15616-194.68288 141.84448-40.1408 136.3968 58.04032 260.99712 187.1872 265.50272 116.85888 4.01408 210.7392-97.19808 210.7392-214.016V101.86752A101.86752 101.86752 0 0 0 916.84864 0h-0.08192" fill="#F4CE39" p-id="16100"></path></svg>