<?xml version="1.0" standalone="no"?><!DOCTYPE svg PUBLIC "-//W3C//DTD SVG 1.1//EN" "http://www.w3.org/Graphics/SVG/1.1/DTD/svg11.dtd"><svg t="1633786298505" class="icon" viewBox="0 0 1024 1024" version="1.1" xmlns="http://www.w3.org/2000/svg" p-id="15662" xmlns:xlink="http://www.w3.org/1999/xlink" width="300" height="300"><defs><style type="text/css"></style></defs><path d="M749.5 239.9C681 199.5 629.9 140 629.9 140c-161.4-161.5-269.1-15.4-269.1-15.4L354 678.1c-10.2-2.6-80.2-121.1-91-120.4-62.8 4.2-117.4 84-117.4 197.3 0 113.2 72.3 205 161.5 205 89.1 0 161.4-91.8 161.4-205 0-12.3-1-24.2-2.6-35.9h0.1l-28.8-535.9c183.8 358.4 441.3 149 441.3 115.7 0-14.8-74.9-27.1-129-59z" fill="#81B900" p-id="15663"></path></svg>