<?xml version="1.0" standalone="no"?><!DOCTYPE svg PUBLIC "-//W3C//DTD SVG 1.1//EN" "http://www.w3.org/Graphics/SVG/1.1/DTD/svg11.dtd"><svg t="1633786226158" class="icon" viewBox="0 0 1024 1024" version="1.1" xmlns="http://www.w3.org/2000/svg" p-id="12348" xmlns:xlink="http://www.w3.org/1999/xlink" width="300" height="300"><defs><style type="text/css"></style></defs><path d="M514.2528 513.1264m-450.816 0a450.816 450.816 0 1 0 901.632 0 450.816 450.816 0 1 0-901.632 0Z" fill="#E9ECFF" p-id="12349"></path><path d="M715.6224 705.536l59.2896-419.9424c2.4576-17.5616-11.5712-33.024-29.2864-32.256l-317.952 13.568a28.25216 28.25216 0 0 0-26.8288 24.3712l-46.848 331.776a102.72256 102.72256 0 0 0-36.608-12.4928c-51.2512-7.2192-97.9968 24.064-104.4992 69.9392-6.4512 45.8752 29.7984 88.8832 81.0496 96.1536 51.2512 7.2192 97.9968-24.064 104.4992-69.9392 0.0512-0.512 0.0512-1.024 0.1536-1.536l0.1024 0.0512 40.2432-284.928 262.912-8.9088-30.8224 218.2656a101.5296 101.5296 0 0 0-36.9664-12.6976c-51.2512-7.2192-97.9968 24.064-104.4992 69.9392-6.4512 45.8752 29.7984 88.8832 81.0496 96.1536 51.2512 7.2192 97.9968-24.064 104.4992-69.9392 0.2048-2.6112 0.4096-5.0688 0.512-7.5776z" fill="#6C6CEA" p-id="12350"></path><path d="M745.6256 253.3376l-317.952 13.568a28.25216 28.25216 0 0 0-26.8288 24.3712l-46.848 331.776a102.72256 102.72256 0 0 0-36.608-12.4928c-51.2512-7.2192-97.9968 24.064-104.4992 69.9392-0.3072 2.2528-0.4608 4.5056-0.5632 6.7584a370.52416 370.52416 0 0 0 158.5152 61.5424c2.0992 0.3072 4.2496 0.4608 6.3488 0.7168 11.1616-11.6224 18.8416-26.2656 21.1968-42.8544 0.0512-0.512 0.0512-1.024 0.1536-1.536l0.1024 0.0512 40.2432-284.928 262.912-8.9088-30.8224 218.2656a102.49216 102.49216 0 0 0-36.9664-12.6976c-51.2512-7.2192-97.9968 24.064-104.4992 69.9392-2.3552 16.7424 1.024 33.0752 8.704 47.4112a374.20032 374.20032 0 0 0 194.048-146.2784l42.7008-302.3872c2.4064-17.5616-11.6224-33.024-29.3376-32.256z" fill="#757BF2" p-id="12351"></path><path d="M413.4912 599.9104l25.344-179.6608 229.1712-7.7824a372.89984 372.89984 0 0 0 41.6256-126.0544c1.4848-10.5984 2.4064-21.1968 3.0208-31.6928l-284.9792 12.1344a28.25216 28.25216 0 0 0-26.8288 24.3712l-44.544 315.4944c19.3536-0.768 38.5024-3.072 57.1904-6.8096z" fill="#8486F8" p-id="12352"></path><path d="M598.3744 259.584l-170.7008 7.2704a28.25216 28.25216 0 0 0-26.8288 24.3712L378.9312 445.952c20.736-6.6048 40.704-15.0528 59.8016-25.088l0.1024-0.6656 1.28-0.0512c67.2768-35.584 123.0336-91.3408 158.2592-160.5632z" fill="#8D92F8" p-id="12353"></path></svg>