<?xml version="1.0" standalone="no"?><!DOCTYPE svg PUBLIC "-//W3C//DTD SVG 1.1//EN" "http://www.w3.org/Graphics/SVG/1.1/DTD/svg11.dtd"><svg t="1633787089876" class="icon" viewBox="0 0 1024 1024" version="1.1" xmlns="http://www.w3.org/2000/svg" p-id="62949" xmlns:xlink="http://www.w3.org/1999/xlink" width="300" height="300"><defs><style type="text/css"></style></defs><path d="M517.12 88.4224c-232.3456 0-420.7104 188.3648-420.7104 420.7104s188.3648 420.7104 420.7104 420.7104 420.7104-188.3648 420.7104-420.7104S749.4656 88.4224 517.12 88.4224z m15.4112 668.8256c-91.6992 0-165.9904-48.7936-165.9904-109.0048s74.2912-109.0048 165.9904-109.0048c19.5072 0 38.2464 2.2528 55.6544 6.2976-28.9792-58.2144-70.7584-140.7488-125.4912-245.6064-4.5568-8.7552-5.2736-19.2512-1.024-28.16a30.68416 30.68416 0 0 1 35.584-16.64c70.0928 18.2784 99.84 2.3552 112.1792-11.52 7.2704-8.192 18.176-12.2368 28.8768-9.8816l1.9968 0.4608c22.1696 4.864 30.8736 31.5904 16.128 48.7936a107.9552 107.9552 0 0 1-25.5488 21.8112c-23.3472 14.4896-52.1728 21.0944-86.0672 19.7632 85.3504 164.864 146.432 291.6352 146.8416 292.5568 4.1984 9.0624 6.912 24.4224 6.912 31.1808-0.0512 60.16-74.3936 108.9536-166.0416 108.9536z" fill="#9191E2" p-id="62950"></path><path d="M438.4256 648.4992a94.1056 50.6368 0 1 0 188.2112 0 94.1056 50.6368 0 1 0-188.2112 0Z" fill="#9191E2" p-id="62951"></path></svg>