<?xml version="1.0" standalone="no"?><!DOCTYPE svg PUBLIC "-//W3C//DTD SVG 1.1//EN" "http://www.w3.org/Graphics/SVG/1.1/DTD/svg11.dtd"><svg t="1633786136539" class="icon" viewBox="0 0 1024 1024" version="1.1" xmlns="http://www.w3.org/2000/svg" p-id="5785" xmlns:xlink="http://www.w3.org/1999/xlink" width="300" height="300"><defs><style type="text/css"></style></defs><path d="M316.416 952.32c-46.08 0-92.16-10.24-135.168-30.72-75.776-35.84-133.12-99.328-160.768-178.176-27.648-78.848-23.552-163.84 12.288-239.616C107.52 348.16 294.912 281.6 451.584 355.328c61.44 29.696 111.616 77.824 143.36 138.24L708.608 256c37.888-78.848 132.096-112.64 210.944-74.752l61.44 29.696c25.6 12.288 36.864 43.008 24.576 69.632-25.6 53.248-60.416 73.728-84.992 80.896-31.744 10.24-67.584 6.144-103.424-11.264l-1.024-1.024c-4.096-2.048-8.192-1.024-10.24-1.024-2.048 1.024-5.12 2.048-7.168 7.168 0 0-197.632 413.696-199.68 418.816-35.84 75.776-99.328 133.12-178.176 160.768-33.792 11.264-69.632 17.408-104.448 17.408z m0-571.392c-96.256 0-188.416 54.272-232.448 146.432-29.696 62.464-33.792 132.096-10.24 196.608S143.36 841.728 205.824 871.424c62.464 29.696 132.096 32.768 196.608 10.24 64.512-22.528 116.736-69.632 146.432-132.096 2.048-4.096 199.68-418.816 199.68-418.816 8.192-16.384 22.528-29.696 39.936-35.84 17.408-6.144 36.864-5.12 53.248 3.072h1.024c15.36 7.168 39.936 15.36 62.464 8.192 19.456-6.144 35.84-22.528 49.152-48.128l-58.368-27.648c-51.2-24.576-112.64-3.072-136.192 48.128L638.976 532.48c-8.192 17.408-24.576 27.648-44.032 27.648s-35.84-11.264-44.032-28.672c-24.576-54.272-68.608-99.328-122.88-124.928-36.864-17.408-73.728-25.6-111.616-25.6z" fill="#4C4C4C" p-id="5786"></path><path d="M311.296 758.784c-61.44 0-111.616-50.176-111.616-111.616s50.176-111.616 111.616-111.616 111.616 50.176 111.616 111.616-50.176 111.616-111.616 111.616z m0-167.936c-30.72 0-56.32 25.6-56.32 56.32s25.6 56.32 56.32 56.32 56.32-25.6 56.32-56.32c-1.024-30.72-25.6-56.32-56.32-56.32z" fill="#FFA028" p-id="5787"></path></svg>