<?xml version="1.0" standalone="no"?><!DOCTYPE svg PUBLIC "-//W3C//DTD SVG 1.1//EN" "http://www.w3.org/Graphics/SVG/1.1/DTD/svg11.dtd"><svg t="1633786128685" class="icon" viewBox="0 0 1024 1024" version="1.1" xmlns="http://www.w3.org/2000/svg" p-id="5485" xmlns:xlink="http://www.w3.org/1999/xlink" width="300" height="300"><defs><style type="text/css"></style></defs><path d="M360.533333 192c-14.933333 0-29.866667-10.666667-32-27.733333-2.133333-14.933333 10.666667-32 27.733334-36.266667l576-96c17.066667-2.133333 34.133333 8.533333 36.266666 25.6 2.133333 17.066667-8.533333 34.133333-25.6 36.266667L366.933333 192h-6.4z" fill="#543E3E" p-id="5486"></path><path d="M360.533333 853.333333c-17.066667 0-32-14.933333-32-32v-661.333333c0-17.066667 14.933333-32 32-32s32 14.933333 32 32v659.2c0 19.2-12.8 34.133333-32 34.133333zM938.666667 704c-17.066667 0-32-14.933333-32-32V64c0-17.066667 14.933333-32 32-32s32 14.933333 32 32v608c0 17.066667-14.933333 32-32 32z" fill="#543E3E" p-id="5487"></path><path d="M206.933333 1024c-38.4 0-74.666667-10.666667-106.666666-34.133333-83.2-57.6-104.533333-174.933333-46.933334-258.133334s174.933333-104.533333 258.133334-46.933333c83.2 57.6 104.533333 174.933333 46.933333 258.133333-27.733333 40.533333-70.4 68.266667-119.466667 76.8-10.666667 4.266667-21.333333 4.266667-32 4.266667z m0-307.2c-38.4 0-76.8 17.066667-100.266666 51.2-38.4 55.466667-25.6 130.133333 29.866666 168.533333 25.6 19.2 59.733333 25.6 91.733334 19.2 32-6.4 59.733333-23.466667 78.933333-49.066666 38.4-55.466667 25.6-130.133333-29.866667-168.533334-21.333333-12.8-44.8-21.333333-70.4-21.333333zM785.066667 870.4c-38.4 0-74.666667-10.666667-106.666667-34.133333-40.533333-27.733333-68.266667-70.4-76.8-119.466667-8.533333-49.066667 2.133333-98.133333 29.866667-138.666667 57.6-83.2 174.933333-104.533333 258.133333-46.933333 40.533333 27.733333 68.266667 70.4 76.8 119.466667 8.533333 49.066667-2.133333 98.133333-29.866667 138.666666-27.733333 40.533333-70.4 68.266667-119.466666 76.8-10.666667 4.266667-21.333333 4.266667-32 4.266667z m0-307.2c-38.4 0-76.8 17.066667-100.266667 51.2-19.2 25.6-25.6 59.733333-19.2 91.733333 6.4 32 23.466667 59.733333 49.066667 78.933334 25.6 19.2 59.733333 25.6 91.733333 19.2 32-6.4 59.733333-23.466667 78.933333-49.066667 19.2-25.6 25.6-59.733333 19.2-91.733333s-23.466667-59.733333-49.066666-78.933334c-21.333333-12.8-46.933333-21.333333-70.4-21.333333z" fill="#FFBB12" p-id="5488"></path><path d="M377.6 339.2c-14.933333 0-29.866667-10.666667-32-27.733333-2.133333-17.066667 8.533333-34.133333 27.733333-36.266667L923.733333 192c17.066667-2.133333 34.133333 8.533333 36.266667 27.733333 2.133333 17.066667-8.533333 34.133333-27.733333 36.266667l-550.4 83.2h-4.266667z" fill="#543E3E" p-id="5489"></path></svg>