<?xml version="1.0" standalone="no"?><!DOCTYPE svg PUBLIC "-//W3C//DTD SVG 1.1//EN" "http://www.w3.org/Graphics/SVG/1.1/DTD/svg11.dtd"><svg t="1633786112245" class="icon" viewBox="0 0 1024 1024" version="1.1" xmlns="http://www.w3.org/2000/svg" p-id="4887" xmlns:xlink="http://www.w3.org/1999/xlink" width="300" height="300"><defs><style type="text/css"></style></defs><path d="M225.1 823.6c-11.4-7.2-19.4-18.3-22.6-31.4-1.6-6.5-7.3-11-14-11-1.1 0-2.3 0.1-3.4 0.4-7.7 1.9-12.5 9.7-10.6 17.4 5 20.4 17.5 37.8 35.3 49 2.3 1.5 4.9 2.2 7.6 2.2 1.2 0 2.3-0.1 3.5-0.4 3.6-0.9 6.8-3.1 8.8-6.3 2.1-3.2 2.7-7.1 1.9-10.8-1-3.8-3.2-7-6.5-9.1zM746.8 727.5c-15-8.7-25.5-22.3-29.7-38.4-1.7-6.5-8.1-10.8-15.2-10.3-0.8 0.1-1.6 0.2-2.4 0.4-7.8 1.9-12.6 9.3-10.7 16.6 6 23 21.1 42.5 42.5 54.9 2.6 1.5 5.7 2.2 8.8 2 0.8-0.1 1.6-0.2 2.4-0.4 3.7-0.9 6.8-3 8.9-6.1 2.1-3.1 2.7-6.7 1.9-10.3-0.9-3.4-3.2-6.5-6.5-8.4z" fill="#6B400D" p-id="4888"></path><path d="M931.9 574.8c0-0.2 0.1-0.5 0.1-0.7 0 0-1.9-457.4-2.5-460.6-2.6-13.5-15.6-22.3-29.2-19.8l-510.8 97.6c-12.4 2.4-20.8 13.6-20.1 25.9 0 0.5-0.2 1.1-0.2 1.6l1.9 427.1c-30.1-5.5-77.8-12.7-122.4-12.7-82.4 0-149.5 67.1-149.5 149.5s67.1 149.5 149.5 149.5c48.8 0 88.5-16.5 118-49.2 65.2-72 55.3-197.4 54.3-208.2v-0.5l-1.7-250.1 461-88.1 1.5 210.1c-30.1-5.5-77.8-12.7-122.4-12.7-82.4 0-149.5 67.1-149.5 149.5S677 832.5 759.4 832.5c48.8 0 88.5-16.5 118-49.2 66-72.6 55.4-199.3 54.5-208.5zM329.8 849.6c-20 22-46.5 32.7-81 32.7-55 0-99.7-44.7-99.7-99.7 0-54.9 44.7-99.7 99.7-99.7 45.7 0 96.8 8.7 123.5 13.8 0.6 34.3-3.1 109.5-42.5 152.9z m89.5-476.2l-0.1-137.2 461-88.1 0.1 137.2-461 88.1z m421.4 376.5c-20 22-46.5 32.7-81 32.7-55 0-99.7-44.7-99.7-99.7s44.7-99.7 99.7-99.7c45.7 0 96.8 8.6 123.5 13.9 0.5 34.3-3.2 109.4-42.5 152.8z" fill="#6B400D" p-id="4889"></path><path d="M419.2 236.2l0.1 137.2 461-88-0.1-137.2z" fill="#FFD524" p-id="4890"></path><path d="M252.5 839c-4 0.1-7.7 1.8-10.5 4.8-2.7 2.9-4.2 6.8-4 10.8 0.3 8.1 6.9 14.5 15 14.5h0.5c8.3-0.3 14.8-7.3 14.5-15.6-0.2-8.2-6.8-14.5-15.5-14.5z" fill="#6B400D" p-id="4891"></path></svg>