<?xml version="1.0" standalone="no"?><!DOCTYPE svg PUBLIC "-//W3C//DTD SVG 1.1//EN" "http://www.w3.org/Graphics/SVG/1.1/DTD/svg11.dtd"><svg t="1633786062935" class="icon" viewBox="0 0 1024 1024" version="1.1" xmlns="http://www.w3.org/2000/svg" p-id="2750" xmlns:xlink="http://www.w3.org/1999/xlink" width="300" height="300"><defs><style type="text/css"></style></defs><path d="M274.61404445 541.12711111c-4.8545189 0-8.73813333 7.28177778-8.73813334 16.50536334s3.88361443 16.50536334 8.73813334 16.50536221M754.24047445 574.13783666c4.8545189 0 8.73813333-7.28177778 8.73813334-16.50536221s-3.88361443-16.50536334-8.73813334-16.50536334" fill="#FFDC45" p-id="2751"></path><path d="M295.97392555 603.7504h-11.16539222v-135.9265189c0-28.15620779 16.99081443-76.21594112 33.01072555-98.06127331 43.20521443-57.76876999 141.26648889-99.03217778 197.57890446-94.66311112s118.93570333 2.42725888 188.84076999 94.66311112c33.98163001 44.66156999 38.35069667 92.23585223 38.35069668 134.4701622v99.51763001l-12.13629668-2.42725888-7.28177778-152.43188224s-19.90352555-76.21594112-75.73048888-112.13937778c-59.71057778-33.01072555-69.90506667-38.83614777-132.04290333-41.74885888C329.47010333 300.82844445 303.25570333 461.51300779 303.25570333 461.51300779l-7.28177778 142.23739221z" fill="#FF5E5E" p-id="2752"></path><path d="M388.69523001 335.29552555l3.88361444 14.56355555s27.18530333-43.20521443 115.05208888-43.20521443 133.01380779 39.3216 133.01380779 39.3216l-1.45635555-15.53445888-74.27413334-32.03982222-57.2833189-4.8545189-54.37060778 9.22358556-45.63247332 20.38897778-18.93262222 12.13629554z" fill="#FFDC45" p-id="2753"></path><path d="M728.02607445 479.47472555H720.74429667c0-98.06127445-94.17765888-181.55899221-206.31703779-181.55899222S307.62476999 380.928 307.62476999 479.47472555h-7.28177778c0-102.43034112 98.06127445-188.84076999 214.08426667-188.84077 116.02299221 0 213.59881443 86.8958811 213.59881557 188.84077z m28.64165888-7.28177778h-7.28177778c0-112.62483001-105.34305223-204.37523001-234.95869667-204.37522887-129.61564445 0.48545223-234.95869667 91.7504-234.95869554 204.37522887h-7.28177777c0-116.50844445 108.74121443-211.65700779 242.24047331-211.65700665s242.24047445 95.14856334 242.24047445 211.65700665z" fill="#D12C2C" p-id="2754"></path><path d="M291.60485888 609.09036999H288.69214777c-8.73813333 0-16.99081443-7.76723001-16.99081444-16.01991111v-123.30476999H278.98311111v122.8193189c0 4.8545189 4.36906667 8.73813333 9.70903666 8.73813333h2.42726002c4.8545189 0 9.22358557-4.36906667 9.22358442-8.73813333v-115.05208889H308.11022222v115.05208889c0 8.73813333-7.76723001 16.50536334-16.50536334 16.5053622zM740.16236999 609.09036999h-2.42725888c-8.73813333 0-15.53445888-7.28177778-15.53445888-16.01991111l-1.45635556-113.1102811h7.28177778l0.4854511 113.1102811c0 4.8545189 3.88361443 8.73813333 8.25268224 8.73813333h2.42725888c4.8545189 0 9.70903666-4.36906667 9.70903666-8.73813333v-120.39205888h7.28177777v120.39205888c0.97090333 8.2526811-7.28177778 16.01991111-16.01991111 16.01991111z" fill="#D12C2C" p-id="2755"></path><path d="M329.95555555 513.94180779c-17.47626667 0-31.0689189 14.07810333-31.06891889 31.06891776V720.74429667c0 17.47626667 14.07810333 31.0689189 31.06891889 31.06891776h38.35069668c17.47626667 0 31.0689189-14.07810333 31.06891776-31.06891776v-175.73357112c0-17.47626667-14.07810333-31.0689189-31.06891776-31.06891776h-38.35069668z" fill="#FFFFFF" p-id="2756"></path><path d="M329.47010333 512c-17.47626667 0-31.0689189 14.07810333-31.06891776 31.0689189v175.73356999c0 17.47626667 14.07810333 31.0689189 31.06891776 31.0689189h38.35069667c17.47626667 0 31.0689189-14.07810333 31.0689189-31.0689189v-175.73356999c0-17.47626667-14.07810333-31.0689189-31.0689189-31.0689189h-38.35069667zM661.51916999 513.94180779c-17.47626667 0-31.0689189 14.07810333-31.06891776 31.06891776V720.74429667c0 17.47626667 14.07810333 31.0689189 31.06891776 31.06891776h38.35069668c17.47626667 0 31.0689189-14.07810333 31.0689189-31.06891776v-175.24811889c0-17.47626667-14.07810333-31.0689189-31.0689189-31.0689189h-38.35069668z" fill="#FFFFFF" p-id="2757"></path><path d="M337.23733333 526.56355555h26.2144c16.01991111 0 29.12711111 13.1072 29.12711112 29.12711112v148.54826666c0 16.01991111-13.1072 29.12711111-29.12711112 29.12711112H337.23733333c-16.01991111 0-29.12711111-13.1072-29.12711111-29.12711112V555.69066667c0-16.01991111 13.1072-29.12711111 29.12711111-29.12711112z" fill="#33D6C4" p-id="2758"></path><path d="M329.95555555 513.94180779c-17.47626667 0-31.0689189 14.07810333-31.06891889 31.06891776V720.74429667c0 17.47626667 14.07810333 31.0689189 31.06891889 31.06891776h38.35069668c17.47626667 0 31.0689189-14.07810333 31.06891776-31.06891776v-175.73357112c0-17.47626667-14.07810333-31.0689189-31.06891776-31.06891776h-38.35069668z m0-7.28177778h38.35069668c21.3598811 0 38.35069667 17.47626667 38.35069554 38.35069554V720.74429667c0 21.3598811-17.47626667 38.35069667-38.35069554 38.35069554h-38.35069668c-21.3598811 0-38.35069667-17.47626667-38.35069667-38.35069554v-175.73357112c0-21.3598811 16.99081443-38.35069667 38.35069667-38.35069554z" fill="#D12C2C" p-id="2759"></path><path d="M667.34459221 526.56355555h25.72894891c16.01991111 0 29.12711111 13.1072 29.12711111 29.12711112v148.54826666c0 16.01991111-13.1072 29.12711111-29.12711111 29.12711112H667.34459221c-16.01991111 0-29.12711111-13.1072-29.12711111-29.12711112V555.69066667c0-16.01991111 13.1072-29.12711111 29.12711111-29.12711112z" fill="#33D6C4" p-id="2760"></path><path d="M660.54826667 513.94180779c-17.47626667 0-31.0689189 14.07810333-31.0689189 31.06891776V720.74429667c0 17.47626667 14.07810333 31.0689189 31.0689189 31.06891776h38.35069667c17.47626667 0 31.0689189-14.07810333 31.06891776-31.06891776v-175.73357112c0-17.47626667-14.07810333-31.0689189-31.06891776-31.06891776h-38.35069667z m0-7.28177778h38.35069667c21.3598811 0 38.35069667 17.47626667 38.35069554 38.35069554V720.74429667c0 21.3598811-17.47626667 38.35069667-38.35069554 38.35069554h-38.35069667c-21.3598811 0-38.35069667-17.47626667-38.35069668-38.35069554v-175.73357112c0-21.3598811 16.99081443-38.35069667 38.35069668-38.35069554zM273.15768889 524.62174777v7.28177778c-5.82542222 0-12.13629667 11.16539221-12.13629668 25.7289489s5.82542222 25.72894777 12.13629668 25.72894777v7.28177778c-11.16539221 0-19.41807445-15.04900779-19.41807446-33.01072555 0-17.9617189 8.2526811-33.01072555 19.41807446-33.01072668zM755.69683001 591.12865223v-7.28177778c5.82542222 0 12.13629667-11.16539221 12.13629554-25.7289489s-5.82542222-25.72894777-12.13629554-25.72894777v-7.28177778c11.16539221 0 19.41807445 15.04900779 19.41807332 33.01072555 0 17.9617189-7.76723001 33.01072555-19.41807332 33.01072668zM349.8590811 507.1454811h7.28177778v251.46406002h-7.28177778z" fill="#D12C2C" p-id="2761"></path><path d="M657.15010333 507.63093333h7.28177777v249.0368h-7.28177777zM405.20059221 352.28634112l-4.36906666-5.82542222c27.67075555-22.33078557 69.41961443-34.95253333 113.59573333-34.95253333 43.69066667 0 84.95407445 12.62174777 112.62483001 33.98162886l-4.36906667 6.31087446c-26.69985223-20.87443001-66.02145223-32.52527445-108.25576334-32.52527446-42.71976334-0.48545223-82.52681443 11.65084445-109.22666667 33.01072669z" fill="#D12C2C" p-id="2762"></path><path d="M397.43336334 355.68450333c-8.2526811 0-14.56355555-6.31087445-14.56355555-14.56355556 0-7.28177778 3.39816334-12.13629667 11.16539221-16.01991111l3.39816334 6.31087445c-6.31087445 2.91271111-7.28177778 5.33996999-7.28177777 9.70903666 0 3.88361443 3.39816334 7.28177778 7.28177777 7.28177778 1.45635555 0 1.94180779-0.48545223 4.36906667-2.42725888 2.42725888-2.42725888 6.31087445-5.33996999 14.56355556-9.70903666l3.3981622 6.31087332c-7.76723001 3.88361443-11.16539221 7.28177778-13.5926511 9.22358556-2.42725888 1.94180779-4.36906667 3.88361443-8.73813333 3.88361444zM631.42115555 355.68450333c-4.36906667 0-6.31087445-1.94180779-9.70903665-4.36906667-2.42725888-1.94180779-6.31087445-5.33996999-14.07810447-9.22358443l3.39816335-6.31087445c8.2526811 4.36906667 12.62174777 7.76723001 15.53445888 10.19448889 2.91271111 2.42725888 3.39816334 2.42725888 4.85451889 2.42725888 3.88361443 0 7.28177778-3.39816334 7.28177778-7.28177778s-3.39816334-6.79632555-12.62174776-12.62174777l3.88361443-6.31087445c9.70903666 6.31087445 16.01991111 10.67994112 16.01991111 18.93262222 0 7.76723001-6.31087445 14.56355555-14.56355556 14.56355556z" fill="#D12C2C" p-id="2763"></path></svg>