<?xml version="1.0" standalone="no"?><!DOCTYPE svg PUBLIC "-//W3C//DTD SVG 1.1//EN" "http://www.w3.org/Graphics/SVG/1.1/DTD/svg11.dtd"><svg t="1633786057430" class="icon" viewBox="0 0 1024 1024" version="1.1" xmlns="http://www.w3.org/2000/svg" p-id="2602" xmlns:xlink="http://www.w3.org/1999/xlink" width="300" height="300"><defs><style type="text/css"></style></defs><path d="M 132.486 854.126 c -65.3126 0 -119.74 -52.8027 -119.74 -119.74 s 52.8027 -119.74 119.74 -119.74 c 26.4828 0 51.3398 9.26068 73.1115 24.8578 l 6.17385 4.71166 V 260.135 c 0 -23.3956 18.6839 -41.917 40.4547 -41.917 l 399.679 -46.6283 h 3.08692 c 21.7709 -1.6247 41.917 17.0593 41.917 40.4547 V 661.274 c 0 32.6561 -12.5101 62.2254 -35.7434 83.9971 c -21.7709 21.7709 -52.8027 34.2811 -83.9971 34.2811 c -65.3126 0 -119.74 -52.8027 -119.74 -119.74 c 0 -65.3126 52.8027 -119.74 119.74 -119.74 c 26.4828 0 52.8027 9.26068 73.1115 24.8578 l 6.17385 4.71166 V 361.188 l -404.393 43.5415 V 734.388 c -1.46223 66.7753 -54.2654 119.74 -119.579 119.74 Z m 0 -197.562 c -43.5415 0 -79.2861 35.7434 -79.2861 79.2861 s 35.7434 79.2861 79.2861 79.2861 s 79.2861 -35.7434 79.2861 -79.2861 c -1.46223 -45.0046 -35.7434 -79.2861 -79.2861 -79.2861 Z m 444.679 -74.5732 c -43.5415 0 -79.2861 35.7434 -79.2861 79.2861 s 35.7434 79.2861 79.2861 79.2861 s 79.2861 -35.7434 79.2861 -79.2861 c 0.162469 -43.5415 -35.7434 -79.2861 -79.2861 -79.2861 Z m -326.561 -217.708 l 404.393 -43.5415 v -110.479 l -399.679 46.6283 h -4.71166 v 107.393 Z" fill="#9acae8" p-id="2603"></path><path d="M 1006.9 407.328 c -2.2746 7.96103 -5.36151 14.4598 -9.26068 19.1714 c -3.89923 4.87408 -7.1487 6.98625 -9.58575 6.49877 s -4.54922 -2.43705 -6.17385 -5.8489 c -1.6247 -3.24934 -2.76203 -9.26068 -3.08692 -17.8717 c -0.649877 -13.9725 -4.38668 -24.3705 -11.0479 -31.519 c -6.66126 -7.1487 -17.5468 -12.6725 -32.4934 -16.5718 c -15.5971 -4.38668 -29.0821 -11.8602 -40.4547 -22.5833 c -11.3729 -10.7231 -20.7963 -20.4714 -28.2693 -29.5694 c -7.1487 -7.96103 -12.9978 -11.0479 -17.3844 -9.42328 s -6.82372 5.52398 -7.31115 11.2105 l -1.78717 22.746 l -18.6839 232.819 l -2.43705 30.2195 c -0.324934 8.44839 -2.43705 17.8717 -6.17385 27.9452 c -3.73676 10.2356 -10.2356 19.4965 -19.1714 28.1072 s -20.6334 15.5971 -34.7686 20.9584 c -14.2974 5.52398 -31.6818 7.96103 -52.1529 7.31115 c -20.7963 -0.487408 -39.3175 -5.68658 -55.4016 -15.4348 s -28.1072 -21.4459 -36.3933 -35.0934 c -8.12347 -13.6476 -11.5354 -28.1072 -10.2356 -43.3793 c 1.29978 -15.2722 9.09827 -29.2444 23.2332 -41.5918 c 14.1349 -12.3478 28.92 -20.6334 44.5164 -24.6956 s 30.3819 -5.8489 44.5164 -5.36151 c 14.1349 0.649877 26.645 2.59952 37.5303 5.8489 c 10.8854 3.41187 18.8465 6.33638 24.0455 8.77347 c 0 0 18.8465 -238.343 23.2335 -290.496 c 0.812347 -10.2356 4.06174 -18.359 9.91069 -24.5331 s 13.16 -9.42328 22.0961 -9.74813 c 7.47357 -0.487408 13.485 1.46223 17.8717 5.8489 c 4.38668 4.38668 8.77347 10.398 13.16 18.034 c 4.38668 7.63615 9.74813 16.247 16.247 25.9952 s 15.5971 19.4965 27.1326 29.2444 c 9.91069 8.93589 18.6839 15.4348 26.3199 19.659 c 7.1487 3.89923 14.2974 7.63615 21.4459 11.5354 c 6.66126 3.57434 13.16 7.63615 19.4965 12.5101 c 6.33638 4.71166 13.16 12.1853 20.6334 22.4207 c 7.31115 9.74813 11.5354 19.659 12.5101 29.7322 c 1.13729 10.0731 0.487408 19.1714 -1.6247 27.1326 Z" fill="#efe925" p-id="2604"></path></svg>