<?xml version="1.0" standalone="no"?><!DOCTYPE svg PUBLIC "-//W3C//DTD SVG 1.1//EN" "http://www.w3.org/Graphics/SVG/1.1/DTD/svg11.dtd"><svg t="1633787217257" class="icon" viewBox="0 0 1024 1024" version="1.1" xmlns="http://www.w3.org/2000/svg" p-id="72397" xmlns:xlink="http://www.w3.org/1999/xlink" width="300" height="300"><defs><style type="text/css"></style></defs><path d="M916.368696 498.309565c115.533913 115.422609 76.8 263.902609-38.733913 379.325218l-0.667826 0.667826c-89.043478 89.043478-197.342609 131.784348-295.067827 94.052174a241.864348 241.864348 0 0 1-83.700869-55.652174 293.398261 293.398261 0 0 1-82.031304-158.831305 57.878261 57.878261 0 0 0-25.711305-40.626087 165.732174 165.732174 0 0 1-29.273043-23.04c-75.575652-75.464348-98.281739-194.56 18.69913-311.652174v-0.556521c75.575652-75.241739 143.248696-94.497391 201.46087-82.253913a221.718261 221.718261 0 0 1 109.412174 64.222608A161.836522 161.836522 0 0 1 712.347826 390.344348a58.657391 58.657391 0 0 0 40.96 25.266087 293.509565 293.509565 0 0 1 163.06087 82.69913z" fill="#FED33F" p-id="72398"></path><path d="M916.368696 498.309565c115.533913 115.422609 76.8 263.902609-38.733913 379.325218l-0.667826 0.667826L380.438261 381.773913c75.575652-75.241739 143.248696-94.497391 201.460869-82.253913a221.718261 221.718261 0 0 1 109.412174 64.222609A161.836522 161.836522 0 0 1 712.347826 390.344348a58.657391 58.657391 0 0 0 40.96 25.266087 293.509565 293.509565 0 0 1 163.06087 82.69913z" fill="#FFE97D" p-id="72399"></path><path d="M653.245217 957.217391a204.577391 204.577391 0 0 1-146.69913-64.556521A270.692174 270.692174 0 0 1 430.747826 745.73913a46.08 46.08 0 0 0-20.034783-32.055652 148.48 148.48 0 0 1-27.492173-22.260869 189.217391 189.217391 0 0 1-58.546087-130.893913c-0.556522-54.205217 25.488696-109.189565 75.353043-159.053913 54.873043-54.873043 109.968696-81.586087 163.394783-79.582609 44.521739 1.78087 86.706087 22.928696 126.553043 62.775652a157.050435 157.050435 0 0 1 20.257391 25.043478 46.08 46.08 0 0 0 32.166957 19.70087 270.246957 270.246957 0 0 1 150.149565 76.354783c97.502609 97.502609 84.146087 232.069565-34.838261 351.165217C802.726957 912.695652 742.288696 946.086957 683.074783 954.991304a207.916522 207.916522 0 0 1-29.829566 2.226087z m-95.721739-620.855652c-47.86087 0-97.613913 25.488696-147.812174 75.686957-47.193043 47.193043-71.902609 98.726957-71.346087 149.25913a174.525217 174.525217 0 0 0 54.539131 121.321739 140.132174 140.132174 0 0 0 25.043478 19.812174 59.213913 59.213913 0 0 1 26.267826 41.293913 257.335652 257.335652 0 0 0 72.013913 139.241739c47.193043 47.193043 104.18087 67.450435 164.841739 58.546087 56.32-8.236522 114.086957-40.626087 166.956522-93.384348 89.043478-89.043478 144.695652-222.608696 34.838261-331.79826a256 256 0 0 0-142.58087-72.459131 60.215652 60.215652 0 0 1-41.627826-25.822609 134.121739 134.121739 0 0 0-18.365217-22.260869c-37.398261-37.398261-76.911304-57.09913-117.426087-58.768696z" fill="#FFB600" p-id="72400"></path><path d="M506.991304 399.471304a12.688696 12.688696 0 0 1 0.667826 18.587826l-89.711304 89.043479a12.466087 12.466087 0 0 1-18.365217-0.779131l-25.822609-30.052174-28.827826-33.391304-34.615652-39.958261-28.716522-33.391304-34.726957-40.514783-28.716521-33.391304-34.726957-40.403478-10.24-11.909566 70.121739-70.010434 11.909566 10.128695 40.403478 34.726957 33.391304 28.716521 40.292174 34.726957 33.391304 28.605217L443.325217 345.043478l33.391305 28.605218z" fill="#EF6145" p-id="72401"></path><path d="M552.626087 552.626087m-108.521739 0a108.521739 108.521739 0 1 0 217.043478 0 108.521739 108.521739 0 1 0-217.043478 0Z" fill="#D39A0B" p-id="72402"></path><path d="M552.626087 672.723478A120.097391 120.097391 0 1 1 637.551304 467.478261a120.097391 120.097391 0 0 1-84.925217 204.911304z m0-216.932174a96.946087 96.946087 0 1 0 68.452174 28.382609 95.833043 95.833043 0 0 0-68.34087-27.826087z" fill="#BF760C" p-id="72403"></path><path d="M842.351304 722.69913L722.69913 842.351304a16.584348 16.584348 0 0 1-26.713043-4.897391v-0.890435l-9.238261-20.48a16.584348 16.584348 0 0 1 3.339131-18.476521L797.606957 690.086957a16.361739 16.361739 0 0 1 18.365217-3.339131l20.813913 9.238261h0.667826a16.473043 16.473043 0 0 1 4.897391 26.713043z" fill="#D19809" p-id="72404"></path><path d="M836.786087 695.652174a16.584348 16.584348 0 0 1-3.784348 17.697391L713.349565 833.113043a16.361739 16.361739 0 0 1-17.808695 3.450435l-9.238261-20.48a16.584348 16.584348 0 0 1 3.784348-18.476521L797.606957 690.086957a16.361739 16.361739 0 0 1 18.365217-3.339131zM50.265043 86.906435l36.674783-36.674783a41.961739 41.961739 0 0 1 59.347478 0L240.729043 144.695652l-96.01113 96.011131-94.45287-94.44174a41.961739 41.961739 0 0 1 0-59.347478z" fill="#DDA812" p-id="72405"></path><path d="M506.991304 399.471304a12.688696 12.688696 0 0 1 0.667826 18.587826l-89.711304 89.043479a12.466087 12.466087 0 0 1-18.365217-0.779131l-25.822609-30.052174 103.067826-103.17913zM443.325217 345.043478l-98.393043 98.393044-34.615652-40.514783 92.605217-92.716522L443.325217 345.043478zM369.41913 281.6l-87.81913 87.930435-34.726957-40.514783 82.253914-82.142609 40.292173 34.726957zM295.624348 218.156522l-77.467826 77.467826-34.726957-40.403478 71.791305-71.791305 40.403478 34.726957z" fill="#F2705F" p-id="72406"></path><path d="M240.862609 144.695652L144.695652 240.862609l31.387826 13.467826a8.681739 8.681739 0 0 0 9.906087-1.892174l66.782609-66.782609a9.015652 9.015652 0 0 0 1.892174-9.906087z" fill="#D39B0D" p-id="72407"></path><path d="M743.401739 776.904348a1.446957 1.446957 0 0 1-1.224348 0L209.14087 229.954783l-133.565218-68.34087a1.558261 1.558261 0 0 1-0.77913-2.226087 1.669565 1.669565 0 0 1 3.116521-0.77913l133.565218 68.340869 533.147826 547.06087a1.78087 1.78087 0 0 1 0 2.448695 1.669565 1.669565 0 0 1-1.224348 0.445218z" fill="#FFFFFF" p-id="72408"></path><path d="M714.907826 805.509565a1.892174 1.892174 0 0 1-1.335652-0.556522L198.566957 240.417391 96.834783 187.993043a1.558261 1.558261 0 0 1-0.779131-2.226086 1.669565 1.669565 0 0 1 2.337391-0.779131L200.347826 237.523478l515.784348 565.092174a1.78087 1.78087 0 0 1 0 2.448696 2.337391 2.337391 0 0 1-1.224348 0.445217zM773.008696 747.408696a1.78087 1.78087 0 0 1-1.224348-0.556522L222.608696 215.707826 159.053913 76.8a1.558261 1.558261 0 0 1 0.77913-2.226087 1.669565 1.669565 0 0 1 2.226087 0.890435l63.443479 138.017391 548.61913 530.921739a1.892174 1.892174 0 0 1 0 2.448696 1.78087 1.78087 0 0 1-1.113043 0.556522z" fill="#FFFFFF" p-id="72409"></path><path d="M801.391304 718.803478a1.558261 1.558261 0 0 1-1.113043 0L234.963478 203.798261 185.878261 97.391304a1.669565 1.669565 0 0 1 0.890435-2.226087 1.669565 1.669565 0 0 1 2.226087 0.779131l48.528695 105.516522 565.203479 514.337391a1.892174 1.892174 0 0 1 0 2.448696 2.003478 2.003478 0 0 1-1.335653 0.556521z" fill="#FFFFFF" p-id="72410"></path><path d="M59.234148 166.841749m1.888897-1.888897l12.041721-12.041722q1.888897-1.888897 3.777795 0l6.847253 6.847254q1.888897 1.888897 0 3.777794l-12.041721 12.041722q-1.888897 1.888897-3.777795 0l-6.847253-6.847254q-1.888897-1.888897 0-3.777794Z" fill="#8FC94B" p-id="72411"></path><path d="M59.234363 166.742151m1.652785-1.652785l8.657447-8.657447q1.652785-1.652785 3.30557 0l7.319478 7.319478q1.652785 1.652785 0 3.30557l-8.657447 8.657447q-1.652785 1.652785-3.30557 0l-7.319478-7.319478q-1.652785-1.652785 0-3.30557Z" fill="#9BCE59" p-id="72412"></path><path d="M85.428903 192.890226m1.888897-1.888897l12.041721-12.041721q1.888897-1.888897 3.777795 0l6.847253 6.847253q1.888897 1.888897 0 3.777795l-12.041721 12.041721q-1.888897 1.888897-3.777795 0l-6.847253-6.847253q-1.888897-1.888897 0-3.777795Z" fill="#8FC94B" p-id="72413"></path><path d="M85.428886 192.901373m1.652786-1.652785l8.657446-8.657446q1.652785-1.652785 3.305571 0l7.319477 7.319477q1.652785 1.652785 0 3.305571l-8.657446 8.657446q-1.652785 1.652785-3.305571 0l-7.319477-7.319477q-1.652785-1.652785 0-3.305571Z" fill="#9BCE59" p-id="72414"></path><path d="M153.097104 72.914711m1.888898-1.888898l12.041721-12.041721q1.888897-1.888897 3.777795 0l6.847253 6.847253q1.888897 1.888897 0 3.777795l-12.041721 12.041721q-1.888897 1.888897-3.777795 0l-6.847253-6.847253q-1.888897-1.888897 0-3.777795Z" fill="#8FC94B" p-id="72415"></path><path d="M158.447607 67.732747m1.574081-1.574081l7.398181-7.398182q1.574081-1.574081 3.148163 0l7.476885 7.476886q1.574081 1.574081 0 3.148162l-7.398181 7.398181q-1.574081 1.574081-3.148162 0l-7.476886-7.476885q-1.574081-1.574081 0-3.148162Z" fill="#9BCE59" p-id="72416"></path><path d="M179.291628 99.073933m1.888897-1.888897l12.041721-12.041721q1.888897-1.888897 3.777795 0l6.847253 6.847253q1.888897 1.888897 0 3.777794l-12.041721 12.041722q-1.888897 1.888897-3.777795 0l-6.847253-6.847254q-1.888897-1.888897 0-3.777794Z" fill="#8FC94B" p-id="72417"></path><path d="M184.452913 93.859696m1.574081-1.574081l7.476886-7.476885q1.574081-1.574081 3.148162 0l7.476886 7.476885q1.574081 1.574081 0 3.148163l-7.476886 7.476885q-1.574081 1.574081-3.148162 0l-7.476886-7.476885q-1.574081-1.574081 0-3.148163Z" fill="#9BCE59" p-id="72418"></path><path d="M699.5255 805.190462m4.250019-4.250019l95.861544-95.861544q4.250019-4.250019 8.500038 0l0 0q4.250019 4.250019 0 8.500038l-95.861544 95.861544q-4.250019 4.250019-8.500038 0l0 0q-4.250019-4.250019 0-8.500038Z" fill="#FFE092" p-id="72419"></path></svg>