<?xml version="1.0" standalone="no"?><!DOCTYPE svg PUBLIC "-//W3C//DTD SVG 1.1//EN" "http://www.w3.org/Graphics/SVG/1.1/DTD/svg11.dtd"><svg t="1633786363322" class="icon" viewBox="0 0 1024 1024" version="1.1" xmlns="http://www.w3.org/2000/svg" p-id="18923" xmlns:xlink="http://www.w3.org/1999/xlink" width="300" height="300"><defs><style type="text/css"></style></defs><path d="M315.776 106.752C85.12 193.28-31.616 450.56 54.912 681.216S398.72 1028.736 629.376 942.08s347.52-343.808 260.864-574.464C803.712 136.96 546.56 20.096 315.776 106.752z m182.656 486.656c-37.12 13.952-78.592-4.864-92.544-41.984s4.864-78.592 41.984-92.544c37.12-13.952 78.592 4.864 92.544 41.984 0.128 0.256 0.256 0.512 0.256 0.896 13.184 36.864-5.504 77.568-42.24 91.648z" fill="#FF1C4A" p-id="18924"></path><path d="M472.192 870.656c-92.032 0-178.56-35.84-243.584-100.864S127.616 618.112 127.616 526.08s35.84-178.56 100.864-243.584 151.552-100.864 243.584-100.864 178.56 35.84 243.584 100.864 100.864 151.552 100.864 243.584-35.84 178.56-100.864 243.584-151.424 100.992-243.456 100.992z m0-612.224c-147.584 0-267.776 120.064-267.776 267.776 0 147.584 120.064 267.776 267.776 267.776S739.968 673.792 739.968 526.08c0-147.584-120.064-267.648-267.776-267.648z" fill="#D42543" opacity=".49" p-id="18925"></path><path d="M982.016 120.704c-1.664-0.768-3.456-1.408-5.248-1.792L808.448 83.2c-30.976-6.528-62.464 9.344-75.648 38.144l-49.664 109.312-71.424 161.664c-16.256-17.28-35.968-31.616-58.88-41.984-93.952-42.752-204.8-1.152-247.552 92.928s-1.152 204.8 92.928 247.552 204.8 1.152 247.552-92.928c0-0.128 0.128-0.256 0.128-0.384l144.512-318.08 99.072 45.056c13.184 6.272 28.8 0.64 35.072-12.544 0.128-0.128 0.128-0.256 0.128-0.384l70.528-155.136c6.144-13.568 0.256-29.568-13.184-35.712zM443.392 591.104c-35.84-16.256-51.84-58.624-35.456-94.464s58.624-51.84 94.464-35.456 51.84 58.624 35.456 94.464c-16.256 35.968-58.496 51.84-94.464 35.456z" fill="#FFAC8F" p-id="18926"></path></svg>