<?xml version="1.0" standalone="no"?><!DOCTYPE svg PUBLIC "-//W3C//DTD SVG 1.1//EN" "http://www.w3.org/Graphics/SVG/1.1/DTD/svg11.dtd"><svg t="1633949173410" class="icon" viewBox="0 0 1024 1024" version="1.1" xmlns="http://www.w3.org/2000/svg" p-id="48008" xmlns:xlink="http://www.w3.org/1999/xlink" width="300" height="300"><defs><style type="text/css"></style></defs><path d="M512 512m-512 0a512 512 0 1 0 1024 0 512 512 0 1 0-1024 0Z" fill="#1E80F1" p-id="48009"></path><path d="M512 512m-431.157895 0a431.157895 431.157895 0 1 0 862.31579 0 431.157895 431.157895 0 1 0-862.31579 0Z" fill="#1E80F1" p-id="48010"></path><path d="M422.723368 483.058526c5.766737-11.398737 9.970526-21.827368 15.97979-31.043368 6.170947-9.431579 13.850947-17.893053 21.39621-26.300632 7.221895-8.084211 142.389895-134.359579 154.300632-148.453052 6.332632-7.491368 12.476632-7.733895 20.210526-7.733895 41.633684 0.026947 83.267368-0.053895 124.928 0.161684h0.080842a6.251789 6.251789 0 0 1 4.985264 9.970526 19.267368 19.267368 0 0 1-1.13179 1.347369c-4.096 4.554105-185.182316 182.164211-201.539368 200.677053-3.314526 3.772632-6.467368 9.970526-8.623158 14.955789-2.371368 5.389474-3.853474 11.102316-4.176842 16.949895a16.976842 16.976842 0 0 0 1.158737 7.06021c2.802526 7.248842 6.117053 18.863158 18.054736 36.540632 9.296842 13.797053 137.970526 181.894737 150.905264 197.793684 0.134737 0.188632 0.377263 0.323368 0.485052 0.538947l1.239579 2.425264a6.925474 6.925474 0 0 1-6.144 10.078315h-0.107789c-46.295579 0.134737-92.591158-0.026947-138.886737 0.188632-7.464421 0.053895-11.021474-3.206737-14.336-9.566316-4.742737-9.162105-113.448421-168.825263-121.209263-179.361684a112.451368 112.451368 0 0 1-20.830316-52.897684c-0.134737-0.889263-0.512-1.751579-1.994105-2.775579-0.673684 3.503158-1.751579 7.006316-1.994106 10.563368-1.616842 24.252632-20.938105 216.064-22.339368 228.621474-0.458105 4.230737-3.341474 4.365474-8.245895 5.01221-3.018105 0.404211-5.012211 0.323368-7.437474 0.323369H279.713684a10.24 10.24 0 0 1-10.24-10.159158c-0.026947-3.018105 0-6.009263 0.323369-8.946526 0.916211-8.650105 46.214737-462.039579 47.616-473.222737 0.565895-4.527158 2.371368-8.084211 11.910736-5.416421a197.039158 197.039158 0 0 0 102.831158 0.242526c12.880842-3.368421 13.204211 1.562947 12.557474 6.844632-3.314526 27.378526-21.423158 193.212632-22.501053 200.138105-0.188632 1.239579 0.215579 2.56 0.538948 5.443368" fill="#FEFEFE" p-id="48011"></path></svg>