<?xml version="1.0" standalone="no"?><!DOCTYPE svg PUBLIC "-//W3C//DTD SVG 1.1//EN" "http://www.w3.org/Graphics/SVG/1.1/DTD/svg11.dtd"><svg t="1633787007178" class="icon" viewBox="0 0 1024 1024" version="1.1" xmlns="http://www.w3.org/2000/svg" p-id="56432" xmlns:xlink="http://www.w3.org/1999/xlink" width="300" height="300"><defs><style type="text/css"></style></defs><path d="M477.37798724 118.27267704c20.07037392 8.9544743-30.56872395 240.53571473 75.95864646 347.06308514s335.02086008 43.53727304 338.72616042 62.68132223-193.91069164 101.27819575-235.59531521 159.01911846c-88.61842181 117.64327003 11.42467477 155.93136841-113.93796968 293.64501306-54.34439751 59.28479703-197.92476642 92.32372145-400.17238277-114.86429583S-16.35321686 540.9856342 42.93158088 481.70083646c106.83614556-106.83614556 149.7558683-35.50912347 279.75013783-130.30304467 54.34439822-39.52319825 134.00834431-237.13918953 154.69626853-233.12511475z" fill="#434A54" p-id="56433"></path><path d="M557.04193404 676.53785354L490.65531147 610.15123097 817.64802198 283.15852046a43.667377 43.667377 0 0 0 59.59357288-2.16142532L910.28051858 247.95817143a43.667377 43.667377 0 0 0 0-61.75499679L836.48329673 112.4059528a43.667377 43.667377 0 0 0-61.75499749-7.1e-7l-34.27402359 34.27402359a43.667377 43.667377 0 0 0-2.16142532 59.59357288l-325.75761063 325.75761063-61.75499679-61.75499678a20.960341 20.960341 0 0 0-29.64239851 0l-162.41564366 162.41564365a20.960341 20.960341 0 0 0 0 29.64239852l206.57046557 206.57046557a20.960341 20.960341 0 0 0 30.56872396 0.92632544l162.41564365-162.41564366a20.960341 20.960341 0 0 0-1.23509988-30.87749839z" fill="#D46882" p-id="56434"></path><path d="M349.23636718 549.63133406l134.31711946 134.31711946-47.86012297 47.86012297-134.31711946-134.31711946 47.86012297-47.86012297Z" fill="#E6E9ED" p-id="56435"></path><path d="M276.98302036 621.88468088l134.31711946 134.31711946-47.86012297 47.86012297-134.31711946-134.31711946 47.86012297-47.86012297Z" fill="#E6E9ED" p-id="56436"></path></svg>