<?xml version="1.0" standalone="no"?><!DOCTYPE svg PUBLIC "-//W3C//DTD SVG 1.1//EN" "http://www.w3.org/Graphics/SVG/1.1/DTD/svg11.dtd"><svg t="1633787001353" class="icon" viewBox="0 0 1024 1024" version="1.1" xmlns="http://www.w3.org/2000/svg" p-id="56280" xmlns:xlink="http://www.w3.org/1999/xlink" width="300" height="300"><defs><style type="text/css"></style></defs><path d="M456.885386 760.563203V551.61825A80.397802 80.397802 0 0 1 520.935635 469.791154q181.609701-46.898718 363.576725-93.26145c41.717526-10.630376 62.531623 5.895839 62.531624 49.13199v372.331153c0 43.14682-20.188781 73.340661-60.923668 88.25892q-183.306988 67.17683-367.06063 133.013696c-38.769607 13.935619-62.531623-3.483905-62.531623-44.665446q0.267993-107.197069 0.357323-214.036814z" fill="#D9E1E8" p-id="56281"></path><path d="M140.654033 603.78749c29.657856 17.866178 54.581174 33.677746 79.861817 48.685336a71.464713 71.464713 0 0 0 91.832155-11.523685c32.695106-35.017709 63.960918-71.464713 95.673384-107.197069A53.598534 53.598534 0 0 0 422.671655 483.816104a53.598534 53.598534 0 0 1 24.03001 48.863997q0.98264 223.327227 0 446.207799c0 31.533804-20.724767 41.985519-48.774666 22.958039-36.268342-24.655326-70.392742-52.437233-105.321121-79.057838-26.799267-20.903428-54.313182-42.07485-81.469772-62.531624-47.077379-36.357673-74.859286-81.559103-71.464712-143.644072 2.769258-36.08968 0.98264-72.090029 0.982639-112.824915z" fill="#9BAEC8" p-id="56282"></path><path d="M161.736124 373.492454c17.240862-1.518625 34.660386 9.737067 52.973218 16.972869 54.849167 21.707406 109.34101 44.665445 163.922184 66.998168 42.432173 17.330193 47.613365 43.057489 16.347553 77.003228-28.585885 31.08715-56.010468 63.335602-84.953677 94.154759-26.263282 27.781907-53.062549 32.248452-86.114979 13.131641q-88.169589-50.918608-174.731222-104.338481C16.484095 517.315188 11.749558 493.195848 35.422244 463.537992a737.783826 737.783826 0 0 1 59.315712-65.747536c16.883538-16.972869 38.948268-24.208671 66.998168-24.298002z" fill="#7500F4" p-id="56283"></path><path d="M663.86506 366.256652c-2.411934 14.739597 9.469074 40.466893-4.645206 54.22385-12.416994 12.238332-37.07232 11.523685-56.010469 17.866179-64.407572 19.206141-130.512431 31.891128-197.778592 16.526214-49.042659-11.255692-93.440112-36.357673-140.696153-53.598534-14.918259-5.359853-29.568525-11.613016-44.21879-17.866178-11.791678-5.181192-25.280642-10.809038-22.868708-26.799267s15.900899-18.938149 28.675215-21.260752c36.804327-6.789148 73.787316-12.952979 110.770305-19.295473 23.583355-4.01989 47.345372-7.414464 70.750065-12.238332 10.630376-2.233272 16.168891-2.590596 15.632906 11.166362C420.527714 396.539824 501.104177 419.855186 556.667991 382.425543c34.749716-23.136701 55.921138-55.027829 53.598535-98.26398-1.071971-20.09945 9.558405-19.384803 21.707406-15.186251a43.057489 43.057489 0 0 1 31.891128 41.09221c0.714647 16.794207 0 33.588415 0 56.18913z" fill="#9BAEC8" p-id="56284"></path><path d="M531.119357 220.825962c-30.551165-33.856408-58.065079-64.854227-86.114979-95.405391-17.866178-19.831458-26.799267-42.16418-15.364913-67.802147a56.903777 56.903777 0 0 1 59.673035-35.19637c20.992759 1.250632 37.876298-8.933089 53.598534-22.422054 17.866178 54.402512 2.233272 79.325831-65.658205 106.035767C512.002546 151.862514 547.109586 196.52796 582.484619 241.640059c24.565995 30.908488 24.476664 63.15694 5.806508 95.762715-20.188781 35.10704-50.918608 55.653145-92.368141 52.615895-50.293291-3.930559-75.663264-51.722586-55.385153-101.390561 15.722237-38.501614 45.290762-60.387682 90.581524-67.802146zM262.412037 218.146035c4.198552-33.945738 8.933089-65.568874 11.881009-97.370671C276.615649 98.26398 283.851451 79.683154 306.541497 71.464713s41.896188 0 56.903778 18.759487A48.328012 48.328012 0 0 0 404.805477 110.144988c-32.873768 42.878828-49.935968 50.025299-101.033237 18.312833-9.915729 45.558754-19.384803 90.670854-29.479194 135.604292A63.960918 63.960918 0 0 1 217.210607 316.678008c-36.625665 4.823868-68.606124-8.933089-82.631074-35.732357-19.474134-36.982989 8.933089-81.023118 54.402512-85.221669 25.548635-2.05461 33.677746 0.803978 73.429992 22.422053z" fill="#2FA2E2" p-id="56285"></path><path d="M676.460716 357.323563c0-15.096921-0.98264-30.372503 0-45.380093 2.233272-26.799267 24.208671-44.665445 50.20396-36.447003 54.759836 16.704877 108.894356 35.732356 163.207538 53.598534 9.379744 3.126581 17.866178 8.933089 17.866178 19.920789s-8.933089 13.667626-17.866178 15.990229Q790.17894 390.197331 690.664327 415.835296c-12.774317 3.305243-15.275582-2.501265-15.007589-13.399633 0.446654-15.186251 0-30.372503 0-45.558755z" fill="#590A9E" p-id="56286"></path><path d="M940.790821 360.360813c22.332723 9.647736 40.288232 17.866178 52.705226 34.303062 18.580825 24.11934 10.00506 53.598534-17.151531 60.834337-12.684986 3.483905-19.652796 1.071971-18.759487-14.203612 0.803978-13.399634-0.535985-26.799267 0-40.466893s-9.915729-24.298002-16.794208-40.466894z" fill="#C274FF" p-id="56287"></path><path d="M672.798149 786.826485v63.424933a91.474832 91.474832 0 0 1-62.531623 82.720404c-28.764547 9.469074-52.615895-6.074501-52.794557-35.732356q-0.803978-154.810434 0-309.620867a74.144639 74.144639 0 0 1 62.531624-71.464713c28.585885-5.270523 49.489313 10.898369 52.347902 41.717526 1.161302 13.488964 0 26.799267 0 46.452064 20.635436-21.886068 38.412283-40.288232 55.653145-59.047719s35.732356-40.824217 54.670505-60.387682a59.405042 59.405042 0 0 1 33.052429-19.384804c19.474134-3.03725 38.948268-3.662567 51.543924 15.722237s8.933089 47.702696-8.307773 69.320771a1341.481986 1341.481986 0 0 1-102.998517 107.197069c-15.364913 14.918259-17.866178 22.243392 4.01989 32.695106C790.982918 705.714036 820.194119 723.580215 850.119967 740.463753a46.809387 46.809387 0 0 1 18.312833 15.00759c13.310303 20.992759 4.377214 58.958388-19.652796 82.899066s-53.598534 29.925848-75.573934 15.632906C740.600295 832.831894 708.530505 810.767164 672.798149 786.826485z" fill="#2B90D9" p-id="56288"></path></svg>