<?xml version="1.0" standalone="no"?><!DOCTYPE svg PUBLIC "-//W3C//DTD SVG 1.1//EN" "http://www.w3.org/Graphics/SVG/1.1/DTD/svg11.dtd"><svg t="1633786982125" class="icon" viewBox="0 0 1025 1024" version="1.1" xmlns="http://www.w3.org/2000/svg" p-id="55285" xmlns:xlink="http://www.w3.org/1999/xlink" width="300.29296875" height="300"><defs><style type="text/css"></style></defs><path d="M1021.082949 265.926471c-2.889016-5.005343-7.667882-8.648015-13.244177-10.149618L736.254169 183.050927c-11.651221-3.094558-23.597434 3.754959-26.669155 15.40618l-5.734258 21.298402c-39.502246-12.789318-124.539795-37.431595-191.940645-37.431595-67.037344 0.091352-152.278532 24.75837-191.826454 37.454433l-5.734258-21.344078c-3.07172-11.651221-15.017933-18.477901-26.691993-15.40618L16.162252 255.755918c-5.574392 1.501603-10.353258 5.16521-13.244177 10.149618-2.890919 4.982505-3.663607 10.945144-2.184842 16.542374l145.543205 543.12353c2.571186 9.761371 11.377165 16.133192 21.026249 16.133192 1.865109 0 3.754959-0.249316 5.642906-0.728915l271.584603-72.725926c5.574392-1.478765 10.33042-5.16521 13.221339-10.149618 1.364575-2.342805 2.116328-4.84738 2.548348-7.418566 16.247383-2.047813 33.836502-3.435226 51.699678-3.435226 17.840338 0 35.475133 1.410251 51.67684 3.435226 0.454858 2.571186 1.206611 5.142372 2.52551 7.418566 2.890919 5.028181 7.645043 8.670853 13.244177 10.149618l271.561765 72.725926c1.910785 0.477696 3.777797 0.728915 5.688582 0.728915 9.603408 0 18.432225-6.371821 21.026249-16.133192l145.543205-543.12353C1024.746556 276.871616 1023.971964 270.91088 1021.082949 265.926471zM182.68603 793.236542 48.474313 292.23212l114.755585-30.764782 4.664676 17.520605-82.078116 21.981641c-8.691788 2.367546-13.879836 11.310553-11.559869 20.02518 1.979299 7.304376 8.556663 12.10608 15.792524 12.10608 1.387413 0 2.797663-0.182705 4.232655-0.54621l82.078116-22.004479 6.097764 22.756232L100.356695 355.26519c-8.714626 2.319967-13.879836 11.262974-11.559869 20.02518 1.956461 7.258699 8.556663 12.10608 15.769686 12.10608 1.410251 0 2.822405-0.182705 4.255493-0.569049l82.078116-21.981641 6.097764 22.708653-82.078116 22.004479c-8.714626 2.367546-13.879836 11.310553-11.559869 20.02518 1.956461 7.304376 8.556663 12.10608 15.792524 12.10608 1.387413 0 2.797663-0.182705 4.232655-0.523372l82.055277-22.004479 20.660839 77.072772c-0.022838 0-0.022838 0-0.022838 0l-82.055277 21.981641c-8.714626 2.319967-13.879836 11.285812-11.559869 20.002342 1.956461 7.281538 8.556663 12.128918 15.792524 12.128918 1.364575 0 2.797663-0.205543 4.232655-0.569049l82.032439-22.004479 35.20298 131.366474-82.055277 22.004479c-8.691788 2.342805-13.879836 11.285812-11.537031 20.002342 1.956461 7.304376 8.533825 12.10608 15.769686 12.10608 1.387413 0 2.797663-0.182705 4.255493-0.54621l82.055277-22.004479 6.097764 22.756232-82.055277 22.004479c-8.737464 2.342805-13.902674 11.285812-11.582707 20.02518 1.956461 7.258699 8.579501 12.10608 15.792524 12.10608 1.387413 0 2.822405-0.182705 4.232655-0.54621l82.055277-22.004479 4.687514 17.49967L182.68603 793.236542zM450.902017 707.904001l-119.511613-446.004643c15.337666-4.959667 39.02455-12.060403 65.944923-18.727216l60.893904 463.73079C455.703721 707.266439 453.383754 707.652783 450.902017 707.904001zM495.639891 704.012014c-1.615793 0.045676-3.208749 0.137028-4.84738 0.249316l-61.440114-468.281275c22.164346-4.550485 44.941513-7.987615 66.285591-9.306513L495.639891 704.012014 495.639891 704.012014zM769.089602 350.212267c4.027113-14.995095 19.433293-23.892426 34.474065-19.888151 15.017933 4.027113 23.915264 19.433293 19.865313 34.428388-4.027113 15.017933-19.433293 23.892426-34.474065 19.865313C774.005497 380.590705 765.085328 365.2302 769.089602 350.212267zM730.29153 495.026557c4.072789-14.995095 19.433293-23.892426 34.428388-19.888151 15.017933 4.049951 23.938102 19.433293 19.91099 34.428388-4.049951 15.017933-19.433293 23.938102-34.451227 19.933828C735.207424 525.450671 726.264417 510.023555 730.29153 495.026557zM533.25419 704.215653c-1.638631-0.091352-3.277263-0.182705-4.893056-0.272154L528.361133 226.559351c21.344078 1.275125 44.100311 4.687514 66.285591 9.215161L533.25419 704.215653zM573.076169 707.904001c-2.411319-0.31783-4.756028-0.637563-7.235861-0.932554l60.848228-463.911592c26.943211 6.712489 50.630095 13.858901 65.899247 18.841407L573.076169 707.904001zM711.381609 674.293977c-14.972257-4.004275-23.915264-19.433293-19.865313-34.451227 4.004275-14.995095 19.433293-23.892426 34.40555-19.865313 15.017933 4.027113 23.915264 19.433293 19.865313 34.451227C741.782885 669.446597 726.378608 678.32109 711.381609 674.293977zM798.807639 746.245312c-4.027113 14.995095-19.410455 23.892426-34.428388 19.865313-14.949419-4.004275-23.915264-19.433293-19.888151-34.474065 4.049951-14.995095 19.433293-23.915264 34.451227-19.842475C793.962162 715.79836 802.790979 731.250217 798.807639 746.245312zM837.651388 601.431022c-4.049951 14.995095-19.433293 23.915264-34.451227 19.865313-15.017933-4.027113-23.915264-19.433293-19.888151-34.451227 4.027113-15.017933 19.433293-23.915264 34.428388-19.888151C832.758331 571.006908 841.589051 586.435927 837.651388 601.431022zM876.44946 456.548218c-4.027113 15.017933-19.433293 23.96094-34.451227 19.933828-15.017933-4.027113-23.915264-19.433293-19.888151-34.474065 4.027113-14.972257 19.433293-23.892426 34.474065-19.865313C871.579242 426.16978 880.430897 441.551219 876.44946 456.548218zM915.247532 311.71109c-4.027113 14.995095-19.433293 23.915264-34.474065 19.865313-14.972257-4.004275-23.892426-19.387617-19.865313-34.40555 4.027113-14.972257 19.433293-23.892426 34.474065-19.865313C910.377314 281.332652 919.228969 296.714091 915.247532 311.71109z" fill="#735ef0" p-id="55286"></path></svg>