<?xml version="1.0" standalone="no"?><!DOCTYPE svg PUBLIC "-//W3C//DTD SVG 1.1//EN" "http://www.w3.org/Graphics/SVG/1.1/DTD/svg11.dtd"><svg t="1633786974024" class="icon" viewBox="0 0 1097 1024" version="1.1" xmlns="http://www.w3.org/2000/svg" p-id="55135" xmlns:xlink="http://www.w3.org/1999/xlink" width="321.38671875" height="300"><defs><style type="text/css"></style></defs><path d="M457.384652 1011.809578a107.03191 107.03191 0 0 1-99.230039-68.266366l-3.657127-9.752338a26.453217 26.453217 0 0 0-24.380845-16.822784h-70.216833A248.806523 248.806523 0 0 1 12.190422 668.52728V260.635743A248.806523 248.806523 0 0 1 259.899808 12.194933h68.266366a39.984586 39.984586 0 0 1 35.839842 22.064665l12.190422 24.380845A82.407256 82.407256 0 0 0 451.045632 104.232623h195.04676a82.407256 82.407256 0 0 0 73.995865-45.59218l12.190422-24.380845A39.740777 39.740777 0 0 1 768.971851 12.194933h68.266366A248.806523 248.806523 0 0 1 1084.947602 260.635743v407.891537a248.806523 248.806523 0 0 1-247.709385 248.928427h-70.094929a26.453217 26.453217 0 0 0-24.380845 16.822783l-3.657127 9.752338A107.03191 107.03191 0 0 1 639.753373 1011.809578z" fill="#6EE057" p-id="55136"></path><path d="M837.238217 23.410122a237.713239 237.713239 0 0 1 236.616101 237.225621v407.891537A237.713239 237.713239 0 0 1 837.238217 905.752902h-70.094929a37.79031 37.79031 0 0 0-35.352226 24.380845l-3.779031 9.752338a94.475774 94.475774 0 0 1-88.258658 60.952112h-182.856338a94.475774 94.475774 0 0 1-88.258659-60.952112l-3.779031-9.752338a37.79031 37.79031 0 0 0-35.352225-24.380845h-69.607312A237.713239 237.713239 0 0 1 23.283707 668.52728V260.635743A237.713239 237.713239 0 0 1 259.899808 23.410122h68.266366A28.28178 28.28178 0 0 1 353.522252 39.013862l12.190423 24.380845a94.719583 94.719583 0 0 0 85.332957 52.540721h195.04676a94.719583 94.719583 0 0 0 85.332958-52.053104l12.190422-24.380845a28.28178 28.28178 0 0 1 25.356079-15.60374h68.266366m0-23.405612h-68.266366a51.565487 51.565487 0 0 0-46.201701 28.403685l-12.190423 24.990366A70.948259 70.948259 0 0 1 646.092392 92.529817H451.045632a70.948259 70.948259 0 0 1-63.634005-39.131256l-12.190423-24.380845A51.565487 51.565487 0 0 0 328.166174 0.00451h-68.266366A260.631233 260.631233 0 0 0 0 260.635743v407.891537a260.631233 260.631233 0 0 0 259.899808 260.631233h70.094929a14.384699 14.384699 0 0 1 13.531369 9.264721l3.779031 9.752338a118.734715 118.734715 0 0 0 109.713802 75.824428h182.856338a118.734715 118.734715 0 0 0 109.713802-75.824428l3.779031-9.752338a14.384699 14.384699 0 0 1 13.531369-9.264721h70.094929A260.631233 260.631233 0 0 0 1097.138025 668.52728V260.635743A260.631233 260.631233 0 0 0 837.238217 0.00451z" fill="#4FC234" p-id="55137"></path><path d="M353.522252 355.355326V620.497015a15.847549 15.847549 0 0 1-16.335166 15.84755h-6.582828c-62.90258 0-113.858546 37.668406-113.858546 84.235819S267.214061 804.572395 330.116641 804.572395s111.420462-36.571267 113.736642-80.944405V537.480238a9.142817 9.142817 0 0 1 6.948541-9.020912l219.427605-54.856902a9.264721 9.264721 0 0 1 11.458997 9.020913v48.152169a15.725645 15.725645 0 0 1-16.213262 15.969453h-6.582828c-62.90258 0-113.858546 37.668406-113.858546 84.23582s50.955966 84.235819 113.858546 84.235819 111.298557-35.961746 113.614737-81.066309V270.022369a45.104563 45.104563 0 0 0-56.319751-43.519809l-330.238546 85.332958A44.982659 44.982659 0 0 0 353.522252 355.355326z m90.940552 105.812867v-53.150242a9.264721 9.264721 0 0 1 7.192349-9.020912l217.233329-53.028338a11.093284 11.093284 0 0 1 13.775178 10.849476v40.472203a8.411392 8.411392 0 0 1-6.460924 8.289487L446.169463 463.240565a1.828563 1.828563 0 0 1-2.194276-2.072372z" fill="#FFFFFF" p-id="55138"></path><path d="M330.116641 817.372339c-69.729217 0-126.536585-43.397904-126.536585-96.913859s56.807369-97.52338 126.536585-97.52338h7.192349a2.681893 2.681893 0 0 0 2.072372-0.731425 3.535223 3.535223 0 0 0 0.975234-2.438085V355.355326a57.660698 57.660698 0 0 1 43.154096-55.710231l330.238545-85.332957a57.782603 57.782603 0 0 1 72.167301 55.710231v364.12792c-2.681893 52.784529-58.148315 93.744349-126.292777 93.744349s-126.536585-43.519808-126.536585-97.52338 56.685465-97.52338 126.536585-97.52338h7.070445a2.194276 2.194276 0 0 0 2.072372-0.85333 3.291414 3.291414 0 0 0 1.097138-2.438084v-43.885521l-213.332394 54.369284v183.709667c-2.803797 52.784529-58.27022 93.622445-126.414681 93.622445z m0-168.471639c-55.832135 0-101.180507 32.060811-101.180507 71.55778s45.348372 71.923493 101.180507 71.923493c53.759763 0 99.108135-30.963673 101.058603-69.119696V537.480238a21.94276 21.94276 0 0 1 16.578974-21.333239l219.427605-54.856901A21.94276 21.94276 0 0 1 694.854082 482.623337v48.152169a28.769397 28.769397 0 0 1-8.777104 20.723718 27.794163 27.794163 0 0 1-20.723718 7.801871h-5.973307c-55.832135 0-101.302411 32.182715-101.302411 71.679684s45.470276 71.55778 101.302411 71.55778c53.759763 0 99.108135-30.963673 101.058602-68.997792V269.900464a32.30462 32.30462 0 0 0-40.472202-31.207481L390.09352 324.147845a32.060811 32.060811 0 0 0-24.380845 31.207481V620.497015a28.891301 28.891301 0 0 1-8.899009 20.723719 27.672259 27.672259 0 0 1-20.601814 7.80187zM445.681846 475.430988a14.506603 14.506603 0 0 1-14.384698-14.384699v-53.028338a21.820856 21.820856 0 0 1 16.700879-21.333239l217.233329-53.028338a24.380845 24.380845 0 0 1 29.622726 23.161803v40.472203a20.967527 20.967527 0 0 1-16.091358 20.479909L449.217069 475.430988a17.432304 17.432304 0 0 1-3.535223 0z m10.971381-14.384699z m0-50.590253v36.571267l212.966681-53.150242v-35.352225z" fill="#4FC234" p-id="55139"></path></svg>