<?xml version="1.0" standalone="no"?><!DOCTYPE svg PUBLIC "-//W3C//DTD SVG 1.1//EN" "http://www.w3.org/Graphics/SVG/1.1/DTD/svg11.dtd"><svg t="1633786911676" class="icon" viewBox="0 0 1024 1024" version="1.1" xmlns="http://www.w3.org/2000/svg" p-id="49462" xmlns:xlink="http://www.w3.org/1999/xlink" width="300" height="300"><defs><style type="text/css"></style></defs><path d="M451.307209 387.704088a183.028984 183.028984 0 0 0 177.544695 138.350315 36.561922 36.561922 0 1 1 0 73.123845 255.933457 255.933457 0 0 1-175.716599-69.687024v318.600592a175.643476 175.643476 0 1 1-73.123845-142.664621V408.910003l0.219371-3.656192-0.95061-6.288651a36.561922 36.561922 0 0 1 72.026988-11.261072z m-173.81538 357.941221a102.446507 102.446507 0 1 0 0 204.893014 102.446507 102.446507 0 0 0 0-204.893014zM493.499667 0.001462c131.769169 0 255.640962 51.332939 348.800741 144.492718a490.149133 490.149133 0 0 1 144.565841 348.80074 493.000963 493.000963 0 0 1-245.184252 426.531388l-0.365619-0.658115a32.101368 32.101368 0 0 1-26.105213 2.924954l-6.288651-2.85183a32.247616 32.247616 0 0 1 0-55.939741h-0.146247l-0.365619-0.511867a429.23697 429.23697 0 0 0 212.351645-369.421665A427.774493 427.774493 0 0 0 493.499667 66.032294a427.774493 427.774493 0 0 0-416.952164 521.226767l-0.731238 0.073124a32.247616 32.247616 0 0 1-63.032754 14.186026l-0.731239 0.146248A495.99904 495.99904 0 0 1 0.133085 493.368044c0-131.769169 51.332939-255.714086 144.492718-348.80074A490.149133 490.149133 0 0 1 493.426543 0.001462zM490.062847 132.063126a357.721849 357.721849 0 0 1 357.35623 357.356231 357.136859 357.136859 0 0 1-177.544696 308.875121 39.486876 39.486876 0 0 1-16.452865 3.875564 32.247616 32.247616 0 0 1-16.233493-60.180925l-0.584991-0.731238a292.568504 292.568504 0 0 0 144.785213-251.838522 291.617894 291.617894 0 0 0-291.325398-291.325399 291.617894 291.617894 0 0 0-284.232386 355.381887l-1.023734 0.219371a32.028244 32.028244 0 0 1-62.082144 13.893531l-1.316229 0.292495a357.721849 357.721849 0 0 1 348.727616-435.818116z" fill="#705BEF" p-id="49463"></path></svg>