<?xml version="1.0" standalone="no"?><!DOCTYPE svg PUBLIC "-//W3C//DTD SVG 1.1//EN" "http://www.w3.org/Graphics/SVG/1.1/DTD/svg11.dtd"><svg t="1633786887777" class="icon" viewBox="0 0 1024 1024" version="1.1" xmlns="http://www.w3.org/2000/svg" p-id="47237" xmlns:xlink="http://www.w3.org/1999/xlink" width="300" height="300"><defs><style type="text/css"></style></defs><path d="M512 0C229.632 0 0.6656 228.9152 0.6656 511.3344c0 282.368 228.9152 511.3344 511.3344 511.3344 282.368 0 511.3344-228.9152 511.3344-511.3344C1023.3344 228.9152 794.368 0 512 0z m18.7392 812.8512c-111.4624 0-201.728-59.2896-201.728-132.4544 0-73.1648 90.3168-132.4544 201.728-132.4544 23.7056 0 46.4896 2.7136 67.6352 7.68-35.2256-70.7584-86.016-171.0592-152.5248-298.496-5.5296-10.6496-6.4-23.3984-1.2288-34.2016a37.34528 37.34528 0 0 1 43.264-20.224c85.1968 22.2208 121.344 2.8672 136.3456-14.0288 8.8576-9.9328 22.1184-14.848 35.072-11.9808l2.4064 0.5632c26.9312 5.888 37.5296 38.4 19.6096 59.2896a132.54656 132.54656 0 0 1-31.0272 26.5216c-28.3648 17.6128-63.3856 25.6512-104.6016 24.0128 103.7312 200.3456 177.9712 354.4576 178.4832 355.584 5.12 11.008 8.3968 29.696 8.3968 37.888-0.1024 73.0112-90.4704 132.3008-201.8304 132.3008z m0 0" fill="#9191E2" p-id="47238"></path><path d="M416.3584 680.704c0 33.9968 51.2 61.5424 114.3808 61.5424S645.12 714.7008 645.12 680.704c0-21.9648-21.8112-42.2912-57.1904-53.2992-35.3792-11.008-79.0016-11.008-114.3808 0s-57.1904 31.2832-57.1904 53.2992z m0 0" fill="#9191E2" p-id="47239"></path></svg>