<?xml version="1.0" standalone="no"?><!DOCTYPE svg PUBLIC "-//W3C//DTD SVG 1.1//EN" "http://www.w3.org/Graphics/SVG/1.1/DTD/svg11.dtd"><svg t="1633786864143" class="icon" viewBox="0 0 1024 1024" version="1.1" xmlns="http://www.w3.org/2000/svg" p-id="46101" xmlns:xlink="http://www.w3.org/1999/xlink" width="300" height="300"><defs><style type="text/css"></style></defs><path d="M297.8 64.6h404.5L937 299.4V765c0 107.4-89.4 194.5-199.8 194.5H297.8C187.4 959.6 98 872.5 98 765V259.2c0-107.5 89.4-194.6 199.8-194.6z" fill="#641CFF" p-id="46102"></path><path d="M937.4 299H788c-47.2 0-85.4-38.2-85.4-85.4V64.2" fill="#9462FF" p-id="46103"></path><path d="M681.8 327.6c-0.9 0-1.7 0.2-2.5 0.3l-0.1-0.1-271.1 41.7-0.1 0.1c-10 1.5-17.8 10.1-17.8 20.5v275.1c0 24.8-2.9 37.3-52 37.3-54.3 0-73 31.7-73 62.6 0 25.2 14.7 62.5 72.9 62.5 65.2 0 93.7-39.9 93.7-75.3V482.6L661 445.2v178.4c0 24.8-2.9 37.3-52 37.3-54.3 0-73 31.7-73 62.6 0 25.2 14.7 62.5 72.9 62.5 65.2 0 93.7-43.9 93.7-79.2V348.5c0-11.6-9.3-20.9-20.8-20.9z" fill="#FAFAFA" p-id="46104"></path></svg>