<?xml version="1.0" standalone="no"?><!DOCTYPE svg PUBLIC "-//W3C//DTD SVG 1.1//EN" "http://www.w3.org/Graphics/SVG/1.1/DTD/svg11.dtd"><svg t="1633786853032" class="icon" viewBox="0 0 1024 1024" version="1.1" xmlns="http://www.w3.org/2000/svg" p-id="45801" data-spm-anchor-id="a313x.7781069.0.i116" xmlns:xlink="http://www.w3.org/1999/xlink" width="300" height="300"><defs><style type="text/css"></style></defs><path d="M767.253288 39.758885a33.112972 33.112972 0 0 0-16.731379-35.444871 34.978491 34.978491 0 0 0-46.637988 12.767149L407.266313 530.50712a238.611609 238.611609 0 0 0-102.953359-107.850349c-102.428682-56.315371-222.638098-36.960606-268.984599 43.256735S34.687082 656.721176 136.591087 713.036548s222.754693 36.902308 268.868004-43.198437c1.16595-2.040412 2.098709-4.197419 3.148065-6.121236s2.623387-3.497849 3.847634-5.363369l247.589421-429.069495C769.701782 365.466938 949.957608 314.456638 949.957608 314.456638c-187.426417-51.068597-184.977922-239.019691-182.70432-274.697753" fill="#4043E3" p-id="45802"></path><path d="M889.38652 413.912148c-124.698322 13.641612-204.0412-49.61116-204.0412-49.61116s-190.749373 342.847513-231.674208 397.297365c-25.650894 33.987434-89.311748 66.808919-124.814917 72.055692a359.520594 359.520594 0 0 0 319.062139 190.341291c198.211451 0 358.879322-156.936831 358.879322-350.601079A346.520255 346.520255 0 0 0 889.38652 413.912148m-241.468186 365.525236a105.984829 105.984829 0 1 1 108.549919-106.043127 107.383969 107.383969 0 0 1-108.549919 106.043127M874.170876 891.951531l-120.151118-121.72515a149.066671 149.066671 0 0 0 24.251754-34.978491l150.873893 82.607537A227.360194 227.360194 0 0 1 874.170876 891.951531" fill="#FDB2B8" p-id="45803"></path></svg>