<?xml version="1.0" standalone="no"?><!DOCTYPE svg PUBLIC "-//W3C//DTD SVG 1.1//EN" "http://www.w3.org/Graphics/SVG/1.1/DTD/svg11.dtd"><svg t="1633787154940" class="icon" viewBox="0 0 1024 1024" version="1.1" xmlns="http://www.w3.org/2000/svg" p-id="65950" xmlns:xlink="http://www.w3.org/1999/xlink" width="300" height="300"><defs><style type="text/css"></style></defs><path d="M508.58583291 626.03317399m-357.12185383 0a357.12185503 357.12185503 0 1 0 714.24370886 0 357.12185503 357.12185503 0 1 0-714.24370886 0Z" fill="#F0F440" p-id="65951"></path><path d="M744.16334681 582.3318371c-21.1678343-51.89533696-78.52583837-81.94000547-147.49200839-84.67133842l-64.86916998-303.86085099c-4.77983418-23.21633431-27.9961685-38.23866858-51.21250403-33.4588356-23.21633431 4.77983418-38.23866858 27.9961685-33.45883439 51.2125028l62.82066996 296.34968508c-13.65666717 3.41416709-27.31333556 8.19400006-40.97000273 13.65666718-118.13017403 47.79833571-187.09634404 152.95467551-153.63750844 234.89468097s155.68600966 109.25333982 274.49901541 61.45500289c118.81300697-48.48116987 187.77917819-153.63750965 154.32034259-235.57751391z" fill="#5CF241" p-id="65952"></path><path d="M421.86068726 247.75763073a94.9138385 173.43967687 60 1 0 300.40633193-173.43967687 94.9138385 173.43967687 60 1 0-300.40633193 173.43967687Z" fill="#5CF241" p-id="65953"></path></svg>