<?xml version="1.0" standalone="no"?><!DOCTYPE svg PUBLIC "-//W3C//DTD SVG 1.1//EN" "http://www.w3.org/Graphics/SVG/1.1/DTD/svg11.dtd"><svg t="1633786826412" class="icon" viewBox="0 0 1024 1024" version="1.1" xmlns="http://www.w3.org/2000/svg" p-id="44330" xmlns:xlink="http://www.w3.org/1999/xlink" width="300" height="300"><defs><style type="text/css"></style></defs><path d="M169.3 512.1a342.8 342.8 0 1 0 685.6 0 342.8 342.8 0 1 0-685.6 0z" fill="#75AFCC" p-id="44331"></path><path d="M960.1 512.1c0 247.4-200.6 448-448 448s-448-200.6-448-448 200.6-448 448-448 448 200.6 448 448z" fill="#33CCFF" p-id="44332"></path><path d="M659.5 585.1l0.1-291c0-3-1.3-5.8-3.6-7.7-2.3-1.9-5.3-2.8-8.2-2.2l-246.3 43.7c-4.8 0.8-8.3 5-8.3 9.9l-0.2 273.9c-16.1-2.8-38.6 3.9-59.2 19.3-29.5 22.1-43.5 53.4-31.1 69.9 12.3 16.5 46.3 11.9 75.8-10.3 25.2-18.9 38.9-44.5 34.7-61.8l0.1-282.5 226.1-40.1-0.1 261.8c-16.1-2.8-38.6 3.9-59.2 19.3-29.5 22.1-43.5 53.4-31.1 69.9 12.3 16.5 46.3 11.9 75.8-10.3 25.2-18.9 38.9-44.4 34.7-61.8z" fill="#231815" p-id="44333"></path></svg>