<?xml version="1.0" standalone="no"?><!DOCTYPE svg PUBLIC "-//W3C//DTD SVG 1.1//EN" "http://www.w3.org/Graphics/SVG/1.1/DTD/svg11.dtd"><svg t="1633786829486" class="icon" viewBox="0 0 1024 1024" version="1.1" xmlns="http://www.w3.org/2000/svg" p-id="44481" xmlns:xlink="http://www.w3.org/1999/xlink" width="300" height="300"><defs><style type="text/css"></style></defs><path d="M512 512m-512 0a512 512 0 1 0 1024 0 512 512 0 1 0-1024 0Z" fill="#C20A46" p-id="44482"></path><path d="M695.466667 388.266667c-21.333333 17.066667-46.933333 25.6-76.8 25.6-25.6 0-59.733333-17.066667-68.266667-34.133334v273.066667c0 46.933333-29.866667 89.6-85.333333 106.666667-59.733333 17.066667-123.733333-8.533333-140.8-64-17.066667-51.2 21.333333-110.933333 81.066666-128 25.6-8.533333 51.2-8.533333 72.533334 0 4.266667 0 12.8-4.266667 12.8-8.533334V285.866667c0-8.533333 4.266667-17.066667 8.533333-21.333334 8.533333-4.266667 12.8-8.533333 21.333333-8.533333 12.8 0 21.333333 8.533333 25.6 17.066667 17.066667 51.2 64 85.333333 119.466667 85.333333h17.066667c17.066667 0 25.6 21.333333 12.8 29.866667z" fill="#FFFFFF" p-id="44483"></path></svg>