<?xml version="1.0" standalone="no"?><!DOCTYPE svg PUBLIC "-//W3C//DTD SVG 1.1//EN" "http://www.w3.org/Graphics/SVG/1.1/DTD/svg11.dtd"><svg t="1633786766154" class="icon" viewBox="0 0 1024 1024" version="1.1" xmlns="http://www.w3.org/2000/svg" p-id="39475" xmlns:xlink="http://www.w3.org/1999/xlink" width="300" height="300"><defs><style type="text/css"></style></defs><path d="M967.111111 278.755556V910.222222c0 62.577778-51.2 113.777778-113.777778 113.777778H170.666667c-62.577778 0-113.777778-51.2-113.777778-113.777778V113.777778c0-62.577778 51.2-113.777778 113.777778-113.777778h512l284.444444 278.755556z" fill="#15B9A7" opacity=".15" p-id="39476"></path><path d="M682.666667 170.666667V0l284.444444 278.755556h-170.666667c-62.577778 0-113.777778-45.511111-113.777777-108.088889z" fill="#15B9A7" opacity=".15" p-id="39477"></path><path d="M676.977778 329.955556c-5.688889-5.688889-5.688889-5.688889-11.377778-5.688889L409.6 398.222222c-5.688889 0-11.377778 5.688889-11.377778 17.066667v278.755555c-11.377778-5.688889-22.755556-11.377778-34.133333-11.377777-11.377778 0-17.066667 0-28.444445 5.688889-39.822222 11.377778-68.266667 45.511111-62.577777 73.955555 11.377778 22.755556 34.133333 39.822222 68.266666 39.822222 11.377778 0 17.066667 0 28.444445-5.688889 39.822222-11.377778 62.577778-39.822222 62.577778-62.577777V546.133333l227.555555-62.577777v136.533333c-11.377778-5.688889-22.755556-5.688889-34.133333-5.688889-11.377778 0-17.066667 0-28.444445 5.688889-39.822222 11.377778-68.266667 45.511111-62.577777 73.955555 5.688889 22.755556 28.444444 39.822222 62.577777 39.822223 11.377778 0 17.066667 0 28.444445-5.688889 34.133333-11.377778 62.577778-34.133333 62.577778-62.577778V466.488889 341.333333l-11.377778-11.377777z m-22.755556 113.777777l-227.555555 62.577778V455.111111l227.555555-62.577778v51.2z" fill="#15B9A7" p-id="39478"></path></svg>