<?xml version="1.0" standalone="no"?><!DOCTYPE svg PUBLIC "-//W3C//DTD SVG 1.1//EN" "http://www.w3.org/Graphics/SVG/1.1/DTD/svg11.dtd"><svg t="1633786714392" class="icon" viewBox="0 0 1024 1024" version="1.1" xmlns="http://www.w3.org/2000/svg" p-id="34729" xmlns:xlink="http://www.w3.org/1999/xlink" width="300" height="300"><defs><style type="text/css"></style></defs><path d="M331.4688 278.3744v530.176a154.7776 154.7776 0 1 1-73.8304-122.88V140.288c0-56.4736 45.4656-102.2976 102.2464-102.2976h488.448c56.4736 0 102.2976 45.4656 102.2976 102.2976v680.2432a154.7776 154.7776 0 1 1-77.2096-136.6016v-405.504H331.4688z m541.952 531.7632a77.9776 77.9776 0 1 0 0.3584 10.3424h-0.3584v-10.3424zM176.9472 895.744a77.9776 77.9776 0 1 0 0-155.904 77.9776 77.9776 0 0 0 0 155.904z" fill="#1A8FE0" p-id="34730"></path><path d="M732.8768 509.6448l-234.496 135.0656V371.0976z" fill="#1A8FE0" opacity=".46" p-id="34731"></path></svg>