<?xml version="1.0" standalone="no"?><!DOCTYPE svg PUBLIC "-//W3C//DTD SVG 1.1//EN" "http://www.w3.org/Graphics/SVG/1.1/DTD/svg11.dtd"><svg t="1633786710055" class="icon" viewBox="0 0 1024 1024" version="1.1" xmlns="http://www.w3.org/2000/svg" p-id="34585" xmlns:xlink="http://www.w3.org/1999/xlink" width="300" height="300"><defs><style type="text/css"></style></defs><path d="M328.192 0h367.616c114.13504 0 155.52512 11.85792 197.25312 34.17088a232.62208 232.62208 0 0 1 96.768 96.768C1012.13184 172.67712 1024 214.05696 1024 328.192v367.616c0 114.13504-11.85792 155.52512-34.18112 197.25312a232.62208 232.62208 0 0 1-96.768 96.768C851.34336 1012.13184 809.95328 1024 695.808 1024h-367.616c-114.13504 0-155.51488-11.85792-197.24288-34.18112a232.62208 232.62208 0 0 1-96.768-96.80896C11.84768 851.33312 0 809.94304 0 695.808v-367.616c0-114.13504 11.85792-155.51488 34.17088-197.24288a232.62208 232.62208 0 0 1 96.8192-96.768C172.66688 11.84768 214.05696 0 328.192 0z m469.9648 233.87136c-22.9376 0-41.55392 63.17056-41.55392 153.1904 0 90.0096 18.60608 172.7488 41.55392 172.7488 22.9376 0 41.5232-82.7392 41.5232-172.7488 0-90.01984-18.5856-153.1904-41.5232-153.1904z m-572.27264 0c-22.95808 0-41.56416 63.17056-41.56416 153.1904 0 90.0096 18.60608 172.7488 41.5744 172.7488 22.96832 0 41.5744-82.7392 41.5744-172.7488 0-90.01984-18.60608-153.1904-41.5744-153.1904z m438.54848-80.67072c-31.4368 0-56.9344 115.6096-56.9344 282.35776 0 166.74816 25.4976 321.47456 56.9344 321.47456 31.4368 0 56.94464-154.7264 56.94464-321.47456s-25.4976-282.35776-56.9344-282.35776z m-304.7936 0c-31.4368 0-56.9344 115.6096-56.9344 282.35776 0 166.74816 25.4976 321.47456 56.9344 321.47456 31.4368 0 56.94464-154.7264 56.94464-321.47456s-25.4976-282.35776-56.9344-282.35776z m222.7712 324.8128C582.41024 265.9328 550.89152 133.12 512.04096 133.12c-38.8608 0-70.3488 132.80256-70.3488 344.90368 0 212.0704 31.488 423.09632 70.3488 423.09632 38.85056 0 70.36928-211.01568 70.36928-423.09632z" fill="#FFFFFF" p-id="34586"></path><path d="M798.1568 233.87136c-22.9376 0-41.55392 63.17056-41.55392 153.1904 0 90.0096 18.60608 172.7488 41.55392 172.7488 22.9376 0 41.5232-82.7392 41.5232-172.7488 0-90.01984-18.5856-153.1904-41.5232-153.1904m-572.27264 0c-22.95808 0-41.56416 63.17056-41.56416 153.1904 0 90.0096 18.60608 172.7488 41.5744 172.7488 22.96832 0 41.5744-82.7392 41.5744-172.7488 0-90.01984-18.60608-153.1904-41.5744-153.1904m438.53824-80.67072c-31.4368 0-56.9344 115.6096-56.9344 282.35776 0 166.74816 25.4976 321.47456 56.9344 321.47456 31.4368 0 56.94464-154.7264 56.94464-321.47456s-25.4976-282.35776-56.9344-282.35776m-304.80384 0c-31.4368 0-56.9344 115.6096-56.9344 282.35776 0 166.74816 25.4976 321.47456 56.9344 321.47456 31.4368 0 56.94464-154.7264 56.94464-321.47456s-25.4976-282.35776-56.9344-282.35776m222.76096 324.8128C582.41024 690.11456 550.89152 901.12 512.04096 901.12c-38.8608 0-70.3488-211.01568-70.3488-423.09632 0-212.10112 31.488-344.90368 70.3488-344.90368 38.85056 0 70.36928 132.80256 70.36928 344.90368" fill="#FF0F50" p-id="34587"></path></svg>