<?xml version="1.0" standalone="no"?><!DOCTYPE svg PUBLIC "-//W3C//DTD SVG 1.1//EN" "http://www.w3.org/Graphics/SVG/1.1/DTD/svg11.dtd"><svg t="1633786698605" class="icon" viewBox="0 0 1024 1024" version="1.1" xmlns="http://www.w3.org/2000/svg" p-id="33271" xmlns:xlink="http://www.w3.org/1999/xlink" width="300" height="300"><defs><style type="text/css"></style></defs><path d="M748.384 194.442667l-284.181333 84.8c-34.528 9.6-62.293333 44.416-62.293334 77.994666v292s-20.917333-13.610667-66.581333-7.178666C267.914667 651.264 213.333333 701.685333 213.333333 754.485333c0 52.778667 54.592 85.141333 121.994667 75.968 67.402667-9.184 116.928-58.005333 116.928-110.826666V470.08c0-23.210667 28.565333-33.205333 28.565333-33.205333l251.36-76.810667s28.149333-9.205333 28.149334 15.978667v200.010666s-25.632-13.973333-71.658667-8.789333c-67.402667 8-122.069333 57.237333-122.069333 110.016 0 52.832 54.666667 86.432 122.069333 78.4C756.053333 747.733333 810.666667 698.517333 810.666667 645.685333V238.037333c0-33.6-27.754667-53.194667-62.282667-43.594666z" fill="#FF437B" p-id="33272"></path></svg>