<?xml version="1.0" standalone="no"?><!DOCTYPE svg PUBLIC "-//W3C//DTD SVG 1.1//EN" "http://www.w3.org/Graphics/SVG/1.1/DTD/svg11.dtd"><svg t="1633786691329" class="icon" viewBox="0 0 1024 1024" version="1.1" xmlns="http://www.w3.org/2000/svg" p-id="33126" xmlns:xlink="http://www.w3.org/1999/xlink" width="300" height="300"><defs><style type="text/css"></style></defs><path d="M944.64 329.216c-23.552-55.808-57.344-105.984-100.864-149.504-43.008-43.008-93.184-76.8-149.504-100.864-57.856-24.576-119.296-36.864-182.784-36.864s-124.928 12.288-182.784 36.864C272.896 102.4 222.72 136.192 179.2 179.712c-43.008 43.008-76.8 93.184-100.864 149.504-23.552 57.856-35.84 119.296-35.84 182.784s12.288 124.928 36.864 182.784c23.552 55.808 57.344 105.984 100.864 149.504 43.008 43.008 93.184 76.8 149.504 100.864 57.856 24.576 119.296 36.864 182.784 36.864s124.928-12.288 182.784-36.864c55.808-23.552 105.984-57.344 149.504-100.864 43.008-43.008 76.8-93.184 100.864-149.504 24.576-57.856 36.864-119.296 36.864-182.784s-13.312-124.928-37.888-182.784zM803.84 528.384c-6.656 16.384-22.016 40.96-37.888 56.32-17.92 16.384-26.112 23.04-43.52 26.112-9.216 1.536 9.216-20.992 15.36-27.648 24.064-26.624 34.816-70.656 31.744-105.984-5.12-55.808-71.168-132.608-118.272-142.848L573.44 650.752c-19.456 77.824-29.696 109.056-62.464 138.24-80.384 70.656-200.192 78.336-233.472-13.312-6.144-17.408-12.8-49.152 0-75.264 38.912-79.872 161.28-111.104 243.712-45.568l125.44-509.44 39.424 9.728c-18.432 141.312 186.368 198.144 117.76 373.248z" fill="#FF8888" p-id="33127"></path></svg>