<?xml version="1.0" standalone="no"?><!DOCTYPE svg PUBLIC "-//W3C//DTD SVG 1.1//EN" "http://www.w3.org/Graphics/SVG/1.1/DTD/svg11.dtd"><svg t="1633787127016" class="icon" viewBox="0 0 1024 1024" version="1.1" xmlns="http://www.w3.org/2000/svg" p-id="64753" xmlns:xlink="http://www.w3.org/1999/xlink" width="300" height="300"><defs><style type="text/css"></style></defs><path d="M162.2 916.4c-28.7 0-52.1-23.4-52.1-52.1V162.1c0-28.7 23.4-52.1 52.1-52.1h702.2c28.7 0 52.1 23.4 52.1 52.1v702.2c0 28.7-23.4 52.1-52.1 52.1H162.2z" fill="#F7D7FF" p-id="64754"></path><path d="M864.5 119c23.8 0 43.1 19.3 43.1 43.1v702.2c0 23.8-19.3 43.1-43.1 43.1H162.2c-23.8 0-43.1-19.3-43.1-43.1V162.1c0-23.8 19.3-43.1 43.1-43.1h702.3m0-18H162.2c-33.7 0-61.1 27.4-61.1 61.1v702.2c0 33.7 27.4 61.1 61.1 61.1h702.2c33.7 0 61.1-27.4 61.1-61.1V162.1c0.1-33.7-27.4-61.1-61-61.1z" fill="#330867" p-id="64755"></path><path d="M864.5 149c7.2 0 13.1 5.9 13.1 13.1v702.2c0 7.2-5.9 13.1-13.1 13.1H162.2c-7.2 0-13.1-5.9-13.1-13.1V162.1c0-7.2 5.9-13.1 13.1-13.1h702.3m0-30H162.2c-23.8 0-43.1 19.3-43.1 43.1v702.2c0 23.8 19.3 43.1 43.1 43.1h702.2c23.8 0 43.1-19.3 43.1-43.1V162.1c0.1-23.8-19.2-43.1-43-43.1z" fill="#F0BEFC" p-id="64756"></path><path d="M209.1 513.2a304.2 304.2 0 1 0 608.4 0 304.2 304.2 0 1 0-608.4 0z" fill="#FFE08A" p-id="64757"></path><path d="M513.3 826.4c-83.6 0-162.3-32.6-221.4-91.7-59.1-59.1-91.7-137.8-91.7-221.4s32.6-162.3 91.7-221.4 137.8-91.7 221.4-91.7 162.3 32.6 221.4 91.7c59.1 59.1 91.7 137.8 91.7 221.4s-32.6 162.3-91.7 221.4c-59.1 59.1-137.7 91.7-221.4 91.7z m0-608.3c-162.8 0-295.2 132.4-295.2 295.2 0 162.8 132.4 295.2 295.2 295.2 162.8 0 295.2-132.4 295.2-295.2 0-162.8-132.4-295.2-295.2-295.2z" fill="#330867" p-id="64758"></path><path d="M285.4 567.8c-4.2 0-8-3-8.8-7.2-3.1-15.5-4.6-31.4-4.6-47.3 0-34.8 7.2-68.3 21.5-99.7 13.8-30.3 33.3-57.1 58.2-79.5 3.7-3.3 9.4-3 12.7 0.6 3.3 3.7 3 9.4-0.6 12.7-47 42.3-73.8 102.7-73.8 165.8 0 14.7 1.4 29.5 4.3 43.8 1 4.9-2.2 9.6-7.1 10.6-0.6 0.1-1.2 0.2-1.8 0.2z" fill="#330867" p-id="64759"></path><path d="M403.6 513.2a109.7 109.7 0 1 0 219.4 0 109.7 109.7 0 1 0-219.4 0z" fill="#FC6B79" p-id="64760"></path><path d="M513.3 631.9c-65.4 0-118.7-53.2-118.7-118.7 0-65.4 53.2-118.7 118.7-118.7 65.4 0 118.7 53.2 118.7 118.7s-53.2 118.7-118.7 118.7z m0-219.4c-55.5 0-100.7 45.2-100.7 100.7s45.2 100.7 100.7 100.7S614 568.7 614 513.2s-45.2-100.7-100.7-100.7zM257.8 850.2h-62.7c-11 0-20-9-20-20s9-20 20-20h62.7c11 0 20 9 20 20s-9 20-20 20z m487.1-233.1c-5 0-9-4-9-9V229.6c0-5 4-9 9-9s9 4 9 9v378.6c0 4.9-4 8.9-9 8.9z" fill="#330867" p-id="64761"></path><path d="M712.4 659c-5.3 0-10.7-2.1-14.6-6.3-7.6-8.1-7.1-20.7 0.9-28.3l29.9-28c8.1-7.6 20.7-7.1 28.3 0.9 7.6 8.1 7.1 20.7-0.9 28.3l-29.9 28c-3.9 3.6-8.8 5.4-13.7 5.4z" fill="#330867" p-id="64762"></path><path d="M744.9 220.4a37 37 0 1 0 74 0 37 37 0 1 0-74 0z" fill="#66C1FF" p-id="64763"></path><path d="M781.9 266.4c-25.4 0-46-20.6-46-46s20.6-46 46-46 46 20.6 46 46-20.6 46-46 46z m0-74c-15.4 0-28 12.6-28 28s12.5 28 28 28 28-12.6 28-28-12.6-28-28-28z" fill="#330867" p-id="64764"></path><path d="M563.4 506.8c4.9 2.8 4.9 10 0 12.8l-34.9 20.2-35 20.2c-4.9 2.8-11.1-0.7-11.1-6.4V473c0-5.7 6.2-9.2 11.1-6.4l34.9 20.2 35 20z" fill="#DD365E" p-id="64765"></path><path d="M489.8 564c-1.8 0-3.6-0.5-5.2-1.4-3.3-1.9-5.2-5.2-5.2-9v-80.7c0-3.8 1.9-7.1 5.2-9 3.3-1.9 7.1-1.9 10.4 0l69.8 40.3c3.3 1.9 5.2 5.2 5.2 9s-1.9 7.1-5.2 9L495 562.6c-1.6 0.9-3.4 1.4-5.2 1.4z m0-95.5c-0.8 0-1.5 0.2-2.2 0.6-1.4 0.8-2.2 2.2-2.2 3.8v80.7c0 1.6 0.8 3 2.2 3.8 1.4 0.8 3 0.8 4.4 0l69.8-40.3c1.4-0.8 2.2-2.2 2.2-3.8 0-1.6-0.8-3-2.2-3.8L492 469.1c-0.7-0.4-1.4-0.6-2.2-0.6z" fill="#330867" p-id="64766"></path></svg>