<?xml version="1.0" standalone="no"?><!DOCTYPE svg PUBLIC "-//W3C//DTD SVG 1.1//EN" "http://www.w3.org/Graphics/SVG/1.1/DTD/svg11.dtd"><svg t="1633786659795" class="icon" viewBox="0 0 1024 1024" version="1.1" xmlns="http://www.w3.org/2000/svg" p-id="31058" xmlns:xlink="http://www.w3.org/1999/xlink" width="300" height="300"><defs><style type="text/css"></style></defs><path d="M509.521248 0a512.826251 512.826251 0 0 0-509.521248 509.521248 512.826251 512.826251 0 0 0 509.521248 509.521248 512.826251 512.826251 0 0 0 509.521248-509.521248 512.826251 512.826251 0 0 0-509.521248-509.521248z m0 1005.271651a495.750403 495.750403 0 1 1 495.750403-495.750403 495.750403 495.750403 0 0 1-495.750403 495.750403z" fill="#188BEE" p-id="31059"></path><path d="M709.198494 604.12695V285.331899a31.948359 31.948359 0 0 0-38.696073-31.122109l-265.7773 57.699839a31.810651 31.810651 0 0 0-25.062937 31.122108v272.938139a119.944056 119.944056 0 0 0-47.096288 2.754169c-50.263583 13.770845-82.625067 53.706294-71.470684 90.612157s60.040882 56.185046 110.166757 43.102744c41.312534-10.878967 70.782141-41.312534 73.398601-71.608392a27.541689 27.541689 0 0 0 0.826251-6.747714V435.434104l197.611619-44.066702v155.197418a123.937601 123.937601 0 0 0-46.270038 2.891877c-50.263583 13.770845-82.625067 53.844002-71.608391 90.749866s60.178591 56.185046 110.166756 42.965035c45.306079-11.842926 75.739645-45.581495 73.811727-79.044648z m-68.854223-244.570199l-194.719742 43.791286v-36.079613l197.611619-42.827327v35.115654a11.705218 11.705218 0 0 0-2.203335 0z" fill="#188BEE" p-id="31060"></path></svg>