<?xml version="1.0" standalone="no"?><!DOCTYPE svg PUBLIC "-//W3C//DTD SVG 1.1//EN" "http://www.w3.org/Graphics/SVG/1.1/DTD/svg11.dtd"><svg t="1633786632271" class="icon" viewBox="0 0 1024 1024" version="1.1" xmlns="http://www.w3.org/2000/svg" p-id="29815" xmlns:xlink="http://www.w3.org/1999/xlink" width="300" height="300"><defs><style type="text/css"></style></defs><path d="M512 0C230.4 0 0 230.4 0 512s230.4 512 512 512 512-230.4 512-512S793.6 0 512 0z m284.16 430.08c-2.56 10.24-5.12 17.92-10.24 25.6-5.12 5.12-10.24 7.68-12.8 7.68-2.56 0-7.68-2.56-7.68-7.68-2.56-7.68-5.12-15.36-5.12-23.04 0-15.36-7.68-30.72-17.92-40.96-12.8-10.24-28.16-15.36-43.52-17.92-20.48-5.12-40.96-12.8-56.32-25.6-15.36-10.24-28.16-23.04-40.96-35.84-10.24-10.24-17.92-12.8-23.04-10.24-5.12 2.56-10.24 10.24-7.68 15.36v381.44c0 12.8-2.56 25.6-5.12 38.4-5.12 15.36-12.8 28.16-23.04 38.4-12.8 12.8-28.16 23.04-43.52 30.72-20.48 10.24-46.08 15.36-69.12 15.36-25.6 2.56-51.2-2.56-74.24-15.36-20.48-10.24-38.4-23.04-51.2-43.52-12.8-15.36-17.92-35.84-17.92-56.32 0-23.04 10.24-43.52 25.6-56.32 15.36-15.36 35.84-28.16 56.32-38.4 17.92-7.68 38.4-10.24 58.88-10.24 17.92 0 33.28 0 51.2 2.56 10.24 2.56 23.04 5.12 33.28 10.24v-199.68-186.88c0-12.8 2.56-23.04 10.24-33.28 7.68-7.68 17.92-15.36 28.16-15.36 2.56 0 12.8 0 17.92 7.68 7.68 7.68 12.8 12.8 17.92 23.04 5.12 10.24 15.36 20.48 23.04 33.28 10.24 12.8 25.6 25.6 38.4 35.84 10.24 10.24 23.04 17.92 35.84 23.04 10.24 5.12 20.48 10.24 30.72 12.8 10.24 5.12 17.92 7.68 28.16 15.36 10.24 7.68 20.48 17.92 30.72 28.16 10.24 10.24 17.92 23.04 20.48 38.4 2.56 7.68 2.56 20.48 2.56 33.28z" fill="#73E6DA" p-id="29816"></path></svg>