<?xml version="1.0" standalone="no"?><!DOCTYPE svg PUBLIC "-//W3C//DTD SVG 1.1//EN" "http://www.w3.org/Graphics/SVG/1.1/DTD/svg11.dtd"><svg t="1633786582869" class="icon" viewBox="0 0 1024 1024" version="1.1" xmlns="http://www.w3.org/2000/svg" p-id="27959" xmlns:xlink="http://www.w3.org/1999/xlink" width="300" height="300"><defs><style type="text/css"></style></defs><path d="M1006.08 138.24c-2.56-10.24-7.68-17.92-10.24-25.6-30.72-58.88-92.16-99.84-158.72-99.84H179.2c-81.92 0-156.16 61.44-174.08 140.8 0 5.12 0 10.24-5.12 12.8v650.24c0 43.52 7.68 89.6 35.84 122.88 33.28 40.96 81.92 69.12 133.12 71.68h192c151.04 0 299.52-2.56 450.56 2.56 33.28 0 64-5.12 92.16-20.48 33.28-15.36 58.88-38.4 76.8-69.12 23.04-35.84 30.72-66.56 30.72-107.52v-181.76-176.64-161.28c7.68-53.76 12.8-107.52-5.12-158.72z m-504.32 619.52h-35.84c-30.72 0-61.44 2.56-89.6-5.12-12.8-2.56-25.6-10.24-38.4-17.92l-23.04-30.72v-5.12-2.56c-15.36-33.28-7.68-76.8 17.92-104.96 20.48-25.6 51.2-30.72 81.92-33.28 20.48-2.56 46.08 5.12 46.08-25.6 0-20.48-10.24-61.44 0-81.92 7.68-15.36 28.16-10.24 40.96-7.68 10.24 0 12.8 5.12 12.8 12.8v289.28c-5.12 5.12-2.56 12.8-12.8 12.8z m189.44 0h-89.6c-10.24 0-17.92 0-23.04-2.56-23.04-5.12-33.28-17.92-43.52-46.08v-71.68-56.32c0-30.72-5.12-25.6 28.16-28.16 15.36 0 20.48 5.12 20.48 20.48v110.08c0 17.92 7.68 28.16 25.6 25.6h53.76c5.12-38.4 2.56-74.24 2.56-112.64 0-48.64 0-48.64 48.64-38.4v199.68c2.56-2.56 2.56-5.12 2.56-7.68v2.56c0 2.56-2.56 2.56-2.56 5.12h-23.04z m243.2-133.12c10.24 33.28 0 64-15.36 92.16-17.92 25.6-40.96 43.52-66.56 51.2-15.36 5.12-30.72 7.68-48.64 7.68-40.96 0-38.4 0-40.96-40.96 0-64 2.56-125.44-2.56-189.44-2.56-17.92-5.12-33.28-7.68-51.2-25.6-104.96-130.56-186.88-243.2-186.88s-217.6 79.36-243.2 186.88c-5.12 15.36-10.24 33.28-7.68 51.2 0 17.92-2.56 35.84-2.56 53.76v158.72c0 5.12 2.56 12.8-7.68 15.36h-2.56c-25.6 0-51.2 0-74.24-5.12-28.16-7.68-46.08-20.48-61.44-43.52l-2.56-2.56c-30.72-40.96-33.28-84.48-12.8-130.56l2.56-2.56c20.48-30.72 46.08-51.2 79.36-58.88 7.68-2.56 10.24-5.12 10.24-12.8 7.68-61.44 30.72-117.76 69.12-163.84l7.68-7.68c0-2.56 0-2.56 2.56-5.12 48.64-46.08 104.96-79.36 171.52-92.16 115.2-20.48 217.6 5.12 304.64 84.48l2.56 2.56c30.72 28.16 51.2 64 69.12 99.84 0 2.56 2.56 5.12 2.56 7.68 7.68 23.04 12.8 48.64 15.36 74.24 0 7.68 5.12 12.8 12.8 15.36 46.08 12.8 74.24 43.52 89.6 87.04v5.12z" fill="#27B5FE" p-id="27960"></path><path d="M404.48 609.28c-28.16 2.56-46.08 23.04-46.08 48.64 0 25.6 20.48 43.52 48.64 46.08 46.08 0 46.08 0 46.08-46.08 0-53.76 0-53.76-48.64-48.64z" fill="#27B5FE" p-id="27961"></path></svg>