<?xml version="1.0" standalone="no"?><!DOCTYPE svg PUBLIC "-//W3C//DTD SVG 1.1//EN" "http://www.w3.org/Graphics/SVG/1.1/DTD/svg11.dtd"><svg t="1633786578689" class="icon" viewBox="0 0 1024 1024" version="1.1" xmlns="http://www.w3.org/2000/svg" p-id="27815" xmlns:xlink="http://www.w3.org/1999/xlink" width="300" height="300"><defs><style type="text/css"></style></defs><path d="M1021.121799 676.057464s0-2.558401 0 0V187.402873c0-46.051218-25.58401-86.985634-56.284822-117.686446-20.467208-20.467208-69.076827-66.518426-99.777639-66.518426C726.905684 3.198001 588.75203 0.6396 453.156777 0.6396h-194.438476C228.017489 0.6396 189.641474-1.918801 158.940662 3.198001c-17.908807 2.558401-38.376015 17.908807-53.726421 28.142411-15.350406 10.233604-30.700812 20.467208-43.492817 33.259213-17.908807 17.908807-33.259213 38.376015-43.492817 61.401624C5.436602 154.14366 7.995003 177.169269 5.436602 205.31168V775.835103c0 40.934416-10.233604 84.427233 10.233604 122.803248 17.908807 33.259213 35.817614 66.518426 69.076827 84.427233 7.675203 2.558401 79.310431 35.817614 79.310431 35.817614v5.116802h690.76827c12.792005 0 40.934416-20.467208 53.726421-25.58401 17.908807-10.233604 35.817614-23.025609 51.16802-38.376015 30.700812-30.700812 53.726421-74.193629 58.843223-117.686446 2.558401-56.284822 2.558401-112.569644 2.558401-166.296065z m-335.150531 63.960025c-12.792005 20.467208-28.142411 40.934416-40.934416 61.401624-20.467208 28.142411-40.934416 53.726421-56.284822 84.427233-17.908807 28.142411-33.259213 40.934416-69.076827 38.376015-56.284822-2.558401-110.011243 0-171.412867 0h-5.116802c0-2.558401 2.558401-5.116802 2.558401-7.675203 10.233604-23.025609 25.58401-40.934416 38.376015-58.843223 46.051218-69.076827 89.544035-135.595253 138.153654-209.788882 0 0 0-2.558401-2.558401-2.558401-28.142411 5.116802-56.284822 7.675203-84.427233 7.675203-12.792005 0-25.58401-2.558401-38.376015-2.558401-23.025609-5.116802-46.051218-10.233604-69.076827-23.025609 0 0-2.558401 0-2.558401-2.558401-2.558401-2.558401-5.116802-2.558401-7.675203-5.116802-89.544035-66.518426-125.361649-173.971268-104.894441-283.982511 0-5.116802 2.558401-10.233604 2.558401-15.350406 10.233604-38.376015 25.58401-74.193629 51.16802-110.011243 5.116802-7.675203 10.233604-12.792005 15.350406-20.467208 10.233604-10.233604 23.025609-20.467208 33.259213-30.700812 2.558401-2.558401 7.675203-5.116802 10.233604-5.116802 15.350406-7.675203 30.700812-17.908807 46.051218-23.025609 58.843223-28.142411 122.803248-30.700812 186.763273-25.58401 10.233604 0 17.908807 2.558401 28.142411 2.558401 56.284822 5.116802 138.153654 46.051218 171.412867 92.102436 0 5.116802 2.558401 5.116802 2.558401 7.675203 115.128045 173.971268 28.142411 373.526546-74.193629 532.147408z" fill="#22AA1A" p-id="27816"></path><path d="M535.025609 266.713304c-63.960025-5.116802-115.128045 23.025609-133.036852 84.427233-20.467208 63.960025 7.675203 140.712055 79.310431 153.50406 35.817614 7.675203 76.75203 7.675203 107.452842-10.233604 38.376015-20.467208 53.726421-74.193629 51.16802-117.686446-7.675203-61.401624-46.051218-104.894441-104.894441-110.011243z" fill="#22AA1A" p-id="27817"></path></svg>