<?xml version="1.0" standalone="no"?><!DOCTYPE svg PUBLIC "-//W3C//DTD SVG 1.1//EN" "http://www.w3.org/Graphics/SVG/1.1/DTD/svg11.dtd"><svg t="1633786557742" class="icon" viewBox="0 0 1024 1024" version="1.1" xmlns="http://www.w3.org/2000/svg" p-id="26815" xmlns:xlink="http://www.w3.org/1999/xlink" width="300" height="300"><defs><style type="text/css"></style></defs><path d="M470.784 587.52a147.712 147.712 0 0 0-82.944 28.416 147.456 147.456 0 0 0-55.552 69.12 64.256 64.256 0 0 0 3.84 59.136 64.256 64.256 0 0 0 52.992 23.808 147.712 147.712 0 0 0 82.944-28.416c51.2-36.096 75.264-94.72 51.2-128a64.256 64.256 0 0 0-52.48-24.064z" fill="#FF4D4D" p-id="26816"></path><path d="M512 0a512 512 0 1 0 512 512A512 512 0 0 0 512 0z m197.888 355.84l-124.672-78.848v370.944a180.992 180.992 0 0 1-82.688 132.608A199.168 199.168 0 0 1 390.4 819.2h-1.536a107.776 107.776 0 0 1-105.728-151.296A198.656 198.656 0 0 1 358.4 573.952a199.168 199.168 0 0 1 112.128-37.632h1.536a128 128 0 0 1 62.72 16.128V183.808l203.264 128z" fill="#FF4D4D" p-id="26817"></path></svg>