<?xml version="1.0" standalone="no"?><!DOCTYPE svg PUBLIC "-//W3C//DTD SVG 1.1//EN" "http://www.w3.org/Graphics/SVG/1.1/DTD/svg11.dtd"><svg t="1633786553457" class="icon" viewBox="0 0 1024 1024" version="1.1" xmlns="http://www.w3.org/2000/svg" p-id="26672" xmlns:xlink="http://www.w3.org/1999/xlink" width="300" height="300"><defs><style type="text/css"></style></defs><path d="M256 0h512c141.38368 0 256 114.61632 256 256v512c0 141.38368-114.61632 256-256 256H256C114.61632 1024 0 909.38368 0 768V256C0 114.61632 114.61632 0 256 0z m76.2368 131.10272c-3.13344 3.2768-4.8128 7.72096-4.63872 12.288-0.08192 60.24192 0 120.48384-0.04096 180.736h-49.0496a45.01504 45.01504 0 0 0-23.31648 6.5536c-15.33952 9.05216-25.1904 27.648-24.7808 46.55104l0.04096 242.55488c0.09216 21.504 13.91616 41.76896 32.70656 48.42496 8.93952 3.50208 18.54464 2.64192 27.82208 2.73408h36.53632V880.64c0 4.68992 1.60768 9.76896 5.14048 12.71808 3.7888 3.072 8.98048 3.328 13.28128 1.4848 8.00768-3.11296 14.12096-9.76896 20.65408-15.44192 27.51488-24.53504 54.9888-49.152 82.56512-73.6768 1.47456-1.37216 2.94912-3.1232 3.072-5.33504 0.17408-2.60096-1.4336-4.74112-2.69312-6.78912l-18.46272-28.20096c-1.47456-2.7648-4.7616-1.57696-6.656-0.04096-16.1792 12.11392-31.6928 25.22112-47.84128 37.376-0.16384-43.95008 0-87.88992-0.04096-131.7888 16.9472-0.09216 33.8944 0.08192 50.83136-0.09216 18.74944-0.47104 36.33152-14.20288 42.98752-33.18784 2.27328-6.31808 3.28704-13.1072 3.24608-19.88608V375.27552c-0.12288-21.03296-13.312-40.96-31.61088-47.95392a45.52704 45.52704 0 0 0-17.36704-3.20512h-48.04608c0-34.304-0.12288-68.5568 0.04096-102.81984 16.14848 12.15488 31.65184 25.25184 47.84128 37.376 1.8944 1.57696 5.18144 2.72384 6.656 0 6.61504-10.24 13.44512-20.35712 19.93728-30.63808a6.9632 6.9632 0 0 0-1.39264-9.25696l-87.92064-78.49984a51.1488 51.1488 0 0 0-16.4352-11.35616 12.6976 12.6976 0 0 0-13.06624 2.18112z m-43.93984 241.09056c2.37568-1.1264 5.0176-0.99328 7.53664-0.99328 12.288 0.09216 24.6272 0 36.9664 0V614.4h-39.8848c-6.06208 0.16384-11.53024-5.39648-11.30496-11.65312v-219.8528c-0.11264-4.5056 2.5088-8.67328 6.72768-10.6496l-0.04096-0.0512z m82.944-0.98304h39.89504c6.05184-0.256 11.47904 5.38624 11.264 11.60192v219.93472c0.21504 6.21568-5.21216 11.85792-11.264 11.64288l-39.936-0.04096V371.21024h0.04096z m102.4-103.55712c-0.08192 9.75872-0.03072 19.5584 0 29.31712-0.12288 6.18496 4.99712 11.68384 10.71104 11.60192 31.232 0.08192 62.48448 0 93.72672 0v523.59168c-0.41984 6.18496 4.13696 12.16512 9.89184 12.50304 7.84384 0.26624 15.64672 0 23.4496 0.13312 3.19488-0.08192 6.6048 0.34816 9.54368-1.42336a12.1856 12.1856 0 0 0 5.79584-11.1616V308.60288c47.73888-0.08192 95.47776 0 143.2576-0.08192 5.75488 0.12288 10.83392-5.376 10.752-11.5712 0.08192-9.45152 0-18.90304 0-28.3648a12.288 12.288 0 0 0-5.21216-10.82368c-3.5328-2.4064-7.92576-1.6384-11.9296-1.72032H485.2736c-6.0416-0.512-11.76576 5.02784-11.63264 11.60192z m224.74752 167.76192a8.4992 8.4992 0 0 0-5.75488 4.99712c-1.88416 4.2496-1.35168 9.04192-1.39264 13.58848V601.1904c0 4.16768 0.73728 9.0112 3.98336 11.71456 3.00032 2.37568 7.0656 1.536 10.21952 0 4.8128-2.29376 8.41728-6.5024 12.35968-10.1376l62.08512-57.088c3.44064-3.1232 7.17824-6.08256 9.56416-10.37312 3.4816-5.75488 5.4272-13.17888 3.20512-19.88608-1.73056-6.00064-6.16448-10.3424-10.63936-13.95712-23.8592-20.92032-47.79008-41.6768-71.60832-62.68928a14.5408 14.5408 0 0 0-12.02176-3.3792z" fill="#FF8500" p-id="26673"></path></svg>