<?xml version="1.0" standalone="no"?><!DOCTYPE svg PUBLIC "-//W3C//DTD SVG 1.1//EN" "http://www.w3.org/Graphics/SVG/1.1/DTD/svg11.dtd"><svg t="1633786519434" class="icon" viewBox="0 0 1024 1024" version="1.1" xmlns="http://www.w3.org/2000/svg" p-id="25936" xmlns:xlink="http://www.w3.org/1999/xlink" width="300" height="300"><defs><style type="text/css"></style></defs><path d="M919.04 824.32s-384 138.24-478.72 161.28c0-7.68-12.8-519.68-12.8-519.68s2.56 0 20.48-5.12c33.28-10.24 401.92-94.72 465.92-110.08 5.12 23.04 5.12 473.6 5.12 473.6zM655.36 555.52l-5.12-2.56v-28.16c-2.56-33.28-25.6-53.76-56.32-51.2-30.72 2.56-56.32 30.72-56.32 66.56 0 51.2 0 102.4 2.56 151.04 2.56 38.4 0 76.8 2.56 117.76 0 43.52 25.6 66.56 61.44 61.44 28.16-2.56 51.2-28.16 51.2-58.88v-51.2c0-20.48 0-23.04 20.48-10.24 33.28 17.92 64 38.4 97.28 53.76 40.96 20.48 84.48-15.36 79.36-58.88-2.56-25.6-23.04-33.28-40.96-43.52L742.4 663.04c-15.36-7.68-15.36-17.92-2.56-28.16 15.36-17.92 33.28-35.84 48.64-53.76 15.36-17.92 33.28-35.84 46.08-53.76 23.04-33.28 7.68-71.68-30.72-81.92-28.16-7.68-48.64 5.12-66.56 25.6-30.72 25.6-56.32 56.32-81.92 84.48z" fill="#FDF09F" p-id="25937"></path><path d="M256 632.32s30.72-5.12 35.84-12.8c33.28-38.4 66.56-74.24 99.84-112.64 7.68-7.68 23.04-35.84 33.28-43.52 10.24-7.68 7.68 0 7.68 10.24 0 7.68 5.12 450.56 7.68 506.88-7.68 5.12-248.32-184.32-248.32-184.32s-15.36-202.24-15.36-207.36c2.56-10.24 17.92 7.68 25.6 10.24 17.92 10.24 35.84 23.04 53.76 33.28zM271.36 396.8c-25.6-15.36-53.76-23.04-79.36-33.28-7.68-2.56-17.92-2.56-20.48-15.36 56.32-10.24 110.08-20.48 166.4-28.16 46.08-7.68 89.6-17.92 135.68-23.04 0 25.6 5.12 51.2 28.16 61.44 35.84 15.36 69.12 10.24 99.84-10.24 25.6-17.92 38.4-46.08 35.84-79.36l17.92-2.56c0 28.16 0 120.32-2.56 143.36-46.08 12.8-212.48 51.2-215.04 51.2-51.2-23.04-115.2-43.52-166.4-64z" fill="#FCB22D" p-id="25938"></path><path d="M634.88 271.36c5.12 33.28-7.68 61.44-35.84 79.36-30.72 23.04-66.56 28.16-99.84 10.24-25.6-12.8-30.72-35.84-28.16-61.44 12.8-40.96 43.52-66.56 87.04-74.24 12.8-2.56 5.12-7.68 0-12.8-23.04-23.04-43.52-46.08-66.56-71.68-10.24-10.24-17.92-17.92-25.6-28.16-15.36-17.92-15.36-35.84 2.56-51.2 7.68-7.68 17.92-12.8 28.16-17.92 25.6-10.24 53.76-20.48 74.24-43.52 5.12 15.36 5.12 28.16 5.12 40.96 0 40.96-10.24 53.76-48.64 61.44-17.92 5.12-15.36 10.24-7.68 23.04 33.28 38.4 64 79.36 97.28 120.32 7.68 7.68 12.8 15.36 17.92 25.6z" fill="#0994CD" p-id="25939"></path><path d="M652.8 409.6c0-51.2 2.56-107.52 2.56-143.36 25.6 2.56 202.24 61.44 263.68 79.36 0 7.68-217.6 53.76-266.24 64z" fill="#FA7A33" p-id="25940"></path><path d="M309.76 222.72c5.12-38.4 10.24-74.24 15.36-110.08 2.56-28.16 15.36-35.84 43.52-28.16 10.24 2.56 17.92 5.12 28.16 10.24 15.36 10.24 33.28 15.36 51.2 17.92-35.84 43.52-43.52 46.08-94.72 20.48L332.8 227.84c-2.56 10.24-5.12 23.04-7.68 33.28-7.68 30.72-28.16 46.08-61.44 43.52-33.28-2.56-61.44-25.6-66.56-51.2-5.12-28.16 12.8-51.2 40.96-56.32 25.6-5.12 48.64 2.56 71.68 25.6z" fill="#0994CD" p-id="25941"></path><path d="M919.04 445.44v-97.28c20.48 30.72 43.52 64 61.44 97.28h-61.44z" fill="#FCB22D" p-id="25942"></path><path d="M655.36 555.52c25.6-30.72 53.76-58.88 79.36-89.6 17.92-20.48 38.4-33.28 66.56-25.6 38.4 10.24 53.76 48.64 30.72 81.92-12.8 20.48-30.72 35.84-46.08 53.76-15.36 17.92-30.72 35.84-48.64 51.2-10.24 12.8-10.24 20.48 2.56 28.16l69.12 38.4c17.92 10.24 38.4 20.48 40.96 43.52 5.12 46.08-38.4 79.36-79.36 58.88-33.28-15.36-66.56-35.84-97.28-53.76-20.48-10.24-20.48-10.24-20.48 10.24v51.2c-2.56 30.72-23.04 56.32-51.2 58.88-38.4 5.12-61.44-17.92-61.44-61.44 0-38.4 0-76.8-2.56-115.2-2.56-51.2-2.56-102.4-2.56-151.04 0-35.84 25.6-64 56.32-66.56 33.28-2.56 56.32 17.92 56.32 51.2v28.16l7.68 7.68z" fill="#FA7A33" p-id="25943"></path><path d="M271.36 632.32c-5.12 5.12-10.24 5.12-15.36 0h15.36z" fill="#FAEF8B" p-id="25944"></path><path d="M166.4 348.16l-133.12 161.28 243.2 135.68 163.84-184.32-273.92-112.64z" fill="#FAEF8B" p-id="25945"></path></svg>