<?xml version="1.0" standalone="no"?><!DOCTYPE svg PUBLIC "-//W3C//DTD SVG 1.1//EN" "http://www.w3.org/Graphics/SVG/1.1/DTD/svg11.dtd"><svg t="1633786516307" class="icon" viewBox="0 0 1024 1024" version="1.1" xmlns="http://www.w3.org/2000/svg" p-id="25788" xmlns:xlink="http://www.w3.org/1999/xlink" width="300" height="300"><defs><style type="text/css"></style></defs><path d="M972.8 51.2c-35.84-33.28-74.24-51.2-122.88-51.2H174.08C102.4 0 33.28 48.64 10.24 115.2 2.56 135.68 0 156.16 0 176.64v673.28c0 76.8 51.2 143.36 117.76 163.84 5.12 2.56 7.68 2.56 12.8 5.12h768c2.56-5.12 7.68-5.12 12.8-7.68 51.2-20.48 87.04-53.76 102.4-107.52 0-2.56 2.56-5.12 7.68-7.68V128c-12.8-28.16-25.6-56.32-48.64-76.8zM176.64 675.84c0 5.12-2.56 10.24-2.56 15.36-17.92 12.8-28.16 12.8-46.08 0-5.12-5.12-10.24-7.68-15.36-12.8-35.84-40.96-38.4-128-10.24-171.52 7.68-10.24 15.36-17.92 28.16-25.6 20.48-10.24 28.16-7.68 46.08 7.68 0 2.56 2.56 7.68 2.56 10.24-2.56 58.88-2.56 117.76-2.56 176.64z m611.84-46.08l-2.56 2.56c-10.24 51.2-33.28 97.28-69.12 135.68-102.4 110.08-289.28 115.2-396.8 7.68-43.52-43.52-69.12-92.16-81.92-151.04-5.12-35.84-2.56-69.12 0-104.96 10.24-46.08 28.16-87.04 58.88-122.88 46.08-56.32 104.96-89.6 176.64-102.4 33.28-2.56 66.56-2.56 97.28 2.56 46.08 12.8 87.04 30.72 122.88 61.44 53.76 46.08 87.04 102.4 97.28 174.08 0 2.56 2.56 5.12 2.56 7.68v2.56c0-2.56 0-2.56 2.56-5.12v2.56c0 2.56 0 2.56-2.56 5.12v53.76c-2.56 7.68-2.56 20.48-5.12 30.72z m10.24 58.88s0 2.56 2.56 2.56c-2.56 0-2.56 0-2.56-2.56z m25.6 17.92c-12.8 2.56-17.92-5.12-23.04-15.36v-97.28c0-38.4 5.12-79.36-2.56-117.76-5.12-71.68-35.84-130.56-87.04-181.76-35.84-35.84-79.36-61.44-130.56-71.68-12.8-5.12-25.6-5.12-38.4-7.68-10.24-2.56-15.36 2.56-15.36 12.8V256c0 23.04-7.68 30.72-30.72 28.16-10.24-5.12-15.36-15.36-12.8-28.16v-23.04c2.56-12.8-2.56-17.92-17.92-15.36-120.32 20.48-220.16 122.88-235.52 245.76-7.68 48.64-2.56 94.72-2.56 143.36 0 30.72 5.12 61.44-2.56 89.6-17.92 12.8-25.6 10.24-40.96-5.12v-33.28c0-56.32 2.56-115.2 0-171.52 5.12-71.68 28.16-138.24 74.24-194.56C368.64 151.04 588.8 128 724.48 248.32c66.56 58.88 104.96 130.56 115.2 217.6v202.24c0 5.12 0 12.8 2.56 17.92-2.56 12.8-7.68 20.48-17.92 20.48z m99.84-43.52c-7.68 12.8-17.92 23.04-28.16 33.28-17.92 10.24-30.72 10.24-43.52-7.68-2.56-66.56-2.56-133.12 0-197.12 17.92-15.36 33.28-15.36 56.32 0 12.8 10.24 23.04 25.6 28.16 43.52 10.24 43.52 7.68 84.48-12.8 128z" fill="#CE046D" p-id="25789"></path><path d="M386.56 481.28c-17.92-5.12-28.16 7.68-35.84 20.48 0 0-2.56 0-2.56 2.56-7.68-10.24-12.8-23.04-28.16-23.04-15.36 0-20.48 10.24-30.72 17.92 0-20.48-15.36-12.8-23.04-15.36-12.8 0-10.24 10.24-10.24 15.36v130.56c0 15.36 5.12 17.92 20.48 17.92 15.36 0 17.92-7.68 17.92-20.48v-81.92c0-7.68 2.56-15.36 10.24-17.92 7.68-2.56 10.24 7.68 12.8 12.8 0 33.28-2.56 66.56 2.56 102.4 2.56 2.56 5.12 2.56 10.24 2.56 25.6 0 25.6 0 25.6-23.04v-74.24c0-7.68 2.56-20.48 12.8-20.48s10.24 10.24 12.8 20.48v87.04c0 10.24 5.12 12.8 15.36 10.24 7.68-2.56 20.48 5.12 20.48-10.24 0-40.96 2.56-81.92-2.56-122.88-5.12-10.24-10.24-25.6-28.16-30.72zM532.48 532.48c0-10.24-2.56-15.36-12.8-15.36-20.48 0-20.48 0-20.48 20.48v33.28c0 10.24 0 20.48-2.56 30.72-2.56 5.12-5.12 10.24-12.8 10.24s-10.24-5.12-10.24-12.8v-15.36-58.88c0-10.24-5.12-12.8-12.8-10.24-10.24 5.12-25.6-2.56-25.6 12.8 0 33.28-2.56 66.56 0 99.84 2.56 12.8 7.68 23.04 20.48 25.6 12.8 2.56 23.04 0 33.28-10.24 2.56-2.56 2.56-5.12 2.56-7.68 5.12 23.04 20.48 15.36 30.72 15.36 12.8 0 7.68-10.24 7.68-17.92 2.56-30.72 2.56-66.56 2.56-99.84zM601.6 570.88c-7.68-2.56-12.8-2.56-20.48-5.12-5.12-2.56-10.24-7.68-5.12-12.8s10.24-5.12 15.36-2.56c2.56 2.56 2.56 5.12 5.12 5.12 10.24 5.12 20.48 2.56 28.16 0 7.68-2.56 2.56-10.24 0-15.36-7.68-15.36-20.48-20.48-35.84-17.92-28.16 0-38.4 10.24-43.52 33.28-5.12 23.04 5.12 40.96 30.72 48.64 7.68 2.56 12.8 2.56 20.48 7.68 7.68 2.56 7.68 7.68 5.12 15.36-5.12 5.12-10.24 7.68-15.36 2.56-2.56-2.56-5.12-7.68-7.68-10.24-10.24-7.68-20.48-2.56-30.72 0-7.68 2.56-2.56 10.24 0 15.36 7.68 20.48 30.72 28.16 53.76 20.48 20.48-5.12 30.72-20.48 30.72-43.52 0-23.04-10.24-35.84-30.72-40.96zM783.36 604.16c-10.24-5.12-20.48-12.8-28.16 2.56-2.56 5.12-5.12 12.8-12.8 10.24-7.68 0-10.24-5.12-10.24-12.8-5.12-12.8-5.12-25.6 0-40.96 5.12-15.36 12.8-17.92 23.04-5.12 7.68 10.24 15.36 2.56 23.04 0 7.68 0 5.12-7.68 2.56-12.8-5.12-15.36-12.8-28.16-30.72-30.72-20.48-2.56-33.28 2.56-43.52 23.04-12.8 25.6-10.24 53.76-2.56 81.92 2.56 12.8 10.24 23.04 23.04 28.16 12.8 2.56 25.6 2.56 35.84-2.56l15.36-23.04v-2.56c2.56-5.12 10.24-10.24 5.12-15.36zM657.92 519.68c-7.68-2.56-12.8 2.56-12.8 10.24v112.64c10.24 10.24 20.48 5.12 30.72 2.56 5.12-40.96 2.56-79.36 2.56-120.32 0-12.8-12.8-5.12-20.48-5.12z m17.92 35.84c0 2.56 0 2.56 0 0zM663.04 468.48c-12.8 0-17.92 5.12-17.92 17.92 0 10.24 0 20.48 15.36 17.92 15.36 2.56 17.92-2.56 17.92-17.92 2.56-12.8 0-17.92-15.36-17.92z" fill="#CE046D" p-id="25790"></path></svg>