<?xml version="1.0" standalone="no"?><!DOCTYPE svg PUBLIC "-//W3C//DTD SVG 1.1//EN" "http://www.w3.org/Graphics/SVG/1.1/DTD/svg11.dtd"><svg t="1633786511925" class="icon" viewBox="0 0 1024 1024" version="1.1" xmlns="http://www.w3.org/2000/svg" p-id="25643" xmlns:xlink="http://www.w3.org/1999/xlink" width="300" height="300"><defs><style type="text/css"></style></defs><path d="M480.029506 32.143232a395.570641 395.570641 0 0 0-5.116516 790.8215h37.094741a335.131796 335.131796 0 0 0 43.810168-5.75608 81.544473 81.544473 0 0 1 58.200369-23.983669 104.888577 104.888577 0 0 1 17.268241 1.598912 314.665732 314.665732 0 0 0 39.333217-18.547371 283.327072 283.327072 0 0 0 26.861709-15.989112l3.517605-2.238476a389.494778 389.494778 0 0 0 60.438844-49.566248 417.635616 417.635616 0 0 0 55.322329-69.712531c6.395645-10.233032 12.471508-20.785846 18.227589-31.978224s10.233032-21.745193 14.709983-31.978225a68.753183 68.753183 0 0 1-14.390201 0h-75.468611v-75.468611h109.365529c1.918693-10.552814 3.197822-21.105628 4.476952-31.978225s0-21.105628 0-31.978224a61.398192 61.398192 0 0 0 0-7.674774A395.570641 395.570641 0 0 0 480.029506 32.143232z m0 342.486788a53.083853 53.083853 0 1 1-53.083853 53.083854 53.083853 53.083853 0 0 1 53.083853-53.083854z" fill="#A1D0FF" p-id="25644"></path><path d="M480.029506 310.673571A117.040303 117.040303 0 1 0 596.110462 427.713874a117.040303 117.040303 0 0 0-116.080956-117.040303z m0 169.804374A53.083853 53.083853 0 1 1 532.154012 427.713874 52.764071 52.764071 0 0 1 480.029506 479.83838zM419.270879 157.817656A275.332516 275.332516 0 0 0 212.371764 358.96069v5.756081l62.357539 14.390201v-4.796734a214.254106 214.254106 0 0 1 159.891124-154.135044z" fill="#3B90F4" p-id="25645"></path><path d="M971.215039 435.388648h-63.956449a61.398192 61.398192 0 0 0 0-7.674774A427.548866 427.548866 0 1 0 468.197563 854.942957a147.419616 147.419616 0 1 0 293.240321 20.785846v-125.034859A433.944511 433.944511 0 0 0 851.936261 636.531682a119.278779 119.278779 0 0 0 70.032312-34.216701 206.899115 206.899115 0 0 0 48.606902-135.267891z m-479.673372 355.59786h-12.151726a363.592416 363.592416 0 1 1 364.231981-363.272634v7.674774h-147.739398v284.606201c-8.953903 6.715427-18.54737 13.111072-28.460621 19.186934a142.942665 142.942665 0 0 0-55.002546-10.872596 147.099834 147.099834 0 0 0-120.238126 62.677321zM612.419357 959.511752a83.782949 83.782949 0 0 1-83.463167-83.782949 84.102731 84.102731 0 0 1 83.463167-83.463166 104.888577 104.888577 0 0 1 17.268241 1.598911 83.782949 83.782949 0 0 1 36.774959 18.54737 82.50382 82.50382 0 0 1 29.419967 63.95645 83.782949 83.782949 0 0 1-83.463167 83.143384z m147.419616-300.275531v-21.42541h16.628677a213.614542 213.614542 0 0 1-16.628677 21.42541z m135.907456-131.430504a89.53903 89.53903 0 0 1-18.227588 29.419967 55.642111 55.642111 0 0 1-29.419967 15.349548 68.753183 68.753183 0 0 1-14.390201 0h-73.8697v-73.230135h144.221794a176.519801 176.519801 0 0 1-8.314338 28.46062z" fill="#3B90F4" p-id="25646"></path></svg>