<?xml version="1.0" standalone="no"?><!DOCTYPE svg PUBLIC "-//W3C//DTD SVG 1.1//EN" "http://www.w3.org/Graphics/SVG/1.1/DTD/svg11.dtd"><svg t="1633786476106" class="icon" viewBox="0 0 1024 1024" version="1.1" xmlns="http://www.w3.org/2000/svg" p-id="23764" xmlns:xlink="http://www.w3.org/1999/xlink" width="300" height="300"><defs><style type="text/css"></style></defs><path d="M890.434783 592.13913c0-111.304348-75.686957-209.252174-178.086957-235.965217-8.904348-4.452174-53.426087-22.26087-80.13913-44.521739-35.617391-31.165217-57.878261-75.686957-80.139131-97.947826-44.521739-44.521739-102.4-71.234783-173.634782-71.234783-133.565217 0-244.869565 106.852174-244.869566 240.417392v436.313043c0 35.617391 26.713043 62.330435 62.330435 62.330435h627.756522c35.617391 0 62.330435-26.713043 62.330435-62.330435v-227.06087c4.452174 4.452174 0 4.452174 4.452174 0-4.452174 4.452174 0 4.452174 0 0z m-601.043479 267.130435H195.895652c-22.26087 0-40.069565-17.808696-40.069565-40.069565V578.782609h102.4v227.060869h26.713043v53.426087z m151.373913 0H311.652174v-53.426087h26.713043V578.782609h97.947826v280.486956z m151.373913 0h-129.113043V578.782609h97.947826v227.060869h26.713044v53.426087z m151.373913 0h-129.113043v-53.426087h26.713043V578.782609h97.947827v280.486956z m80.139131 0h-57.878261V578.782609h93.495652v244.869565c4.452174 17.808696-13.356522 35.617391-35.617391 35.617391z" fill="#FF842A" p-id="23765"></path></svg>