<?xml version="1.0" standalone="no"?><!DOCTYPE svg PUBLIC "-//W3C//DTD SVG 1.1//EN" "http://www.w3.org/Graphics/SVG/1.1/DTD/svg11.dtd"><svg t="1633787106160" class="icon" viewBox="0 0 1156 1024" version="1.1" xmlns="http://www.w3.org/2000/svg" p-id="63412" xmlns:xlink="http://www.w3.org/1999/xlink" width="338.671875" height="300"><defs><style type="text/css"></style></defs><path d="M440.886117 660.516766l-158.727967 28.014114 129.985487 129.929458a71.267905 71.267905 0 0 1 28.74248 8.908488v-166.85206m610.707673-556.864546a276.219158 276.219158 0 0 0-202.87821-84.042341 277.900005 277.900005 0 0 0-203.438491 84.042341l-67.233873 67.233872-68.018267-67.233872a276.275187 276.275187 0 0 0-202.934238-84.042341 276.219158 276.219158 0 0 0-202.878209 84.042341A277.956033 277.956033 0 0 0 19.609879 306.922627a275.322707 275.322707 0 0 0 84.37851 202.822181l78.439518 78.831715h3.978004l261.427706-44.094215a25.100646 25.100646 0 0 1 4.986512-0.504254l6.443246-1.008508a12.606351 12.606351 0 0 1 6.947501 1.008508 14.679395 14.679395 0 0 1 6.443246 3.978005 11.205645 11.205645 0 0 1 2.465242 7.451754v319.865147a13.054577 13.054577 0 0 1-0.448226 3.47375 9.076573 9.076573 0 0 1 0 2.465242l103.203994 103.147965 473.774686-474.559081a274.538312 274.538312 0 0 0 84.882764-202.822181A277.11561 277.11561 0 0 0 1051.649818 103.65222m-184.893149 48.576472v-34.7375a175.536435 175.536435 0 0 1 127.520245 52.106251 173.015164 173.015164 0 0 1 53.114759 126.903933h-35.241755a137.661353 137.661353 0 0 0-42.693509-101.635203 140.070567 140.070567 0 0 0-102.867824-42.861594m143.880486 182.483935h35.241755v35.185727h-35.241755z" fill="#F1C5C2" p-id="63413"></path><path d="M186.405911 588.576523h-9.468771a9.356714 9.356714 0 0 0-7.395726 3.47375 10.309194 10.309194 0 0 0-3.978004 7.956008v296.053151a66.617562 66.617562 0 0 0-34.233246-8.964516 68.466493 68.466493 0 1 0 0 136.876958 66.281392 66.281392 0 0 0 48.632501-19.833992 68.57855 68.57855 0 0 0 19.833992-57.036735 9.188629 9.188629 0 0 0 0.504254-2.969496v-240.921376l81.857239-14.903508 158.727967-28.014114v166.571919a71.267905 71.267905 0 0 0-28.74248-8.908488H406.204645a68.57855 68.57855 0 0 0-68.466494 68.914719 67.738126 67.738126 0 0 0 68.466494 68.690606 68.57855 68.57855 0 0 0 68.914719-68.466493 38.827561 38.827561 0 0 0-0.448226-5.938992 9.076573 9.076573 0 0 0 0-2.465242 13.054577 13.054577 0 0 0 0.448226-3.47375V555.407813a11.205645 11.205645 0 0 0-2.465242-7.395726 14.679395 14.679395 0 0 0-6.443246-3.978004 12.606351 12.606351 0 0 0-6.947501-1.008508l-6.443246 1.008508a25.100646 25.100646 0 0 0-4.986512 0.504254z" fill="#DD2727" p-id="63414"></path><path d="M1045.710826 334.712627h-35.241755v35.185727h35.241755v-35.185727m-179.290326-217.221435v34.513387a140.070567 140.070567 0 0 1 102.69974 42.637481 137.661353 137.661353 0 0 1 42.693509 101.635204h35.241754a173.015164 173.015164 0 0 0-53.114759-126.903934 175.536435 175.536435 0 0 0-127.352159-51.882138z" fill="#FFFFFF" p-id="63415"></path></svg>