<?xml version="1.0" standalone="no"?><!DOCTYPE svg PUBLIC "-//W3C//DTD SVG 1.1//EN" "http://www.w3.org/Graphics/SVG/1.1/DTD/svg11.dtd"><svg t="1633786438704" class="icon" viewBox="0 0 1024 1024" version="1.1" xmlns="http://www.w3.org/2000/svg" p-id="21800" xmlns:xlink="http://www.w3.org/1999/xlink" width="300" height="300"><defs><style type="text/css"></style></defs><path d="M279.18688 1020.3c-17.396-9.597-22.195-24.295-22.195-43.79 0.5-209.46 0.3-419.019 0.3-628.478 0-30.794 10.298-41.292 40.592-41.292h427.816c30.394 0 40.692 10.498 40.692 41.292 0 209.46-0.2 419.018 0.3 628.477 0 19.496-4.799 34.194-22.196 43.792H279.18688z m233.055-658.27H335.27588c-17.396 0-21.995 4.098-22.095 20.795-0.1 91.482-0.1 183.064 0 274.547 0 15.897 5.099 21.295 20.796 21.395 118.477 0.2 236.953 0.2 355.33 0 16.397 0 21.396-5.399 21.396-22.195 0.1-91.082 0.1-182.065 0-273.147 0-17.097-4.599-21.296-21.496-21.396H512.24188z m34.193 438.214c16.597-16.697 31.894-31.994 47.19-47.291-45.29-43.192-128.574-37.293-163.067 0.8 15.497 15.297 30.894 30.594 46.99 46.49 22.296-12.797 46.192-12.497 68.887 0z m-88.183 19.496c-16.496-16.397-32.093-31.994-47.69-47.59-39.893 45.19-39.593 124.075 2.8 165.567 13.896-14.197 27.994-28.195 41.391-42.792 2-2.2 2.8-7.898 1.5-10.598-11.198-22.195-9.598-43.791 2-64.587z m155.07-47.79l-47.69 47.69c13.197 22.695 12.897 46.59 0.5 67.987 16.396 16.496 31.993 32.093 47.49 47.69 39.192-42.691 39.392-116.177-0.3-163.368zM429.85788 955.112c48.39 44.092 132.074 35.194 163.868-1.4-15.397-15.396-30.794-30.693-46.79-46.59-23.096 14.297-47.292 13.297-69.487 0.6-16.297 16.197-31.594 31.494-47.591 47.39z" fill="#438EE3" p-id="21801"></path><path d="M530.03788 0.2c19.497 3.5 39.093 6.299 58.389 10.598 65.987 14.797 122.476 47.19 171.366 93.382 9.499 8.998 10.898 18.796 6.6 25.795 22.795 34.293 45.89 65.687 65.286 99.18s29.295 70.886 35.294 108.979c-13.598 5.299-26.795 10.498-39.893 15.597C806.88388 179.265 664.61188 69.586 519.14088 62.488c-146.57-7.199-312.938 100.88-334.834 283.444-12.898-2.5-25.795-4.999-38.893-7.598 2-51.69 37.093-139.873 101.38-204.36-12.697-15.397-1.399-24.995 9.799-35.193C317.77988 42.69 389.46588 10.198 472.24988 2.4c2.6-0.2 5.099-1.5 7.698-2.4 16.697 0.2 33.394 0.2 50.09 0.2zM207.20088 515.3c0 32.493 0.2 64.987 0 97.38-0.2 32.594-23.495 56.79-55.289 57.69-30.994 0.899-57.289-23.196-57.689-55.39-0.8-66.787-0.7-133.574 0-200.461 0.3-33.093 26.295-57.189 58.19-56.189 31.493 1 54.688 25.395 54.888 58.089 0 32.993-0.1 65.987-0.1 98.88z m609.481-1.1c0-32.494-0.1-64.988 0-97.381 0.2-33.394 23.996-58.189 55.99-58.389 32.093-0.2 56.888 23.895 57.188 57.289 0.5 65.887 0.5 131.774 0 197.661-0.3 33.094-25.895 57.789-57.488 57.089-32.294-0.7-55.49-25.095-55.59-58.788-0.2-32.494-0.1-64.988-0.1-97.481z" fill="#438EE3" p-id="21802"></path><path d="M82.92588 408.12V620.18C38.13388 612.98 1.44088 567.189 0.04088 517.599c-1.4-51.69 33.293-98.28 82.884-109.479zM940.85788 620.08V408.82c44.791 5.999 82.684 53.99 82.984 104.88 0.4 51.19-37.593 100.08-82.984 106.379z" fill="#2c2c2c" p-id="21803"></path><path d="M460.05188 616.38a126332.68 126332.68 0 0 1-47.29-111.879c-5.6 16.097-9.199 28.795-14.598 40.693-1.9 4.099-7.998 8.298-12.597 8.798-10.998 1.3-22.296 1.2-33.294 0-4.1-0.5-7.698-5.6-11.598-8.599 3.7-2.499 7.999-7.898 10.998-7.198 28.795 6.099 38.893-9.998 44.292-34.393 2.999-13.498 8.998-26.295 13.597-39.393 0.3-0.9 0.9-1.6 2.4-3.999 15.796 37.293 31.093 73.586 47.49 112.178 12.898-32.993 24.995-63.887 38.293-97.88 6.498 19.096 13.097 34.693 17.096 50.99 3 12.097 9.698 12.797 19.996 13.297 10.698 0.5 12.998-4.9 15.297-13.298 7.999-28.594 16.597-56.989 25.096-85.383 1.2-4.2 2.999-8.198 5.998-16.197 11.098 48.09 21.196 91.982 31.294 135.874 1.6-0.2 2.9 0 3.1-0.4 3.499-6.799 5.998-18.997 10.398-19.696 14.897-2.3 30.394-0.9 45.69-0.2 1.9 0.1 5.4 4.899 5.1 6.998-0.5 2.9-3.7 5.6-6.3 7.699-1.099 0.9-3.598 0.3-5.398 0.4-30.094 1.3-30.094 1.4-40.692 30.494-3.8 10.498-7.599 20.896-11.498 31.294-0.3 0.7-1.4 1-3.4 2.5-9.897-43.092-19.795-85.684-30.493-132.175-6.699 21.896-12.698 40.092-17.597 58.688-2 7.399-5.299 10.198-12.497 9.299-2.3-0.3-4.6-0.2-6.999 0-21.296 1.3-43.691 4.399-41.792-31.594-1.6 1-3.1 2.1-4.699 3.1-11.498 28.794-22.695 57.588-35.393 89.982z" fill="#F79633" p-id="21804"></path></svg>