<?xml version="1.0" standalone="no"?><!DOCTYPE svg PUBLIC "-//W3C//DTD SVG 1.1//EN" "http://www.w3.org/Graphics/SVG/1.1/DTD/svg11.dtd"><svg t="1633786435843" class="icon" viewBox="0 0 1024 1024" version="1.1" xmlns="http://www.w3.org/2000/svg" p-id="21654" xmlns:xlink="http://www.w3.org/1999/xlink" width="300" height="300"><defs><style type="text/css"></style></defs><path d="M365.714286 795.794286c-105.325714 0-187.245714-61.44-201.874286-146.285715C146.285714 550.034286 231.131429 456.411429 351.085714 438.857143c14.628571-2.925714 26.331429-2.925714 43.885715-2.925714 105.325714 0 187.245714 61.44 201.874285 146.285714 14.628571 99.474286-70.217143 193.097143-187.245714 210.651428-17.554286 0-29.257143 2.925714-43.885714 2.925715z m29.257143-315.977143c-11.702857 0-23.405714 2.925714-35.108572 2.925714-96.548571 14.628571-163.84 84.845714-149.211428 157.988572 8.777143 61.44 76.068571 108.251429 157.988571 108.251428 11.702857 0 23.405714-2.925714 35.108571-2.925714 96.548571-14.628571 163.84-84.845714 149.211429-157.988572-11.702857-61.44-76.068571-108.251429-157.988571-108.251428z" fill="#f55500" p-id="21655"></path><path d="M552.96 228.205714h46.811429V614.4h-46.811429z" fill="#f55500" p-id="21656"></path><path d="M576.365714 251.611429c-8.777143 0-14.628571-5.851429-20.48-11.702858-5.851429-11.702857-2.925714-23.405714 8.777143-32.182857l146.285714-87.771428c11.702857-5.851429 23.405714-2.925714 32.182858 8.777143 5.851429 11.702857 2.925714 23.405714-8.777143 32.182857l-146.285715 87.771428c-5.851429 2.925714-8.777143 2.925714-11.702857 2.925715z" fill="#FF9813" p-id="21657"></path><path d="M681.691429 746.057143c-11.702857 0-23.405714-11.702857-23.405715-23.405714v-193.097143c0-11.702857 11.702857-23.405714 23.405715-23.405715s23.405714 11.702857 23.405714 23.405715v193.097143c0 11.702857-8.777143 23.405714-23.405714 23.405714zM795.794286 716.8c-11.702857 0-23.405714-11.702857-23.405715-23.405714V585.142857c0-11.702857 11.702857-23.405714 23.405715-23.405714s23.405714 11.702857 23.405714 23.405714v108.251429c0 11.702857-11.702857 23.405714-23.405714 23.405714z" fill="#f55500" p-id="21658"></path></svg>