<?xml version="1.0" standalone="no"?><!DOCTYPE svg PUBLIC "-//W3C//DTD SVG 1.1//EN" "http://www.w3.org/Graphics/SVG/1.1/DTD/svg11.dtd"><svg t="1633786420738" class="icon" viewBox="0 0 1024 1024" version="1.1" xmlns="http://www.w3.org/2000/svg" p-id="20789" xmlns:xlink="http://www.w3.org/1999/xlink" width="300" height="300"><defs><style type="text/css"></style></defs><path d="M425.984 821.12a130.289 130.289 0 1 0-130.289 130.304A130.299 130.299 0 0 0 425.984 821.12z m524.8-81.439A130.294 130.294 0 1 0 820.49 869.985a130.299 130.299 0 0 0 130.294-130.304z" fill="#F4CA1C" p-id="20790"></path><path d="M915.4 79.872a76.616 76.616 0 0 0-61.845-17.5L407.46 136.678a76.109 76.109 0 0 0-64.845 75.664V655.57a165.888 165.888 0 1 0 70.83 135.92c0-0.486-0.03-0.962-0.036-1.448 0-0.123 0.036-0.241 0.036-0.364v-282.24l457.805-73.815v133.12a165.888 165.888 0 1 0 70.83 135.936V137.994a76.513 76.513 0 0 0-26.68-58.122zM247.685 886.533a95.043 95.043 0 1 1 94.935-95.042 95.094 95.094 0 0 1-94.935 95.042z m165.76-450.918V212.342a5.74 5.74 0 0 1 5.207-5.632l446.116-74.307a5.412 5.412 0 0 1 4.531 1.3 5.489 5.489 0 0 1 1.971 4.286v223.816zM776.32 797.696a95.043 95.043 0 1 1 94.93-95.037 95.094 95.094 0 0 1-94.93 95.037z" fill="#595BB3" p-id="20791"></path></svg>