<?xml version="1.0" standalone="no"?><!DOCTYPE svg PUBLIC "-//W3C//DTD SVG 1.1//EN" "http://www.w3.org/Graphics/SVG/1.1/DTD/svg11.dtd"><svg t="1633786416934" class="icon" viewBox="0 0 1024 1024" version="1.1" xmlns="http://www.w3.org/2000/svg" p-id="20646" xmlns:xlink="http://www.w3.org/1999/xlink" width="300" height="300"><defs><style type="text/css"></style></defs><path d="M644.843 454.672q11.861 0 28.467-7.908t34.792-15.419 35.583-10.28 31.63 8.699 22.93 40.722 8.699 85.4v357.411q0 22.932-10.28 43.095t-28.466 35.188-43.49 23.722-55.352 8.698H341.992q-22.14 0-43.095-8.698t-37.164-23.722-26.094-35.188-9.885-43.095V555.886q1.582-55.352 11.07-84.213t24.513-39.932 32.816-9.094 35.188 9.094 32.024 15.023 23.327 7.908h21.35q7.907 0 14.628-3.954t11.466-10.28 7.117-13.442 2.372-13.442V193.73h-7.117q-10.28 0-17.396-6.326t-7.117-15.024 7.117-15.024 17.396-6.326h7.117v-13.442h-7.117q-10.28 0-17.396-6.326t-7.117-15.024 7.117-15.024 17.396-6.326h7.117v-6.326q0-1.581 0.395-3.558t0.395-3.558h-7.907q-10.28 0-17.396-6.326t-7.117-15.024 7.117-15.024 17.396-6.326h14.233q7.908-20.56 30.444-29.653T549.165 0q36.373 0 55.35 5.14t27.281 16.21 9.489 27.675 1.186 39.537v55.352q0 23.722-8.303 33.606t-18.582 16.21-18.187 14.233-6.326 27.676v177.915q0 14.233 11.466 27.675t24.908 13.443h17.396z m-31.63 429.368q0-11.86-9.883-20.559t-23.327-8.698H453.486q-14.233 0-24.118 8.698t-9.884 20.56v1.58q0 11.862 9.884 20.56t24.118 8.698h126.517q13.443 0 23.327-8.698t9.884-20.56v-1.58z m-94.096-71.957q27.675 0 52.188-10.675t42.7-28.861 28.861-43.095 10.675-52.584-10.675-52.188-28.861-42.7-42.7-28.862-52.188-10.675-51.793 10.675-42.305 28.862-28.861 42.7-10.675 52.188 10.675 52.584 28.861 43.095 42.305 28.861 51.793 10.675z m0-228.522q18.977 0 35.978 7.512t29.652 20.164 20.164 29.653 7.512 35.978-7.512 35.978-20.164 29.653-29.652 20.164-35.978 7.512-35.979-7.512-29.257-20.164-19.768-29.653-7.512-35.978 7.512-35.978 19.768-29.653 29.257-20.164 35.979-7.512z" fill="#EF660C" p-id="20647"></path></svg>