<?xml version="1.0" standalone="no"?><!DOCTYPE svg PUBLIC "-//W3C//DTD SVG 1.1//EN" "http://www.w3.org/Graphics/SVG/1.1/DTD/svg11.dtd"><svg t="1633786397710" class="icon" viewBox="0 0 1024 1024" version="1.1" xmlns="http://www.w3.org/2000/svg" p-id="20356" xmlns:xlink="http://www.w3.org/1999/xlink" width="300" height="300"><defs><style type="text/css"></style></defs><path d="M848.1 63.5H175.3c-61.7 0-112.1 50.5-112.1 112.1v672.8c0 61.7 50.5 112.1 112.1 112.1h672.8c61.7 0 112.1-50.5 112.1-112.1V175.6c0-61.6-50.5-112.1-112.1-112.1zM694.8 407.9c0 7.2-3.3 14-9 18.5-4.2 3.3-9.3 5.1-14.6 5.1-1.8 0-3.7-0.2-5.5-0.6l-139-33.2v321.1c0 7-3 13.2-7.8 17.5-30.2 34.4-66.6 53.3-103 53.3-48.2 0-87.3-33.8-87.3-75.2 0-28.3 11.7-51.4 34-66.7 17.5-12.1 40.5-18.4 66.5-18.4 2.8 0 5.7 0.1 8.5 0.2 1.2 0.1 2.5 0.1 3.8 0.1 12.4 0 27.2-2.6 38.2-5.1V258c0-7.2 3.3-14 9-18.5s13-6.1 20.1-4.4l168 40.1c10.6 2.5 18.1 12 18.1 22.9v109.8z" fill="#FF81B7" p-id="20357"></path></svg>