<?xml version="1.0" standalone="no"?><!DOCTYPE svg PUBLIC "-//W3C//DTD SVG 1.1//EN" "http://www.w3.org/Graphics/SVG/1.1/DTD/svg11.dtd"><svg t="1633786386417" class="icon" viewBox="0 0 1024 1024" version="1.1" xmlns="http://www.w3.org/2000/svg" p-id="19369" xmlns:xlink="http://www.w3.org/1999/xlink" width="300" height="300"><defs><style type="text/css"></style></defs><path d="M198.415059 133.12a131.915294 131.915294 0 1 0 263.710117 0 131.915294 131.915294 0 0 0-263.710117 0z" fill="#3EC1D3" p-id="19370"></path><path d="M988.280471 471.642353l-0.90353-258.409412c4.818824-109.447529-70.475294-208.896-229.315765-157.455059L436.826353 154.925176c-48.609882 13.974588-88.425412 64.813176-85.654588 159.62353l1.084235 249.615059v13.613176c-0.180706 21.383529-26.322824 35.177412-45.899294 26.684235a195.222588 195.222588 0 0 0-129.325177-9.637647 197.210353 197.210353 0 0 0-138.541176 241.242353c28.190118 104.448 140.047059 159.924706 223.713882 157.153883h28.852706c95.171765-14.456471 192.271059-118.543059 181.609412-213.353412-3.252706-28.852706-3.011765-169.984-3.011765-198.957177l-0.602353-86.317176c-7.830588-103.845647 53.187765-127.819294 53.187765-127.819294l239.977412-77.040941s94.388706-36.382118 93.123764 51.440941v122.277647c-0.120471 28.310588-28.912941 47.585882-55.597176 38.128941a194.740706 194.740706 0 0 0-117.278118-4.818823 197.210353 197.210353 0 0 0-138.541176 241.242353c28.190118 104.448 133.722353 150.287059 241.242353 138.541176 119.446588-13.010824 194.138353-118.061176 204.559059-212.630588 7.228235-65.536-1.445647-175.224471-1.445647-192.271059z m-751.134118 421.044706a94.087529 94.087529 0 1 1 0.060235-188.235294 94.087529 94.087529 0 0 1-0.060235 188.175059z m503.868235-110.832941a94.087529 94.087529 0 1 1 0.060236-188.175059 94.087529 94.087529 0 0 1-0.060236 188.175059z" fill="#666666" p-id="19371"></path><path d="M644.156235 688.730353a94.991059 94.991059 0 1 0 189.982118 0 94.991059 94.991059 0 0 0-189.982118 0zM141.673412 800.286118a94.991059 94.991059 0 1 0 189.982117 0 94.991059 94.991059 0 0 0-189.982117 0z" fill="#FFFFFF" p-id="19372"></path></svg>