<?xml version="1.0" standalone="no"?><!DOCTYPE svg PUBLIC "-//W3C//DTD SVG 1.1//EN" "http://www.w3.org/Graphics/SVG/1.1/DTD/svg11.dtd"><svg t="1633786353633" class="icon" viewBox="0 0 1024 1024" version="1.1" xmlns="http://www.w3.org/2000/svg" p-id="18052" xmlns:xlink="http://www.w3.org/1999/xlink" width="300" height="300"><defs><style type="text/css"></style></defs><path d="M967.111111 512A455.111111 455.111111 0 1 1 56.888889 512a455.111111 455.111111 0 0 1 910.222222 0" fill="#3D92D0" p-id="18053"></path><path d="M480.654222 596.935111S410.737778 543.118222 377.969778 536.177778c-76.970667-16.327111-127.943111 33.564444-125.041778 99.555555 4.096 94.151111 119.409778 116.110222 182.499556 104.391111 63.146667-11.605333 94.776889-53.475556 102.058666-104.846222 7.281778-51.370667 43.918222-247.409778 43.918222-247.409778s62.122667 57.457778 79.928889 77.198223c24.803556 27.534222-0.170667 74.865778-0.170666 74.865777s67.868444-11.320889 84.593777-98.417777c11.548444-60.131556-21.902222-71.850667-61.610666-103.480889-77.596444-61.667556-113.664-84.650667-136.533334-89.486222-22.755556-4.778667-42.211556 4.152889-42.951111 76.401777-0.796444 72.248889-24.007111 271.985778-24.007111 271.985778" fill="#ff6ba5" p-id="18054"></path></svg>